<svg id="Layer_1" data-name="Layer 1" xmlns="http://www.w3.org/2000/svg" xmlns:xlink="http://www.w3.org/1999/xlink" viewBox="0 0 1920 1080"><defs><style>.cls-1{fill:#fff;}.cls-2,.cls-4{fill:#6dd3c7;}.cls-3{fill:#ffd049;}.cls-4{font-size:36px;font-family:Montserrat-Bold, Montserrat;font-weight:700;}.cls-5{letter-spacing:-0.02em;}.cls-6{letter-spacing:-0.01em;}.cls-7{letter-spacing:-0.01em;}.cls-8{letter-spacing:0em;}.cls-9{font-size:24px;font-family:Montserrat-Regular, Montserrat;font-weight:400;fill:#000;}.cls-10{letter-spacing:0em;}.cls-11{letter-spacing:-0.02em;}.cls-12{letter-spacing:0em;}.cls-13{letter-spacing:-0.01em;}.cls-14{letter-spacing:-0.01em;}.cls-15{letter-spacing:0em;}.cls-16{letter-spacing:0em;}.cls-17{letter-spacing:-0.02em;}.cls-18{letter-spacing:-0.02em;}.cls-19{letter-spacing:-0.02em;}.cls-20{letter-spacing:0em;}.cls-21{letter-spacing:-0.01em;}.cls-22{letter-spacing:0em;}.cls-23{letter-spacing:-0.02em;}.cls-24{letter-spacing:0em;}.cls-25{letter-spacing:-0.01em;}.cls-26{letter-spacing:-0.03em;}.cls-27{letter-spacing:-0.02em;}.cls-28{letter-spacing:-0.03em;}.cls-29{letter-spacing:-0.02em;}.cls-30{letter-spacing:-0.02em;}.cls-31{letter-spacing:-0.01em;}.cls-32{letter-spacing:-0.01em;}.cls-33{letter-spacing:0.02em;}.cls-34{letter-spacing:-0.02em;}.cls-35{letter-spacing:-0.01em;}.cls-36{letter-spacing:0em;}.cls-37{letter-spacing:-0.01em;}.cls-38{letter-spacing:-0.01em;}.cls-39{letter-spacing:-0.02em;}.cls-40{letter-spacing:-0.02em;}.cls-41{letter-spacing:-0.02em;}.cls-42{letter-spacing:-0.02em;}.cls-43{letter-spacing:-0.02em;}.cls-44{letter-spacing:0em;}.cls-45{letter-spacing:-0.01em;}.cls-46{letter-spacing:-0.05em;}.cls-47{letter-spacing:-0.01em;}.cls-48{letter-spacing:-0.01em;}.cls-49{letter-spacing:0em;}.cls-50{letter-spacing:0em;}.cls-51{letter-spacing:-0.02em;}.cls-52{letter-spacing:-0.02em;}.cls-53{letter-spacing:-0.02em;}.cls-54{letter-spacing:-0.02em;}.cls-55{letter-spacing:-0.03em;}.cls-56{letter-spacing:0em;}</style></defs><title>beru</title><rect class="cls-1" width="1920" height="1080"/><path class="cls-2" d="M1518.86,1132h-20.72C1233.52,1132,984,1064,1019,438.14,1046.42-52.25,1233.52-41,1498.14-41h20.72C1783.48-41,1998,173.52,1998,438.14V652.86C1998,917.48,1783.48,1132,1518.86,1132Z"/><rect class="cls-3" x="1666" y="611" width="376" height="30"/><rect class="cls-3" x="1732" y="567" width="376" height="30"/><image width="1708" height="3432" transform="translate(1413 138) scale(0.21)" xlink:href="../../../Desktop/%D0%98%D0%BB%D0%BB%D1%8E%D1%81%D1%82%D1%80%D0%B0%D1%86%D0%B8%D0%B8/iPhoneX-1.png"/><image width="1500" height="3248" transform="translate(1111 256) scale(0.21)" xlink:href="../../../Desktop/%D0%98%D0%BB%D0%BB%D1%8E%D1%81%D1%82%D1%80%D0%B0%D1%86%D0%B8%D0%B8/3.png"/><text class="cls-4" transform="translate(148 103.67)"><tspan class="cls-5">К</tspan><tspan x="25.81" y="0">ак </tspan><tspan class="cls-6" x="80.85" y="0">с</tspan><tspan class="cls-7" x="101.92" y="0">о</tspan><tspan class="cls-8" x="125.1" y="0">здать чат</tspan><tspan class="cls-9"><tspan x="0" y="57.6">Ча</tspan><tspan class="cls-10" x="31.54" y="57.6">т</tspan><tspan x="42.94" y="57.6">у м</tspan><tspan class="cls-11" x="81.58" y="57.6">о</tspan><tspan class="cls-12" x="96.38" y="57.6">жно задать н</tspan><tspan class="cls-13" x="257.73" y="57.6">а</tspan><tspan class="cls-12" x="271.46" y="57.6">звание и </tspan><tspan class="cls-14" x="389.49" y="57.6">и</tspan><tspan class="cls-12" x="405.74" y="57.6">зоб</tspan><tspan class="cls-15" x="449.63" y="57.6">р</tspan><tspan class="cls-16" x="466.03" y="57.6">а</tspan><tspan class="cls-17" x="480.02" y="57.6">ж</tspan><tspan x="499.39" y="57.6">ение, </tspan><tspan class="cls-11" x="573.14" y="57.6">к</tspan><tspan class="cls-18" x="586.62" y="57.6">о</tspan><tspan class="cls-19" x="601.41" y="57.6">т</tspan><tspan x="612.18" y="57.6">орые </tspan><tspan class="cls-14" x="0" y="86.4">и</tspan><tspan x="16.25" y="86.4">зменяемы в дальнейшем.</tspan><tspan x="0" y="115.2">В мобильном прил</tspan><tspan class="cls-11" x="240.52" y="115.2">ож</tspan><tspan x="274.7" y="115.2">ении в чат м</tspan><tspan class="cls-17" x="430.89" y="115.2">о</tspan><tspan x="445.7" y="115.2">жно до</tspan><tspan class="cls-20" x="534.16" y="115.2">б</tspan><tspan x="549.91" y="115.2">авить </tspan><tspan class="cls-19" x="626.15" y="115.2">т</tspan><tspan class="cls-21" x="636.93" y="115.2">е</tspan><tspan class="cls-16" x="651.4" y="115.2">х л</tspan><tspan class="cls-22" x="685.48" y="115.2">ю</tspan><tspan class="cls-12" x="706.17" y="115.2">дей, чей </tspan><tspan x="0" y="144">номер на</tspan><tspan class="cls-11" x="118.2" y="144">х</tspan><tspan class="cls-20" x="130.37" y="144">о</tspan><tspan x="145.56" y="144">ди</tspan><tspan class="cls-19" x="177.69" y="144">т</tspan><tspan class="cls-5" x="188.47" y="144">с</tspan><tspan x="201.55" y="144">я в спис</tspan><tspan class="cls-11" x="302.97" y="144">к</tspan><tspan x="316.46" y="144">е </tspan><tspan class="cls-17" x="337.58" y="144">к</tspan><tspan x="351.07" y="144">онта</tspan><tspan class="cls-13" x="407.87" y="144">к</tspan><tspan class="cls-23" x="421.55" y="144">т</tspan><tspan x="432.33" y="144">ов п</tspan><tspan class="cls-22" x="484.65" y="144">о</tspan><tspan x="499.84" y="144">л</tspan><tspan class="cls-24" x="515.01" y="144">ь</tspan><tspan x="528.4" y="144">зова</tspan><tspan class="cls-19" x="585.06" y="144">т</tspan><tspan class="cls-14" x="595.84" y="144">е</tspan><tspan x="610.41" y="144">ля.</tspan><tspan x="0" y="172.8">Вве</tspan><tspan class="cls-25" x="47.4" y="172.8">с</tspan><tspan x="60.67" y="172.8">ти номер в</tspan><tspan class="cls-21" x="197.42" y="172.8">р</tspan><tspan class="cls-16" x="213.53" y="172.8">учную не запрещен</tspan><tspan class="cls-21" x="462.86" y="172.8">о</tspan><tspan x="477.76" y="172.8">. </tspan><tspan class="cls-26" x="489.14" y="172.8">К</tspan><tspan x="505.27" y="172.8">онечн</tspan><tspan class="cls-27" x="582.14" y="172.8">о</tspan><tspan x="597.04" y="172.8">, не п</tspan><tspan class="cls-15" x="661.91" y="172.8">о</tspan><tspan x="677.1" y="172.8">лучи</tspan><tspan class="cls-19" x="736.55" y="172.8">т</tspan><tspan class="cls-5" x="747.33" y="172.8">с</tspan><tspan x="760.41" y="172.8">я </tspan><tspan x="0" y="201.6">исключить ошиб</tspan><tspan class="cls-26" x="211.82" y="201.6">к</tspan><tspan class="cls-16" x="225.04" y="201.6">у в наб</tspan><tspan class="cls-15" x="311.61" y="201.6">р</tspan><tspan class="cls-16" x="328" y="201.6">анных циф</tspan><tspan class="cls-15" x="463.91" y="201.6">р</tspan><tspan class="cls-16" x="480.31" y="201.6">ах. За</tspan><tspan class="cls-19" x="547.55" y="201.6">т</tspan><tspan x="558.33" y="201.6">о </tspan><tspan class="cls-23" x="579.88" y="201.6">т</tspan><tspan x="590.66" y="201.6">е, </tspan><tspan class="cls-13" x="616.86" y="201.6">к</tspan><tspan class="cls-19" x="630.54" y="201.6">т</tspan><tspan x="641.32" y="201.6">о не любит </tspan><tspan x="0" y="230.4">поп</tspan><tspan class="cls-20" x="47.62" y="230.4">о</tspan><tspan x="62.81" y="230.4">лнять свою </tspan><tspan class="cls-19" x="210.28" y="230.4">т</tspan><tspan class="cls-14" x="221.06" y="230.4">е</tspan><tspan x="235.63" y="230.4">лефонную кни</tspan><tspan class="cls-10" x="419.23" y="230.4">г</tspan><tspan class="cls-28" x="430.67" y="230.4">у</tspan><tspan x="443.25" y="230.4">, </tspan><tspan class="cls-21" x="454.63" y="230.4">б</tspan><tspan class="cls-29" x="470.08" y="230.4">у</tspan><tspan x="482.92" y="230.4">д</tspan><tspan class="cls-10" x="498.55" y="230.4">у</tspan><tspan x="511.99" y="230.4">т дов</tspan><tspan class="cls-20" x="575.1" y="230.4">о</tspan><tspan x="590.3" y="230.4">льны.</tspan><tspan class="cls-21" x="0" y="288">Б</tspan><tspan class="cls-30" x="17.09" y="288">у</tspan><tspan class="cls-12" x="29.93" y="288">дущие уча</tspan><tspan class="cls-25" x="160.63" y="288">с</tspan><tspan x="173.9" y="288">тники чата, п</tspan><tspan class="cls-20" x="335.97" y="288">о</tspan><tspan x="351.16" y="288">лучат СМС с </tspan><tspan class="cls-31" x="509.3" y="288">с</tspan><tspan x="522.59" y="288">сыл</tspan><tspan class="cls-17" x="570.11" y="288">к</tspan><tspan x="583.6" y="288">ой на с</tspan><tspan class="cls-32" x="671.66" y="288">к</tspan><tspan class="cls-12" x="685.36" y="288">ачивание </tspan><tspan x="0" y="316.8">прил</tspan><tspan class="cls-11" x="64.32" y="316.8">ож</tspan><tspan x="98.5" y="316.8">ения Бе</tspan><tspan class="cls-27" x="199.15" y="316.8">р</tspan><tspan class="cls-28" x="215.25" y="316.8">у</tspan><tspan x="227.83" y="316.8">. По</tspan><tspan class="cls-5" x="274.27" y="316.8">с</tspan><tspan x="287.35" y="316.8">ле </tspan><tspan class="cls-21" x="323.64" y="316.8">у</tspan><tspan class="cls-32" x="336.67" y="316.8">с</tspan><tspan class="cls-12" x="349.94" y="316.8">тановки они смо</tspan><tspan class="cls-10" x="560.08" y="316.8">гу</tspan><tspan x="584.97" y="316.8">т найти свои чаты </tspan><tspan x="0" y="345.6">в </tspan><tspan class="cls-20" x="20.88" y="345.6">р</tspan><tspan class="cls-14" x="37.27" y="345.6">а</tspan><tspan x="51" y="345.6">зд</tspan><tspan class="cls-14" x="79.44" y="345.6">е</tspan><tspan x="94.01" y="345.6">ле “П</tspan><tspan class="cls-20" x="159.26" y="345.6">о</tspan><tspan x="174.46" y="345.6">дарок д</tspan><tspan class="cls-21" x="271.65" y="345.6">р</tspan><tspan x="287.76" y="345.6">у</tspan><tspan class="cls-10" x="301.15" y="345.6">г</tspan><tspan class="cls-33" x="312.6" y="345.6">у</tspan><tspan class="cls-34" x="326.42" y="345.6">”</tspan><tspan x="335.18" y="345.6">.</tspan></tspan><tspan class="cls-5" x="0" y="417.6">К</tspan><tspan x="25.81" y="417.6">ак п</tspan><tspan class="cls-35" x="105.51" y="417.6">о</tspan><tspan x="128.77" y="417.6">д</tspan><tspan class="cls-36" x="154.01" y="417.6">е</tspan><tspan x="176.97" y="417.6">лить</tspan><tspan class="cls-37" x="267.55" y="417.6">с</tspan><tspan x="288.36" y="417.6">я </tspan><tspan class="cls-38" x="321.15" y="417.6">к</tspan><tspan x="343.9" y="417.6">а</tspan><tspan class="cls-39" x="365.65" y="417.6">р</tspan><tspan class="cls-40" x="389.91" y="417.6">т</tspan><tspan x="408.38" y="417.6">оч</tspan><tspan class="cls-41" x="454.75" y="417.6">к</tspan><tspan x="477.25" y="417.6">ой </tspan><tspan class="cls-42" x="536.54" y="417.6">т</tspan><tspan x="555.01" y="417.6">ова</tspan><tspan class="cls-31" x="622.69" y="417.6">р</tspan><tspan x="647.35" y="417.6">а</tspan><tspan class="cls-9"><tspan x="0" y="475.2">На </tspan><tspan class="cls-25" x="39.98" y="475.2">с</tspan><tspan x="53.26" y="475.2">т</tspan><tspan class="cls-20" x="64.61" y="475.2">р</tspan><tspan x="81" y="475.2">анице </tspan><tspan class="cls-25" x="165.24" y="475.2">к</tspan><tspan class="cls-16" x="178.94" y="475.2">аждо</tspan><tspan class="cls-19" x="243.64" y="475.2">г</tspan><tspan x="254.47" y="475.2">о </tspan><tspan class="cls-43" x="276.02" y="475.2">т</tspan><tspan x="286.8" y="475.2">ова</tspan><tspan class="cls-22" x="330.64" y="475.2">р</tspan><tspan class="cls-12" x="347.04" y="475.2">а п</tspan><tspan class="cls-11" x="383.49" y="475.2">о</tspan><tspan x="398.3" y="475.2">явля</tspan><tspan class="cls-29" x="457.15" y="475.2">е</tspan><tspan class="cls-43" x="471.43" y="475.2">т</tspan><tspan class="cls-5" x="482.2" y="475.2">с</tspan><tspan x="495.28" y="475.2">я в</tspan><tspan class="cls-44" x="530.71" y="475.2">о</tspan><tspan x="545.87" y="475.2">зм</tspan><tspan class="cls-11" x="577.65" y="475.2">о</tspan><tspan x="592.46" y="475.2">жно</tspan><tspan class="cls-25" x="643.74" y="475.2">с</tspan><tspan x="657.02" y="475.2">ть </tspan><tspan class="cls-20" x="688.17" y="475.2">р</tspan><tspan x="704.56" y="475.2">асшарить </tspan><tspan x="0" y="504">данный </tspan><tspan class="cls-19" x="103.65" y="504">т</tspan><tspan x="114.43" y="504">овар в </tspan><tspan class="cls-20" x="201.91" y="504">о</tspan><tspan x="217.1" y="504">дин </tspan><tspan class="cls-14" x="271.72" y="504">и</tspan><tspan x="287.97" y="504">з </tspan><tspan class="cls-45" x="307.08" y="504">с</tspan><tspan x="320.4" y="504">уще</tspan><tspan class="cls-25" x="370.91" y="504">с</tspan><tspan x="384.19" y="504">твующих ча</tspan><tspan class="cls-19" x="530.37" y="504">т</tspan><tspan x="541.14" y="504">ов. </tspan><tspan class="cls-25" x="582.38" y="504">К</tspan><tspan class="cls-16" x="598.98" y="504">ноп</tspan><tspan class="cls-25" x="646.62" y="504">к</tspan><tspan x="660.33" y="504">а зам</tspan><tspan class="cls-29" x="726.37" y="504">е</tspan><tspan x="740.65" y="504">тна, </tspan><tspan x="0" y="532.8">к</tspan><tspan class="cls-20" x="13.94" y="532.8">р</tspan><tspan x="30.34" y="532.8">асива и лег</tspan><tspan class="cls-11" x="173.42" y="532.8">к</tspan><tspan class="cls-20" x="186.91" y="532.8">о</tspan><tspan x="202.1" y="532.8">до</tspan><tspan class="cls-25" x="232.99" y="532.8">с</tspan><tspan class="cls-10" x="246.26" y="532.8">т</tspan><tspan x="257.66" y="532.8">упна. </tspan></tspan><tspan class="cls-46" x="0" y="604.8">Т</tspan><tspan x="20.95" y="604.8">овар выб</tspan><tspan class="cls-47" x="201.34" y="604.8">р</tspan><tspan x="226" y="604.8">ан. </tspan><tspan class="cls-5" x="292.35" y="604.8">К</tspan><tspan class="cls-8" x="318.16" y="604.8">ак начать </tspan><tspan class="cls-48" x="515.73" y="604.8">с</tspan><tspan x="536.82" y="604.8">бор ср</tspan><tspan class="cls-49" x="666.06" y="604.8">е</tspan><tspan class="cls-8" x="689.03" y="604.8">д</tspan><tspan class="cls-50" x="714.26" y="604.8">с</tspan><tspan x="735.5" y="604.8">тв</tspan><tspan class="cls-9"><tspan x="0" y="662.4">В </tspan><tspan class="cls-25" x="24.26" y="662.4">к</tspan><tspan x="37.97" y="662.4">а</tspan><tspan class="cls-18" x="51.96" y="662.4">р</tspan><tspan class="cls-19" x="67.94" y="662.4">т</tspan><tspan x="78.72" y="662.4">оч</tspan><tspan class="cls-11" x="108.36" y="662.4">к</tspan><tspan x="121.85" y="662.4">е </tspan><tspan class="cls-32" x="142.97" y="662.4">к</tspan><tspan x="156.67" y="662.4">аждо</tspan><tspan class="cls-19" x="221.37" y="662.4">г</tspan><tspan x="232.2" y="662.4">о </tspan><tspan class="cls-20" x="253.75" y="662.4">р</tspan><tspan x="270.14" y="662.4">асшаренно</tspan><tspan class="cls-19" x="412.89" y="662.4">г</tspan><tspan x="423.71" y="662.4">о </tspan><tspan class="cls-19" x="445.27" y="662.4">т</tspan><tspan x="456.04" y="662.4">ова</tspan><tspan class="cls-20" x="499.89" y="662.4">р</tspan><tspan x="516.28" y="662.4">а, на</tspan><tspan class="cls-11" x="571.84" y="662.4">х</tspan><tspan class="cls-15" x="584.01" y="662.4">о</tspan><tspan class="cls-16" x="599.2" y="662.4">ди</tspan><tspan class="cls-23" x="631.33" y="662.4">т</tspan><tspan class="cls-51" x="642.11" y="662.4">с</tspan><tspan x="655.19" y="662.4">я кноп</tspan><tspan class="cls-25" x="737.61" y="662.4">к</tspan><tspan x="751.31" y="662.4">а </tspan><tspan x="0" y="691.2">“Начать </tspan><tspan class="cls-50" x="102.38" y="691.2">с</tspan><tspan x="115.85" y="691.2">бо</tspan><tspan class="cls-20" x="146.93" y="691.2">р</tspan><tspan class="cls-52" x="163.32" y="691.2">”</tspan><tspan x="172.08" y="691.2">, на</tspan><tspan class="cls-25" x="213.65" y="691.2">ж</tspan><tspan x="233.23" y="691.2">ав на </tspan><tspan class="cls-11" x="304.58" y="691.2">к</tspan><tspan class="cls-53" x="318.07" y="691.2">о</tspan><tspan class="cls-19" x="332.85" y="691.2">т</tspan><tspan x="343.63" y="691.2">о</tspan><tspan class="cls-21" x="358.89" y="691.2">р</tspan><tspan class="cls-16" x="375" y="691.2">у</tspan><tspan class="cls-21" x="388.39" y="691.2">ю</tspan><tspan x="408.79" y="691.2">, влад</tspan><tspan class="cls-14" x="479.54" y="691.2">е</tspan><tspan x="494.11" y="691.2">лец чата </tspan><tspan class="cls-54" x="606.81" y="691.2">(</tspan><tspan class="cls-53" x="614.18" y="691.2">э</tspan><tspan x="627.4" y="691.2">та </tspan><tspan class="cls-21" x="659.03" y="691.2">ф</tspan><tspan x="677.51" y="691.2">ункция </tspan><tspan x="0" y="720">до</tspan><tspan class="cls-25" x="30.89" y="720">с</tspan><tspan class="cls-10" x="44.16" y="720">т</tspan><tspan x="55.56" y="720">упна </tspan><tspan class="cls-19" x="121.61" y="720">т</tspan><tspan class="cls-20" x="132.38" y="720">о</tspan><tspan x="147.57" y="720">ль</tspan><tspan class="cls-11" x="176.25" y="720">к</tspan><tspan x="189.74" y="720">о ем</tspan><tspan class="cls-28" x="245.08" y="720">у</tspan><tspan x="257.66" y="720">, </tspan><tspan class="cls-17" x="269.04" y="720">х</tspan><tspan class="cls-18" x="281.2" y="720">о</tspan><tspan class="cls-14" x="295.99" y="720">т</tspan><tspan x="307.08" y="720">я в</tspan><tspan class="cls-44" x="342.5" y="720">о</tspan><tspan class="cls-16" x="357.67" y="720">зм</tspan><tspan class="cls-17" x="389.44" y="720">ож</tspan><tspan x="423.62" y="720">ен сценарий, </tspan><tspan class="cls-55" x="596.75" y="720">г</tspan><tspan x="607.38" y="720">де </tspan><tspan class="cls-50" x="644.13" y="720">с</tspan><tspan x="657.59" y="720">бором м</tspan><tspan class="cls-17" x="764.61" y="720">ож</tspan><tspan class="cls-29" x="798.78" y="720">е</tspan><tspan x="813.06" y="720">т </tspan><tspan x="0" y="748.8">занимать</tspan><tspan class="cls-5" x="117.33" y="748.8">с</tspan><tspan x="130.41" y="748.8">я любой </tspan><tspan class="cls-14" x="241.05" y="748.8">и</tspan><tspan x="257.3" y="748.8">з уча</tspan><tspan class="cls-32" x="318.16" y="748.8">с</tspan><tspan x="331.44" y="748.8">тни</tspan><tspan class="cls-11" x="375.5" y="748.8">к</tspan><tspan x="388.99" y="748.8">ов), при</tspan><tspan class="cls-25" x="487.27" y="748.8">с</tspan><tspan class="cls-10" x="500.54" y="748.8">т</tspan><tspan x="511.94" y="748.8">упа</tspan><tspan class="cls-29" x="555.5" y="748.8">е</tspan><tspan x="569.78" y="748.8">т к </tspan><tspan class="cls-31" x="607.65" y="748.8">с</tspan><tspan class="cls-56" x="620.94" y="748.8">о</tspan><tspan x="636.11" y="748.8">зданию </tspan><tspan class="cls-11" x="0" y="777.6">к</tspan><tspan x="13.49" y="777.6">ош</tspan><tspan class="cls-14" x="51.05" y="777.6">е</tspan><tspan x="65.62" y="777.6">ль</tspan><tspan class="cls-25" x="94.29" y="777.6">к</tspan><tspan x="108" y="777.6">а.</tspan><tspan x="0" y="835.2">В данном </tspan><tspan class="cls-5" x="126.79" y="835.2">с</tspan><tspan x="139.87" y="835.2">лучае Бе</tspan><tspan class="cls-21" x="250.2" y="835.2">р</tspan><tspan class="cls-16" x="266.3" y="835.2">у вып</tspan><tspan class="cls-15" x="335.59" y="835.2">о</tspan><tspan x="350.78" y="835.2">лня</tspan><tspan class="cls-30" x="396.69" y="835.2">е</tspan><tspan x="410.97" y="835.2">т р</tspan><tspan class="cls-20" x="445.08" y="835.2">о</tspan><tspan x="460.27" y="835.2">ль поср</tspan><tspan class="cls-14" x="556.65" y="835.2">е</tspan><tspan x="571.22" y="835.2">дни</tspan><tspan class="cls-25" x="619.55" y="835.2">к</tspan><tspan x="633.26" y="835.2">а, </tspan><tspan x="0" y="864">пр</tspan><tspan class="cls-14" x="32.64" y="864">е</tspan><tspan x="47.21" y="864">до</tspan><tspan class="cls-25" x="78.1" y="864">с</tspan><tspan x="91.37" y="864">тавляюще</tspan><tspan class="cls-19" x="218.9" y="864">г</tspan><tspan x="229.73" y="864">о в</tspan><tspan class="cls-56" x="265.87" y="864">о</tspan><tspan x="281.04" y="864">зм</tspan><tspan class="cls-11" x="312.81" y="864">о</tspan><tspan class="cls-12" x="327.62" y="864">жно</tspan><tspan class="cls-25" x="378.91" y="864">с</tspan><tspan x="392.18" y="864">ти свое</tspan><tspan class="cls-19" x="484.53" y="864">г</tspan><tspan x="495.35" y="864">о ин</tspan><tspan class="cls-19" x="549.62" y="864">т</tspan><tspan x="560.39" y="864">ерфейса для </tspan><tspan x="0" y="892.8">о</tspan><tspan class="cls-45" x="15.26" y="892.8">с</tspan><tspan x="28.58" y="892.8">уще</tspan><tspan class="cls-25" x="79.1" y="892.8">с</tspan><tspan x="92.38" y="892.8">твления перев</tspan><tspan class="cls-20" x="278.76" y="892.8">о</tspan><tspan x="293.95" y="892.8">дов.</tspan></tspan></text></svg>