<svg id="Layer_1" data-name="Layer 1" xmlns="http://www.w3.org/2000/svg" xmlns:xlink="http://www.w3.org/1999/xlink" viewBox="0 0 1920 1080"><defs><style>.cls-1{fill:#fbf9fa;}.cls-2{fill:#6d3df7;}.cls-3{fill:#fff;}.cls-4{fill:#ffd049;}.cls-5{font-size:36px;fill:#6dd3c7;font-family:Montserrat-Bold, Montserrat;font-weight:700;}.cls-6{letter-spacing:-0.01em;}.cls-7{letter-spacing:0em;}.cls-8{letter-spacing:-0.01em;}.cls-9{letter-spacing:0em;}.cls-10{font-size:24px;font-family:Montserrat-Regular, Montserrat;font-weight:400;fill:#000;}.cls-11{letter-spacing:-0.01em;}.cls-12{letter-spacing:0em;}.cls-13{letter-spacing:-0.02em;}.cls-14{letter-spacing:-0.01em;}.cls-15{letter-spacing:-0.01em;}.cls-16{letter-spacing:0em;}.cls-17{letter-spacing:-0.02em;}.cls-18{letter-spacing:-0.02em;}.cls-19{letter-spacing:-0.02em;}.cls-20{letter-spacing:-0.03em;}.cls-21{letter-spacing:0em;}.cls-22{letter-spacing:-0.02em;}.cls-23{letter-spacing:-0.01em;}.cls-24{letter-spacing:-0.01em;}.cls-25{letter-spacing:0em;}.cls-26{letter-spacing:0em;}.cls-27{letter-spacing:0em;}.cls-28{letter-spacing:-0.02em;}.cls-29{letter-spacing:-0.02em;}.cls-30{letter-spacing:-0.03em;}.cls-31{letter-spacing:-0.01em;}.cls-32{letter-spacing:-0.02em;}.cls-33{letter-spacing:-0.02em;}.cls-34{font-size:28px;}</style></defs><title>beru</title><rect class="cls-1" width="1920" height="1080"/><ellipse class="cls-2" cx="50" cy="965.5" rx="220" ry="202.5"/><rect class="cls-3" x="95" y="83" width="1722" height="913" rx="62.62"/><rect class="cls-4" x="951" y="83" width="866" height="913"/><image width="1708" height="3432" transform="translate(1210 157) scale(0.22)" xlink:href="../../../Desktop/%D0%98%D0%BB%D0%BB%D1%8E%D1%81%D1%82%D1%80%D0%B0%D1%86%D0%B8%D0%B8/iPhoneX-2.png"/><text class="cls-5" transform="translate(148.33 162.71)"><tspan class="cls-6">Д</tspan><tspan class="cls-7" x="29.66" y="0">е</tspan><tspan x="52.63" y="0">ло </tspan><tspan class="cls-8" x="110.34" y="0">с</tspan><tspan x="131.36" y="0">д</tspan><tspan class="cls-9" x="156.6" y="0">е</tspan><tspan x="179.57" y="0">лано</tspan><tspan class="cls-10"><tspan x="0" y="62.4">При </tspan><tspan class="cls-11" x="59.06" y="62.4">к</tspan><tspan x="72.77" y="62.4">аждом поп</tspan><tspan class="cls-12" x="210.33" y="62.4">о</tspan><tspan x="225.53" y="62.4">лнении </tspan><tspan class="cls-13" x="327.24" y="62.4">к</tspan><tspan x="340.72" y="62.4">ош</tspan><tspan class="cls-14" x="378.28" y="62.4">е</tspan><tspan x="392.85" y="62.4">ль</tspan><tspan class="cls-11" x="421.53" y="62.4">к</tspan><tspan x="435.24" y="62.4">а, п</tspan><tspan class="cls-12" x="476.78" y="62.4">о</tspan><tspan x="491.97" y="62.4">л</tspan><tspan class="cls-15" x="507.14" y="62.4">ь</tspan><tspan class="cls-16" x="520.53" y="62.4">зова</tspan><tspan class="cls-17" x="577.19" y="62.4">т</tspan><tspan class="cls-14" x="587.97" y="62.4">е</tspan><tspan x="602.54" y="62.4">лю </tspan><tspan x="0" y="91.2">при</tspan><tspan class="cls-13" x="49.15" y="91.2">х</tspan><tspan class="cls-12" x="61.32" y="91.2">о</tspan><tspan x="76.51" y="91.2">дят ув</tspan><tspan class="cls-14" x="152.3" y="91.2">е</tspan><tspan x="166.87" y="91.2">домления об </tspan><tspan class="cls-18" x="337.63" y="91.2">э</tspan><tspan class="cls-19" x="350.85" y="91.2">т</tspan><tspan x="361.63" y="91.2">ом.</tspan><tspan x="0" y="120">А </tspan><tspan class="cls-13" x="24.14" y="120">к</tspan><tspan x="37.63" y="120">о</tspan><tspan class="cls-20" x="52.9" y="120">г</tspan><tspan class="cls-21" x="63.53" y="120">да нео</tspan><tspan class="cls-22" x="145.73" y="120">бх</tspan><tspan class="cls-12" x="173.25" y="120">о</tspan><tspan x="188.45" y="120">димая </tspan><tspan class="cls-23" x="274.36" y="120">с</tspan><tspan x="287.68" y="120">умма </tspan><tspan class="cls-24" x="359.28" y="120">с</tspan><tspan x="372.57" y="120">об</tspan><tspan class="cls-12" x="403.65" y="120">р</tspan><tspan x="420.04" y="120">ана, вме</tspan><tspan class="cls-11" x="523.99" y="120">с</tspan><tspan class="cls-19" x="537.26" y="120">т</tspan><tspan x="548.03" y="120">е с </tspan><tspan x="0" y="148.8">п</tspan><tspan class="cls-25" x="16.18" y="148.8">о</tspan><tspan class="cls-21" x="31.34" y="148.8">зд</tspan><tspan class="cls-26" x="59.78" y="148.8">р</tspan><tspan class="cls-16" x="76.17" y="148.8">авлениями п</tspan><tspan class="cls-27" x="239.95" y="148.8">о</tspan><tspan x="255.14" y="148.8">л</tspan><tspan class="cls-15" x="270.31" y="148.8">ь</tspan><tspan x="283.7" y="148.8">зова</tspan><tspan class="cls-19" x="340.36" y="148.8">т</tspan><tspan class="cls-14" x="351.14" y="148.8">е</tspan><tspan x="365.71" y="148.8">лю пр</tspan><tspan class="cls-14" x="440.56" y="148.8">е</tspan><tspan x="455.13" y="148.8">длага</tspan><tspan class="cls-28" x="525.31" y="148.8">е</tspan><tspan class="cls-19" x="539.59" y="148.8">т</tspan><tspan class="cls-29" x="550.36" y="148.8">с</tspan><tspan x="563.44" y="148.8">я </tspan><tspan class="cls-30" x="584.27" y="148.8">к</tspan><tspan x="597.5" y="148.8">упить </tspan><tspan x="0" y="177.6">выб</tspan><tspan class="cls-12" x="49.25" y="177.6">р</tspan><tspan x="65.64" y="177.6">анный </tspan><tspan class="cls-19" x="153.67" y="177.6">т</tspan><tspan x="164.45" y="177.6">ова</tspan><tspan class="cls-31" x="208.29" y="177.6">р</tspan><tspan x="224.4" y="177.6">.</tspan><tspan x="0" y="240">Ну а за</tspan><tspan class="cls-19" x="86.47" y="240">т</tspan><tspan x="97.25" y="240">ем в</tspan><tspan class="cls-24" x="151.92" y="240">с</tspan><tspan x="165.21" y="240">е прои</tspan><tspan class="cls-29" x="250.75" y="240">с</tspan><tspan class="cls-13" x="263.83" y="240">х</tspan><tspan class="cls-12" x="276" y="240">о</tspan><tspan x="291.19" y="240">дит по </tspan><tspan class="cls-11" x="378.69" y="240">с</tspan><tspan x="391.96" y="240">танда</tspan><tspan class="cls-32" x="463.12" y="240">р</tspan><tspan x="479.11" y="240">тной для Бе</tspan><tspan class="cls-33" x="628.62" y="240">р</tspan><tspan x="644.73" y="240">у </tspan><tspan class="cls-29" x="664.41" y="240">с</tspan><tspan class="cls-13" x="677.49" y="240">х</tspan><tspan x="689.65" y="240">еме</tspan><tspan class="cls-34" x="738.28" y="240">.</tspan></tspan></text></svg>