<svg id="Layer_1" data-name="Layer 1" xmlns="http://www.w3.org/2000/svg" xmlns:xlink="http://www.w3.org/1999/xlink" viewBox="0 0 1920 1080"><defs><style>.cls-1{fill:#fbf9fa;}.cls-2{fill:#6a3ef7;}.cls-3,.cls-6{fill:#6dd3c7;}.cls-4{fill:#fff;}.cls-5{fill:#fad96c;}.cls-6{font-size:36px;font-family:Montserrat-Bold, Montserrat;font-weight:700;}.cls-7{letter-spacing:-0.02em;}.cls-8{letter-spacing:-0.01em;}.cls-9{letter-spacing:0em;}.cls-10{letter-spacing:-0.01em;}.cls-11{letter-spacing:-0.02em;}.cls-12{letter-spacing:-0.01em;}.cls-13{letter-spacing:-0.02em;}.cls-14,.cls-40{font-size:24px;font-family:Montserrat-Regular, Montserrat;font-weight:400;}.cls-14{fill:#000;}.cls-15{letter-spacing:-0.01em;}.cls-16{letter-spacing:-0.02em;}.cls-17{letter-spacing:0em;}.cls-18{letter-spacing:0em;}.cls-19{letter-spacing:-0.02em;}.cls-20{letter-spacing:-0.02em;}.cls-21{letter-spacing:0em;}.cls-22{letter-spacing:0em;}.cls-23{letter-spacing:-0.01em;}.cls-24{letter-spacing:-0.02em;}.cls-25{letter-spacing:-0.01em;}.cls-26{letter-spacing:-0.01em;}.cls-27{letter-spacing:0em;}.cls-28{letter-spacing:-0.01em;}.cls-29{letter-spacing:-0.03em;}.cls-30{letter-spacing:0em;}.cls-31{letter-spacing:-0.02em;}.cls-32{letter-spacing:-0.02em;}.cls-33{letter-spacing:-0.02em;}.cls-34{letter-spacing:0em;}.cls-35{letter-spacing:-0.03em;}.cls-36{letter-spacing:-0.02em;}.cls-37{letter-spacing:-0.02em;}.cls-38{letter-spacing:0em;}.cls-39{letter-spacing:-0.05em;}.cls-41{letter-spacing:-0.03em;}</style></defs><title>beru</title><rect class="cls-1" width="1920" height="1080"/><path class="cls-2" d="M309.48,369.07h-230a61.42,61.42,0,0,1-53.19-30.72l-115-199.14a61.38,61.38,0,0,1,0-61.42l115-199.14a61.42,61.42,0,0,1,53.19-30.72h230a61.42,61.42,0,0,1,53.19,30.72l115,199.14a61.38,61.38,0,0,1,0,61.42l-115,199.14A61.42,61.42,0,0,1,309.48,369.07Z"/><rect class="cls-3" x="178" y="92" width="751" height="815"/><path class="cls-3" d="M1677,358.65h0a410.07,410.07,0,0,1,410.07,410.07v534.71a250.93,250.93,0,0,1-250.93,250.93H1677a250.93,250.93,0,0,1-250.93-250.93V609.58A250.93,250.93,0,0,1,1677,358.65Z" transform="translate(800.07 2713.07) rotate(-90)"/><rect class="cls-4" x="95" y="83" width="1722" height="913" rx="62.62"/><path class="cls-5" d="M1754.38,83H960V996h794.38A62.61,62.61,0,0,0,1817,933.38V145.62A62.61,62.61,0,0,0,1754.38,83Z"/><image width="1708" height="3432" transform="translate(1198 156.22) scale(0.22)" xlink:href="../../../Desktop/%D0%98%D0%BB%D0%BB%D1%8E%D1%81%D1%82%D1%80%D0%B0%D1%86%D0%B8%D0%B8/iPhoneX.png"/><text class="cls-6"><tspan x="148.33" y="164.51">Ч</tspan><tspan class="cls-7" x="175.3" y="164.51">т</tspan><tspan x="193.77" y="164.51">о </tspan><tspan class="cls-8" x="227.5" y="164.51">с</tspan><tspan x="248.52" y="164.51">д</tspan><tspan class="cls-9" x="273.76" y="164.51">е</tspan><tspan x="296.72" y="164.51">лано и </tspan><tspan class="cls-10" x="436.91" y="164.51">к</tspan><tspan x="459.66" y="164.51">ак </tspan><tspan class="cls-11" x="514.7" y="164.51">э</tspan><tspan class="cls-7" x="535.22" y="164.51">т</tspan><tspan x="553.69" y="164.51">о </tspan><tspan class="cls-12" x="587.42" y="164.51">р</tspan><tspan x="612.08" y="164.51">аб</tspan><tspan class="cls-11" x="658.05" y="164.51">о</tspan><tspan x="680.87" y="164.51">та</tspan><tspan class="cls-13" x="721.88" y="164.51">е</tspan><tspan x="744.34" y="164.51">т</tspan><tspan class="cls-14"><tspan x="148.33" y="243.71">В меню бы</tspan><tspan class="cls-15" x="284.29" y="243.71">с</tspan><tspan x="297.56" y="243.71">тро</tspan><tspan class="cls-16" x="340.64" y="243.71">г</tspan><tspan x="351.47" y="243.71">о до</tspan><tspan class="cls-15" x="403.91" y="243.71">с</tspan><tspan class="cls-17" x="417.18" y="243.71">т</tspan><tspan x="428.58" y="243.71">упа до</tspan><tspan class="cls-18" x="509.31" y="243.71">б</tspan><tspan x="525.06" y="243.71">авлен новый значок (и</tspan><tspan class="cls-19" x="811.11" y="243.71">к</tspan><tspan x="824.6" y="243.71">он</tspan><tspan class="cls-15" x="856.06" y="243.71">к</tspan><tspan x="869.76" y="243.71">а), </tspan><tspan x="148.33" y="272.51">на</tspan><tspan class="cls-15" x="178.52" y="272.51">ж</tspan><tspan x="198.11" y="272.51">ав на </tspan><tspan class="cls-19" x="269.46" y="272.51">к</tspan><tspan class="cls-20" x="282.95" y="272.51">о</tspan><tspan class="cls-16" x="297.73" y="272.51">т</tspan><tspan x="308.51" y="272.51">орый, п</tspan><tspan class="cls-21" x="403.14" y="272.51">о</tspan><tspan x="418.33" y="272.51">л</tspan><tspan class="cls-22" x="433.5" y="272.51">ь</tspan><tspan x="446.89" y="272.51">зова</tspan><tspan class="cls-16" x="503.55" y="272.51">т</tspan><tspan class="cls-23" x="514.33" y="272.51">е</tspan><tspan x="528.9" y="272.51">лю </tspan><tspan class="cls-15" x="571.11" y="272.51">с</tspan><tspan x="584.39" y="272.51">танови</tspan><tspan class="cls-16" x="672.3" y="272.51">т</tspan><tspan class="cls-24" x="683.07" y="272.51">с</tspan><tspan x="696.15" y="272.51">я до</tspan><tspan class="cls-15" x="747.87" y="272.51">с</tspan><tspan class="cls-17" x="761.14" y="272.51">т</tspan><tspan x="772.54" y="272.51">упна </tspan><tspan x="148.33" y="301.31">новая </tspan><tspan class="cls-25" x="229.21" y="301.31">ф</tspan><tspan x="247.69" y="301.31">ункционально</tspan><tspan class="cls-26" x="429.75" y="301.31">с</tspan><tspan class="cls-27" x="443.02" y="301.31">т</tspan><tspan class="cls-28" x="454.38" y="301.31">ь</tspan><tspan x="467.7" y="301.31">.</tspan><tspan class="cls-29" x="148.33" y="358.91">Т</tspan><tspan x="161.75" y="358.91">ак </tspan><tspan class="cls-15" x="195.97" y="358.91">к</tspan><tspan x="209.68" y="358.91">ак п</tspan><tspan class="cls-18" x="260.08" y="358.91">о</tspan><tspan x="275.27" y="358.91">л</tspan><tspan class="cls-22" x="290.44" y="358.91">ь</tspan><tspan class="cls-30" x="303.83" y="358.91">зова</tspan><tspan class="cls-31" x="360.49" y="358.91">т</tspan><tspan class="cls-23" x="371.27" y="358.91">е</tspan><tspan x="385.83" y="358.91">ль </tspan><tspan class="cls-20" x="420.8" y="358.91">о</tspan><tspan x="435.59" y="358.91">ткрыва</tspan><tspan class="cls-32" x="524.77" y="358.91">е</tspan><tspan x="539.05" y="358.91">т </tspan><tspan class="cls-33" x="556.69" y="358.91">э</tspan><tspan class="cls-34" x="569.91" y="358.91">т</tspan><tspan class="cls-30" x="581.31" y="358.91">у вклад</tspan><tspan class="cls-35" x="674.31" y="358.91">к</tspan><tspan x="687.53" y="358.91">у впервые, </tspan><tspan x="148.33" y="387.71">сначала ему демон</tspan><tspan class="cls-15" x="390.2" y="387.71">с</tspan><tspan x="403.47" y="387.71">три</tspan><tspan class="cls-25" x="447.8" y="387.71">ру</tspan><tspan class="cls-32" x="476.94" y="387.71">е</tspan><tspan class="cls-16" x="491.22" y="387.71">т</tspan><tspan class="cls-24" x="501.99" y="387.71">с</tspan><tspan x="515.07" y="387.71">я поша</tspan><tspan class="cls-16" x="603.63" y="387.71">г</tspan><tspan x="614.46" y="387.71">овая ин</tspan><tspan class="cls-15" x="711.85" y="387.71">с</tspan><tspan class="cls-30" x="725.12" y="387.71">т</tspan><tspan class="cls-25" x="736.47" y="387.71">р</tspan><tspan x="752.57" y="387.71">укция, </tspan><tspan class="cls-18" x="148.33" y="416.51">р</tspan><tspan x="164.73" y="416.51">а</tspan><tspan class="cls-12" x="178.72" y="416.51">с</tspan><tspan x="192.01" y="416.51">с</tspan><tspan class="cls-15" x="205.52" y="416.51">к</tspan><tspan class="cls-23" x="219.23" y="416.51">а</tspan><tspan x="232.96" y="416.51">зывающая, </tspan><tspan class="cls-15" x="376.16" y="416.51">к</tspan><tspan x="389.87" y="416.51">ак в</tspan><tspan class="cls-12" x="438.68" y="416.51">с</tspan><tspan x="451.98" y="416.51">е </tspan><tspan class="cls-25" x="473.1" y="416.51">у</tspan><tspan class="cls-15" x="486.13" y="416.51">с</tspan><tspan class="cls-30" x="499.4" y="416.51">троен</tspan><tspan class="cls-36" x="573.51" y="416.51">о</tspan><tspan x="588.42" y="416.51">.</tspan><tspan x="148.33" y="474.11">По</tspan><tspan class="cls-24" x="183.4" y="474.11">с</tspan><tspan x="196.48" y="474.11">ле просм</tspan><tspan class="cls-33" x="313.14" y="474.11">о</tspan><tspan x="327.92" y="474.11">т</tspan><tspan class="cls-18" x="339.27" y="474.11">р</tspan><tspan x="355.67" y="474.11">а ин</tspan><tspan class="cls-15" x="408.66" y="474.11">с</tspan><tspan x="421.93" y="474.11">т</tspan><tspan class="cls-25" x="433.28" y="474.11">р</tspan><tspan x="449.39" y="474.11">укции или </tspan><tspan class="cls-33" x="586.93" y="474.11">о</tspan><tspan x="601.71" y="474.11">т</tspan><tspan class="cls-15" x="613.06" y="474.11">к</tspan><tspan class="cls-23" x="626.77" y="474.11">а</tspan><tspan x="640.5" y="474.11">за </tspan><tspan class="cls-20" x="673.59" y="474.11">о</tspan><tspan x="688.38" y="474.11">т ее просм</tspan><tspan class="cls-33" x="822.34" y="474.11">о</tspan><tspan x="837.13" y="474.11">т</tspan><tspan class="cls-18" x="848.48" y="474.11">р</tspan><tspan x="864.87" y="474.11">а, </tspan><tspan x="148.33" y="502.91">прил</tspan><tspan class="cls-19" x="212.65" y="502.91">ож</tspan><tspan x="246.83" y="502.91">ение пр</tspan><tspan class="cls-23" x="348.13" y="502.91">е</tspan><tspan class="cls-27" x="362.7" y="502.91">длага</tspan><tspan class="cls-37" x="432.87" y="502.91">е</tspan><tspan x="447.15" y="502.91">т п</tspan><tspan class="cls-18" x="480.97" y="502.91">о</tspan><tspan x="496.16" y="502.91">л</tspan><tspan class="cls-22" x="511.33" y="502.91">ь</tspan><tspan x="524.72" y="502.91">зова</tspan><tspan class="cls-16" x="581.38" y="502.91">т</tspan><tspan class="cls-23" x="592.16" y="502.91">е</tspan><tspan x="606.73" y="502.91">лю </tspan><tspan class="cls-12" x="648.94" y="502.91">с</tspan><tspan class="cls-38" x="662.24" y="502.91">о</tspan><tspan x="677.41" y="502.91" xml:space="preserve">здать  е</tspan><tspan class="cls-16" x="772.11" y="502.91">г</tspan><tspan x="782.94" y="502.91">о первый </tspan><tspan x="148.33" y="531.71">ча</tspan><tspan class="cls-39" x="176.7" y="531.71">т</tspan><tspan x="186.97" y="531.71">.</tspan></tspan><tspan class="cls-40"><tspan x="148.33" y="704.51">Далее по</tspan><tspan class="cls-24" x="263.94" y="704.51">с</tspan><tspan x="277.02" y="704.51">л</tspan><tspan class="cls-23" x="292.19" y="704.51">е</tspan><tspan x="306.76" y="704.51">д</tspan><tspan class="cls-36" x="322.38" y="704.51">у</tspan><tspan class="cls-32" x="335.41" y="704.51">е</tspan><tspan x="349.69" y="704.51">т </tspan><tspan class="cls-24" x="367.33" y="704.51">с</tspan><tspan x="380.41" y="704.51">лайд с б</tspan><tspan class="cls-18" x="483.61" y="704.51">о</tspan><tspan x="498.8" y="704.51">льшим </tspan><tspan class="cls-19" x="591.54" y="704.51">к</tspan><tspan class="cls-18" x="605.02" y="704.51">о</tspan><tspan x="620.22" y="704.51">личе</tspan><tspan class="cls-15" x="681.1" y="704.51">с</tspan><tspan x="694.38" y="704.51">тво </tspan><tspan class="cls-16" x="741.87" y="704.51">т</tspan><tspan x="752.65" y="704.51">е</tspan><tspan class="cls-19" x="767.48" y="704.51">к</tspan><tspan class="cls-15" x="780.97" y="704.51">с</tspan><tspan x="794.24" y="704.51">та. </tspan><tspan x="148.33" y="733.31">Но ино</tspan><tspan class="cls-41" x="237.56" y="733.31">г</tspan><tspan x="248.2" y="733.31">да </tspan><tspan class="cls-20" x="284.1" y="733.31">э</tspan><tspan class="cls-16" x="297.32" y="733.31">т</tspan><tspan x="308.1" y="733.31">о нео</tspan><tspan class="cls-19" x="375.95" y="733.31">бх</tspan><tspan class="cls-18" x="403.47" y="733.31">о</tspan><tspan x="418.67" y="733.31">дим</tspan><tspan class="cls-25" x="469.76" y="733.31">о</tspan><tspan x="484.67" y="733.31">. </tspan></tspan></text></svg>