<svg id="Layer_1" data-name="Layer 1" xmlns="http://www.w3.org/2000/svg" xmlns:xlink="http://www.w3.org/1999/xlink" viewBox="0 0 1920 1080"><defs><style>.cls-1{fill:#fff;}.cls-2{fill:#ffd049;}.cls-3{fill:#fbf9fa;}.cls-4{font-size:36px;fill:#6dd3c7;font-family:Montserrat-Bold, Montserrat;font-weight:700;}.cls-5{letter-spacing:0em;}.cls-6{font-size:28px;font-family:Montserrat-Regular, Montserrat;font-weight:400;fill:#000;}.cls-7{letter-spacing:-0.01em;}.cls-8{letter-spacing:-0.02em;}.cls-9{letter-spacing:-0.02em;}.cls-10{letter-spacing:0em;}.cls-11{letter-spacing:0em;}.cls-12{letter-spacing:0.01em;}.cls-13{letter-spacing:0em;}.cls-14{letter-spacing:0em;}.cls-15{letter-spacing:0em;}.cls-16{letter-spacing:-0.02em;}.cls-17{letter-spacing:-0.02em;}.cls-18{letter-spacing:0em;}</style></defs><title>beru</title><rect class="cls-1" y="-5" width="1920" height="1085"/><path class="cls-2" d="M-87,612S96,428,253,511,905,332,905,134,865-60,865-60h493S1186,882,672,939s-488,202-488,202H-170Z"/><rect class="cls-3" x="95" y="83" width="1722" height="913" rx="62.62"/><text class="cls-4" transform="translate(148.33 162.67)">Про <tspan class="cls-5" x="87.95" y="0">л</tspan><tspan x="111.74" y="0">эндинг</tspan><tspan class="cls-6"><tspan x="0" y="67.2">Ну и </tspan><tspan class="cls-7" x="72.55" y="67.2">к</tspan><tspan x="88.54" y="67.2">а</tspan><tspan class="cls-7" x="104.86" y="67.2">к</tspan><tspan x="120.85" y="67.2">ая новин</tspan><tspan class="cls-7" x="253.37" y="67.2">к</tspan><tspan x="269.36" y="67.2">а б</tspan><tspan class="cls-8" x="311.47" y="67.2">е</tspan><tspan x="328.35" y="67.2">з </tspan><tspan class="cls-9" x="350.64" y="67.2">х</tspan><tspan x="364.84" y="67.2">орошей рекламы, и </tspan><tspan class="cls-7" x="660.34" y="67.2">к</tspan><tspan x="676.33" y="67.2">а</tspan><tspan class="cls-7" x="692.65" y="67.2">к</tspan><tspan x="708.64" y="67.2">ая </tspan><tspan class="cls-9" x="0" y="100.8">х</tspan><tspan x="14.2" y="100.8">орошая реклама б</tspan><tspan class="cls-8" x="286.69" y="100.8">е</tspan><tspan x="303.57" y="100.8">з прек</tspan><tspan class="cls-10" x="397.51" y="100.8">р</tspan><tspan x="416.63" y="100.8">асной посадочной </tspan><tspan class="cls-7" x="0" y="134.4">с</tspan><tspan x="15.48" y="134.4">т</tspan><tspan class="cls-11" x="28.73" y="134.4">р</tspan><tspan x="47.85" y="134.4">аниц</tspan><tspan class="cls-12" x="121.49" y="134.4">ы</tspan><tspan class="cls-13" x="143.75" y="134.4">?</tspan><tspan x="0" y="201.6">С п</tspan><tspan class="cls-11" x="46.26" y="201.6">о</tspan><tspan class="cls-14" x="63.98" y="201.6">лноформатной её версией м</tspan><tspan class="cls-9" x="488.9" y="201.6">о</tspan><tspan x="506.18" y="201.6">жно </tspan><tspan class="cls-15" x="0" y="235.2">о</tspan><tspan x="17.7" y="235.2">зна</tspan><tspan class="cls-16" x="67.87" y="235.2">к</tspan><tspan x="83.61" y="235.2">омить</tspan><tspan class="cls-17" x="171.81" y="235.2">с</tspan><tspan x="187.07" y="235.2">я ч</tspan><tspan class="cls-18" x="228.14" y="235.2">у</tspan><tspan x="243.82" y="235.2">ть ни</tspan><tspan class="cls-9" x="318.33" y="235.2">ж</tspan><tspan x="340.92" y="235.2">е.</tspan></tspan></text><image width="5760" height="7960" transform="translate(1138) scale(0.14)" xlink:href="../../../Desktop/%D0%98%D0%BB%D0%BB%D1%8E%D1%81%D1%82%D1%80%D0%B0%D1%86%D0%B8%D0%B8/Desktop_beru.png"/></svg>