<svg id="Layer_1" data-name="Layer 1" xmlns="http://www.w3.org/2000/svg" viewBox="0 0 1920 1080"><defs><style>.cls-1{fill:#fff;}.cls-2{fill:#6a3ef7;}.cls-20,.cls-3{fill:#6dd3c7;}.cls-4{fill:#fad96c;}.cls-5{fill:#fbf9fa;}.cls-6{fill:#cca68d;}.cls-7{fill:#e5c2a8;}.cls-8{fill:#4d4d4d;}.cls-9{fill:#bdccd4;}.cls-10{fill:#ff8089;}.cls-11{fill:#9aa7ad;}.cls-12{fill:#2a685f;}.cls-13{fill:#cffaff;}.cls-14{fill:#e07f6c;}.cls-15{fill:#e9ebff;}.cls-16{fill:#fbac91;}.cls-17{fill:#f2f2f2;}.cls-18{fill:none;stroke:#f2f2f2;stroke-linecap:round;stroke-miterlimit:10;stroke-width:4.29px;}.cls-19{fill:#ffa9d6;}.cls-20{font-size:36px;font-family:Montserrat-Bold, Montserrat;font-weight:700;}.cls-21{letter-spacing:-0.02em;}.cls-22{letter-spacing:-0.01em;}.cls-23{font-size:24px;fill:#20302e;font-family:Montserrat-Regular, Montserrat;font-weight:400;}.cls-24{letter-spacing:-0.01em;}.cls-25{letter-spacing:-0.02em;}.cls-26{letter-spacing:-0.01em;}.cls-27{letter-spacing:-0.04em;}.cls-28{letter-spacing:0em;}.cls-29{letter-spacing:-0.01em;}.cls-30{letter-spacing:-0.01em;}.cls-31{letter-spacing:-0.02em;}.cls-32{letter-spacing:-0.02em;}.cls-33{letter-spacing:-0.02em;}.cls-34{letter-spacing:-0.02em;}.cls-35{letter-spacing:-0.01em;}.cls-36{letter-spacing:-0.02em;}.cls-37{letter-spacing:0em;}.cls-38{letter-spacing:-0.03em;}.cls-39{letter-spacing:-0.02em;}.cls-40{letter-spacing:-0.01em;}.cls-41{letter-spacing:-0.01em;}.cls-42{letter-spacing:0em;}.cls-43{letter-spacing:-0.01em;}.cls-44{letter-spacing:0em;}.cls-45{letter-spacing:0em;}.cls-46{letter-spacing:-0.01em;}.cls-47{letter-spacing:-0.02em;}.cls-48{letter-spacing:-0.01em;}.cls-49{letter-spacing:0em;}.cls-50{letter-spacing:0em;}.cls-51{letter-spacing:-0.02em;}.cls-52{letter-spacing:-0.03em;}.cls-53{letter-spacing:-0.01em;}.cls-54{letter-spacing:-0.03em;}.cls-55{letter-spacing:-0.03em;}.cls-56{letter-spacing:0em;}.cls-57{letter-spacing:-0.01em;}</style></defs><title>beru</title><rect class="cls-1" width="1920" height="1080"/><path class="cls-2" d="M309.48,1589.07h-230a61.42,61.42,0,0,1-53.19-30.72l-115-199.14a61.38,61.38,0,0,1,0-61.42l115-199.14a61.42,61.42,0,0,1,53.19-30.72h230a61.42,61.42,0,0,1,53.19,30.72l115,199.14a61.38,61.38,0,0,1,0,61.42l-115,199.14A61.42,61.42,0,0,1,309.48,1589.07Z"/><path class="cls-3" d="M1459.21-179.06h0A410.07,410.07,0,0,1,1869.27,231V765.71a250.93,250.93,0,0,1-250.93,250.93H1459.21a250.93,250.93,0,0,1-250.93-250.93V71.87a250.93,250.93,0,0,1,250.93-250.93Z" transform="translate(2370.1 1779.71) rotate(-136.64)"/><path class="cls-4" d="M275.48,1168.07h-230a61.42,61.42,0,0,1-53.19-30.72l-115-199.14a61.38,61.38,0,0,1,0-61.42l115-199.14a61.42,61.42,0,0,1,53.19-30.72h230a61.42,61.42,0,0,1,53.19,30.72l115,199.14a61.38,61.38,0,0,1,0,61.42l-115,199.14A61.42,61.42,0,0,1,275.48,1168.07Z"/><rect class="cls-5" x="95" y="83" width="1722" height="913" rx="62.62"/><path class="cls-6" d="M1274.85,622.23h344a0,0,0,0,1,0,0V830.76a18,18,0,0,1-18,18h-308a18,18,0,0,1-18-18V622.23A0,0,0,0,1,1274.85,622.23Z" transform="translate(198.85 -302.2) rotate(12.8)"/><path class="cls-7" d="M1639.67,663.15,1304.21,587l181.71-68.19a18,18,0,0,1,19.32,4.39Z"/><path class="cls-4" d="M1339.74,238.48l-11.13-8.31a2.89,2.89,0,1,1,3.46-4.64l11.13,8.31a2.89,2.89,0,0,1-3.46,4.64Z"/><path class="cls-8" d="M1322.7,291.82a2.9,2.9,0,0,1-1.12-2.86l10.73-57a2.89,2.89,0,0,1,5.69,1.07l-10.73,57a2.9,2.9,0,0,1-4.57,1.79Z"/><path class="cls-8" d="M1208.63,243.91a57.58,57.58,0,1,1,80.58-11.72A57.64,57.64,0,0,1,1208.63,243.91Zm64.7-86.73A50.63,50.63,0,1,0,1283.65,228,50.68,50.68,0,0,0,1273.33,157.18Z"/><path class="cls-4" d="M1207.22,246.1a60.07,60.07,0,1,1,84.06-12.23A60.12,60.12,0,0,1,1207.22,246.1Zm68.37-91.65a54.28,54.28,0,1,0,11.05,76A54.35,54.35,0,0,0,1275.59,154.45Z"/><path class="cls-8" d="M1360.08,356.88a57.58,57.58,0,1,1,80.57-11.73A57.65,57.65,0,0,1,1360.08,356.88Zm64.7-86.74A50.63,50.63,0,1,0,1435.09,341,50.69,50.69,0,0,0,1424.78,270.14Z"/><path class="cls-4" d="M1358.57,359.18a60.21,60.21,0,1,1,84.27-12.26A60.28,60.28,0,0,1,1358.57,359.18Zm68.37-91.65a54.13,54.13,0,1,0,11,75.76A54.19,54.19,0,0,0,1426.94,267.53Z"/><rect class="cls-9" x="1231.97" y="160.62" width="119.47" height="5.79" transform="translate(142.5 775.52) rotate(-35.25)"/><circle class="cls-10" cx="1243.09" cy="197.96" r="6.51"/><path class="cls-9" d="M1393.53,314.37s-67.56-54.64-67.84-56.27l-18.08-105.35a3.62,3.62,0,0,1,5.73-3.51l82.37,61.44,31.93-22.54,3.34,4.73-32.47,22.92-1,96.71A2.44,2.44,0,0,1,1393.53,314.37Zm-57.92-54.18,56.18,45.34.89-85.62Zm-21.38-103.07,17,99.07,59.5-42Z"/><path class="cls-11" d="M1328.74,286.59c-4.36-3.25-7.81-5.94-9.88-7.58-9.58-7.57-11.41-21.26-4.09-30.52s21.07-10.63,30.64-3.07a410,410,0,0,1,35.25,32c18.94,19.63,25.72,32.49,20.73,39.3a9.45,9.45,0,0,1-6.68,3.7c-8.29,1.12-22.58-4.76-42.47-17.49C1343.47,297.33,1335.13,291.36,1328.74,286.59Zm14.25-39c-8.17-6.1-19.6-4.86-25.72,2.88s-4.64,19.57,3.56,26.06c5.09,4,18.5,14.39,33.12,23.74,19,12.14,32.92,18,40.33,17a6.35,6.35,0,0,0,4.54-2.43c2.18-3,2.43-11.5-20.45-35.21a405.55,405.55,0,0,0-34.93-31.72Z"/><circle class="cls-9" cx="1329.94" cy="260.58" r="6.51"/><path class="cls-10" d="M1317.65,277a20.54,20.54,0,1,1,28.75-4.18A20.56,20.56,0,0,1,1317.65,277Zm22-29.45a16.2,16.2,0,1,0,3.3,22.68A16.22,16.22,0,0,0,1339.62,247.59Z"/><circle class="cls-10" cx="1394.82" cy="311.5" r="6.51"/><path class="cls-8" d="M1322.7,291.82a2.89,2.89,0,0,1-1.11-2.87l5.42-28.08a2.89,2.89,0,1,1,5.68,1.1l-5.42,28.08a2.9,2.9,0,0,1-3.39,2.29A3,3,0,0,1,1322.7,291.82Z"/><polygon class="cls-11" points="1421.9 192.19 1426.78 195.83 1430.98 192.87 1429.31 190.5 1426.87 188.68 1421.9 192.19"/><path class="cls-10" d="M1449.26,206.83l-34.09-25.43a2.89,2.89,0,1,1,3.46-4.64l34.09,25.43a2.89,2.89,0,0,1-3.46,4.64Z"/><polygon class="cls-11" points="1333.15 130.68 1338.03 134.32 1342.23 131.36 1340.56 128.99 1338.12 127.17 1333.15 130.68"/><path class="cls-10" d="M1306.26,134.28a14.26,14.26,0,1,1,17-22.85l30.7,22.74h0a2.9,2.9,0,0,1-3.45,4.65l-30.72-22.74a8.46,8.46,0,1,0-10.13,13.56,2.89,2.89,0,0,1-3.46,4.64Z"/><path class="cls-4" d="M1326.88,296.38l-10.9-8.13a2.89,2.89,0,1,1,3.46-4.64l10.9,8.13a2.89,2.89,0,0,1-3.46,4.64Z"/><rect class="cls-3" x="1456" y="557.64" width="125" height="209.73" rx="16.92" transform="translate(650 -748.34) rotate(34.81)"/><rect class="cls-4" x="1465.89" y="569.29" width="105.65" height="186.72" rx="12.61" transform="translate(650.13 -748.43) rotate(34.81)"/><rect class="cls-3" x="1542.39" y="575.99" width="57.53" height="18.83" rx="9.41" transform="matrix(0.82, 0.57, -0.57, 0.82, 615.41, -792.2)"/><circle class="cls-12" cx="1562.63" cy="579.8" r="4.45"/><circle class="cls-12" cx="1578.52" cy="590.84" r="1.83"/><path class="cls-10" d="M1459.07,695.39a4.87,4.87,0,0,1,1.76-8.76l65.47-14-38-16,90.24-29.53a4.87,4.87,0,1,1,3,9.25l-65.48,21.43,42.53,18-95.72,20.46A4.84,4.84,0,0,1,1459.07,695.39Z"/><path class="cls-13" d="M1454.18,689a4.86,4.86,0,0,1,1.76-8.75l65.47-14-38-16,90.23-29.53a4.87,4.87,0,0,1,3,9.25l-65.48,21.44,42.53,17.94L1458,689.79A4.89,4.89,0,0,1,1454.18,689Z"/><ellipse class="cls-14" cx="1532.73" cy="363.02" rx="14.4" ry="10.11" transform="translate(-42.33 378.67) rotate(-13.89)"/><path class="cls-15" d="M1528.86,364a3.37,3.37,0,1,1-4.08-2.46A3.37,3.37,0,0,1,1528.86,364Z"/><rect class="cls-4" x="1536.64" y="298.16" width="36.17" height="16.55" rx="6.02" transform="translate(-28.09 382.29) rotate(-13.89)"/><path class="cls-16" d="M1748.18,390.87l-180.5,44.65a18.05,18.05,0,0,1-21.86-13.19l-21.65-87.52a18.06,18.06,0,0,1,13.19-21.87l41.9-10.85,4.57-11.38,131.52-32.53a18.05,18.05,0,0,1,21.87,13.19L1761.37,369A18,18,0,0,1,1748.18,390.87Z"/><path class="cls-3" d="M1715.35,258.18l-131.52,32.53-4.57,11.38-41.9,10.85a18.06,18.06,0,0,0-13.19,21.87l2.14,8.65,215.55-53.32-4.64-18.77A18.05,18.05,0,0,0,1715.35,258.18Z"/><circle class="cls-17" cx="1649.17" cy="346.85" r="49.96"/><circle class="cls-4" cx="1649.17" cy="346.85" r="46.28"/><circle class="cls-10" cx="1649.17" cy="346.85" r="38.46"/><path class="cls-17" d="M1662.37,375.49a2.15,2.15,0,0,1-1.44-4,27.45,27.45,0,0,0,15.37-21.67,2.15,2.15,0,1,1,4.27.47,31.77,31.77,0,0,1-17.79,25.07A1.87,1.87,0,0,1,1662.37,375.49Z"/><path class="cls-18" d="M1673.27,330a29.1,29.1,0,0,1,3.52,6.73"/><circle cx="1649.17" cy="346.85" r="12.11"/><rect class="cls-4" x="1697.86" y="267.87" width="30.53" height="20.23" rx="5.97" transform="translate(-16.63 419.5) rotate(-13.89)"/><rect class="cls-1" x="1672.09" y="279.49" width="19" height="12.59" rx="3.72" transform="translate(-19.43 412.15) rotate(-13.89)"/><path class="cls-19" d="M1655.22,343c.88,3.57-3.85,11.5-3.85,11.5s-8.21-4.73-9.09-8.3c-.42-1.68,0-3,1.47-3.55,3.07-1.09,5.2,2.07,5.2,2.07s.7-3.53,3-4.1C1653.85,340.12,1654.78,341.18,1655.22,343Z"/><circle class="cls-4" cx="1579.78" cy="394.96" r="13.79"/><circle class="cls-10" cx="1579.78" cy="394.96" r="8.99"/><rect class="cls-1" x="1593.28" y="301.95" width="13.88" height="9.19" rx="2.71" transform="translate(-26.79 393.22) rotate(-13.89)"/><path class="cls-3" d="M1655.22,343c.88,3.57-3.85,11.5-3.85,11.5s-8.21-4.73-9.09-8.3c-.42-1.68,0-3,1.47-3.55,3.07-1.09,5.2,2.07,5.2,2.07s.7-3.53,3-4.1C1653.85,340.12,1654.78,341.18,1655.22,343Z"/><path class="cls-7" d="M1446.85,735.5,1304.21,587,1258,790.29a18,18,0,0,0,13.58,21.56l300.32,68.21a18,18,0,0,0,21.56-13.57l46.19-203.34Z"/><rect class="cls-4" x="1491.49" y="771.9" width="87.27" height="70.1" rx="12.79" transform="translate(216.87 -319.98) rotate(12.8)"/><circle class="cls-4" cx="1207.5" cy="444.5" r="15.5"/><circle class="cls-10" cx="1626.5" cy="500.5" r="6.5"/><circle class="cls-3" cx="1532.5" cy="122.5" r="6.5"/><circle class="cls-3" cx="1272" cy="710" r="14"/><circle class="cls-4" cx="1026.5" cy="418.5" r="8.5"/><circle class="cls-4" cx="1134.5" cy="115.5" r="6.5"/><circle class="cls-4" cx="1474.5" cy="258.5" r="2.5"/><circle class="cls-4" cx="1721.5" cy="777.5" r="8.5"/><circle class="cls-10" cx="1100.5" cy="829.5" r="12.5"/><text class="cls-20"><tspan x="161" y="161.64">О чем </tspan><tspan class="cls-21" x="287" y="161.64">э</tspan><tspan x="307.52" y="161.64">та пр</tspan><tspan class="cls-22" x="408.35" y="161.64">е</tspan><tspan x="431.25" y="161.64">зентация</tspan><tspan class="cls-23"><tspan x="161" y="248.04">У меня е</tspan><tspan class="cls-24" x="269.26" y="248.04">с</tspan><tspan x="282.53" y="248.04">ть д</tspan><tspan class="cls-25" x="329.31" y="248.04">р</tspan><tspan class="cls-26" x="345.41" y="248.04">у</tspan><tspan x="358.47" y="248.04">з</tspan><tspan class="cls-27" x="371.29" y="248.04">ь</tspan><tspan class="cls-28" x="383.86" y="248.04">я, у д</tspan><tspan class="cls-29" x="445.08" y="248.04">р</tspan><tspan class="cls-30" x="461.19" y="248.04">у</tspan><tspan class="cls-28" x="474.24" y="248.04">зей </tspan><tspan class="cls-31" x="524.69" y="248.04">с</tspan><tspan x="537.77" y="248.04">луча</tspan><tspan class="cls-32" x="594.7" y="248.04">ю</tspan><tspan class="cls-33" x="614.98" y="248.04">т</tspan><tspan class="cls-34" x="625.76" y="248.04">с</tspan><tspan x="638.83" y="248.04">я Дни </tspan><tspan class="cls-35" x="717.72" y="248.04">Р</tspan><tspan class="cls-36" x="734.45" y="248.04">о</tspan><tspan class="cls-28" x="749.26" y="248.04">ждения, и </tspan><tspan x="161" y="276.84">порой мне при</tspan><tspan class="cls-36" x="352.4" y="276.84">х</tspan><tspan class="cls-37" x="364.56" y="276.84">о</tspan><tspan x="379.76" y="276.84">ди</tspan><tspan class="cls-33" x="411.89" y="276.84">т</tspan><tspan class="cls-31" x="422.67" y="276.84">с</tspan><tspan x="435.75" y="276.84">я дарить им п</tspan><tspan class="cls-37" x="608.26" y="276.84">о</tspan><tspan x="623.45" y="276.84">дарки. Ино</tspan><tspan class="cls-38" x="762.6" y="276.84">г</tspan><tspan x="773.23" y="276.84">да мне </tspan><tspan x="161" y="305.64">очень </tspan><tspan class="cls-36" x="241.47" y="305.64">х</tspan><tspan x="253.64" y="305.64">оч</tspan><tspan class="cls-39" x="283.28" y="305.64">е</tspan><tspan class="cls-33" x="297.56" y="305.64">т</tspan><tspan class="cls-31" x="308.33" y="305.64">с</tspan><tspan x="321.41" y="305.64">я преп</tspan><tspan class="cls-37" x="405.89" y="305.64">о</tspan><tspan x="421.09" y="305.64">дне</tspan><tspan class="cls-40" x="467.74" y="305.64">с</tspan><tspan x="481.01" y="305.64">ти о</tspan><tspan class="cls-41" x="530.43" y="305.64">с</tspan><tspan x="543.72" y="305.64">обенно приятному д</tspan><tspan class="cls-25" x="804.36" y="305.64">р</tspan><tspan class="cls-28" x="820.46" y="305.64">у</tspan><tspan class="cls-42" x="833.86" y="305.64">г</tspan><tspan x="845.3" y="305.64">у </tspan><tspan x="161" y="334.44">доро</tspan><tspan class="cls-33" x="223.61" y="334.44">г</tspan><tspan x="234.44" y="334.44">ой п</tspan><tspan class="cls-37" x="288.68" y="334.44">о</tspan><tspan x="303.87" y="334.44">дарок, </tspan><tspan class="cls-33" x="390.53" y="334.44">т</tspan><tspan x="401.31" y="334.44">о</tspan><tspan class="cls-38" x="416.57" y="334.44">г</tspan><tspan x="427.2" y="334.44">да я пр</tspan><tspan class="cls-43" x="516.58" y="334.44">е</tspan><tspan x="531.15" y="334.44">длагаю скин</tspan><tspan class="cls-44" x="688.54" y="334.44">у</tspan><tspan class="cls-45" x="701.98" y="334.44">ть</tspan><tspan class="cls-31" x="726.84" y="334.44">с</tspan><tspan x="739.92" y="334.44">я на не</tspan><tspan class="cls-33" x="828.26" y="334.44">г</tspan><tspan x="839.09" y="334.44">о </tspan><tspan x="161" y="363.24">нашим общим зна</tspan><tspan class="cls-36" x="393.39" y="363.24">к</tspan><tspan x="406.88" y="363.24">омым.</tspan><tspan x="161" y="420.84">Я очень </tspan><tspan class="cls-24" x="265.33" y="420.84">с</tspan><tspan x="278.6" y="420.84">та</tspan><tspan class="cls-37" x="303.94" y="420.84">р</tspan><tspan x="320.33" y="420.84">алас</tspan><tspan class="cls-46" x="377" y="420.84">ь</tspan><tspan x="390.32" y="420.84">, но так и не смо</tspan><tspan class="cls-38" x="592.87" y="420.84">г</tspan><tspan x="603.5" y="420.84">ла найти прил</tspan><tspan class="cls-36" x="784.13" y="420.84">ож</tspan><tspan x="818.3" y="420.84">ение, </tspan><tspan x="161" y="449.64">о</tspan><tspan class="cls-47" x="176.26" y="449.64">б</tspan><tspan class="cls-28" x="191.6" y="449.64">ъ</tspan><tspan class="cls-43" x="206.5" y="449.64">е</tspan><tspan class="cls-45" x="221.07" y="449.64">диняющее в </tspan><tspan class="cls-48" x="383.84" y="449.64">с</tspan><tspan x="397.13" y="449.64">ебе в</tspan><tspan class="cls-48" x="463.49" y="449.64">с</tspan><tspan x="476.79" y="449.64">е нео</tspan><tspan class="cls-36" x="544.21" y="449.64">бх</tspan><tspan class="cls-49" x="571.73" y="449.64">о</tspan><tspan class="cls-28" x="586.92" y="449.64">димые для </tspan><tspan class="cls-47" x="729.6" y="449.64">э</tspan><tspan class="cls-33" x="742.83" y="449.64">т</tspan><tspan x="753.6" y="449.64">о</tspan><tspan class="cls-33" x="768.87" y="449.64">г</tspan><tspan x="779.69" y="449.64">о </tspan><tspan x="161" y="478.44">в</tspan><tspan class="cls-50" x="175.59" y="478.44">о</tspan><tspan class="cls-45" x="190.76" y="478.44">зм</tspan><tspan class="cls-51" x="222.54" y="478.44">о</tspan><tspan x="237.34" y="478.44">жно</tspan><tspan class="cls-24" x="288.63" y="478.44">с</tspan><tspan class="cls-45" x="301.9" y="478.44">ти:</tspan><tspan x="161" y="536.04">• чат с л</tspan><tspan class="cls-37" x="255.34" y="536.04">ю</tspan><tspan x="276.03" y="536.04">дьми, о</tspan><tspan class="cls-32" x="367.28" y="536.04">б</tspan><tspan class="cls-45" x="382.61" y="536.04">ъ</tspan><tspan class="cls-43" x="397.52" y="536.04">е</tspan><tspan class="cls-28" x="412.09" y="536.04">диненными д</tspan><tspan class="cls-25" x="583.88" y="536.04">р</tspan><tspan class="cls-52" x="599.98" y="536.04">у</tspan><tspan class="cls-53" x="612.65" y="536.04">ж</tspan><tspan class="cls-28" x="632.36" y="536.04">бой с </tspan><tspan class="cls-49" x="706.04" y="536.04">о</tspan><tspan class="cls-28" x="721.23" y="536.04">дариваемым,</tspan><tspan x="161" y="564.84">• </tspan><tspan class="cls-36" x="174.37" y="564.84">к</tspan><tspan x="187.86" y="564.84">ош</tspan><tspan class="cls-43" x="225.42" y="564.84">е</tspan><tspan x="239.98" y="564.84">лек, </tspan><tspan class="cls-51" x="295.3" y="564.84">к</tspan><tspan class="cls-47" x="308.79" y="564.84">о</tspan><tspan class="cls-33" x="323.57" y="564.84">т</tspan><tspan x="334.35" y="564.84">орый лег</tspan><tspan class="cls-36" x="449.12" y="564.84">к</tspan><tspan x="462.61" y="564.84">о поп</tspan><tspan class="cls-37" x="531.77" y="564.84">о</tspan><tspan x="546.96" y="564.84">лнить любому </tspan><tspan class="cls-51" x="731.64" y="564.84">ж</tspan><tspan class="cls-43" x="751.01" y="564.84">е</tspan><tspan class="cls-45" x="765.58" y="564.84">лающем</tspan><tspan class="cls-54" x="871.59" y="564.84">у</tspan><tspan x="884.16" y="564.84">,</tspan><tspan x="161" y="593.64">• маг</tspan><tspan class="cls-43" x="218.72" y="593.64">а</tspan><tspan x="232.45" y="593.64">зин, в </tspan><tspan class="cls-36" x="310.23" y="593.64">к</tspan><tspan class="cls-32" x="323.72" y="593.64">о</tspan><tspan class="cls-33" x="338.5" y="593.64">т</tspan><tspan x="349.28" y="593.64">ором м</tspan><tspan class="cls-36" x="440.48" y="593.64">о</tspan><tspan x="455.29" y="593.64">жно за</tspan><tspan class="cls-24" x="539.67" y="593.64">к</tspan><tspan class="cls-43" x="553.37" y="593.64">а</tspan><tspan x="567.1" y="593.64">зать н</tspan><tspan class="cls-55" x="641.26" y="593.64">у</tspan><tspan x="653.93" y="593.64">жный </tspan><tspan class="cls-33" x="731.59" y="593.64">т</tspan><tspan x="742.37" y="593.64">ова</tspan><tspan class="cls-29" x="786.22" y="593.64">р</tspan><tspan x="802.32" y="593.64">.</tspan><tspan x="161" y="680.04">П</tspan><tspan class="cls-50" x="180.8" y="680.04">о</tspan><tspan class="cls-47" x="195.97" y="680.04">э</tspan><tspan class="cls-33" x="209.19" y="680.04">т</tspan><tspan x="219.97" y="680.04">ому я придумала решение для мар</tspan><tspan class="cls-36" x="664.56" y="680.04">к</tspan><tspan class="cls-39" x="678.05" y="680.04">е</tspan><tspan x="692.33" y="680.04">тплейса Бе</tspan><tspan class="cls-29" x="832.44" y="680.04">р</tspan><tspan class="cls-54" x="848.54" y="680.04">у</tspan><tspan x="861.12" y="680.04">, </tspan><tspan class="cls-36" x="161" y="708.84">к</tspan><tspan class="cls-32" x="174.49" y="708.84">о</tspan><tspan class="cls-33" x="189.27" y="708.84">т</tspan><tspan x="200.05" y="708.84">орое п</tspan><tspan class="cls-56" x="284.34" y="708.84">о</tspan><tspan x="299.5" y="708.84">зв</tspan><tspan class="cls-37" x="326.91" y="708.84">о</tspan><tspan x="342.1" y="708.84">ля</tspan><tspan class="cls-39" x="371.81" y="708.84">е</tspan><tspan x="386.09" y="708.84">т решить в</tspan><tspan class="cls-48" x="519.58" y="708.84">с</tspan><tspan x="532.88" y="708.84">е описанные задачи.</tspan><tspan x="161" y="766.44">Я не </tspan><tspan class="cls-24" x="222.17" y="766.44">с</tspan><tspan x="235.45" y="766.44">тала </tspan><tspan class="cls-47" x="296.24" y="766.44">о</tspan><tspan x="311.02" y="766.44">три</tspan><tspan class="cls-48" x="355.35" y="766.44">с</tspan><tspan x="368.64" y="766.44">овывать в</tspan><tspan class="cls-41" x="491.67" y="766.44">с</tspan><tspan x="504.96" y="766.44">е эк</tspan><tspan class="cls-37" x="553.73" y="766.44">р</tspan><tspan x="570.12" y="766.44">аны прил</tspan><tspan class="cls-36" x="689.76" y="766.44">ож</tspan><tspan x="723.94" y="766.44">ения, но б</tspan><tspan class="cls-29" x="850.97" y="766.44">е</tspan><tspan x="865.44" y="766.44">з </tspan><tspan x="161" y="795.24">про</tspan><tspan class="cls-37" x="208.9" y="795.24">б</tspan><tspan x="224.65" y="795.24">лем мо</tspan><tspan class="cls-42" x="314.12" y="795.24">г</tspan><tspan x="325.57" y="795.24">у </tspan><tspan class="cls-32" x="345.25" y="795.24">э</tspan><tspan class="cls-33" x="358.47" y="795.24">т</tspan><tspan x="369.25" y="795.24">о </tspan><tspan class="cls-31" x="390.8" y="795.24">с</tspan><tspan class="cls-45" x="403.88" y="795.24">д</tspan><tspan class="cls-43" x="419.5" y="795.24">е</tspan><tspan class="cls-28" x="434.07" y="795.24">лат</tspan><tspan class="cls-57" x="474.58" y="795.24">ь</tspan><tspan x="487.9" y="795.24">, е</tspan><tspan class="cls-31" x="514.11" y="795.24">с</tspan><tspan x="527.19" y="795.24">ли п</tspan><tspan class="cls-32" x="581.33" y="795.24">о</tspan><tspan x="596.12" y="795.24">тре</tspan><tspan class="cls-29" x="638.76" y="795.24">бу</tspan><tspan class="cls-39" x="667.25" y="795.24">е</tspan><tspan class="cls-33" x="681.53" y="795.24">т</tspan><tspan class="cls-31" x="692.31" y="795.24">с</tspan><tspan x="705.39" y="795.24">я.</tspan><tspan class="cls-39" x="161" y="852.84">С</tspan><tspan x="177.63" y="852.84">ейчас я </tspan><tspan class="cls-36" x="277.97" y="852.84">х</tspan><tspan x="290.14" y="852.84">очу п</tspan><tspan class="cls-50" x="355.64" y="852.84">о</tspan><tspan class="cls-45" x="370.81" y="852.84">зна</tspan><tspan class="cls-51" x="413.81" y="852.84">к</tspan><tspan x="427.3" y="852.84">омить вас с основными е</tspan><tspan class="cls-33" x="743.83" y="852.84">г</tspan><tspan x="754.66" y="852.84">о </tspan><tspan class="cls-48" x="161" y="881.64">с</tspan><tspan x="174.3" y="881.64">о</tspan><tspan class="cls-24" x="189.56" y="881.64">с</tspan><tspan class="cls-33" x="202.83" y="881.64">т</tspan><tspan class="cls-36" x="213.61" y="881.64">о</tspan><tspan x="228.42" y="881.64">яниями.</tspan></tspan></text></svg>