<svg id="Layer_1" data-name="Layer 1" xmlns="http://www.w3.org/2000/svg" viewBox="0 0 1920 1080"><defs><style>.cls-1,.cls-3{fill:#fff;}.cls-2{fill:#6d3df7;}.cls-3{font-size:36px;font-family:Montserrat-Bold, Montserrat;font-weight:700;}.cls-4{fill:#ff8089;}.cls-5{fill:#cffaff;}</style></defs><title>beru</title><rect class="cls-1" width="1920" height="1080"/><rect class="cls-2" x="240" width="1440" height="1080"/><text class="cls-3" transform="translate(740.17 423.69)">Спасибо за внимание!</text><path class="cls-4" d="M939.15,595.55a4.86,4.86,0,0,1-4.94-7.44l36.39-56.19-38.23,15.54,42.92-84.69a4.87,4.87,0,0,1,8.69,4.41l-31.15,61.46,42.76-17.39-53.21,82.16A4.9,4.9,0,0,1,939.15,595.55Z"/><path class="cls-5" d="M931.19,594.51a4.87,4.87,0,0,1-4.94-7.44l36.39-56.19-38.23,15.54,42.92-84.69a4.87,4.87,0,0,1,8.69,4.4l-31.15,61.46,42.76-17.38-53.21,82.15A4.87,4.87,0,0,1,931.19,594.51Z"/></svg>