<svg id="Layer_1" data-name="Layer 1" xmlns="http://www.w3.org/2000/svg" xmlns:xlink="http://www.w3.org/1999/xlink" viewBox="0 0 1296 1350.93"><defs><style>.cls-1,.cls-10,.cls-14,.cls-2,.cls-28,.cls-3,.cls-5,.cls-8,.cls-9{fill:none;}.cls-1,.cls-2{stroke:#61698e;}.cls-1,.cls-10,.cls-14,.cls-2,.cls-28,.cls-5,.cls-8,.cls-9{stroke-miterlimit:10;}.cls-1,.cls-5{stroke-width:3.2px;}.cls-2,.cls-8{stroke-width:2.94px;}.cls-4{clip-path:url(#clip-path);}.cls-5,.cls-8{stroke:#000;}.cls-31,.cls-6{fill:#61698e;}.cls-7{clip-path:url(#clip-path-2);}.cls-9{stroke:#8e3f3f;}.cls-10,.cls-9{stroke-width:3px;}.cls-10{stroke:#773131;stroke-linecap:round;}.cls-11{fill:#f7931e;}.cls-12{fill:#d8c8b6;}.cls-13{fill:#fff;}.cls-14,.cls-28{stroke:#f7931e;}.cls-14{stroke-width:8px;}.cls-15{fill:#fff0a6;}.cls-16{fill:#f2f2f2;}.cls-17{fill:#c69c6d;}.cls-18{fill:gray;opacity:0.2;}.cls-19{fill:#cae8ff;}.cls-20{fill:#c7b299;}.cls-21{fill:#471010;}.cls-22{fill:#9fbfd3;}.cls-23{fill:#534741;}.cls-24{fill:#3f3530;}.cls-25{clip-path:url(#clip-path-3);}.cls-26{fill:#8e3f3f;}.cls-27{fill:#42210b;}.cls-28{stroke-width:2.43px;}.cls-29{fill:#231b17;}.cls-30{fill:#fff0f0;}.cls-31{font-size:50px;font-family:Amatic-Bold, Amatic;font-weight:700;}.cls-32{letter-spacing:-0.05em;}.cls-33{letter-spacing:-0.01em;}</style><clipPath id="clip-path"><path class="cls-1" d="M470.88,471.63c-24.67-30.18-24.42-71.21.57-91.63s65.24-12.51,89.91,17.68c58.73,71.85,57.12,162.21,57.12,162.21S531.69,546,470.88,471.63Z"/></clipPath><clipPath id="clip-path-2"><path class="cls-2" d="M1076.56,1020.72c26.53-24,64.17-25.73,84.08-3.77s14.52,59.26-12,83.3c-63.15,57.23-146.11,60-146.11,60S1011.17,1080,1076.56,1020.72Z"/></clipPath><clipPath id="clip-path-3"><circle class="cls-3" cx="1017.07" cy="299.98" r="162.13"/></clipPath></defs><title>birds</title><g class="cls-4"><path class="cls-5" d="M470.88,471.63c-24.67-30.18-24.42-71.21.57-91.63s65.24-12.51,89.91,17.68c58.73,71.85,57.12,162.21,57.12,162.21S531.69,546,470.88,471.63Z"/><rect class="cls-6" x="534.54" y="328.4" width="3.2" height="260.78" transform="translate(-169.3 441.69) rotate(-39.17)"/><rect class="cls-6" x="552.96" y="476.21" width="50.92" height="3.2" transform="translate(-28.58 36.88) rotate(-3.56)"/><rect class="cls-6" x="561.44" y="487.22" width="50.92" height="3.2" transform="translate(-29.25 37.42) rotate(-3.56)"/><rect class="cls-6" x="522.56" y="505.25" width="57.04" height="3.2" transform="translate(25.42 1040.02) rotate(-88.01)"/><rect class="cls-6" x="526.25" y="442.52" width="63.36" height="3.2" transform="translate(-35.59 48.81) rotate(-4.85)"/><rect class="cls-6" x="468.06" y="464.49" width="78.49" height="3.2" transform="translate(5.21 937.79) rotate(-85.79)"/><rect class="cls-6" x="431.68" y="423.86" width="79.41" height="3.2" transform="translate(-15.89 832.61) rotate(-81.95)"/><rect class="cls-6" x="441.59" y="435.72" width="79.41" height="3.2" transform="translate(-19.11 852.63) rotate(-81.95)"/><rect class="cls-6" x="493.01" y="400.96" width="71.03" height="3.2" transform="translate(-37.28 54.33) rotate(-5.68)"/><rect class="cls-6" x="578.77" y="511.03" width="3.2" height="38.54" transform="translate(-42.8 51.02) rotate(-4.85)"/></g><path class="cls-1" d="M470.88,471.63c-24.67-30.18-24.42-71.21.57-91.63s65.24-12.51,89.91,17.68c58.73,71.85,57.12,162.21,57.12,162.21S531.69,546,470.88,471.63Z"/><g class="cls-7"><path class="cls-8" d="M1076.56,1020.72c26.53-24,64.17-25.73,84.08-3.77s14.52,59.26-12,83.3c-63.15,57.23-146.11,60-146.11,60S1011.17,1080,1076.56,1020.72Z"/><rect class="cls-6" x="971.63" y="1078.51" width="239.51" height="2.94" transform="translate(-442.42 1009.91) rotate(-42.08)"/><rect class="cls-6" x="1074.45" y="1096.27" width="2.94" height="46.76" transform="translate(-119.51 128.6) rotate(-6.48)"/><rect class="cls-6" x="1064.75" y="1104.56" width="2.94" height="46.76" transform="translate(-120.51 127.56) rotate(-6.48)"/><rect class="cls-6" x="1021.81" y="1094.46" width="52.38" height="2.94" transform="translate(-17.65 17.15) rotate(-0.93)"/><rect class="cls-6" x="1104.4" y="1070.18" width="2.94" height="58.19" transform="translate(-138.51 159.66) rotate(-7.77)"/><rect class="cls-6" x="1081.88" y="1017.82" width="2.93" height="72.09" transform="translate(5.28 2113.14) rotate(-88.71)"/><rect class="cls-6" x="1117.47" y="982.56" width="2.93" height="72.93" transform="translate(3.9 2042.31) rotate(-84.87)"/><rect class="cls-6" x="1107.06" y="992.2" width="2.93" height="72.93" transform="translate(-15.19 2040.73) rotate(-84.87)"/><rect class="cls-6" x="1141.15" y="1037.75" width="2.94" height="65.24" transform="matrix(0.99, -0.15, 0.15, 0.99, -147.25, 182.95)"/><rect class="cls-6" x="1010.17" y="1122.43" width="35.39" height="2.94" transform="translate(-142.56 149.34) rotate(-7.77)"/></g><path class="cls-2" d="M1076.56,1020.72c26.53-24,64.17-25.73,84.08-3.77s14.52,59.26-12,83.3c-63.15,57.23-146.11,60-146.11,60S1011.17,1080,1076.56,1020.72Z"/><path class="cls-9" d="M139,618.31s-85.56,461.3,275.28,345.55"/><path class="cls-10" d="M154.23,650.1S91.47,964.94,389.33,942.28"/><path class="cls-10" d="M767.78,1189.93S344,1431.8,303.25,866.94"/><path class="cls-10" d="M336.1,892.23s49.49,246.4,332.7,246.07"/><path class="cls-10" d="M303.25,866.94s69.86,388.6,416.52,298.83"/><path class="cls-10" d="M118.46,563.72S225.23,986,936.13,1263.38c0,0,154.22,55.69,245.33,72.27"/><path class="cls-11" d="M309.4,899.38c3.88,9.78,6.13,38.57-3.65,42.45S277.86,923.22,274,913.44s-14.51-59.68-4.72-63.56S305.52,889.6,309.4,899.38Z"/><path class="cls-11" d="M209.45,917.76c.05,10.53-8.36,38.15-18.88,38.2s-19.18-27.5-19.23-38,8.25-60.86,18.77-60.9S209.4,907.24,209.45,917.76Z"/><path class="cls-12" d="M470.69,719.74s35.59,66.43,55.75,105.57,74.73,34.4,103.19,86.59,29.07,90.49,29.07,90.49S479.85,1052,361.41,977.27,193.88,766.42,256.34,614.6s71.18-146.93,71.18-146.93Z"/><path class="cls-13" d="M297.23,940.42,276,887.62a1.5,1.5,0,1,0-2.78,1.12l19.6,48.67A32,32,0,0,0,297.23,940.42Z"/><line class="cls-14" x1="260.35" y1="735.67" x2="186.5" y2="866.94"/><path class="cls-15" d="M260.11,788.29c-8,7.4-29.69,18.51-37.08,10.56s4.12-30,12.07-37.43c12.44-11.58,22.57-10.76,30-2.81S271.76,777.44,260.11,788.29Z"/><path class="cls-16" d="M642.29,985.12c0-41.94-29.89-76-66.76-76s-66.76,34-66.76,76a84.22,84.22,0,0,0,6.73,33.24c52.33,1.46,99-6.26,124-11.48A85.65,85.65,0,0,0,642.29,985.12Z"/><path class="cls-15" d="M526.44,825.31c-20.16-39.14-55.75-105.57-55.75-105.57l-131.77-232a211.73,211.73,0,0,0-24.66-1.57c-10.17,18.45-27.79,55.22-57.92,128.44C193.88,766.42,243,902.49,361.41,977.27c24.73,15.61,52.1,25.79,79.92,32.14,50.4-36.49,88.48-93.84,105.33-161.69C538.44,841.9,531.4,834.93,526.44,825.31Z"/><circle class="cls-17" cx="301.53" cy="777.13" r="16.06"/><path class="cls-18" d="M404.34,843.05c8.64-28.08-1.49-68-1.49-68l-95.41-5.1s10.15,104,65.35,99.93c8.18-.6,14.54-3.27,19.47-7.34h0s24.63,30.34,65.74,55.83c38,23.57,90.62,42.54,139.93,40.21C694.56,954,435,854.63,404.34,843.05Z"/><path class="cls-19" d="M417.63,878.28c83.08,75.66,177.36,84.5,232.6,81.57a268.44,268.44,0,0,0-20.6-48c-28.46-52.19-83-47.45-103.19-86.59s-55.75-105.57-55.75-105.57L327.52,467.67s-4.41,35.35-4.92,86.39C321.64,650.43,334.63,802.69,417.63,878.28Z"/><circle class="cls-17" cx="307.17" cy="689.25" r="15.38"/><path class="cls-15" d="M646.92,950.08C635.58,952,627,960.81,627,971.34c0,12,11.05,21.67,24.67,21.67a28,28,0,0,0,6.06-.66A210.75,210.75,0,0,0,646.92,950.08Z"/><path d="M656.23,983.26c-.06,0-12.31,2.18-18.5-4.63s-1.24-19.35-8.07-31.57c-3.87-6.94-11.69-11.24-29.11-16.82s-86.29-73.14-104.91-96.18c-19.4-24-39.43,30.39-28.24,47.76s74.77,50.27,118.21,69.2S627,1001.64,627,1001.64l2.16,1.74,10.24,3.52c11.29-2.36,18.3-2.22,19.28-2.49a17,17,0,0,0,0-2A122.67,122.67,0,0,0,656.23,983.26Z"/><circle class="cls-20" cx="611.3" cy="960.59" r="13.53"/><circle cx="611.3" cy="960.59" r="10.75"/><circle class="cls-21" cx="611.3" cy="960.59" r="9.57"/><circle cx="611.3" cy="960.59" r="6.17"/><circle class="cls-13" cx="615.64" cy="956.38" r="2.91"/><circle class="cls-17" cx="255.43" cy="700.71" r="12.98"/><circle class="cls-17" cx="282.3" cy="828.04" r="13.9"/><circle class="cls-17" cx="322.55" cy="588.9" r="13.9"/><path class="cls-17" d="M238.71,737a22.61,22.61,0,0,0-9.55,2.1,281.57,281.57,0,0,0,2.36,42.16A22.71,22.71,0,1,0,238.71,737Z"/><circle class="cls-17" cx="288.37" cy="640.26" r="10.93"/><circle class="cls-17" cx="282.3" cy="599.99" r="6.67"/><path class="cls-17" d="M284.3,565.31a9.43,9.43,0,0,0,1-18.8q-3.4,7.71-7.2,16.45A9.42,9.42,0,0,0,284.3,565.31Z"/><path class="cls-22" d="M387.88,828l2.48,19.48q3.45,4.79,7.14,9.33a38.4,38.4,0,0,0,7.69-21.4C406,817.94,387.88,828,387.88,828Z"/><path class="cls-17" d="M246.45,650.1a7.73,7.73,0,0,0,2.16-15.16q-2.58,7.37-4.81,14.68A7.78,7.78,0,0,0,246.45,650.1Z"/><path class="cls-19" d="M306.39,760.9c-2.93-33.34,3.95-219,37.3-222S416.2,717.65,419.13,751c4.58,52.19-13.67,108.48-47,111.41S310.69,809.8,306.39,760.9Z"/><ellipse class="cls-11" cx="189.62" cy="854.75" rx="4.47" ry="12.59" transform="translate(-81.71 22.32) rotate(-5.55)"/><path class="cls-13" d="M181.42,949.23l3.84-53.49a1.5,1.5,0,1,0-3-.22l-3.52,49.09A43.82,43.82,0,0,0,181.42,949.23Z"/><path class="cls-13" d="M202.5,944.07l-5.05-48.51a1.5,1.5,0,1,0-3,.31L200,948.66A43.2,43.2,0,0,0,202.5,944.07Z"/><path class="cls-18" d="M638.86,1005.86a516.26,516.26,0,0,1-143.4,5.07c-220.89-23.37-264.3-209.62-266.12-255.4,3.6,92.55,52,171.17,132.07,221.74,95,60,228.78,39.91,278.08,29.61C640.49,1006.67,640,1005.65,638.86,1005.86Z"/><path class="cls-23" d="M627,1001.64s13,6.83,31.68.75c0,0,37.69,31.65,45.7,49.56,0,0-46.07-10.48-74.49-43.16A11.12,11.12,0,0,1,627,1001.64Z"/><path class="cls-24" d="M658.7,1002.39c-18.64,6.08-31.68-.75-31.68-.75s64.1,43.94,77.38,50.31C696.39,1034,658.7,1002.39,658.7,1002.39Z"/><path class="cls-22" d="M324.47,540.17l-1.73,4.23q-.09,4.62-.14,9.44c4.71,3,11.58,8.93,16.23,3.33S324.47,540.17,324.47,540.17Z"/><path class="cls-19" d="M313.8,479.57c6.51,10.23,35.27,71.1,25,77.6s-53.12-45.38-59.63-55.61c-10.18-16-13.7-37.17-3.46-43.67S304.27,464.56,313.8,479.57Z"/><path class="cls-22" d="M313.8,479.57a64.47,64.47,0,0,0-9.33-11.42l-21.79-11.93a11.55,11.55,0,0,0-6.94,1.67,12.87,12.87,0,0,0-5.35,7.84c8.6,12.15,40.92,57.95,58.61,55.19.27,0,3.17-.31,3.87-2.29,1.27-3.55,2.83-8.47,3.23-8.61C329.3,492.12,317.18,484.88,313.8,479.57Z"/><path class="cls-19" d="M305.61,410.23c7.93,14.63,41.51,100.7,26.88,108.63S264.08,451.67,256.15,437c-12.41-22.9-15.22-52.18-.59-60.11S294,388.78,305.61,410.23Z"/><g class="cls-25"><circle class="cls-26" cx="1017.07" cy="299.98" r="162.13"/><path class="cls-27" d="M1133.18,186.84S1115.45,385.66,928.8,436s138.44,119.15,138.44,119.15l160-67.86,50.67-156L1231.8,204.46Z"/><path class="cls-11" d="M1066.65,363.56c-1.18,3-1.86,11.7,1.11,12.88s8.46-5.65,9.64-8.62,4.4-18.11,1.43-19.29S1067.83,360.59,1066.65,363.56Z"/><path class="cls-11" d="M1097,369.13c0,3.2,2.54,11.58,5.73,11.6s5.82-8.35,5.84-11.54-2.51-18.47-5.7-18.48S1097,365.94,1097,369.13Z"/><path class="cls-12" d="M1017.7,309s-10.8,20.16-16.92,32-22.68,10.44-31.32,26.27-8.82,27.47-8.82,27.47,54.28,15.06,90.22-7.63,50.84-64,31.89-110.06-21.6-44.59-21.6-44.59Z"/><path class="cls-27" d="M1070.34,376l6.45-16a.46.46,0,1,1,.85.34l-6,14.77A9.41,9.41,0,0,1,1070.34,376Z"/><line class="cls-28" x1="1081.53" y1="313.87" x2="1103.94" y2="353.71"/><path class="cls-15" d="M1081.61,329.84c2.41,2.25,9,5.62,11.25,3.21s-1.25-9.12-3.66-11.36c-3.78-3.52-6.85-3.27-9.1-.85S1078.07,326.55,1081.61,329.84Z"/><path class="cls-16" d="M965.62,389.58c0-12.73,9.07-23.05,20.26-23.05s20.26,10.32,20.26,23.05a25.49,25.49,0,0,1-2,10.08,167,167,0,0,1-37.63-3.48A26,26,0,0,1,965.62,389.58Z"/><path class="cls-15" d="M1000.78,341.08c6.12-11.88,16.92-32,16.92-32l40-70.41a66,66,0,0,1,7.48-.48c3.09,5.6,8.44,16.76,17.58,39,19,46.08,4.06,87.37-31.89,110.06a77.56,77.56,0,0,1-24.25,9.76c-15.3-11.08-26.85-28.48-32-49.07A18.86,18.86,0,0,0,1000.78,341.08Z"/><circle class="cls-17" cx="1069.04" cy="326.46" r="4.87"/><path class="cls-18" d="M1037.84,346.46c-2.63-8.52.45-20.64.45-20.64l29-1.55s-3.08,31.55-19.83,30.32a10.22,10.22,0,0,1-5.91-2.22h0a87,87,0,0,1-20,16.94c-11.54,7.16-27.5,12.91-42.46,12.21C949.76,380.13,1028.54,350,1037.84,346.46Z"/><path class="cls-19" d="M1033.8,357.15c-25.21,23-53.82,25.65-70.59,24.76a82.2,82.2,0,0,1,6.25-14.56c8.64-15.83,25.2-14.39,31.32-26.27s16.92-32,16.92-32l43.45-76.5a254,254,0,0,1,1.49,26.22C1062.93,288,1059,334.21,1033.8,357.15Z"/><circle class="cls-17" cx="1067.32" cy="299.78" r="4.67"/><path class="cls-15" d="M964.22,378.94c3.44.59,6,3.26,6,6.45,0,3.64-3.36,6.58-7.49,6.58a8.5,8.5,0,0,1-1.84-.2A63.9,63.9,0,0,1,964.22,378.94Z"/><path d="M961.39,389s3.74.66,5.62-1.4.37-5.87,2.44-9.59c1.18-2.1,3.55-3.41,8.84-5.1s26.19-22.2,31.84-29.19c5.89-7.28,12,9.22,8.57,14.5s-22.7,15.25-35.88,21-12.56,15.36-12.56,15.36l-.66.53-3.11,1.06a42.6,42.6,0,0,0-5.85-.75s0-.61,0-.61A37.76,37.76,0,0,1,961.39,389Z"/><circle class="cls-20" cx="975.03" cy="382.13" r="4.11"/><circle cx="975.03" cy="382.13" r="3.26"/><circle class="cls-21" cx="975.03" cy="382.13" r="2.9"/><circle cx="975.03" cy="382.13" r="1.87"/><circle class="cls-13" cx="973.71" cy="380.85" r="0.88"/><circle class="cls-17" cx="1083.02" cy="303.26" r="3.94"/><circle class="cls-17" cx="1074.87" cy="341.91" r="4.22"/><path class="cls-17" d="M1088.1,314.26a6.87,6.87,0,0,1,2.9.64,85.55,85.55,0,0,1-.72,12.79,6.89,6.89,0,1,1-2.18-13.43Z"/><circle class="cls-17" cx="1073.03" cy="284.92" r="3.32"/><path class="cls-22" d="M1042.83,341.91l-.75,5.91c-.7,1-1.42,1.91-2.17,2.83a11.68,11.68,0,0,1-2.33-6.5C1037.34,338.84,1042.83,341.91,1042.83,341.91Z"/><path class="cls-17" d="M1085.75,287.9a2.35,2.35,0,0,1-.65-4.6c.52,1.49,1,3,1.45,4.46A2.36,2.36,0,0,1,1085.75,287.9Z"/><path class="cls-19" d="M1067.56,321.53c.89-10.12-1.2-66.48-11.32-67.36s-22,54.24-22.89,64.35c-1.39,15.85,4.15,32.93,14.26,33.82S1066.26,336.37,1067.56,321.53Z"/><ellipse class="cls-11" cx="1103" cy="350.01" rx="3.82" ry="1.36" transform="translate(648.04 1414.03) rotate(-84.45)"/><path class="cls-27" d="M1105.49,378.68l-1.17-16.23a.46.46,0,0,1,.42-.49.47.47,0,0,1,.49.42l1.07,14.9A14,14,0,0,1,1105.49,378.68Z"/><path class="cls-27" d="M1099.09,377.12l1.53-14.72a.46.46,0,0,1,.91.09l-1.67,16A14,14,0,0,1,1099.09,377.12Z"/><path class="cls-18" d="M960.64,394.82s0-.07,0-.19a154.15,154.15,0,0,0,49.53,2.78c67-7.09,80.21-63.62,80.76-77.51-1.09,28.09-15.77,52-40.08,67.29C1014.92,409.88,960.64,394.82,960.64,394.82Z"/><path class="cls-23" d="M970.26,394.59a13.18,13.18,0,0,1-9.62.23s-11.44,9.6-13.87,15c0,0,14-3.18,22.61-13.1A3.37,3.37,0,0,0,970.26,394.59Z"/><path class="cls-24" d="M960.64,394.82a13.18,13.18,0,0,0,9.62-.23s-19.46,13.33-23.49,15.27C949.2,404.42,960.64,394.82,960.64,394.82Z"/><path class="cls-22" d="M1062.07,254.54l.53,1.29c0,.93,0,1.89,0,2.86-1.43.92-3.51,2.71-4.93,1S1062.07,254.54,1062.07,254.54Z"/><path class="cls-19" d="M1065.31,236.15c-2,3.11-10.7,21.58-7.6,23.55s16.13-13.77,18.1-16.87c3.09-4.87,4.16-11.28,1-13.26S1068.21,231.6,1065.31,236.15Z"/><path class="cls-22" d="M1065.31,236.15a19.38,19.38,0,0,1,2.83-3.46l6.62-3.63a3.59,3.59,0,0,1,2.1.51,3.91,3.91,0,0,1,1.63,2.38c-2.62,3.69-12.42,17.59-17.79,16.75-.08,0-1-.09-1.18-.69a19,19,0,0,0-1-2.62C1060.61,240,1064.29,237.76,1065.31,236.15Z"/><path class="cls-19" d="M1067.8,215.11c-2.41,4.44-12.6,30.56-8.16,33s20.76-20.39,23.17-24.83c3.76-6.95,4.62-15.84.18-18.25S1071.33,208.6,1067.8,215.11Z"/><circle class="cls-13" cx="1000.39" cy="171.21" r="5.75"/><circle class="cls-13" cx="919.35" cy="221.5" r="4.89"/><circle class="cls-13" cx="1001.73" cy="292.32" r="4.41"/><circle class="cls-13" cx="879.1" cy="333.88" r="4.07"/><circle class="cls-13" cx="935.23" cy="316.13" r="2.43"/><circle class="cls-13" cx="875.02" cy="254.54" r="2.9"/><circle class="cls-13" cx="1103.82" cy="194.08" r="4.73"/><circle class="cls-13" cx="1038.88" cy="162.14" r="2.55"/><circle class="cls-13" cx="1021.43" cy="225.86" r="4.36"/><circle class="cls-13" cx="932.8" cy="180.96" r="4.19"/><circle class="cls-13" cx="926.58" cy="390.41" r="4.18"/><circle class="cls-13" cx="955.22" cy="257.47" r="3.29"/></g><path class="cls-29" d="M660.62,1014.17c-1.07,1.17-5.52-1.15-6.69-2.21a2.86,2.86,0,0,1,3.84-4.24C658.94,1008.78,661.68,1013,660.62,1014.17Z"/><path class="cls-30" d="M1007.57,739.66c0,62.87-67,113.84-149.62,113.84a187.07,187.07,0,0,1-71.42-13.78c-6.4-2.65-69.91,56.61-69.91,56.61s36.26-75.27,29.63-80.93c-23.59-20.12-37.92-46.66-37.92-75.74,0-62.88,67-113.85,149.62-113.85S1007.57,676.78,1007.57,739.66Z"/><text class="cls-31" transform="translate(763.78 762.46)"><tspan class="cls-32">P</tspan><tspan x="9.52" y="0">ÄHKI</tspan><tspan class="cls-33" x="65.63" y="0">N</tspan><tspan x="83.13" y="0">Ä</tspan><tspan class="cls-33" x="99.15" y="0">N</tspan><tspan x="116.65" y="0">AKKELI</tspan></text></svg>