<svg id="Layer_1" data-name="Layer 1" xmlns="http://www.w3.org/2000/svg" xmlns:xlink="http://www.w3.org/1999/xlink" viewBox="0 0 1296 1264.98"><defs><style>.cls-1,.cls-18,.cls-2,.cls-22,.cls-3,.cls-7{fill:none;}.cls-1,.cls-3{stroke:#61698e;}.cls-1,.cls-18,.cls-22,.cls-3,.cls-7{stroke-miterlimit:10;}.cls-1,.cls-18{stroke-width:3px;}.cls-3{stroke-linecap:round;stroke-width:5px;}.cls-4{fill:#e5d1bd;}.cls-5{fill:#ffa245;}.cls-6{fill:#c7b299;}.cls-22,.cls-7{stroke:#f7931e;}.cls-7{stroke-width:4.02px;}.cls-8{fill:#82676e;}.cls-9{fill:#b79f86;}.cls-10{fill:#fff;}.cls-11{fill:#1a98ff;}.cls-12{fill:#998675;}.cls-13{fill:#914500;}.cls-14{fill:#f7931e;}.cls-15{fill:#bf6c19;}.cls-16{fill:#d7ebff;}.cls-17{clip-path:url(#clip-path);}.cls-18{stroke:#000;}.cls-19,.cls-26{fill:#61698e;}.cls-20{clip-path:url(#clip-path-2);}.cls-21{fill:#e6e6e6;}.cls-22{stroke-width:1.47px;}.cls-23{fill:#f2f2f2;}.cls-24{clip-path:url(#clip-path-3);}.cls-25{fill:#f3f6ff;}.cls-26{font-size:50px;font-family:Amatic-Bold, Amatic;font-weight:700;}.cls-27{letter-spacing:-0.03em;}</style><clipPath id="clip-path"><path class="cls-1" d="M265.91,777.49c20.68,30.19,17.18,68.54-7.81,85.66s-62,6.51-82.69-23.68c-49.22-71.87-40.55-156.25-40.55-156.25S215,703.08,265.91,777.49Z"/></clipPath><clipPath id="clip-path-2"><circle class="cls-2" cx="279.33" cy="239.7" r="162.13"/></clipPath><clipPath id="clip-path-3"><path class="cls-1" d="M1115.4,103.62c31.66-18.34,69.64-12,84.82,14.25s1.82,62.33-29.85,80.67C1095,242.2,1011.5,227.17,1011.5,227.17S1037.35,148.82,1115.4,103.62Z"/></clipPath></defs><title>birds</title><line class="cls-3" x1="524.79" y1="1189.81" x2="1189.19" y2="1195.75"/><line class="cls-3" x1="781.44" y1="1239.21" x2="862.77" y2="1192.83"/><path class="cls-4" d="M205.34,288.15c-3.91-4.64-86,73.77-86,73.77a7.08,7.08,0,0,0-.13,10h0a7.07,7.07,0,0,0,10,.14S209.3,292.85,205.34,288.15Z"/><path class="cls-5" d="M126.32,363.85s-4.47,10.8-7.11,8.08a7.08,7.08,0,0,1,.13-10s38.84-37.09,64.36-58.75c0,0-8.83,16.45-19,27.84C151,346.27,132,358.51,132,358.51S126.32,363.85,126.32,363.85Z"/><path class="cls-6" d="M122.68,373.89a7.08,7.08,0,0,1-3.34-12s30.83-29.44,55.6-51.18h0S137.82,362.66,122.68,373.89Z"/><path class="cls-4" d="M205.15,288.47c-3.91-4.64-86,73.77-86,73.77a7.08,7.08,0,0,0-.13,10h0a7.07,7.07,0,0,0,10,.14S209.11,293.17,205.15,288.47Z"/><path class="cls-5" d="M126.13,364.17s-4.47,10.8-7.11,8.08a7.08,7.08,0,0,1,.13-10s38.84-37.09,64.36-58.75c0,0-8.83,16.45-19,27.84-13.68,15.26-32.67,27.5-32.67,27.5S126.13,364.17,126.13,364.17Z"/><path class="cls-6" d="M122.49,374.21a7.08,7.08,0,0,1-3.34-12s30.83-29.44,55.6-51.18h0S137.63,363,122.49,374.21Z"/><path class="cls-4" d="M1032.33,1018.09c10.72-12.72,236.1,202.55,236.1,202.55a19.43,19.43,0,0,1,.38,27.49h0a19.45,19.45,0,0,1-27.49.38S1021.46,1031,1032.33,1018.09Z"/><line class="cls-7" x1="871.65" y1="1030.92" x2="725.16" y2="1188.48"/><path class="cls-6" d="M862.76,1041c-11.62-4.83-4.21-49.3.62-60.92a22.78,22.78,0,0,1,42.08,17.47C900.63,1009.13,874.38,1045.78,862.76,1041Z"/><path class="cls-4" d="M932.08,815c-70.48-67-126.3-88.31-158.64-127.62-20.57-25-33.32-77-97.67-85s-104.57,44-104.57,44l45.85,33.19-45.85,14s40.45,37.51,44.18,54.69c2.94,13.51,1.89,27.22,1.15,42.12a4.74,4.74,0,0,1,4.63,4.82c.12,15.5,3.59,30.44,6.88,45.5,1.57,7.19,2.51,14.67,5,21.62,1.88,5.28,7.14,10.79,6.71,16.64a4.94,4.94,0,0,1-2.61,4.12,249.86,249.86,0,0,0,28.08,38.18c72.92,83.06,395,138.13,395,138.13l21.93-25.25,33.66,18.93S1002.56,882,932.08,815Z"/><line class="cls-7" x1="914.92" y1="1030.48" x2="767.24" y2="1189.05"/><polygon class="cls-8" points="507.67 664.77 592.81 684.82 617.05 679.55 562.36 661.37 519.44 661.37 507.67 664.77"/><path class="cls-9" d="M932.08,821.33c-70.48-67-168.72-22.17-129.65,40.17,46.62,74.39,199,148.24,272.67,180.7l7-8.1,26.86,15.1C1083.55,1011.5,992.25,878.54,932.08,821.33Z"/><path class="cls-6" d="M932.08,815c-70.48-67-126.3-88.31-158.64-127.62-20.57-25-33.32-77-97.67-85s-104.57,44-104.57,44l45.85,33.19-13.49,4.11c25.32,24.91,73.64,15.13,104.29,44.77,36.89,35.68,35.82,77.07,85.07,131.73C887,964.54,1115.79,1053,1115.79,1053S1002.56,882,932.08,815Z"/><path class="cls-10" d="M600.75,656.89S621,623.46,666.61,622s41.12,42,41.12,42Z"/><path class="cls-5" d="M742.44,971.24c41.95-96.76-5.67-152.57-5.67-152.57L674.22,930.24C690.6,944.91,714.47,958.63,742.44,971.24Z"/><path class="cls-11" d="M701.06,949.74c14.29-14.53,44.28-54.82,35.71-131.07L674.22,930.24A185,185,0,0,0,701.06,949.74Z"/><path class="cls-12" d="M706.11,647.82c2.57,7.93,2.65,15.79.42,24.49a31.26,31.26,0,0,1-38.67,21.49c-8.31-2.37-25.09-11.6-39.79-20.23s-27.32-16.68-27.32-16.68Z"/><circle class="cls-4" cx="651.6" cy="661.37" r="15.01"/><circle class="cls-13" cx="651.6" cy="661.37" r="10.61"/><circle cx="651.6" cy="661.37" r="7.01"/><path class="cls-6" d="M932.67,985.74a22.78,22.78,0,0,0-30.26,11.06c-2.22,4.77-5.32,15.14-7.34,26,12.77,3.4,25.32,6.59,37.45,9.55,5.28-6.46,9.49-12.62,11.21-16.32A22.78,22.78,0,0,0,932.67,985.74Z"/><path class="cls-4" d="M895.75,1052.51c-11.41-5.3-1-48.67,4.26-60.08a22.78,22.78,0,1,1,41.32,19.2C936,1023,907.16,1057.81,895.75,1052.51Z"/><path class="cls-14" d="M668.8,1189.05s29.91-10.76,43.1-9.31c3.13.34,17.36,5.76,17.36,5.76l1.51,3.55Z"/><path class="cls-15" d="M720.85,1182.43c-11.4,2.78-22.07,6.62-22.07,6.62h32l-1.51-3.55S725.14,1183.94,720.85,1182.43Z"/><path class="cls-14" d="M706.78,1190.39s29.91-10.76,43.1-9.31c3.13.35,17.36,5.77,17.36,5.77l1.51,3.54Z"/><path class="cls-12" d="M1068.81,984.85c-2.53-1.18-5.09-2.41-7.74-3.72-42.61-21-94.18-55.7-134.58-90.43-52.4-45.06-88.56-107.64-94.83-154.62l-3-2.09c1.58,14,5.86,29.54,12.85,46.19,17.1,40.75,47.43,81.77,83.23,112.55,40.56,34.87,92.34,69.67,135.14,90.81,3.9,1.92,7.93,3.83,12,5.68Z"/><path class="cls-12" d="M1038.83,943.38a638.75,638.75,0,0,1-93.21-66c-31.17-26.81-57.59-62.52-72.47-98a178.7,178.7,0,0,1-6.74-18.83l-3.49-2.53a174.49,174.49,0,0,0,7.76,22.39c15,35.84,41.72,71.92,73.2,99a639.37,639.37,0,0,0,98.86,69.28C1041.45,946.93,1040.14,945.16,1038.83,943.38Z"/><path class="cls-12" d="M1003,896.12c-14.38-10.19-28.36-21-41-31.86a254.38,254.38,0,0,1-59.71-75.78c-1.67-1.4-3.34-2.77-5-4.12,14.12,29.87,36.68,59.35,63,81.93a566.54,566.54,0,0,0,48.31,37Q1005.75,899.69,1003,896.12Z"/><path class="cls-5" d="M1249.27,1225.93s12.28,29.66,19.54,22.2a19.43,19.43,0,0,0-.38-27.49s-106.63-101.84-176.69-161.29c0,0,24.25,45.14,52.31,76.43,37.56,41.88,89.69,75.49,89.69,75.49C1234,1211.44,1249.27,1225.93,1249.27,1225.93Z"/><path class="cls-6" d="M1259.28,1253.49a19.41,19.41,0,0,0,9.15-32.85s-84.63-80.83-152.64-140.51h0S1217.7,1222.68,1259.28,1253.49Z"/><path class="cls-16" d="M617,679.56l-45.83,14s40.45,37.51,44.18,54.69c3,13.8,1.85,27.79,1.1,43.07a4.76,4.76,0,0,1,4.1,4.72c.19,6.79,2.29,13.29,2.6,20.07s.43,13.3,1.84,19.91c2.45,11.55,5.57,24.64,11.46,35a4.83,4.83,0,0,1-2.28,6.91c7.23,13.28,17.24,27.65,31,43.34,6.54,7.44,15.08,14.66,25.21,21.63A156,156,0,0,0,617,679.56Z"/><path class="cls-5" d="M571.2,646.36s-48.11,1.21-63.53,18.41c0,0,63.6.47,99.8,13.53l-81.94,8.42S559.35,694.43,573,695l49.29-14.21s-8.4-6.84-11.31-9C601,664.46,571.2,646.36,571.2,646.36Z"/><path class="cls-8" d="M567.05,650.59a2.89,2.89,0,0,1,0,5.77c-1.59,0-6.15-1.35-6.13-2.94S565.46,650.57,567.05,650.59Z"/><path class="cls-10" d="M673.76,853c10.26-1.6,26.35-7.39,24.29-24.71-1.26-10.64-10.43-19.31-26-18.26a0,0,0,0,1,0,0,24.26,24.26,0,0,0-37.56-13.62,26.32,26.32,0,0,0-18-5.63c-.06,1.14-.11,2.3-.16,3.45,0,.15,0,.29,0,.44q-.17,3.63-.24,7.35v0a176.94,176.94,0,0,0,.62,20v0c1.53,16.69,6.12,35.2,17.85,56.51a26.47,26.47,0,0,0,5.57-5.1A24.27,24.27,0,0,0,673.76,853Z"/><g class="cls-17"><path class="cls-18" d="M265.91,777.49c20.68,30.19,17.18,68.54-7.81,85.66s-62,6.51-82.69-23.68c-49.22-71.87-40.55-156.25-40.55-156.25S215,703.08,265.91,777.49Z"/><rect class="cls-19" x="202.36" y="661.92" width="3" height="244.79" transform="translate(-406.63 251.39) rotate(-34.31)"/><rect class="cls-19" x="164.31" y="739.27" width="3" height="47.79" transform="matrix(0.02, -1, 1, 0.02, -600.9, 911.74)"/><rect class="cls-19" x="157.26" y="728.3" width="3" height="47.79" transform="matrix(0.02, -1, 1, 0.02, -596.83, 893.96)"/><rect class="cls-19" x="166.92" y="736.68" width="53.54" height="3" transform="translate(-562.3 842.54) rotate(-83.16)"/><rect class="cls-19" x="152.57" y="794.81" width="59.48" height="3"/><rect class="cls-19" x="194.56" y="778.28" width="73.68" height="3" transform="translate(-575.1 885.41) rotate(-80.93)"/><rect class="cls-19" x="224.5" y="819.14" width="74.54" height="3" transform="translate(-596.61 892.51) rotate(-77.09)"/><rect class="cls-19" x="216.17" y="807.26" width="74.54" height="3" transform="translate(-591.5 875.17) rotate(-77.09)"/><rect class="cls-19" x="173.16" y="836.01" width="66.68" height="3" transform="translate(-12.11 3.08) rotate(-0.83)"/><rect class="cls-19" x="166.66" y="695.83" width="3" height="36.17"/></g><path class="cls-1" d="M265.91,777.49c20.68,30.19,17.18,68.54-7.81,85.66s-62,6.51-82.69-23.68c-49.22-71.87-40.55-156.25-40.55-156.25S215,703.08,265.91,777.49Z"/><g class="cls-20"><path class="cls-4" d="M205.34,288.15c-3.91-4.64-86,73.77-86,73.77a7.08,7.08,0,0,0-.13,10h0a7.07,7.07,0,0,0,10,.14S209.3,292.85,205.34,288.15Z"/><path class="cls-5" d="M126.32,363.85s-4.47,10.8-7.11,8.08a7.08,7.08,0,0,1,.13-10s38.84-37.09,64.36-58.75c0,0-8.83,16.45-19,27.84C151,346.27,132,358.51,132,358.51S126.32,363.85,126.32,363.85Z"/><path class="cls-6" d="M122.68,373.89a7.08,7.08,0,0,1-3.34-12s30.83-29.44,55.6-51.18h0S137.82,362.66,122.68,373.89Z"/><path class="cls-19" d="M279.33,77.57A162.13,162.13,0,0,1,379.78,367a4.3,4.3,0,0,0-3.81-.31c-8.34,2.86-16.94,5-25.21,8a72.12,72.12,0,0,0-10.23,4.49c-3.44,1.94-6.24,4.74-9.48,7-10.8,7.47-27.17,7.09-39.76,7.66-7.82.35-15.57.94-23.4.53-8.2-.44-16.34-1.47-24.52-2.08-7.19-.55-14-.55-20.87-3a71.5,71.5,0,0,1-15.37-8.23c-9.7-6.45-18.72-13.64-29.72-17.78a4.37,4.37,0,0,0-3.13-.1,162.12,162.12,0,0,1,105-285.61Z"/><path class="cls-21" d="M229.84,354.42s-1.55-147.21-12.11-187.34l8.19,187.34Z"/><path class="cls-21" d="M223.24,393S221.6,236.86,210.4,194.28L219.08,393Z"/><path class="cls-21" d="M402.3,431.77s-1.54-147.21-12.1-187.35l8.19,187.35Z"/><path class="cls-21" d="M156.31,443.2s-1.54-147.2-12.1-187.34L152.4,443.2Z"/><path class="cls-21" d="M211.34,348.41s-1.27-90.69-10-115.42l6.75,115.42Z"/><path class="cls-21" d="M191.09,356.83s1.54-172.11,12.1-219l-8.19,219Z"/><path class="cls-21" d="M157.13,397.78s1.55-172.1,12.11-219l-8.19,219Z"/><path class="cls-21" d="M381.38,427.24s1.14-126.63,8.91-161.16l-6,161.16Z"/><path class="cls-21" d="M303.89,456.17S305,329.54,312.8,295l-6,161.16Z"/><path class="cls-21" d="M341.92,482.42s1.14-126.64,8.91-161.17l-6,161.17Z"/><path class="cls-21" d="M259.14,367.56s-24-145.25-40.53-183.31l36.66,183.91Z"/><path class="cls-21" d="M314,398.11A162.41,162.41,0,0,1,172.45,361.6a94.16,94.16,0,0,1,57.39-19C269.49,342.64,303,366,314,398.11Z"/><path class="cls-4" d="M205.15,288.47c-3.91-4.64-86,73.77-86,73.77a7.08,7.08,0,0,0-.13,10h0a7.07,7.07,0,0,0,10,.14S209.11,293.17,205.15,288.47Z"/><line class="cls-22" x1="263.67" y1="293.14" x2="317.03" y2="350.53"/><path class="cls-6" d="M266.91,296.8c4.24-1.76,1.54-18-.22-22.19A8.3,8.3,0,0,0,251.36,281C253.12,285.2,262.68,298.55,266.91,296.8Z"/><path class="cls-4" d="M373.11,153.07s-14.65-19-38.09-16-28.08,21.87-35.57,31c-11.78,14.32-32.11,22.08-57.79,46.49s-66.91,86.69-66.91,86.69L187,294.3l8,9.19s117.31-20.05,143.87-50.31,14.66-47,18.15-63c1.36-6.26,16.09-19.92,16.09-19.92l-16.7-5.09Z"/><path class="cls-23" d="M279.33,401.83a161.88,161.88,0,0,1-49.49-7.7c16.21-29.26,55.19-48,98.9-44.33a121.71,121.71,0,0,1,52.13,16.3A161.46,161.46,0,0,1,279.33,401.83Z"/><polygon class="cls-8" points="396.25 159.78 365.24 167.08 356.41 165.16 376.33 158.54 391.96 158.54 396.25 159.78"/><path class="cls-9" d="M241.66,216.8c25.68-24.41,61.46-8.07,47.23,14.63-17,27.1-72.47,54-99.32,65.82L187,294.3l-9.78,5.5C186.49,286.07,219.75,237.64,241.66,216.8Z"/><path class="cls-6" d="M241.66,214.5c25.68-24.41,46-32.17,57.79-46.49,7.49-9.1,12.14-28,35.57-31s38.09,16,38.09,16l-16.7,12.09,4.91,1.5c-9.22,9.07-26.82,5.51-38,16.3-13.44,13-13,28.07-31,48-34.25,38-117.6,70.25-117.6,70.25S216,238.91,241.66,214.5Z"/><path class="cls-10" d="M362.35,156.91a29.8,29.8,0,0,0-24-12.7c-16.6-.52-15,15.3-15,15.3Z"/><path class="cls-5" d="M310.74,271.4c-15.28-35.24,2.06-55.57,2.06-55.57l22.79,40.64C329.62,261.81,320.93,266.81,310.74,271.4Z"/><path class="cls-11" d="M325.81,263.57c-5.21-5.29-16.13-20-13-47.74l22.79,40.64A67.56,67.56,0,0,1,325.81,263.57Z"/><path class="cls-12" d="M324,153.6a15.53,15.53,0,0,0-.15,8.92,11.4,11.4,0,0,0,14.08,7.83c3-.86,9.14-4.23,14.5-7.37s10-6.07,10-6.07Z"/><circle class="cls-4" cx="343.82" cy="158.54" r="5.47"/><circle class="cls-13" cx="343.82" cy="158.54" r="3.87"/><path class="cls-16" d="M312.61,220.47a56.83,56.83,0,0,1,43.81-55.31l16.69,5.09S358.38,183.91,357,190.17c-3.49,16,8.41,32.76-18.15,63a50,50,0,0,1-9.18,7.88A56.59,56.59,0,0,1,312.61,220.47Z"/><circle cx="343.82" cy="158.54" r="2.55"/><path class="cls-5" d="M373.11,153.07s17.52.44,23.14,6.71c0,0-23.17.17-36.35,4.92l29.85,3.07s-12.32,2.81-17.29,3l-17.95-5.18s3.05-2.49,4.11-3.27C362.26,159.66,373.11,153.07,373.11,153.07Z"/><path class="cls-10" d="M326.81,217.82a2.05,2.05,0,0,1,.07-.34c1-3.77,5.12-6,9.22-4.87l.28.09v0a8.84,8.84,0,0,1,13.68-5,9.65,9.65,0,0,1,6.55-2.05c.37,7.44.5,15.71-3.6,25.76C340.67,231.38,325.65,226.77,326.81,217.82Z"/><path class="cls-6" d="M241.45,276.68a8.3,8.3,0,0,1,11,4,47.21,47.21,0,0,1,2.68,9.46c-4.65,1.24-9.23,2.4-13.65,3.48a34,34,0,0,1-4.08-5.95A8.3,8.3,0,0,1,241.45,276.68Z"/><path class="cls-14" d="M337.56,350.74s-10.9-3.92-15.7-3.4a61.66,61.66,0,0,0-6.32,2.1l-.55,1.3Z"/><path class="cls-15" d="M318.6,348.32c4.16,1,8,2.42,8,2.42H315l.55-1.3S317,348.87,318.6,348.32Z"/><path class="cls-14" d="M323.73,351.22s-10.9-3.92-15.7-3.39a61.66,61.66,0,0,0-6.32,2.1l-.56,1.29Z"/><path class="cls-8" d="M374.62,154.61a1.05,1.05,0,0,0,0,2.1c.58,0,2.24-.49,2.23-1.07S375.2,154.6,374.62,154.61Z"/><path class="cls-12" d="M191.86,276.36q1.38-.64,2.82-1.35c15.52-7.67,34.31-20.29,49-32.94,19.09-16.42,32.26-39.21,34.54-56.32l1.09-.76a61.83,61.83,0,0,1-4.68,16.82c-6.22,14.84-17.27,29.78-30.31,41-14.77,12.7-33.63,25.37-49.22,33.07-1.42.7-2.89,1.4-4.38,2.07Z"/><path class="cls-12" d="M202.78,261.25a232.1,232.1,0,0,0,33.95-24c11.36-9.77,21-22.77,26.4-35.69a63.37,63.37,0,0,0,2.45-6.86l1.28-.92a63.62,63.62,0,0,1-2.83,8.16C258.55,215,248.84,228.1,237.37,238a233.11,233.11,0,0,1-36,25.23Z"/><path class="cls-12" d="M215.85,244c5.24-3.71,10.33-7.65,14.93-11.6a92.73,92.73,0,0,0,21.74-27.61l1.82-1.5a93,93,0,0,1-22.93,29.85,207.72,207.72,0,0,1-17.59,13.47C214.49,245.77,215.17,244.9,215.85,244Z"/><path class="cls-5" d="M126.13,364.17s-4.47,10.8-7.11,8.08a7.08,7.08,0,0,1,.13-10s38.84-37.09,64.36-58.75c0,0-8.83,16.45-19,27.84-13.68,15.26-32.67,27.5-32.67,27.5S126.13,364.17,126.13,364.17Z"/><path class="cls-6" d="M122.49,374.21a7.08,7.08,0,0,1-3.34-12s30.83-29.44,55.6-51.18h0S137.63,363,122.49,374.21Z"/><line class="cls-22" x1="247.91" y1="292.98" x2="301.71" y2="350.74"/><path class="cls-4" d="M254.9,301c4.15-1.93.38-17.73-1.55-21.88a8.3,8.3,0,1,0-15,7C240.23,290.27,250.74,302.94,254.9,301Z"/></g><circle class="cls-10" cx="658.62" cy="656.36" r="3.33"/><g class="cls-24"><path class="cls-18" d="M1115.4,103.62c31.66-18.34,69.64-12,84.82,14.25s1.82,62.33-29.85,80.67C1095,242.2,1011.5,227.17,1011.5,227.17S1037.35,148.82,1115.4,103.62Z"/><rect class="cls-19" x="995.12" y="164.51" width="244.79" height="3" transform="translate(66.57 580.63) rotate(-29.98)"/><rect class="cls-19" x="1069.66" y="200.85" width="47.79" height="3" transform="translate(785.05 1270.82) rotate(-84.38)"/><rect class="cls-19" x="1058.19" y="207.05" width="47.79" height="3" transform="translate(768.52 1265) rotate(-84.38)"/><rect class="cls-19" x="1069.24" y="145.89" width="3" height="53.54" transform="translate(693.86 1189.65) rotate(-78.83)"/><rect class="cls-19" x="1098.11" y="186.9" width="59.48" height="3" transform="translate(854.81 1298.8) rotate(-85.67)"/><rect class="cls-19" x="1113.58" y="101.36" width="3" height="73.68" transform="translate(722.26 1190.91) rotate(-76.6)"/><rect class="cls-19" x="1156.61" y="73.74" width="3" height="74.54" transform="translate(708.93 1184.22) rotate(-72.76)"/><rect class="cls-19" x="1144.14" y="81.15" width="3" height="74.54" transform="translate(693.07 1177.52) rotate(-72.76)"/><rect class="cls-19" x="1137.43" y="165.89" width="66.68" height="3" transform="translate(932.19 1325.75) rotate(-86.5)"/><rect class="cls-19" x="1043.13" y="178.2" width="3" height="36.17" transform="translate(770.01 1223.11) rotate(-85.67)"/></g><path class="cls-1" d="M1115.4,103.62c31.66-18.34,69.64-12,84.82,14.25s1.82,62.33-29.85,80.67C1095,242.2,1011.5,227.17,1011.5,227.17S1037.35,148.82,1115.4,103.62Z"/><path class="cls-25" d="M1014.26,491.22c0,46.37-49.41,84-110.36,84A138.06,138.06,0,0,1,851.22,565c-4.72-2-51.56,41.75-51.56,41.75s26.74-55.52,21.86-59.69c-17.4-14.84-28-34.41-28-55.86,0-46.38,49.4-84,110.35-84S1014.26,444.84,1014.26,491.22Z"/><text class="cls-26" transform="translate(854.45 509.4)">SINIRI<tspan class="cls-27" x="75.78" y="0">T</tspan><tspan x="86.33" y="0">A</tspan></text><line class="cls-3" x1="979.87" y1="1164.23" x2="1042.59" y2="1193.75"/><line class="cls-3" x1="571.05" y1="1168.23" x2="615.89" y2="1190.47"/></svg>