<?xml version="1.0" encoding="utf-8"?>
<!-- Generator: Adobe Illustrator 23.0.1, SVG Export Plug-In . SVG Version: 6.00 Build 0)  -->
<svg version="1.1" id="Layer_1" xmlns="http://www.w3.org/2000/svg" xmlns:xlink="http://www.w3.org/1999/xlink" x="0px" y="0px"
	 viewBox="0 0 1296 1692.6" style="enable-background:new 0 0 1296 1692.6;" xml:space="preserve">
<style type="text/css">
	.st0{clip-path:url(#SVGID_2_);}
	.st1{fill:none;stroke:#000000;stroke-width:3.56;stroke-miterlimit:10;}
	.st2{fill:#61698E;}
	.st3{fill:none;stroke:#61698E;stroke-width:3.56;stroke-miterlimit:10;}
	.st4{clip-path:url(#SVGID_4_);}
	.st5{fill:none;stroke:#000000;stroke-width:2.86;stroke-miterlimit:10;}
	.st6{fill:none;stroke:#61698E;stroke-width:2.86;stroke-miterlimit:10;}
	.st7{fill:#F7931E;}
	.st8{clip-path:url(#SVGID_6_);}
	.st9{fill:none;stroke:#000000;stroke-width:3.12;stroke-miterlimit:10;}
	.st10{fill:none;stroke:#61698E;stroke-width:3.12;stroke-miterlimit:10;}
	.st11{clip-path:url(#SVGID_8_);}
	.st12{clip-path:url(#SVGID_10_);}
	.st13{clip-path:url(#SVGID_12_);}
	.st14{fill:#D17213;}
	.st15{fill:#F15A24;}
	.st16{fill:#8C6239;}
	.st17{fill:#E0CFBD;}
	.st18{fill:#FFDEDE;}
	.st19{fill:#471010;}
	.st20{fill:#C7B299;}
	.st21{fill:#FFFED2;}
	.st22{opacity:0.5;fill:#9E714C;enable-background:new    ;}
	.st23{fill:#0A7C43;}
	.st24{fill:#FFFFFF;}
	.st25{fill:#CE6F11;}
	.st26{opacity:0.2;fill:#383838;enable-background:new    ;}
	.st27{opacity:0.5;fill:#663E1D;enable-background:new    ;}
	.st28{fill:#9E714C;}
	.st29{clip-path:url(#SVGID_14_);}
	.st30{fill:#628464;}
	.st31{fill:#1A422E;}
	.st32{fill:#F3FFF3;}
	.st33{font-family:'Amatic-Bold';}
	.st34{font-size:50px;}
	.st35{clip-path:url(#SVGID_16_);}
	.st36{fill:none;stroke:#000000;stroke-width:2.53;stroke-miterlimit:10;}
	.st37{fill:none;stroke:#61698E;stroke-width:2.53;stroke-miterlimit:10;}
</style>
<title>birds</title>
<g>
	<defs>
		<path id="SVGID_1_" d="M893.9,1455.2c38.7-19.7,83.3-9.7,99.6,22.4s-1.9,74-40.6,93.7c-92.2,46.9-190.2,23.6-190.2,23.6
			S798.5,1503.7,893.9,1455.2z"/>
	</defs>
	<clipPath id="SVGID_2_">
		<use xlink:href="#SVGID_1_"  style="overflow:visible;"/>
	</clipPath>
	<g class="st0">
		<path class="st1" d="M893.9,1455.2c38.7-19.7,83.3-9.7,99.6,22.4s-1.9,74-40.6,93.7c-92.2,46.9-190.2,23.6-190.2,23.6
			S798.5,1503.7,893.9,1455.2z"/>
		
			<rect x="747" y="1527.5" transform="matrix(0.8923 -0.4515 0.4515 0.8923 -594.3443 567.6554)" class="st2" width="290.7" height="3.6"/>
		
			<rect x="833.8" y="1567.9" transform="matrix(0.1498 -0.9887 0.9887 0.1498 -818.921 2187.0933)" class="st2" width="56.8" height="3.6"/>
		<polygon class="st2" points="842.8,1600.4 850.2,1549.9 853.7,1550.2 846.4,1600.8 		"/>
		
			<rect x="834.7" y="1502.3" transform="matrix(0.2472 -0.969 0.969 0.2472 -856.7014 1965.4091)" class="st2" width="3.6" height="63.6"/>
		
			<rect x="865.6" y="1556.1" transform="matrix(0.1302 -0.9915 0.9915 0.1302 -761.0497 2248.1921)" class="st2" width="70.5" height="3.6"/>
		
			<rect x="889.6" y="1452.5" transform="matrix(0.2847 -0.9586 0.9586 0.2847 -796.7371 1924.7385)" class="st2" width="3.6" height="87.5"/>
		
			<rect x="942.3" y="1422.3" transform="matrix(0.3481 -0.9375 0.9375 0.3481 -759.3782 1841.099)" class="st2" width="3.6" height="88.5"/>
		
			<rect x="927" y="1430.3" transform="matrix(0.3481 -0.9375 0.9375 0.3481 -776.8035 1831.9869)" class="st2" width="3.6" height="88.5"/>
		
			<rect x="915.9" y="1532.6" transform="matrix(0.1156 -0.9933 0.9933 0.1156 -679.1228 2305.979)" class="st2" width="79.2" height="3.6"/>
		
			<rect x="802.2" y="1539" transform="matrix(0.13 -0.9915 0.9915 0.13 -847.7157 2154.7554)" class="st2" width="3.6" height="42.9"/>
	</g>
</g>
<path class="st3" d="M893.9,1455.2c38.7-19.7,83.3-9.7,99.6,22.4s-1.9,74-40.6,93.7c-92.2,46.9-190.2,23.6-190.2,23.6
	S798.5,1503.7,893.9,1455.2z"/>
<g>
	<defs>
		<path id="SVGID_3_" d="M1123.9,1540.3c34.7,3.7,60.4,29.9,57.3,58.7s-33.7,49-68.3,45.4c-82.6-8.8-138.5-67.3-138.5-67.3
			S1038.3,1531.3,1123.9,1540.3z"/>
	</defs>
	<clipPath id="SVGID_4_">
		<use xlink:href="#SVGID_3_"  style="overflow:visible;"/>
	</clipPath>
	<g class="st4">
		<path class="st5" d="M1123.9,1540.3c34.7,3.7,60.4,29.9,57.3,58.7s-33.7,49-68.3,45.4c-82.6-8.8-138.5-67.3-138.5-67.3
			S1038.3,1531.3,1123.9,1540.3z"/>
		
			<rect x="1089" y="1472.8" transform="matrix(0.107 -0.9943 0.9943 0.107 -606.6301 2503.677)" class="st2" width="2.9" height="233.5"/>
		
			<rect x="1028.8" y="1602.6" transform="matrix(0.6658 -0.7462 0.7462 0.6658 -845.3647 1320.7812)" class="st2" width="45.6" height="2.9"/>
		
			<rect x="1016.5" y="1600.9" transform="matrix(0.6658 -0.7462 0.7462 0.6658 -848.2371 1311.0261)" class="st2" width="45.6" height="2.9"/>
		
			<rect x="1049.2" y="1543" transform="matrix(0.7349 -0.6782 0.6782 0.7349 -785.2266 1128.2955)" class="st2" width="2.9" height="51.1"/>
		
			<rect x="1057.5" y="1611.1" transform="matrix(0.6488 -0.761 0.761 0.6488 -845.7516 1392.6342)" class="st2" width="56.7" height="2.9"/>
		
			<rect x="1102.8" y="1531.7" transform="matrix(0.7606 -0.6492 0.6492 0.7606 -752.8332 1091.8646)" class="st2" width="2.9" height="70.3"/>
		
			<rect x="1151.2" y="1534.6" transform="matrix(0.8024 -0.5968 0.5968 0.8024 -709.2572 998.1152)" class="st2" width="2.9" height="71.1"/>
		
			<rect x="1137.4" y="1533.2" transform="matrix(0.8024 -0.5968 0.5968 0.8024 -711.2016 989.6279)" class="st2" width="2.9" height="71.1"/>
		
			<rect x="1098.9" y="1619.1" transform="matrix(0.6377 -0.7703 0.7703 0.6377 -838.5934 1458.0831)" class="st2" width="63.6" height="2.9"/>
		
			<rect x="1015.8" y="1554.6" transform="matrix(0.6488 -0.761 0.761 0.6488 -838.8533 1326.173)" class="st2" width="2.9" height="34.5"/>
	</g>
</g>
<path class="st6" d="M1123.9,1540.3c34.7,3.7,60.4,29.9,57.3,58.7s-33.7,49-68.3,45.4c-82.6-8.8-138.5-67.3-138.5-67.3
	S1038.3,1531.3,1123.9,1540.3z"/>
<path class="st7" d="M867.8,1261.1L838,1128.7l-10.3,2.3l29.3,130.3L805.4,1546c-9.4-3-34.4-10.8-40.8-11.2
	c-33.4-2-107.2,28.8-107.2,28.8l156.8-7.2l0,0L867.8,1261.1z"/>
<g>
	<defs>
		<path id="SVGID_5_" d="M251.6,1037.8c27.8-25.9,67.8-28.2,89.2-5.2c21.4,23,16.2,62.7-11.6,88.6c-66.3,61.6-154.4,65.7-154.4,65.7
			S183,1101.6,251.6,1037.8z"/>
	</defs>
	<clipPath id="SVGID_6_">
		<use xlink:href="#SVGID_5_"  style="overflow:visible;"/>
	</clipPath>
	<g class="st8">
		<path class="st9" d="M251.6,1037.8c27.8-25.9,67.8-28.2,89.2-5.2c21.4,23,16.2,62.7-11.6,88.6c-66.3,61.6-154.4,65.7-154.4,65.7
			S183,1101.6,251.6,1037.8z"/>
		
			<rect x="141" y="1099" transform="matrix(0.7335 -0.6797 0.6797 0.7335 -676.5702 475.5581)" class="st2" width="254.4" height="3.1"/>
		
			<rect x="255.2" y="1114.6" transform="matrix(0.9915 -0.1302 0.1302 0.9915 -146.1595 43.1204)" class="st2" width="3.1" height="49.6"/>
		
			<rect x="245" y="1123.6" transform="matrix(0.9915 -0.1302 0.1302 0.9915 -147.4129 41.8784)" class="st2" width="3.1" height="49.6"/>
		
			<rect x="194.5" y="1116.5" transform="matrix(0.9996 -2.914287e-02 2.914287e-02 0.9996 -32.4883 6.9546)" class="st2" width="55.6" height="3.1"/>
		
			<rect x="284.8" y="1088.4" transform="matrix(0.9887 -0.1498 0.1498 0.9887 -164.4566 55.5256)" class="st2" width="3.1" height="61.9"/>
		
			<rect x="257.7" y="1034.7" transform="matrix(9.773646e-03 -1 1 9.773646e-03 -816.1587 1321.762)" class="st2" width="3.1" height="76.6"/>
		
			<rect x="295" y="996.6" transform="matrix(7.654500e-02 -0.9971 0.9971 7.654500e-02 -758.4139 1251.7806)" class="st2" width="3.1" height="77.5"/>
		
			<rect x="284.1" y="1007" transform="matrix(7.654500e-02 -0.9971 0.9971 7.654500e-02 -778.8581 1250.4932)" class="st2" width="3.1" height="77.5"/>
		
			<rect x="320.9" y="1055" transform="matrix(0.9867 -0.1623 0.1623 0.9867 -172.5614 66.7718)" class="st2" width="3.1" height="69.3"/>
		
			<rect x="182.5" y="1146.5" transform="matrix(0.989 -0.148 0.148 0.989 -167.67 42.4274)" class="st2" width="37.6" height="3.1"/>
	</g>
</g>
<path class="st10" d="M251.6,1037.8c27.8-25.9,67.8-28.2,89.2-5.2c21.4,23,16.2,62.7-11.6,88.6c-66.3,61.6-154.4,65.7-154.4,65.7
	S183,1101.6,251.6,1037.8z"/>
<g>
	<defs>
		<path id="SVGID_7_" d="M225.2,1584.5c-42.2-10.2-69.7-46.7-61.3-81.7s49.5-55.1,91.7-44.9c100.6,24.2,160.1,105.4,160.1,105.4
			S329.3,1609.6,225.2,1584.5z"/>
	</defs>
	<clipPath id="SVGID_8_">
		<use xlink:href="#SVGID_7_"  style="overflow:visible;"/>
	</clipPath>
	<g class="st11">
		<path class="st1" d="M225.2,1584.5c-42.2-10.2-69.7-46.7-61.3-81.7s49.5-55.1,91.7-44.9c100.6,24.2,160.1,105.4,160.1,105.4
			S329.3,1609.6,225.2,1584.5z"/>
		
			<rect x="272.6" y="1383.9" transform="matrix(0.2353 -0.9719 0.9719 0.2353 -1276.4304 1436.0939)" class="st2" width="3.6" height="290.7"/>
		
			<rect x="296.4" y="1515.7" transform="matrix(0.7571 -0.6533 0.6533 0.7571 -912.4905 580.761)" class="st2" width="56.8" height="3.6"/>
		<polygon class="st2" points="317.1,1539 356.3,1505 358.4,1507.5 319.2,1541.4 		"/>
		
			<rect x="318.3" y="1529.9" transform="matrix(0.8167 -0.577 0.577 0.8167 -842.4383 470.8948)" class="st2" width="3.6" height="63.6"/>
		
			<rect x="248.5" y="1499.7" transform="matrix(0.7422 -0.6702 0.6702 0.7422 -933.0599 577.2806)" class="st2" width="70.6" height="3.6"/>
		
			<rect x="252.1" y="1511.2" transform="matrix(0.8385 -0.5449 0.5449 0.8385 -806.3513 389.4902)" class="st2" width="3.6" height="87.5"/>
		
			<rect x="192.8" y="1498.9" transform="matrix(0.8731 -0.4876 0.4876 0.8731 -727.6899 290.6944)" class="st2" width="3.6" height="88.5"/>
		
			<rect x="219" y="1505.1" transform="matrix(0.8713 -0.4907 0.4907 0.8713 -731.8936 307.7076)" class="st2" width="3.6" height="88.4"/>
		
			<rect x="190.1" y="1482.6" transform="matrix(0.7324 -0.6808 0.6808 0.7324 -949.1795 553.597)" class="st2" width="79.2" height="3.6"/>
		
			<rect x="360.1" y="1541.3" transform="matrix(0.7422 -0.6702 0.6702 0.7422 -954.0555 645.3956)" class="st2" width="3.6" height="42.9"/>
	</g>
</g>
<path class="st3" d="M225.2,1584.5c-42.2-10.2-69.7-46.7-61.3-81.7s49.5-55.1,91.7-44.9c100.6,24.2,160.1,105.4,160.1,105.4
	S329.3,1609.6,225.2,1584.5z"/>
<path class="st2" d="M162.6,1634.6c-29.6-7.1-48.8-32.7-42.9-57.2s34.6-38.5,64.2-31.4c70.4,16.9,112,73.8,112,73.8
	S235.5,1652.1,162.6,1634.6z"/>
<g>
	<defs>
		<path id="SVGID_9_" d="M162.6,1634.6c-29.6-7.1-48.8-32.7-42.9-57.2s34.6-38.5,64.2-31.4c70.4,16.9,112,73.8,112,73.8
			S235.5,1652.1,162.6,1634.6z"/>
	</defs>
	<clipPath id="SVGID_10_">
		<use xlink:href="#SVGID_9_"  style="overflow:visible;"/>
	</clipPath>
	<g class="st12">
		<path class="st2" d="M162.6,1634.6c-29.6-7.1-48.8-32.7-42.9-57.2s34.6-38.5,64.2-31.4c70.4,16.9,112,73.8,112,73.8
			S235.5,1652.1,162.6,1634.6z"/>
		
			<rect x="195.8" y="1494.3" transform="matrix(0.2353 -0.9719 0.9719 0.2353 -1400.4034 1411.9178)" class="st2" width="2.5" height="203.3"/>
		
			<rect x="212.4" y="1586.5" transform="matrix(0.7571 -0.6533 0.6533 0.7571 -980.8055 537.3925)" class="st2" width="39.7" height="2.5"/>
		
			<rect x="222.9" y="1589.3" transform="matrix(0.7571 -0.6533 0.6533 0.7571 -980.116 544.9054)" class="st2" width="39.7" height="2.5"/>
		
			<rect x="233.4" y="1600.9" transform="matrix(0.8164 -0.5775 0.5775 0.8164 -894.2591 433.4869)" class="st2" width="2.5" height="44.7"/>
		
			<rect x="179" y="1575.2" transform="matrix(0.7422 -0.6702 0.6702 0.7422 -1004.0046 542.8848)" class="st2" width="49.4" height="2.5"/>
		
			<rect x="181.5" y="1583.3" transform="matrix(0.8385 -0.5449 0.5449 0.8385 -849.9384 360.2455)" class="st2" width="2.5" height="61.2"/>
		
			<rect x="140" y="1574.7" transform="matrix(0.8731 -0.4876 0.4876 0.8731 -764.9073 272.619)" class="st2" width="2.5" height="61.9"/>
		
			<rect x="151.7" y="1577.3" transform="matrix(0.8731 -0.4876 0.4876 0.8731 -764.7227 278.6881)" class="st2" width="2.5" height="61.9"/>
		
			<rect x="138.1" y="1563.3" transform="matrix(0.7324 -0.6808 0.6808 0.7324 -1020.8521 531.5124)" class="st2" width="55.4" height="2.5"/>
		
			<rect x="257" y="1604.4" transform="matrix(0.7422 -0.6702 0.6702 0.7422 -1018.6992 590.5328)" class="st2" width="2.5" height="30.1"/>
	</g>
</g>
<path class="st2" d="M1051,1523.9c-27.5-6.6-45.4-30.4-39.9-53.2s32.2-35.9,59.8-29.3c65.5,15.7,104.3,68.7,104.3,68.7
	S1118.8,1540.2,1051,1523.9z"/>
<g>
	<defs>
		<path id="SVGID_11_" d="M1051,1523.9c-27.5-6.6-45.4-30.4-39.9-53.2s32.2-35.9,59.8-29.3c65.5,15.7,104.3,68.7,104.3,68.7
			S1118.8,1540.2,1051,1523.9z"/>
	</defs>
	<clipPath id="SVGID_12_">
		<use xlink:href="#SVGID_11_"  style="overflow:visible;"/>
	</clipPath>
	<g class="st13">
		<path class="st2" d="M1051,1523.9c-27.5-6.6-45.4-30.4-39.9-53.2s32.2-35.9,59.8-29.3c65.5,15.7,104.3,68.7,104.3,68.7
			S1118.8,1540.2,1051,1523.9z"/>
		
			<rect x="1082" y="1393.2" transform="matrix(0.2353 -0.9719 0.9719 0.2353 -617.8444 2190.502)" class="st2" width="2.3" height="189.4"/>
		
			<rect x="1097.4" y="1479.1" transform="matrix(0.7571 -0.6533 0.6533 0.7571 -695.9782 1088.5449)" class="st2" width="37" height="2.3"/>
		
			<rect x="1107.2" y="1481.7" transform="matrix(0.7571 -0.6533 0.6533 0.7571 -695.3411 1095.5497)" class="st2" width="37" height="2.3"/>
		
			<rect x="1111.7" y="1488.3" transform="matrix(0.8167 -0.577 0.577 0.8167 -666.7538 918.6634)" class="st2" width="2.3" height="41.4"/>
		
			<rect x="1066.2" y="1468.6" transform="matrix(0.7422 -0.6702 0.6702 0.7422 -704.2131 1108.8809)" class="st2" width="46" height="2.3"/>
		
			<rect x="1068.5" y="1476" transform="matrix(0.8385 -0.5449 0.5449 0.8385 -647.1004 825.9204)" class="st2" width="2.3" height="57"/>
		
			<rect x="1029.9" y="1468" transform="matrix(0.8731 -0.4876 0.4876 0.8731 -598.9642 692.6617)" class="st2" width="2.3" height="57.7"/>
		
			<rect x="1040.8" y="1470.6" transform="matrix(0.8731 -0.4876 0.4876 0.8731 -598.7989 698.3142)" class="st2" width="2.3" height="57.7"/>
		
			<rect x="1028.2" y="1457.5" transform="matrix(0.7324 -0.6808 0.6808 0.7324 -711.1187 1107.9083)" class="st2" width="51.6" height="2.3"/>
		
			<rect x="1138.9" y="1495.8" transform="matrix(0.7422 -0.6702 0.6702 0.7422 -717.9076 1153.2567)" class="st2" width="2.3" height="28"/>
	</g>
</g>
<path class="st7" d="M763.9,1105l-10.2,2.4l30.7,129.9l-96.1,285.6c-8.4-2.8-33.7-11.1-40-11.5c-32.1-2.1-103.2,28.6-103.2,28.6
	l150.7-6.6l0,0l99-294.2l0.5-1.4L763.9,1105z"/>
<path class="st14" d="M757,1116.4l-0.2,4l4.5,18.9c3.5,1.2,7.3,1.1,10.8-0.2l-4.6-19.6L757,1116.4z"/>
<path class="st15" d="M695.8,1533.5l3.1-9.3c-4.7-1.7-10,0.7-11.7,5.4c-0.4,1-0.6,2.1-0.6,3.2c0,0.4,0,0.7,0.1,1.1L695.8,1533.5
	L695.8,1533.5z"/>
<path class="st16" d="M1062.1,965.6c-88.6-29.3-156.1-63.4-212.6-89.3c-191.3-87.8-208.8-162.8-225.2-243S586,521.5,543.7,521.5
	c-41,0-63.8,40.7-69.2,73.2c-2.1,12.6-14.1,20.9-9.2,30.2c4.2,7.8,6.7,14.2,6.7,14.2c5.8-3.9,12.7-6.1,19.7-6.3
	c-0.5-4.1,1.9-8.6,7.2-8.6c3-0.1,5.8,1.8,6.8,4.6c2.6-1,5.5-0.4,7.5,1.5c25,22.1,42.5,50.8,48.1,83.9c9.9,57.8-9.7,116-22,171.9
	c-6.2,28.4-10.6,56.8-9.8,85.9c0.1,2.3,0.2,4.7,0.3,7c15.8,19.5,31,41,33.4,66.7l0,0c1.5,1.9,3.1,3.8,4.7,5.7c1.6,0.2,3,0.8,4.2,1.8
	c18.7,15,45.3,23.1,57.8,44.8l4.1,1.5c23.7,8.4,48.5,13.2,73.2,17.3c21,3.5,42.1,7.2,63.3,9.2c14.7,1.4,29.4,2.2,44.1,2.4
	c16.2-1.6,31.9-3.9,47-6.8c0.4-0.4,0.9-0.7,1.3-1c32-18.5,69.3-22.1,104.1-32.8c7.4-2.3,14.7-5,21.8-8c0.2-1.6,0.8-3.1,1.8-4.3
	c9.3-11,24.7-16.4,38.1-20.4c9.5-2.9,19.2-5.1,29.1-6.4c17.1-6.5,34.5-11.8,52.7-13.3c0.9-1.8,2.5-3.1,4.5-3.5
	c4.6-0.8,9.3-0.7,13.2-1.8c0.7-0.2,1.5-0.3,2.2-0.3l5.2-1.9C1135.8,1027.9,1143.4,992.5,1062.1,965.6z"/>
<path class="st17" d="M1135.8,1028v-0.1l0,0c0-0.1,0-0.2,0.1-0.3l0,0c0-0.2,0-0.3,0.1-0.6l0,0c0.2-2.9,0.1-11.8-8.6-22.9l0,0
	c-162.6-23.2-477.7-9.5-519.5-192.8c-32.3-141.5-12.4-216.6-67.5-243c-35.5-17-66.2,28-66.2,28v0.1c-2.7,11.8-13.6,19.8-8.9,28.7
	c4.2,7.8,6.7,14.2,6.7,14.2l0,0c7.7-5.2,17-7.3,26.2-5.9c0.7,0.1,1.4,0.2,2.1,0.4c6.8,1.5,13.2,4.6,18.6,9c0.8,0.6,1.7,1.3,2.5,2
	c5.1,4.4,9.7,9.4,13.8,14.8c1.6,2.2,3.1,4.4,4.5,6.7c2.9,4.7,5.4,9.7,7.5,14.8c6.4,15.7,9.4,34.2,9.2,55.3
	c-0.4,17.6-2.5,35.1-6.3,52.3c-0.9,4.5-2.2,9.6-3.7,15.2c-0.2,0.6-0.3,1.2-0.5,1.9c-1.3,5.1-2.8,10.5-4.4,16.3
	c-1.3,5.1-2.8,10.4-4.1,15.9c-0.4,1.6-0.8,3.2-1.2,4.8c-0.2,0.8-0.4,1.6-0.6,2.4c-0.4,1.6-0.8,3.3-1.2,5c-0.4,1.7-0.8,3.3-1.2,5
	s-0.8,3.4-1.1,5.1c-0.2,0.9-0.4,1.7-0.5,2.6c-0.4,1.7-0.7,3.5-1.1,5.3c-4.8,24.8-8,52.1-6.1,79.6c0.3,3.9,0.7,7.9,1.2,11.8
	c0.9,6.9,2.1,13.8,3.8,20.6c0.5,2,1,3.9,1.5,5.8c0.3,1,0.5,1.9,0.8,2.9c0.9,2.9,1.8,5.8,2.8,8.7c0.7,1.9,1.4,3.8,2.2,5.7
	c3.1,7.8,6.7,15.3,11,22.5c1.1,1.8,2.2,3.7,3.4,5.5c1.8,2.7,3.6,5.4,5.6,8.1c0.7,0.9,1.3,1.8,2,2.7c1.3,1.8,2.7,3.5,4.2,5.3
	c2.2,2.6,4.5,5.2,6.9,7.8c1.6,1.7,3.3,3.4,5,5.1s3.5,3.3,5.3,4.9c3.6,3.3,7.5,6.5,11.5,9.6c6.4,4.9,13,9.4,19.9,13.6
	c2.4,1.4,4.8,2.9,7.3,4.3c12.1,6.7,24.7,12.6,37.7,17.6c9.7,3.8,19.6,7,29.7,9.6c12.4,3.3,25,5.7,37.7,7.4c2.5,0.3,5,0.7,7.6,0.9
	c5,0.6,10.1,1,15.1,1.4c2.5,0.2,5,0.3,7.5,0.4c7.5,0.4,15,0.5,22.5,0.4c5,0,9.9-0.2,14.8-0.4c16.8-0.8,33.6-2.4,50.3-5
	c4.6-0.7,9.2-1.5,13.7-2.3c15.8-2.8,30.9-6.3,45-10c4-1.1,7.9-2.1,11.8-3.2c3.9-1.1,7.6-2.2,11.3-3.3c5.5-1.7,10.8-3.3,15.8-5
	c3.3-1.1,6.6-2.2,9.7-3.3c1.6-0.6,3.1-1.1,4.6-1.6c3-1.1,5.9-2.1,8.7-3.2c25-9.4,40-16.9,40-16.9L1135.8,1028z"/>
<circle class="st18" cx="541.1" cy="611.8" r="24"/>
<path class="st19" d="M559.1,557.8c6.5,8.3,3.4,22-4.9,28.5s-43.8,21.6-50.3,13.3s18.3-36.9,26.6-43.5S552.6,549.5,559.1,557.8z"/>
<path class="st20" d="M556.6,561.2c0,0,2.9,15.9-7,22.5c-8.7,5.8-22.7,0.2-22.7,0.2s-4.4-18,6-24.3
	C543.8,553,556.6,561.2,556.6,561.2z"/>
<path class="st21" d="M607.9,811.2c-0.1-0.5-0.2-1-0.3-1.5c-19.6,31.3-27.7,83.5-21.6,122.5c14.4,93,99.8,108.9,146.7,108.9
	c41.2,0,27.7-48,23.9-91.4C682.2,924.3,624.2,882.8,607.9,811.2z"/>
<path class="st22" d="M1135.2,1019.3l-87.3-8.4c0.6-3.1,0.2-6.4-1.1-9.3c-3.7-8.8-36.2-12-36.2-12l-327.1,22.3
	c0,0,20.3,54.3,179,42.7c80.5-5.9,134.9-13.7,163-25l0,0c0,0,12,10.7,90.4,5.7l19.9-7.2l0,0v-0.1l0,0c0-0.1,0-0.2,0.1-0.3l0,0
	c0-0.2,0-0.3,0.1-0.6l0,0C1136.1,1024.4,1135.8,1021.8,1135.2,1019.3z"/>
<circle cx="541.1" cy="571.8" r="12.9"/>
<circle class="st23" cx="541.1" cy="571.8" r="11.2"/>
<circle cx="541.1" cy="571.8" r="6.1"/>
<circle class="st24" cx="536.9" cy="568.2" r="3.5"/>
<path class="st16" d="M565.2,863.3c0,6.2-5,11.2-11.2,11.2c-6.2,0-11.2-5-11.2-11.2c0-6.2,5-25.3,11.2-25.3S565.2,857.1,565.2,863.3
	z"/>
<path class="st16" d="M635.5,863.3c-0.2,6.2-5.3,11-11.5,10.8c-5.9-0.2-10.7-4.9-10.8-10.8c0-6.2,5-25.3,11.2-25.3
	S635.5,857.1,635.5,863.3z"/>
<path class="st16" d="M532.5,932.5c0-4.9-3.2-18-7.5-23.1c-0.9,11.3-1.1,22.6-0.6,33.9C529.1,941.8,532.5,937.4,532.5,932.5z"/>
<path class="st16" d="M562.2,994c-0.2,6.2-5.3,11-11.5,10.8c-5.9-0.2-10.7-4.9-10.8-10.8c0-6.2,5-25.3,11.2-25.3
	S562.2,987.8,562.2,994z"/>
<path class="st16" d="M599,807.8c0,6.2-5,11.2-11.2,11.2c-6.2,0-11.2-5-11.2-11.2c0-6.2,5-25.3,11.2-25.3S599,801.6,599,807.8z"/>
<path class="st16" d="M557.6,719.8c-0.6,0-1.1,0.2-1.7,0.5c0.4,5.2,0.6,10.6,0.5,16.1c-0.1,6.3-0.5,12.8-1.1,19.6
	c0.8,0.2,1.5,0.2,2.3,0.2c6.2,0,11.2-5,11.2-11.2c0,0,0,0,0,0C568.8,738.9,563.8,719.8,557.6,719.8z"/>
<path class="st7" d="M432,672.9c0,0-87.3,56.9-95.3,53.4s22.5-25.9,36.9-36.4s89.3-67.8,92.8-77.3c0,0,16,9,30.9,4.5
	c0,0-2.7,15.4,0,16.2L432,672.9z"/>
<path class="st16" d="M1175.1,1016.5c-2.9,17.7-120.2,13.1-137.8,10.2c-17.7-2.9-29.7-19.6-26.8-37.2s19.6-29.7,37.2-26.8
	C1065.4,965.7,1178,998.9,1175.1,1016.5z"/>
<path class="st16" d="M595.1,932.5c0,6.2-5,11.2-11.2,11.2c-6.2,0-11.2-5-11.2-11.2c0-6.2,5-25.3,11.2-25.3S595.1,926.3,595.1,932.5
	z"/>
<path class="st25" d="M496.3,617.2L341.6,725.5l0,0c3.7-1.4,7.3-3,10.8-4.8l144.5-101.1c0.2-1.5,0.4-2.6,0.4-2.6L496.3,617.2z"/>
<path class="st25" d="M466,621.7c1.1-1,2.7-1,3.7,0.1c1,1.1,1,2.7-0.1,3.7c-1.1,1-5,3.1-6,2.1S465,622.7,466,621.7z"/>
<path class="st26" d="M434.6,671.2c-1.5-9.8-5.4-15.5-13.6-18c-20,16-40.6,31.6-47.5,36.6c-14.5,10.5-44.9,32.9-36.9,36.4
	s95.3-53.4,95.3-53.4L434.6,671.2z"/>
<path class="st27" d="M1028.5,1007.9l-7.3,10.2l0.9,1.8c3,2.4,6.3,4.3,10,5.5c0,0,23.1-5.9,16-19.3S1028.5,1007.9,1028.5,1007.9z"/>
<path class="st28" d="M764.8,860.9c-41.4-14.9-87,6.6-101.8,48c0,0,0,0,0,0c-14.9,41.3-22.2,115.1,69.7,132.2
	c35.5,6.6,93.8,7,150.6,3.4c1.3-2.2,3.6-3.6,6.1-3.6c8.7-0.4,17.3-1.6,25.9-2.4c8.4-0.9,16.9-0.8,25.3-1.9c2.4-0.4,4.9,0.4,6.7,2.1
	c54.5-6.7,97.1-17,100.4-28.2C1060,968.2,806.1,875.8,764.8,860.9z"/>
<path class="st17" d="M881.1,1044.6c23.5-1.5,46.9-3.6,68.3-6.3c12-30,17.3-62.3,15.6-94.5c-19.8-9.9-41.5-19.7-63.1-29
	C915.5,972.1,898.3,1016.9,881.1,1044.6z"/>
<path class="st22" d="M837.6,1080.4c-32.4-5.2,3.7,40.8,3.7,40.8l8.8,2.6c1.9-0.3,3.8-0.6,5.7-1c3.5-0.6,7-1.3,10.5-2
	C865.6,1108.2,861.3,1084.2,837.6,1080.4z"/>
<path class="st15" d="M816,1546.7c-0.6-0.1-1.2-0.2-1.8-0.2c-5.4,0-9.8,4.4-9.8,9.8c0,0.2,0,0.3,0,0.4l9.8-0.4l0,0L816,1546.7z"/>
<path class="st14" d="M842,1146.3l-8.4-1.2l-2.2,2.1l3.6,15.8c3.5,1.4,7.4,1.1,10.6-0.7L842,1146.3z"/>
<path class="st17" d="M855.6,1099.5c5.5,16.4,1.5,48.6-15,54.1s-39.1-17.7-44.6-34.2c-5.5-16.5,3.3-34.3,19.8-39.8
	C832.3,1074.2,850.1,1083,855.6,1099.5L855.6,1099.5z"/>
<g>
	<defs>
		<circle id="SVGID_13_" cx="279.2" cy="212.1" r="162.1"/>
	</defs>
	<clipPath id="SVGID_14_">
		<use xlink:href="#SVGID_13_"  style="overflow:visible;"/>
	</clipPath>
	<g class="st29">
		<circle class="st30" cx="279.2" cy="212.1" r="162.1"/>
		<rect x="359.1" y="233.8" class="st31" width="4.6" height="149.1"/>
		<rect x="198" y="180.3" class="st31" width="4.6" height="186.9"/>
		<path class="st19" d="M361.4,116.5L361.4,116.5c8.1,0,14.7,6.6,14.7,14.7v96.5c0,8.1-6.6,14.7-14.7,14.7l0,0
			c-8.1,0-14.7-6.6-14.7-14.7v-96.5C346.7,123.1,353.3,116.5,361.4,116.5z"/>
		<path class="st19" d="M200.3,97.5L200.3,97.5c5.9,0,10.6,4.8,10.6,10.6V178c0,5.9-4.8,10.6-10.6,10.6h0c-5.9,0-10.6-4.8-10.6-10.6
			v-69.9C189.7,102.3,194.5,97.5,200.3,97.5z"/>
		<path class="st31" d="M245.2,123L245.2,123c-2.7,0-5,2.3-4.9,5v32.5c0,2.3,1.6,4.3,3.9,4.8v83.2h2.1v-83.3
			c2.3-0.5,3.9-2.5,3.9-4.8V128C250.2,125.3,248,123,245.2,123z"/>
		<path class="st31" d="M261.1,130L261.1,130c-2.7,0-4.9,2.2-4.9,4.9v32.5c0,2.3,1.6,4.3,3.9,4.8v83.2h2.1v-83.2
			c2.3-0.5,3.9-2.5,3.9-4.8v-32.5C266,132.2,263.8,130,261.1,130z"/>
		<polyline class="st31" points="167.1,402.1 180.6,154.1 186.3,402.1 		"/>
		<polyline class="st31" points="365.7,407.3 383.7,128 387.2,407.1 		"/>
		<polyline class="st31" points="341,431.1 339.4,151.2 362.4,429.4 		"/>
	</g>
</g>
<path class="st7" d="M237.2,322.8l3.9,0.9l-11.8,49.8l36.9,109.6c3.2-1.1,12.9-4.2,15.3-4.4c12.3-0.8,39.6,11,39.6,11l-57.8-2.5l0,0
	l-38-112.9l-0.2-0.5L237.2,322.8z"/>
<path class="st14" d="M239.8,327.2l0.1,1.5l-1.7,7.3c-1.3,0.5-2.8,0.4-4.1-0.1l1.8-7.5L239.8,327.2z"/>
<path class="st15" d="M263.3,487.2l-1.2-3.6c0.4-0.1,0.8-0.2,1.2-0.2c1.9,0,3.5,1.6,3.5,3.5c0,0.1,0,0.3,0,0.4L263.3,487.2
	L263.3,487.2z"/>
<path class="st16" d="M122.8,269.3c34-11.2,59.9-24.3,81.6-34.3c73.4-33.7,80.1-62.5,86.4-93.2s14.7-42.9,31-42.9
	c15.7,0,24.5,15.6,26.5,28.1c0.8,4.8,5.4,8,3.5,11.6c-1.6,3-2.6,5.4-2.6,5.4c-2.2-1.5-4.9-2.4-7.5-2.4c0.3-1.5-0.7-3-2.2-3.3
	c-0.2,0-0.4-0.1-0.6-0.1c-1.2,0-2.2,0.7-2.6,1.8c-1-0.4-2.1-0.1-2.9,0.6c-9.6,8.5-16.3,19.5-18.5,32.2c-3.8,22.2,3.7,44.5,8.4,65.9
	c2.4,10.9,4.1,21.8,3.8,33c0,0.9-0.1,1.8-0.1,2.7c-6.1,7.5-11.9,15.7-12.8,25.6l0,0c-0.6,0.7-1.2,1.5-1.8,2.2
	c-0.6,0.1-1.2,0.3-1.6,0.7c-7.2,5.7-17.4,8.9-22.2,17.2l-1.6,0.6c-9.1,3.2-18.6,5.1-28.1,6.6c-8.1,1.3-16.1,2.8-24.3,3.5
	c-5.6,0.5-11.3,0.9-16.9,0.9c-6.2-0.6-12.2-1.5-18-2.6c-0.2-0.1-0.3-0.3-0.5-0.4c-12.3-7.1-26.6-8.5-40-12.6
	c-2.9-0.9-5.6-1.9-8.4-3.1c-0.1-0.6-0.3-1.2-0.7-1.6c-3.6-4.2-9.5-6.3-14.6-7.8c-3.6-1.1-7.4-1.9-11.2-2.5
	c-6.6-2.5-13.2-4.5-20.2-5.1c-0.3-0.7-1-1.2-1.7-1.4c-1.8-0.3-3.6-0.3-5.1-0.7c-0.3-0.1-0.6-0.1-0.9-0.1l-2-0.7
	C94.5,293.3,91.6,279.6,122.8,269.3z"/>
<path class="st17" d="M94.5,293.3L94.5,293.3L94.5,293.3c0-0.1,0-0.1,0-0.2l0,0c0,0,0-0.1,0-0.2l0,0c-0.1-1.1,0-4.5,3.3-8.8l0,0
	c62.4-8.9,183.3-3.7,199.3-74c12.4-54.3,4.8-83.1,25.9-93.2c13.6-6.5,25.4,10.8,25.4,10.8l0,0c1,4.5,5.2,7.6,3.4,11
	c-1,1.8-1.8,3.6-2.6,5.4l0,0c-2.9-2-6.5-2.8-10-2.3l-0.8,0.1c-2.6,0.6-5.1,1.8-7.1,3.5c-0.3,0.2-0.6,0.5-1,0.8
	c-2,1.7-3.7,3.6-5.3,5.7c-0.6,0.8-1.2,1.7-1.8,2.6c-1.1,1.8-2.1,3.7-2.9,5.7c-2.5,6-3.6,13.1-3.5,21.2c0.2,6.8,1,13.5,2.4,20.1
	c0.4,1.7,0.9,3.7,1.4,5.8c0.1,0.2,0.1,0.5,0.2,0.7c0.5,1.9,1.1,4,1.7,6.2c0.5,1.9,1,4,1.6,6.1l0.5,1.9c0.1,0.3,0.2,0.6,0.2,0.9
	l0.5,1.9c0.1,0.6,0.3,1.3,0.4,1.9s0.3,1.3,0.4,2l0.2,1c0.1,0.7,0.3,1.4,0.4,2c2.1,10,2.9,20.3,2.3,30.5c-0.1,1.5-0.3,3-0.5,4.5
	c-0.3,2.7-0.8,5.3-1.4,7.9c-0.2,0.8-0.4,1.5-0.6,2.2c-0.1,0.4-0.2,0.7-0.3,1.1c-0.3,1.1-0.7,2.2-1.1,3.3c-0.3,0.7-0.5,1.5-0.8,2.2
	c-1.2,3-2.6,5.9-4.2,8.6c-0.4,0.7-0.9,1.4-1.3,2.1c-0.7,1-1.4,2.1-2.1,3.1l-0.8,1c-0.5,0.7-1.1,1.4-1.6,2c-0.8,1-1.7,2-2.6,3
	c-0.6,0.7-1.2,1.3-1.9,1.9s-1.3,1.3-2,1.9c-1.4,1.3-2.9,2.5-4.4,3.7c-2.4,1.9-5,3.6-7.6,5.2c-0.9,0.5-1.9,1.1-2.8,1.6
	c-8.2,4.5-16.8,8-25.9,10.4c-4.8,1.2-9.6,2.2-14.5,2.9c-1,0.1-1.9,0.3-2.9,0.4c-1.9,0.2-3.9,0.4-5.8,0.5c-1,0.1-1.9,0.1-2.9,0.2
	c-2.9,0.1-5.8,0.2-8.6,0.2c-1.9,0-3.8,0-5.7-0.1c-6.5-0.3-12.9-0.9-19.3-1.9c-1.8-0.3-3.5-0.6-5.3-0.9c-6.1-1.1-11.9-2.4-17.3-3.8
	c-1.6-0.4-3.1-0.8-4.5-1.2s-2.9-0.8-4.3-1.3c-2.1-0.6-4.1-1.3-6.1-1.9c-1.3-0.4-2.5-0.9-3.7-1.3l-1.8-0.6l-3.3-1.2
	c-9.6-3.6-15.3-6.5-15.3-6.5L94.5,293.3z"/>
<circle class="st18" cx="322.7" cy="133.6" r="9.2"/>
<path class="st19" d="M315.8,112.9c-2.5,3.2-1.3,8.4,1.9,10.9s16.8,8.3,19.3,5.1s-7-14.2-10.2-16.7S318.3,109.7,315.8,112.9z"/>
<path class="st20" d="M316.7,114.2c0,0-1.1,6.1,2.7,8.6c3.3,2.2,8.7,0.1,8.7,0.1s1.7-6.9-2.3-9.3C321.6,111,316.7,114.2,316.7,114.2
	z"/>
<path class="st21" d="M297,210.1c0-0.2,0.1-0.4,0.1-0.6c7.5,12,10.6,32.1,8.3,47c-5.4,35.7-38.3,41.8-56.2,41.8
	c-15.8,0-10.6-18.4-9.2-35.1C268.5,253.5,290.8,237.5,297,210.1z"/>
<path class="st22" d="M94.7,289.9l33.5-3.2c-0.2-1.2-0.1-2.5,0.4-3.6c1.4-3.4,13.9-4.6,13.9-4.6l125.5,8.5c0,0-7.8,20.8-68.7,16.4
	c-30.9-2.3-51.8-5.2-62.6-9.6l0,0c0,0-4.6,4.2-34.7,2.2l-7.7-2.8l0,0v0l0,0c0,0,0-0.1,0-0.1l0,0c0,0,0-0.1,0-0.2l0,0
	C94.4,291.9,94.5,290.9,94.7,289.9z"/>
<circle cx="322.7" cy="118.2" r="5"/>
<circle class="st23" cx="322.7" cy="118.2" r="4.3"/>
<circle cx="322.7" cy="118.2" r="2.3"/>
<circle class="st24" cx="324.3" cy="116.8" r="1.4"/>
<path class="st16" d="M313.5,230.1c0,2.4,1.9,4.3,4.3,4.3c2.4,0,4.3-1.9,4.3-4.3c0,0,0,0,0,0c0-2.4-1.9-9.7-4.3-9.7
	S313.5,227.7,313.5,230.1z"/>
<path class="st16" d="M286.5,230.1c0.1,2.4,2.1,4.2,4.5,4.1c2.2-0.1,4-1.9,4.1-4.1c0-2.4-1.9-9.7-4.3-9.7S286.5,227.7,286.5,230.1z"
	/>
<path class="st16" d="M326,256.6c0-1.9,1.2-6.9,2.9-8.9c0.4,4.3,0.4,8.7,0.2,13C327.3,260.2,326,258.5,326,256.6z"/>
<path class="st16" d="M314.6,280.2c0.1,2.4,2.1,4.2,4.5,4.1c2.2-0.1,4-1.9,4.1-4.1c0-2.4-1.9-9.7-4.3-9.7S314.6,277.9,314.6,280.2z"
	/>
<path class="st16" d="M300.5,208.8c0,2.4,1.9,4.3,4.3,4.3c2.4,0,4.3-1.9,4.3-4.3c0,0,0,0,0,0c0-2.4-1.9-9.7-4.3-9.7
	S300.5,206.4,300.5,208.8z"/>
<path class="st16" d="M316.4,175c0.2,0,0.4,0.1,0.6,0.2c-0.1,2-0.2,4-0.2,6.2c0,2.4,0.1,4.9,0.4,7.5c-2.3,0.5-4.6-1-5.1-3.3
	c-0.1-0.3-0.1-0.6-0.1-0.8C312.1,182.3,314,175,316.4,175z"/>
<path class="st7" d="M364.5,157c0,0,33.5,21.8,36.6,20.5s-8.6-10-14.2-14s-34.3-26-35.6-29.7c0,0-6.1,3.4-11.9,1.7c0,0,1,5.9,0,6.2
	L364.5,157z"/>
<path class="st16" d="M79.4,288.9c1.1,6.8,46.1,5,52.9,3.9c6.8-1.1,11.4-7.5,10.3-14.3c-1.1-6.8-7.5-11.4-14.3-10.3
	C121.5,269.4,78.3,282.1,79.4,288.9z"/>
<path class="st16" d="M301.9,256.6c0,2.4,1.9,4.3,4.3,4.3c2.4,0,4.3-1.9,4.3-4.3c0,0,0,0,0,0c0-2.4-1.9-9.7-4.3-9.7
	S301.9,254.2,301.9,256.6z"/>
<path class="st25" d="M339.9,135.7l59.4,41.5l0,0c-1.4-0.5-2.8-1.1-4.1-1.9l-55.5-38.8c-0.1-0.6-0.2-1-0.2-1L339.9,135.7z"/>
<path class="st25" d="M351.5,137.4c-0.4-0.4-1-0.4-1.4,0c0,0,0,0,0,0c-0.4,0.4-0.4,1,0,1.4c0,0,0,0,0,0c0.4,0.4,1.9,1.2,2.3,0.8
	S351.9,137.8,351.5,137.4z"/>
<path class="st26" d="M363.5,156.4c0.6-3.8,2.1-5.9,5.2-6.9c7.7,6.1,15.6,12.1,18.2,14c5.5,4,17.2,12.6,14.2,14S364.5,157,364.5,157
	L363.5,156.4z"/>
<path class="st27" d="M135.6,285.6l2.8,3.9l-0.3,0.7c-1.1,0.9-2.4,1.6-3.8,2.1c0,0-8.9-2.2-6.1-7.4
	C130.9,279.7,135.6,285.6,135.6,285.6z"/>
<path class="st7" d="M197.3,382.7l11.4-50.8l3.9,0.9l-11.2,50L221.2,492c3.6-1.1,13.2-4.1,15.6-4.3c12.8-0.7,41.1,11.1,41.1,11.1
	l-60.1-2.8l0,0L197.3,382.7z"/>
<path class="st28" d="M236.9,229.2c15.9-5.7,33.4,2.5,39.1,18.4c0,0,0,0,0,0c5.7,15.9,8.5,44.2-26.7,50.7c-13.6,2.5-36,2.7-57.8,1.3
	c-0.5-0.8-1.4-1.4-2.4-1.4c-3.3-0.2-6.6-0.6-9.9-1s-6.5-0.3-9.7-0.7c-0.9-0.1-1.9,0.2-2.6,0.8c-20.9-2.6-37.3-6.5-38.5-10.8
	C123.6,270.3,221,234.9,236.9,229.2z"/>
<path class="st17" d="M192.2,299.6c-9-0.6-18-1.4-26.2-2.4c-4.6-11.5-6.6-23.9-6-36.3c7.6-3.8,15.9-7.6,24.2-11.1
	C180,266.8,182.9,284.8,192.2,299.6z"/>
<path class="st22" d="M208.9,313.4c12.4-2-1.4,15.6-1.4,15.6l-3.4,1l-2.2-0.4c-1.4-0.2-2.7-0.5-4-0.8
	C198.1,324,199.8,314.8,208.9,313.4z"/>
<path class="st14" d="M207.2,338.6l3.2-0.5l0.8,0.8l-1.4,6.1c-1.3,0.5-2.8,0.4-4.1-0.2L207.2,338.6z"/>
<path class="st17" d="M202,320.7c-2.1,6.3-0.6,18.7,5.8,20.8s15-6.8,17.1-13.1c2.3-6.3-1-13.2-7.2-15.5c-6.3-2.3-13.2,1-15.5,7.2
	C202.1,320.3,202.1,320.5,202,320.7z"/>
<path class="st32" d="M972.1,368.5c0,62.9-67,113.9-149.6,113.9c-24.5,0.1-48.8-4.6-71.4-13.8c-6.4-2.7-69.9,56.6-69.9,56.6
	s36.3-75.3,29.6-80.9c-23.6-20.1-37.9-46.7-37.9-75.8c0-62.9,67-113.8,149.6-113.8S972.1,305.6,972.1,368.5z"/>
<text transform="matrix(1 0 0 1 726.27 390.29)" class="st2 st33 st34">PU</text>
<text transform="matrix(1 0 0 1 755.42 390.29)" class="st2 st33 st34">N</text>
<text transform="matrix(1 0 0 1 772.93 390.29)" class="st2 st33 st34">A</text>
<text transform="matrix(1 0 0 1 788.94 390.29)" class="st2 st33 st34">J</text>
<text transform="matrix(1 0 0 1 798.9301 390.29)" class="st2 st33 st34">ALK</text>
<text transform="matrix(1 0 0 1 841.31 390.29)" class="st2 st33 st34">A</text>
<text transform="matrix(1 0 0 1 856.71 390.29)" class="st2 st33 st34">VIKLO</text>
<g>
	<defs>
		<path id="SVGID_15_" d="M1042.4,630c-25.9-16.9-35.6-47.9-21.6-69.4s46.3-25.2,72.2-8.3c61.7,40.2,82.2,108.8,82.2,108.8
			S1106.2,671.6,1042.4,630z"/>
	</defs>
	<clipPath id="SVGID_16_">
		<use xlink:href="#SVGID_15_"  style="overflow:visible;"/>
	</clipPath>
	<g class="st35">
		<path class="st36" d="M1042.4,630c-25.9-16.9-35.6-47.9-21.6-69.4s46.3-25.2,72.2-8.3c61.7,40.2,82.2,108.8,82.2,108.8
			S1106.2,671.6,1042.4,630z"/>
		
			<rect x="1087.3" y="501.1" transform="matrix(0.5468 -0.8372 0.8372 0.5468 -12.8544 1185.3169)" class="st2" width="2.5" height="206.8"/>
		
			<rect x="1104.9" y="607.6" transform="matrix(0.9321 -0.3623 0.3623 0.9321 -144.1526 448.952)" class="st2" width="40.4" height="2.5"/>
		
			<rect x="1114" y="613.9" transform="matrix(0.9321 -0.3623 0.3623 0.9321 -145.8127 452.6607)" class="st2" width="40.4" height="2.5"/>
		
			<rect x="1110.2" y="614.7" transform="matrix(0.9627 -0.2704 0.2704 0.9627 -130.9502 324.3126)" class="st2" width="2.5" height="45.2"/>
		
			<rect x="1076.4" y="586.9" transform="matrix(0.9236 -0.3833 0.3833 0.9236 -141.3125 467.1708)" class="st2" width="50.2" height="2.5"/>
		
			<rect x="1067.3" y="585.9" transform="matrix(0.9725 -0.2329 0.2329 0.9725 -114.3333 265.8782)" class="st2" width="2.5" height="62.2"/>
		
			<rect x="1030.3" y="563.5" transform="matrix(0.9859 -0.1673 0.1673 0.9859 -84.9988 180.9579)" class="st2" width="2.5" height="63"/>
		
			<rect x="1040.7" y="570.1" transform="matrix(0.9859 -0.1673 0.1673 0.9859 -85.953 182.7825)" class="st2" width="2.5" height="63"/>
		
			<rect x="1041.1" y="562.6" transform="matrix(0.918 -0.3967 0.3967 0.918 -135.9315 470.4069)" class="st2" width="56.3" height="2.5"/>
		
			<rect x="1138" y="632.6" transform="matrix(0.9236 -0.3833 0.3833 0.9236 -161.3236 486.1878)" class="st2" width="2.5" height="30.6"/>
	</g>
</g>
<path class="st37" d="M1042.4,630c-25.9-16.9-35.6-47.9-21.6-69.4s46.3-25.2,72.2-8.3c61.7,40.2,82.2,108.8,82.2,108.8
	S1106.2,671.6,1042.4,630z"/>
<path class="st15" d="M221.6,496.2c0-0.2,0.1-0.5,0.1-0.7c0-1.8-1.5-3.3-3.3-3.3l0,0c-0.4,0-0.8,0.1-1.1,0.2l0.6,3.6l0,0
	L221.6,496.2z"/>
</svg>
