<?xml version="1.0" encoding="utf-8"?>
<!-- Generator: Adobe Illustrator 24.0.0, SVG Export Plug-In . SVG Version: 6.00 Build 0)  -->
<svg version="1.1" id="Layer_1" xmlns="http://www.w3.org/2000/svg" xmlns:xlink="http://www.w3.org/1999/xlink" x="0px" y="0px"
	 viewBox="0 0 1800 987" style="enable-background:new 0 0 1800 987;" xml:space="preserve">
<style type="text/css">
	.st0{fill:#930F32;}
	.st1{fill:#FFFFFF;}
	.st2{enable-background:new    ;}
</style>
<title>china</title>
<circle class="st0" cx="1382.1" cy="493.5" r="253.4"/>
<circle class="st1" cx="1382.1" cy="493.5" r="243.3"/>
<g class="st2">
	<path class="st0" d="M1310.7,587c0.7-0.6,1.5-0.9,2.5-0.9c2.1,0,3.7,1.6,3.7,3.7c0,1.3-0.5,2.3-1.4,3.1c-6.1,5.1-12.9,8-22,8
		c-18.9,0-34.2-15.9-34.2-35.4c0-19.6,15.3-35.5,34.2-35.5c9,0,15.9,2.9,22,8c0.9,0.8,1.4,1.8,1.4,3.1c0,2.1-1.6,3.7-3.7,3.7
		c-0.9,0-1.7-0.3-2.5-0.9c-6.3-4.6-10.6-6.5-17.1-6.5c-14.6,0-26.5,12.4-26.5,28c0,15.4,11.9,28.2,26.5,28.2
		C1300.1,593.7,1305.5,591.7,1310.7,587z"/>
	<path class="st0" d="M1370.8,535.1v60.8c0,2.3-1.8,4-3.9,4c-2.3,0-4.1-1.7-4.1-4v-26.6h-26.6v26.6c0,2.3-1.9,4-4.1,4
		c-2.2,0-4-1.7-4-4v-60.8c0-2.2,1.8-4,4-4c2.2,0,4.1,1.8,4.1,4v26.6h26.6v-26.6c0-2.2,1.8-4,4.1-4
		C1369,531.1,1370.8,532.9,1370.8,535.1z"/>
	<path class="st0" d="M1392.2,595.9c0,2.3-1.9,4-4.1,4c-2.2,0-4-1.7-4-4v-60.8c0-2.2,1.8-4,4-4c2.2,0,4.1,1.8,4.1,4V595.9z"/>
	<path class="st0" d="M1440.8,535.1c0-2.3,1.9-4,4.1-4s4,1.7,4,4v60.8c0,2.1-1.9,4-4.2,4c-1.4,0-2.5-0.6-3.3-1.8l-28.5-48.1v45.9
		c0,2.3-1.9,4-4.1,4c-2.2,0-4-1.7-4-4v-60.8c0-2.1,1.9-4,4.2-4c1.4,0,2.5,0.6,3.3,1.8l28.5,48.1V535.1z"/>
	<path class="st0" d="M1491,580.2h-20.2l-4.6,16.2c-0.8,2.4-2.3,3.6-4.2,3.6c-2.3,0-4.3-1.5-4.3-3.8c0-0.5,0.1-1,0.3-1.5l17.6-60
		c0.7-2.5,3.1-3.6,5.4-3.6c2.3,0,4.6,1.1,5.4,3.6l17.6,60c0.2,0.5,0.3,1,0.3,1.5c0,2.3-2,3.8-4.3,3.8c-2,0-3.4-1.2-4.2-3.6
		L1491,580.2z M1472.9,572.6h15.9l-7.9-27.7L1472.9,572.6z"/>
</g>
<path class="st0" d="M1576.7,499.9h-389.4c0-107.5,87.1-194.7,194.7-194.7C1489.6,305.2,1576.7,392.3,1576.7,499.9z"/>
<circle class="st0" cx="1384.8" cy="297.8" r="16.6"/>
<g class="st2">
	<path class="st1" d="M1299.2,459.5c0.6-0.5,1.2-0.7,1.9-0.7c1.6,0,2.9,1.3,2.9,2.9c0,1-0.3,1.7-1,2.4c-4.7,3.9-9.9,6.1-16.8,6.1
		c-14.4,0-26.1-12.1-26.1-27c0-14.9,11.7-27,26.1-27c6.9,0,12.1,2.2,16.8,6.1c0.7,0.6,1,1.4,1,2.4c0,1.6-1.3,2.9-2.9,2.9
		c-0.7,0-1.3-0.2-1.9-0.7c-4.8-3.5-8.1-4.9-13.1-4.9c-11.1,0-20.2,9.5-20.2,21.3c0,11.7,9.1,21.5,20.2,21.5
		C1291.2,464.7,1295.3,463.1,1299.2,459.5z"/>
	<path class="st1" d="M1345.1,420v46.4c0,1.7-1.4,3.1-3,3.1c-1.7,0-3.1-1.3-3.1-3.1V446h-20.3v20.3c0,1.7-1.5,3.1-3.1,3.1
		c-1.7,0-3.1-1.3-3.1-3.1V420c0-1.7,1.4-3.1,3.1-3.1c1.7,0,3.1,1.4,3.1,3.1v20.3h20.3V420c0-1.7,1.4-3.1,3.1-3.1
		C1343.7,416.9,1345.1,418.3,1345.1,420z"/>
	<path class="st1" d="M1361.4,466.3c0,1.7-1.5,3.1-3.1,3.1c-1.7,0-3.1-1.3-3.1-3.1V420c0-1.7,1.4-3.1,3.1-3.1c1.7,0,3.1,1.4,3.1,3.1
		V466.3z"/>
	<path class="st1" d="M1392.2,440.3c1.7,0,3.1,1.3,3.1,2.9s-1.4,2.9-3.1,2.9h-18.6c-1.7,0-3.1-1.3-3.1-2.9s1.4-2.9,3.1-2.9H1392.2z"
		/>
	<path class="st1" d="M1441.7,459.5c0.6-0.5,1.2-0.7,1.9-0.7c1.6,0,2.9,1.3,2.9,2.9c0,1-0.3,1.7-1,2.4c-4.7,3.9-9.9,6.1-16.8,6.1
		c-14.4,0-26.1-12.1-26.1-27c0-14.9,11.7-27,26.1-27c6.9,0,12.1,2.2,16.8,6.1c0.7,0.6,1,1.4,1,2.4c0,1.6-1.3,2.9-2.9,2.9
		c-0.7,0-1.3-0.2-1.9-0.7c-4.8-3.5-8.1-4.9-13.1-4.9c-11.1,0-20.2,9.5-20.2,21.3c0,11.7,9.1,21.5,20.2,21.5
		C1433.6,464.7,1437.7,463.1,1441.7,459.5z"/>
	<path class="st1" d="M1487.6,420v46.4c0,1.7-1.4,3.1-3,3.1c-1.7,0-3.1-1.3-3.1-3.1V446h-20.3v20.3c0,1.7-1.5,3.1-3.1,3.1
		s-3.1-1.3-3.1-3.1V420c0-1.7,1.4-3.1,3.1-3.1s3.1,1.4,3.1,3.1v20.3h20.3V420c0-1.7,1.4-3.1,3.1-3.1
		C1486.2,416.9,1487.6,418.3,1487.6,420z"/>
	<path class="st1" d="M1503.8,466.3c0,1.7-1.5,3.1-3.1,3.1c-1.7,0-3.1-1.3-3.1-3.1V420c0-1.7,1.4-3.1,3.1-3.1c1.7,0,3.1,1.4,3.1,3.1
		V466.3z"/>
</g>
<image style="overflow:visible;" width="1200" height="900" xlink:href="china.png"  transform="matrix(1 0 0 1 -128.7635 43.515)">
</image>
</svg>
