<?xml version="1.0" encoding="utf-8"?>
<!-- Generator: Adobe Illustrator 24.0.0, SVG Export Plug-In . SVG Version: 6.00 Build 0)  -->
<svg version="1.1" id="Layer_1" xmlns="http://www.w3.org/2000/svg" xmlns:xlink="http://www.w3.org/1999/xlink" x="0px" y="0px"
	 viewBox="0 0 946.4 911.7" style="enable-background:new 0 0 946.4 911.7;" xml:space="preserve">
<style type="text/css">
	.st0{fill:#930F32;}
	.st1{fill:#FFFFFF;}
	.st2{enable-background:new    ;}
</style>
<title>china</title>
<circle class="st0" cx="475.1" cy="440.6" r="395.8"/>
<circle class="st1" cx="475.1" cy="440.6" r="380.1"/>
<g class="st2">
	<path class="st0" d="M363.6,586.6c1.1-1,2.4-1.4,3.8-1.4c3.3,0,5.8,2.6,5.8,5.8c0,2-0.7,3.6-2.1,4.8c-9.5,8-20.2,12.5-34.3,12.5
		c-29.5,0-53.4-24.8-53.4-55.3c0-30.6,23.9-55.4,53.4-55.4c14.1,0,24.8,4.6,34.3,12.5c1.4,1.3,2.1,2.8,2.1,4.8
		c0,3.3-2.6,5.8-5.8,5.8c-1.4,0-2.7-0.4-3.8-1.4c-9.8-7.1-16.5-10.1-26.8-10.1c-22.8,0-41.4,19.4-41.4,43.7c0,24.1,18.7,44,41.4,44
		C347,597.2,355.4,594,363.6,586.6z"/>
	<path class="st0" d="M457.6,505.6v95c0,3.6-2.8,6.3-6.1,6.3c-3.6,0-6.4-2.7-6.4-6.3V559h-41.6v41.6c0,3.6-3,6.3-6.4,6.3
		c-3.4,0-6.3-2.7-6.3-6.3v-95c0-3.4,2.8-6.3,6.3-6.3c3.4,0,6.4,2.8,6.4,6.3v41.6H445v-41.6c0-3.4,2.8-6.3,6.4-6.3
		C454.7,499.3,457.6,502.2,457.6,505.6z"/>
	<path class="st0" d="M490.9,600.6c0,3.6-3,6.3-6.4,6.3s-6.3-2.7-6.3-6.3v-95c0-3.4,2.8-6.3,6.3-6.3s6.4,2.8,6.4,6.3V600.6z"/>
	<path class="st0" d="M566.9,505.6c0-3.6,3-6.3,6.4-6.3s6.3,2.7,6.3,6.3v95c0,3.3-3,6.3-6.6,6.3c-2.1,0-3.8-1-5.1-2.8l-44.6-75.2
		v71.8c0,3.6-3,6.3-6.4,6.3s-6.3-2.7-6.3-6.3v-95c0-3.3,3-6.3,6.6-6.3c2.1,0,3.8,1,5.1,2.8l44.6,75.2V505.6z"/>
	<path class="st0" d="M645.2,575.9h-31.6l-7.3,25.3c-1.3,3.7-3.6,5.6-6.6,5.6c-3.6,0-6.7-2.4-6.7-6c0-0.7,0.1-1.6,0.4-2.3l27.5-93.7
		c1.1-3.8,4.8-5.6,8.4-5.6c3.6,0,7.3,1.7,8.4,5.6l27.5,93.7c0.3,0.7,0.4,1.6,0.4,2.3c0,3.6-3.1,6-6.7,6c-3.1,0-5.3-1.9-6.6-5.6
		L645.2,575.9z M617,564.1h24.8l-12.4-43.3L617,564.1z"/>
</g>
<path class="st0" d="M779.2,450.5H171c0-167.9,136.1-304.1,304.1-304.1S779.2,282.5,779.2,450.5z"/>
<circle class="st0" cx="479.3" cy="134.9" r="26"/>
<g class="st2">
	<path class="st1" d="M345.7,387.5c0.9-0.8,1.8-1.1,2.9-1.1c2.5,0,4.5,2,4.5,4.5c0,1.5-0.5,2.7-1.6,3.7c-7.3,6.1-15.4,9.6-26.2,9.6
		c-22.5,0-40.7-18.9-40.7-42.1c0-23.4,18.2-42.2,40.7-42.2c10.8,0,18.9,3.5,26.2,9.6c1.1,1,1.6,2.2,1.6,3.7c0,2.5-2,4.5-4.5,4.5
		c-1.1,0-2.1-0.3-2.9-1.1c-7.5-5.4-12.6-7.7-20.4-7.7c-17.4,0-31.6,14.8-31.6,33.3c0,18.4,14.2,33.6,31.6,33.6
		C333.1,395.5,339.5,393.1,345.7,387.5z"/>
	<path class="st1" d="M417.4,325.7v72.4c0,2.7-2.2,4.8-4.7,4.8c-2.7,0-4.9-2.1-4.9-4.8v-31.7h-31.7v31.7c0,2.7-2.3,4.8-4.9,4.8
		c-2.6,0-4.8-2.1-4.8-4.8v-72.4c0-2.6,2.2-4.8,4.8-4.8c2.6,0,4.9,2.2,4.9,4.8v31.7h31.7v-31.7c0-2.6,2.2-4.8,4.9-4.8
		C415.2,320.9,417.4,323.1,417.4,325.7z"/>
	<path class="st1" d="M442.8,398.1c0,2.7-2.3,4.8-4.9,4.8c-2.6,0-4.8-2.1-4.8-4.8v-72.4c0-2.6,2.2-4.8,4.8-4.8
		c2.6,0,4.9,2.2,4.9,4.8V398.1z"/>
	<path class="st1" d="M490.9,357.4c2.6,0,4.8,2,4.8,4.5s-2.2,4.6-4.8,4.6h-29.1c-2.6,0-4.8-2.1-4.8-4.6s2.2-4.5,4.8-4.5H490.9z"/>
	<path class="st1" d="M568.3,387.5c0.9-0.8,1.8-1.1,2.9-1.1c2.5,0,4.5,2,4.5,4.5c0,1.5-0.5,2.7-1.6,3.7c-7.3,6.1-15.4,9.6-26.2,9.6
		c-22.5,0-40.7-18.9-40.7-42.1c0-23.4,18.2-42.2,40.7-42.2c10.8,0,18.9,3.5,26.2,9.6c1.1,1,1.6,2.2,1.6,3.7c0,2.5-2,4.5-4.5,4.5
		c-1.1,0-2.1-0.3-2.9-1.1c-7.5-5.4-12.6-7.7-20.4-7.7c-17.4,0-31.6,14.8-31.6,33.3c0,18.4,14.2,33.6,31.6,33.6
		C555.7,395.5,562.1,393.1,568.3,387.5z"/>
	<path class="st1" d="M639.9,325.7v72.4c0,2.7-2.2,4.8-4.7,4.8c-2.7,0-4.9-2.1-4.9-4.8v-31.7h-31.7v31.7c0,2.7-2.3,4.8-4.9,4.8
		s-4.8-2.1-4.8-4.8v-72.4c0-2.6,2.2-4.8,4.8-4.8s4.9,2.2,4.9,4.8v31.7h31.7v-31.7c0-2.6,2.2-4.8,4.9-4.8
		C637.8,320.9,639.9,323.1,639.9,325.7z"/>
	<path class="st1" d="M665.4,398.1c0,2.7-2.3,4.8-4.9,4.8c-2.6,0-4.8-2.1-4.8-4.8v-72.4c0-2.6,2.2-4.8,4.8-4.8
		c2.6,0,4.9,2.2,4.9,4.8V398.1z"/>
</g>
</svg>
