<?xml version="1.0" encoding="utf-8"?>
<!-- Generator: Adobe Illustrator 23.1.1, SVG Export Plug-In . SVG Version: 6.00 Build 0)  -->
<svg version="1.1" id="Layer_1" xmlns="http://www.w3.org/2000/svg" xmlns:xlink="http://www.w3.org/1999/xlink" x="0px" y="0px"
	 viewBox="0 0 2000 2000" style="enable-background:new 0 0 2000 2000;" xml:space="preserve">
<style type="text/css">
	.st0{clip-path:url(#SVGID_2_);}
	.st1{fill:#FFFFFF;}
	.st2{fill:#A9BDE0;}
	.st3{fill:#9FB4E2;}
	.st4{fill:#7179A8;}
	.st5{fill:#DD5C4E;}
	.st6{fill:#F17462;}
	.st7{fill:#F9DC92;}
	.st8{opacity:0.65;fill:#FFFFFF;enable-background:new    ;}
	.st9{fill:#FFE1C9;}
	.st10{fill:#F4CC71;}
	.st11{fill:#F7D4BC;}
	.st12{fill:#6999EE;stroke:#6999EE;stroke-width:0.59;stroke-miterlimit:10;}
	.st13{fill:none;stroke:#B23520;stroke-width:2.37;stroke-miterlimit:10;}
	.st14{fill:#E0B085;}
	.st15{fill:#EABE92;}
	.st16{fill:#D19F75;}
	.st17{fill:#EA8F86;}
	.st18{fill:none;stroke:#FFFFFF;stroke-width:2;stroke-linecap:round;stroke-miterlimit:10;}
	.st19{fill:none;stroke:#FFFFFF;stroke-width:1.72;stroke-linecap:round;stroke-miterlimit:10;}
	.st20{fill:#5A90E0;}
	.st21{fill:#563324;}
	.st22{fill:none;stroke:#FFAECF;stroke-width:1.55;stroke-linecap:round;stroke-miterlimit:10;}
	.st23{fill:none;stroke:#563324;stroke-width:1.72;stroke-linecap:round;stroke-miterlimit:10;}
	.st24{fill:#E5BDA1;}
	.st25{fill:none;stroke:#F17462;stroke-width:1.72;stroke-linecap:round;stroke-miterlimit:10;}
	.st26{opacity:0.5;fill:#B78763;enable-background:new    ;}
	.st27{fill:#B23520;}
	.st28{clip-path:url(#SVGID_2_);fill:#563324;}
</style>
<title>dogs</title>
<g>
	<g>
		<defs>
			<path id="SVGID_1_" d="M1537,188.1c0,0,366.1,206.8,350,563c-8.1,179.3,9.4,379.8-10.7,596c-7.1,76.8-13.6,157-38.3,236
				c-184,587-632.6,26.2-901,185c-169,100-322.5,163.1-480,140c-252-37-312.8-316.9-338.5-560.1c-16.8-159,1.4-319.5,50.5-436.9
				c49.8-119.2-41.2-620.8,228-750C774.3-19.9,1537,188.1,1537,188.1z"/>
		</defs>
		<clipPath id="SVGID_2_">
			<use xlink:href="#SVGID_1_"  style="overflow:visible;"/>
		</clipPath>
		<g class="st0">
			<polygon class="st1" points="2030,2035.1 30,2037.1 30,37.1 2030,37.1 			"/>
			<path class="st2" d="M993.9,914.7h239.8c18.2,0,32.9,14.7,32.9,32.9v506.6c0,18.2-14.7,32.9-32.9,32.9H993.9
				c-18.2,0-32.9-14.7-32.9-32.9V947.6C960.9,929.4,975.7,914.7,993.9,914.7z"/>
			<rect x="500.1" y="1011.2" class="st3" width="348.2" height="348.2"/>
			<path class="st3" d="M1725.7,1101.7L1725.7,1101.7c-12,0-21.7-9.7-21.7-21.7V612.8c0-12-9.7-21.7-21.7-21.7
				c-4.2,0-8.4,1.2-11.9,3.5l-225,146.9c-6.1,4-9.8,10.9-9.8,18.2V1080c0,12-9.7,21.7-21.7,21.7h-350.6c-12,0-21.7-9.7-21.7-21.7
				V820.9c0-12-9.7-21.7-21.7-21.7c0,0,0,0,0,0H816.5c-12,0-21.7,9.7-21.7,21.7v648.5c0,12,9.7,21.7,21.7,21.7h203.2
				c12,0,21.7-9.7,21.7-21.7c0,0,0,0,0,0v-27.9c0-12,9.7-21.7,21.7-21.7h662.5c12,0,21.7-9.7,21.7-21.7v-274.6
				C1747.4,1111.5,1737.6,1101.7,1725.7,1101.7z"/>
			<path class="st2" d="M1618.4,840.1h209.8c26.5,0,47.9,21.5,47.9,47.9v476.7c0,26.5-21.5,47.9-47.9,47.9h-209.8
				c-26.5,0-47.9-21.5-47.9-47.9V888C1570.5,861.6,1592,840.1,1618.4,840.1z"/>
			<path class="st3" d="M525.2,1450.8H268c-13.4,0-24.2-10.8-24.2-24.2V602.5c0-23.1,29.3-33.1,43.4-14.7L544,922.2
				c3.2,4.2,5,9.4,5,14.7l0.5,489.7C549.5,1439.9,538.7,1450.8,525.2,1450.8C525.3,1450.8,525.3,1450.8,525.2,1450.8z"/>
			<path class="st2" d="M118.2,1715.1h305.6V844.4c0-15.8-20.1-22.6-29.7-10.1l-270.3,352.1c-3.3,4.3-5.1,9.6-5.1,15.1L118.2,1715.1
				z"/>
			<circle class="st4" cx="1097" cy="1346.1" r="39"/>
			<circle class="st4" cx="1188" cy="1327.1" r="77"/>
			<circle class="st4" cx="1280" cy="1346.1" r="50"/>
			<polygon class="st4" points="27,1347.1 2027,1347.1 2029,2035.1 29,2037.1 			"/>
			<path class="st5" d="M502.1,1642.2v-0.1c2.3-3.4,3.4-7.4,3.2-11.4c-1.2-15.4-11.9-22.5-22.5-22.5c-6.1,0-10.7,1.7-14.3,5.3h-0.1
				l-11.6,13.3l3.7,2.9c-0.1,0.4-0.2,0.7-0.3,1.1c-2.8,12.1,10.1,22.5,22.5,22.5c2.2,0,4.5-0.4,6.6-1.1l2.8,2.2l7.1-8.7
				c0.7-0.8,1.4-1.6,2.1-2.5L502.1,1642.2z"/>
			<circle class="st6" cx="475.7" cy="1638.9" r="22.5"/>
			<circle class="st7" cx="475.7" cy="1638.9" r="5.9"/>
			<path class="st8" d="M911.7,863.7h15.5c3.3,0,6,2.7,6,6v36.8c0,3.3-2.7,6-6,6h-15.5c-3.3,0-6-2.7-6-6v-36.8
				C905.7,866.4,908.4,863.7,911.7,863.7z"/>
			<path class="st5" d="M728.5,1637.5v-0.1c2.3-3.4,3.4-7.4,3.2-11.4c-1.2-15.4-11.8-22.5-22.5-22.5c-6.1,0-10.7,1.7-14.3,5.2h-0.1
				l-11.6,13.3l3.7,2.9c-0.1,0.4-0.2,0.7-0.3,1.1c-2.8,12.1,10.1,22.5,22.5,22.5c2.2,0,4.5-0.4,6.6-1.1l2.8,2.2l7.1-8.7
				c0.7-0.8,1.4-1.6,2.1-2.5L728.5,1637.5z"/>
			<circle class="st6" cx="702.1" cy="1634.2" r="22.5"/>
			<circle class="st7" cx="702.1" cy="1634.2" r="5.9"/>
			<path class="st7" d="M782.7,1546.5c0,0-333.9-9.3-385.3,32c-4.2,3.3-2.2,10.2-2.4,14.2c-2.4,53.3,356.8,20.2,356.8,20.2
				L782.7,1546.5z"/>
			<path class="st6" d="M782.7,1538.2c0,0-385.3-7.1-387.7,46.2s356.8,20.2,356.8,20.2L782.7,1538.2z"/>
			<polygon class="st5" points="807.6,1516.8 782.7,1538.2 751.9,1604.6 779.2,1592.7 			"/>
			<polygon class="st7" points="807.6,1516.8 811.2,1526.3 783.9,1599.8 779.2,1592.7 			"/>
			<polyline class="st7" points="783.9,1599.8 751.9,1612.8 756.7,1602.4 779.2,1592.7 			"/>
			<path class="st9" d="M480.4,883.8c0,0-18.5,46.8,4.5,52c37,8.3,33.4-16.8,33.4-16.8s-2.2-25.7-5.4-37.5s-32.5-1.3-32.5-1.3V883.8
				z"/>
			<path class="st10" d="M473.3,856.5l2.4,33.2c0,0,19,11.8,40.3,0c19.7-10.9,8.3-33.2,8.3-33.2H473.3z"/>
			<path class="st7" d="M600.7,398c0,0-61.8-9.8-105.7,30.5s-56.9,92.5-58.1,227.6s13.9,205.1,41.2,213.4s71.5-9.5,71.5-9.5
				L600.7,398z"/>
			<path class="st11" d="M746.9,833.4c0,0-33.2,686.4-28.5,693.5s11.9,9.5,11.9,15.4s-85.4,74.7-91.3,68.8s31.4-57.5,44.5-70.5
				c0,0-55.7-595.1-54.5-605.8c0,0-9.5,1.2-13,0c0,0-37.9,580.9-37.9,598.7s3.6,39.1,0,42.7s-116.2,22.5-118.5,14.2
				s81.8-40.3,81.8-40.3s-42.7-693.5-22.5-725.5C518.7,824.5,628.9,882.6,746.9,833.4z"/>
			<path class="st12" d="M679.1,1494.2l39.3-4.3c3.7-143.7,28.7-660.7,28.7-660.7c-118,49.2-228.5-4.7-228.5-4.7
				c-17.2,27.2,11.2,533.6,20,683.9l40.5,0.7c6.6-113,36.7-574.3,36.7-574.3c3.5,1.2,13,0,13,0C628,943.6,666.1,1354.1,679.1,1494.2
				z"/>
			<path class="st13" d="M836.7,931.8c0,0,8.5-22.3,45-36.8c25.5-10,43.3,7.7,43.9,32c0.4,17-7.1,30.8-27.3,35.6
				s-40.3-2.4-47.4-24.9s8.3-47.4,43.9-48.6s59.9,589.7,246,610.8c115,13,208.6-110.2,208.6-110.2"/>
			<path class="st1" d="M1318.3,1540.1c22,12.8,30.9,28.9,96.6,31.9c45.2,2.1,65.7-3.5,82.2-10.5c8.2-3.4,20-8,31.9-9
				c24.9-2,64.7,2,69.7,4s13,5,21.9,8c12.6,4.2,25.9,8,27.9,11s5,12,4,15.9s-10.8,21.9-14.9,21.9c-9,0-15.9,4-16.9,9c-0.8,4,0,7,5,9
				c5.4,2.2,32.8,6.7,39.8-4c16.9-25.9,36-46.7,38.8-52.8c6-13,4.5-31.3-7-61.7c-12-31.9-15.9-44.8-29.9-60.7
				c-13.5-15.4-33.9-34.8-79.7-37.8c-41.8-2.7-123.4,0.8-161.3-14.9c-28.9-12-41.8-39.8-69.7-63.7c-5.3-4.6,2-74.7-4-82.7
				c-3.8-5.1-27.9,32.9-34.8,34.8s-47.8,3-54.8,13.9s-8,17.9-12,19.9s-57.8,0-60.7,6s-7,31.9,15.9,40.8c0,0-2,18.9,19.9,20.9
				s36.8,7,38.8,30.9S1280.2,1517.9,1318.3,1540.1z"/>
			<path class="st1" d="M1329.8,1499.8c-11,11-16.9,18.9-23.2,27.2c-5.3,6.9-15.4,24.6-29.5,24.6c-14.9,0-19.1,0.9-20.9,7
				c-3,10,21.9,23.9,33.8,21.9c8.4-1.4,14.6-7.5,22.9-12c14.9-8,47.8-23.9,68.7-25.9"/>
			<path class="st1" d="M1349.7,1557.6c2,23.9,36.8,30.9,21.8,47.8c-9.9,11.2-13,14-10.1,19.6c4.8,9.2,28.1,3.4,36.1-5.7
				c7-8,11-18.9,11.5-26.9c1.1-16.9-4.2-59.4-14.5-77.7"/>
			<path class="st1" d="M1668.6,1567.4c9.6-9.2,19-19.3,22.6-19.7s8.9,3.1,12,5.8s18.9,12.9,16.5,21.4s-3.8,16,0.1,19.2
				c3.2,2.6,6.2,3.2,10.2-0.3c4.4-3.8,21.1-26,14.9-37.2c-15.1-27-20.8-47-37.8-54.9c-12.9-6.1-33.4-10-65.7-13.9"/>
			<path class="st14" d="M1697.2,1541.6c14.8-8.1,16.9-25.4,16.7-35.6c-2.1-1.7-4.3-3.1-6.7-4.2c-12.9-6.1-33.4-10-65.7-13.9
				l13.5,39.7C1669.7,1538.4,1686.7,1547.4,1697.2,1541.6z"/>
			<path class="st1" d="M1651.4,1447c0,0-6-14.9,9-29.9c11.1-11.1,31-20.7,38.8-28.9c21.9-22.9,31.9-64.7,46.8-61.7
				s23.7,58.6,11,86.6c-10,21.9-35,27.5-54.8,29.9c-24.9,3-40.8,6-43.8,13.9S1651.4,1447,1651.4,1447z"/>
			<path class="st15" d="M1697.2,1512.8c-12-31.9-15.9-44.8-29.9-60.7c-13.5-15.4-33.9-34.8-79.7-37.8
				c-41.8-2.7-123.4,0.8-161.3-14.9c-28.9-12-41.8-39.8-69.7-63.7c-5.3-4.6,2-74.7-4-82.7c-3.8-5.1-27.9,32.9-34.8,34.8
				c-4.9,1.4-26.6,2.3-41.4,6.6c-3.5,6.4-8.1,14.5-10.3,17.3c-4,5-10.8,15.3-6,24.9c4,8,15.2,9,27.9,11.9c13,3,22.9,13.9,22.9,26.9
				c0,9-9.9,38.8-9.9,67.7s8,35.8,16.9,36.8s18.9-4,20.9,1c3.2,7.9-24.9,12.9-15.9,42.8s41.8,16.9,41.8,16.9
				c7.5,12.2,17.9,22.5,30.2,29.9c6,0.7,12.7,1.2,20.1,1.5c44.6,2,65.2-3.4,81.6-10.2c18.7-12,42-26.4,49.4-28.1
				c12.9-3,25.9,0,25.9,0c5.7,7.5,11.8,14.6,18.5,21.3c2.8,0.3,5.7,0.8,8.4,1.6c5,2,13,5,21.9,8c9.8,3.3,20.1,6.3,25.1,8.9
				c5.7,1.6,11.3,3.6,16.7,6c13.9,6,27.6,7.4,37.7,1.2c1.6-1.9,2.9-4,4.1-6.2C1710.1,1561.5,1708.6,1543.2,1697.2,1512.8z"/>
			<path class="st16" d="M1335.7,1328.5c4-3,7-9,11-30.9s7-40.8,4-41.8c-4.2-1.4-27.9,31.9-30.9,41.8S1327.2,1335,1335.7,1328.5z"/>
			<ellipse cx="1274.5" cy="1325.1" rx="3.5" ry="5.5"/>
			<path class="st17" d="M1258.1,1371.4c-1.5-1.5-20.4,6.5-51.8-3c-0.2,3.3,0.4,6.6,1.7,9.6c3.8,0.5,8.1,1,13.2,1.3
				C1254.1,1381.3,1260.6,1373.9,1258.1,1371.4z"/>
			<path class="st6" d="M1235.1,1373.1c-7-0.1-13.9-1-20.7-2.6c0,0-11.2,7.4-9.6,15.3c1,5,7,4,13.9-2
				C1223.8,1379.6,1229.3,1376,1235.1,1373.1z"/>
			<path d="M1201.8,1337c0.3-4.2-4.5-7.4-11.3-9.7c-0.1,0.1-0.1,0.2-0.2,0.3c-1.6,3.2-3.4,11.8-1.5,20.7
				C1194.4,1347.1,1201.2,1344.2,1201.8,1337z"/>
			<circle class="st16" cx="1219.7" cy="1339" r="2.5"/>
			<path class="st1" d="M681.7,1576.7l47.9-37.4c0,0,3.1,5.4,3.1,9s-76.5,69.3-89.5,67l-4.7-4.7L681.7,1576.7z"/>
			<path class="st1" d="M531.1,1579.1l-71.7,10.4c0,0-0.6,6.2,0.6,8.6c0,0,7.1,10.7,117.4-13l2.4-20.2L531.1,1579.1z"/>
			<path class="st7" d="M738.1,876.7l0.9-4.2c1.4-6.9-3.1-13.6-9.9-15l-26.1-5.4c-0.2,0-0.3,0-0.5-0.1
				C706.6,863,716.2,876.6,738.1,876.7z"/>
			<circle class="st16" cx="1216.8" cy="1353.9" r="2.5"/>
			<circle class="st16" cx="1233.7" cy="1354.9" r="2.5"/>
			<path class="st15" d="M1746,1326.6c-9.9-2-17.6,15.6-28,34.4c7.7,9.8,22,21,45,12.3C1762,1350.2,1755.2,1328.4,1746,1326.6z"/>
			<path class="st18" d="M1700.2,1346.5c0,0-15.9,13-19.9,31.9"/>
			<path class="st18" d="M1686.2,1346.5c0,0-8,8-11,15.9"/>
			<path class="st18" d="M1776.8,1385.3c0,0,4,25.9-13.9,41.8"/>
			<path class="st18" d="M1787.8,1403.2c0,0,2,12-6,19.9"/>
			<path d="M730.3,1542.3c0-5.9-7.1-8.3-11.8-15.3c-5,3.7-13,9.1-19,10.6c-5.3,1.2-10.6,2.2-16,2.9l0,0c-13,13-50.4,64.6-44.5,70.5
				S730.3,1548.2,730.3,1542.3z"/>
			<path d="M578,1576.1c2.5-2.5,3-13.6,0.7-26.1c-7.7,2.6-15.7,4-23.8,4.2c-3.8,0-7.1-1.2-13.6-4.2v0.1c0,0-84.2,32-81.8,40.3
				S574.4,1579.7,578,1576.1z"/>
			<line class="st19" x1="502.1" y1="1561.9" x2="512.8" y2="1571.4"/>
			<line class="st19" x1="510.4" y1="1558.3" x2="521.1" y2="1567.8"/>
			<line class="st19" x1="663.9" y1="1560.6" x2="678.2" y2="1560.8"/>
			<line class="st19" x1="659.1" y1="1567.7" x2="673.4" y2="1567.9"/>
			<path class="st19" d="M529.4,1558.3c0,0,6.1,20.3,15.5,16.1S529.4,1558.3,529.4,1558.3z"/>
			<path class="st19" d="M530,1558.8c0,0-5.3-20.6-14.8-16.7S530,1558.8,530,1558.8z"/>
			<path class="st19" d="M674.7,1554c0,0-5.3-20.6-14.8-16.7S674.7,1554,674.7,1554z"/>
			<path class="st19" d="M699.2,838.1c0,0,2.5,43.1,45.7,38.1"/>
			<path class="st19" d="M539.6,834.2c0,0,2.4,26.4-26.3,38.9"/>
			<path class="st19" d="M610.2,844.1c0,0-5.9,56.9,11.8,58.1"/>
			<path class="st19" d="M675.6,1554.9c0,0,16.1,13.8,21.7,5.2S675.6,1554.9,675.6,1554.9z"/>
			<polygon class="st20" points="580.9,1509.1 537.1,1509.1 535.9,1492.5 582.1,1492.5 			"/>
			<polygon class="st20" points="720.5,1489.5 676.7,1495.4 675.8,1478.3 721.9,1473.3 			"/>
			<path class="st9" d="M889.4,855.3c0,0,14.2,16.6,15.4,39.1s-24.9,34.4-35.6,16.6c0,0-11.9,7.1-11.9-13s10.7-40.3,8.3-49.8
				L889.4,855.3z"/>
			<path class="st10" d="M747.2,768.8c0,0,4.8,26.1,0,60.5c0,0-51.9,27.3-113.8,27.3c-73.5,0-104.3-16.6-117.4-24.9
				c0,0-8.5-11.9-6-47.4S747.2,768.8,747.2,768.8z"/>
			<path class="st10" d="M836.1,843.5l19,28.5c0,0,17.8,0,39.1-14.2l-8.3-33.2L836.1,843.5z"/>
			<path class="st21" d="M542.5,213.6c0,0-1.2,44.4,7.7,62.2s14.8-47.5,14.8-47.5L542.5,213.6z"/>
			<path class="st7" d="M619.5,398.9c0,0,79.4-10.7,131.5,42.7s156,376.8,136.4,391.2c-14.5,10.7-30,16.6-41.5,16.6
				c-17,0-35.6,10.7-81.8-129.2c0,0,3.2,90.1-64,103.1c0,0-22.8,7.1-59.6,7.1c-48.6,0-80-6.6-85-8.3c-12.5-4.2-41.5-16.6-46.2-28.5
				L538.8,425L619.5,398.9z"/>
			<path class="st19" d="M509.2,793.7c-21.3-34.4-20.1-188.5-5.9-267.9"/>
			<path class="st11" d="M636.1,401.8c-17.7,10-39.3,10-57,0v-71.6h57V401.8z"/>
			<path class="st11" d="M656.1,283.7c-1.5,26.2-16.3,76.7-50.9,76.7c-33.6,0-49.7-50.4-50-76.7c-0.5-52.9,7.4-81.6,50.5-81.1
				S658.5,240.6,656.1,283.7z"/>
			<path class="st21" d="M632.3,215.4c0,0,21.8,26.7,24,50.1l8.7,5.2c0,0,6.9-53.4-8.9-73.2S632.3,215.4,632.3,215.4z"/>
			<path class="st22" d="M548.7,271.3c0,0-4.2,0.6-4.4,4.4"/>
			<path class="st23" d="M600.9,280.8c0,0-5.8,17.4-2.3,19.7s9.3,0,9.3,0"/>
			<ellipse class="st21" cx="630.4" cy="270.1" rx="2" ry="3.2"/>
			<path class="st24" d="M636.1,401.8c-30.4,4.1-44.8-3.8-57-17v-54.6h57V401.8z"/>
			<ellipse class="st21" cx="578.6" cy="270.2" rx="2" ry="3.2"/>
			<path class="st25" d="M600.7,326.9c2.8,2.1,6.7,2.1,9.5,0"/>
			<path class="st23" d="M619.5,259c8.9-6.9,18.8,0,18.8,0"/>
			<path class="st23" d="M569,259c11.9-6.9,18.8,0,18.8,0"/>
			<path class="st21" d="M555.2,260.9c-5.9,0-27.8-64.9,5-85.1c25.7-15.8,57.4-2,68.3-3s19.7-8.9,21.7-10.9c4-4,2,22.8-3,29.7
				c0,0,16.8-4.9,26.7-13.9c2.9-2.6,1,37.6-29.7,42.5c-38.9,6.3-46.1,0.7-63.3,4.9C561.1,230.3,555.2,260.9,555.2,260.9z"/>
			<path class="st21" d="M657.6,297c-11.9,0-17.3,20.3-25.7,19.8c-9.9-0.5-12.8-12.8-26.7-11.8s-15.8,12.9-23.7,11.9
				s-20-20.6-25.4-22.2s-6.3-3.5-6.3-3.5s1.1,47.8,5,62.3c4.8,18.2,18,26.9,25.5,29.3c2.5,0.8,4.4,0.9,5.1,0.4
				c2.2-1.5,1.1-3.5,0.4-4.5c2.1,2.3,12.2,12.5,33.2,14.3c23.7,2,40.6,1,36.6-17.8c0,0,7.9-4,8.9-19.8c0,0,1.5-45-1.5-60.8
				C662.3,291.1,659.8,297,657.6,297z M605.1,333.6c-7.7,0-13.8-2-13.8-5.9c0-4.9,6.2-5.9,13.8-5.9s13.8,1,13.8,5.9
				S612.8,333.6,605.1,333.6L605.1,333.6z"/>
			<path class="st11" d="M563.6,281.2c0,9.3,1.2,18.5-16.8,16.8c-10.9-1-16.8-7.5-16.8-16.8c-0.2-9.3,7.1-17,16.4-17.2
				s17,7.1,17.2,16.4C563.6,280.7,563.6,280.9,563.6,281.2L563.6,281.2z"/>
			<path class="st23" d="M554.5,286.5c0,0-6.7-5.1,0.5-8.5c0,0-5-12-15.8-5.2"/>
			<path class="st11" d="M679.3,281.2c0,10.9-8.9,17.8-18.8,17.8c-13,0-14.8-8.5-14.8-17.8c-0.2-9.3,7.1-17,16.4-17.2
				s17,7.1,17.2,16.4C679.3,280.7,679.3,280.9,679.3,281.2z"/>
			<path class="st19" d="M747.5,538.8c0,0,22.5,142.3,16.6,181.4"/>
			<path class="st23" d="M654.7,287.7c0,0,6.7-5.1-0.5-8.5c0,0,5-12,15.8-5.2"/>
			<path class="st10" d="M636.1,398v3.8c-17.7,10-39.3,10-57,0v-4.7l0,0c-3.1,0.1-6.4,0.3-9.9,0.6c-0.7,1.5-1,3.1-1,4.8
				c0,9.6,17.8,19,39.5,19c19.8,0,41.2-9.2,41.2-19c0-1.4-0.2-2.7-0.6-4.1c-4.4-0.3-8.4-0.4-12-0.4L636.1,398z"/>
			<path class="st1" d="M718.7,871c0.7-3.2-1.4-6.3-4.6-7c0,0,0,0,0,0c-1.4-0.3-2.9,0-4.2,0.7c2.4,2.8,5.3,5.2,8.6,7.1
				C718.5,871.6,718.6,871.3,718.7,871z"/>
			<path class="st8" d="M1632.7,921h15.5c3.3,0,6,2.7,6,6v36.8c0,3.3-2.7,6-6,6h-15.5c-3.3,0-6-2.7-6-6V927
				C1626.6,923.7,1629.3,921,1632.7,921z"/>
			<path class="st8" d="M375.6,1077.1h15.5c3.3,0,6,2.7,6,6v36.8c0,3.3-2.7,6-6,6h-15.5c-3.3,0-6-2.7-6-6v-36.8
				C369.5,1079.8,372.2,1077.1,375.6,1077.1z"/>
			<path class="st8" d="M276.8,872.2h15.5c3.3,0,6,2.7,6,6V915c0,3.3-2.7,6-6,6h-15.5c-3.3,0-6-2.7-6-6v-36.8
				C270.8,874.9,273.5,872.2,276.8,872.2z"/>
			<path class="st8" d="M276.8,778.7h15.5c3.3,0,6,2.7,6,6v36.8c0,3.3-2.7,6-6,6h-15.5c-3.3,0-6-2.7-6-6v-36.8
				C270.8,781.4,273.5,778.7,276.8,778.7z"/>
			<path class="st8" d="M1682.6,986.8h15.5c3.3,0,6,2.7,6,6v36.8c0,3.3-2.7,6-6,6h-15.5c-3.3,0-6-2.7-6-6v-36.8
				C1676.5,989.5,1679.2,986.8,1682.6,986.8z"/>
			<path class="st8" d="M1387.4,1136.5h15.5c3.3,0,6,2.7,6,6v36.8c0,3.3-2.7,6-6,6h-15.5c-3.3,0-6-2.7-6-6v-36.8
				C1381.4,1139.2,1384.1,1136.5,1387.4,1136.5z"/>
			<path class="st8" d="M962.7,863.7h15.5c3.3,0,6,2.7,6,6v36.8c0,3.3-2.7,6-6,6h-15.5c-3.3,0-6-2.7-6-6v-36.8
				C956.7,866.4,959.4,863.7,962.7,863.7z"/>
			<path class="st26" d="M1267.2,1436.5c0.7,4,1.4,8.2,2.4,12.8c31.5-6.2,134.7-20.8,156.8-50l0,0l-0.2-0.1
				c-5.3,0.4-80.3,11.9-80.3,11.9L1267.2,1436.5z"/>
			<path class="st27" d="M1261.3,1428.7c0.1-6-0.8-10.4,7.6-9.6l0,0c0.5,0,94.6-12.4,145.8-34.5c7.8-3.4,9.7-1.4,12,3.7
				c2.4,5.5,3.7,9.8-4.9,13.2c-58.4,22.8-149.3,36.4-151.7,36.3C1261.4,1437.4,1261.3,1432.9,1261.3,1428.7z"/>
			<path class="st26" d="M1368.4,1566c3.8,1,8,1.9,12.7,2.7c12.7-31.7,47.9-133.1,36.9-167.6c-0.6,0.1-24.5,84.5-24.5,84.5
				L1368.4,1566z"/>
			<path class="st27" d="M1358.4,1569.1c-5.2-3-9.1-2.8-4.9-11.2l0,0c1.7-2.3,39.7-98.3,46.3-158.9c0.9-8.4,3.4-9.2,9-8.8
				c6,0.5,10.4,1.4,9.3,10.6c-7.8,62.2-46.5,162.7-47.5,164.8C1367.2,1573.4,1362.2,1571.2,1358.4,1569.1z"/>
			<path class="st8" d="M1070.7,976h15.5c3.3,0,6,2.7,6,6v36.8c0,3.3-2.7,6-6,6h-15.5c-3.3,0-6-2.7-6-6V982
				C1064.7,978.7,1067.4,976,1070.7,976z"/>
			<path class="st8" d="M1470.7,776h15.5c3.3,0,6,2.7,6,6v36.8c0,3.3-2.7,6-6,6h-15.5c-3.3,0-6-2.7-6-6V782
				C1464.7,778.7,1467.4,776,1470.7,776z"/>
		</g>
		<path class="st28" d="M569.1,381.4"/>
	</g>
	<path class="st23" d="M703.1,1526.6c0,0,5.2-7.8-2.6-12.9"/>
	<path class="st23" d="M557.3,1544.6c0,0,6.1-7.1-1-13.1"/>
	<path class="st15" d="M699.2,520.7c0,10.2-8.3,15.3-18.5,15.3s-18.5-5.1-18.5-15.3c0-10.2,8.3-18.5,18.5-18.5
		S699.3,510.5,699.2,520.7L699.2,520.7z"/>
	<path class="st15" d="M666.8,494.2c5.4-4.5,15,20.5,15,20.5l-18.5,10C663.3,524.7,660.9,499.1,666.8,494.2z"/>
	<path class="st15" d="M694.8,494.2c-5.4-4.5-15,20.5-15,20.5l18.5,10C698.2,524.7,700.7,499.1,694.8,494.2z"/>
	<path d="M685.2,523.2c0,1.4-2,4-4.5,4c-2.2-0.2-4.1-1.8-4.5-4c0-1.4,2-2.5,4.5-2.5S685.2,521.8,685.2,523.2z"/>
	<circle cx="674.5" cy="517" r="1.8"/>
	<circle cx="687" cy="517" r="1.8"/>
	<path class="st6" d="M683.2,529.9c0,2-1.1,3.6-2.5,3.6s-2.5-1.6-2.5-3.6"/>
</g>
</svg>
