<svg xmlns="http://www.w3.org/2000/svg" viewBox="0 0 2000 2000"><defs><style>.cls-1{fill:#a9e0ed;}.cls-16,.cls-2,.cls-22,.cls-24,.cls-25,.cls-26,.cls-28,.cls-31,.cls-32,.cls-6,.cls-7,.cls-9{fill:none;stroke-miterlimit:10;}.cls-2{stroke:#fe743b;}.cls-16,.cls-2,.cls-22,.cls-24,.cls-26,.cls-28,.cls-31,.cls-32,.cls-6,.cls-7,.cls-9{stroke-linecap:round;}.cls-2,.cls-22,.cls-25,.cls-26,.cls-28,.cls-9{stroke-width:1.72px;}.cls-3{fill:#a0291d;}.cls-4{fill:#939a4c;}.cls-5{fill:#838942;}.cls-6{stroke:#000;}.cls-6,.cls-7{stroke-width:3.17px;}.cls-7{stroke:#a9e0ed;}.cls-8{fill:#fe743b;}.cls-24,.cls-9{stroke:#bc3b13;}.cls-10{fill:#e55625;}.cls-11{fill:#d64c1d;}.cls-12{fill:#53141d;}.cls-13{fill:#ffe1c9;}.cls-14{fill:#6bb9c1;}.cls-15{fill:#ffc547;}.cls-16,.cls-31{stroke:#339daf;}.cls-16{stroke-width:2.19px;}.cls-17{fill:#edb035;}.cls-18{fill:#b23520;}.cls-19{fill:#21070c;}.cls-20{fill:#5db3c1;}.cls-21{fill:#339daf;}.cls-22,.cls-32{stroke:#821712;}.cls-23{fill:#821712;}.cls-24,.cls-31{stroke-width:1.72px;}.cls-25,.cls-26{stroke:#53141d;}.cls-27{fill:#ffb32c;}.cls-28{stroke:#a0291d;}.cls-29{fill:#6d7a36;}.cls-30{fill:#4e561c;}.cls-32{stroke-width:1.72px;}</style></defs><title>dogs</title><g id="Layer_1" data-name="Layer 1"><path class="cls-1" d="M767.73,1293.77S-57.59,1574.32,216.08,852.28,933.12,655,1023.33,423.7c87.08-223.33,293.73-301.39,515.5-154.91,297.68,196.61,437.87,658.51,305.05,955.35C1705.09,1534.29,767.73,1293.77,767.73,1293.77Z"/><path class="cls-2" d="M1226.74,538.32s-60.73,55.33,35.9,130.93"/><ellipse class="cls-3" cx="1213.83" cy="915.26" rx="5.16" ry="6.88"/><ellipse class="cls-3" cx="1219" cy="856.74" rx="5.16" ry="6.88"/><path class="cls-4" d="M147.7,1508.06s-70.56-85.85-38.49-211.18,147.36-147.05,201.31-137.16C413.59,1178.6,416.57,1253.63,499,1226S511.34,944.1,671.2,889.33s233.88,188,304.43,176.15,248.73-164.68,387.85-74.59c96.86,62.73,28.37,216.75,92,235.27,71.46,20.8,80.59-46.23,155-49.26,102.19-4.15,281.89,114.48,113.64,326.15Z"/><path class="cls-5" d="M1782.09,1284.1c-64.5,12.62-77.61,66.43-234.77,81.69-177.29,17.21-302.08-224.62-468.17-190.2s-128.23,187.62-432.89,204.83-275.39-55.94-426.86-57.66c-54.12-.62-92.08,16.13-118.53,37.91-.53,89.75,46.83,147.39,46.83,147.39l1576.47-5C1796.46,1412.11,1804.52,1338.34,1782.09,1284.1Z"/><path class="cls-6" d="M553.07,1201.1s331.1,12.63,846.82-170.93"/><path class="cls-7" d="M547.75,1201.69s-5.19-10.17,1.7-12.76,25.65,13.56,13.69,20.12"/><path class="cls-7" d="M444.56,1291.46s-12.13,5-14.85,13.54"/><path class="cls-6" d="M1474.88,1116c0,18.57-10.91,33.62-27.3,33.62s-29.67-15.05-29.67-33.62-4-92.27,18.2-94.56C1459.06,1019.11,1474.88,1097.46,1474.88,1116Z"/><path class="cls-6" d="M1436.11,1021.48s34.82-7.12,45.1,34"/><path class="cls-8" d="M1301.42,494.36s71.86-56,106.73,0-47.55,112-49.67,108.85-60.23,77.15-60.23,77.15-59.18,5.28-58.13-47.56c0,0-45.44-39.1-13.74-94,0,0-23.24-62.35,42.28-65.52s89.82,31.7,89.82,31.7Z"/><path class="cls-9" d="M1346.86,483.55s70.39,12.55,23.33,112.4"/><path class="cls-9" d="M1278.57,649.09s-67.63-23.19-5.81-114.65"/><path class="cls-9" d="M1294.93,649.09s-67.64-23.19-5.82-114.65"/><path class="cls-8" d="M850.78,1312.58s36.38-10.83,58.57-.27,29.59,48.62,41.21,50.73,22.2-7.4,29.59,0,3.17,41.21-35.93,41.21-46.14-55.47-55-68.69C880.82,1322.88,850.78,1312.58,850.78,1312.58Z"/><path class="cls-10" d="M525.74,1366.21l-40.16,93s-9.51,15.85,0,30.64,30.85,46.07,42.27,51.79c14.8,7.39,45.23-5.4,20.08-18-2.11-1.06-4.23-1.06-7.4-1.06,0,0-25.36-35.93-23.25-43.33s43.33-44.38,43.33-44.38Z"/><path class="cls-11" d="M696.94,1427.5s14.79,42.27,35.93,61.3,59.18,27.47,50.72,44.38-24.3,39.1-24.3,39.1-26.42,3.17-26.42,21.14H771.2a10.92,10.92,0,0,0,8.3-3.82c12-14,52.7-63,52.7-82.84,0-21.13-15.85-44.38-15.85-44.38l-20.08-49.67H719.13Z"/><path class="cls-8" d="M449.65,1291.18c18.42,39.61,81.37,135.27,87.71,151.12s18,90.88,30.65,118.36c0,0-33.86,17.36-14.8,21.13,7.3,1.45,25,.91,35.4.43a7.37,7.37,0,0,0,7-8.21c-3.07-26.71-11.44-114.46,7.29-141.22,0,0,86.66,16.9,158.52,4.22,0,0,48.61,77.15,157.46,79.26,15.6.31,32.76,47.56,31.7,55,0,0-19,10.56-14.79,19h35.15c6.37,0,6.19-18.75,5-22.2-11.63-33.81-3.17-61.29-19-69.74-33.11-17.66-46.9-88.1-52.83-120.48-11.63-63.4-57.07-103.56-167-117.3-135.53-16.94-211.08-70.36-214.52-76.09-6.34-10.57-15.86-24.3-22.2-30.64-5.83-5.84-12.68-14.8-12.68-26.42s-7.4-67.64-23.25-48.62-18,49.67-18,49.67-48.61,24.31-58.13,35.93-10.56,18-10.56,18-62.35,24.3-61.3,32.76,26.36,47.21,56,42.27C416.89,1250,428.51,1245.74,449.65,1291.18Z"/><path class="cls-11" d="M399.64,1167.41l9.85,3.28s-3.22-.49-9.85-1.09c-12.05-1.1-11.74-4.86-10.25-6.26Z"/><path class="cls-12" d="M856.31,1299.74c-26.52-19.24-65-32.44-119.22-39.21-48.9-6.11-90-17-122.7-28.63.31,42.93-2.88,142.14,45.56,148,43.33,5.28,44.38-38,69.75-34.88C755.6,1348.31,837.49,1359.87,856.31,1299.74Z"/><path class="cls-13" d="M1428.23,1004.79s-9.49,33.55,6.34,34.87c12.68,1.06,13.74-4.22,13.74-4.22s6.34,21.13,9.51,20.07-11.62-50.72-11.62-50.72Z"/><path class="cls-3" d="M1224.27,926.59s-37,210.3-96.17,265.25c0,0,24.31,31.7,117.31,31.7s43.32-96.16,43.32-96.16Z"/><path class="cls-10" d="M526.21,1232l-72.74,67c1.58,3.08,3.33,6.39,5.22,9.86,0,0,77-44.17,101.94-95.81Z"/><path class="cls-13" d="M1338.4,545.09s40.16,76.09,44.39,98.28l-46.5,28.53s-26.42-72.92-40.16-81.37S1338.4,545.09,1338.4,545.09Z"/><path class="cls-13" d="M1245.41,1141.11s-31.71,109.91-30.65,232.5-1.06,178.59-1.06,178.59-45.44,8.46-45.44,13.74,60.24,18.79,60.24,18.79a4,4,0,0,0,5.09-3c6.77-33.84,51.81-255.31,75.22-276.77,25.37-23.25,6.34-170.15,6.34-170.15Z"/><path class="cls-14" d="M1245.41,1141.11s-31.71,109.91-30.65,232.5c.65,75.36.1,125.55-.42,153l29.57,5.18c16.41-77,47-210.49,64.9-226.91,25.37-23.25,6.34-170.15,6.34-170.15Z"/><path class="cls-13" d="M1297.84,975.83a3.39,3.39,0,0,0-4.57,3.19c.06,37.07.84,274.94,11.62,348.09,13.54,91.9,62.51,211.24,70.7,230.79a3.4,3.4,0,0,1-1.43,4.25c-8.24,4.76-33.33,19.59-34.4,23.87s62.29,0,62.29,0a3.59,3.59,0,0,0,3.54-4.21c-5.07-28.83-33.56-199.06-18.27-302.26,4-27.1,11-62.14,18.66-97.38,14.64-67.29-87.48-110.09-83.71-124.91.43-1.69,38.64-26.94,37-27.54Z"/><path class="cls-1" d="M1397.81,1532.54c-9.37-65.58-21.7-177.31-10.49-253,4-27.1,11-62.14,18.66-97.38,14.63-67.24-50.49-111.75-46.71-126.63.44-1.71,1.66-25.21,0-25.82l-66-55.58s-.08,273.55,11.62,353c11.22,76.12,46.73,171.06,63.25,212.53A230.62,230.62,0,0,0,1397.81,1532.54Z"/><path class="cls-15" d="M1333.71,653.47s-172.36,6.94-244.79,184.13-240.5,101.33-240.5,101.33-4.35,96.83,38,113.38c0,0,141,51.37,240.5-113.7C1215.3,792,1238,706.55,1359,700.16"/><path class="cls-14" d="M1296.2,1185c.58,19.94,1.29,39.52,2.13,57.82,11.25,3,39.37,6.48,96.47-6.39,2.62-13.62,5.55-28,8.65-42.48Z"/><path class="cls-9" d="M1227.37,1540.88s8-4.78,3.21-12.77"/><path class="cls-16" d="M1297.4,1226.18c0,22.36,6,89.24,6,89.24"/><path class="cls-17" d="M1288.71,676C1192.32,750,1157,886.86,1079.58,975.5c-77.6,88.81-179,70.17-212.31,60.33,5,7.52,11.25,13.39,19.14,16.48,0,0,141,51.37,240.5-113.7,67.8-112.47,96.94-188.94,161.46-221.34C1281.94,713.62,1298.09,668.8,1288.71,676Z"/><path class="cls-18" d="M1382.79,608.49s-183.88,20.08-168,376.22l20.08,249.4s117.3,7.4,173.31-15.85C1408.15,1218.26,1471.56,686.7,1382.79,608.49Z"/><path class="cls-3" d="M1355.57,782.09s45.16,252.09,67.89,264.92c2.77-41.63,5.1-87.46,6.1-133.44Z"/><path class="cls-9" d="M1386.81,1544.36s5.17-7.74-2.58-12.91"/><path class="cls-13" d="M1268.13,484.32s-24.31,1.06-24.31,32.76,11.63,90.89,38,89.83,46.49-31.7,44.38-49.67,8.45-31.7-3.17-48.61S1288.21,479,1268.13,484.32Z"/><path class="cls-12" d="M450.71,1234.11c6.34-27.48-18-25.36-39.11-24.31-11.54.58-24.67-14-34.2-27.32-5.25,2.06-61.91,24.55-60.91,32.61,1.06,8.45,26.36,47.21,56,42.27,29.9-5,44.93-8.52,58,3.58C439.34,1254.87,447.94,1246.1,450.71,1234.11Z"/><path class="cls-18" d="M1416.61,685.64c-10.57-14.79-69.75-30.65-69.75,38,0,76.45,77.14,287.45,77.14,287.45h26.42S1466.61,755.65,1416.61,685.64Z"/><path class="cls-19" d="M403.12,1181.14c0,3.21-.84,6.07-3.17,5.81-1.74-.2-3.17-2.6-3.17-5.81s1.2-5.68,3.17-5.82C402.28,1175.16,403.12,1177.93,403.12,1181.14Z"/><path class="cls-13" d="M1351.08,535.05c0,11.38-12.85,20.61-22.19,20.61s-11.62-9.23-11.62-20.61,7.57-20.61,16.91-20.61S1351.08,523.67,1351.08,535.05Z"/><path class="cls-8" d="M1349,471.11s-12.68-34.87-50.72-32.76-55,45.44-39.11,71.86,66.58,28.54,75-2.11S1354.26,469,1349,471.11Z"/><path class="cls-18" d="M441.53,1294.44c-3.26-6.52-6.68-10.66,2.73-14.54h0c.57-.29,57.76-28.82,100.36-81.16,6.48-8,9.65-6.9,14.93-2.67,5.7,4.55,9.51,8.45,2.12,16.91-49.9,57-103,85.11-105.59,86.31C446.48,1303.86,443.85,1299.07,441.53,1294.44Z"/><path class="cls-15" d="M1372.52,1560.66s-31.47,20.23-32.76,25.36c-1,4.23,62.29,0,62.29,0,2.23,0,3.63-2,3.54-4.21-.31-7.41-1.36-18-2.42-34.89h-33.82C1371.47,1555.37,1372.52,1560.66,1372.52,1560.66Z"/><path class="cls-15" d="M1209.63,1551.48s-41.37,7.06-43.58,14c-1.32,4.16,62.93,21.87,62.93,21.87,2.11.74,4.09-.66,4.74-2.79,2.2-7.09,5.79-17.4,10.44-33.69l-31.88-11.3C1211.45,1548.26,1209.63,1551.48,1209.63,1551.48Z"/><path class="cls-20" d="M1368.14,1539.64a230.62,230.62,0,0,0,29.67-7.1c-.47-3.32-1-6.76-1.44-10.31l-31.65,8.73C1365.93,1534.06,1367.08,1537,1368.14,1539.64Z"/><path class="cls-21" d="M1214.5,1517.23c0,3.39-.1,6.54-.16,9.42l29.57,5.18c.64-3,1.3-6.09,2-9.25Z"/><path class="cls-17" d="M1351.08,631.74s48.19,36.34,60,31.38-.85-38.77-11.41-43S1351.08,631.74,1351.08,631.74Z"/><path d="M316.49,1215.09c.3,2.38,2.53,7.17,6.23,12.72,3.68-3.76,7.33-8.17,9.27-12.43a19.23,19.23,0,0,0,1.27-13.25C323.5,1207.24,316.12,1212.13,316.49,1215.09Z"/><ellipse class="cls-15" cx="434.99" cy="1311.14" rx="9.47" ry="11.19"/><path class="cls-7" d="M449.62,1291.35C447,1300,435,1305.12,435,1305.12"/><path class="cls-11" d="M466.83,1114.92c1.31-10,2.37-28-.43-38.16a17,17,0,0,0-2,2c-12.48,15-16.44,37.17-17.56,45.92C452.24,1126.93,464.81,1130.42,466.83,1114.92Z"/><path class="cls-11" d="M975,1392.85c-4.82.83-11.82,1.82-21.08,2.63-19.79,1.72-64.66-59.92-64.66-59.92,8.81,13.22,15.85,68.69,55,68.69C959.12,1404.25,969,1399.34,975,1392.85Z"/><path class="cls-22" d="M1257.72,546.92s-4.3,12.91-1.72,14.63,6.89,0,6.89,0"/><ellipse class="cls-23" cx="1267.62" cy="538.32" rx="2.15" ry="3.44"/><ellipse class="cls-23" cx="1249.55" cy="541.76" rx="2.15" ry="3.44"/><path class="cls-22" d="M1259.84,581.27a8.8,8.8,0,0,0,10.39-1.57"/><path class="cls-9" d="M1303.59,599.05s19.13-13.09,20.63-27.45"/><path class="cls-9" d="M1321.41,551.23s11,7.54,21.86-1"/><path class="cls-24" d="M762.88,1439.37s-17.22-18.93-17.22-56.8"/><path class="cls-9" d="M867.69,1309s23.53,18.54,33.8,57.23"/><path class="cls-9" d="M511.88,1398.29s28.58,42.55,28.77,55.15"/><path class="cls-9" d="M431,1321.27c6.6,1.92,16.92-2.39,11.33-17.23"/><circle class="cls-11" cx="357.53" cy="1213.03" r="1.72"/><circle class="cls-11" cx="356.24" cy="1229.81" r="2.15"/><circle class="cls-11" cx="368.72" cy="1219.05" r="1.72"/><circle class="cls-25" cx="328.27" cy="1220.78" r="3.44"/><path class="cls-9" d="M502.11,1220.78s20.66-19.8,20.66-36.15"/><path class="cls-12" d="M950.56,1363c-4.72-.86-8.75-7.65-13.35-16.12a26.68,26.68,0,0,0-7,12.1c-3.88,14.37,2.16,32.66,24,40.94,2.06.79,4,1.46,5.94,2,24.25-7.69,26.28-32.72,20-39C972.76,1355.64,962.19,1365.15,950.56,1363Z"/><path class="cls-26" d="M389.37,1163.12s.41-.09,20.58,7"/><path class="cls-27" d="M1402.05,1586c2.23,0,3.63-2,3.54-4.21,0-.63-.06-1.3-.1-2l-63.44,3.11a8.64,8.64,0,0,0-2.29,3.08C1338.71,1590.25,1402.05,1586,1402.05,1586Z"/><path class="cls-27" d="M1234.24,1582.93l-64.4-20.77c-2,1.1-3.43,2.22-3.79,3.34-1.32,4.16,62.93,21.87,62.93,21.87,2.11.74,4.09-.66,4.74-2.79Z"/><path class="cls-23" d="M1424.86,1012a.87.87,0,0,1-.81-.57c-.77-2.11-77.19-212-77.19-287.74,0-22.7,6.64-38.8,19.2-46.56,13.79-8.51,31.18-5.26,41.89.11a35.15,35.15,0,0,1,7.48,4.93.87.87,0,0,1,.08,1.22.88.88,0,0,1-1.22.07,33.16,33.16,0,0,0-7.12-4.69c-10.3-5.16-27-8.31-40.21-.17-12,7.42-18.38,23-18.38,45.09,0,75.43,76.32,285.05,77.09,287.15a.87.87,0,0,1-.51,1.11A1,1,0,0,1,1424.86,1012Z"/><path class="cls-9" d="M1429.84,1031.44s8.61,5.17,16.36,0"/><path class="cls-9" d="M1329.71,525.37s4.61.9,4.61,5.2"/><path class="cls-9" d="M1322.27,541.76s7.74-5.16,0-9.47c0,0,6.34-12.88,17.8-4.72"/><path class="cls-23" d="M1232,1199.91a.85.85,0,0,1-.85-.79l-17.12-224a.86.86,0,0,1,.79-.93.87.87,0,0,1,.92.79l17.12,224a.86.86,0,0,1-.79.92Z"/><path class="cls-28" d="M1275.8,684.62s-5-6.3-6-16.92"/><path class="cls-2" d="M1275.8,458.28s50-54.62,80.06,11.85"/><path class="cls-2" d="M1391.2,477.84s77.93,45.57-10.13,108.53"/><path class="cls-15" d="M1358.48,581s-34.06,13-59.4,31.11c-10.6,7.59-19.67,16.08-24.08,24.9-10.57,21.13-2.12,47.43,1,47.44,27.74.09,60.31-43.75,95.11-49.56,19-3.17,25.63,0,31.71-7.39C1413.37,614.74,1382.79,567.28,1358.48,581Z"/><path class="cls-28" d="M1366.82,635.84c19.13-4.58,36.63.55,37.78-11.91"/><path class="cls-29" d="M1572.68,1738.39c12.8-110.36-39.57-291.91-116.79-235.45-57.52,42,.8,159.91,47.28,235.45Z"/><path class="cls-30" d="M1542.1,1738.39h3.53c-29.36-127.2-69-208.12-69.49-209a1.72,1.72,0,1,0-3.09,1.53C1473.5,1531.8,1512.86,1612.06,1542.1,1738.39Z"/><path class="cls-28" d="M1275.8,684.62s-5-6.3-6-16.92"/><path class="cls-4" d="M1618.22,1738.39c67.55-70.9,155.49-184,125.85-267.77-46.46-131.3-174.39-54.54-195.94,68-12.27,69.81-10.56,146.59-6.81,199.77Z"/><path class="cls-15" d="M761,687.84s-88.31-4.17-112.84-49.61a38.73,38.73,0,0,1,15.69-52.48c18.82-10.16,40.18-1.82,52.47,15.69C733.2,625.55,761,687.84,761,687.84Z"/><path class="cls-8" d="M548.09,851s-49.91,28-79,11.43a25.07,25.07,0,0,1-9.37-34.19c6.85-12,21.44-14.77,34.19-9.37C511.51,826.3,548.09,851,548.09,851Z"/><path class="cls-15" d="M606.87,627.47s-29.2-3.31-36.34-18.93a12.87,12.87,0,0,1,6.35-17.06c6.47-3,13.37.28,17.07,6.35C599,606.2,606.87,627.47,606.87,627.47Z"/><path class="cls-15" d="M1564.19,1747.13s-61.49,18.95-89.49-6.11a28.17,28.17,0,0,1-2.22-39.79c10.38-11.61,27.07-11.17,39.8-2.22C1529.82,1711.34,1564.19,1747.13,1564.19,1747.13Z"/><path class="cls-22" d="M1263.75,530.57c5.16-6,12.91,0,12.91,0"/><path class="cls-22" d="M1252.56,531.43c-4.3-3.44-7.75.86-7.75.86"/><path class="cls-31" d="M1317.4,1354.69s0,25.18,7.66,32.85"/><path class="cls-31" d="M1222.11,1354.69s-5.47,23,0,32.85"/><path class="cls-9" d="M455.39,1126.68s8.86.21,10.16-6.67"/><path class="cls-9" d="M614.29,1404s-5.48,19.71-10.95,28.47"/><path class="cls-29" d="M1574.44,1738.39c7.75-60.34,30-124.4,48.64-170.24a1068.65,1068.65,0,0,1,46.66-100,1.72,1.72,0,1,0-3-1.66,1074.1,1074.1,0,0,0-46.81,100.34C1589,1642.75,1576,1699.32,1571,1738.39Z"/><path class="cls-32" d="M1338.65,1002.47s-65.71,2.19-66.21-62.35"/></g></svg>