<?xml version="1.0" encoding="utf-8"?>
<!-- Generator: Adobe Illustrator 23.1.1, SVG Export Plug-In . SVG Version: 6.00 Build 0)  -->
<svg version="1.1" id="Layer_1" xmlns="http://www.w3.org/2000/svg" xmlns:xlink="http://www.w3.org/1999/xlink" x="0px" y="0px"
	 viewBox="0 0 2000 2000" style="enable-background:new 0 0 2000 2000;" xml:space="preserve">
<style type="text/css">
	.st0{fill:#FFE1C9;}
	.st1{fill:#FFDC6A;}
	.st2{clip-path:url(#SVGID_2_);}
	.st3{fill:#F2D1BB;}
	.st4{fill:#FFAECF;}
	.st5{fill:#E293B7;}
	.st6{fill:none;stroke:#E293B7;stroke-width:2.39;stroke-linecap:round;stroke-miterlimit:10;}
	.st7{fill:#CEE87C;}
	.st8{fill:#D36295;}
	.st9{fill:#AF6487;}
	.st10{fill:none;stroke:#FFFFFF;stroke-width:2.39;stroke-linecap:round;stroke-miterlimit:10;}
	.st11{fill:#F9EDE1;}
	.st12{fill:#EACEBB;}
	.st13{fill:#FFFFFF;}
	.st14{fill:#894C1F;}
	.st15{fill:#D178A5;}
	.st16{fill:#301E10;}
	.st17{fill:none;stroke:#AF6487;stroke-width:2.39;stroke-linecap:round;stroke-miterlimit:10;}
	.st18{fill:none;stroke:#603813;stroke-width:2.39;stroke-linecap:round;stroke-miterlimit:10;}
	.st19{fill:none;stroke:#CEE87C;stroke-width:2.39;stroke-linecap:round;stroke-miterlimit:10;}
	.st20{fill:none;stroke:#FFDC6A;stroke-width:2.39;stroke-linecap:round;stroke-miterlimit:10;}
	.st21{fill:none;stroke:#FFDC6A;stroke-width:2.9;stroke-linecap:round;stroke-miterlimit:10;}
	.st22{fill:#B5CC34;}
	.st23{fill:none;stroke:#B5CC34;stroke-width:3.58;stroke-linecap:round;stroke-miterlimit:10;}
	.st24{fill:#88AC40;}
	.st25{fill:none;stroke:#88AC40;stroke-width:3.58;stroke-linecap:round;stroke-miterlimit:10;}
</style>
<title>dogs</title>
<g>
	<path class="st0" d="M818.4,961.5c0,0,2.4,58.5,14.3,68.1c11.9,9.5-34.6,38.2-34.6,38.2l-42.6-20.4L818.4,961.5z"/>
	<circle class="st1" cx="1744.2" cy="369" r="151.7"/>
	<g>
		<defs>
			<path id="SVGID_1_" d="M1896.8,1258.3c0.7-102.7-8-540.1-208.2-559.1c-198.8-18.8-143.3-342.8-264-390.6
				c-158.5-62.8-296.9,78.1-395.4,80C847.6,392.2,801,216.6,672,240.5C464,279,552.9,557.4,458.2,603.6
				c-55.9,27.3-111.3-105.9-241.3-60.9c-222.4,76.9-52,684-43.3,714.3h-2.1c0,0,75.3,279.5,229.4,291.5
				c214.3,16.6,187.5-174.4,346.4-100.3s359.6,381.1,674.9,328.5s259.2-377.5,336.9-376.3
				C1817.4,1401.3,1901.6,1361.3,1896.8,1258.3z"/>
		</defs>
		<clipPath id="SVGID_2_">
			<use xlink:href="#SVGID_1_"  style="overflow:visible;"/>
		</clipPath>
		<g class="st2">
			<path class="st0" d="M888.2,1011c0,0,124.2-9.6,144.5,10.8c38.2,38.2-10.8,93.2-45.4,145.7s-51.4,74.1-51.4,74.1l-26.9-43.6
				c0,0-4.8-63.3,18.5-75.9c5.7-3-46.6,17.9-46.6,17.9L888.2,1011z"/>
			<path class="st3" d="M888.2,1011l-1,17.6c3.6,2.9,7.6,5.5,11.7,7.5c60.5,29.2,114.8,22.5,142.9,42.3c4.4-12.2,6.1-24,3.5-34.8"/>
			<ellipse transform="matrix(0.569 -0.8223 0.8223 0.569 -219.0168 1029.621)" class="st4" cx="872.7" cy="723.7" rx="3" ry="6"/>
			<ellipse transform="matrix(0.569 -0.8223 0.8223 0.569 -214.5305 1031.0273)" class="st4" cx="876.3" cy="720.2" rx="3" ry="6"/>
			<path class="st5" d="M901.4,1007.4c0,0-25.1,100.3,1.2,130.2c0,0-21.5,21.5-119.5,6s-98-108.7-98-108.7l93.8-3
				C778.9,1031.9,816.6,1000.2,901.4,1007.4z"/>
			<path class="st0" d="M783.1,659.8c0,0-3.6,77.6-20.3,90.8s56.2,60.9,56.2,60.9v-20.3c0,0-7.2-1.2,8.4-58.5s6-74.1,6-74.1
				L783.1,659.8z"/>
			<path class="st0" d="M889.7,614.7c0,0,28.8,9.5,19.4,42.8c-2.8,9.5-6.4,18.7-10.7,27.7c-1.3,2.9-1,9.2,0.3,14.1
				c1.1,4.4,3.2,6.2,1.5,8.4c-0.9,1.2-3.6,1.5-7.2,0.9c-2.9-0.5-6.8-1-7.5,0.1c-14.3,22.6-32.2,40.6-47.8,35.5
				c-27.4-8.9-38.2-47-30.7-65.3s0.5-35.8,17.7-50.1S870.2,603.2,889.7,614.7z"/>
			<path class="st4" d="M907.3,601.2c0,0-26.2-67.5-105.1-37c-68.1,26.3-34.6,125.4-22.7,131.4l25.1-22.7l12.7-37.1
				c0,0,66.2,7.3,94.8,18.8c1.7-3.2,2.6-6.8,2.5-10.4c0.8,3.9,0.8,8,0,11.9c2.6,1.2,6,2.4,7.2,3.6
				C921.7,659.8,932.4,618,907.3,601.2z"/>
			<path class="st0" d="M787.6,648.1c-3.4,12,7.4,25.4,17.2,28.2s14.9-6.2,18.3-18.2s-1.8-23.9-11.7-26.6S790.9,636.2,787.6,648.1z"
				/>
			<path class="st6" d="M808.2,676.5c-15.5,38.2,17.9,60.9,17.9,60.9"/>
			<path class="st6" d="M808.2,676.5c-2.4-0.1-4.8-0.5-7.2-1.2"/>
			<path class="st6" d="M812.9,644.3c0,0-5.1-0.4-6.4,4.1"/>
			<path class="st6" d="M815.8,663.7c0,0-6.6-7.7,2.8-9.9c0,0-2.8-15.4-17.3-10.2"/>
			<path class="st7" d="M171.5,1257.1c0,0,75.3,279.5,229.4,291.5c214.3,16.6,187.5-174.4,346.4-100.3s359.6,381.1,674.9,328.5
				s259.2-377.5,336.9-376.3c59.5,0.9,145.7-40.6,137.4-148.1L171.5,1257.1z"/>
			<path class="st8" d="M865.5,1304.8c0,0-27.5,17.9-13.1,22.7h65L865.5,1304.8z"/>
			<path class="st4" d="M812.1,561.6c0,0-14.6-10.5-15.8-42.8s-40.6-40.6-60.9-26.3c-23.8,16.8-63.3-4.8-83.6,22.7
				c-14.8,20-6.2,32.5-14.3,59.7c-7.2,23.9-56.1,46.6-7.2,138.6h20.3c0,0-9.6-6-11.9-29.9c-1.2-11.9,1.1-18.4,3.6-31.1
				c0,0-1,22.4,1.2,34.6s6,15.5,12,27.5l52.6,1.2c0,0,1.2-9.5-1.2-16.7c0,0,6,10.8,4.8,15.5l13.7-6.6c0,0,4.8-8.4,0-32.3
				s3.6-32.2,21.5-56.1s0-44.2,14.3-57.3s27.1-10.1,37.4,4.5S812.1,561.6,812.1,561.6z"/>
			<path class="st9" d="M886.3,674.5c1.2,0.5,1.5,2.5,0.7,4.4s-2.4,3.1-3.6,2.6s-1.5-2.5-0.7-4.4S885.1,674,886.3,674.5"/>
			<path class="st0" d="M846.4,1124.5c0,0,149,102.3,180.4,146.9c22.7,32.2,17.9,76.4-57.3,66.9s-232-50.7-242.5-55v22.7
				c0,0,19.1,8.4,20.3,15.5s-38.2,3.6-40.6,1.2s-38.2-84.4-10.8-85.8S846.4,1124.5,846.4,1124.5z"/>
			<path class="st10" d="M957.5,1300.1c0,0-155.3-37-174.4-46.6"/>
			<path class="st4" d="M727,1306v-21.8c-0.4-0.3-0.8-0.6-1.2-0.9c-22.7-16.7-8.4-41.8-8.4-41.8l-3.2-12
				c-7.8,4.5-27.9,10.8-27.9,10.8s-10.8,26.3,20.3,82.4c1.6,3,40,6,40.6-1.2C748.5,1307.2,727,1306,727,1306z"/>
			<path class="st11" d="M1212,1234.4c0,0-3.6,60.9,15.5,96.8c0,0-13.1-1.2-15.5,9.6h29.8c2.9,0,5.3-2.4,5.3-5.3c0-0.2,0-0.4,0-0.6
				c-1.4-13-3.5-45.4,6.7-74.2C1266.9,1223.6,1212,1234.4,1212,1234.4z"/>
			<path class="st8" d="M709,1300.1c-3.6-7.2-6.1-0.3-8.4-2.4c-6.9-6.1,1.2-27.5-1.2-37s3.6-19.1,6-21.5c0.8-0.8-0.8-2.4-3.3-4.3
				c-7.8,3-15.8,5.5-15.8,5.5s-14.3,29.9,16.7,86c1.6,3,44.2,8.4,44.2-4.8c0,0-34.7-0.3-35.8-2.4
				C706.7,1310.8,712.6,1307.2,709,1300.1z"/>
			<path class="st4" d="M879.8,666c-0.4,0.3-1.7,1.3-0.7,1.8s5.8-0.5,11.3,0.9s2.3-5.7,0.5-5.3c-0.6,0.1-0.3,2.3-0.3,2.3
				s-0.8-2.2-1.6-1.9c-0.6,0.2,0.1,1.7,0.1,1.7s-0.8-1.2-1.6-1.4C884.8,663.7,882,664.4,879.8,666z"/>
			<path class="st12" d="M1216.1,1233.7l-4.4,13.9c0,5.3,0.2,11.8,0.7,19.1c4.9,3.8,12.5,0,21.1,10.7c4.8,6,9.4,17.8,13.1,17.9
				c1.2-6,5.1-28.8,7.2-34.6C1264.7,1229.9,1228.6,1232.1,1216.1,1233.7z"/>
			<path class="st13" d="M710.2,1051.6l-68.1-11.9c0,0-7.9-3.4-10.8-17.9c-1.2-6.3,1.2-15.4,1.2-26.3c0,0-22.4-14.3-8.4-27.5
				c17.9-16.7,14.3-16.7,28.7-39.4c26.1-41.4,52.6-146.9,107.5-178c0,0,20.3,22.7,58.5,41.8c0,0,40.6,53.8,23.9,112.3
				s-27.5,93.2-27.5,102.7s-13.1,40.6-33.5,39.4S710.2,1051.6,710.2,1051.6z"/>
			<path class="st6" d="M702,1050.1c23.8-17.6,30.9-41.5,30.9-41.5"/>
			<path class="st5" d="M865.5,1134c0,0-32.2-26.5-81.5-41.9l-0.2-0.1c3.8-10.1,8.2-27.1,5.2-46.5l-146.9-6c0,0-77.7,126.6,0,178
				c71.1,47,142.1,39.4,142.1,39.4S833.3,1220,865.5,1134z"/>
			<path class="st11" d="M1422.2,1234.4l-27.5,8.4c0,0,7.2,43,27.5,56.2c0,0-2.4,27.5-8.4,32.2s-13.1,9.6-13.1,17.9h14.8
				c4.3,0,8.3-2.1,10.7-5.6c7.4-10.6,22.6-33.8,23.4-48.2c0.7-11.5,0.7-23.1,0-34.6L1422.2,1234.4z"/>
			<path class="st12" d="M1422.2,1234.4l-28.7,8.4l4.5,14.3c0,0,10.7-1.4,19.3,3.6c15.2,8.7,32.6,27.4,32.7,25.5
				c0.4-14.7-0.4-25.5-0.4-25.5L1422.2,1234.4z"/>
			<path class="st11" d="M1501.1,1251.1c-1.8-18.9-14.4-64.1-50.6-88.4c42.1-39.8,2.6-85.9-3.2-83.6s-3.6,8.4,0,37
				c2.1,17.1-8.9,29.1-18.1,36c-7.3-2.5-14.8-4.1-22.5-4.9c-70.5-7.2-123,8.4-142.2-22.7s-32-65.7-47.8-70.5
				c-8.5-2.6-26.5-4.2-39.5-1.8c-15.4,3-23.8,17.3-39.6,14.2c-16.7-3.3-42.4-8.5-45.2-6.5s-18.2,37.2,36.8,53.7
				s44.3,67.4,55.3,102.8c10.8,34.6,29.9,45.4,57.3,52.6c37.4,9.8,66.9,3.6,90.8-1.2c26.7-5.3,77.4-31.4,92-15.5
				c14.3,15.5,37,34.6,63.3,41.8c0,0-3.6,31.1-10.8,39.4s-14.3,10.8-13.1,15.5h15.3c4.8,0,9.3-2.3,12.2-6.1
				c7-9.4,19.6-28.5,23.8-48.8C1521.3,1265.4,1503.4,1276.2,1501.1,1251.1z"/>
			<path class="st14" d="M1216.7,1054c-8.5-2.6-26.5-4.2-39.5-1.8c-10.6,2-17.8,9.4-26.4,12.8c-0.5,6.6-0.2,15,3.7,20.2
				c7.3,9.7,2.4,13.8,4.6,17.4s8.3-1.1,12.6,0.6s19.1,7,32,3.8c9.1-2.3,26-18.5,35.3-28.1C1231.6,1065.9,1224.5,1056.3,1216.7,1054z
				"/>
			<path class="st6" d="M819,792.4c0,0,40.6,53.8,23.9,112.3s-27.5,93.2-27.5,102.7s-13.1,40.6-33.5,39.4s-71.7,4.8-71.7,4.8
				l-68.1-11.9c0,0-7.9-3.4-10.8-17.9c-1.2-6.3,1.2-15.4,1.2-26.3c0,0-22.4-14.3-8.4-27.5c17.9-16.7,14.3-16.7,28.7-39.4
				c26.1-41.4,52.6-145.7,107.5-176.8"/>
			<path class="st5" d="M832.9,939.3L725.7,837c0,43,15.2,91.6,96.1,141.1C824.7,967.6,828.4,954.7,832.9,939.3z"/>
			<path class="st15" d="M866.4,1006.5c5.8,7.7,16.7,20.6,29.4,27.9c2.7-15.9,5.5-27,5.5-27C889.8,1006.4,878.1,1006.1,866.4,1006.5
				z"/>
			<path class="st14" d="M1209.6,1052.1c0,0,21.3-8.1,26.9-3.4s19.7,20.3,17.2,25.6s-20.3,32.2-30.7,32.2c-5.1,0,0.3-24.4-6.6-39.4
				L1209.6,1052.1z"/>
			<path class="st14" d="M1447.3,1079.1c-6,2.4-3.6,8.4,0,37c0.1,0.5,0.1,0.9,0.2,1.4c5.4-3.4,13.1-9.4,17.3-17.9
				C1459,1086.5,1449.9,1078,1447.3,1079.1z"/>
			<path class="st11" d="M1236.4,1262.4c0,0,25.1,57.3,17.9,77.7c0,0-11.9,1.2-11.9,9.6l28.2-1c3.1-0.1,5.7-2.3,6.4-5.4
				c2.9-14,9.9-53.3,3.6-80.8C1269.9,1215.5,1236.4,1262.4,1236.4,1262.4z"/>
			<path class="st0" d="M839.3,876c0,0,63.1,87.5,82.4,102.7c16.7,13.1,92,46.6,120.6,56.2c5.8,2,14.3,1.2,23.9,11.9
				s26.3,9.6,28.7,12s-15.5,2.4-27.5-1.2c0,0-4.8,11.9-13.1,11.9c-6.1,0-14.3-12.1-19.1-14.3c-15.5-7.2-108.7-12-144.5-37.3
				c-18.3-13-108.7-100.1-108.7-100.1L839.3,876z"/>
			<path class="st13" d="M821.3,908.2l-40.6,28.7c0,0-93.2-95.6-37-137.4c55.8-41.6,108.7,81.2,108.7,81.2L821.3,908.2z"/>
			<path class="st14" d="M1104.3,1060.3c-6.2-0.9-10.7-1.2-11.8-0.4s-3.9,6.2-4.1,13.6C1094.2,1073.4,1102.8,1071.3,1104.3,1060.3z"
				/>
			<circle class="st16" cx="1166" cy="1073.7" r="5.4"/>
			<path class="st4" d="M655.3,564.2c0,0-65.7,33.5-81.2,77.7c-12.4,35.3-7.2,49-6,56.1h14.3c0,0-9.6-44.2,32.2-92
				C640.3,576.7,655.3,564.2,655.3,564.2L655.3,564.2z"/>
			<path class="st14" d="M1311.7,1144.6c-0.9,1-1.6,2.1-2.1,3.4c-5.4,13.8-3.4,32,19.5,47.5s14.1,25.2,33.3,26.9
				c16.4,1.4,38.7-9.8,33.3-26.9s23.2-9.8,26.3-22.6c1.8-7.8-2.7-17.8-11.9-25.2c-1.1-0.2-2.3-0.3-3.4-0.4
				C1369.1,1143.3,1336.7,1146,1311.7,1144.6z"/>
			<path class="st10" d="M783.1,1092.2c0,0,11.9-19.1,6-45.4"/>
			<path class="st10" d="M864.1,1137.8l1.4-3.8c-68.1-53.8-155.3-51.4-155.3-51.4"/>
			<path class="st6" d="M629.5,993.1c0,0,9.5,8.5,21.8,10.6"/>
			<path class="st6" d="M846.4,886.1l6-5.3c0,0-2-4.7-5.7-12c-15.1-29.8-58.1-102.7-103-69.3c-14,10.5-18.7,24.3-17.9,39.1"/>
			<path class="st10" d="M977.5,1007c24.5,11.2,50.5,22,64.8,26.7"/>
			<path class="st10" d="M922.9,1124.5c15.8-13.5,32.6-25.8,50.2-37"/>
			<path class="st8" d="M727,1306c0,0,6-19.1,4.8-21.5s-6-3.6-7.2,0S721,1304.8,727,1306z"/>
			<path class="st10" d="M719.8,1295.3c0,0,4,5.3,10.9,1.4"/>
			<path class="st10" d="M721,1285.7c0,0,4,5.3,10.9,1.4"/>
			<path class="st17" d="M860.8,598.8c0,0-37,1.2-43.5,35.8"/>
			<path class="st17" d="M650.5,580.9c1.2,33.4-48.4,26.3-14,131.4"/>
			<path class="st17" d="M655.3,530.8c0,0,4.8-19.1,29.9-21.5"/>
			<path class="st17" d="M578.8,653.8c0,0-8.4,14.3-6,31.1"/>
			<path class="st17" d="M748.5,494.9c0,0,23.9-3.6,33.5,14.3"/>
			<path class="st12" d="M1176.3,1170.7c11.8-1.6,62-26.9,85.1-51.4c-0.1-0.1-0.2-0.3-0.2-0.4l-26.6,9.2l-61.6,29
				C1174.3,1161.5,1175.4,1166.1,1176.3,1170.7z"/>
			<path class="st18" d="M1209.6,1052.8c0,0,17.1,20.3,10.9,43.6"/>
			<path class="st1" d="M1166.6,1153.6c-1.1-4.8-2.6-8.1,4.2-9.1l0,0c0.4-0.1,43-9.2,79.9-36.4c5.6-4.2,7.5-2.9,10.3,0.8
				c3,4,4.9,7.2-1.4,11.5c-42.5,29.1-82.3,38.6-84.2,38.9C1168.3,1160.6,1167.4,1157,1166.6,1153.6z"/>
			<path class="st5" d="M1094,985.6c-2.3,2.3-4.9,4.2-7.8,5.6c-2-2.6-3.4-5.5-4.2-8.6c-0.3-2.1,1-4,3-4.6c2.7-0.5,3.9,3.1,3.9,3.1
				s2.1-2.7,4.8-1.2C1095.5,981,1095.8,983.8,1094,985.6z"/>
			<path class="st17" d="M262.3,684.9c14.1,10.3,31.9,14.3,49,10.8"/>
			<path class="st19" d="M413.7,734.4c-2.9,17.2,1.6,34.9,12.5,48.6"/>
			<path class="st20" d="M1209.3,434.6c0,0-8.1,28.1,12.4,37.8"/>
			<path class="st17" d="M1645.3,901.6c-2.9,17.2,1.6,34.9,12.5,48.6"/>
			<path class="st17" d="M1224.8,668.7c0,0,32.5-1.8,32.5,34.1"/>
			<path class="st19" d="M985.7,477.1c13,11.7,30.3,17.3,47.7,15.4"/>
			<path class="st21" d="M259.7,1086.7c0,0,31.4,4.2,48.6-21.7"/>
			<ellipse class="st22" cx="1277.7" cy="1697.6" rx="17.9" ry="42.7"/>
			
				<ellipse transform="matrix(0.5 -0.866 0.866 0.5 -714.8319 1987.349)" class="st22" cx="1363.7" cy="1612.7" rx="42.7" ry="17.9"/>
			<ellipse class="st22" cx="1358.9" cy="1692.9" rx="42.7" ry="17.8"/>
			
				<ellipse transform="matrix(0.1831 -0.9831 0.9831 0.1831 -330.2551 2677.3245)" class="st22" cx="1445.9" cy="1537.4" rx="41.4" ry="17.4"/>
			
				<ellipse transform="matrix(0.9942 -0.108 0.108 0.9942 -157.8801 175.9011)" class="st22" cx="1545" cy="1545.5" rx="41.4" ry="17.4"/>
			
				<ellipse transform="matrix(0.9942 -0.108 0.108 0.9942 -164.2379 166.0233)" class="st22" cx="1450.6" cy="1599.3" rx="41.4" ry="17.4"/>
			<path class="st23" d="M1253.8,1807.8c0,0,62.1-210.2,278.3-264"/>
			
				<ellipse transform="matrix(0.9206 -0.3904 0.3904 0.9206 -570.0713 701.6349)" class="st24" cx="1440.8" cy="1753.1" rx="42.7" ry="17.9"/>
			
				<ellipse transform="matrix(0.6021 -0.7984 0.7984 0.6021 -719.0073 1838.8125)" class="st24" cx="1485.3" cy="1640.8" rx="42.7" ry="17.9"/>
			
				<ellipse transform="matrix(0.9206 -0.3904 0.3904 0.9206 -542.3503 684.8393)" class="st24" cx="1413.4" cy="1676.5" rx="17.8" ry="42.7"/>
			
				<ellipse transform="matrix(0.8336 -0.5524 0.5524 0.8336 -594.807 1096.6703)" class="st24" cx="1522.8" cy="1535.6" rx="41.4" ry="17.4"/>
			
				<ellipse transform="matrix(0.9574 -0.2887 0.2887 0.9574 -355.1135 487.8476)" class="st24" cx="1476.3" cy="1447.8" rx="17.4" ry="41.4"/>
			
				<ellipse transform="matrix(0.9574 -0.2887 0.2887 0.9574 -386.7924 488.7914)" class="st24" cx="1463.6" cy="1555.7" rx="17.4" ry="41.4"/>
			<path class="st25" d="M1348.7,1818.1c0,0,169.3-139.3,134.4-359.3"/>
			<path class="st17" d="M810.8,560.7c0,0-5.4,5.4-13,5.4"/>
			<path class="st17" d="M808.2,556.4c0,0-3.3,6.9-10.5,9.5"/>
		</g>
	</g>
	<circle class="st1" cx="1744.2" cy="369" r="151.7"/>
</g>
</svg>
