<svg id="Layer_1" data-name="Layer 1" xmlns="http://www.w3.org/2000/svg" viewBox="0 0 1313 5882"><defs><style>.cls-1{fill:#e9ebff;}.cls-2{fill:#3d6a84;}.cls-3{fill:#fff;}.cls-4{fill:#fbac91;}.cls-5{fill:#baf4ed;}.cls-6{fill:#ff99c3;}.cls-7{fill:#ffbddb;}.cls-8{fill:#ea7aad;}.cls-9{fill:#e07f6c;}.cls-10{fill:#d4fff9;}.cls-11{fill:#ce695b;}.cls-12{fill:#7fd4b1;}.cls-13{fill:#f2f2f2;}.cls-14,.cls-18{fill:none;stroke-linecap:round;stroke-miterlimit:10;}.cls-14{stroke:#f2f2f2;stroke-width:11.87px;}.cls-15{fill:#ffa9d6;}.cls-16{fill:#333;}.cls-17{fill:#ffd7e9;}.cls-18{stroke:#fff;stroke-width:8.47px;}</style></defs><title>icons-4-svg</title><rect class="cls-1" x="-174.15" width="1661.31" height="6191"/><path class="cls-2" d="M889.93,3944l121.19-8.29s-20.43-32.52-158.33-70.24c-27.94-7.64-48.67-15.37-69.81-20.86-36.77-30-77.37-53.08-100.42-67.21s-88.09-44.28-117.44-57.72a19.84,19.84,0,0,0-23.66,5.55c-16.69,20.58-55.77,59.69-110.24,57.19-51.55-2.36-77-19.61-87.64-29.77a9.21,9.21,0,0,0-14,1.69c-32.47,49.12-24.79,186.93-24.79,186.93L617,3948.11l160.85,3.54S897.43,3950.53,889.93,3944Z"/><path class="cls-3" d="M748,3908l-1.74-.05c-27.26-1.09-64.08-17.23-99.68-32.84-29.76-13.05-60.53-26.54-78.22-27.29-20.43-.93-37.29,9.76-56.83,22.07-16.73,10.54-34,21.43-55.53,26.1-46.46,10.07-86.51-1.53-88.2-2l6.48-21.9c.36.11,36.35,10.4,76.88,1.61,17.57-3.81,32.45-13.18,48.21-23.1,20.86-13.14,42.38-26.71,70-25.56,22,.93,53.27,14.65,86.42,29.18,33.66,14.76,68.47,30,91.43,30.95,24.2,1,49.38-10,49.63-10.14l9.24,20.88C804.84,3896.37,776.91,3908.6,748,3908Z"/><path class="cls-4" d="M312.88,3799.77c-12.67,60-8.13,141.48-8.13,141.48l183.22,4C451.41,3838.65,352.9,3808,312.88,3799.77Z"/><path class="cls-3" d="M310,3815.6c-.27,1.74-.54,3.48-.78,5.24,42.33,11,117.5,41.62,153.53,123.88l5.81.13C431.9,3858.51,353.54,3826.81,310,3815.6Z"/><rect class="cls-3" x="549.68" y="3745.99" width="74.18" height="17.61" rx="8.44" transform="translate(-2677.74 1809.1) rotate(-50.32)"/><rect class="cls-3" x="606.15" y="3771.27" width="74.18" height="17.61" rx="8.44" transform="translate(-2676.78 1861.7) rotate(-50.32)"/><rect class="cls-3" x="659.4" y="3804.66" width="74.18" height="17.61" rx="8.44" transform="translate(-2683.23 1914.76) rotate(-50.32)"/><path class="cls-4" d="M852.79,3865.45c-27.94-7.64-48.67-15.37-69.81-20.86l-.29-.23,42.14,94.27,10.68,11.69c29.38-1.1,175.61-14.63,175.61-14.63S990.69,3903.17,852.79,3865.45Z"/><path class="cls-3" d="M1008.27,3932.39c-42.5,3.85-125.44,11.22-148.74,12.23L850,3934.15l-35.92-80.34-6.72-2.11,38.17,85.38L856.41,3949c50-3.64,154.71-13.33,154.71-13.33A22.64,22.64,0,0,0,1008.27,3932.39Z"/><path class="cls-3" d="M994.38,4007.35a6.55,6.55,0,0,0-.89.05c-4.36.52-41.3,4.85-117.88,11.4-111.3,9.52-402-1.55-513.65-9.85-27.45-2-44.75-4.18-44.75-4.18a26.27,26.27,0,0,1-25.56-27l.69-31.49c.31-14.41.66-29.91,26.2-25.83.34.05.69,0,1,.06,3.2.36,21.33,2.33,48.11,4.39,114.1,8.76,398.44,19.44,508.05,9.55,72.6-6.56,113.83-10.78,119.4-11.35a8.33,8.33,0,0,1,1.32-.05c14.12.67,25.4,4.07,24.89,27l-.69,31.49A26.27,26.27,0,0,1,994.38,4007.35Z"/><path class="cls-5" d="M747.17,4334.49l-137.29,47.28L472.59,4429a30.17,30.17,0,0,0-16.87,42.57L648.2,4837.48A30.16,30.16,0,0,0,684.71,4852l77.85-26.8,77.86-26.81a30.17,30.17,0,0,0,19.86-33.89l-73.61-406.81A30.16,30.16,0,0,0,747.17,4334.49ZM776.81,4452l55.82,293.26c1.7,10.66-5.59,21.48-17.17,25.47l-64.05,22.05-64.06,22.06c-11.58,4-24,0-29.21-9.5L521.57,4539.85c-6.49-11.74.63-26.79,15-31.74l104.43-36,104.42-36C759.81,4431.23,774.69,4438.71,776.81,4452Z"/><path class="cls-6" d="M817.2,4759.61a72.8,72.8,0,0,1-15.21,4.64,69.64,69.64,0,0,1-14.94.91L685,4210s4.67-4.53,15.31-6.49c8.87-1.63,14.84.94,14.84.94Z"/><path class="cls-6" d="M745.43,4436.19l-104.42,36-104.43,36c-14.38,5-21.5,20-15,31.74L658.14,4805.3c5.23,9.46,17.63,13.49,29.21,9.5l64.06-22.06,64.05-22.05c11.58-4,18.87-14.81,17.17-25.47L776.81,4452C774.69,4438.71,759.81,4431.23,745.43,4436.19Z"/><path class="cls-7" d="M710.2,4347.22l17.48,95.08,17.75-6.11a27.39,27.39,0,0,1,12.06-1.34l-18-97.73Z"/><circle class="cls-3" cx="536.49" cy="4343.14" r="22.54"/><circle class="cls-3" cx="609.98" cy="4276.82" r="18.04"/><circle class="cls-3" cx="544.48" cy="4227.84" r="22.54"/><rect class="cls-4" x="571.81" y="4507.17" width="108.22" height="108.22" rx="27.94" transform="translate(90.05 -11.45) rotate(1.13)"/><rect class="cls-4" x="684.73" y="4563.66" width="108.22" height="108.22" rx="27.94" transform="translate(-3392.87 2427.19) rotate(-52.98)"/><path class="cls-3" d="M709.7,4641.15a4.51,4.51,0,0,1-4.19-.66c-6.38-4.81-9.82-10.58-10.22-17.14-.37-6,1.9-12.36,6.76-18.81a4.51,4.51,0,0,1,7.2,5.43c-3.53,4.68-5.2,9-5,12.83s2.47,7.34,6.65,10.49a4.5,4.5,0,0,1,.89,6.31A4.44,4.44,0,0,1,709.7,4641.15Z"/><rect class="cls-4" x="647.17" y="4687.23" width="108.22" height="108.22" rx="27.94" transform="translate(-155.13 25.55) rotate(-1.88)"/><path class="cls-8" d="M745.43,4436.19l-17.75,6.11,59.37,322.86a69.64,69.64,0,0,0,14.94-.91,72.8,72.8,0,0,0,15.21-4.64l-59.71-324.76A27.39,27.39,0,0,0,745.43,4436.19Z"/><path class="cls-3" d="M595.15,4539a4.33,4.33,0,0,1-1.58.24,4.5,4.5,0,0,1-4.39-4.62l.17-6.86a4.51,4.51,0,1,1,9,.22l-.17,6.87A4.51,4.51,0,0,1,595.15,4539Z"/><path class="cls-3" d="M593.81,4593.91a4.52,4.52,0,0,1-6-4.39l.88-32a4.51,4.51,0,0,1,9,.25l-.89,32A4.51,4.51,0,0,1,593.81,4593.91Z"/><path class="cls-3" d="M667.83,4778.55a4.24,4.24,0,0,1-1.33.25,4.51,4.51,0,0,1-4.64-4.38l-.93-32a4.51,4.51,0,1,1,9-.26l.92,32A4.5,4.5,0,0,1,667.83,4778.55Z"/><ellipse class="cls-9" cx="508.9" cy="888.98" rx="58.05" ry="58.78"/><path class="cls-2" d="M876.53,1305.72,752.17,1082.63a10.8,10.8,0,0,1-9.48-3.93c-7.46-9.16-88.27-134.74-96.87-141.16-2.86,3.42-78.3,113.72-81.65,143.79-1.06,9.52-9.88,13.72-17,12.54l-118.9,211.77c-10.31,18.36,2.78,41.15,23.63,41.15h401C873.67,1346.79,886.76,1324.07,876.53,1305.72Z"/><path class="cls-3" d="M676.75,947.34a27,27,0,0,0-47.32-.07l-87.5,155.84h0c37.34,3.2,53.91-45.09,67.24-48.46,14.08-3.57,19.35,39.19,38.7,30.28s24.69-49.53,35.19-51.66c17.59-3.56,46.91,80.88,73.8,57.77Z"/><path class="cls-4" d="M982.37,1319.56l-96.78-150.63c-6.22,1.41-13.38-1-15.79-8.93-2.95-9.67-9.41-18.79-14-27.75-4-7.81-8-15.65-12.25-23.35-3-5.44-6.11-12.68-10.87-16.74-5-4.27-10.79-3.58-17.25-2.78-17.26,2.14-23.17,21.24-29.86,35-6.33,13-15.76,25-27.55,33.3a11.71,11.71,0,0,1-7.47,2.38l-90.71,160.7c-9.23,16.35,2.43,36.71,21,36.71H962.07C981.3,1357.48,992.86,1335.88,982.37,1319.56Z"/><path class="cls-3" d="M832.66,1086.55a24,24,0,0,0-39-2.22l-2.58,3.8-41.79,74c8.49-2.33,20-3.18,28.73,4.71,15.83,14.25,15.83,41,30.83,40.31,16.66-.75,14.91-56.34,30.74-56.34,14.07,0,23.75,30.36,46.82,19.42Z"/><path class="cls-4" d="M602.3,1356.83l-101-157.29a12.09,12.09,0,0,1-9.29-1.61c-5.77-3.44-11.19-5.3-16.19-10.26-4.74-4.71-49.21,15.5-55.88,9.85L329.4,1357.84c-7.81,13.84,2.05,31.06,17.79,31.06H585.12C601.39,1388.9,611.18,1370.63,602.3,1356.83Z"/><path class="cls-3" d="M475.64,1159.69a20.36,20.36,0,0,0-35,1l-21.82,38.66c7.32,5.26,16.17,12,32,3.13,25.6-14.4,37.15-1.71,50.95-2.09Z"/><path class="cls-3" d="M503.45,916.72a45,45,0,0,0-86.94,2.54c-.84-.07-1.68-.11-2.54-.11a32.12,32.12,0,0,0,0,64.24h87.84c17.52,0,31.72-16.85,31.72-34.59A32,32,0,0,0,503.45,916.72Z"/><path class="cls-3" d="M935.82,958.76a34.83,34.83,0,0,0-4.36.29,44.35,44.35,0,0,0-40.05-25.53c-24.52,0-44.4,20.13-44.4,45a45.6,45.6,0,0,0,.39,5.88,29.94,29.94,0,0,0-10.52-1.93,30.77,30.77,0,0,0,0,61.53h98.94c18.93,0,38.95-17.36,38.95-44.18C974.77,976.12,954.75,958.76,935.82,958.76Z"/><path class="cls-10" d="M676.66,1359.36a19,19,0,0,1,.13-8.57l7.7,1.86a11.52,11.52,0,0,0-.17,4.71Z"/><path class="cls-10" d="M690.45,1344.29l-4.61-6.5a40.63,40.63,0,0,1,13.29-6l2.06,7.73A33.25,33.25,0,0,0,690.45,1344.29Zm23.08-6.88-.69-8c3.46-.31,7.21-.46,11.15-.46h2.37l0,8H724C720.28,1337,716.76,1337.12,713.53,1337.41Zm26.17-.59-.15-8q6.51-.11,13.19-.31l.23,8Q746.25,1336.71,739.7,1336.82Zm26.53-.76-.3-8c4.41-.16,8.83-.35,13.2-.54l.35,8C775.08,1335.71,770.65,1335.89,766.23,1336.06Zm26.48-1.16-.38-8c4.49-.22,8.91-.44,13.2-.67l.42,8C801.64,1334.46,797.21,1334.68,792.71,1334.9Zm26.46-1.37-.42-8,13.22-.71.42,8Zm26.42-1.39-.37-8c5.75-.28,10.11-.44,13.34-.5l.15,8C855.55,1331.72,851.26,1331.88,845.59,1332.14Zm26.68-1.11-.84-8a79,79,0,0,0,12.38-2.29l2.09,7.73A86.6,86.6,0,0,1,872.27,1331Zm26.92-8.35-4.48-6.6c3.11-2.16,4.62-4.5,4.62-7.14v-.51l7.91-.16v.67C907.24,1312.65,905.84,1318.05,899.19,1322.68Zm-3-24.36c-2-2.54-4.91-4.57-9.05-6.22l2.9-7.46c5.49,2.19,9.55,5.06,12.39,8.77Zm-21-9.39c-3.71-.64-7.89-1.14-12.77-1.55l.64-8c5.11.42,9.51,1,13.46,1.64Zm-25.8-2.28c-4.13-.16-8.51-.25-13.13-.32l.11-8q7,.11,13.31.32Zm-27.82-.4q-6.16,0-11.79-.14l.19-8q5.53.14,11.58.14h1.54v8Zm-25.16-.7c-4.82-.31-9.33-.73-13.4-1.24l1-8c3.91.49,8.26.89,12.92,1.19Zm-26.83-3.6a65.79,65.79,0,0,1-13.3-4.51l3.38-7.24a59.58,59.58,0,0,0,11.72,4Zm-25.18-13.51a27.1,27.1,0,0,1-5.7-14.31l7.87-.86a19,19,0,0,0,4,10.13Zm3.44-26.4-7.34-3a26,26,0,0,1,9.76-12l4.42,6.65A17.79,17.79,0,0,0,747.83,1242Zm17.69-12.82-1.82-7.8a74.12,74.12,0,0,1,13.83-1.83l.34,8A65.24,65.24,0,0,0,765.52,1229.22Zm38.6-1.35c-4.49,0-8.72-.13-12.52-.21l-.76,0,.17-8,.76,0c3.76.08,8,.17,12.41.21Zm13.36-.09-.19-8c4.64-.11,9-.32,13-.64l.62,8C826.78,1227.44,822.26,1227.67,817.48,1227.78Zm26.91-2.27-1.3-7.9a78.52,78.52,0,0,0,12.24-3l2.53,7.59A86.08,86.08,0,0,1,844.39,1225.51Zm26.39-10.22-5.12-6.1a12.25,12.25,0,0,0,4.62-8.7l7.89.58A20.15,20.15,0,0,1,870.78,1215.29Zm-3.9-22.84c-2.33-1.73-5.81-3-10.66-3.94l1.45-7.87c6.05,1.14,10.59,2.89,13.89,5.36Zm-23.34-5.37c-3.65-.23-7.42-.38-11.2-.52l-2-.08.31-8,1.94.07c3.85.15,7.69.3,11.39.53ZM817,1185.73a85.83,85.83,0,0,1-13.72-2.11l1.94-7.77a77.06,77.06,0,0,0,12.44,1.9Zm-27.22-9.32a16.3,16.3,0,0,1-3.53-6.16,23.31,23.31,0,0,1-1.09-6.87,19.63,19.63,0,0,1,.18-2.67l7.84,1.08a11.9,11.9,0,0,0-.11,1.59,15.16,15.16,0,0,0,.73,4.46,8.28,8.28,0,0,0,1.81,3.16Zm8.67-23.16-4.94-6.25a40.36,40.36,0,0,1,13-6.72l2.42,7.63A32.62,32.62,0,0,0,798.43,1153.25Zm22.64-7.89-.92-8a103.53,103.53,0,0,1,11.94-.67c.51,0,1,0,1.53,0l.39,8c-.64,0-1.28,0-1.92,0A94.18,94.18,0,0,0,821.07,1145.36Zm27.79-6.7-6-5.2a5.13,5.13,0,0,0,1.12-3.41,4.09,4.09,0,0,0-1.37-3.16l5.47-5.79a12,12,0,0,1,3.81,9A13.07,13.07,0,0,1,848.86,1138.66Zm-16.41-15.94c-3.47-.78-7.45-1.37-11.3-2l-1.5-.23,1.17-7.92,1.5.22c4,.6,8.09,1.22,11.83,2.05ZM806.19,1118c-4.42-1.2-10.61-3.4-13.47-8.59l6.91-3.89c1,1.87,3.93,3.47,8.61,4.75Zm-4.82-19.14-4.65-6.48c2.75-2,6.15-3.21,9.44-4.36,1.2-.42,2.42-.84,3.6-1.31l2.88,7.47c-1.28.5-2.6,1-3.9,1.42C805.87,1096.56,803.16,1097.5,801.37,1098.82Z"/><path class="cls-10" d="M824.93,1082.21l-7.63-2.12a13.57,13.57,0,0,0,.22-5.11l7.86-.94A21.76,21.76,0,0,1,824.93,1082.21Z"/><rect class="cls-11" x="515.56" y="1414.4" width="13.18" height="16.02"/><rect class="cls-11" x="555.11" y="1398.39" width="13.18" height="16.02"/><path class="cls-12" d="M583.56,1406.4H540.11a4.69,4.69,0,0,1-4.41-6.16l26.13-80.86L588,1400.24A4.69,4.69,0,0,1,583.56,1406.4Z"/><path class="cls-2" d="M583.56,1406.4a4.69,4.69,0,0,0,4.41-6.16l-26.14-80.86v87Z"/><path class="cls-12" d="M544,1422.41H500.56a4.68,4.68,0,0,1-4.41-6.15l26.13-80.86,26.14,80.86A4.68,4.68,0,0,1,544,1422.41Z"/><path class="cls-2" d="M544,1422.41a4.68,4.68,0,0,0,4.41-6.15l-26.14-80.86v87Z"/><ellipse class="cls-9" cx="371.5" cy="3286.71" rx="39.84" ry="27.97"/><circle class="cls-1" cx="351.16" cy="3286.71" r="9.32"/><rect class="cls-2" x="418.12" y="3126.51" width="100.01" height="45.77" rx="16.65"/><path class="cls-4" d="M931.4,3504.53H417.2a49.93,49.93,0,0,1-49.94-49.93V3205.27a49.94,49.94,0,0,1,49.94-49.94L536.88,3154l19.82-27.51H931.4a49.93,49.93,0,0,1,49.93,49.94V3454.6A49.92,49.92,0,0,1,931.4,3504.53Z"/><path class="cls-5" d="M931.4,3126.51H556.7L536.88,3154l-119.68,1.31a49.94,49.94,0,0,0-49.94,49.94v24.65H981.33v-53.47A49.93,49.93,0,0,0,931.4,3126.51Z"/><circle class="cls-13" cx="694.85" cy="3320.61" r="138.16"/><circle class="cls-9" cx="694.85" cy="3320.61" r="127.98"/><circle class="cls-6" cx="694.85" cy="3320.61" r="106.37"/><path class="cls-13" d="M711.25,3406.26a5.94,5.94,0,0,1-1.19-11.75,75.88,75.88,0,0,0,55.65-48,5.93,5.93,0,1,1,11.14,4.08,87.84,87.84,0,0,1-64.41,55.51A6.08,6.08,0,0,1,711.25,3406.26Z"/><path class="cls-14" d="M770.77,3291.26a80.91,80.91,0,0,1,5,20.38"/><circle cx="694.85" cy="3320.61" r="33.48"/><rect class="cls-2" x="870.05" y="3150.25" width="84.42" height="55.94" rx="16.52"/><rect class="cls-3" x="796.14" y="3160.81" width="52.55" height="34.82" rx="10.28"/><path class="cls-15" d="M713.66,3314.2c0,10.18-18,28.33-18,28.33s-18.88-18.15-18.88-28.33c0-4.79,1.88-8.1,6.3-8.54,9-.9,12.58,9,12.58,9s4.25-9,10.79-9C711.86,3305.66,713.66,3309.11,713.66,3314.2Z"/><circle class="cls-8" cx="476.6" cy="3403.67" r="38.14"/><circle class="cls-6" cx="476.6" cy="3403.67" r="24.87"/><rect class="cls-3" x="570.99" y="3167.2" width="38.37" height="25.43" rx="7.51"/><path class="cls-2" d="M713.66,3314.2c0,10.18-18,28.33-18,28.33s-18.88-18.15-18.88-28.33c0-4.79,1.88-8.1,6.3-8.54,9-.9,12.58,9,12.58,9s4.25-9,10.79-9C711.86,3305.66,713.66,3309.11,713.66,3314.2Z"/><path class="cls-3" d="M694.48,5536.74h147a29.14,29.14,0,0,0,26.79-40.62l-165-385.05c-4.08-9.53-18.3-6.61-18.3,3.75v412.39A9.54,9.54,0,0,0,694.48,5536.74Z"/><path class="cls-3" d="M633.83,5536.74H407.19a28.11,28.11,0,0,1-23.89-42.92l239.08-385.27c7.15-11.53,24.93-6.46,24.93,7.1v407.61A13.48,13.48,0,0,1,633.83,5536.74Z"/><rect class="cls-6" x="906.58" y="5551.38" width="60.64" height="39.73"/><rect class="cls-11" x="900.31" y="5538.83" width="14.64" height="89.91" rx="7.32"/><rect class="cls-11" x="655.67" y="5101.88" width="20.91" height="520.59" rx="10.1"/><path class="cls-11" d="M538.58,5570.2H780.19A113.85,113.85,0,0,1,894,5684v3.24a0,0,0,0,1,0,0H538.58a0,0,0,0,1,0,0V5570.2A0,0,0,0,1,538.58,5570.2Z"/><circle class="cls-3" cx="775.9" cy="5615.15" r="32.41"/><path class="cls-9" d="M817.65,5712.38H478.85A124.28,124.28,0,0,1,354.58,5588.1v-11.63l575,39.73v24C929.58,5702,879.47,5712.38,817.65,5712.38Z"/><path class="cls-5" d="M409.1,5536.74H647.31L501.47,5303.4,384.32,5492.19A29.17,29.17,0,0,0,409.1,5536.74Z"/><path class="cls-2" d="M994.69,5721c-12.49,0-18.92-7.41-24.08-13.36s-8.59-9.48-15.57-9.48-10.47,3.6-15.57,9.48S927.87,5721,915.39,5721s-18.91-7.41-24.07-13.36-8.57-9.48-15.55-9.48-10.46,3.6-15.56,9.48S848.61,5721,836.13,5721s-18.9-7.41-24.06-13.36-8.57-9.48-15.55-9.48-10.46,3.6-15.55,9.48S769.38,5721,756.9,5721s-18.9-7.41-24.06-13.36-8.58-9.48-15.56-9.48-10.45,3.6-15.55,9.48S690.14,5721,677.66,5721s-18.9-7.41-24.06-13.36-8.58-9.48-15.56-9.48-10.46,3.6-15.55,9.48S610.9,5721,598.42,5721s-18.9-7.41-24.07-13.36-8.57-9.48-15.55-9.48-10.45,3.6-15.55,9.48S531.66,5721,519.19,5721s-18.9-7.41-24.07-13.36-8.57-9.48-15.54-9.48-10.46,3.6-15.56,9.48S452.43,5721,440,5721s-18.9-7.41-24.07-13.36-8.55-9.48-15.54-9.48-10.3,3.43-15.55,9.48S373.22,5721,360.74,5721s-18.9-7.41-24.06-13.36-8.57-9.48-15.55-9.48v-11.27c12.48,0,18.9,7.41,24.07,13.36s8.55,9.48,15.54,9.48,10.3-3.43,15.55-9.48,11.58-13.36,24.06-13.36,18.9,7.41,24.06,13.36,8.57,9.48,15.55,9.48,10.45-3.6,15.55-9.48,11.59-13.36,24.07-13.36,18.9,7.41,24.06,13.36,8.57,9.48,15.55,9.48,10.45-3.6,15.55-9.48,11.59-13.36,24.06-13.36,18.91,7.41,24.07,13.36,8.56,9.48,15.55,9.48,10.46-3.6,15.55-9.48,11.59-13.36,24.07-13.36,18.91,7.41,24.07,13.36,8.56,9.48,15.55,9.48,10.46-3.6,15.55-9.48,11.6-13.36,24.07-13.36,18.91,7.41,24.07,13.36,8.58,9.48,15.55,9.48,10.3-3.43,15.55-9.48,11.59-13.36,24.07-13.36,18.9,7.41,24.06,13.36,8.58,9.48,15.55,9.48,10.46-3.6,15.56-9.48,11.6-13.36,24.08-13.36,18.9,7.41,24.07,13.36,8.57,9.48,15.55,9.48,10.47-3.6,15.57-9.48,11.6-13.36,24.08-13.36,18.91,7.41,24.08,13.36,8.58,9.48,15.57,9.48Z"/><path class="cls-2" d="M991.87,5761.84c-12.49,0-18.92-7.4-24.08-13.35s-8.59-9.48-15.57-9.48-10.47,3.6-15.57,9.47-11.6,13.36-24.08,13.36-18.9-7.41-24.07-13.36S879.93,5739,873,5739s-10.46,3.6-15.56,9.47-11.59,13.36-24.07,13.36-18.91-7.4-24.07-13.36-8.57-9.47-15.55-9.47-10.3,3.42-15.55,9.47-11.59,13.36-24.06,13.36-18.91-7.4-24.07-13.36-8.58-9.47-15.56-9.47-10.45,3.6-15.55,9.47-11.59,13.36-24.07,13.36-18.9-7.4-24.06-13.36-8.58-9.47-15.56-9.47-10.45,3.6-15.55,9.47-11.59,13.36-24.07,13.36-18.9-7.4-24.07-13.36S563,5739,556,5739s-10.45,3.6-15.55,9.47-11.58,13.36-24.06,13.36-18.9-7.41-24.07-13.36-8.55-9.47-15.54-9.47-10.46,3.6-15.55,9.47-11.6,13.36-24.07,13.36-18.9-7.4-24.07-13.36-8.57-9.47-15.54-9.47-10.3,3.42-15.55,9.47-11.58,13.36-24.06,13.36-18.9-7.41-24.06-13.36-8.56-9.47-15.55-9.47v-11.27c12.48,0,18.9,7.41,24.07,13.36s8.55,9.47,15.54,9.47,10.3-3.42,15.55-9.47,11.58-13.36,24.06-13.36,18.9,7.41,24.06,13.36,8.56,9.47,15.55,9.47,10.45-3.6,15.55-9.47,11.59-13.36,24.07-13.36,18.9,7.4,24.06,13.36,8.57,9.47,15.55,9.47,10.45-3.6,15.55-9.47,11.59-13.36,24.06-13.36,18.91,7.4,24.07,13.36,8.57,9.47,15.55,9.47,10.46-3.6,15.55-9.47,11.6-13.36,24.07-13.36,18.91,7.4,24.07,13.36,8.57,9.47,15.55,9.47,10.46-3.6,15.56-9.47,11.59-13.36,24.06-13.36,18.91,7.41,24.07,13.36,8.58,9.47,15.56,9.47,10.45-3.6,15.54-9.47,11.59-13.36,24.07-13.36,18.9,7.4,24.06,13.36,8.58,9.47,15.56,9.47,10.46-3.6,15.56-9.48,11.59-13.35,24.07-13.35,18.9,7.4,24.07,13.36,8.57,9.47,15.55,9.47,10.47-3.6,15.57-9.48,11.6-13.35,24.08-13.35,18.91,7.4,24.08,13.35,8.58,9.48,15.57,9.48Z"/><path class="cls-2" d="M991.87,5801.29c-12.49,0-18.92-7.4-24.08-13.35s-8.59-9.48-15.57-9.48-10.47,3.6-15.57,9.48-11.6,13.35-24.08,13.35-18.9-7.4-24.07-13.35-8.57-9.48-15.55-9.48-10.46,3.6-15.56,9.48-11.59,13.35-24.07,13.35-18.91-7.4-24.07-13.35-8.57-9.48-15.55-9.48-10.3,3.43-15.55,9.48-11.59,13.35-24.06,13.35-18.91-7.4-24.07-13.35-8.58-9.48-15.56-9.48-10.45,3.6-15.55,9.48-11.59,13.35-24.07,13.35-18.9-7.4-24.06-13.35-8.58-9.48-15.56-9.48-10.45,3.6-15.55,9.48-11.59,13.35-24.07,13.35-18.9-7.4-24.07-13.35-8.57-9.48-15.55-9.48-10.45,3.6-15.55,9.48-11.58,13.35-24.06,13.35-18.9-7.4-24.07-13.35-8.55-9.48-15.54-9.48-10.46,3.6-15.55,9.48-11.6,13.35-24.07,13.35-18.9-7.4-24.07-13.35-8.57-9.48-15.54-9.48-10.3,3.43-15.55,9.48-11.58,13.35-24.06,13.35-18.9-7.4-24.06-13.35-8.56-9.48-15.55-9.48v-11.27c12.48,0,18.9,7.41,24.07,13.36s8.55,9.47,15.54,9.47,10.3-3.42,15.55-9.47,11.58-13.36,24.06-13.36,18.9,7.41,24.06,13.36,8.56,9.47,15.55,9.47,10.45-3.6,15.55-9.47,11.59-13.36,24.07-13.36,18.9,7.41,24.06,13.36,8.57,9.47,15.55,9.47,10.45-3.6,15.55-9.47,11.59-13.36,24.06-13.36,18.91,7.41,24.07,13.36,8.57,9.47,15.55,9.47,10.46-3.6,15.55-9.47,11.6-13.36,24.07-13.36,18.91,7.41,24.07,13.36,8.57,9.47,15.55,9.47,10.46-3.6,15.56-9.47,11.59-13.36,24.06-13.36,18.91,7.41,24.07,13.36,8.58,9.47,15.56,9.47,10.45-3.6,15.54-9.47,11.59-13.36,24.07-13.36,18.9,7.41,24.06,13.36,8.58,9.47,15.56,9.47,10.46-3.6,15.56-9.47,11.59-13.36,24.07-13.36,18.9,7.41,24.07,13.36,8.57,9.47,15.55,9.47,10.47-3.6,15.57-9.47,11.6-13.36,24.08-13.36,18.91,7.41,24.08,13.36,8.58,9.47,15.57,9.47Z"/><path class="cls-5" d="M684.94,5110.86v425a.2.2,0,0,0,.38.09l107.15-216.55a.25.25,0,0,0,0-.17l-90.79-211.84C697.94,5098.71,684.94,5101.37,684.94,5110.86Z"/><circle class="cls-11" cx="665.56" cy="5083.77" r="9.06"/><path class="cls-6" d="M620.27,5303.45c0,17.92-31.67,49.88-31.67,49.88s-33.26-32-33.26-49.88c0-8.44,3.31-14.27,11.09-15.05,15.83-1.58,22.17,15.84,22.17,15.84s7.47-15.84,19-15.84C617.1,5288.4,620.27,5294.48,620.27,5303.45Z"/><path class="cls-5" d="M326.69,1993.75a20.23,20.23,0,0,1,26.2-30.84c8.52,7.24,19.79,42.44,19.79,42.44S335.21,2001,326.69,1993.75Z"/><path class="cls-5" d="M950.32,1903.07a14.86,14.86,0,0,1,22.24,19.7c-5.43,6.14-31.45,13.89-31.45,13.89S944.88,1909.22,950.32,1903.07Z"/><path class="cls-6" d="M450.77,2026.86a36.53,36.53,0,0,1-30.33-57.12c2.55-3.73,62.79-91.81,97.23-138.89,34.27-46.84,35.83-78.64,35.8-84.54a29.32,29.32,0,0,0-4.89-15.58c-2.32-3.24-6-6.59-15.83-6.93-7.76-.26-13.19,1.64-17.67,6.18a32.29,32.29,0,0,0-4.06,5.24,36.51,36.51,0,0,1-47,21.4c-18.89-7.07-32.42-35.67-23.22-60.89,12.17-33.38,39.39-52,94.4-50.13,59.55,2,91,54.58,91.28,100.28.32,53.64-34.78,107.45-49.88,128.09-33.76,46.13-95.27,136.07-95.89,137A36.46,36.46,0,0,1,450.77,2026.86Z"/><circle class="cls-3" cx="486.3" cy="1707.59" r="20"/><circle class="cls-5" cx="486.3" cy="1707.59" r="13.94"/><circle class="cls-16" cx="486.3" cy="1707.59" r="10.3"/><path class="cls-3" d="M490.07,1705.14a2.53,2.53,0,0,1-1.65-.6,2.63,2.63,0,0,1-.35-3.68l5.11-6.31a2.57,2.57,0,0,1,3.63-.36,2.66,2.66,0,0,1,.35,3.69l-5.12,6.31A2.53,2.53,0,0,1,490.07,1705.14Z"/><path class="cls-17" d="M484.85,1765.45c-2.5,9.1,1,22.43-1.15,36.8-1.49,10-6.28,21-10.56,22.84s-20.71-7.14-25.58-21.64c-7.17-21.34,8.7-30.48,7.29-50.38-.82-11.5,12.67-21.11,22.89-15.78S487.91,1754.34,484.85,1765.45Z"/><path class="cls-16" d="M482.82,1806.77c-3.7-12.64-13.78-21.71-25.62-21.64a23.3,23.3,0,0,0-11.16,3,32,32,0,0,0,1.52,15.33c4.87,14.5,21.29,23.47,25.58,21.64C476.78,1823.54,480.78,1815.35,482.82,1806.77Z"/><path class="cls-6" d="M877.11,1961.79a34,34,0,0,1-.75-7l-.07-12.17c-.08-13.44-5.83-24.3-19.27-24.22-11.74.06-16.27,8.41-18.5,19.48-1.89-.14-14.23-.17-16.16-.15l-344.26,2a69.53,69.53,0,0,0-69.13,70h0a69.54,69.54,0,0,0,69.95,69.14l344.26-2a69.56,69.56,0,0,0,69.14-70h0C892.22,1989.62,880.5,1977.41,877.11,1961.79Z"/><path class="cls-8" d="M794,1972.43c.25,42.38-62.59,77.11-127.49,77.49s-117.72-33.66-118-76.05,52.25-62.66,117.15-63S793.78,1930,794,1972.43Z"/><path class="cls-5" d="M950.58,1968.43a25.6,25.6,0,1,1,34.53,37.81c-10.45,9.53-56.44,18.06-56.44,18.06S940.14,1978,950.58,1968.43Z"/><rect class="cls-8" x="474.28" y="2780.39" width="163.78" height="14.12" transform="translate(1383.85 68.23) rotate(28.21)"/><rect x="821.96" y="2425.19" width="42.36" height="66.88" rx="13.17" transform="translate(1262.49 -106.5) rotate(28.21)"/><rect x="620.38" y="2800.92" width="42.36" height="66.88" rx="13.17" transform="translate(1416.17 33.44) rotate(28.21)"/><rect x="448.69" y="2708.81" width="42.36" height="66.88" rx="13.17" transform="translate(1352.23 103.66) rotate(28.21)"/><rect x="650.26" y="2333.08" width="42.36" height="66.88" rx="13.17" transform="translate(1198.55 -36.27) rotate(28.21)"/><path class="cls-5" d="M796.9,2565.71c60.25-118.28,43.9-233.36,14.8-254.55C778,2298.63,673,2348.64,607.79,2464.26c-100.57,178.25-152.12,414.37-116.37,443.87C535.78,2921.61,704,2748.09,796.9,2565.71Z"/><circle class="cls-11" cx="622.25" cy="2664.28" r="76.24"/><path class="cls-3" d="M779,2485.61s-46.29,10.41-60.72,2.67-27-48.15-27-48.15,40.65-11.84,55.08-4.1S779,2485.61,779,2485.61Z"/><circle cx="735.72" cy="2452.78" r="25.41"/><path d="M716.94,2490.77c-25-13.4-30.27-50.41-30.48-52l-.41-3.05,2.76-1.33c1.43-.69,35.19-16.76,60.17-3.36s30.26,50.42,30.47,52l.42,3-2.77,1.34C775.68,2488.11,741.92,2504.17,716.94,2490.77Zm-21.52-50c1.77,8.72,8.18,33.23,25.52,42.54s41.32,1.08,49.56-2.26c-1.77-8.71-8.19-33.23-25.53-42.53S703.66,2437.43,695.42,2440.77Z"/><circle class="cls-4" cx="702.34" cy="2514.99" r="5.65"/><circle class="cls-9" cx="679.65" cy="2557.29" r="16.94"/><line class="cls-18" x1="741.01" y1="2449.51" x2="748.39" y2="2446.46"/><path class="cls-2" d="M708.74,2708.48h0c1.24-1.72,2.49-3.45,3.73-5.19h0a17.48,17.48,0,0,0-7.5-7.44c-7.61-4.08-13.82-1.72-19.3.36-5,1.9-9.28,3.54-14.62.67s-6.35-7.35-7.53-12.55c-1.29-5.71-2.75-12.19-10.36-16.28s-13.82-1.72-19.3.37c-5,1.89-9.28,3.53-14.62.66s-6.36-7.35-7.53-12.55c-1.29-5.71-2.76-12.19-10.37-16.28s-13.82-1.72-19.29.37c-5,1.9-9.28,3.53-14.62.67s-6.35-7.35-7.53-12.55c-1.29-5.72-2.75-12.19-10.36-16.28a17.39,17.39,0,0,0-9.55-2.16v0c-.75,2-1.51,4-2.25,6-52,138.79-72.41,270.33-46.32,291.85C523.76,2918,621.92,2828.39,708.74,2708.48Z"/><path class="cls-9" d="M481.27,509.39h63.66A29.39,29.39,0,0,0,574.31,480V353.22a29.38,29.38,0,0,0-29.38-29.38H481.27c-16.23,0-31.29,12.82-33.21,29.38-3.66,31.48-4.27,95.38,0,126.79C450.3,496.53,465,509.39,481.27,509.39Z"/><path class="cls-11" d="M564.11,382.13l10.2-28.91a29.38,29.38,0,0,0-29.38-29.38H481.27c-16.23,0-31.29,12.82-33.21,29.38-1.09,9.36-1.91,21.6-2.41,35C473.19,398.24,564.11,396,564.11,382.13Z"/><path class="cls-9" d="M831.73,509.39H768.07A29.39,29.39,0,0,1,738.69,480V353.22a29.38,29.38,0,0,1,29.38-29.38h63.66c16.23,0,31.29,12.82,33.21,29.38,3.66,31.48,4.27,95.38,0,126.79C862.7,496.53,848,509.39,831.73,509.39Z"/><path class="cls-11" d="M739.27,353.22l10.2,28.91c0,13.81,89.69,16.08,117.88,6.28-.5-13.47-1.31-25.78-2.41-35.19-1.92-16.56-17-29.38-33.21-29.38H768.65A29.38,29.38,0,0,0,739.27,353.22Z"/><rect class="cls-4" x="492.15" y="75.08" width="328.28" height="542.38" rx="86.79"/><rect class="cls-2" x="704.81" y="60.8" width="57.09" height="85.64" rx="11.73"/><rect class="cls-2" x="555.96" y="60.8" width="57.09" height="85.64" rx="11.73"/><rect class="cls-9" x="566.87" y="315.68" width="178.84" height="177.39" rx="31.32"/><rect class="cls-11" x="492.75" y="524.68" width="328.28" height="10.2"/><path class="cls-2" d="M763.68,138.29h22.43a0,0,0,0,1,0,0V565.46a11.21,11.21,0,0,1-11.21,11.21h0a11.21,11.21,0,0,1-11.21-11.21V138.29a0,0,0,0,1,0,0Z"/><path class="cls-2" d="M526.9,138.29h22.43a0,0,0,0,1,0,0V565.46a11.21,11.21,0,0,1-11.21,11.21h0a11.21,11.21,0,0,1-11.21-11.21V138.29a0,0,0,0,1,0,0Z"/><path class="cls-11" d="M761.25,228c-25.85-8.61-46.25-34.66-103.34-34.66-67.29,0-79.52,24.66-105.39,34.66-30.79,11.91-59.77-26.76-59.77-59.77V160.9a85.82,85.82,0,0,1,85.82-85.82H735.2A85.82,85.82,0,0,1,821,160.9v7.33C821,201.24,792.57,238.44,761.25,228Z"/><path class="cls-3" d="M544.5,504.29H530.71a14.53,14.53,0,0,1-14.51-14.52V476a14.53,14.53,0,0,1,14.51-14.52H544.5A14.53,14.53,0,0,1,559,476v13.78A14.53,14.53,0,0,1,544.5,504.29Zm-13.79-36.7a8.41,8.41,0,0,0-8.4,8.4v13.78a8.41,8.41,0,0,0,8.4,8.4H544.5a8.41,8.41,0,0,0,8.4-8.4V476a8.41,8.41,0,0,0-8.4-8.4Z"/><path class="cls-3" d="M545,292.23H531.22a14.53,14.53,0,0,1-14.51-14.51V263.93a14.53,14.53,0,0,1,14.51-14.52H545a14.54,14.54,0,0,1,14.52,14.52v13.79A14.54,14.54,0,0,1,545,292.23Zm-13.79-36.7a8.41,8.41,0,0,0-8.4,8.4v13.79a8.41,8.41,0,0,0,8.4,8.4H545a8.41,8.41,0,0,0,8.4-8.4V263.93a8.41,8.41,0,0,0-8.4-8.4Z"/><path class="cls-3" d="M781.79,292.23H768a14.53,14.53,0,0,1-14.51-14.51V263.93A14.53,14.53,0,0,1,768,249.41h13.79a14.53,14.53,0,0,1,14.52,14.52v13.79A14.53,14.53,0,0,1,781.79,292.23ZM768,255.53a8.41,8.41,0,0,0-8.4,8.4v13.79a8.41,8.41,0,0,0,8.4,8.4h13.79a8.41,8.41,0,0,0,8.4-8.4V263.93a8.41,8.41,0,0,0-8.4-8.4Z"/><path class="cls-3" d="M781.79,504.29H768a14.53,14.53,0,0,1-14.51-14.52V476A14.53,14.53,0,0,1,768,461.47h13.79A14.53,14.53,0,0,1,796.31,476v13.78A14.53,14.53,0,0,1,781.79,504.29ZM768,467.59a8.41,8.41,0,0,0-8.4,8.4v13.78a8.41,8.41,0,0,0,8.4,8.4h13.79a8.41,8.41,0,0,0,8.4-8.4V476a8.41,8.41,0,0,0-8.4-8.4Z"/><rect class="cls-3" x="619.17" y="234.12" width="73.4" height="55.05" rx="11.26"/><path class="cls-6" d="M677.49,252.6c0,11.38-20.1,31.66-20.1,31.66S636.28,264,636.28,252.6c0-5.36,2.1-9.06,7-9.55,10-1,14.07,10,14.07,10s4.75-10,12.06-10C675.48,243.05,677.49,246.91,677.49,252.6Z"/><path class="cls-11" d="M767,610.81c-23-18-64.14-30.06-111.11-30.06-46.77,0-87.78,11.93-110.82,29.84a86.49,86.49,0,0,0,33.88,6.87H733.64A86.47,86.47,0,0,0,767,610.81Z"/><rect class="cls-2" x="705.21" y="362.58" width="19.57" height="48.94" rx="8.16"/><path class="cls-11" d="M567.22,342.53c-.06.81-.12,1.62-.12,2.45l-.23,12v13C573.54,385,739,385,745.71,370V347a31.32,31.32,0,0,0-31.32-31.32H598.19A31.31,31.31,0,0,0,567.22,342.53Z"/></svg>