<svg id="Layer_1" data-name="Layer 1" xmlns="http://www.w3.org/2000/svg" viewBox="0 0 1313 1640"><defs><style>.cls-1{fill:#e9ebff;}.cls-2{fill:#e07f6c;}.cls-3{fill:#ce695b;}.cls-4{fill:#fbac91;}.cls-5{fill:#3d6a84;}.cls-6{fill:#fff;}.cls-19,.cls-7{fill:#ff99c3;}.cls-8{fill:#baf4ed;}.cls-9{fill:#ffbddb;}.cls-10{fill:#ea7aad;}.cls-11{fill:#d4fff9;}.cls-12{fill:#7fd4b1;}.cls-13{fill:#f2f2f2;}.cls-14,.cls-18,.cls-20{fill:none;stroke-linecap:round;stroke-miterlimit:10;}.cls-14{stroke:#f2f2f2;stroke-width:5.73px;}.cls-15{fill:#ffa9d6;}.cls-16{fill:#333;}.cls-17{fill:#ffd7e9;}.cls-18{stroke:#fff;stroke-width:4.68px;}.cls-19{font-size:85.14px;font-family:Amatic-Bold, Amatic;font-weight:700;}.cls-20{stroke:#ff99c3;stroke-width:4.12px;}</style></defs><title>icons-01</title><rect class="cls-1" width="1313" height="1640"/><path class="cls-2" d="M97.5,328.84h35.82a16.54,16.54,0,0,0,16.54-16.53V241a16.54,16.54,0,0,0-16.54-16.54H97.5A19.16,19.16,0,0,0,78.81,241c-2.06,17.72-2.4,53.67,0,71.35A19.32,19.32,0,0,0,97.5,328.84Z"/><path class="cls-3" d="M144.12,257.23,149.86,241a16.54,16.54,0,0,0-16.54-16.54H97.5A19.16,19.16,0,0,0,78.81,241c-.62,5.27-1.07,12.15-1.36,19.69C93,266.29,144.12,265.05,144.12,257.23Z"/><path class="cls-2" d="M294.73,328.84H258.9a16.54,16.54,0,0,1-16.54-16.53V241a16.54,16.54,0,0,1,16.54-16.54h35.83A19.16,19.16,0,0,1,313.41,241c2.06,17.72,2.4,53.67,0,71.35A19.32,19.32,0,0,1,294.73,328.84Z"/><path class="cls-3" d="M242.69,241l5.74,16.27c0,7.77,50.48,9,66.34,3.53-.28-7.58-.74-14.51-1.36-19.8a19.16,19.16,0,0,0-18.68-16.54h-35.5A16.53,16.53,0,0,0,242.69,241Z"/><rect class="cls-4" x="103.62" y="84.43" width="184.74" height="305.23" rx="48.84"/><rect class="cls-5" x="223.3" y="76.4" width="32.13" height="48.19" rx="6.6"/><rect class="cls-5" x="139.53" y="76.4" width="32.13" height="48.19" rx="6.6"/><rect class="cls-2" x="145.67" y="219.83" width="100.64" height="99.83" rx="17.63"/><rect class="cls-3" x="103.96" y="337.45" width="184.74" height="5.74"/><path class="cls-5" d="M256.43,120h12.62a0,0,0,0,1,0,0V360.4a6.31,6.31,0,0,1-6.31,6.31h0a6.31,6.31,0,0,1-6.31-6.31V120A0,0,0,0,1,256.43,120Z"/><path class="cls-5" d="M123.18,120H135.8a0,0,0,0,1,0,0V360.4a6.31,6.31,0,0,1-6.31,6.31h0a6.31,6.31,0,0,1-6.31-6.31V120a0,0,0,0,1,0,0Z"/><path class="cls-3" d="M255.06,170.49C240.51,165.64,229,151,196.9,151c-37.86,0-44.75,13.88-59.3,19.51-17.33,6.7-33.64-15.06-33.64-33.64v-4.12a48.29,48.29,0,0,1,48.3-48.3H240.4a48.29,48.29,0,0,1,48.3,48.3v4.12C288.7,155.43,272.69,176.36,255.06,170.49Z"/><path class="cls-6" d="M133.08,326h-7.76a8.18,8.18,0,0,1-8.17-8.16V310a8.18,8.18,0,0,1,8.17-8.16h7.76a8.17,8.17,0,0,1,8.17,8.16v7.77A8.17,8.17,0,0,1,133.08,326Zm-7.76-20.65A4.73,4.73,0,0,0,120.6,310v7.77a4.73,4.73,0,0,0,4.72,4.72h7.76a4.73,4.73,0,0,0,4.73-4.72V310a4.73,4.73,0,0,0-4.73-4.72Z"/><path class="cls-6" d="M133.37,206.64h-7.76a8.18,8.18,0,0,1-8.17-8.17v-7.76a8.17,8.17,0,0,1,8.17-8.17h7.76a8.18,8.18,0,0,1,8.17,8.17v7.76A8.19,8.19,0,0,1,133.37,206.64ZM125.61,186a4.73,4.73,0,0,0-4.73,4.73v7.76a4.73,4.73,0,0,0,4.73,4.72h7.76a4.74,4.74,0,0,0,4.73-4.72v-7.76a4.74,4.74,0,0,0-4.73-4.73Z"/><path class="cls-6" d="M266.62,206.64h-7.76a8.19,8.19,0,0,1-8.17-8.17v-7.76a8.18,8.18,0,0,1,8.17-8.17h7.76a8.18,8.18,0,0,1,8.17,8.17v7.76A8.19,8.19,0,0,1,266.62,206.64ZM258.86,186a4.73,4.73,0,0,0-4.73,4.73v7.76a4.73,4.73,0,0,0,4.73,4.72h7.76a4.73,4.73,0,0,0,4.73-4.72v-7.76a4.73,4.73,0,0,0-4.73-4.73Z"/><path class="cls-6" d="M266.62,326h-7.76a8.18,8.18,0,0,1-8.17-8.16V310a8.18,8.18,0,0,1,8.17-8.16h7.76a8.18,8.18,0,0,1,8.17,8.16v7.77A8.18,8.18,0,0,1,266.62,326Zm-7.76-20.65a4.73,4.73,0,0,0-4.73,4.72v7.77a4.73,4.73,0,0,0,4.73,4.72h7.76a4.73,4.73,0,0,0,4.73-4.72V310a4.73,4.73,0,0,0-4.73-4.72Z"/><rect class="cls-6" x="175.1" y="173.93" width="41.31" height="30.98" rx="6.34"/><path class="cls-7" d="M207.92,184.33c0,6.4-11.31,17.82-11.31,17.82s-11.88-11.42-11.88-17.82c0-3,1.19-5.1,4-5.37,5.66-.57,7.92,5.65,7.92,5.65s2.67-5.65,6.79-5.65C206.79,179,207.92,181.13,207.92,184.33Z"/><path class="cls-3" d="M258.28,385.92C245.35,375.77,222.19,369,195.76,369s-49.4,6.72-62.37,16.8a48.8,48.8,0,0,0,19.07,3.86h87.06A48.76,48.76,0,0,0,258.28,385.92Z"/><rect class="cls-5" x="223.52" y="246.22" width="11.02" height="27.54" rx="4.59"/><path class="cls-3" d="M145.87,234.94c0,.46-.07.91-.07,1.38l-.13,6.78v7.32c3.75,8.4,96.89,8.4,100.64,0v-13a17.62,17.62,0,0,0-17.62-17.63h-65.4A17.61,17.61,0,0,0,145.87,234.94Z"/><path class="cls-5" d="M739.83,321.76l45.23-41.6s-18.35-6.38-84.73,22.34c-13.45,5.82-24.08,9.32-34.16,13.84-24-.23-47.34,3.51-60.91,5.22s-48.79,10.37-64.63,14.35a10,10,0,0,0-7.59,9.67C533,359,529.9,386.78,507.6,403c-21.1,15.37-36.61,16.61-44,16a4.67,4.67,0,0,0-5,5.11c2.71,29.67,49.32,81.66,49.32,81.66l125.46-96L698,360.25S744.86,322,739.83,321.76Z"/><path class="cls-6" d="M672.39,352.43l-.71.53c-11.11,8.19-30.75,13.46-49.74,18.55-15.88,4.26-32.3,8.67-39.52,14-8.36,6.09-11.64,15.64-15.46,26.68-3.27,9.45-6.66,19.23-13.67,27.87a98.57,98.57,0,0,1-35.47,27.09l-4.37-10.69a88.33,88.33,0,0,0,30.87-23.68c5.73-7.06,8.64-15.47,11.72-24.37,4.09-11.79,8.29-23.95,19.55-32.22,9-6.58,25.67-11.06,43.35-15.8,18-4.82,36.53-9.8,45.89-16.7,9.88-7.26,16.33-19.57,16.39-19.7l10.26,5.33C691.17,329.87,684,343.53,672.39,352.43Z"/><path class="cls-4" d="M466.36,447.31c14,27.69,41.53,58.44,41.53,58.44l73.63-56.36C533.36,418.85,484.76,437.89,466.36,447.31Z"/><path class="cls-6" d="M470.23,454.47l1.34,2.32c20.2-9.05,59.57-20.73,99.81.36l2.33-1.79C531.94,432.86,491,445.13,470.23,454.47Z"/><rect class="cls-6" x="541.52" y="338.48" width="37.53" height="8.91" rx="4.27" transform="translate(207.76 897.23) rotate(-89.01)"/><rect class="cls-6" x="571.82" y="330.6" width="37.53" height="8.91" rx="4.27" transform="translate(245.41 919.78) rotate(-89.01)"/><rect class="cls-6" x="603.41" y="326.94" width="37.53" height="8.91" rx="4.27" transform="translate(280.11 947.77) rotate(-89.01)"/><path class="cls-4" d="M700.33,302.5c-13.45,5.82-24.08,9.32-34.16,13.84H666l46.45,23.9,7.91,1.23c11.26-9.72,64.72-61.31,64.72-61.31S766.71,273.78,700.33,302.5Z"/><path class="cls-6" d="M782.89,279.76c-15.56,15-46,44.1-54.86,51.87l-7.09-1.11-39.59-20.37L678,311.44l42.07,21.65,8.09,1.26c18.6-17.25,56.87-54.19,56.87-54.19A12.06,12.06,0,0,0,782.89,279.76Z"/><path class="cls-6" d="M801.12,313.75c-.12.1-.24.2-.34.3-1.56,1.59-14.77,15-42.94,41.79-40.94,39-159.22,126.5-205.94,158.54-11.49,7.88-19,12.51-19,12.51a13.3,13.3,0,0,1-18.63-2.57l-9.69-12.65c-4.43-5.79-9.2-12,2.18-18.49.15-.09.28-.21.43-.3,1.37-.87,9.16-5.82,20.38-13.48,47.83-32.63,163.48-118.33,203.64-156.9,26.59-25.55,41.54-40.25,43.55-42.24a4.23,4.23,0,0,1,.51-.44c5.79-4.2,11.32-6.43,18.36,2.77l9.68,12.65A13.3,13.3,0,0,1,801.12,313.75Z"/><path class="cls-8" d="M671.77,1098.59l-63.25,21.78-63.25,21.79a13.9,13.9,0,0,0-7.78,19.61l88.68,168.57A13.91,13.91,0,0,0,643,1337l35.87-12.35,35.87-12.36a13.9,13.9,0,0,0,9.15-15.61L690,1109.26A13.9,13.9,0,0,0,671.77,1098.59Zm13.66,54.12,25.72,135.12c.78,4.91-2.58,9.9-7.91,11.74l-29.51,10.16-29.52,10.16c-5.33,1.84-11.05,0-13.45-4.38l-62.93-122.3c-3-5.41.29-12.34,6.92-14.63L622.86,1162,671,1145.45C677.6,1143.17,684.45,1146.61,685.43,1152.71Z"/><path class="cls-7" d="M704,1294.46a33.68,33.68,0,0,1-7,2.14,32.52,32.52,0,0,1-6.88.42l-47-255.81s2.15-2.09,7.06-3a12.79,12.79,0,0,1,6.83.43Z"/><path class="cls-7" d="M671,1145.45,622.86,1162l-48.11,16.56c-6.63,2.29-9.91,9.22-6.92,14.63l62.93,122.3c2.4,4.36,8.12,6.22,13.45,4.38l29.52-10.16,29.51-10.16c5.33-1.84,8.69-6.83,7.91-11.74l-25.72-135.12C684.45,1146.61,677.6,1143.17,671,1145.45Z"/><path class="cls-9" d="M654.74,1104.46l8.06,43.8,8.17-2.81a12.68,12.68,0,0,1,5.56-.62l-8.28-45Z"/><circle class="cls-6" cx="574.71" cy="1102.58" r="10.39"/><circle class="cls-6" cx="608.57" cy="1072.02" r="8.31"/><circle class="cls-6" cx="578.39" cy="1049.45" r="10.39"/><rect class="cls-4" x="590.98" y="1178.15" width="49.86" height="49.86" rx="12.87" transform="translate(23.84 -11.91) rotate(1.13)"/><rect class="cls-4" x="643.01" y="1204.18" width="49.86" height="49.86" rx="12.87" transform="translate(-715.57 1022.32) rotate(-52.98)"/><path class="cls-6" d="M654.51,1239.88a2.07,2.07,0,0,1-1.93-.3c-2.94-2.22-4.52-4.88-4.71-7.9-.17-2.78.88-5.7,3.12-8.66a2.07,2.07,0,1,1,3.31,2.5c-1.62,2.15-2.39,4.14-2.28,5.91s1.14,3.38,3.06,4.83a2.07,2.07,0,0,1-.57,3.62Z"/><rect class="cls-4" x="625.7" y="1261.11" width="49.86" height="49.86" rx="12.87" transform="translate(-41.83 22.03) rotate(-1.88)"/><path class="cls-10" d="M671,1145.45l-8.17,2.81L690.15,1297a32.52,32.52,0,0,0,6.88-.42,33.68,33.68,0,0,0,7-2.14l-27.51-149.63A12.68,12.68,0,0,0,671,1145.45Z"/><path class="cls-6" d="M601.73,1192.81a1.91,1.91,0,0,1-.72.11,2.08,2.08,0,0,1-2-2.13l.08-3.16a2.08,2.08,0,1,1,4.15.1l-.08,3.17A2.07,2.07,0,0,1,601.73,1192.81Z"/><path class="cls-6" d="M601.11,1218.12a2.19,2.19,0,0,1-.73.11,2.08,2.08,0,0,1-2-2.14l.41-14.74a2.08,2.08,0,0,1,4.15.11l-.41,14.75A2.07,2.07,0,0,1,601.11,1218.12Z"/><path class="cls-6" d="M635.22,1303.19a1.8,1.8,0,0,1-.62.11,2.07,2.07,0,0,1-2.13-2l-.43-14.75a2.08,2.08,0,1,1,4.15-.12l.43,14.75A2.07,2.07,0,0,1,635.22,1303.19Z"/><circle class="cls-2" cx="979.49" cy="1185.28" r="30.22"/><path class="cls-5" d="M1170.85,1399.5l-64.73-114.68a5.64,5.64,0,0,1-4.94-2c-3.88-4.71-46-69.26-50.42-72.56-1.49,1.76-40.76,58.46-42.5,73.91a7.53,7.53,0,0,1-8.88,6.45l-61.89,108.86a14.16,14.16,0,0,0,12.3,21.15h208.73A14.15,14.15,0,0,0,1170.85,1399.5Z"/><path class="cls-6" d="M1066.86,1215.28a14.15,14.15,0,0,0-24.63,0l-45.55,80.11h0c19.44,1.64,28.07-23.18,35-24.91,7.33-1.83,10.08,20.14,20.15,15.56s12.85-25.46,18.31-26.55c9.16-1.83,24.42,41.58,38.42,29.69Z"/><path class="cls-4" d="M1225.94,1406.61l-50.38-77.43a6.68,6.68,0,0,1-8.21-4.59c-1.54-5-4.9-9.66-7.31-14.26-2.1-4-4.17-8-6.38-12-1.56-2.79-3.18-6.51-5.65-8.6s-5.62-1.84-9-1.43c-9,1.1-12.06,10.92-15.55,18a45.41,45.41,0,0,1-14.34,17.12,6.16,6.16,0,0,1-3.89,1.22l-47.22,82.6a12.61,12.61,0,0,0,11,18.87h146.39A12.61,12.61,0,0,0,1225.94,1406.61Z"/><path class="cls-6" d="M1148,1286.84a12.6,12.6,0,0,0-20.28-1.14l-1.34,2-21.76,38c4.42-1.19,10.39-1.63,15,2.42,8.24,7.33,8.24,21.07,16.05,20.72,8.67-.38,7.75-29,16-29,7.32,0,12.36,15.61,24.37,10Z"/><path class="cls-4" d="M1028.11,1425.77l-52.6-80.85a6.39,6.39,0,0,1-4.84-.83c-3-1.77-5.82-2.72-8.43-5.28s-25.61,8-29.08,5.07l-47.11,82.41a10.67,10.67,0,0,0,9.27,16h123.85A10.67,10.67,0,0,0,1028.11,1425.77Z"/><path class="cls-6" d="M962.18,1324.43A10.67,10.67,0,0,0,944,1325l-11.36,19.87c3.81,2.7,8.42,6.19,16.66,1.61,13.33-7.4,19.34-.88,26.52-1.08Z"/><path class="cls-6" d="M976.65,1199.54a23.5,23.5,0,0,0-45.25,1.31c-.44,0-.88-.06-1.33-.06a16.51,16.51,0,0,0,0,33H975.8c9.12,0,16.51-8.66,16.51-17.78A16.51,16.51,0,0,0,976.65,1199.54Z"/><path class="cls-6" d="M1201.71,1221.15a17.08,17.08,0,0,0-2.27.15,23.11,23.11,0,0,0-44,10,25.11,25.11,0,0,0,.2,3,15.8,15.8,0,1,0-5.47,30.63h51.5c9.85,0,20.28-8.92,20.28-22.7C1222,1230.07,1211.56,1221.15,1201.71,1221.15Z"/><path class="cls-11" d="M1066.81,1427.07a9.69,9.69,0,0,1,.07-4.41l4,1a5.81,5.81,0,0,0-.09,2.42Z"/><path class="cls-11" d="M1074,1419.33l-2.4-3.35a21.38,21.38,0,0,1,6.92-3.1l1.07,4A17.15,17.15,0,0,0,1074,1419.33Zm12-3.55-.36-4.1c1.8-.15,3.76-.23,5.81-.23h1.23l0,4.12h-1.26C1089.52,1415.56,1087.68,1415.64,1086,1415.78Zm13.62-.29-.07-4.12c2.25,0,4.55-.1,6.86-.16l.12,4.11C1104.2,1415.39,1101.89,1415.45,1099.62,1415.49Zm13.82-.4-.16-4.11,6.87-.28.18,4.11C1118,1414.91,1115.74,1415,1113.44,1415.09Zm13.78-.59-.2-4.12,6.87-.34.22,4.11Zm13.77-.71-.22-4.11,6.89-.37.21,4.12Zm13.75-.71-.19-4.11c3-.14,5.27-.23,7-.26l.07,4.12C1159.93,1412.86,1157.7,1412.94,1154.74,1413.08Zm13.89-.57-.43-4.1a41.37,41.37,0,0,0,6.44-1.17l1.09,4A44.92,44.92,0,0,1,1168.63,1412.51Zm14-4.3-2.34-3.39c1.62-1.11,2.41-2.31,2.41-3.67v-.26l4.12-.08v.34C1186.83,1403.06,1186.11,1405.83,1182.65,1408.21Zm-1.56-12.52a10.72,10.72,0,0,0-4.71-3.2l1.51-3.83a14.65,14.65,0,0,1,6.45,4.51Zm-10.94-4.82c-1.94-.33-4.11-.59-6.65-.8l.33-4.1c2.66.21,5,.49,7,.84Zm-13.43-1.18q-3.23-.12-6.84-.16l.06-4.12c2.44,0,4.75.09,6.93.17Zm-14.48-.2c-2.14,0-4.19,0-6.14-.07l.1-4.12q2.88.08,6,.07h.8v4.12Zm-13.1-.36c-2.51-.16-4.86-.38-7-.64l.51-4.09c2,.26,4.3.46,6.73.62Zm-14-1.85a34.78,34.78,0,0,1-6.92-2.32l1.76-3.72a31.08,31.08,0,0,0,6.1,2Zm-13.1-7a13.85,13.85,0,0,1-3-7.35l4.1-.45a9.62,9.62,0,0,0,2.07,5.21Zm1.79-13.57-3.82-1.53a13.39,13.39,0,0,1,5.08-6.16l2.3,3.42A9.14,9.14,0,0,0,1103.86,1366.76Zm9.21-6.59-1-4a38.21,38.21,0,0,1,7.2-.94l.18,4.11A34.17,34.17,0,0,0,1113.07,1360.17Zm20.09-.69c-2.34,0-4.54-.07-6.52-.11h-.39l.09-4.12h.39c2,0,4.14.09,6.46.11Zm6.95,0-.1-4.12c2.42-.06,4.69-.17,6.77-.33l.32,4.1C1145,1359.26,1142.6,1359.37,1140.11,1359.44Zm14-1.17-.68-4.07a41.24,41.24,0,0,0,6.37-1.52l1.32,3.9A46,46,0,0,1,1154.12,1358.27Zm13.74-5.26-2.67-3.14a6.27,6.27,0,0,0,2.41-4.46l4.11.3A10.36,10.36,0,0,1,1167.86,1353Zm-2-11.74a13.7,13.7,0,0,0-5.55-2l.75-4a17.65,17.65,0,0,1,7.24,2.75Zm-12.15-2.76c-1.9-.12-3.87-.19-5.83-.27l-1,0,.16-4.11,1,0c2,.07,4,.15,5.93.27Zm-13.83-.69a44.76,44.76,0,0,1-7.14-1.09l1-4a41.12,41.12,0,0,0,6.48,1Zm-14.17-4.79a8.42,8.42,0,0,1-1.83-3.17,11.67,11.67,0,0,1-.57-3.53,10.39,10.39,0,0,1,.09-1.37l4.08.55a5.56,5.56,0,0,0,0,.82,7.32,7.32,0,0,0,.38,2.29,4.32,4.32,0,0,0,.94,1.63Zm4.52-11.91-2.58-3.21a21,21,0,0,1,6.76-3.45l1.26,3.92A17.07,17.07,0,0,0,1130.2,1321.12Zm11.78-4.06-.48-4.09a56.24,56.24,0,0,1,6.22-.34l.79,0,.21,4.11-1,0A49.84,49.84,0,0,0,1142,1317.06Zm14.47-3.44-3.14-2.67a2.59,2.59,0,0,0,.58-1.75,2.07,2.07,0,0,0-.71-1.63l2.85-3a6.15,6.15,0,0,1,2,4.6A6.65,6.65,0,0,1,1156.45,1313.62Zm-8.54-8.19c-1.81-.4-3.88-.71-5.88-1l-.79-.11.61-4.07.78.11c2.07.31,4.21.63,6.16,1.06Zm-13.68-2.45c-2.29-.61-5.52-1.75-7-4.41l3.59-2c.54,1,2,1.78,4.48,2.44Zm-2.51-9.83-2.41-3.34a18.57,18.57,0,0,1,4.91-2.24c.63-.21,1.26-.43,1.87-.67l1.5,3.84c-.66.26-1.35.49-2,.73A15.54,15.54,0,0,0,1131.72,1293.15Z"/><path class="cls-11" d="M1144,1284.6l-4-1.08a7,7,0,0,0,.12-2.63l4.08-.48A10.81,10.81,0,0,1,1144,1284.6Z"/><rect class="cls-3" x="982.95" y="1455.36" width="6.86" height="8.23"/><rect class="cls-3" x="1003.54" y="1447.13" width="6.86" height="8.23"/><path class="cls-12" d="M1018.35,1451.25H995.73a2.42,2.42,0,0,1-2.29-3.17l13.6-41.56,13.61,41.56A2.42,2.42,0,0,1,1018.35,1451.25Z"/><path class="cls-5" d="M1018.35,1451.25a2.42,2.42,0,0,0,2.3-3.17L1007,1406.52v44.73Z"/><path class="cls-12" d="M997.77,1459.48H975.15a2.41,2.41,0,0,1-2.3-3.16l13.61-41.57,13.6,41.57A2.41,2.41,0,0,1,997.77,1459.48Z"/><path class="cls-5" d="M997.77,1459.48a2.41,2.41,0,0,0,2.29-3.16l-13.6-41.57v44.73Z"/><ellipse class="cls-2" cx="933.65" cy="227.48" rx="19.24" ry="13.51"/><circle class="cls-1" cx="923.83" cy="227.48" r="4.5"/><rect class="cls-5" x="956.16" y="150.13" width="48.29" height="22.1" rx="8.04"/><path class="cls-4" d="M1204,332.66H955.72a24.1,24.1,0,0,1-24.11-24.11V188.15A24.11,24.11,0,0,1,955.72,164l57.79-.63,9.57-13.28H1204a24.1,24.1,0,0,1,24.11,24.11V308.55A24.1,24.1,0,0,1,1204,332.66Z"/><path class="cls-8" d="M1204,150.13H1023.08l-9.57,13.28-57.79.63a24.11,24.11,0,0,0-24.11,24.11v11.91h296.51V174.24A24.1,24.1,0,0,0,1204,150.13Z"/><circle class="cls-13" cx="1089.79" cy="243.85" r="66.71"/><circle class="cls-2" cx="1089.79" cy="243.85" r="61.8"/><circle class="cls-7" cx="1089.79" cy="243.85" r="51.36"/><path class="cls-13" d="M1097.71,285.21a2.87,2.87,0,0,1-.58-5.68A36.63,36.63,0,0,0,1124,256.37a2.86,2.86,0,0,1,5.38,2,42.45,42.45,0,0,1-31.11,26.81A2.76,2.76,0,0,1,1097.71,285.21Z"/><path class="cls-14" d="M1126.45,229.68a38.91,38.91,0,0,1,2.39,9.84"/><circle cx="1089.79" cy="243.85" r="16.17"/><rect class="cls-5" x="1174.39" y="161.59" width="40.76" height="27.01" rx="7.98"/><rect class="cls-6" x="1138.7" y="166.68" width="25.37" height="16.81" rx="4.96"/><path class="cls-15" d="M1098.87,240.76c0,4.91-8.68,13.67-8.68,13.67s-9.12-8.76-9.12-13.67c0-2.32.91-3.92,3-4.13,4.34-.43,6.08,4.34,6.08,4.34s2-4.34,5.21-4.34C1098,236.63,1098.87,238.3,1098.87,240.76Z"/><circle class="cls-10" cx="984.4" cy="283.96" r="18.42"/><circle class="cls-7" cx="984.4" cy="283.96" r="12.01"/><rect class="cls-6" x="1029.98" y="169.77" width="18.53" height="12.28" rx="3.63"/><path class="cls-5" d="M1098.87,240.76c0,4.91-8.68,13.67-8.68,13.67s-9.12-8.76-9.12-13.67c0-2.32.91-3.92,3-4.13,4.34-.43,6.08,4.34,6.08,4.34s2-4.34,5.21-4.34C1098,236.63,1098.87,238.3,1098.87,240.76Z"/><path class="cls-6" d="M246.82,1345.75h66.81a13.24,13.24,0,0,0,12.18-18.46l-75-175a4.33,4.33,0,0,0-8.31,1.7v187.44A4.33,4.33,0,0,0,246.82,1345.75Z"/><path class="cls-6" d="M219.26,1345.75h-103a12.77,12.77,0,0,1-10.85-19.51l108.66-175.11a6.12,6.12,0,0,1,11.33,3.23v185.27A6.12,6.12,0,0,1,219.26,1345.75Z"/><rect class="cls-7" x="343.23" y="1352.41" width="27.56" height="18.06"/><rect class="cls-3" x="340.38" y="1346.7" width="6.65" height="40.87" rx="3.33"/><rect class="cls-3" x="229.18" y="1148.1" width="9.5" height="236.62" rx="4.59"/><path class="cls-3" d="M176,1361H285.78a51.75,51.75,0,0,1,51.75,51.75v1.47a0,0,0,0,1,0,0H176a0,0,0,0,1,0,0V1361A0,0,0,0,1,176,1361Z"/><circle class="cls-6" cx="283.83" cy="1381.39" r="14.73"/><path class="cls-2" d="M302.81,1425.59h-154a56.49,56.49,0,0,1-56.48-56.49v-5.29l261.35,18.06v10.9C353.68,1420.87,330.9,1425.59,302.81,1425.59Z"/><path class="cls-8" d="M117.11,1345.75H225.38l-66.29-106.06-53.25,85.81A13.26,13.26,0,0,0,117.11,1345.75Z"/><path class="cls-5" d="M383.27,1429.49c-5.67,0-8.59-3.36-10.94-6.07s-3.9-4.3-7.08-4.3-4.76,1.63-7.08,4.3-5.27,6.07-10.94,6.07-8.59-3.36-10.94-6.07-3.9-4.3-7.07-4.3-4.75,1.63-7.07,4.3-5.27,6.07-10.94,6.07-8.59-3.36-10.94-6.07-3.9-4.3-7.07-4.3-4.75,1.63-7.07,4.3-5.26,6.07-10.93,6.07-8.6-3.36-10.94-6.07-3.9-4.3-7.07-4.3-4.76,1.63-7.07,4.3-5.27,6.07-10.94,6.07-8.59-3.36-10.94-6.07-3.9-4.3-7.07-4.3-4.75,1.63-7.07,4.3-5.27,6.07-10.94,6.07-8.59-3.36-10.94-6.07-3.89-4.3-7.07-4.3-4.75,1.63-7.06,4.3-5.27,6.07-10.94,6.07-8.59-3.36-10.94-6.07-3.9-4.3-7.07-4.3-4.75,1.63-7.07,4.3-5.26,6.07-10.93,6.07-8.6-3.36-10.94-6.07-3.89-4.3-7.07-4.3-4.68,1.55-7.06,4.3-5.27,6.07-10.94,6.07-8.59-3.36-10.94-6.07-3.89-4.3-7.06-4.3V1414c5.67,0,8.59,3.37,10.93,6.07s3.89,4.31,7.07,4.31,4.68-1.56,7.07-4.31,5.26-6.07,10.93-6.07,8.59,3.37,10.94,6.07,3.89,4.31,7.07,4.31,4.75-1.64,7.06-4.31,5.27-6.07,10.94-6.07,8.59,3.37,10.94,6.07,3.9,4.31,7.07,4.31,4.75-1.64,7.07-4.31,5.26-6.07,10.93-6.07,8.6,3.37,10.94,6.07,3.89,4.31,7.07,4.31,4.75-1.64,7.07-4.31,5.27-6.07,10.94-6.07,8.59,3.37,10.94,6.07,3.89,4.31,7.07,4.31,4.75-1.64,7.07-4.31,5.27-6.07,10.94-6.07,8.59,3.37,10.94,6.07,3.89,4.31,7.07,4.31,4.68-1.56,7.06-4.31,5.27-6.07,10.94-6.07,8.59,3.37,10.94,6.07,3.9,4.31,7.07,4.31,4.75-1.64,7.07-4.31,5.27-6.07,10.94-6.07,8.59,3.37,10.94,6.07,3.9,4.31,7.07,4.31,4.76-1.64,7.08-4.31,5.27-6.07,10.94-6.07,8.6,3.37,10.95,6.07,3.9,4.31,7.07,4.31Z"/><path class="cls-5" d="M382,1448.07c-5.67,0-8.59-3.37-10.94-6.07s-3.9-4.31-7.08-4.31-4.76,1.64-7.08,4.31-5.27,6.07-10.94,6.07-8.59-3.37-10.94-6.07-3.9-4.31-7.07-4.31-4.75,1.64-7.07,4.31-5.27,6.07-10.94,6.07-8.6-3.37-10.94-6.07-3.9-4.31-7.07-4.31-4.68,1.56-7.07,4.31-5.26,6.07-10.94,6.07-8.59-3.37-10.93-6.07-3.9-4.31-7.07-4.31-4.76,1.64-7.07,4.31-5.27,6.07-10.94,6.07-8.6-3.37-10.94-6.07-3.9-4.31-7.07-4.31-4.75,1.64-7.07,4.31-5.27,6.07-10.94,6.07-8.59-3.37-10.94-6.07-3.9-4.31-7.07-4.31-4.75,1.64-7.07,4.31-5.26,6.07-10.93,6.07-8.59-3.37-10.94-6.07-3.89-4.31-7.07-4.31-4.75,1.64-7.07,4.31-5.27,6.07-10.94,6.07-8.59-3.37-10.93-6.07-3.9-4.31-7.07-4.31-4.68,1.56-7.07,4.31-5.26,6.07-10.93,6.07-8.59-3.37-10.94-6.07-3.89-4.31-7.06-4.31v-5.12c5.67,0,8.59,3.36,10.93,6.07s3.89,4.3,7.07,4.3,4.68-1.55,7.06-4.3,5.27-6.07,10.94-6.07,8.59,3.36,10.94,6.07,3.89,4.3,7.06,4.3,4.76-1.63,7.07-4.3,5.27-6.07,10.94-6.07,8.59,3.36,10.94,6.07,3.9,4.3,7.07,4.3,4.75-1.63,7.06-4.3,5.27-6.07,10.94-6.07,8.59,3.36,10.94,6.07,3.9,4.3,7.07,4.3,4.75-1.63,7.07-4.3,5.27-6.07,10.94-6.07,8.59,3.36,10.94,6.07,3.89,4.3,7.07,4.3,4.75-1.63,7.07-4.3,5.26-6.07,10.94-6.07,8.59,3.36,10.94,6.07,3.89,4.3,7.06,4.3,4.76-1.63,7.07-4.3,5.27-6.07,10.94-6.07,8.59,3.36,10.94,6.07,3.89,4.3,7.07,4.3,4.75-1.63,7.07-4.3,5.27-6.07,10.94-6.07,8.59,3.36,10.94,6.07,3.9,4.3,7.07,4.3,4.76-1.63,7.08-4.3,5.27-6.07,10.94-6.07,8.6,3.36,10.94,6.07,3.91,4.3,7.08,4.3Z"/><path class="cls-5" d="M382,1466c-5.67,0-8.59-3.37-10.94-6.07s-3.9-4.31-7.08-4.31-4.76,1.64-7.08,4.31S351.62,1466,346,1466s-8.59-3.37-10.94-6.07-3.9-4.31-7.07-4.31-4.75,1.64-7.07,4.31-5.27,6.07-10.94,6.07-8.6-3.37-10.94-6.07-3.9-4.31-7.07-4.31-4.68,1.56-7.07,4.31-5.26,6.07-10.94,6.07-8.59-3.37-10.93-6.07-3.9-4.31-7.07-4.31-4.76,1.64-7.07,4.31-5.27,6.07-10.94,6.07-8.6-3.37-10.94-6.07-3.9-4.31-7.07-4.31-4.75,1.64-7.07,4.31-5.27,6.07-10.94,6.07-8.59-3.37-10.94-6.07-3.9-4.31-7.07-4.31-4.75,1.64-7.07,4.31-5.26,6.07-10.93,6.07-8.59-3.37-10.94-6.07-3.89-4.31-7.07-4.31-4.75,1.64-7.07,4.31-5.27,6.07-10.94,6.07-8.59-3.37-10.93-6.07-3.9-4.31-7.07-4.31-4.68,1.56-7.07,4.31S99.52,1466,93.85,1466s-8.59-3.37-10.94-6.07-3.89-4.31-7.06-4.31v-5.12c5.67,0,8.59,3.37,10.93,6.07s3.89,4.31,7.07,4.31,4.68-1.56,7.06-4.31,5.27-6.07,10.94-6.07,8.59,3.37,10.94,6.07,3.89,4.31,7.06,4.31,4.76-1.64,7.07-4.31,5.27-6.07,10.94-6.07,8.59,3.37,10.94,6.07,3.9,4.31,7.07,4.31,4.75-1.64,7.06-4.31,5.27-6.07,10.94-6.07,8.59,3.37,10.94,6.07,3.9,4.31,7.07,4.31,4.75-1.64,7.07-4.31,5.27-6.07,10.94-6.07,8.59,3.37,10.94,6.07,3.89,4.31,7.07,4.31,4.75-1.64,7.07-4.31,5.26-6.07,10.94-6.07,8.59,3.37,10.94,6.07,3.89,4.31,7.06,4.31,4.76-1.64,7.07-4.31,5.27-6.07,10.94-6.07,8.59,3.37,10.94,6.07,3.89,4.31,7.07,4.31,4.75-1.64,7.07-4.31,5.27-6.07,10.94-6.07,8.59,3.37,10.94,6.07,3.9,4.31,7.07,4.31,4.76-1.64,7.08-4.31,5.27-6.07,10.94-6.07,8.6,3.37,10.94,6.07,3.91,4.31,7.08,4.31Z"/><path class="cls-8" d="M242.49,1152.18v193.19a.09.09,0,0,0,.17,0l48.7-98.43a.09.09,0,0,0,0-.07l-41.27-96.29A4,4,0,0,0,242.49,1152.18Z"/><circle class="cls-3" cx="233.68" cy="1139.87" r="4.12"/><path class="cls-7" d="M213.09,1239.72c0,8.14-14.39,22.67-14.39,22.67s-15.12-14.53-15.12-22.67c0-3.84,1.5-6.49,5-6.84,7.2-.72,10.08,7.2,10.08,7.2s3.39-7.2,8.63-7.2C211.65,1232.88,213.09,1235.64,213.09,1239.72Z"/><path class="cls-8" d="M887,796.84a12.63,12.63,0,0,1,21.83-12.69c3.5,6,2.8,29.08,2.8,29.08S890.48,802.87,887,796.84Z"/><path class="cls-8" d="M1272.63,873.26a9.27,9.27,0,1,1,9,16.21c-4.47,2.48-21.39,1.62-21.39,1.62S1268.15,875.74,1272.63,873.26Z"/><path class="cls-7" d="M953.07,842.12a22.78,22.78,0,0,1-6-39.9c2.27-1.66,56-40.93,86.08-61.46,29.9-20.41,37.43-38.79,38.64-42.27a18.33,18.33,0,0,0,.37-10.18c-.7-2.39-2.17-5.13-7.87-7.37-4.51-1.77-8.11-1.78-11.68,0a20.82,20.82,0,0,0-3.48,2.23,22.77,22.77,0,0,1-32.09,2.81c-9.64-8.08-11.65-27.72-1-40.64,14.11-17.1,34-22.36,65.95-9.84,34.6,13.58,42.18,51,32.83,78-11,31.61-42.81,56-56,65C1029.44,798.5,974.55,838.6,974,839A22.76,22.76,0,0,1,953.07,842.12Z"/><circle class="cls-6" cx="1040.39" cy="661.74" r="12.47"/><circle class="cls-8" cx="1040.39" cy="661.74" r="8.69"/><circle class="cls-16" cx="1040.39" cy="661.74" r="6.43"/><path class="cls-6" d="M1043.12,661.09a1.57,1.57,0,0,1-.85-.7,1.66,1.66,0,0,1,.56-2.24l4.32-2.65a1.6,1.6,0,0,1,2.21.55,1.66,1.66,0,0,1-.56,2.24l-4.32,2.65A1.61,1.61,0,0,1,1043.12,661.09Z"/><path class="cls-17" d="M1027.5,695.47c-3.37,4.83-4.08,13.4-8.33,21.41-3,5.58-8.07,11-11,11.23s-10.69-8.51-10.54-18.05c.23-14,11.46-16.12,14.77-28.11,1.91-6.93,11.84-9.78,16.74-4.52S1031.61,689.57,1027.5,695.47Z"/><path class="cls-16" d="M1017.71,719.35c.45-8.21-3.59-15.64-10.57-18.06a14.52,14.52,0,0,0-7.18-.56,19.8,19.8,0,0,0-2.3,9.33c-.15,9.54,7.64,18.23,10.54,18.05C1010.67,728,1014.72,724,1017.71,719.35Z"/><path class="cls-7" d="M1217.35,892.56a21.2,21.2,0,0,1,1-4.27l2.49-7.17c2.75-7.93,1.63-15.51-6.29-18.26-6.92-2.41-11.32,1.56-14.94,7.61-1.08-.48-8.33-3.06-9.47-3.46L987.27,796.58a43.4,43.4,0,0,0-55.22,26.76h0a43.39,43.39,0,0,0,26.76,55.22L1161.7,949a43.39,43.39,0,0,0,55.22-26.76h0C1220.45,912.07,1216.1,902.45,1217.35,892.56Z"/><path class="cls-10" d="M1166.28,881.53c-8.68,25-52.86,32.33-91.11,19.05s-62.23-44.29-53.56-69.27,43.77-26,82-12.71S1175,856.55,1166.28,881.53Z"/><path class="cls-8" d="M1259.18,911.75a16,16,0,1,1,12.44,29.42c-8.12,3.44-36.95-1.12-36.95-1.12S1251.06,915.18,1259.18,911.75Z"/><rect class="cls-10" x="97.89" y="885.61" width="90.39" height="7.79" transform="translate(437.51 38.03) rotate(28.21)"/><rect x="289.77" y="689.58" width="23.38" height="36.91" rx="7.27" transform="translate(370.54 -58.4) rotate(28.21)"/><rect x="178.52" y="896.94" width="23.38" height="36.91" rx="7.27" transform="translate(455.35 18.83) rotate(28.21)"/><rect x="83.76" y="846.1" width="23.38" height="36.91" rx="7.27" transform="translate(420.06 57.59) rotate(28.21)"/><rect x="195.01" y="638.74" width="23.38" height="36.91" rx="7.27" transform="translate(335.25 -19.64) rotate(28.21)"/><path class="cls-8" d="M275.94,767.13c33.25-65.28,24.22-128.79,8.16-140.49-18.62-6.91-76.53,20.69-112.53,84.5-55.5,98.37-83.95,228.68-64.22,245C131.83,963.54,224.67,867.78,275.94,767.13Z"/><circle class="cls-3" cx="179.55" cy="821.53" r="42.08"/><path class="cls-6" d="M266.05,722.92s-25.54,5.75-33.51,1.48-14.92-26.58-14.92-26.58,22.43-6.54,30.4-2.26S266.05,722.92,266.05,722.92Z"/><circle cx="242.17" cy="704.8" r="14.03"/><path d="M231.81,725.77C218,718.37,215.1,698,215,697.08l-.23-1.68,1.52-.74c.79-.38,19.42-9.25,33.21-1.85s16.7,27.82,16.82,28.69l.23,1.68-1.53.74C264.23,724.3,245.59,733.16,231.81,725.77Zm-11.88-27.6c1,4.81,4.52,18.34,14.09,23.48s22.8.6,27.35-1.25c-1-4.81-4.52-18.34-14.09-23.47S224.48,696.33,219.93,698.17Z"/><circle class="cls-4" cx="223.75" cy="739.13" r="3.12"/><circle class="cls-2" cx="211.23" cy="762.48" r="9.35"/><line class="cls-18" x1="245.09" y1="703" x2="249.17" y2="701.31"/><path class="cls-5" d="M227.28,845.92h0l2.06-2.86h0a9.61,9.61,0,0,0-4.14-4.1c-4.2-2.26-7.63-1-10.65.2-2.75,1.05-5.12,2-8.07.37s-3.51-4.06-4.16-6.93c-.71-3.15-1.52-6.73-5.72-9s-7.62-1-10.65.2c-2.75,1-5.12,2-8.07.37s-3.5-4.06-4.15-6.93c-.71-3.15-1.52-6.73-5.72-9s-7.63-.95-10.65.2c-2.75,1-5.12,1.95-8.07.37s-3.5-4.06-4.15-6.93c-.71-3.15-1.52-6.73-5.72-9a9.62,9.62,0,0,0-5.27-1.2h0c-.41,1.1-.83,2.2-1.24,3.29-28.7,76.6-40,149.2-25.56,161.07C125.2,961.53,179.37,912.1,227.28,845.92Z"/><path class="cls-6" d="M849.31,711.6l-88.5-54.77L430.84,745l52.65,197,330-88.17,49.38-91.62A38.23,38.23,0,0,0,849.31,711.6ZM821.2,767.76a20.79,20.79,0,1,1,14.71-25.46A20.8,20.8,0,0,1,821.2,767.76Z"/><text class="cls-19" transform="translate(545.77 833.15) rotate(-14.96)">summer</text><path class="cls-20" d="M555.24,857.38S760,778.51,715.58,808.85,535,881.5,584.77,872.22C637.55,862.38,702.69,835,702.69,835"/><path class="cls-15" d="M754.29,732c3.54,13.26-13.56,43.14-13.56,43.14s-30.9-17-34.44-30.31c-1.67-6.24-.38-11.2,5.22-13.31,11.4-4.3,19.52,7.33,19.52,7.33s2.4-13.19,10.92-15.47C749,721.5,752.52,725.37,754.29,732Z"/></svg>