<?xml version="1.0" encoding="utf-8"?>
<!-- Generator: Adobe Illustrator 24.0.0, SVG Export Plug-In . SVG Version: 6.00 Build 0)  -->
<svg version="1.1" id="Layer_1" xmlns="http://www.w3.org/2000/svg" xmlns:xlink="http://www.w3.org/1999/xlink" x="0px" y="0px"
	 viewBox="0 0 1313 1640" style="enable-background:new 0 0 1313 1640;" xml:space="preserve">
<style type="text/css">
	.st0{fill:#E9EBFF;}
	.st1{fill:#E07F6C;}
	.st2{fill:#CE695B;}
	.st3{fill:#FBAC91;}
	.st4{fill:#3D6A84;}
	.st5{fill:#FFFFFF;}
	.st6{fill:#FF99C3;}
	.st7{fill:#BAF4ED;}
	.st8{fill:#FFBDDB;}
	.st9{fill:#EA7AAD;}
	.st10{fill:#D4FFF9;}
	.st11{fill:#7FD4B1;}
	.st12{fill:#F2F2F2;}
	.st13{fill:none;stroke:#F2F2F2;stroke-width:5.73;stroke-linecap:round;stroke-miterlimit:10;}
	.st14{fill:#FFA9D6;}
	.st15{fill:#333333;}
	.st16{fill:#FFD7E9;}
	.st17{fill:none;stroke:#FFFFFF;stroke-width:4.68;stroke-linecap:round;stroke-miterlimit:10;}
	.st18{enable-background:new    ;}
	.st19{fill:none;stroke:#FF99C3;stroke-width:4.12;stroke-linecap:round;stroke-miterlimit:10;}
</style>
<title>icons-01</title>
<rect class="st0" width="1313" height="1640"/>
<path class="st1" d="M97.5,328.8h35.8c9.1,0,16.5-7.4,16.5-16.5V241c0-9.1-7.4-16.5-16.5-16.5h0H97.5c-9.5,0.1-17.4,7.2-18.7,16.5
	c-2.1,17.7-2.4,53.7,0,71.4C80.2,321.7,88.1,328.6,97.5,328.8z"/>
<path class="st2" d="M144.1,257.2l5.7-16.2c0-9.1-7.4-16.5-16.5-16.5l0,0H97.5c-9.5,0.1-17.4,7.2-18.7,16.5
	c-0.6,5.3-1.1,12.1-1.4,19.7C93,266.3,144.1,265,144.1,257.2z"/>
<path class="st1" d="M294.7,328.8h-35.8c-9.1,0-16.5-7.4-16.5-16.5V241c0-9.1,7.4-16.5,16.5-16.5c0,0,0,0,0,0h35.8
	c9.5,0.1,17.4,7.2,18.7,16.5c2.1,17.7,2.4,53.7,0,71.4C312,321.7,304.1,328.6,294.7,328.8z"/>
<path class="st2" d="M242.7,241l5.7,16.3c0,7.8,50.5,9,66.3,3.5c-0.3-7.6-0.7-14.5-1.4-19.8c-1.3-9.4-9.2-16.4-18.7-16.5h-35.5
	C250.1,224.5,242.7,231.9,242.7,241C242.7,241,242.7,241,242.7,241z"/>
<path class="st3" d="M152.5,84.4h87.1c27,0,48.8,21.9,48.8,48.8v207.6c0,27-21.9,48.8-48.8,48.8h-87.1c-27,0-48.8-21.9-48.8-48.8
	V133.3C103.6,106.3,125.5,84.4,152.5,84.4z"/>
<path class="st4" d="M229.9,76.4h18.9c3.6,0,6.6,3,6.6,6.6v35c0,3.6-3,6.6-6.6,6.6h-18.9c-3.6,0-6.6-3-6.6-6.6V83
	C223.3,79.4,226.3,76.4,229.9,76.4z"/>
<path class="st4" d="M146.1,76.4h18.9c3.6,0,6.6,3,6.6,6.6v35c0,3.6-3,6.6-6.6,6.6h-18.9c-3.6,0-6.6-3-6.6-6.6V83
	C139.5,79.4,142.5,76.4,146.1,76.4z"/>
<path class="st1" d="M163.3,219.8h65.4c9.7,0,17.6,7.9,17.6,17.6V302c0,9.7-7.9,17.6-17.6,17.6h-65.4c-9.7,0-17.6-7.9-17.6-17.6
	v-64.6C145.7,227.7,153.6,219.8,163.3,219.8z"/>
<rect x="104" y="337.5" class="st2" width="184.7" height="5.7"/>
<path class="st4" d="M256.4,120H269l0,0v240.4c0,3.5-2.8,6.3-6.3,6.3l0,0c-3.5,0-6.3-2.8-6.3-6.3V120L256.4,120z"/>
<path class="st4" d="M123.2,120h12.6l0,0v240.4c0,3.5-2.8,6.3-6.3,6.3l0,0c-3.5,0-6.3-2.8-6.3-6.3L123.2,120
	C123.2,120,123.2,120,123.2,120z"/>
<path class="st2" d="M255.1,170.5c-14.6-4.9-26.1-19.5-58.2-19.5c-37.9,0-44.8,13.9-59.3,19.5c-17.3,6.7-33.6-15.1-33.6-33.6v-4.1
	c0-26.7,21.6-48.3,48.3-48.3c0,0,0,0,0,0h88.1c26.7,0,48.3,21.6,48.3,48.3c0,0,0,0,0,0v4.1C288.7,155.4,272.7,176.4,255.1,170.5z"/>
<path class="st5" d="M133.1,326h-7.8c-4.5,0-8.2-3.7-8.2-8.2V310c0-4.5,3.7-8.2,8.2-8.2h7.8c4.5,0,8.2,3.7,8.2,8.2v7.8
	C141.3,322.3,137.7,326,133.1,326C133.1,326,133.1,326,133.1,326z M125.3,305.4c-2.6,0-4.7,2.1-4.7,4.6v7.8c0,2.6,2.1,4.7,4.7,4.7
	h7.8c2.6,0,4.7-2.1,4.7-4.7V310c0-2.6-2.1-4.7-4.7-4.7L125.3,305.4z"/>
<path class="st5" d="M133.4,206.6h-7.8c-4.5,0-8.2-3.7-8.2-8.2v-7.8c0-4.5,3.7-8.2,8.2-8.2h7.8c4.5,0,8.2,3.7,8.2,8.2v7.8
	C141.5,203,137.9,206.6,133.4,206.6z M125.6,186c-2.6,0-4.7,2.1-4.7,4.7v7.8c0,2.6,2.1,4.7,4.7,4.7h7.8c2.6,0,4.7-2.1,4.7-4.7v-7.8
	c0-2.6-2.1-4.7-4.7-4.7H125.6z"/>
<path class="st5" d="M266.6,206.6h-7.8c-4.5,0-8.2-3.7-8.2-8.2v-7.8c0-4.5,3.7-8.2,8.2-8.2h7.8c4.5,0,8.2,3.7,8.2,8.2v7.8
	C274.8,203,271.1,206.6,266.6,206.6z M258.9,186c-2.6,0-4.7,2.1-4.7,4.7v7.8c0,2.6,2.1,4.7,4.7,4.7h7.8c2.6,0,4.7-2.1,4.7-4.7v-7.8
	c0-2.6-2.1-4.7-4.7-4.7l0,0H258.9z"/>
<path class="st5" d="M266.6,326h-7.8c-4.5,0-8.2-3.7-8.2-8.2V310c0-4.5,3.7-8.2,8.2-8.2h7.8c4.5,0,8.2,3.7,8.2,8.2v7.8
	C274.8,322.3,271.2,326,266.6,326C266.6,326,266.6,326,266.6,326z M258.9,305.4c-2.6,0-4.7,2.1-4.7,4.7v7.8c0,2.6,2.1,4.7,4.7,4.7
	h7.8c2.6,0,4.7-2.1,4.7-4.7V310c0-2.6-2.1-4.7-4.7-4.7L258.9,305.4z"/>
<path class="st5" d="M181.4,173.9h28.6c3.5,0,6.3,2.8,6.3,6.3v18.3c0,3.5-2.8,6.3-6.3,6.3h-28.6c-3.5,0-6.3-2.8-6.3-6.3v-18.3
	C175.1,176.8,177.9,173.9,181.4,173.9z"/>
<path class="st6" d="M207.9,184.3c0,6.4-11.3,17.8-11.3,17.8s-11.9-11.4-11.9-17.8c0-3,1.2-5.1,4-5.4c5.7-0.6,7.9,5.6,7.9,5.6
	s2.7-5.6,6.8-5.6C206.8,179,207.9,181.1,207.9,184.3z"/>
<path class="st2" d="M258.3,385.9c-12.9-10.2-36.1-16.9-62.5-16.9s-49.4,6.7-62.4,16.8c6,2.6,12.5,3.9,19.1,3.9h87.1
	C246,389.7,252.3,388.4,258.3,385.9z"/>
<path class="st4" d="M228.1,246.2h1.8c2.5,0,4.6,2.1,4.6,4.6v18.4c0,2.5-2.1,4.6-4.6,4.6h-1.8c-2.5,0-4.6-2.1-4.6-4.6v-18.4
	C223.5,248.3,225.6,246.2,228.1,246.2z"/>
<path class="st2" d="M145.9,234.9c0,0.5-0.1,0.9-0.1,1.4l-0.1,6.8v7.3c3.8,8.4,96.9,8.4,100.6,0v-13c0-9.7-7.9-17.6-17.6-17.6
	c0,0,0,0,0,0h-65.4C154.5,219.8,147.1,226.3,145.9,234.9z"/>
<path class="st4" d="M739.8,321.8l45.2-41.6c0,0-18.3-6.4-84.7,22.3c-13.5,5.8-24.1,9.3-34.2,13.8c-24-0.2-47.3,3.5-60.9,5.2
	s-48.8,10.4-64.6,14.4c-4.4,1.1-7.6,5.1-7.6,9.7c0,13.4-3.1,41.2-25.4,57.4c-21.1,15.4-36.6,16.6-44,16c-2.6-0.2-4.8,1.7-5,4.3
	c0,0.3,0,0.5,0,0.8c2.7,29.7,49.3,81.7,49.3,81.7l125.5-96l64.6-49.5C698,360.2,744.9,322,739.8,321.8z"/>
<path class="st5" d="M672.4,352.4l-0.7,0.5c-11.1,8.2-30.8,13.5-49.7,18.5c-15.9,4.3-32.3,8.7-39.5,14c-8.4,6.1-11.6,15.6-15.5,26.7
	c-3.3,9.5-6.7,19.2-13.7,27.9c-9.6,11.6-21.7,20.9-35.5,27.1l-4.4-10.7c11.9-5.5,22.5-13.6,30.9-23.7c5.7-7.1,8.6-15.5,11.7-24.4
	c4.1-11.8,8.3-24,19.5-32.2c9-6.6,25.7-11.1,43.3-15.8c18-4.8,36.5-9.8,45.9-16.7c9.9-7.3,16.3-19.6,16.4-19.7l10.3,5.3
	C691.2,329.9,684,343.5,672.4,352.4z"/>
<path class="st3" d="M466.4,447.3c14,27.7,41.5,58.4,41.5,58.4l73.6-56.4C533.4,418.9,484.8,437.9,466.4,447.3z"/>
<path class="st5" d="M470.2,454.5l1.3,2.3c20.2-9,59.6-20.7,99.8,0.4l2.3-1.8C531.9,432.9,491,445.1,470.2,454.5z"/>
<path class="st5" d="M555.6,357.4l0.5-29c0-2.4,2-4.2,4.3-4.2l0.4,0c2.4,0,4.2,2,4.2,4.3l-0.5,29c0,2.4-2,4.2-4.3,4.2l-0.4,0
	C557.5,361.7,555.6,359.7,555.6,357.4z"/>
<path class="st5" d="M585.9,349.5l0.5-29c0-2.4,2-4.2,4.3-4.2l0.4,0c2.4,0,4.2,2,4.2,4.3l-0.5,29c0,2.4-2,4.2-4.3,4.2l-0.4,0
	C587.8,353.8,585.9,351.8,585.9,349.5z"/>
<path class="st5" d="M617.5,345.8l0.5-29c0-2.4,2-4.2,4.3-4.2l0.4,0c2.4,0,4.2,2,4.2,4.3l-0.5,29c0,2.4-2,4.2-4.3,4.2l-0.4,0
	C619.3,350.1,617.5,348.2,617.5,345.8z"/>
<path class="st3" d="M700.3,302.5c-13.5,5.8-24.1,9.3-34.2,13.8H666l46.5,23.9l7.9,1.2c11.3-9.7,64.7-61.3,64.7-61.3
	S766.7,273.8,700.3,302.5z"/>
<path class="st5" d="M782.9,279.8c-15.6,15-46,44.1-54.9,51.9l-7.1-1.1l-39.6-20.4l-3.3,1.3l42.1,21.6l8.1,1.3
	c18.6-17.2,56.9-54.2,56.9-54.2C784.3,280,783.6,279.8,782.9,279.8z"/>
<path class="st5" d="M801.1,313.8c-0.1,0.1-0.2,0.2-0.3,0.3c-1.6,1.6-14.8,15-42.9,41.8c-40.9,39-159.2,126.5-205.9,158.5
	c-11.5,7.9-19,12.5-19,12.5c-5.9,4.4-14.2,3.3-18.6-2.6l-9.7-12.6c-4.4-5.8-9.2-12,2.2-18.5c0.1-0.1,0.3-0.2,0.4-0.3
	c1.4-0.9,9.2-5.8,20.4-13.5c47.8-32.6,163.5-118.3,203.6-156.9c26.6-25.5,41.5-40.2,43.5-42.2c0.2-0.2,0.3-0.3,0.5-0.4
	c5.8-4.2,11.3-6.4,18.4,2.8l9.7,12.6C807.7,301,806.8,309.2,801.1,313.8z"/>
<path class="st7" d="M671.8,1098.6l-63.2,21.8l-63.2,21.8c-7.3,2.5-11.1,10.4-8.6,17.7c0.2,0.7,0.5,1.3,0.8,1.9l88.7,168.6
	c3.2,6.1,10.3,8.9,16.8,6.7l35.9-12.3l35.9-12.4c6.5-2.2,10.4-8.9,9.2-15.6L690,1109.3c-1.4-7.6-8.6-12.6-16.1-11.2
	C673.1,1098.2,672.5,1098.4,671.8,1098.6z M685.4,1152.7l25.7,135.1c0.8,4.9-2.6,9.9-7.9,11.7l-29.5,10.2l-29.5,10.2
	c-5.3,1.8-11,0-13.5-4.4l-62.9-122.3c-3-5.4,0.3-12.3,6.9-14.6l48.1-16.6l48.1-16.6C677.6,1143.2,684.5,1146.6,685.4,1152.7z"/>
<path class="st6" d="M704,1294.5c-2.2,1-4.6,1.7-7,2.1c-2.3,0.4-4.6,0.5-6.9,0.4l-47-255.8c0,0,2.2-2.1,7.1-3
	c2.3-0.5,4.6-0.3,6.8,0.4L704,1294.5z"/>
<path class="st6" d="M671,1145.4l-48.1,16.6l-48.1,16.6c-6.6,2.3-9.9,9.2-6.9,14.6l62.9,122.3c2.4,4.4,8.1,6.2,13.5,4.4l29.5-10.2
	l29.5-10.2c5.3-1.8,8.7-6.8,7.9-11.7l-25.7-135.1C684.5,1146.6,677.6,1143.2,671,1145.4z"/>
<path class="st8" d="M654.7,1104.5l8.1,43.8l8.2-2.8c1.8-0.6,3.7-0.8,5.6-0.6l-8.3-45L654.7,1104.5z"/>
<circle class="st5" cx="574.7" cy="1102.6" r="10.4"/>
<circle class="st5" cx="608.6" cy="1072" r="8.3"/>
<circle class="st5" cx="578.4" cy="1049.4" r="10.4"/>
<path class="st3" d="M604.3,1177.9l24.1,0.5c7.1,0.1,12.8,6,12.6,13.1l-0.5,24.1c-0.1,7.1-6,12.8-13.1,12.6l-24.1-0.5
	c-7.1-0.1-12.8-6-12.6-13.1l0.5-24.1C591.4,1183.4,597.2,1177.8,604.3,1177.9z"/>
<path class="st3" d="M640.8,1223.7l14.5-19.3c4.3-5.7,12.3-6.8,18-2.5l19.3,14.5c5.7,4.3,6.8,12.3,2.5,18l-14.5,19.3
	c-4.3,5.7-12.3,6.8-18,2.5l-19.3-14.5C637.6,1237.4,636.5,1229.4,640.8,1223.7z"/>
<path class="st5" d="M654.5,1239.9c-0.7,0.2-1.4,0.1-1.9-0.3c-2.9-2.2-4.5-4.9-4.7-7.9c-0.2-2.8,0.9-5.7,3.1-8.7
	c0.7-0.9,2-1.1,2.9-0.4c0.9,0.7,1.1,2,0.4,2.9c-1.6,2.2-2.4,4.1-2.3,5.9s1.1,3.4,3.1,4.8c0.9,0.7,1.1,2,0.4,2.9
	C655.3,1239.5,654.9,1239.7,654.5,1239.9L654.5,1239.9z"/>
<path class="st3" d="M637.8,1261.5l24.1-0.8c7.1-0.2,13.1,5.3,13.3,12.4l0.8,24.1c0.2,7.1-5.3,13.1-12.4,13.3l-24.1,0.8
	c-7.1,0.2-13.1-5.3-13.3-12.4l-0.8-24.1C625.1,1267.7,630.7,1261.7,637.8,1261.5z"/>
<path class="st9" d="M671,1145.4l-8.2,2.8l27.3,148.7c2.3,0.1,4.6,0,6.9-0.4c2.4-0.5,4.8-1.2,7-2.1l-27.5-149.6
	C674.7,1144.6,672.8,1144.8,671,1145.4z"/>
<path class="st5" d="M601.7,1192.8c-0.2,0.1-0.5,0.1-0.7,0.1c-1.1,0-2-1-2-2.1l0.1-3.2c0-1.1,0.8-2.1,2-2.2c1.1,0,2.1,0.8,2.2,2
	c0,0.1,0,0.2,0,0.3l-0.1,3.2C603.1,1191.8,602.6,1192.5,601.7,1192.8z"/>
<path class="st5" d="M601.1,1218.1c-0.2,0.1-0.5,0.1-0.7,0.1c-1.1,0-2-1-2-2.1l0.4-14.7c0.1-1.1,1.1-2,2.3-1.9c1,0.1,1.9,0.9,1.9,2
	l-0.4,14.8C602.5,1217.1,601.9,1217.8,601.1,1218.1z"/>
<path class="st5" d="M635.2,1303.2c-0.2,0.1-0.4,0.1-0.6,0.1c-1.1,0-2.1-0.9-2.1-2l-0.4-14.8c-0.1-1.1,0.7-2.2,1.9-2.3
	c1.1-0.1,2.2,0.7,2.3,1.9c0,0.1,0,0.2,0,0.3l0.4,14.8C636.6,1302.1,636.1,1302.9,635.2,1303.2z"/>
<circle class="st1" cx="979.5" cy="1185.3" r="30.2"/>
<path class="st4" d="M1170.8,1399.5l-64.7-114.7c-1.9,0.2-3.7-0.5-4.9-2c-3.9-4.7-46-69.3-50.4-72.6c-1.5,1.8-40.8,58.5-42.5,73.9
	c-0.5,4.1-4.3,7-8.4,6.5c-0.2,0-0.3,0-0.5-0.1l-61.9,108.9c-3.9,6.8-1.5,15.4,5.3,19.3c2.1,1.2,4.5,1.8,7,1.8h208.7
	c7.8,0,14.2-6.3,14.2-14.1C1172.7,1404,1172.1,1401.6,1170.8,1399.5z"/>
<path class="st5" d="M1066.9,1215.3c-3.8-6.8-12.5-9.2-19.3-5.3c-2.2,1.3-4.1,3.1-5.3,5.3l-45.5,80.1l0,0
	c19.4,1.6,28.1-23.2,35-24.9c7.3-1.8,10.1,20.1,20.2,15.6s12.8-25.5,18.3-26.6c9.2-1.8,24.4,41.6,38.4,29.7L1066.9,1215.3z"/>
<path class="st3" d="M1225.9,1406.6l-50.4-77.4c-3.5,1-7.2-1.1-8.2-4.6c-1.5-5-4.9-9.7-7.3-14.3c-2.1-4-4.2-8-6.4-12
	c-1.6-2.8-3.2-6.5-5.7-8.6s-5.6-1.8-9-1.4c-9,1.1-12.1,10.9-15.6,18c-3.3,6.8-8.2,12.7-14.3,17.1c-1.1,0.8-2.5,1.3-3.9,1.2
	l-47.2,82.6c-3.5,6-1.4,13.7,4.7,17.2c1.9,1.1,4.1,1.7,6.3,1.7h146.4c7,0,12.6-5.7,12.6-12.6C1228,1411,1227.3,1408.7,1225.9,1406.6
	z"/>
<path class="st5" d="M1148,1286.8c-3.8-5.8-11.6-7.5-17.4-3.7c-1.1,0.7-2,1.6-2.8,2.5l-1.3,2l-21.8,38c4.4-1.2,10.4-1.6,15,2.4
	c8.2,7.3,8.2,21.1,16.1,20.7c8.7-0.4,7.8-29,16-29c7.3,0,12.4,15.6,24.4,10L1148,1286.8z"/>
<path class="st3" d="M1028.1,1425.8l-52.6-80.8c-1.7,0.4-3.4,0.1-4.8-0.8c-3-1.8-5.8-2.7-8.4-5.3s-25.6,8-29.1,5.1l-47.1,82.4
	c-2.9,5.1-1.2,11.6,3.9,14.6c1.6,0.9,3.5,1.4,5.4,1.4h123.8c5.9,0,10.7-4.8,10.7-10.7C1029.9,1429.6,1029.3,1427.5,1028.1,1425.8z"
	/>
<path class="st5" d="M962.2,1324.4c-3.2-4.9-9.9-6.3-14.8-3.1c-1.4,0.9-2.6,2.2-3.4,3.6l-11.4,19.9c3.8,2.7,8.4,6.2,16.7,1.6
	c13.3-7.4,19.3-0.9,26.5-1.1L962.2,1324.4z"/>
<path class="st5" d="M976.7,1199.5c-3.9-12.4-17-19.3-29.4-15.5c-7.9,2.4-13.9,8.8-15.8,16.8c-0.4,0-0.9-0.1-1.3-0.1
	c-9.1,0.3-16.2,8-15.9,17.1c0.3,8.7,7.3,15.6,15.9,15.9h45.7c9.1,0,16.5-8.7,16.5-17.8C992.3,1207.2,985.4,1200,976.7,1199.5z"/>
<path class="st5" d="M1201.7,1221.2c-0.8,0-1.5,0-2.3,0.2c-5.5-11.5-19.2-16.5-30.8-11c-8.1,3.8-13.3,12-13.2,21c0,1,0.1,2,0.2,3
	c-8.2-3-17.3,1.2-20.3,9.4s1.2,17.3,9.4,20.3c1.7,0.6,3.6,1,5.4,1h51.5c9.8,0,20.3-8.9,20.3-22.7
	C1222,1230.1,1211.6,1221.2,1201.7,1221.2z"/>
<path class="st10" d="M1066.8,1427.1c-0.3-1.5-0.3-3,0.1-4.4l4,1c-0.2,0.8-0.2,1.6-0.1,2.4L1066.8,1427.1z"/>
<path class="st10" d="M1074,1419.3l-2.4-3.3c2.1-1.4,4.4-2.5,6.9-3.1l1.1,4C1077.6,1417.4,1075.7,1418.2,1074,1419.3z M1086,1415.8
	l-0.4-4.1c1.8-0.2,3.8-0.2,5.8-0.2h1.2v4.1h-1.3C1089.5,1415.6,1087.7,1415.6,1086,1415.8L1086,1415.8z M1099.6,1415.5l-0.1-4.1
	c2.2,0,4.6-0.1,6.9-0.2l0.1,4.1C1104.2,1415.4,1101.9,1415.4,1099.6,1415.5L1099.6,1415.5z M1113.4,1415.1l-0.2-4.1l6.9-0.3l0.2,4.1
	C1118,1414.9,1115.7,1415,1113.4,1415.1L1113.4,1415.1z M1127.2,1414.5l-0.2-4.1l6.9-0.3l0.2,4.1L1127.2,1414.5z M1141,1413.8
	l-0.2-4.1l6.9-0.4l0.2,4.1L1141,1413.8z M1154.7,1413.1l-0.2-4.1c3-0.1,5.3-0.2,7-0.3l0.1,4.1
	C1159.9,1412.9,1157.7,1412.9,1154.7,1413.1z M1168.6,1412.5l-0.4-4.1c2.2-0.2,4.3-0.6,6.4-1.2l1.1,4
	C1173.4,1411.9,1171,1412.3,1168.6,1412.5z M1182.6,1408.2l-2.3-3.4c1.6-1.1,2.4-2.3,2.4-3.7v-0.3l4.1-0.1v0.3
	C1186.8,1403.1,1186.1,1405.8,1182.6,1408.2L1182.6,1408.2z M1181.1,1395.7c-1.3-1.5-2.9-2.6-4.7-3.2l1.5-3.8
	c2.5,0.9,4.8,2.4,6.4,4.5L1181.1,1395.7z M1170.1,1390.9c-1.9-0.3-4.1-0.6-6.7-0.8l0.3-4.1c2.7,0.2,5,0.5,7,0.8L1170.1,1390.9z
	 M1156.7,1389.7c-2.2-0.1-4.4-0.1-6.8-0.2l0.1-4.1c2.4,0,4.8,0.1,6.9,0.2L1156.7,1389.7z M1142.2,1389.5c-2.1,0-4.2,0-6.1-0.1
	l0.1-4.1c1.9,0.1,3.9,0.1,6,0.1h0.8v4.1H1142.2z M1129.1,1389.1c-2.5-0.2-4.9-0.4-7-0.6l0.5-4.1c2,0.3,4.3,0.5,6.7,0.6
	L1129.1,1389.1z M1115.1,1387.3c-2.4-0.5-4.7-1.3-6.9-2.3l1.8-3.7c2,0.9,4,1.5,6.1,2L1115.1,1387.3z M1102,1380.3
	c-1.7-2.1-2.7-4.7-3-7.3l4.1-0.4c0.2,1.9,0.9,3.7,2.1,5.2L1102,1380.3z M1103.8,1366.7l-3.8-1.5c1-2.5,2.8-4.7,5.1-6.2l2.3,3.4
	C1105.8,1363.5,1104.6,1365,1103.8,1366.7L1103.8,1366.7z M1113,1360.1l-1-4c2.4-0.5,4.8-0.9,7.2-0.9l0.2,4.1
	C1117.3,1359.4,1115.1,1359.7,1113,1360.1L1113,1360.1z M1133.1,1359.4c-2.3,0-4.5-0.1-6.5-0.1h-0.4l0.1-4.1h0.4
	c2,0,4.1,0.1,6.5,0.1L1133.1,1359.4z M1140.1,1359.4l-0.1-4.1c2.4-0.1,4.7-0.2,6.8-0.3l0.3,4.1
	C1145,1359.3,1142.6,1359.4,1140.1,1359.4L1140.1,1359.4z M1154.1,1358.3l-0.7-4.1c2.2-0.3,4.3-0.8,6.4-1.5l1.3,3.9
	C1158.8,1357.3,1156.5,1357.9,1154.1,1358.3L1154.1,1358.3z M1167.8,1353l-2.7-3.1c1.4-1.1,2.3-2.7,2.4-4.5l4.1,0.3
	C1171.4,1348.6,1170.1,1351.2,1167.8,1353L1167.8,1353z M1165.8,1341.3c-1.7-1.1-3.6-1.7-5.6-2l0.8-4c2.6,0.4,5.1,1.3,7.2,2.8
	L1165.8,1341.3z M1153.6,1338.5c-1.9-0.1-3.9-0.2-5.8-0.3h-1l0.2-4.1h1c2,0.1,4,0.2,5.9,0.3L1153.6,1338.5z M1139.8,1337.8
	c-2.4-0.2-4.8-0.5-7.1-1.1l1-4c2.1,0.5,4.3,0.8,6.5,1L1139.8,1337.8z M1125.6,1333c-0.8-0.9-1.5-2-1.8-3.2c-0.4-1.1-0.6-2.3-0.6-3.5
	c0-0.5,0-0.9,0.1-1.4l4.1,0.6c0,0.3,0,0.5,0,0.8c0,0.8,0.1,1.6,0.4,2.3c0.2,0.6,0.5,1.2,0.9,1.6L1125.6,1333z M1130.2,1321.1
	l-2.6-3.2c2-1.6,4.3-2.7,6.8-3.4l1.3,3.9C1133.7,1319,1131.8,1319.9,1130.2,1321.1L1130.2,1321.1z M1141.9,1317.1l-0.5-4.1
	c2.1-0.2,4.1-0.3,6.2-0.3h0.8l0.2,4.1h-1C1145.8,1316.7,1143.9,1316.8,1141.9,1317.1L1141.9,1317.1z M1156.4,1313.6l-3.1-2.7
	c0.4-0.5,0.6-1.1,0.6-1.8c0-0.6-0.2-1.2-0.7-1.6l2.8-3c1.3,1.2,2,2.9,2,4.6C1158,1310.8,1157.5,1312.4,1156.4,1313.6L1156.4,1313.6z
	 M1147.9,1305.4c-1.8-0.4-3.9-0.7-5.9-1l-0.8-0.1l0.6-4.1l0.8,0.1c2.1,0.3,4.2,0.6,6.2,1.1L1147.9,1305.4z M1134.2,1303
	c-2.3-0.6-5.5-1.8-7-4.4l3.6-2c0.5,1,2,1.8,4.5,2.4L1134.2,1303z M1131.7,1293.1l-2.4-3.3c1.5-1,3.2-1.7,4.9-2.2
	c0.6-0.2,1.3-0.4,1.9-0.7l1.5,3.8c-0.7,0.3-1.3,0.5-2,0.7C1134.2,1291.8,1132.9,1292.4,1131.7,1293.1L1131.7,1293.1z"/>
<path class="st10" d="M1144,1284.6l-4-1.1c0.2-0.9,0.2-1.8,0.1-2.6l4.1-0.5C1144.4,1281.8,1144.3,1283.2,1144,1284.6z"/>
<rect x="983" y="1455.4" class="st2" width="6.9" height="8.2"/>
<rect x="1003.5" y="1447.1" class="st2" width="6.9" height="8.2"/>
<path class="st11" d="M1018.3,1451.2h-22.6c-1.3,0-2.4-1.1-2.4-2.4c0-0.3,0-0.5,0.1-0.7l13.6-41.6l13.6,41.6
	c0.4,1.3-0.3,2.6-1.6,3.1C1018.9,1451.2,1018.6,1451.2,1018.3,1451.2z"/>
<path class="st4" d="M1018.3,1451.2c1.3,0,2.4-1.1,2.4-2.4c0-0.3,0-0.5-0.1-0.7l-13.6-41.6v44.7H1018.3z"/>
<path class="st11" d="M997.8,1459.5h-22.6c-1.3,0-2.4-1.1-2.4-2.4c0-0.3,0-0.5,0.1-0.8l13.6-41.6l13.6,41.6c0.4,1.3-0.3,2.6-1.5,3
	C998.3,1459.4,998,1459.5,997.8,1459.5z"/>
<path class="st4" d="M997.8,1459.5c1.3,0,2.4-1.1,2.4-2.4c0-0.3,0-0.5-0.1-0.7l-13.6-41.6v44.7H997.8z"/>
<ellipse class="st1" cx="933.7" cy="227.5" rx="19.2" ry="13.5"/>
<circle class="st0" cx="923.8" cy="227.5" r="4.5"/>
<path class="st4" d="M964.2,150.1h32.2c4.4,0,8,3.6,8,8v6c0,4.4-3.6,8-8,8h-32.2c-4.4,0-8-3.6-8-8v-6
	C956.2,153.7,959.8,150.1,964.2,150.1z"/>
<path class="st3" d="M1204,332.7H955.7c-13.3,0-24.1-10.8-24.1-24.1c0,0,0,0,0,0V188.1c0-13.3,10.8-24.1,24.1-24.1c0,0,0,0,0,0
	l57.8-0.6l9.6-13.3H1204c13.3,0,24.1,10.8,24.1,24.1c0,0,0,0,0,0v134.3C1228.1,321.9,1217.3,332.7,1204,332.7
	C1204,332.7,1204,332.7,1204,332.7z"/>
<path class="st7" d="M1204,150.1h-180.9l-9.6,13.3l-57.8,0.6c-13.3,0-24.1,10.8-24.1,24.1v11.9h296.5v-25.8
	C1228.1,160.9,1217.3,150.1,1204,150.1C1204,150.1,1204,150.1,1204,150.1z"/>
<ellipse transform="matrix(0.7071 -0.7071 0.7071 0.7071 146.7641 842.02)" class="st12" cx="1089.8" cy="243.9" rx="66.7" ry="66.7"/>
<circle class="st1" cx="1089.8" cy="243.9" r="61.8"/>
<circle class="st6" cx="1089.8" cy="243.9" r="51.4"/>
<path class="st12" d="M1097.7,285.2c-1.6,0-2.9-1.3-2.9-2.9c0-1.4,1-2.5,2.3-2.8c12.3-2.6,22.5-11.3,26.9-23.2
	c0.6-1.5,2.2-2.2,3.7-1.7c1.5,0.6,2.2,2.2,1.7,3.7c-5.1,13.7-16.8,23.8-31.1,26.8C1098.1,285.2,1097.9,285.2,1097.7,285.2z"/>
<path class="st13" d="M1126.4,229.7c1.2,3.2,2,6.5,2.4,9.8"/>
<circle cx="1089.8" cy="243.9" r="16.2"/>
<path class="st4" d="M1182.4,161.6h24.8c4.4,0,8,3.6,8,8v11.1c0,4.4-3.6,8-8,8h-24.8c-4.4,0-8-3.6-8-8v-11.1
	C1174.4,165.2,1178,161.6,1182.4,161.6z"/>
<path class="st5" d="M1143.7,166.7h15.5c2.7,0,5,2.2,5,5v6.9c0,2.7-2.2,5-5,5h-15.5c-2.7,0-5-2.2-5-5v-6.9
	C1138.7,168.9,1140.9,166.7,1143.7,166.7z"/>
<path class="st14" d="M1098.9,240.8c0,4.9-8.7,13.7-8.7,13.7s-9.1-8.8-9.1-13.7c0-2.3,0.9-3.9,3-4.1c4.3-0.4,6.1,4.3,6.1,4.3
	s2-4.3,5.2-4.3C1098,236.6,1098.9,238.3,1098.9,240.8z"/>
<circle class="st9" cx="984.4" cy="284" r="18.4"/>
<circle class="st6" cx="984.4" cy="284" r="12"/>
<path class="st5" d="M1033.6,169.8h11.3c2,0,3.6,1.6,3.6,3.6v5c0,2-1.6,3.6-3.6,3.6h-11.3c-2,0-3.6-1.6-3.6-3.6v-5
	C1030,171.4,1031.6,169.8,1033.6,169.8z"/>
<path class="st4" d="M1098.9,240.8c0,4.9-8.7,13.7-8.7,13.7s-9.1-8.8-9.1-13.7c0-2.3,0.9-3.9,3-4.1c4.3-0.4,6.1,4.3,6.1,4.3
	s2-4.3,5.2-4.3C1098,236.6,1098.9,238.3,1098.9,240.8z"/>
<path class="st5" d="M246.8,1345.8h66.8c7.3,0,13.2-5.9,13.3-13.2c0-1.8-0.4-3.6-1.1-5.2l-75-175c-0.9-2.2-3.5-3.2-5.7-2.3
	c-1.6,0.7-2.6,2.2-2.6,4v187.4C242.5,1343.8,244.4,1345.7,246.8,1345.8z"/>
<path class="st5" d="M219.3,1345.8h-103c-7.1,0-12.8-5.7-12.8-12.8c0-2.4,0.7-4.7,1.9-6.7l108.7-175.1c1.8-2.9,5.5-3.8,8.4-2
	c1.8,1.1,2.9,3.1,2.9,5.2v185.3C225.4,1343,222.7,1345.8,219.3,1345.8C219.3,1345.8,219.3,1345.8,219.3,1345.8z"/>
<rect x="343.2" y="1352.4" class="st6" width="27.6" height="18.1"/>
<path class="st2" d="M343.7,1346.7L343.7,1346.7c1.8,0,3.3,1.5,3.3,3.3v34.2c0,1.8-1.5,3.3-3.3,3.3h0c-1.8,0-3.3-1.5-3.3-3.3V1350
	C340.4,1348.2,341.9,1346.7,343.7,1346.7z"/>
<path class="st2" d="M233.8,1148.1h0.3c2.5,0,4.6,2.1,4.6,4.6v227.4c0,2.5-2.1,4.6-4.6,4.6h-0.3c-2.5,0-4.6-2.1-4.6-4.6v-227.4
	C229.2,1150.2,231.2,1148.1,233.8,1148.1z"/>
<path class="st2" d="M176,1361h109.8c28.6,0,51.8,23.2,51.8,51.8l0,0v1.5l0,0H176l0,0V1361L176,1361z"/>
<circle class="st5" cx="283.8" cy="1381.4" r="14.7"/>
<path class="st1" d="M302.8,1425.6h-154c-31.2,0-56.5-25.3-56.5-56.5v-5.3l261.3,18.1v10.9C353.7,1420.9,330.9,1425.6,302.8,1425.6z
	"/>
<path class="st7" d="M117.1,1345.8h108.3l-66.3-106.1l-53.2,85.8c-3.9,6.2-1.9,14.4,4.3,18.3
	C112.2,1345.1,114.6,1345.8,117.1,1345.8z"/>
<path class="st4" d="M383.3,1429.5c-5.7,0-8.6-3.4-10.9-6.1s-3.9-4.3-7.1-4.3s-4.8,1.6-7.1,4.3s-5.3,6.1-10.9,6.1s-8.6-3.4-10.9-6.1
	s-3.9-4.3-7.1-4.3s-4.8,1.6-7.1,4.3s-5.3,6.1-10.9,6.1s-8.6-3.4-10.9-6.1s-3.9-4.3-7.1-4.3s-4.8,1.6-7.1,4.3s-5.3,6.1-10.9,6.1
	s-8.6-3.4-10.9-6.1s-3.9-4.3-7.1-4.3s-4.8,1.6-7.1,4.3s-5.3,6.1-10.9,6.1s-8.6-3.4-10.9-6.1s-3.9-4.3-7.1-4.3s-4.8,1.6-7.1,4.3
	s-5.3,6.1-10.9,6.1s-8.6-3.4-10.9-6.1s-3.9-4.3-7.1-4.3s-4.8,1.6-7.1,4.3s-5.3,6.1-10.9,6.1s-8.6-3.4-10.9-6.1s-3.9-4.3-7.1-4.3
	s-4.8,1.6-7.1,4.3s-5.3,6.1-10.9,6.1s-8.6-3.4-10.9-6.1s-3.9-4.3-7.1-4.3s-4.7,1.6-7.1,4.3s-5.3,6.1-10.9,6.1s-8.6-3.4-10.9-6.1
	s-3.9-4.3-7.1-4.3v-5.1c5.7,0,8.6,3.4,10.9,6.1s3.9,4.3,7.1,4.3s4.7-1.6,7.1-4.3s5.3-6.1,10.9-6.1s8.6,3.4,10.9,6.1s3.9,4.3,7.1,4.3
	c3.2,0,4.8-1.6,7.1-4.3s5.3-6.1,10.9-6.1s8.6,3.4,10.9,6.1s3.9,4.3,7.1,4.3s4.8-1.6,7.1-4.3s5.3-6.1,10.9-6.1s8.6,3.4,10.9,6.1
	s3.9,4.3,7.1,4.3s4.8-1.6,7.1-4.3s5.3-6.1,10.9-6.1s8.6,3.4,10.9,6.1s3.9,4.3,7.1,4.3s4.8-1.6,7.1-4.3s5.3-6.1,10.9-6.1
	c5.7,0,8.6,3.4,10.9,6.1s3.9,4.3,7.1,4.3s4.7-1.6,7.1-4.3s5.3-6.1,10.9-6.1s8.6,3.4,10.9,6.1s3.9,4.3,7.1,4.3s4.8-1.6,7.1-4.3
	s5.3-6.1,10.9-6.1s8.6,3.4,10.9,6.1s3.9,4.3,7.1,4.3s4.8-1.6,7.1-4.3s5.3-6.1,10.9-6.1s8.6,3.4,11,6.1s3.9,4.3,7.1,4.3L383.3,1429.5
	z"/>
<path class="st4" d="M382,1448.1c-5.7,0-8.6-3.4-10.9-6.1s-3.9-4.3-7.1-4.3s-4.8,1.6-7.1,4.3s-5.3,6.1-10.9,6.1s-8.6-3.4-10.9-6.1
	s-3.9-4.3-7.1-4.3s-4.8,1.6-7.1,4.3s-5.3,6.1-10.9,6.1s-8.6-3.4-10.9-6.1s-3.9-4.3-7.1-4.3s-4.7,1.6-7.1,4.3s-5.3,6.1-10.9,6.1
	s-8.6-3.4-10.9-6.1s-3.9-4.3-7.1-4.3s-4.8,1.6-7.1,4.3s-5.3,6.1-10.9,6.1s-8.6-3.4-10.9-6.1s-3.9-4.3-7.1-4.3s-4.8,1.6-7.1,4.3
	s-5.3,6.1-10.9,6.1s-8.6-3.4-10.9-6.1s-3.9-4.3-7.1-4.3s-4.8,1.6-7.1,4.3s-5.3,6.1-10.9,6.1s-8.6-3.4-10.9-6.1s-3.9-4.3-7.1-4.3
	s-4.8,1.6-7.1,4.3s-5.3,6.1-10.9,6.1s-8.6-3.4-10.9-6.1s-3.9-4.3-7.1-4.3s-4.7,1.6-7.1,4.3s-5.3,6.1-10.9,6.1s-8.6-3.4-10.9-6.1
	s-3.9-4.3-7.1-4.3v-5.1c5.7,0,8.6,3.4,10.9,6.1s3.9,4.3,7.1,4.3s4.7-1.6,7.1-4.3s5.3-6.1,10.9-6.1s8.6,3.4,10.9,6.1s3.9,4.3,7.1,4.3
	s4.8-1.6,7.1-4.3s5.3-6.1,10.9-6.1s8.6,3.4,10.9,6.1s3.9,4.3,7.1,4.3s4.8-1.6,7.1-4.3s5.3-6.1,10.9-6.1s8.6,3.4,10.9,6.1
	s3.9,4.3,7.1,4.3s4.8-1.6,7.1-4.3s5.3-6.1,10.9-6.1s8.6,3.4,10.9,6.1s3.9,4.3,7.1,4.3s4.8-1.6,7.1-4.3s5.3-6.1,10.9-6.1
	c5.7,0,8.6,3.4,10.9,6.1s3.9,4.3,7.1,4.3s4.8-1.6,7.1-4.3s5.3-6.1,10.9-6.1s8.6,3.4,10.9,6.1s3.9,4.3,7.1,4.3s4.8-1.6,7.1-4.3
	s5.3-6.1,10.9-6.1s8.6,3.4,10.9,6.1s3.9,4.3,7.1,4.3s4.8-1.6,7.1-4.3s5.3-6.1,10.9-6.1s8.6,3.4,10.9,6.1s3.9,4.3,7.1,4.3V1448.1z"/>
<path class="st4" d="M382,1466c-5.7,0-8.6-3.4-10.9-6.1s-3.9-4.3-7.1-4.3s-4.8,1.6-7.1,4.3s-5.3,6.1-10.9,6.1s-8.6-3.4-10.9-6.1
	s-3.9-4.3-7.1-4.3s-4.8,1.6-7.1,4.3s-5.3,6.1-10.9,6.1s-8.6-3.4-10.9-6.1s-3.9-4.3-7.1-4.3s-4.7,1.6-7.1,4.3s-5.3,6.1-10.9,6.1
	s-8.6-3.4-10.9-6.1s-3.9-4.3-7.1-4.3s-4.8,1.6-7.1,4.3s-5.3,6.1-10.9,6.1s-8.6-3.4-10.9-6.1s-3.9-4.3-7.1-4.3s-4.8,1.6-7.1,4.3
	s-5.3,6.1-10.9,6.1s-8.6-3.4-10.9-6.1s-3.9-4.3-7.1-4.3s-4.8,1.6-7.1,4.3s-5.3,6.1-10.9,6.1s-8.6-3.4-10.9-6.1s-3.9-4.3-7.1-4.3
	s-4.8,1.6-7.1,4.3s-5.3,6.1-10.9,6.1s-8.6-3.4-10.9-6.1s-3.9-4.3-7.1-4.3s-4.7,1.6-7.1,4.3s-5.3,6.1-11,6.1s-8.6-3.4-10.9-6.1
	s-3.9-4.3-7.1-4.3v-5.1c5.7,0,8.6,3.4,10.9,6.1s3.9,4.3,7.1,4.3s4.7-1.6,7.1-4.3s5.3-6.1,10.9-6.1s8.6,3.4,10.9,6.1s3.9,4.3,7.1,4.3
	c3.2,0,4.8-1.6,7.1-4.3s5.3-6.1,10.9-6.1s8.6,3.4,10.9,6.1s3.9,4.3,7.1,4.3s4.8-1.6,7.1-4.3s5.3-6.1,10.9-6.1s8.6,3.4,10.9,6.1
	s3.9,4.3,7.1,4.3s4.8-1.6,7.1-4.3s5.3-6.1,10.9-6.1s8.6,3.4,10.9,6.1s3.9,4.3,7.1,4.3s4.8-1.6,7.1-4.3s5.3-6.1,10.9-6.1
	c5.7,0,8.6,3.4,10.9,6.1s3.9,4.3,7.1,4.3s4.8-1.6,7.1-4.3s5.3-6.1,10.9-6.1s8.6,3.4,10.9,6.1s3.9,4.3,7.1,4.3s4.8-1.6,7.1-4.3
	s5.3-6.1,10.9-6.1s8.6,3.4,10.9,6.1s3.9,4.3,7.1,4.3s4.8-1.6,7.1-4.3s5.3-6.1,10.9-6.1s8.6,3.4,10.9,6.1s3.9,4.3,7.1,4.3L382,1466z"
	/>
<path class="st7" d="M242.5,1152.2v193.2c0,0,0.1,0.1,0.1,0.1c0,0,0,0,0.1-0.1l48.7-98.4c0,0,0,0,0-0.1l-41.3-96.3
	c-1-2-3.4-2.8-5.3-1.9C243.4,1149.4,242.5,1150.7,242.5,1152.2z"/>
<circle class="st2" cx="233.7" cy="1139.9" r="4.1"/>
<path class="st6" d="M213.1,1239.7c0,8.1-14.4,22.7-14.4,22.7s-15.1-14.5-15.1-22.7c0-3.8,1.5-6.5,5-6.8c7.2-0.7,10.1,7.2,10.1,7.2
	s3.4-7.2,8.6-7.2C211.6,1232.9,213.1,1235.6,213.1,1239.7z"/>
<path class="st7" d="M887,796.8c-3.3-6.1-1.1-13.8,5-17.1c5.9-3.2,13.3-1.3,16.8,4.4c3.5,6,2.8,29.1,2.8,29.1S890.5,802.9,887,796.8
	z"/>
<path class="st7" d="M1272.6,873.3c4.5-2.5,10.1-0.9,12.6,3.6c2.5,4.5,0.9,10.1-3.6,12.6l0,0c-4.5,2.5-21.4,1.6-21.4,1.6
	S1268.2,875.7,1272.6,873.3z"/>
<path class="st6" d="M953.1,842.1c-11.9-4.1-18.2-17.1-14.1-29c1.5-4.4,4.3-8.2,8.1-10.9c2.3-1.7,56-40.9,86.1-61.5
	c29.9-20.4,37.4-38.8,38.6-42.3c1.1-3.3,1.2-6.8,0.4-10.2c-0.7-2.4-2.2-5.1-7.9-7.4c-4.5-1.8-8.1-1.8-11.7,0
	c-1.2,0.6-2.4,1.4-3.5,2.2c-8.1,9.6-22.4,10.9-32.1,2.8c0,0,0,0,0,0c-9.6-8.1-11.7-27.7-1-40.6c14.1-17.1,34-22.4,66-9.8
	c34.6,13.6,42.2,51,32.8,78c-11,31.6-42.8,56-56,65c-29.4,20-84.3,60.1-84.8,60.5C968,843.4,960.1,844.6,953.1,842.1z"/>
<circle class="st5" cx="1040.4" cy="661.7" r="12.5"/>
<circle class="st7" cx="1040.4" cy="661.7" r="8.7"/>
<circle class="st15" cx="1040.4" cy="661.7" r="6.4"/>
<path class="st5" d="M1043.1,661.1c-0.4-0.1-0.7-0.4-0.8-0.7c-0.4-0.8-0.2-1.8,0.6-2.2l4.3-2.7c0.8-0.5,1.7-0.2,2.2,0.5c0,0,0,0,0,0
	c0.4,0.8,0.2,1.8-0.6,2.2l-4.3,2.7C1044.1,661.2,1043.6,661.2,1043.1,661.1z"/>
<path class="st16" d="M1027.5,695.5c-3.4,4.8-4.1,13.4-8.3,21.4c-3,5.6-8.1,11-11,11.2s-10.7-8.5-10.5-18
	c0.2-14,11.5-16.1,14.8-28.1c1.9-6.9,11.8-9.8,16.7-4.5S1031.6,689.6,1027.5,695.5z"/>
<path class="st15" d="M1017.7,719.3c0.5-8.2-3.6-15.6-10.6-18.1c-2.3-0.8-4.8-1-7.2-0.6c-1.5,2.9-2.3,6.1-2.3,9.3
	c-0.2,9.5,7.6,18.2,10.5,18C1010.7,728,1014.7,724,1017.7,719.3z"/>
<path class="st6" d="M1217.3,892.6c0.2-1.5,0.5-2.9,1-4.3l2.5-7.2c2.8-7.9,1.6-15.5-6.3-18.3c-6.9-2.4-11.3,1.6-14.9,7.6
	c-1.1-0.5-8.3-3.1-9.5-3.5l-202.9-70.4c-22.6-7.9-47.4,4.1-55.2,26.8l0,0c-7.9,22.6,4.1,47.4,26.8,55.2l202.9,70.4
	c22.6,7.9,47.4-4.1,55.2-26.8l0,0C1220.4,912.1,1216.1,902.5,1217.3,892.6z"/>
<path class="st9" d="M1166.3,881.5c-8.7,25-52.9,32.3-91.1,19s-62.2-44.3-53.6-69.3s43.8-26,82-12.7S1175,856.5,1166.3,881.5z"/>
<path class="st7" d="M1259.2,911.8c7.9-3.9,17.5-0.7,21.4,7.2c3.9,7.9,0.7,17.5-7.2,21.4c-0.6,0.3-1.2,0.5-1.8,0.8
	c-8.1,3.4-36.9-1.1-36.9-1.1S1251.1,915.2,1259.2,911.8z"/>
<rect x="139.2" y="844.3" transform="matrix(0.4727 -0.8812 0.8812 0.4727 -708.3915 595.1645)" class="st9" width="7.8" height="90.4"/>
<path d="M306.3,689.7l7.8,4.2c3.5,1.9,4.9,6.3,3,9.8l-10.6,19.7c-1.9,3.5-6.3,4.9-9.8,3l-7.8-4.2c-3.5-1.9-4.9-6.3-3-9.8l10.6-19.7
	C298.4,689.1,302.8,687.8,306.3,689.7z"/>
<path d="M195.1,897.1l7.8,4.2c3.5,1.9,4.9,6.3,3,9.8l-10.6,19.7c-1.9,3.5-6.3,4.9-9.8,3l-7.8-4.2c-3.5-1.9-4.9-6.3-3-9.8l10.6-19.7
	C187.1,896.5,191.5,895.2,195.1,897.1z"/>
<path d="M100.3,846.2l7.8,4.2c3.5,1.9,4.9,6.3,3,9.8L100.5,880c-1.9,3.5-6.3,4.9-9.8,3l-7.8-4.2c-3.5-1.9-4.9-6.3-3-9.8l10.6-19.7
	C92.4,845.7,96.8,844.3,100.3,846.2z"/>
<path d="M211.6,638.8l7.8,4.2c3.5,1.9,4.9,6.3,3,9.8l-10.6,19.7c-1.9,3.5-6.3,4.9-9.8,3l-7.8-4.2c-3.5-1.9-4.9-6.3-3-9.8l10.6-19.7
	C203.6,638.3,208,637,211.6,638.8z"/>
<path class="st7" d="M275.9,767.1c33.2-65.3,24.2-128.8,8.2-140.5c-18.6-6.9-76.5,20.7-112.5,84.5c-55.5,98.4-83.9,228.7-64.2,245
	C131.8,963.5,224.7,867.8,275.9,767.1z"/>
<circle class="st2" cx="179.6" cy="821.5" r="42.1"/>
<path class="st5" d="M266,722.9c0,0-25.5,5.8-33.5,1.5s-14.9-26.6-14.9-26.6s22.4-6.5,30.4-2.3S266,722.9,266,722.9z"/>
<ellipse transform="matrix(0.9951 -9.853768e-02 9.853768e-02 0.9951 -68.2708 27.2929)" cx="242.2" cy="704.8" rx="14" ry="14"/>
<path d="M231.8,725.8c-13.8-7.4-16.7-27.8-16.8-28.7l-0.2-1.7l1.5-0.7c0.8-0.4,19.4-9.2,33.2-1.8c13.8,7.4,16.7,27.8,16.8,28.7
	l0.2,1.7l-1.5,0.7C264.2,724.3,245.6,733.2,231.8,725.8z M219.9,698.2c1,4.8,4.5,18.3,14.1,23.5s22.8,0.6,27.4-1.2
	c-1-4.8-4.5-18.3-14.1-23.5S224.5,696.3,219.9,698.2L219.9,698.2z"/>
<circle class="st3" cx="223.8" cy="739.1" r="3.1"/>
<circle class="st1" cx="211.2" cy="762.5" r="9.3"/>
<line class="st17" x1="245.1" y1="703" x2="249.2" y2="701.3"/>
<path class="st4" d="M227.3,845.9L227.3,845.9l2.1-2.9l0,0c-0.9-1.8-2.4-3.2-4.1-4.1c-4.2-2.3-7.6-1-10.6,0.2c-2.8,1-5.1,2-8.1,0.4
	s-3.5-4.1-4.2-6.9c-0.7-3.2-1.5-6.7-5.7-9s-7.6-1-10.6,0.2c-2.8,1-5.1,2-8.1,0.4s-3.5-4.1-4.1-6.9c-0.7-3.2-1.5-6.7-5.7-9
	s-7.6-1-10.6,0.2c-2.8,1-5.1,2-8.1,0.4s-3.5-4.1-4.1-6.9c-0.7-3.2-1.5-6.7-5.7-9c-1.6-0.9-3.4-1.3-5.3-1.2l0,0
	c-0.4,1.1-0.8,2.2-1.2,3.3c-28.7,76.6-40,149.2-25.6,161.1C125.2,961.5,179.4,912.1,227.3,845.9z"/>
<path class="st5" d="M849.3,711.6l-88.5-54.8l-330,88.2l52.6,197l330-88.2l49.4-91.6C872.4,744.4,866.5,722.2,849.3,711.6z
	 M821.2,767.8c-11.1,3-22.5-3.6-25.5-14.7c-3-11.1,3.6-22.5,14.7-25.5c11.1-3,22.5,3.6,25.5,14.7
	C838.9,753.4,832.3,764.8,821.2,767.8z"/>
<g class="st18">
	<path class="st6" d="M547.7,828.9l3.6-0.3c1-0.3,1.8-1,2.4-2.1c0.5-1.1,0.8-2.4,0.8-3.9c0-2.8-0.2-5.2-0.8-7.3s-1.4-3.9-2.6-5.7
		c-1.2-1.8-2.5-3.4-3.9-4.9c-1.4-1.4-2.9-2.9-4.3-4.4c-3.4-3.6-5.7-7.4-6.7-11.4c-0.7-2.5-0.8-4.8-0.5-6.9c0.6-3.9,2.2-6.3,4.8-7
		c1-0.3,2-0.2,3,0.2c1,0.4,1.6,0.9,1.8,1.7c0.3,1.3-0.2,2.1-1.5,2.4c-0.6,0.2-1.2,0.2-1.9,0c-1.7,0.5-2.4,2.8-2,6.8
		c0.1,0.9,0.3,1.9,0.6,3c0.3,1.1,0.9,2.4,1.8,3.9c0.9,1.5,1.9,2.8,3,3.9s2.2,2.3,3.5,3.6c1.3,1.3,2.4,2.6,3.6,3.8
		c2.6,2.9,4.5,6.5,5.6,10.8c0.9,3.3,1,6.7,0.3,10.1c-0.3,1.7-1.1,3.2-2.2,4.5c-1.1,1.3-2.6,2.2-4.3,2.7l0.1,0.2
		c-2.3,0.3-3.9-0.4-4.5-2.2L547.7,828.9z"/>
	<path class="st6" d="M576.3,785.7l0.5,1.4c6.5,24.3,6.2,37.5-0.8,39.3c-2.7,0.8-5,0.2-7-1.7c-2-1.9-3.4-4-4.3-6.2
		c-1.4-3.4-2.7-7.3-4-11.9c-1.3-4.5-3.1-11.1-5.4-19.6l-3.5-11.7c0.2-1.3,0.6-2,1.3-2.2c0.7-0.2,1.4,0.2,2.1,1
		c0.8,0.9,1.3,1.9,1.6,3l6,22.4c0.5,2,1.5,4.8,2.9,8.6c1.4,3.8,2.4,6.6,2.9,8.6c1.1,4,3.3,5.6,6.8,4.6c3.9-1,1.9-16.3-6-45.8
		l-1.2-4.6l-0.4-1.4c-0.2-0.6-0.2-1.2,0.1-1.6c0.2-0.4,0.7-0.7,1.4-0.9c0.7-0.2,1.3-0.2,1.8-0.1c0.4,0.1,0.7,0.4,1,0.8
		c0.4,0.6,0.7,1.5,1.1,2.6l1.6,8.4L576.3,785.7z"/>
	<path class="st6" d="M622.3,811.8l-2.8-10.5c-0.7-2.4-1.8-6-3.5-10.6c-1.7-4.6-2.7-7.7-3.1-9.4c-0.4-1.6-0.9-3.6-1.4-5.9
		c-0.5-2.3-0.9-4-1.2-5.1c0,0.8,0,4.8,0.3,12.1c0.6,18.8-0.1,28.5-1.9,29c-1.1,0.3-2,0.2-2.8-0.3c-0.8-0.5-1.3-1.3-1.6-2.3
		c-0.7-2.6-3.1-7.7-7.4-15.2s-7.6-13.3-10.2-17.2c4.1,19.6,7.1,32.8,8.9,39.6l0.8,2.4c0.2,0.9,0.2,1.6,0,2.2c-0.2,0.6-0.8,1-1.6,1.2
		c-0.8,0.2-1.5,0.2-2.1-0.1c-0.6-0.3-1-0.6-1.1-1.2c-1.5-5.6-3.3-14.1-5.5-25.5c-2.1-11.4-4-19.9-5.5-25.5c-0.5-0.4-0.8-0.9-0.9-1.6
		c-0.2-0.6,0-1.2,0.6-1.7c0.6-0.5,1.3-0.9,2-1.1c1.2-0.3,5,4.6,11.4,14.7c6.4,10.1,10.6,17.1,12.5,21.2c0-0.9,0-3-0.1-6.5
		c-0.1-3.5-0.2-7.1-0.3-10.8c-0.1-3.8-0.1-7.6,0-11.4c0.1-8.9,1-13.5,2.6-13.9c0.7-0.2,1.5-0.2,2.2,0.1c0.8,0.2,1.2,0.7,1.4,1.4
		c1.1,4,2.8,9.8,5.3,17.6c2.5,7.8,4.2,13.4,5.1,17l2.1,8.7l0,0c0.2,0.6,0.8,2.5,2,5.7l0.6,1.6c0.4,0.5,0.7,1.1,0.9,1.8
		c0.2,0.7,0.1,1.4-0.2,2.3c-0.3,0.9-0.9,1.4-1.7,1.7C624.5,816.7,623.2,815.2,622.3,811.8z"/>
	<path class="st6" d="M662.9,800.9l-2.8-10.5c-0.7-2.4-1.8-6-3.5-10.6c-1.7-4.6-2.7-7.7-3.1-9.4c-0.4-1.6-0.9-3.6-1.4-5.9
		c-0.5-2.3-0.9-4-1.2-5.1c0,0.8,0,4.8,0.3,12.1c0.6,18.8-0.1,28.5-1.9,29c-1.1,0.3-2,0.2-2.8-0.3c-0.8-0.5-1.3-1.3-1.6-2.3
		c-0.7-2.6-3.1-7.7-7.4-15.2c-4.2-7.6-7.6-13.3-10.2-17.2c4.1,19.6,7.1,32.8,8.9,39.6l0.8,2.4c0.2,0.9,0.2,1.6,0,2.2
		c-0.3,0.6-0.8,1-1.6,1.2c-0.8,0.2-1.5,0.2-2.1-0.1c-0.6-0.3-1-0.6-1.1-1.2c-1.5-5.6-3.3-14.1-5.5-25.5c-2.1-11.4-4-19.9-5.5-25.5
		c-0.5-0.4-0.8-0.9-0.9-1.6c-0.2-0.6,0-1.2,0.6-1.7c0.6-0.5,1.3-0.9,2-1.1c1.2-0.3,5,4.6,11.4,14.7c6.4,10.1,10.6,17.1,12.5,21.2
		c0-0.9,0-3-0.1-6.5c-0.1-3.5-0.2-7.1-0.3-10.8c-0.1-3.8-0.1-7.6,0-11.4c0.1-8.9,1-13.5,2.6-13.9c0.7-0.2,1.5-0.2,2.2,0.1
		c0.8,0.2,1.2,0.7,1.4,1.4c1.1,4,2.8,9.8,5.3,17.6c2.5,7.8,4.2,13.4,5.1,17l2.1,8.7l0,0c0.2,0.6,0.8,2.5,2,5.7l0.6,1.6
		c0.4,0.5,0.7,1.1,0.9,1.8c0.2,0.7,0.1,1.4-0.2,2.3c-0.3,0.9-0.9,1.4-1.7,1.7C665.2,805.9,663.9,804.4,662.9,800.9z"/>
	<path class="st6" d="M663.1,757.3l-2.3-6.8c-1-3.9-0.4-6.1,1.9-6.7c1.5-0.4,3.6-0.6,6.3-0.6c2.7,0,4.2,0.5,4.5,1.6
		c0.3,1.1-0.3,2.2-1.7,3.2c-2.8-0.2-5-0.1-6.6,0.1c0.4,1.2,0.7,2.3,1.1,3.5l2.8,11.9c0,0.1,0.2,0.5,0.6,1.2l2.9-0.9
		c2.7-0.7,4.2-0.3,4.6,1.2c0.2,0.6,0.1,1.2-0.3,1.7c-0.4,0.6-0.9,1-1.7,1.2s-1.5,0.4-2.4,0.5l-2.1,0.6c0.7,2,1.4,4.1,1.9,6.2l3.6,15
		c0.8,3.1,1.3,4.6,1.4,4.6l6-1.8c2.1-0.6,3.3-0.2,3.7,1.2c0.2,0.8,0,1.5-0.6,2.1c-0.6,0.6-1.4,1-2.3,1.2l-6.9,1.9
		c-0.7,0.2-1.4,0.1-2.2-0.2c-0.7-0.3-1.2-0.9-1.4-1.5l-0.6-2.2l-4.2-13.8L663.1,757.3z"/>
	<path class="st6" d="M688.3,765.5l2.3,8.9c1.9,7.3,4,12.8,6.1,16.7l-0.3,2.5l-2.3,0.6l-1.4-0.9c-0.6-2.5-1.3-5.2-2.1-8.3
		c-0.8-3.1-2.8-9.6-6-19.5c-3.2-9.9-5.4-17.3-6.7-22.3c-0.7-2.6-0.1-4.1,1.7-4.6c2.9-0.8,5.5-0.7,7.8,0.3c2.4,1,3.9,2.9,4.6,5.6
		l1.5,5.8c0.4,1.6,0.5,3.1,0.3,4.6c-0.2,1.5-0.6,3-1,4.6c-0.4,1.6-0.6,2.6-0.6,2.7c0.7,1.3,1.9,3.7,3.7,7.5
		c3.9,8.1,7.3,13.8,10.3,17c0.8,0.9,1.4,1.7,1.5,2.3c0.2,0.6,0.1,1.2-0.1,1.7c-0.2,0.5-0.6,0.8-1.2,1c-1.2,0.3-2.6-0.7-4.4-3.1
		c-1.8-2.4-3.4-5.1-4.9-8.1c-4.6-9.3-7.2-14.4-7.9-15.3L688.3,765.5z M682.2,741.2l0,1.2c0.6,2.2,1.5,5.5,2.8,9.7
		c1.2,4.2,2.1,7.3,2.6,9.2c1.1-1,1.7-3,1.7-6.1c0-3-0.1-5.3-0.5-6.8c-0.4-1.5-0.7-2.6-1-3.3c-0.3-0.7-0.7-1.4-1.2-2.2
		C685.6,741.4,684.1,740.8,682.2,741.2z"/>
</g>
<path class="st19" d="M555.2,857.4c0,0,204.8-78.9,160.3-48.5S535,881.5,584.8,872.2c52.8-9.8,117.9-37.2,117.9-37.2"/>
<path class="st14" d="M754.3,732c3.5,13.3-13.6,43.1-13.6,43.1s-30.9-17-34.4-30.3c-1.7-6.2-0.4-11.2,5.2-13.3
	c11.4-4.3,19.5,7.3,19.5,7.3s2.4-13.2,10.9-15.5C749,721.5,752.5,725.4,754.3,732z"/>
</svg>
