<?xml version="1.0" encoding="utf-8"?>
<!-- Generator: Adobe Illustrator 23.1.1, SVG Export Plug-In . SVG Version: 6.00 Build 0)  -->
<svg version="1.1" id="Layer_1" xmlns="http://www.w3.org/2000/svg" xmlns:xlink="http://www.w3.org/1999/xlink" x="0px" y="0px"
	 viewBox="0 0 1000 700" style="enable-background:new 0 0 1000 700;" xml:space="preserve">
<style type="text/css">
	.st0{clip-path:url(#SVGID_2_);fill:url(#SVGID_3_);}
	.st1{clip-path:url(#SVGID_5_);fill:#FFB8B6;}
	.st2{opacity:0.3;clip-path:url(#SVGID_7_);fill:#341C7F;enable-background:new    ;}
	.st3{clip-path:url(#SVGID_9_);fill:#FFB8B6;}
	.st4{clip-path:url(#SVGID_11_);}
	.st5{fill:#FFFFFF;}
	.st6{clip-path:url(#SVGID_13_);fill:#3D9BAA;}
	.st7{clip-path:url(#SVGID_15_);fill:url(#SVGID_16_);}
	.st8{clip-path:url(#SVGID_18_);fill:#FFB8B6;}
	.st9{clip-path:url(#SVGID_20_);fill:#FFB901;}
	.st10{clip-path:url(#SVGID_22_);}
	.st11{fill:#FFB901;}
	.st12{clip-path:url(#SVGID_24_);fill:#FFB901;}
	.st13{opacity:0.3;clip-path:url(#SVGID_26_);fill:#341C7F;enable-background:new    ;}
	.st14{clip-path:url(#SVGID_28_);fill:none;stroke:#51227A;stroke-linecap:round;stroke-miterlimit:10;}
	.st15{clip-path:url(#SVGID_30_);fill:#51227A;}
	.st16{clip-path:url(#SVGID_32_);}
	.st17{clip-path:url(#SVGID_34_);fill:#51227A;}
	.st18{clip-path:url(#SVGID_36_);fill:#FFB8B6;}
	.st19{opacity:0.3;clip-path:url(#SVGID_38_);fill:#341C7F;enable-background:new    ;}
	.st20{clip-path:url(#SVGID_40_);fill:#3D9BAA;}
	.st21{clip-path:url(#SVGID_42_);fill:#FFB8B6;}
	.st22{clip-path:url(#SVGID_44_);fill:#3D9BAA;}
	.st23{clip-path:url(#SVGID_46_);fill:#51227A;}
	.st24{clip-path:url(#SVGID_48_);fill:#FF8585;}
	.st25{clip-path:url(#SVGID_50_);fill:#51227A;}
	.st26{clip-path:url(#SVGID_52_);fill:#51227A;}
	.st27{clip-path:url(#SVGID_54_);fill:#51227A;}
	.st28{clip-path:url(#SVGID_56_);fill:none;stroke:#51227A;stroke-linecap:round;stroke-miterlimit:10;}
	.st29{clip-path:url(#SVGID_58_);fill:none;stroke:#51227A;stroke-linecap:round;stroke-miterlimit:10;}
	.st30{clip-path:url(#SVGID_60_);fill:#FF8585;}
	.st31{clip-path:url(#SVGID_62_);fill:#FF8585;}
	.st32{clip-path:url(#SVGID_64_);fill:#FF8585;}
	.st33{clip-path:url(#SVGID_66_);fill:none;stroke:#51227A;stroke-linecap:round;stroke-miterlimit:10;}
	.st34{clip-path:url(#SVGID_68_);fill:#E59E00;}
	.st35{clip-path:url(#SVGID_70_);}
	.st36{opacity:0.1;fill:#FFB901;enable-background:new    ;}
	.st37{clip-path:url(#SVGID_72_);fill:none;stroke:#51227A;stroke-linecap:round;stroke-miterlimit:10;}
	.st38{clip-path:url(#SVGID_74_);fill:#E59E00;}
	.st39{clip-path:url(#SVGID_76_);fill:#3D9BAA;}
	.st40{clip-path:url(#SVGID_78_);fill:#FFB901;}
	.st41{clip-path:url(#SVGID_80_);fill:none;stroke:#51227A;stroke-linecap:round;stroke-miterlimit:10;}
	.st42{clip-path:url(#SVGID_82_);fill:none;stroke:#51227A;stroke-linecap:round;stroke-miterlimit:10;}
	.st43{clip-path:url(#SVGID_84_);}
	.st44{enable-background:new    ;}
	.st45{clip-path:url(#SVGID_86_);}
	.st46{opacity:0.3;clip-path:url(#SVGID_90_);fill:#341C7F;enable-background:new    ;}
	.st47{clip-path:url(#SVGID_92_);fill:none;stroke:#51227A;stroke-linecap:round;stroke-miterlimit:10;}
	.st48{clip-path:url(#SVGID_94_);}
	.st49{fill:#E59E00;}
	.st50{clip-path:url(#SVGID_96_);fill:#E59E00;}
	.st51{clip-path:url(#SVGID_98_);fill:#FFB901;}
	.st52{clip-path:url(#SVGID_100_);fill:#E59E00;}
	.st53{clip-path:url(#SVGID_102_);fill:#E59E00;}
	.st54{clip-path:url(#SVGID_104_);fill:#FFB901;}
	.st55{clip-path:url(#SVGID_106_);fill:#E59E00;}
	.st56{clip-path:url(#SVGID_108_);fill:#E59E00;}
	.st57{clip-path:url(#SVGID_110_);fill:#FFB901;}
	.st58{clip-path:url(#SVGID_112_);fill:#E59E00;}
	.st59{clip-path:url(#SVGID_114_);fill:#E59E00;}
	.st60{clip-path:url(#SVGID_116_);fill:#FFB901;}
	.st61{clip-path:url(#SVGID_118_);fill:#FFB901;}
	.st62{clip-path:url(#SVGID_120_);fill:#FFB901;}
	.st63{clip-path:url(#SVGID_122_);fill:#FFB901;}
	.st64{clip-path:url(#SVGID_124_);fill:#FFB901;}
	.st65{clip-path:url(#SVGID_126_);fill:#FFB901;}
	.st66{clip-path:url(#SVGID_128_);fill:#FFB901;}
	.st67{clip-path:url(#SVGID_130_);fill:#FFB901;}
	.st68{clip-path:url(#SVGID_132_);fill:#FFB901;}
	.st69{clip-path:url(#SVGID_134_);fill:#FFB901;}
	.st70{clip-path:url(#SVGID_136_);fill:#FFB901;}
	.st71{clip-path:url(#SVGID_138_);fill:#FFB901;}
	.st72{clip-path:url(#SVGID_140_);fill:#FFB901;}
	.st73{clip-path:url(#SVGID_142_);fill:#FFB901;}
	.st74{clip-path:url(#SVGID_144_);fill:#FFB901;}
	.st75{clip-path:url(#SVGID_146_);fill:#FFB901;}
	.st76{clip-path:url(#SVGID_148_);fill:#FFB901;}
	.st77{clip-path:url(#SVGID_150_);fill:#FFB901;}
	.st78{clip-path:url(#SVGID_152_);fill:#FFB901;}
	.st79{clip-path:url(#SVGID_154_);fill:#FFB901;}
	.st80{clip-path:url(#SVGID_156_);fill:#FFB901;}
	.st81{clip-path:url(#SVGID_158_);fill:#FFB901;}
	.st82{clip-path:url(#SVGID_160_);fill:#FFB901;}
	.st83{clip-path:url(#SVGID_162_);fill:#FFB901;}
	.st84{clip-path:url(#SVGID_164_);fill:#FFB901;}
	.st85{clip-path:url(#SVGID_166_);fill:none;stroke:#FFFFFF;stroke-width:2;stroke-linecap:round;stroke-miterlimit:10;}
	.st86{clip-path:url(#SVGID_168_);fill:none;stroke:#FFFFFF;stroke-width:2;stroke-linecap:round;stroke-miterlimit:10;}
	.st87{clip-path:url(#SVGID_170_);fill:none;stroke:#FFFFFF;stroke-linecap:round;stroke-miterlimit:10;}
	.st88{clip-path:url(#SVGID_172_);fill:none;stroke:#FFFFFF;stroke-linecap:round;stroke-miterlimit:10;}
	.st89{clip-path:url(#SVGID_174_);fill:none;stroke:#FFFFFF;stroke-width:2;stroke-linecap:round;stroke-miterlimit:10;}
	.st90{clip-path:url(#SVGID_176_);fill:none;stroke:#FFFFFF;stroke-width:2;stroke-linecap:round;stroke-miterlimit:10;}
	.st91{clip-path:url(#SVGID_178_);fill:none;stroke:#FFFFFF;stroke-width:2;stroke-linecap:round;stroke-miterlimit:10;}
	.st92{clip-path:url(#SVGID_180_);fill:#51227A;}
	.st93{clip-path:url(#SVGID_182_);fill:#51227A;}
	.st94{clip-path:url(#SVGID_184_);fill:#51227A;}
	.st95{clip-path:url(#SVGID_186_);fill:#51227A;}
	.st96{opacity:0.3;clip-path:url(#SVGID_188_);fill:#341C7F;enable-background:new    ;}
	.st97{clip-path:url(#SVGID_190_);fill:#51227A;}
	.st98{opacity:0.3;clip-path:url(#SVGID_192_);fill:#341C7F;enable-background:new    ;}
	.st99{clip-path:url(#SVGID_194_);fill:none;stroke:#51227A;stroke-linecap:round;stroke-miterlimit:10;}
	.st100{clip-path:url(#SVGID_196_);fill:#341C7F;stroke:#51227A;stroke-miterlimit:10;}
	.st101{clip-path:url(#SVGID_198_);fill:#341C7F;stroke:#51227A;stroke-miterlimit:10;}
	.st102{clip-path:url(#SVGID_200_);fill:#FFFFFF;}
	.st103{clip-path:url(#SVGID_202_);fill:#FFFFFF;}
	.st104{clip-path:url(#SVGID_204_);fill:none;stroke:#FFFFFF;stroke-linecap:round;stroke-miterlimit:10;}
	.st105{clip-path:url(#SVGID_206_);fill:#FFB901;}
	.st106{clip-path:url(#SVGID_208_);fill:#FFB901;}
	.st107{clip-path:url(#SVGID_210_);fill:#FFB901;}
	.st108{clip-path:url(#SVGID_212_);fill:#FFB901;}
	.st109{opacity:0.3;clip-path:url(#SVGID_214_);fill:#341C7F;enable-background:new    ;}
	.st110{clip-path:url(#SVGID_216_);fill:none;stroke:#341C7F;stroke-linecap:round;stroke-miterlimit:10;}
	.st111{clip-path:url(#SVGID_218_);fill:#FFB8B6;}
	.st112{clip-path:url(#SVGID_220_);}
	.st113{clip-path:url(#SVGID_222_);}
	.st114{clip-path:url(#SVGID_224_);fill:none;stroke:#FFB901;stroke-miterlimit:10;}
	.st115{clip-path:url(#SVGID_226_);}
	.st116{clip-path:url(#SVGID_228_);}
</style>
<title>im</title>
<g>
	<g>
		<defs>
			<rect id="SVGID_1_" width="1000" height="700"/>
		</defs>
		<clipPath id="SVGID_2_">
			<use xlink:href="#SVGID_1_"  style="overflow:visible;"/>
		</clipPath>
		
			<linearGradient id="SVGID_3_" gradientUnits="userSpaceOnUse" x1="500" y1="678.848" x2="500" y2="23.8149" gradientTransform="matrix(1 0 0 -1 0 702)">
			<stop  offset="1.281415e-03" style="stop-color:#9734A5"/>
			<stop  offset="1" style="stop-color:#672895"/>
		</linearGradient>
		<rect class="st0" width="1000" height="700"/>
	</g>
	<g>
		<defs>
			<rect id="SVGID_4_" width="1000" height="700"/>
		</defs>
		<clipPath id="SVGID_5_">
			<use xlink:href="#SVGID_4_"  style="overflow:visible;"/>
		</clipPath>
		<path class="st1" d="M736.1,611.4c-14.7,0-48.3-11.9-49.3-26.6c-2.2-30,11.2-27.8,49.3-26.6c89.1,2.9,161.7-72.6,161.7-161.7
			c0-89.2-72.6-161.7-161.7-161.7c-14.7,0-26.6-11.9-26.6-26.6s11.9-26.6,26.6-26.6c57.4,0,111.4,22.4,151.9,62.9
			c40.6,40.6,62.9,94.5,62.9,151.9S928.6,507.9,888,548.5S793.5,611.4,736.1,611.4z"/>
	</g>
	<g>
		<defs>
			<rect id="SVGID_6_" width="1000" height="700"/>
		</defs>
		<clipPath id="SVGID_7_">
			<use xlink:href="#SVGID_6_"  style="overflow:visible;"/>
		</clipPath>
		<path class="st2" d="M766,220h8l-6.4-36c-2.8-0.4-5.6-0.8-8.5-1.1L766,220z"/>
	</g>
	<g>
		<defs>
			<rect id="SVGID_8_" width="1000" height="700"/>
		</defs>
		<clipPath id="SVGID_9_">
			<use xlink:href="#SVGID_8_"  style="overflow:visible;"/>
		</clipPath>
		<path class="st3" d="M652,610.7c-57.4,0-111.4-22.4-151.9-62.9c-40.6-40.6-62.9-94.5-62.9-151.9s22.4-111.4,62.9-151.9
			c40.5-40.7,94.5-63,151.9-63c14.7,0,26.6,11.9,26.6,26.6s-11.9,26.6-26.6,26.6c-89.2,0-161.7,72.6-161.7,161.7
			S562.8,559.4,652,557.6c62.1-1.3,49.3,11.9,49.3,26.6C701.3,598.9,666.7,610.7,652,610.7z"/>
	</g>
	<g>
		<defs>
			<rect id="SVGID_10_" width="1000" height="700"/>
		</defs>
		<clipPath id="SVGID_11_">
			<use xlink:href="#SVGID_10_"  style="overflow:visible;"/>
		</clipPath>
		<g class="st4">
			<path class="st5" d="M765.7,250.1L639,251v-80l117.5-1c2,0,3.7,1.4,4,3.4l11.3,69.4C772.4,246.6,769.5,250,765.7,250.1z"/>
		</g>
	</g>
	<g>
		<defs>
			<rect id="SVGID_12_" width="1000" height="700"/>
		</defs>
		<clipPath id="SVGID_13_">
			<use xlink:href="#SVGID_12_"  style="overflow:visible;"/>
		</clipPath>
		<path class="st6" d="M761.7,250.1L635,251v-80l120.1-1c0.5,0,1,0.4,1.1,0.9l11.7,71.9C768.4,246.6,765.5,250,761.7,250.1z"/>
	</g>
	<g>
		<defs>
			<rect id="SVGID_14_" width="1000" height="700"/>
		</defs>
		<clipPath id="SVGID_15_">
			<use xlink:href="#SVGID_14_"  style="overflow:visible;"/>
		</clipPath>
		
			<linearGradient id="SVGID_16_" gradientUnits="userSpaceOnUse" x1="693.9447" y1="96.4" x2="700.9447" y2="96.4" gradientTransform="matrix(1 0 0 -1 0 702)">
			<stop  offset="1.281415e-03" style="stop-color:#7536E9"/>
			<stop  offset="1" style="stop-color:#4A0CA5"/>
		</linearGradient>
		<circle class="st7" cx="697.4" cy="605.6" r="3.5"/>
	</g>
	<g>
		<defs>
			<rect id="SVGID_17_" width="1000" height="700"/>
		</defs>
		<clipPath id="SVGID_18_">
			<use xlink:href="#SVGID_17_"  style="overflow:visible;"/>
		</clipPath>
		<path class="st8" d="M793.4,235.2l-34.9-2.5c-4.4-0.3-7.7-4.1-7.4-8.6l0,0c0.3-4.4,4.1-7.7,8.6-7.4l34.9,2.5
			c4.4,0.3,7.7,4.1,7.4,8.6l0,0C801.6,232.2,797.8,235.6,793.4,235.2z"/>
	</g>
	<g>
		<defs>
			<rect id="SVGID_19_" width="1000" height="700"/>
		</defs>
		<clipPath id="SVGID_20_">
			<use xlink:href="#SVGID_19_"  style="overflow:visible;"/>
		</clipPath>
		<path class="st9" d="M628.4,588.4H695h66.6c0,0,13.6,39.5,17.1,74.3c4.4,43.8,0.6,74.3,0.6,74.3H695h-73c0,0-8.9-36.8-6.3-74.3
			C618,627.8,628.4,588.4,628.4,588.4z"/>
	</g>
	<g>
		<defs>
			<rect id="SVGID_21_" width="1000" height="700"/>
		</defs>
		<clipPath id="SVGID_22_">
			<use xlink:href="#SVGID_21_"  style="overflow:visible;"/>
		</clipPath>
		<g class="st10">
			<path class="st11" d="M888,244.6c-9.3-9.3-19.2-17.6-29.7-24.9s-21.6-13.6-33.2-18.9c0,0,0.7,11-5.2,25.6
				c-5.9,14.5-15.2,23.6-15.2,23.6c27.5,12.9,50.8,33.4,67.2,58.7c16.4,25.3,25.9,55.4,25.9,87.8c0,44.6-18.2,85.8-47.4,115.4
				c-29.3,29.7-69.7,47.8-114.3,46.3c-19.1-0.6-31.9-1.5-39.8,1.5c-7.8,3-10.6,10-9.5,25c0.5,7.3,9.2,14,19.6,18.8
				c10.4,4.8,22.4,7.8,29.8,7.8c28.7,0,56.5-5.6,82.3-16.2c25.7-10.7,49.4-26.4,69.7-46.7s36-43.9,46.7-69.7s16.2-53.6,16.2-82.3
				s-5.6-56.5-16.2-82.3S908.3,264.9,888,244.6z"/>
		</g>
	</g>
	<g>
		<defs>
			<rect id="SVGID_23_" width="1000" height="700"/>
		</defs>
		<clipPath id="SVGID_24_">
			<use xlink:href="#SVGID_23_"  style="overflow:visible;"/>
		</clipPath>
		<path class="st12" d="M652,557.6c-44.6,0.9-85-17.2-114.3-46.7s-47.4-70.4-47.4-115c0-32,9.4-61.9,25.5-87.1
			c16.1-25.2,39.1-45.6,66.2-58.7c0,0-7.9-7.1-13.5-24.4c-5.7-17.6-3.5-26.4-3.5-26.4c-11.9,5.3-23.4,11.7-34.3,19.2
			c-10.9,7.5-21.1,16-30.6,25.5c-20.3,20.3-36,43.9-46.7,69.7c-10.7,25.7-16.2,53.6-16.2,82.3s5.6,56.5,16.2,82.3
			c10.7,25.7,26.4,49.4,46.7,69.7s43.9,36,69.7,46.7c25.7,10.7,53.6,16.2,82.3,16.2c7.3,0,19.7-3,30.2-7.8s19.2-11.4,19.2-18.8
			c0-7.3,3.2-14.3-1.4-19.3S683.1,557,652,557.6z"/>
	</g>
	<g>
		<defs>
			<rect id="SVGID_25_" width="1000" height="700"/>
		</defs>
		<clipPath id="SVGID_26_">
			<use xlink:href="#SVGID_25_"  style="overflow:visible;"/>
		</clipPath>
		<polygon class="st13" points="701,569 690,575 690,567 691,565 700.6,565.8 		"/>
	</g>
	<g>
		<defs>
			<rect id="SVGID_27_" width="1000" height="700"/>
		</defs>
		<clipPath id="SVGID_28_">
			<use xlink:href="#SVGID_27_"  style="overflow:visible;"/>
		</clipPath>
		<path class="st14" d="M690.9,567c0,0,6.1,50-0.9,141"/>
	</g>
	<g>
		<defs>
			<rect id="SVGID_29_" width="1000" height="700"/>
		</defs>
		<clipPath id="SVGID_30_">
			<use xlink:href="#SVGID_29_"  style="overflow:visible;"/>
		</clipPath>
		<path class="st15" d="M695.9,565.1l-6,10c0,0-22-7-22.1-14.7c0-1.3,1.1-2.4,2.4-2.4h29.4"/>
	</g>
	<g>
		<defs>
			<rect id="SVGID_31_" width="1000" height="700"/>
		</defs>
		<clipPath id="SVGID_32_">
			<use xlink:href="#SVGID_31_"  style="overflow:visible;"/>
		</clipPath>
		<g class="st16">
			<path class="st5" d="M622.6,170.7l127.7-4.2c3.7-0.1,6.7,3.4,5.9,6.8l-12.7,75.5c-0.5,2.7-2.8,4.8-5.6,4.9l-127.7,4.2
				c-3.7,0.1-6.5-3.2-5.9-6.8l12.7-75.5C617.5,172.9,619.8,170.8,622.6,170.7z"/>
		</g>
	</g>
	<g>
		<defs>
			<rect id="SVGID_33_" width="1000" height="700"/>
		</defs>
		<clipPath id="SVGID_34_">
			<use xlink:href="#SVGID_33_"  style="overflow:visible;"/>
		</clipPath>
		<path class="st17" d="M694.6,565.1l6,10c0,0,22-7,22.1-14.7c0-1.3-1.1-2.4-2.4-2.4h-29.4"/>
	</g>
	<g>
		<defs>
			<rect id="SVGID_35_" width="1000" height="700"/>
		</defs>
		<clipPath id="SVGID_36_">
			<use xlink:href="#SVGID_35_"  style="overflow:visible;"/>
		</clipPath>
		<path class="st18" d="M717.2,560.3c0,0-7.2,3.1-22,3.1c-14.2,0-22-2.9-22-2.9c0.1-5.9-0.7-7.4-2.3-12.3c-1.6-4.8-4.2-9.1-7.6-12.4
			c-2.7-2.7-5.6-4.6-7.8-5.7s-3.7-1.7-3.7-1.7c0.1,0,0.2,0.1,0.3,0.1s0.1,0,0.1,0l6.2-21.1l6.2-21.1c1.2,0.3,4.9,1.5,9.9,4
			s11.2,6.3,17.4,12c5.9,5.4,12.4,12.9,17.3,23.1C714.1,535.6,717.4,544.4,717.2,560.3z"/>
	</g>
	<g>
		<defs>
			<rect id="SVGID_37_" width="1000" height="700"/>
		</defs>
		<clipPath id="SVGID_38_">
			<use xlink:href="#SVGID_37_"  style="overflow:visible;"/>
		</clipPath>
		<path class="st19" d="M688.3,511.2L655,527.1l1.9,3.8c1.9,1.2,4.2,2.8,6.4,5l0,0C670.8,533,688.6,524.7,688.3,511.2z"/>
	</g>
	<g>
		<defs>
			<rect id="SVGID_39_" width="1000" height="700"/>
		</defs>
		<clipPath id="SVGID_40_">
			<use xlink:href="#SVGID_39_"  style="overflow:visible;"/>
		</clipPath>
		<path class="st20" d="M626.9,494.1c1.5-8.3,12.1-12.9,10.6-28.1s-26-17-36.4-11.4c-9.9,5.3-7.6,14.4-4.6,15.2
			c0,0-12.5,11.1-10.6,21.3c1.5,8.3,8.3,8.3,8.3,8.3s-6.8,9.1-1.5,22c4.6,11.1,33.6,24.1,71.1,7.5L626.9,494.1z"/>
	</g>
	<g>
		<defs>
			<rect id="SVGID_41_" width="1000" height="700"/>
		</defs>
		<clipPath id="SVGID_42_">
			<use xlink:href="#SVGID_41_"  style="overflow:visible;"/>
		</clipPath>
		<path class="st21" d="M611.7,497.6c0.3-8.8-0.8-34.9,24-28c24.9,7,58,14.4,54.3,35.4s-23.9,24.3-38.1,25.5
			C633.7,532.1,610.9,518.4,611.7,497.6z"/>
	</g>
	<g>
		<defs>
			<rect id="SVGID_43_" width="1000" height="700"/>
		</defs>
		<clipPath id="SVGID_44_">
			<use xlink:href="#SVGID_43_"  style="overflow:visible;"/>
		</clipPath>
		<path class="st22" d="M626.9,494.1c0.4-8.5,12.1-12.9,10.6-28.1s-26-17-36.4-11.4c-9.9,5.3-7.6,14.4-4.6,15.2
			c0,0-12.5,11.1-10.6,21.3c1.5,8.3,8.3,8.3,8.3,8.3s-6.8,9.1-1.5,22c3.1,7.5,17.5,15.9,38.2,15.4c3.5-0.1-0.3-4.1,3.6-4.7
			c6.9-1.2-15.7,1.5-8-1.9c0,0,19.7,0,19.7-6.8S625.7,518,626.9,494.1z"/>
	</g>
	<g>
		<defs>
			<rect id="SVGID_45_" width="1000" height="700"/>
		</defs>
		<clipPath id="SVGID_46_">
			<use xlink:href="#SVGID_45_"  style="overflow:visible;"/>
		</clipPath>
		<path class="st23" d="M634.5,486.6c-0.7-0.3-3.1-0.4-3.5,5.2c-0.4,5.5,2,5.6,3.2,4.4C635.4,495.1,637.4,487.7,634.5,486.6z"/>
	</g>
	<g>
		<defs>
			<rect id="SVGID_47_" width="1000" height="700"/>
		</defs>
		<clipPath id="SVGID_48_">
			<use xlink:href="#SVGID_47_"  style="overflow:visible;"/>
		</clipPath>
		<path class="st24" d="M649.2,484.1c0.2-0.7,7.3-1.4,9.9-2.2c4.2-1.3,5.2,5.3-0.6,5.3C655.5,487.2,649,484.8,649.2,484.1z"/>
	</g>
	<g>
		<defs>
			<rect id="SVGID_49_" width="1000" height="700"/>
		</defs>
		<clipPath id="SVGID_50_">
			<use xlink:href="#SVGID_49_"  style="overflow:visible;"/>
		</clipPath>
		<circle class="st25" cx="641.8" cy="491.9" r="2.7"/>
	</g>
	<g>
		<defs>
			<rect id="SVGID_51_" width="1000" height="700"/>
		</defs>
		<clipPath id="SVGID_52_">
			<use xlink:href="#SVGID_51_"  style="overflow:visible;"/>
		</clipPath>
		<path class="st26" d="M637.1,477.7c-0.8-0.1-2.9-1.2-0.7-6.2c2.2-5.1,4.4-4,4.9-2.4C641.9,470.7,640.2,478.1,637.1,477.7z"/>
	</g>
	<g>
		<defs>
			<rect id="SVGID_53_" width="1000" height="700"/>
		</defs>
		<clipPath id="SVGID_54_">
			<use xlink:href="#SVGID_53_"  style="overflow:visible;"/>
		</clipPath>
		<circle class="st27" cx="646.6" cy="476.7" r="2.7"/>
	</g>
	<g>
		<defs>
			<rect id="SVGID_55_" width="1000" height="700"/>
		</defs>
		<clipPath id="SVGID_56_">
			<use xlink:href="#SVGID_55_"  style="overflow:visible;"/>
		</clipPath>
		<path class="st28" d="M671,493.9c2.4-3.3,1.8-7.4,1.8-7.4"/>
	</g>
	<g>
		<defs>
			<rect id="SVGID_57_" width="1000" height="700"/>
		</defs>
		<clipPath id="SVGID_58_">
			<use xlink:href="#SVGID_57_"  style="overflow:visible;"/>
		</clipPath>
		<path class="st29" d="M699.6,524.9c-0.5-4.1-3.6-6.7-3.6-6.7"/>
	</g>
	<g>
		<defs>
			<rect id="SVGID_59_" width="1000" height="700"/>
		</defs>
		<clipPath id="SVGID_60_">
			<use xlink:href="#SVGID_59_"  style="overflow:visible;"/>
		</clipPath>
		<circle class="st30" cx="653.4" cy="495.6" r="1.5"/>
	</g>
	<g>
		<defs>
			<rect id="SVGID_61_" width="1000" height="700"/>
		</defs>
		<clipPath id="SVGID_62_">
			<use xlink:href="#SVGID_61_"  style="overflow:visible;"/>
		</clipPath>
		<circle class="st31" cx="651.2" cy="505.5" r="1.5"/>
	</g>
	<g>
		<defs>
			<rect id="SVGID_63_" width="1000" height="700"/>
		</defs>
		<clipPath id="SVGID_64_">
			<use xlink:href="#SVGID_63_"  style="overflow:visible;"/>
		</clipPath>
		<circle class="st32" cx="660.3" cy="502.5" r="1.5"/>
	</g>
	<g>
		<defs>
			<rect id="SVGID_65_" width="1000" height="700"/>
		</defs>
		<clipPath id="SVGID_66_">
			<use xlink:href="#SVGID_65_"  style="overflow:visible;"/>
		</clipPath>
		<path class="st33" d="M570.7,255.6c0,0-9.2-8.1-14.5-23.4c-6-17.5-3.8-26.7-3.8-26.7"/>
	</g>
	<g>
		<defs>
			<rect id="SVGID_67_" width="1000" height="700"/>
		</defs>
		<clipPath id="SVGID_68_">
			<use xlink:href="#SVGID_67_"  style="overflow:visible;"/>
		</clipPath>
		<polygon class="st34" points="649,341 655,338 664.2,359 660.3,361 		"/>
	</g>
	<g>
		<defs>
			<rect id="SVGID_69_" width="1000" height="700"/>
		</defs>
		<clipPath id="SVGID_70_">
			<use xlink:href="#SVGID_69_"  style="overflow:visible;"/>
		</clipPath>
		<g class="st35">
			<path class="st36" d="M914.2,638.1L914.2,638.1c-2.9,0-5.3-2.4-5.3-5.3v-21.3c0-2.9,2.4-5.3,5.3-5.3l0,0c2.9,0,5.3,2.4,5.3,5.3
				v21.3C919.5,635.7,917.1,638.1,914.2,638.1z"/>
			<path class="st36" d="M960,592L960,592c0,2.9-2.4,5.3-5.3,5.3h-21.3c-2.9,0-5.3-2.4-5.3-5.3l0,0c0-2.9,2.4-5.3,5.3-5.3h21.3
				C957.6,586.7,960,589,960,592z"/>
			<path class="st36" d="M914.2,546.3L914.2,546.3c2.9,0,5.3,2.4,5.3,5.3v21.3c0,2.9-2.4,5.3-5.3,5.3l0,0c-2.9,0-5.3-2.4-5.3-5.3
				v-21.3C908.9,548.6,911.2,546.3,914.2,546.3z"/>
			<path class="st36" d="M868.5,592L868.5,592c0-2.9,2.4-5.3,5.3-5.3h21.3c2.9,0,5.3,2.4,5.3,5.3l0,0c0,2.9-2.4,5.3-5.3,5.3h-21.3
				C870.8,597.3,868.5,594.9,868.5,592z"/>
		</g>
	</g>
	<g>
		<defs>
			<rect id="SVGID_71_" width="1000" height="700"/>
		</defs>
		<clipPath id="SVGID_72_">
			<use xlink:href="#SVGID_71_"  style="overflow:visible;"/>
		</clipPath>
		<path class="st37" d="M839.2,207.9c0,0,0.7,12.3-6.6,26.7c-8.3,16.5-16.5,21.3-16.5,21.3"/>
	</g>
	<g>
		<defs>
			<rect id="SVGID_73_" width="1000" height="700"/>
		</defs>
		<clipPath id="SVGID_74_">
			<use xlink:href="#SVGID_73_"  style="overflow:visible;"/>
		</clipPath>
		<circle class="st38" cx="659.5" cy="348.5" r="11.5"/>
	</g>
	<g>
		<defs>
			<rect id="SVGID_75_" width="1000" height="700"/>
		</defs>
		<clipPath id="SVGID_76_">
			<use xlink:href="#SVGID_75_"  style="overflow:visible;"/>
		</clipPath>
		<circle class="st39" cx="680.5" cy="212.5" r="11.5"/>
	</g>
	<g>
		<defs>
			<rect id="SVGID_77_" width="1000" height="700"/>
		</defs>
		<clipPath id="SVGID_78_">
			<use xlink:href="#SVGID_77_"  style="overflow:visible;"/>
		</clipPath>
		<circle class="st40" cx="655.5" cy="350.5" r="11.5"/>
	</g>
	<g>
		<defs>
			<rect id="SVGID_79_" width="1000" height="700"/>
		</defs>
		<clipPath id="SVGID_80_">
			<use xlink:href="#SVGID_79_"  style="overflow:visible;"/>
		</clipPath>
		<path class="st41" d="M587.5,231.4c0,0-5.3-12.2-4.4-27.9"/>
	</g>
	<g>
		<defs>
			<rect id="SVGID_81_" width="1000" height="700"/>
		</defs>
		<clipPath id="SVGID_82_">
			<use xlink:href="#SVGID_81_"  style="overflow:visible;"/>
		</clipPath>
		<path class="st42" d="M808.6,206.7c0,0-0.2,13.3-7.4,27.3"/>
	</g>
	<g>
		<defs>
			<rect id="SVGID_83_" width="1000" height="700"/>
		</defs>
		<clipPath id="SVGID_84_">
			<use xlink:href="#SVGID_83_"  style="overflow:visible;"/>
		</clipPath>
		<g class="st43">
			<g class="st44">
				<path class="st5" d="M85.9,151.8h2.6c0.3,0,0.5,0,0.7-0.1c0.2,0,0.4-0.1,0.6-0.2c0.2-0.1,0.4-0.2,0.6-0.4s0.4-0.4,0.5-0.6
					l6.6-8.9c0.2-0.3,0.4-0.6,0.7-0.8c0.3-0.2,0.6-0.3,0.9-0.3h3.1l-7.7,10.6c-0.6,0.8-1.3,1.4-2.3,1.7c0.6,0.2,1.2,0.4,1.6,0.8
					c0.4,0.4,0.9,0.9,1.3,1.6l7.7,11.1h-3.3c-0.4,0-0.7-0.1-1-0.3c-0.3-0.2-0.5-0.5-0.7-0.9l-6.6-9.3c-0.3-0.5-0.6-0.8-1-1
					c-0.4-0.2-0.9-0.3-1.5-0.3h-3.1v11.8h-3.7v-25.8h3.7V151.8z"/>
				<path class="st5" d="M117.1,166.4c-0.3,0-0.6-0.1-0.8-0.2c-0.2-0.1-0.3-0.3-0.4-0.6l-0.4-1.6c-0.5,0.4-0.9,0.8-1.4,1.2
					c-0.5,0.3-0.9,0.6-1.4,0.9c-0.5,0.2-1,0.4-1.6,0.5c-0.6,0.1-1.2,0.2-1.9,0.2c-0.7,0-1.4-0.1-2-0.3c-0.6-0.2-1.2-0.5-1.6-0.9
					c-0.5-0.4-0.8-0.9-1.1-1.5c-0.3-0.6-0.4-1.3-0.4-2.2c0-0.7,0.2-1.4,0.6-2.1c0.4-0.7,1-1.3,1.9-1.8c0.9-0.5,2-1,3.5-1.3
					s3.2-0.5,5.2-0.6v-1.4c0-1.4-0.3-2.4-0.9-3.1c-0.6-0.7-1.5-1.1-2.6-1.1c-0.8,0-1.4,0.1-2,0.3s-1,0.4-1.4,0.6
					c-0.4,0.2-0.7,0.4-1,0.6s-0.6,0.3-0.9,0.3c-0.2,0-0.4-0.1-0.6-0.2c-0.2-0.1-0.3-0.3-0.4-0.4l-0.6-1.1c1-1,2.1-1.7,3.3-2.2
					c1.2-0.5,2.5-0.7,3.9-0.7c1,0,2,0.2,2.8,0.5c0.8,0.3,1.5,0.8,2,1.4c0.5,0.6,1,1.3,1.2,2.2c0.3,0.9,0.4,1.8,0.4,2.8v11.7H117.1z
					 M110.2,164.3c0.5,0,1-0.1,1.5-0.2c0.5-0.1,0.9-0.3,1.3-0.5c0.4-0.2,0.8-0.5,1.1-0.7c0.4-0.3,0.7-0.6,1.1-1v-3.7
					c-1.4,0-2.7,0.2-3.7,0.3c-1,0.2-1.8,0.4-2.5,0.7c-0.6,0.3-1.1,0.6-1.4,1c-0.3,0.4-0.4,0.8-0.4,1.3c0,0.5,0.1,0.9,0.2,1.2
					c0.1,0.3,0.4,0.6,0.6,0.8c0.3,0.2,0.6,0.4,0.9,0.5S109.8,164.3,110.2,164.3z"/>
				<path class="st5" d="M134.4,149.1c0.2-0.3,0.4-0.5,0.7-0.7c0.3-0.2,0.6-0.3,0.9-0.3h2.7l-4.7,6.9c-0.3,0.5-0.6,0.8-0.9,1.1
					c-0.3,0.3-0.7,0.5-1.2,0.7c0.6,0.2,1.1,0.4,1.5,0.7s0.8,0.8,1.1,1.3l4.7,7.6h-2.4c-0.6,0-1.1-0.1-1.4-0.3s-0.6-0.5-0.9-0.9
					l-3.4-5.6c-0.3-0.5-0.6-0.8-1-1c-0.4-0.2-0.9-0.4-1.4-0.4h-1.9v8.2h-3.4v-18.3h3.4v7.8h1.7c0.5,0,0.9-0.1,1.3-0.3
					s0.7-0.5,0.9-0.9L134.4,149.1z"/>
				<path class="st5" d="M150.1,150c0.7-0.6,1.5-1.2,2.5-1.6c1-0.4,2.2-0.6,3.6-0.6c1.1,0,2.1,0.1,3,0.4c0.9,0.3,1.6,0.6,2.1,1.1
					c0.6,0.4,1,1,1.3,1.5s0.4,1.2,0.4,1.8c0,0.4-0.1,0.7-0.2,1.1c-0.1,0.4-0.3,0.8-0.6,1.1s-0.6,0.7-1,1c-0.4,0.3-0.9,0.6-1.5,0.8
					c1.1,0.3,2,0.9,2.7,1.7c0.7,0.8,1,1.7,1,2.8c0,0.9-0.2,1.6-0.6,2.3c-0.4,0.7-0.9,1.3-1.6,1.7c-0.7,0.5-1.4,0.8-2.3,1.1
					s-1.8,0.4-2.7,0.4c-0.6,0-1.2-0.1-1.8-0.2c-0.6-0.1-1.2-0.3-1.8-0.5c-0.6-0.2-1.1-0.5-1.7-0.9s-1-0.8-1.4-1.3l1-1.2
					c0.1-0.2,0.4-0.3,0.6-0.3c0.2,0,0.4,0.1,0.7,0.3c0.2,0.2,0.5,0.4,0.9,0.6c0.4,0.2,0.8,0.4,1.3,0.6s1.1,0.3,1.9,0.3
					c0.6,0,1.2-0.1,1.7-0.2s0.9-0.4,1.3-0.7c0.4-0.3,0.6-0.6,0.8-1s0.3-0.8,0.3-1.3c0-0.9-0.4-1.6-1.1-2.1c-0.7-0.5-1.8-0.8-3.3-0.8
					h-2.1v-2.3h2.1c1.3,0,2.3-0.2,3.1-0.7s1.1-1.1,1.1-1.9c0-0.3-0.1-0.7-0.2-1c-0.2-0.3-0.4-0.6-0.7-0.8c-0.3-0.2-0.7-0.4-1.2-0.6
					s-1-0.2-1.7-0.2c-0.7,0-1.3,0.1-1.8,0.2c-0.5,0.1-0.9,0.3-1.2,0.5c-0.3,0.2-0.6,0.3-0.8,0.5c-0.2,0.1-0.4,0.2-0.6,0.2
					c-0.2,0-0.3,0-0.4-0.1c-0.1-0.1-0.2-0.2-0.4-0.4L150.1,150z"/>
				<path class="st5" d="M179.1,166.4c-0.3,0-0.6-0.1-0.8-0.2c-0.2-0.1-0.3-0.3-0.4-0.6l-0.4-1.6c-0.5,0.4-0.9,0.8-1.4,1.2
					c-0.5,0.3-0.9,0.6-1.4,0.9c-0.5,0.2-1,0.4-1.6,0.5c-0.6,0.1-1.2,0.2-1.9,0.2c-0.7,0-1.4-0.1-2-0.3c-0.6-0.2-1.2-0.5-1.6-0.9
					c-0.5-0.4-0.8-0.9-1.1-1.5c-0.3-0.6-0.4-1.3-0.4-2.2c0-0.7,0.2-1.4,0.6-2.1c0.4-0.7,1-1.3,1.9-1.8c0.9-0.5,2-1,3.5-1.3
					s3.2-0.5,5.2-0.6v-1.4c0-1.4-0.3-2.4-0.9-3.1c-0.6-0.7-1.5-1.1-2.6-1.1c-0.8,0-1.4,0.1-2,0.3s-1,0.4-1.4,0.6
					c-0.4,0.2-0.7,0.4-1,0.6s-0.6,0.3-0.9,0.3c-0.2,0-0.4-0.1-0.6-0.2c-0.2-0.1-0.3-0.3-0.4-0.4l-0.6-1.1c1-1,2.1-1.7,3.3-2.2
					c1.2-0.5,2.5-0.7,3.9-0.7c1,0,2,0.2,2.8,0.5c0.8,0.3,1.5,0.8,2,1.4c0.5,0.6,1,1.3,1.2,2.2c0.3,0.9,0.4,1.8,0.4,2.8v11.7H179.1z
					 M172.3,164.3c0.5,0,1-0.1,1.5-0.2c0.5-0.1,0.9-0.3,1.3-0.5c0.4-0.2,0.8-0.5,1.1-0.7c0.4-0.3,0.7-0.6,1.1-1v-3.7
					c-1.4,0-2.7,0.2-3.7,0.3c-1,0.2-1.8,0.4-2.5,0.7c-0.6,0.3-1.1,0.6-1.4,1c-0.3,0.4-0.4,0.8-0.4,1.3c0,0.5,0.1,0.9,0.2,1.2
					c0.1,0.3,0.4,0.6,0.6,0.8c0.3,0.2,0.6,0.4,0.9,0.5S171.9,164.3,172.3,164.3z"/>
				<path class="st5" d="M185.4,172.5v-24.4h2.1c0.5,0,0.8,0.2,0.9,0.7l0.3,2.1c0.8-0.9,1.7-1.7,2.7-2.2c1-0.6,2.2-0.9,3.4-0.9
					c1,0,2,0.2,2.8,0.6c0.8,0.4,1.6,1,2.2,1.8s1.1,1.8,1.4,2.9c0.3,1.2,0.5,2.5,0.5,4c0,1.4-0.2,2.6-0.5,3.8c-0.4,1.2-0.9,2.2-1.6,3
					c-0.7,0.9-1.5,1.5-2.5,2c-1,0.5-2.1,0.7-3.3,0.7c-1.1,0-2.1-0.2-2.8-0.5c-0.8-0.4-1.5-0.9-2.1-1.5v8H185.4z M193.6,150.6
					c-1,0-1.9,0.2-2.7,0.7c-0.8,0.5-1.5,1.1-2.1,2v8.7c0.6,0.8,1.2,1.3,1.9,1.6c0.7,0.3,1.4,0.5,2.3,0.5c1.6,0,2.9-0.6,3.8-1.8
					c0.9-1.2,1.3-2.9,1.3-5.1c0-1.2-0.1-2.2-0.3-3c-0.2-0.8-0.5-1.5-0.9-2c-0.4-0.5-0.9-0.9-1.4-1.2
					C195,150.7,194.3,150.6,193.6,150.6z"/>
				<path class="st5" d="M217.3,166.4c-0.3,0-0.6-0.1-0.8-0.2c-0.2-0.1-0.3-0.3-0.4-0.6l-0.4-1.6c-0.5,0.4-0.9,0.8-1.4,1.2
					c-0.5,0.3-0.9,0.6-1.4,0.9c-0.5,0.2-1,0.4-1.6,0.5c-0.6,0.1-1.2,0.2-1.9,0.2c-0.7,0-1.4-0.1-2-0.3c-0.6-0.2-1.2-0.5-1.6-0.9
					c-0.5-0.4-0.8-0.9-1.1-1.5c-0.3-0.6-0.4-1.3-0.4-2.2c0-0.7,0.2-1.4,0.6-2.1c0.4-0.7,1-1.3,1.9-1.8c0.9-0.5,2-1,3.5-1.3
					s3.2-0.5,5.2-0.6v-1.4c0-1.4-0.3-2.4-0.9-3.1c-0.6-0.7-1.5-1.1-2.6-1.1c-0.8,0-1.4,0.1-2,0.3s-1,0.4-1.4,0.6
					c-0.4,0.2-0.7,0.4-1,0.6s-0.6,0.3-0.9,0.3c-0.2,0-0.4-0.1-0.6-0.2c-0.2-0.1-0.3-0.3-0.4-0.4l-0.6-1.1c1-1,2.1-1.7,3.3-2.2
					c1.2-0.5,2.5-0.7,3.9-0.7c1,0,2,0.2,2.8,0.5c0.8,0.3,1.5,0.8,2,1.4c0.5,0.6,1,1.3,1.2,2.2c0.3,0.9,0.4,1.8,0.4,2.8v11.7H217.3z
					 M210.5,164.3c0.5,0,1-0.1,1.5-0.2c0.5-0.1,0.9-0.3,1.3-0.5c0.4-0.2,0.8-0.5,1.1-0.7c0.4-0.3,0.7-0.6,1.1-1v-3.7
					c-1.4,0-2.7,0.2-3.7,0.3c-1,0.2-1.8,0.4-2.5,0.7c-0.6,0.3-1.1,0.6-1.4,1c-0.3,0.4-0.4,0.8-0.4,1.3c0,0.5,0.1,0.9,0.2,1.2
					c0.1,0.3,0.4,0.6,0.6,0.8c0.3,0.2,0.6,0.4,0.9,0.5S210,164.3,210.5,164.3z"/>
				<path class="st5" d="M233.1,144c-1.2,0.1-2.2,0.4-3.1,0.8c-0.9,0.4-1.6,1-2.1,1.7c-0.6,0.7-1,1.6-1.3,2.6s-0.5,2.1-0.5,3.4
					c0.3-0.6,0.7-1.1,1.1-1.5c0.5-0.5,1-0.8,1.5-1.2c0.6-0.3,1.2-0.6,1.9-0.7c0.7-0.2,1.4-0.3,2.2-0.3c1.2,0,2.3,0.2,3.3,0.6
					c1,0.4,1.8,1,2.5,1.8c0.7,0.8,1.2,1.7,1.6,2.8s0.5,2.3,0.5,3.7c0,1.4-0.2,2.6-0.6,3.7c-0.4,1.1-1,2-1.8,2.8s-1.7,1.4-2.8,1.8
					c-1.1,0.4-2.3,0.6-3.6,0.6c-1.2,0-2.4-0.2-3.5-0.6c-1.1-0.4-2-1.1-2.8-2c-0.8-0.9-1.4-2.2-1.9-3.7c-0.4-1.5-0.7-3.4-0.7-5.7
					c0-1.9,0.2-3.7,0.5-5.3c0.3-1.6,0.9-3,1.7-4.2c0.8-1.2,1.8-2.2,3-2.9c1.2-0.7,2.7-1.2,4.5-1.3l6.5-0.6l0.2,1.8
					c0,0.4,0,0.7-0.2,1c-0.2,0.3-0.4,0.4-0.8,0.4L233.1,144z M231.9,164.1c1.8,0,3.1-0.6,4-1.7s1.3-2.7,1.3-4.7c0-2-0.4-3.6-1.3-4.7
					c-0.9-1.1-2.2-1.7-3.9-1.7c-0.8,0-1.6,0.1-2.2,0.4s-1.2,0.6-1.7,1.2c-0.5,0.5-0.8,1.1-1.1,1.9c-0.2,0.7-0.4,1.6-0.4,2.6
					c0,1.1,0.1,2,0.3,2.9s0.6,1.6,1,2.1c0.4,0.6,1,1,1.6,1.3C230.3,164,231,164.1,231.9,164.1z"/>
				<path class="st5" d="M256.4,166.4c-0.3,0-0.6-0.1-0.8-0.2c-0.2-0.1-0.3-0.3-0.4-0.6l-0.4-1.6c-0.5,0.4-0.9,0.8-1.4,1.2
					c-0.5,0.3-0.9,0.6-1.4,0.9c-0.5,0.2-1,0.4-1.6,0.5c-0.6,0.1-1.2,0.2-1.9,0.2c-0.7,0-1.4-0.1-2-0.3c-0.6-0.2-1.2-0.5-1.6-0.9
					c-0.5-0.4-0.8-0.9-1.1-1.5c-0.3-0.6-0.4-1.3-0.4-2.2c0-0.7,0.2-1.4,0.6-2.1c0.4-0.7,1-1.3,1.9-1.8c0.9-0.5,2-1,3.5-1.3
					s3.2-0.5,5.2-0.6v-1.4c0-1.4-0.3-2.4-0.9-3.1c-0.6-0.7-1.5-1.1-2.6-1.1c-0.8,0-1.4,0.1-2,0.3s-1,0.4-1.4,0.6
					c-0.4,0.2-0.7,0.4-1,0.6s-0.6,0.3-0.9,0.3c-0.2,0-0.4-0.1-0.6-0.2c-0.2-0.1-0.3-0.3-0.4-0.4l-0.6-1.1c1-1,2.1-1.7,3.3-2.2
					c1.2-0.5,2.5-0.7,3.9-0.7c1,0,2,0.2,2.8,0.5c0.8,0.3,1.5,0.8,2,1.4c0.5,0.6,1,1.3,1.2,2.2c0.3,0.9,0.4,1.8,0.4,2.8v11.7H256.4z
					 M249.5,164.3c0.5,0,1-0.1,1.5-0.2c0.5-0.1,0.9-0.3,1.3-0.5c0.4-0.2,0.8-0.5,1.1-0.7c0.4-0.3,0.7-0.6,1.1-1v-3.7
					c-1.4,0-2.7,0.2-3.7,0.3c-1,0.2-1.8,0.4-2.5,0.7c-0.6,0.3-1.1,0.6-1.4,1c-0.3,0.4-0.4,0.8-0.4,1.3c0,0.5,0.1,0.9,0.2,1.2
					c0.1,0.3,0.4,0.6,0.6,0.8c0.3,0.2,0.6,0.4,0.9,0.5S249.1,164.3,249.5,164.3z"/>
				<path class="st5" d="M260.2,148.1h17.3v2.6h-6.9v15.7h-3.4v-15.7h-6.9V148.1z"/>
				<path class="st5" d="M283.7,148.1v7.1h3.8c1.3,0,2.3,0.2,3.2,0.5c0.9,0.3,1.6,0.7,2.1,1.2c0.5,0.5,0.9,1.1,1.1,1.7
					c0.2,0.7,0.3,1.3,0.3,2.1c0,0.8-0.1,1.6-0.4,2.3c-0.3,0.7-0.7,1.3-1.3,1.8c-0.6,0.5-1.3,0.9-2.1,1.2s-1.8,0.4-2.9,0.4h-7.1
					v-18.3H283.7z M283.7,157.7v6.2h3.8c0.6,0,1.1-0.1,1.6-0.2c0.5-0.2,0.8-0.4,1.2-0.7c0.3-0.3,0.5-0.6,0.7-1
					c0.1-0.4,0.2-0.8,0.2-1.3c0-0.4-0.1-0.8-0.2-1.2c-0.1-0.4-0.3-0.7-0.6-1c-0.3-0.3-0.7-0.5-1.2-0.7s-1.1-0.2-1.7-0.2H283.7z
					 M301.5,148.1v18.3h-3.4v-18.3H301.5z"/>
				<path class="st5" d="M306.5,148.1h6.8c1.1,0,2.1,0.1,2.9,0.3c0.8,0.2,1.5,0.5,2,0.9s0.9,0.8,1.2,1.4c0.2,0.5,0.4,1.1,0.4,1.7
					c0,0.4-0.1,0.8-0.2,1.2c-0.1,0.4-0.3,0.8-0.6,1.2c-0.3,0.4-0.6,0.8-1.1,1.1c-0.5,0.3-1,0.6-1.7,0.7c1.4,0.2,2.4,0.7,3.2,1.4
					c0.8,0.7,1.1,1.7,1.1,2.9c0,0.9-0.2,1.7-0.5,2.3c-0.4,0.7-0.9,1.2-1.5,1.7c-0.6,0.4-1.4,0.8-2.2,1c-0.8,0.2-1.7,0.3-2.7,0.3
					h-7.1V148.1z M309.8,156h3.4c0.5,0,1-0.1,1.4-0.2c0.4-0.1,0.8-0.3,1.1-0.6c0.3-0.3,0.6-0.6,0.7-0.9c0.2-0.4,0.3-0.8,0.3-1.2
					c0-0.3-0.1-0.6-0.2-0.9c-0.1-0.3-0.3-0.6-0.6-0.8s-0.6-0.4-1.1-0.6c-0.5-0.1-1-0.2-1.7-0.2h-3.4V156z M309.8,158.1v5.9h3.8
					c1.2,0,2.1-0.3,2.7-0.8s1-1.3,1-2.2c0-0.4-0.1-0.8-0.2-1.1c-0.1-0.3-0.3-0.6-0.6-0.9c-0.3-0.3-0.7-0.4-1.2-0.6
					c-0.5-0.1-1.1-0.2-1.8-0.2H309.8z"/>
				<path class="st5" d="M336.1,166.4c-0.3,0-0.6-0.1-0.8-0.2c-0.2-0.1-0.3-0.3-0.4-0.6l-0.4-1.6c-0.5,0.4-0.9,0.8-1.4,1.2
					c-0.5,0.3-0.9,0.6-1.4,0.9c-0.5,0.2-1,0.4-1.6,0.5c-0.6,0.1-1.2,0.2-1.9,0.2c-0.7,0-1.4-0.1-2-0.3c-0.6-0.2-1.2-0.5-1.6-0.9
					c-0.5-0.4-0.8-0.9-1.1-1.5c-0.3-0.6-0.4-1.3-0.4-2.2c0-0.7,0.2-1.4,0.6-2.1c0.4-0.7,1-1.3,1.9-1.8c0.9-0.5,2-1,3.5-1.3
					s3.2-0.5,5.2-0.6v-1.4c0-1.4-0.3-2.4-0.9-3.1c-0.6-0.7-1.5-1.1-2.6-1.1c-0.8,0-1.4,0.1-2,0.3s-1,0.4-1.4,0.6
					c-0.4,0.2-0.7,0.4-1,0.6s-0.6,0.3-0.9,0.3c-0.2,0-0.4-0.1-0.6-0.2c-0.2-0.1-0.3-0.3-0.4-0.4l-0.6-1.1c1-1,2.1-1.7,3.3-2.2
					c1.2-0.5,2.5-0.7,3.9-0.7c1,0,2,0.2,2.8,0.5c0.8,0.3,1.5,0.8,2,1.4c0.5,0.6,1,1.3,1.2,2.2c0.3,0.9,0.4,1.8,0.4,2.8v11.7H336.1z
					 M329.2,164.3c0.5,0,1-0.1,1.5-0.2c0.5-0.1,0.9-0.3,1.3-0.5c0.4-0.2,0.8-0.5,1.1-0.7c0.4-0.3,0.7-0.6,1.1-1v-3.7
					c-1.4,0-2.7,0.2-3.7,0.3c-1,0.2-1.8,0.4-2.5,0.7c-0.6,0.3-1.1,0.6-1.4,1c-0.3,0.4-0.4,0.8-0.4,1.3c0,0.5,0.1,0.9,0.2,1.2
					c0.1,0.3,0.4,0.6,0.6,0.8c0.3,0.2,0.6,0.4,0.9,0.5S328.8,164.3,329.2,164.3z"/>
				<path class="st5" d="M339.9,148.1h17.3v2.6h-6.9v15.7h-3.4v-15.7h-6.9V148.1z"/>
				<path class="st5" d="M363.4,148.1v7.1h3.8c1.3,0,2.3,0.2,3.2,0.5c0.9,0.3,1.6,0.7,2.1,1.2c0.5,0.5,0.9,1.1,1.1,1.7
					c0.2,0.7,0.3,1.3,0.3,2.1c0,0.8-0.1,1.6-0.4,2.3c-0.3,0.7-0.7,1.3-1.3,1.8c-0.6,0.5-1.3,0.9-2.1,1.2s-1.8,0.4-2.9,0.4h-7.1
					v-18.3H363.4z M363.4,157.7v6.2h3.8c0.6,0,1.1-0.1,1.6-0.2c0.5-0.2,0.8-0.4,1.2-0.7c0.3-0.3,0.5-0.6,0.7-1
					c0.1-0.4,0.2-0.8,0.2-1.3c0-0.4-0.1-0.8-0.2-1.2c-0.1-0.4-0.3-0.7-0.6-1c-0.3-0.3-0.7-0.5-1.2-0.7s-1.1-0.2-1.7-0.2H363.4z"/>
				<path class="st5" d="M376.8,164.1c0-0.6,0.2-1.1,0.6-1.5c0.4-0.4,0.9-0.6,1.6-0.6c0.4,0,0.7,0.1,1,0.2c0.3,0.1,0.5,0.3,0.7,0.6
					c0.2,0.2,0.3,0.5,0.4,0.8c0.1,0.3,0.1,0.7,0.1,1c0,0.5-0.1,1.1-0.2,1.7c-0.2,0.6-0.4,1.2-0.7,1.8c-0.3,0.6-0.7,1.1-1.1,1.7
					c-0.4,0.6-0.9,1.1-1.5,1.5l-0.6-0.5c-0.1-0.1-0.2-0.2-0.2-0.3c0-0.1-0.1-0.2-0.1-0.3c0-0.2,0.1-0.3,0.3-0.5
					c0.1-0.1,0.3-0.3,0.5-0.5s0.4-0.5,0.6-0.8c0.2-0.3,0.4-0.6,0.5-0.9c0.2-0.3,0.3-0.7,0.3-1.1H379c-0.3,0-0.6-0.1-0.9-0.2
					s-0.5-0.3-0.7-0.5c-0.2-0.2-0.3-0.5-0.4-0.7C376.9,164.7,376.8,164.4,376.8,164.1z"/>
			</g>
			<g class="st44">
				<path class="st5" d="M81.4,215.7v-24.4h2.1c0.5,0,0.8,0.2,0.9,0.7l0.3,2.1c0.8-0.9,1.7-1.7,2.7-2.2c1-0.6,2.2-0.9,3.4-0.9
					c1,0,2,0.2,2.8,0.6c0.8,0.4,1.6,1,2.2,1.8s1.1,1.8,1.4,2.9c0.3,1.2,0.5,2.5,0.5,4c0,1.4-0.2,2.6-0.5,3.8c-0.4,1.2-0.9,2.2-1.6,3
					c-0.7,0.9-1.5,1.5-2.5,2c-1,0.5-2.1,0.7-3.3,0.7c-1.1,0-2.1-0.2-2.8-0.5c-0.8-0.4-1.5-0.9-2.1-1.5v8H81.4z M89.6,193.8
					c-1,0-1.9,0.2-2.7,0.7c-0.8,0.5-1.5,1.1-2.1,2v8.7c0.6,0.8,1.2,1.3,1.9,1.6c0.7,0.3,1.4,0.5,2.3,0.5c1.6,0,2.9-0.6,3.8-1.8
					c0.9-1.2,1.3-2.9,1.3-5.1c0-1.2-0.1-2.2-0.3-3c-0.2-0.8-0.5-1.5-0.9-2c-0.4-0.5-0.9-0.9-1.4-1.2C91,193.9,90.3,193.8,89.6,193.8
					z"/>
				<path class="st5" d="M113.3,209.6c-0.3,0-0.6-0.1-0.8-0.2c-0.2-0.1-0.3-0.3-0.4-0.6l-0.4-1.6c-0.5,0.4-0.9,0.8-1.4,1.2
					c-0.5,0.3-0.9,0.6-1.4,0.9c-0.5,0.2-1,0.4-1.6,0.5c-0.6,0.1-1.2,0.2-1.9,0.2c-0.7,0-1.4-0.1-2-0.3c-0.6-0.2-1.2-0.5-1.6-0.9
					c-0.5-0.4-0.8-0.9-1.1-1.5c-0.3-0.6-0.4-1.3-0.4-2.2c0-0.7,0.2-1.4,0.6-2.1c0.4-0.7,1-1.3,1.9-1.8c0.9-0.5,2-1,3.5-1.3
					s3.2-0.5,5.2-0.6v-1.4c0-1.4-0.3-2.4-0.9-3.1c-0.6-0.7-1.5-1.1-2.6-1.1c-0.8,0-1.4,0.1-2,0.3s-1,0.4-1.4,0.6
					c-0.4,0.2-0.7,0.4-1,0.6s-0.6,0.3-0.9,0.3c-0.2,0-0.4-0.1-0.6-0.2c-0.2-0.1-0.3-0.3-0.4-0.4l-0.6-1.1c1-1,2.1-1.7,3.3-2.2
					c1.2-0.5,2.5-0.7,3.9-0.7c1,0,2,0.2,2.8,0.5c0.8,0.3,1.5,0.8,2,1.4c0.5,0.6,1,1.3,1.2,2.2c0.3,0.9,0.4,1.8,0.4,2.8v11.7H113.3z
					 M106.4,207.5c0.5,0,1-0.1,1.5-0.2c0.5-0.1,0.9-0.3,1.3-0.5c0.4-0.2,0.8-0.5,1.1-0.7c0.4-0.3,0.7-0.6,1.1-1v-3.7
					c-1.4,0-2.7,0.2-3.7,0.3c-1,0.2-1.8,0.4-2.5,0.7c-0.6,0.3-1.1,0.6-1.4,1c-0.3,0.4-0.4,0.8-0.4,1.3c0,0.5,0.1,0.9,0.2,1.2
					c0.1,0.3,0.4,0.6,0.6,0.8c0.3,0.2,0.6,0.4,0.9,0.5S106,207.5,106.4,207.5z"/>
				<path class="st5" d="M118.4,193.2c0.7-0.6,1.5-1.2,2.5-1.6c1-0.4,2.2-0.6,3.6-0.6c1.1,0,2.1,0.1,3,0.4c0.9,0.3,1.6,0.6,2.1,1.1
					c0.6,0.4,1,1,1.3,1.5s0.4,1.2,0.4,1.8c0,0.4-0.1,0.7-0.2,1.1c-0.1,0.4-0.3,0.8-0.6,1.1s-0.6,0.7-1,1c-0.4,0.3-0.9,0.6-1.5,0.8
					c1.1,0.3,2,0.9,2.7,1.7c0.7,0.8,1,1.7,1,2.8c0,0.9-0.2,1.6-0.6,2.3c-0.4,0.7-0.9,1.3-1.6,1.7c-0.7,0.5-1.4,0.8-2.3,1.1
					s-1.8,0.4-2.7,0.4c-0.6,0-1.2-0.1-1.8-0.2c-0.6-0.1-1.2-0.3-1.8-0.5c-0.6-0.2-1.1-0.5-1.7-0.9s-1-0.8-1.4-1.3l1-1.2
					c0.1-0.2,0.4-0.3,0.6-0.3c0.2,0,0.4,0.1,0.7,0.3c0.2,0.2,0.5,0.4,0.9,0.6c0.4,0.2,0.8,0.4,1.3,0.6s1.1,0.3,1.9,0.3
					c0.6,0,1.2-0.1,1.7-0.2s0.9-0.4,1.3-0.7c0.4-0.3,0.6-0.6,0.8-1s0.3-0.8,0.3-1.3c0-0.9-0.4-1.6-1.1-2.1c-0.7-0.5-1.8-0.8-3.3-0.8
					H122v-2.3h2.1c1.3,0,2.3-0.2,3.1-0.7s1.1-1.1,1.1-1.9c0-0.3-0.1-0.7-0.2-1c-0.2-0.3-0.4-0.6-0.7-0.8c-0.3-0.2-0.7-0.4-1.2-0.6
					s-1-0.2-1.7-0.2c-0.7,0-1.3,0.1-1.8,0.2c-0.5,0.1-0.9,0.3-1.2,0.5c-0.3,0.2-0.6,0.3-0.8,0.5c-0.2,0.1-0.4,0.2-0.6,0.2
					c-0.2,0-0.3,0-0.4-0.1c-0.1-0.1-0.2-0.2-0.4-0.4L118.4,193.2z"/>
				<path class="st5" d="M145.7,202.1c0.1,0.3,0.3,0.6,0.4,0.9c0.1-0.3,0.2-0.6,0.4-0.9c0.1-0.3,0.3-0.6,0.4-0.9l5.4-9.2
					c0.2-0.3,0.4-0.5,0.6-0.6s0.5-0.2,0.7-0.2h2.8v18.3h-3.1v-11.8c0-0.3,0-0.7,0.1-1.2c0-0.4,0.1-0.8,0.2-1.2l-6.2,10.9
					c-0.1,0.2-0.2,0.3-0.4,0.5c-0.2,0.1-0.4,0.2-0.6,0.2h-0.4c-0.2,0-0.4-0.1-0.6-0.2c-0.2-0.1-0.3-0.3-0.4-0.5l-6.3-10.9
					c0.1,0.4,0.1,0.8,0.2,1.2c0,0.4,0.1,0.8,0.1,1.2v11.8h-3.1v-18.3h2.8c0.2,0,0.5,0.1,0.7,0.2c0.2,0.1,0.4,0.3,0.6,0.6l5.5,9.2
					C145.4,201.5,145.6,201.8,145.7,202.1z"/>
				<path class="st5" d="M168.8,191c1.1,0,2.1,0.2,3.1,0.5s1.7,0.9,2.4,1.6c0.7,0.7,1.2,1.6,1.6,2.6c0.4,1,0.6,2.2,0.6,3.5
					c0,0.5-0.1,0.9-0.2,1.1c-0.1,0.2-0.3,0.3-0.6,0.3h-12.1c0,1.1,0.2,2.1,0.5,2.9c0.3,0.8,0.7,1.5,1.2,2.1c0.5,0.5,1.1,1,1.8,1.2
					c0.7,0.3,1.4,0.4,2.3,0.4c0.8,0,1.5-0.1,2-0.3c0.6-0.2,1.1-0.4,1.5-0.6c0.4-0.2,0.8-0.4,1.1-0.6c0.3-0.2,0.5-0.3,0.8-0.3
					c0.3,0,0.5,0.1,0.6,0.3l1,1.2c-0.4,0.5-0.9,0.9-1.5,1.3c-0.6,0.4-1.1,0.6-1.8,0.9c-0.6,0.2-1.3,0.4-2,0.5
					c-0.7,0.1-1.3,0.2-2,0.2c-1.3,0-2.4-0.2-3.5-0.6c-1.1-0.4-2-1-2.8-1.9c-0.8-0.8-1.4-1.8-1.8-3.1c-0.4-1.2-0.7-2.6-0.7-4.2
					c0-1.3,0.2-2.5,0.6-3.6c0.4-1.1,1-2.1,1.7-2.9c0.7-0.8,1.6-1.4,2.7-1.9C166.2,191.3,167.4,191,168.8,191z M168.8,193.5
					c-1.5,0-2.7,0.4-3.5,1.3s-1.4,2.1-1.6,3.6h9.7c0-0.7-0.1-1.4-0.3-2c-0.2-0.6-0.5-1.1-0.9-1.5c-0.4-0.4-0.9-0.8-1.4-1
					S169.5,193.5,168.8,193.5z"/>
				<path class="st5" d="M180.3,191.3h3.4V207h7.2v-15.7h3.4V207h7.2v-15.7h3.4V207h3.3v7.8c0,0.3-0.1,0.6-0.3,0.8
					c-0.2,0.2-0.4,0.3-0.7,0.3h-2.1v-6.3h-24.9V191.3z"/>
				<path class="st5" d="M223.2,209.6c-0.3,0-0.6-0.1-0.8-0.2c-0.2-0.1-0.3-0.3-0.4-0.6l-0.4-1.6c-0.5,0.4-0.9,0.8-1.4,1.2
					c-0.5,0.3-0.9,0.6-1.4,0.9c-0.5,0.2-1,0.4-1.6,0.5c-0.6,0.1-1.2,0.2-1.9,0.2c-0.7,0-1.4-0.1-2-0.3c-0.6-0.2-1.2-0.5-1.6-0.9
					c-0.5-0.4-0.8-0.9-1.1-1.5c-0.3-0.6-0.4-1.3-0.4-2.2c0-0.7,0.2-1.4,0.6-2.1c0.4-0.7,1-1.3,1.9-1.8c0.9-0.5,2-1,3.5-1.3
					s3.2-0.5,5.2-0.6v-1.4c0-1.4-0.3-2.4-0.9-3.1c-0.6-0.7-1.5-1.1-2.6-1.1c-0.8,0-1.4,0.1-2,0.3s-1,0.4-1.4,0.6
					c-0.4,0.2-0.7,0.4-1,0.6s-0.6,0.3-0.9,0.3c-0.2,0-0.4-0.1-0.6-0.2c-0.2-0.1-0.3-0.3-0.4-0.4l-0.6-1.1c1-1,2.1-1.7,3.3-2.2
					c1.2-0.5,2.5-0.7,3.9-0.7c1,0,2,0.2,2.8,0.5c0.8,0.3,1.5,0.8,2,1.4c0.5,0.6,1,1.3,1.2,2.2c0.3,0.9,0.4,1.8,0.4,2.8v11.7H223.2z
					 M216.3,207.5c0.5,0,1-0.1,1.5-0.2c0.5-0.1,0.9-0.3,1.3-0.5c0.4-0.2,0.8-0.5,1.1-0.7c0.4-0.3,0.7-0.6,1.1-1v-3.7
					c-1.4,0-2.7,0.2-3.7,0.3c-1,0.2-1.8,0.4-2.5,0.7c-0.6,0.3-1.1,0.6-1.4,1c-0.3,0.4-0.4,0.8-0.4,1.3c0,0.5,0.1,0.9,0.2,1.2
					c0.1,0.3,0.4,0.6,0.6,0.8c0.3,0.2,0.6,0.4,0.9,0.5S215.9,207.5,216.3,207.5z"/>
				<path class="st5" d="M242.3,209.6H239V202h-1.3c-0.3,0-0.6,0-0.8,0.1c-0.2,0.1-0.4,0.1-0.6,0.2c-0.2,0.1-0.3,0.2-0.4,0.4
					c-0.1,0.2-0.2,0.3-0.4,0.5l-3.8,5.2c-0.2,0.4-0.5,0.7-0.8,0.9s-0.8,0.3-1.4,0.3h-2.4l5.2-6.8c0.4-0.7,1-1.2,1.7-1.5
					c-0.9-0.1-1.7-0.3-2.3-0.6s-1.1-0.7-1.5-1.1s-0.7-0.9-0.9-1.4c-0.2-0.5-0.3-1-0.3-1.6c0-0.6,0.1-1.3,0.4-1.9
					c0.3-0.6,0.7-1.2,1.2-1.7c0.5-0.5,1.3-0.9,2.1-1.2c0.9-0.3,1.9-0.5,3.2-0.5h6.3V209.6z M232.6,196.7c0,1,0.4,1.7,1.1,2.2
					c0.7,0.5,1.7,0.8,2.9,0.8h2.6v-6.2h-3c-0.7,0-1.2,0.1-1.7,0.3c-0.4,0.2-0.8,0.4-1.1,0.7s-0.5,0.6-0.6,1S232.6,196.4,232.6,196.7
					z"/>
				<path class="st5" d="M256.4,215.7v-24.4h2.1c0.5,0,0.8,0.2,0.9,0.7l0.3,2.1c0.8-0.9,1.7-1.7,2.7-2.2c1-0.6,2.2-0.9,3.4-0.9
					c1,0,2,0.2,2.8,0.6c0.8,0.4,1.6,1,2.2,1.8s1.1,1.8,1.4,2.9c0.3,1.2,0.5,2.5,0.5,4c0,1.4-0.2,2.6-0.5,3.8c-0.4,1.2-0.9,2.2-1.6,3
					c-0.7,0.9-1.5,1.5-2.5,2c-1,0.5-2.1,0.7-3.3,0.7c-1.1,0-2.1-0.2-2.8-0.5c-0.8-0.4-1.5-0.9-2.1-1.5v8H256.4z M264.6,193.8
					c-1,0-1.9,0.2-2.7,0.7c-0.8,0.5-1.5,1.1-2.1,2v8.7c0.6,0.8,1.2,1.3,1.9,1.6c0.7,0.3,1.4,0.5,2.3,0.5c1.6,0,2.9-0.6,3.8-1.8
					c0.9-1.2,1.3-2.9,1.3-5.1c0-1.2-0.1-2.2-0.3-3c-0.2-0.8-0.5-1.5-0.9-2c-0.4-0.5-0.9-0.9-1.4-1.2
					C266,193.9,265.3,193.8,264.6,193.8z"/>
				<path class="st5" d="M284.2,191c1.1,0,2.1,0.2,3.1,0.5s1.7,0.9,2.4,1.6c0.7,0.7,1.2,1.6,1.6,2.6c0.4,1,0.6,2.2,0.6,3.5
					c0,0.5-0.1,0.9-0.2,1.1c-0.1,0.2-0.3,0.3-0.6,0.3H279c0,1.1,0.2,2.1,0.5,2.9c0.3,0.8,0.7,1.5,1.2,2.1c0.5,0.5,1.1,1,1.8,1.2
					c0.7,0.3,1.4,0.4,2.3,0.4c0.8,0,1.5-0.1,2-0.3c0.6-0.2,1.1-0.4,1.5-0.6c0.4-0.2,0.8-0.4,1.1-0.6c0.3-0.2,0.5-0.3,0.8-0.3
					c0.3,0,0.5,0.1,0.6,0.3l1,1.2c-0.4,0.5-0.9,0.9-1.5,1.3c-0.6,0.4-1.1,0.6-1.8,0.9c-0.6,0.2-1.3,0.4-2,0.5
					c-0.7,0.1-1.3,0.2-2,0.2c-1.3,0-2.4-0.2-3.5-0.6c-1.1-0.4-2-1-2.8-1.9c-0.8-0.8-1.4-1.8-1.8-3.1c-0.4-1.2-0.7-2.6-0.7-4.2
					c0-1.3,0.2-2.5,0.6-3.6c0.4-1.1,1-2.1,1.7-2.9c0.7-0.8,1.6-1.4,2.7-1.9C281.6,191.3,282.8,191,284.2,191z M284.2,193.5
					c-1.5,0-2.7,0.4-3.5,1.3s-1.4,2.1-1.6,3.6h9.7c0-0.7-0.1-1.4-0.3-2c-0.2-0.6-0.5-1.1-0.9-1.5c-0.4-0.4-0.9-0.8-1.4-1
					S284.9,193.5,284.2,193.5z"/>
				<path class="st5" d="M306.7,192.3c0.2-0.3,0.4-0.5,0.7-0.7c0.3-0.2,0.6-0.3,0.9-0.3h2.7l-4.7,6.9c-0.3,0.5-0.6,0.8-0.9,1.1
					c-0.3,0.3-0.7,0.5-1.2,0.7c0.6,0.2,1.1,0.4,1.5,0.7s0.8,0.8,1.1,1.3l4.7,7.6h-2.4c-0.6,0-1.1-0.1-1.4-0.3s-0.6-0.5-0.9-0.9
					l-3.4-5.6c-0.3-0.5-0.6-0.8-1-1c-0.4-0.2-0.9-0.4-1.4-0.4h-1.9v8.2h-3.4v-18.3h3.4v7.8h1.7c0.5,0,0.9-0.1,1.3-0.3
					s0.7-0.5,0.9-0.9L306.7,192.3z"/>
				<path class="st5" d="M330.6,191.3v18.3h-3.4V194h-5.6c-0.1,2.3-0.4,4.3-0.6,6c-0.3,1.7-0.6,3.1-1,4.3c-0.4,1.2-0.9,2.1-1.4,2.9
					c-0.5,0.7-1,1.3-1.6,1.7c-0.6,0.4-1.1,0.7-1.7,0.8c-0.6,0.1-1.2,0.2-1.8,0.2c-1.1,0-1.6-0.2-1.6-0.5v-2.2h1
					c0.4,0,0.8-0.1,1.2-0.2s0.8-0.4,1.2-0.8s0.8-1,1.1-1.7c0.4-0.7,0.7-1.7,1-2.8c0.3-1.2,0.6-2.6,0.8-4.3c0.2-1.7,0.4-3.7,0.5-6
					H330.6z"/>
				<path class="st5" d="M347.3,209.6c-0.3,0-0.6-0.1-0.8-0.2c-0.2-0.1-0.3-0.3-0.4-0.6l-0.4-1.6c-0.5,0.4-0.9,0.8-1.4,1.2
					c-0.5,0.3-0.9,0.6-1.4,0.9c-0.5,0.2-1,0.4-1.6,0.5c-0.6,0.1-1.2,0.2-1.9,0.2c-0.7,0-1.4-0.1-2-0.3c-0.6-0.2-1.2-0.5-1.6-0.9
					c-0.5-0.4-0.8-0.9-1.1-1.5c-0.3-0.6-0.4-1.3-0.4-2.2c0-0.7,0.2-1.4,0.6-2.1c0.4-0.7,1-1.3,1.9-1.8c0.9-0.5,2-1,3.5-1.3
					s3.2-0.5,5.2-0.6v-1.4c0-1.4-0.3-2.4-0.9-3.1c-0.6-0.7-1.5-1.1-2.6-1.1c-0.8,0-1.4,0.1-2,0.3s-1,0.4-1.4,0.6
					c-0.4,0.2-0.7,0.4-1,0.6s-0.6,0.3-0.9,0.3c-0.2,0-0.4-0.1-0.6-0.2c-0.2-0.1-0.3-0.3-0.4-0.4l-0.6-1.1c1-1,2.1-1.7,3.3-2.2
					c1.2-0.5,2.5-0.7,3.9-0.7c1,0,2,0.2,2.8,0.5c0.8,0.3,1.5,0.8,2,1.4c0.5,0.6,1,1.3,1.2,2.2c0.3,0.9,0.4,1.8,0.4,2.8v11.7H347.3z
					 M340.4,207.5c0.5,0,1-0.1,1.5-0.2c0.5-0.1,0.9-0.3,1.3-0.5c0.4-0.2,0.8-0.5,1.1-0.7c0.4-0.3,0.7-0.6,1.1-1v-3.7
					c-1.4,0-2.7,0.2-3.7,0.3c-1,0.2-1.8,0.4-2.5,0.7c-0.6,0.3-1.1,0.6-1.4,1c-0.3,0.4-0.4,0.8-0.4,1.3c0,0.5,0.1,0.9,0.2,1.2
					c0.1,0.3,0.4,0.6,0.6,0.8c0.3,0.2,0.6,0.4,0.9,0.5S340,207.5,340.4,207.5z"/>
				<path class="st5" d="M363.5,202.1c0.1,0.3,0.3,0.6,0.4,0.9c0.1-0.3,0.2-0.6,0.4-0.9c0.1-0.3,0.3-0.6,0.4-0.9l5.4-9.2
					c0.2-0.3,0.4-0.5,0.6-0.6s0.5-0.2,0.7-0.2h2.8v18.3H371v-11.8c0-0.3,0-0.7,0.1-1.2c0-0.4,0.1-0.8,0.2-1.2l-6.2,10.9
					c-0.1,0.2-0.2,0.3-0.4,0.5c-0.2,0.1-0.4,0.2-0.6,0.2h-0.4c-0.2,0-0.4-0.1-0.6-0.2c-0.2-0.1-0.3-0.3-0.4-0.5l-6.3-10.9
					c0.1,0.4,0.1,0.8,0.2,1.2c0,0.4,0.1,0.8,0.1,1.2v11.8h-3.1v-18.3h2.8c0.2,0,0.5,0.1,0.7,0.2c0.2,0.1,0.4,0.3,0.6,0.6l5.5,9.2
					C363.2,201.5,363.4,201.8,363.5,202.1z"/>
				<path class="st5" d="M384.8,214.9c-0.1,0.3-0.2,0.5-0.4,0.6s-0.4,0.2-0.8,0.2H381l3.3-7.3l-7.5-17.2h3c0.3,0,0.5,0.1,0.7,0.2
					c0.2,0.1,0.3,0.3,0.3,0.5l4.7,11.2c0.2,0.6,0.4,1.1,0.5,1.6c0.1-0.3,0.2-0.6,0.3-0.8c0.1-0.3,0.2-0.6,0.3-0.8l4.6-11.1
					c0.1-0.2,0.2-0.4,0.4-0.5c0.2-0.1,0.4-0.2,0.6-0.2h2.7L384.8,214.9z"/>
				<path class="st5" d="M422.1,191.3v18.3h-3.4v-8.5h-8.5v8.5h-3.4v-18.3h3.4v7.2h8.5v-7.2H422.1z"/>
				<path class="st5" d="M438.8,209.6c-0.3,0-0.6-0.1-0.8-0.2c-0.2-0.1-0.3-0.3-0.4-0.6l-0.4-1.6c-0.5,0.4-0.9,0.8-1.4,1.2
					c-0.5,0.3-0.9,0.6-1.4,0.9c-0.5,0.2-1,0.4-1.6,0.5c-0.6,0.1-1.2,0.2-1.9,0.2c-0.7,0-1.4-0.1-2-0.3c-0.6-0.2-1.2-0.5-1.6-0.9
					c-0.5-0.4-0.8-0.9-1.1-1.5c-0.3-0.6-0.4-1.3-0.4-2.2c0-0.7,0.2-1.4,0.6-2.1c0.4-0.7,1-1.3,1.9-1.8c0.9-0.5,2-1,3.5-1.3
					s3.2-0.5,5.2-0.6v-1.4c0-1.4-0.3-2.4-0.9-3.1c-0.6-0.7-1.5-1.1-2.6-1.1c-0.8,0-1.4,0.1-2,0.3s-1,0.4-1.4,0.6
					c-0.4,0.2-0.7,0.4-1,0.6s-0.6,0.3-0.9,0.3c-0.2,0-0.4-0.1-0.6-0.2c-0.2-0.1-0.3-0.3-0.4-0.4l-0.6-1.1c1-1,2.1-1.7,3.3-2.2
					c1.2-0.5,2.5-0.7,3.9-0.7c1,0,2,0.2,2.8,0.5c0.8,0.3,1.5,0.8,2,1.4c0.5,0.6,1,1.3,1.2,2.2c0.3,0.9,0.4,1.8,0.4,2.8v11.7H438.8z
					 M431.9,207.5c0.5,0,1-0.1,1.5-0.2c0.5-0.1,0.9-0.3,1.3-0.5c0.4-0.2,0.8-0.5,1.1-0.7c0.4-0.3,0.7-0.6,1.1-1v-3.7
					c-1.4,0-2.7,0.2-3.7,0.3c-1,0.2-1.8,0.4-2.5,0.7c-0.6,0.3-1.1,0.6-1.4,1c-0.3,0.4-0.4,0.8-0.4,1.3c0,0.5,0.1,0.9,0.2,1.2
					c0.1,0.3,0.4,0.6,0.6,0.8c0.3,0.2,0.6,0.4,0.9,0.5S431.5,207.5,431.9,207.5z"/>
			</g>
			<g class="st44">
				<path class="st5" d="M94.2,237.9c-0.1,0.1-0.2,0.2-0.3,0.3c-0.1,0.1-0.2,0.1-0.4,0.1c-0.2,0-0.4-0.1-0.6-0.2
					c-0.2-0.2-0.5-0.3-0.8-0.5c-0.3-0.2-0.7-0.3-1.2-0.5c-0.5-0.2-1-0.2-1.7-0.2c-0.9,0-1.6,0.2-2.3,0.5c-0.7,0.3-1.2,0.8-1.7,1.4
					c-0.5,0.6-0.8,1.3-1,2.1s-0.3,1.8-0.3,2.8c0,1.1,0.1,2,0.4,2.9s0.6,1.5,1,2.1c0.5,0.6,1,1,1.6,1.3c0.6,0.3,1.4,0.5,2.2,0.5
					c0.8,0,1.4-0.1,1.9-0.3c0.5-0.2,0.9-0.4,1.2-0.6c0.3-0.2,0.6-0.4,0.8-0.6c0.2-0.2,0.4-0.3,0.7-0.3c0.3,0,0.5,0.1,0.6,0.3l1,1.2
					c-0.4,0.5-0.9,0.9-1.4,1.3c-0.5,0.4-1.1,0.7-1.7,0.9c-0.6,0.2-1.2,0.4-1.8,0.5c-0.6,0.1-1.3,0.2-1.9,0.2c-1.1,0-2.2-0.2-3.2-0.6
					s-1.8-1-2.6-1.8s-1.3-1.8-1.7-3s-0.6-2.5-0.6-4c0-1.4,0.2-2.6,0.6-3.8c0.4-1.1,0.9-2.1,1.7-3s1.6-1.5,2.7-2
					c1.1-0.5,2.3-0.7,3.7-0.7c1.3,0,2.5,0.2,3.4,0.6c1,0.4,1.9,1,2.6,1.8L94.2,237.9z"/>
				<path class="st5" d="M98.6,234.5h6.8c1.1,0,2.1,0.1,2.9,0.3c0.8,0.2,1.5,0.5,2,0.9s0.9,0.8,1.2,1.4c0.2,0.5,0.4,1.1,0.4,1.7
					c0,0.4-0.1,0.8-0.2,1.2c-0.1,0.4-0.3,0.8-0.6,1.2c-0.3,0.4-0.6,0.8-1.1,1.1c-0.5,0.3-1,0.6-1.7,0.7c1.4,0.2,2.4,0.7,3.2,1.4
					c0.8,0.7,1.1,1.7,1.1,2.9c0,0.9-0.2,1.7-0.5,2.3c-0.4,0.7-0.9,1.2-1.5,1.7c-0.6,0.4-1.4,0.8-2.2,1c-0.8,0.2-1.7,0.3-2.7,0.3
					h-7.1V234.5z M101.9,242.4h3.4c0.5,0,1-0.1,1.4-0.2c0.4-0.1,0.8-0.3,1.1-0.6c0.3-0.3,0.6-0.6,0.7-0.9c0.2-0.4,0.3-0.8,0.3-1.2
					c0-0.3-0.1-0.6-0.2-0.9c-0.1-0.3-0.3-0.6-0.6-0.8s-0.6-0.4-1.1-0.6c-0.5-0.1-1-0.2-1.7-0.2h-3.4V242.4z M101.9,244.5v5.9h3.8
					c1.2,0,2.1-0.3,2.7-0.8s1-1.3,1-2.2c0-0.4-0.1-0.8-0.2-1.1c-0.1-0.3-0.3-0.6-0.6-0.9c-0.3-0.3-0.7-0.4-1.2-0.6
					c-0.5-0.1-1.1-0.2-1.8-0.2H101.9z"/>
				<path class="st5" d="M124.3,234.2c1.3,0,2.6,0.2,3.6,0.7c1.1,0.4,2,1.1,2.8,1.9c0.8,0.8,1.3,1.8,1.7,3c0.4,1.2,0.6,2.5,0.6,3.9
					c0,1.4-0.2,2.7-0.6,3.9c-0.4,1.2-1,2.2-1.7,3c-0.8,0.8-1.7,1.4-2.8,1.9c-1.1,0.4-2.3,0.7-3.6,0.7c-1.3,0-2.6-0.2-3.6-0.7
					c-1.1-0.4-2-1.1-2.8-1.9c-0.8-0.8-1.3-1.8-1.8-3c-0.4-1.2-0.6-2.5-0.6-3.9c0-1.4,0.2-2.7,0.6-3.9c0.4-1.2,1-2.1,1.8-3
					c0.8-0.8,1.7-1.4,2.8-1.9C121.7,234.5,122.9,234.2,124.3,234.2z M124.3,250.4c1.8,0,3.1-0.6,3.9-1.8c0.9-1.2,1.3-2.8,1.3-5
					c0-2.1-0.4-3.8-1.3-5c-0.9-1.2-2.2-1.8-3.9-1.8c-1.8,0-3.1,0.6-4,1.8c-0.9,1.2-1.3,2.8-1.3,5c0,2.1,0.4,3.8,1.3,5
					S122.5,250.4,124.3,250.4z"/>
				<path class="st5" d="M144.5,234.2c1.1,0,2.1,0.2,3.1,0.5s1.7,0.9,2.4,1.6c0.7,0.7,1.2,1.6,1.6,2.6c0.4,1,0.6,2.2,0.6,3.5
					c0,0.5-0.1,0.9-0.2,1.1c-0.1,0.2-0.3,0.3-0.6,0.3h-12.1c0,1.1,0.2,2.1,0.5,2.9c0.3,0.8,0.7,1.5,1.2,2.1c0.5,0.5,1.1,1,1.8,1.2
					c0.7,0.3,1.4,0.4,2.3,0.4c0.8,0,1.5-0.1,2-0.3c0.6-0.2,1.1-0.4,1.5-0.6c0.4-0.2,0.8-0.4,1.1-0.6c0.3-0.2,0.5-0.3,0.8-0.3
					c0.3,0,0.5,0.1,0.6,0.3l1,1.2c-0.4,0.5-0.9,0.9-1.5,1.3c-0.6,0.4-1.1,0.6-1.8,0.9c-0.6,0.2-1.3,0.4-2,0.5
					c-0.7,0.1-1.3,0.2-2,0.2c-1.3,0-2.4-0.2-3.5-0.6c-1.1-0.4-2-1-2.8-1.9c-0.8-0.8-1.4-1.8-1.8-3.1c-0.4-1.2-0.7-2.6-0.7-4.2
					c0-1.3,0.2-2.5,0.6-3.6c0.4-1.1,1-2.1,1.7-2.9c0.7-0.8,1.6-1.4,2.7-1.9C142,234.5,143.2,234.2,144.5,234.2z M144.6,236.7
					c-1.5,0-2.7,0.4-3.5,1.3s-1.4,2.1-1.6,3.6h9.7c0-0.7-0.1-1.4-0.3-2c-0.2-0.6-0.5-1.1-0.9-1.5c-0.4-0.4-0.9-0.8-1.4-1
					S145.3,236.7,144.6,236.7z"/>
				<path class="st5" d="M166,245.3c0.1,0.3,0.3,0.6,0.4,0.9c0.1-0.3,0.2-0.6,0.4-0.9c0.1-0.3,0.3-0.6,0.4-0.9l5.4-9.2
					c0.2-0.3,0.4-0.5,0.6-0.6s0.5-0.2,0.7-0.2h2.8v18.3h-3.1V241c0-0.3,0-0.7,0.1-1.2c0-0.4,0.1-0.8,0.2-1.2l-6.2,10.9
					c-0.1,0.2-0.2,0.3-0.4,0.5c-0.2,0.1-0.4,0.2-0.6,0.2h-0.4c-0.2,0-0.4-0.1-0.6-0.2c-0.2-0.1-0.3-0.3-0.4-0.5l-6.3-10.9
					c0.1,0.4,0.1,0.8,0.2,1.2c0,0.4,0.1,0.8,0.1,1.2v11.8H156v-18.3h2.8c0.2,0,0.5,0.1,0.7,0.2c0.2,0.1,0.4,0.3,0.6,0.6l5.5,9.2
					C165.7,244.7,165.8,245,166,245.3z"/>
				<path class="st5" d="M203.4,237.9c-0.1,0.1-0.2,0.2-0.3,0.3c-0.1,0.1-0.2,0.1-0.4,0.1c-0.2,0-0.4-0.1-0.6-0.2
					c-0.2-0.2-0.5-0.3-0.8-0.5c-0.3-0.2-0.7-0.3-1.2-0.5c-0.5-0.2-1-0.2-1.7-0.2c-0.9,0-1.6,0.2-2.3,0.5c-0.7,0.3-1.2,0.8-1.7,1.4
					c-0.5,0.6-0.8,1.3-1,2.1s-0.3,1.8-0.3,2.8c0,1.1,0.1,2,0.4,2.9s0.6,1.5,1,2.1c0.5,0.6,1,1,1.6,1.3c0.6,0.3,1.4,0.5,2.2,0.5
					c0.8,0,1.4-0.1,1.9-0.3c0.5-0.2,0.9-0.4,1.2-0.6c0.3-0.2,0.6-0.4,0.8-0.6c0.2-0.2,0.4-0.3,0.7-0.3c0.3,0,0.5,0.1,0.6,0.3l1,1.2
					c-0.4,0.5-0.9,0.9-1.4,1.3c-0.5,0.4-1.1,0.7-1.7,0.9c-0.6,0.2-1.2,0.4-1.8,0.5c-0.6,0.1-1.3,0.2-1.9,0.2c-1.1,0-2.2-0.2-3.2-0.6
					s-1.8-1-2.6-1.8s-1.3-1.8-1.7-3s-0.6-2.5-0.6-4c0-1.4,0.2-2.6,0.6-3.8c0.4-1.1,0.9-2.1,1.7-3s1.6-1.5,2.7-2
					c1.1-0.5,2.3-0.7,3.7-0.7c1.3,0,2.5,0.2,3.4,0.6c1,0.4,1.9,1,2.6,1.8L203.4,237.9z"/>
				<path class="st5" d="M219.5,252.8c-0.3,0-0.6-0.1-0.8-0.2c-0.2-0.1-0.3-0.3-0.4-0.6l-0.4-1.6c-0.5,0.4-0.9,0.8-1.4,1.2
					c-0.5,0.3-0.9,0.6-1.4,0.9c-0.5,0.2-1,0.4-1.6,0.5c-0.6,0.1-1.2,0.2-1.9,0.2c-0.7,0-1.4-0.1-2-0.3c-0.6-0.2-1.2-0.5-1.6-0.9
					c-0.5-0.4-0.8-0.9-1.1-1.5c-0.3-0.6-0.4-1.3-0.4-2.2c0-0.7,0.2-1.4,0.6-2.1c0.4-0.7,1-1.3,1.9-1.8c0.9-0.5,2-1,3.5-1.3
					s3.2-0.5,5.2-0.6v-1.4c0-1.4-0.3-2.4-0.9-3.1c-0.6-0.7-1.5-1.1-2.6-1.1c-0.8,0-1.4,0.1-2,0.3s-1,0.4-1.4,0.6
					c-0.4,0.2-0.7,0.4-1,0.6s-0.6,0.3-0.9,0.3c-0.2,0-0.4-0.1-0.6-0.2c-0.2-0.1-0.3-0.3-0.4-0.4l-0.6-1.1c1-1,2.1-1.7,3.3-2.2
					c1.2-0.5,2.5-0.7,3.9-0.7c1,0,2,0.2,2.8,0.5c0.8,0.3,1.5,0.8,2,1.4c0.5,0.6,1,1.3,1.2,2.2c0.3,0.9,0.4,1.8,0.4,2.8v11.7H219.5z
					 M212.6,250.7c0.5,0,1-0.1,1.5-0.2c0.5-0.1,0.9-0.3,1.3-0.5c0.4-0.2,0.8-0.5,1.1-0.7c0.4-0.3,0.7-0.6,1.1-1v-3.7
					c-1.4,0-2.7,0.2-3.7,0.3c-1,0.2-1.8,0.4-2.5,0.7c-0.6,0.3-1.1,0.6-1.4,1c-0.3,0.4-0.4,0.8-0.4,1.3c0,0.5,0.1,0.9,0.2,1.2
					c0.1,0.3,0.4,0.6,0.6,0.8c0.3,0.2,0.6,0.4,0.9,0.5S212.2,250.7,212.6,250.7z"/>
				<path class="st5" d="M225.8,252.8v-18.3h3.4v12.1c0,0.2,0,0.5,0,0.8c0,0.3-0.1,0.6-0.1,0.8c0.2-0.5,0.4-0.9,0.7-1.2
					c0,0,0.1-0.2,0.4-0.6c0.3-0.3,0.6-0.8,1-1.3s0.9-1.2,1.4-1.9c0.5-0.7,1-1.4,1.6-2.1c1.2-1.7,2.7-3.6,4.2-5.7
					c0.1-0.2,0.3-0.4,0.5-0.6c0.2-0.2,0.4-0.3,0.7-0.3h2.1v18.3h-3.4v-12.1c0-0.2,0-0.5,0-0.8s0.1-0.6,0.1-0.8
					c-0.1,0.2-0.2,0.5-0.3,0.7c-0.1,0.2-0.2,0.4-0.3,0.6c0,0-0.2,0.2-0.4,0.6c-0.3,0.3-0.6,0.8-1,1.3c-0.4,0.6-0.9,1.2-1.4,1.9
					s-1,1.4-1.6,2.1c-1.2,1.7-2.7,3.6-4.2,5.7c-0.1,0.2-0.3,0.4-0.5,0.6c-0.2,0.2-0.4,0.3-0.7,0.3H225.8z M233.9,230.1
					c0.5,0,0.9-0.1,1.2-0.2c0.3-0.1,0.6-0.3,0.8-0.5c0.2-0.2,0.4-0.6,0.4-1c0.1-0.4,0.1-0.9,0.1-1.4h2c0.2,0,0.4,0.1,0.5,0.3
					s0.2,0.4,0.2,0.7c0,0.6-0.1,1.1-0.4,1.6c-0.2,0.5-0.6,0.9-1.1,1.2s-1,0.6-1.7,0.8c-0.7,0.2-1.4,0.3-2.2,0.3s-1.6-0.1-2.2-0.3
					c-0.7-0.2-1.2-0.5-1.7-0.8c-0.5-0.3-0.8-0.8-1.1-1.2c-0.2-0.5-0.4-1-0.4-1.6c0-0.3,0.1-0.5,0.2-0.7s0.3-0.3,0.5-0.3h2
					c0,0.6,0,1,0.1,1.4c0.1,0.4,0.2,0.7,0.4,1s0.5,0.4,0.8,0.5C233,230,233.4,230.1,233.9,230.1z"/>
				<path class="st5" d="M244.6,234.5h17.3v2.6h-6.9v15.7h-3.4v-15.7h-6.9V234.5z"/>
				<path class="st5" d="M271.6,234.2c1.1,0,2.1,0.2,3.1,0.5s1.7,0.9,2.4,1.6c0.7,0.7,1.2,1.6,1.6,2.6c0.4,1,0.6,2.2,0.6,3.5
					c0,0.5-0.1,0.9-0.2,1.1c-0.1,0.2-0.3,0.3-0.6,0.3h-12.1c0,1.1,0.2,2.1,0.5,2.9c0.3,0.8,0.7,1.5,1.2,2.1c0.5,0.5,1.1,1,1.8,1.2
					c0.7,0.3,1.4,0.4,2.3,0.4c0.8,0,1.5-0.1,2-0.3c0.6-0.2,1.1-0.4,1.5-0.6c0.4-0.2,0.8-0.4,1.1-0.6c0.3-0.2,0.5-0.3,0.8-0.3
					c0.3,0,0.5,0.1,0.6,0.3l1,1.2c-0.4,0.5-0.9,0.9-1.5,1.3c-0.6,0.4-1.1,0.6-1.8,0.9c-0.6,0.2-1.3,0.4-2,0.5
					c-0.7,0.1-1.3,0.2-2,0.2c-1.3,0-2.4-0.2-3.5-0.6c-1.1-0.4-2-1-2.8-1.9c-0.8-0.8-1.4-1.8-1.8-3.1c-0.4-1.2-0.7-2.6-0.7-4.2
					c0-1.3,0.2-2.5,0.6-3.6c0.4-1.1,1-2.1,1.7-2.9c0.7-0.8,1.6-1.4,2.7-1.9C269.1,234.5,270.3,234.2,271.6,234.2z M271.6,236.7
					c-1.5,0-2.7,0.4-3.5,1.3s-1.4,2.1-1.6,3.6h9.7c0-0.7-0.1-1.4-0.3-2c-0.2-0.6-0.5-1.1-0.9-1.5c-0.4-0.4-0.9-0.8-1.4-1
					S272.4,236.7,271.6,236.7z"/>
				<path class="st5" d="M281.1,229.3c0.4-0.3,0.8-0.7,1.3-1c0.5-0.3,1-0.6,1.5-0.8c0.5-0.2,1.1-0.4,1.7-0.6c0.6-0.1,1.3-0.2,2-0.2
					c1,0,1.8,0.1,2.7,0.4c0.8,0.3,1.5,0.7,2.1,1.2c0.6,0.5,1.1,1.1,1.4,1.9c0.3,0.7,0.5,1.5,0.5,2.4c0,0.9-0.1,1.7-0.4,2.4
					s-0.6,1.2-1,1.7c-0.4,0.5-0.9,0.9-1.3,1.3c-0.5,0.4-0.9,0.7-1.4,1c-0.4,0.3-0.8,0.6-1.1,1c-0.3,0.3-0.5,0.7-0.5,1.1l-0.3,2.7
					h-2.3l-0.2-3c-0.1-0.5,0-1,0.3-1.4c0.3-0.4,0.6-0.8,1-1.1c0.4-0.4,0.9-0.7,1.3-1c0.5-0.3,0.9-0.7,1.4-1.1s0.8-0.9,1.1-1.4
					c0.3-0.5,0.4-1.2,0.4-1.9c0-0.5-0.1-1-0.3-1.4c-0.2-0.4-0.5-0.8-0.8-1c-0.3-0.3-0.7-0.5-1.2-0.7c-0.5-0.2-0.9-0.2-1.5-0.2
					c-0.7,0-1.3,0.1-1.9,0.3c-0.5,0.2-1,0.4-1.3,0.6s-0.7,0.4-0.9,0.6c-0.2,0.2-0.4,0.3-0.6,0.3c-0.3,0-0.6-0.1-0.7-0.4L281.1,229.3
					z M284.6,250.7c0-0.3,0.1-0.6,0.2-0.9c0.1-0.3,0.3-0.5,0.5-0.7c0.2-0.2,0.4-0.4,0.7-0.5c0.3-0.1,0.6-0.2,0.9-0.2
					c0.3,0,0.6,0.1,0.9,0.2c0.3,0.1,0.5,0.3,0.7,0.5c0.2,0.2,0.4,0.5,0.5,0.7c0.1,0.3,0.2,0.6,0.2,0.9c0,0.3-0.1,0.6-0.2,0.9
					c-0.1,0.3-0.3,0.5-0.5,0.7s-0.5,0.4-0.7,0.5c-0.3,0.1-0.6,0.2-0.9,0.2c-0.3,0-0.6-0.1-0.9-0.2s-0.5-0.3-0.7-0.5
					c-0.2-0.2-0.4-0.5-0.5-0.7C284.7,251.4,284.6,251.1,284.6,250.7z"/>
			</g>
		</g>
	</g>
	<g>
		<defs>
			<rect id="SVGID_85_" width="1000" height="700"/>
		</defs>
		<clipPath id="SVGID_86_">
			<use xlink:href="#SVGID_85_"  style="overflow:visible;"/>
		</clipPath>
		<g class="st45">
			<g class="st44">
				<path class="st11" d="M81.2,99.4V81.5h5.7c1.1,0,2,0.1,2.8,0.3c0.8,0.2,1.5,0.5,2,0.9c0.5,0.4,0.9,0.9,1.1,1.5s0.4,1.2,0.4,2
					c0,0.4-0.1,0.9-0.2,1.3c-0.1,0.4-0.3,0.8-0.6,1.1c-0.3,0.4-0.6,0.7-1,0.9c-0.4,0.3-0.9,0.5-1.5,0.7c1.3,0.3,2.3,0.7,3,1.4
					c0.7,0.7,1,1.6,1,2.7c0,0.8-0.1,1.4-0.4,2.1s-0.7,1.2-1.2,1.6c-0.5,0.4-1.2,0.8-2,1c-0.8,0.2-1.7,0.4-2.7,0.4H81.2z M83.6,89.5
					h3.2c0.7,0,1.3-0.1,1.8-0.2c0.5-0.2,0.9-0.4,1.2-0.6s0.6-0.6,0.7-1c0.2-0.4,0.2-0.8,0.2-1.2c0-1.1-0.3-1.8-0.9-2.3
					c-0.6-0.5-1.6-0.7-3-0.7h-3.3V89.5z M83.6,91.2v6.2h3.9c0.7,0,1.3-0.1,1.8-0.2s0.9-0.4,1.2-0.7c0.3-0.3,0.6-0.6,0.7-1
					c0.2-0.4,0.2-0.8,0.2-1.3c0-0.9-0.3-1.7-1-2.2c-0.7-0.5-1.6-0.8-3-0.8H83.6z"/>
				<path class="st11" d="M101.9,86.5c0.8,0,1.5,0.1,2.1,0.4c0.6,0.3,1.2,0.6,1.7,1.1c0.5,0.5,0.8,1.1,1.1,1.8s0.4,1.5,0.4,2.4
					c0,0.4,0,0.6-0.1,0.7c-0.1,0.1-0.2,0.2-0.4,0.2h-8.5c0,0.8,0.1,1.5,0.3,2.1s0.5,1.1,0.8,1.5c0.3,0.4,0.8,0.7,1.2,0.9
					c0.5,0.2,1,0.3,1.6,0.3c0.6,0,1-0.1,1.4-0.2s0.8-0.3,1-0.4c0.3-0.2,0.5-0.3,0.7-0.4c0.2-0.1,0.4-0.2,0.5-0.2
					c0.2,0,0.3,0.1,0.4,0.2l0.6,0.8c-0.3,0.3-0.6,0.6-1,0.9s-0.8,0.4-1.2,0.6s-0.9,0.3-1.4,0.4s-0.9,0.1-1.4,0.1
					c-0.9,0-1.7-0.1-2.4-0.4s-1.4-0.7-1.9-1.3c-0.5-0.6-1-1.3-1.3-2.1c-0.3-0.8-0.4-1.8-0.4-2.9c0-0.9,0.1-1.7,0.4-2.5
					c0.3-0.8,0.7-1.4,1.2-2s1.1-1,1.9-1.3C100.1,86.7,100.9,86.5,101.9,86.5z M101.9,88.2c-1.1,0-1.9,0.3-2.5,0.9
					c-0.6,0.6-1,1.5-1.1,2.6h6.9c0-0.5-0.1-1-0.2-1.4c-0.1-0.4-0.4-0.8-0.6-1.1c-0.3-0.3-0.6-0.6-1-0.7
					C102.9,88.3,102.4,88.2,101.9,88.2z"/>
				<path class="st11" d="M116.4,83.8c-0.9,0.1-1.6,0.3-2.2,0.6c-0.6,0.3-1.1,0.7-1.5,1.2s-0.7,1.1-0.9,1.8
					c-0.2,0.7-0.3,1.5-0.4,2.4c0.2-0.4,0.5-0.8,0.8-1.1c0.3-0.3,0.7-0.6,1.1-0.8c0.4-0.2,0.9-0.4,1.3-0.5c0.5-0.1,1-0.2,1.5-0.2
					c0.8,0,1.6,0.1,2.3,0.4s1.2,0.7,1.7,1.3c0.5,0.5,0.8,1.2,1.1,2s0.4,1.6,0.4,2.5c0,0.9-0.1,1.8-0.4,2.6s-0.7,1.4-1.2,2
					c-0.5,0.5-1.2,1-1.9,1.2c-0.7,0.3-1.6,0.4-2.5,0.4c-0.9,0-1.6-0.1-2.4-0.4s-1.4-0.8-1.9-1.4c-0.5-0.6-1-1.5-1.3-2.6
					s-0.5-2.4-0.5-3.9c0-1.3,0.1-2.6,0.4-3.7c0.2-1.1,0.6-2.1,1.2-2.9s1.2-1.5,2.1-2c0.9-0.5,1.9-0.8,3.1-0.9l4.5-0.4l0.1,1.1
					c0,0.3,0,0.5-0.1,0.7s-0.3,0.3-0.5,0.3L116.4,83.8z M115.6,97.9c1.2,0,2.2-0.4,2.8-1.2c0.6-0.8,1-1.9,1-3.3
					c0-1.4-0.3-2.5-0.9-3.3c-0.6-0.8-1.5-1.2-2.8-1.2c-0.6,0-1.1,0.1-1.6,0.3c-0.5,0.2-0.9,0.5-1.2,0.8s-0.6,0.8-0.8,1.3
					s-0.3,1.1-0.3,1.8c0,0.8,0.1,1.4,0.2,2c0.2,0.6,0.4,1.1,0.7,1.5c0.3,0.4,0.7,0.7,1.2,1C114.4,97.8,115,97.9,115.6,97.9z"/>
				<path class="st11" d="M124.5,99.4V86.7h2.2v8.6c0,0.2,0,0.3,0,0.5c0,0.2,0,0.4-0.1,0.6c0.1-0.2,0.1-0.3,0.2-0.4
					c0.1-0.1,0.2-0.3,0.2-0.4c0,0,0.1-0.1,0.3-0.4c0.2-0.2,0.4-0.6,0.7-1c0.3-0.4,0.6-0.8,1-1.3c0.4-0.5,0.7-1,1.1-1.5
					c0.9-1.2,1.9-2.6,3-4.1c0.1-0.1,0.2-0.3,0.4-0.4c0.1-0.1,0.3-0.2,0.5-0.2h1.3v12.7h-2.2v-8.6c0-0.2,0-0.3,0-0.5s0-0.4,0.1-0.6
					c-0.1,0.2-0.2,0.3-0.2,0.5c-0.1,0.1-0.2,0.3-0.2,0.4c0,0-0.1,0.1-0.3,0.4c-0.2,0.2-0.4,0.6-0.7,1s-0.6,0.8-1,1.3
					c-0.4,0.5-0.7,1-1.1,1.5c-0.9,1.2-1.9,2.6-3,4.1c-0.1,0.1-0.2,0.3-0.3,0.4c-0.1,0.1-0.3,0.2-0.5,0.2H124.5z"/>
				<path class="st11" d="M149.4,86.7v12.7h-2.2v-5.9h-6.1v5.9h-2.2V86.7h2.2v5h6.1v-5H149.4z"/>
				<path class="st11" d="M161,99.4c-0.2,0-0.4,0-0.5-0.1c-0.1-0.1-0.2-0.2-0.3-0.4l-0.2-1.2c-0.3,0.3-0.7,0.6-1,0.8s-0.7,0.4-1,0.6
					c-0.3,0.2-0.7,0.3-1.1,0.4c-0.4,0.1-0.8,0.1-1.3,0.1c-0.5,0-1-0.1-1.4-0.2c-0.4-0.1-0.8-0.3-1.1-0.6c-0.3-0.3-0.6-0.6-0.8-1
					s-0.3-0.9-0.3-1.5c0-0.5,0.1-1,0.4-1.4c0.3-0.5,0.7-0.9,1.3-1.2c0.6-0.4,1.4-0.7,2.4-0.9s2.2-0.4,3.6-0.4v-1
					c0-1-0.2-1.7-0.6-2.2c-0.4-0.5-1-0.8-1.9-0.8c-0.5,0-1,0.1-1.4,0.2c-0.4,0.1-0.7,0.3-1,0.5c-0.3,0.2-0.5,0.3-0.7,0.5
					s-0.4,0.2-0.6,0.2c-0.1,0-0.3,0-0.4-0.1c-0.1-0.1-0.2-0.2-0.3-0.3l-0.4-0.7c0.7-0.7,1.5-1.2,2.3-1.5c0.8-0.3,1.7-0.5,2.7-0.5
					c0.7,0,1.3,0.1,1.9,0.4c0.6,0.2,1,0.6,1.4,1s0.7,0.9,0.9,1.5c0.2,0.6,0.3,1.2,0.3,2v8.1H161z M156.2,98c0.4,0,0.8,0,1.1-0.1
					c0.3-0.1,0.6-0.2,0.9-0.3c0.3-0.1,0.6-0.3,0.8-0.5c0.3-0.2,0.5-0.5,0.8-0.7v-2.6c-1,0-1.9,0.1-2.6,0.2c-0.7,0.1-1.3,0.3-1.8,0.5
					c-0.5,0.2-0.8,0.5-1,0.7c-0.2,0.3-0.3,0.6-0.3,1c0,0.3,0.1,0.6,0.2,0.9c0.1,0.2,0.3,0.4,0.4,0.6c0.2,0.2,0.4,0.3,0.7,0.3
					C155.7,98,155.9,98,156.2,98z"/>
				<path class="st11" d="M165.4,103.7V86.7h1.3c0.3,0,0.5,0.2,0.6,0.5l0.2,1.5c0.5-0.7,1.2-1.2,1.9-1.6c0.7-0.4,1.5-0.6,2.4-0.6
					c0.7,0,1.4,0.1,2,0.4s1.1,0.7,1.5,1.2c0.4,0.5,0.7,1.2,1,2c0.2,0.8,0.3,1.7,0.3,2.8c0,0.9-0.1,1.8-0.4,2.6
					c-0.2,0.8-0.6,1.5-1.1,2.1c-0.5,0.6-1,1-1.7,1.4c-0.7,0.3-1.4,0.5-2.3,0.5c-0.8,0-1.4-0.1-2-0.4c-0.6-0.3-1-0.6-1.5-1.1v5.6
					H165.4z M171,88.3c-0.7,0-1.4,0.2-1.9,0.5c-0.5,0.3-1,0.8-1.5,1.4v6.1c0.4,0.5,0.8,0.9,1.3,1.2c0.5,0.2,1,0.3,1.6,0.3
					c1.2,0,2.1-0.4,2.7-1.3s1-2,1-3.6c0-0.8-0.1-1.5-0.2-2.1c-0.1-0.6-0.4-1.1-0.6-1.5c-0.3-0.4-0.6-0.7-1-0.8S171.5,88.3,171,88.3z
					"/>
			</g>
		</g>
	</g>
	<g>
		<defs>
			<rect id="SVGID_87_" width="1000" height="700"/>
		</defs>
		<clipPath id="SVGID_88_">
			<use xlink:href="#SVGID_87_"  style="overflow:visible;"/>
		</clipPath>
	</g>
	<g>
		<defs>
			<rect id="SVGID_89_" width="1000" height="700"/>
		</defs>
		<clipPath id="SVGID_90_">
			<use xlink:href="#SVGID_89_"  style="overflow:visible;"/>
		</clipPath>
		<path class="st46" d="M766,602.1l2,7c17.4-2.6,34.3-7.3,50.4-13.9c25.7-10.7,49.4-26.4,69.7-46.7c4.5-4.5,8.7-9.1,12.7-13.9
			l7.6-9.6l0.1-0.1C907.5,525.8,841,596,766,602.1z"/>
	</g>
	<g>
		<defs>
			<rect id="SVGID_91_" width="1000" height="700"/>
		</defs>
		<clipPath id="SVGID_92_">
			<use xlink:href="#SVGID_91_"  style="overflow:visible;"/>
		</clipPath>
		<line class="st47" x1="766" y1="602" x2="768.5" y2="609.5"/>
	</g>
	<g>
		<defs>
			<rect id="SVGID_93_" width="1000" height="700"/>
		</defs>
		<clipPath id="SVGID_94_">
			<use xlink:href="#SVGID_93_"  style="overflow:visible;"/>
		</clipPath>
		<g class="st48">
			<polygon class="st49" points="721,284 727,281 736.2,302 732.3,304 			"/>
		</g>
	</g>
	<g>
		<defs>
			<rect id="SVGID_95_" width="1000" height="700"/>
		</defs>
		<clipPath id="SVGID_96_">
			<use xlink:href="#SVGID_95_"  style="overflow:visible;"/>
		</clipPath>
		<circle class="st50" cx="731.5" cy="291.5" r="11.5"/>
	</g>
	<g>
		<defs>
			<rect id="SVGID_97_" width="1000" height="700"/>
		</defs>
		<clipPath id="SVGID_98_">
			<use xlink:href="#SVGID_97_"  style="overflow:visible;"/>
		</clipPath>
		<circle class="st51" cx="727.5" cy="293.5" r="11.5"/>
	</g>
	<g>
		<defs>
			<rect id="SVGID_99_" width="1000" height="700"/>
		</defs>
		<clipPath id="SVGID_100_">
			<use xlink:href="#SVGID_99_"  style="overflow:visible;"/>
		</clipPath>
		<polygon class="st52" points="736,384 742,381 751.2,402 747.3,404 		"/>
	</g>
	<g>
		<defs>
			<rect id="SVGID_101_" width="1000" height="700"/>
		</defs>
		<clipPath id="SVGID_102_">
			<use xlink:href="#SVGID_101_"  style="overflow:visible;"/>
		</clipPath>
		<circle class="st53" cx="746.5" cy="391.5" r="11.5"/>
	</g>
	<g>
		<defs>
			<rect id="SVGID_103_" width="1000" height="700"/>
		</defs>
		<clipPath id="SVGID_104_">
			<use xlink:href="#SVGID_103_"  style="overflow:visible;"/>
		</clipPath>
		<circle class="st54" cx="742.5" cy="393.5" r="11.5"/>
	</g>
	<g>
		<defs>
			<rect id="SVGID_105_" width="1000" height="700"/>
		</defs>
		<clipPath id="SVGID_106_">
			<use xlink:href="#SVGID_105_"  style="overflow:visible;"/>
		</clipPath>
		<polygon class="st55" points="768,409 774,406 783.2,427 779.3,429 		"/>
	</g>
	<g>
		<defs>
			<rect id="SVGID_107_" width="1000" height="700"/>
		</defs>
		<clipPath id="SVGID_108_">
			<use xlink:href="#SVGID_107_"  style="overflow:visible;"/>
		</clipPath>
		<circle class="st56" cx="778.5" cy="416.5" r="11.5"/>
	</g>
	<g>
		<defs>
			<rect id="SVGID_109_" width="1000" height="700"/>
		</defs>
		<clipPath id="SVGID_110_">
			<use xlink:href="#SVGID_109_"  style="overflow:visible;"/>
		</clipPath>
		<circle class="st57" cx="774.5" cy="418.5" r="11.5"/>
	</g>
	<g>
		<defs>
			<rect id="SVGID_111_" width="1000" height="700"/>
		</defs>
		<clipPath id="SVGID_112_">
			<use xlink:href="#SVGID_111_"  style="overflow:visible;"/>
		</clipPath>
		<polygon class="st58" points="743,502 749,499 758.2,520 754.3,522 		"/>
	</g>
	<g>
		<defs>
			<rect id="SVGID_113_" width="1000" height="700"/>
		</defs>
		<clipPath id="SVGID_114_">
			<use xlink:href="#SVGID_113_"  style="overflow:visible;"/>
		</clipPath>
		<circle class="st59" cx="753.5" cy="509.5" r="11.5"/>
	</g>
	<g>
		<defs>
			<rect id="SVGID_115_" width="1000" height="700"/>
		</defs>
		<clipPath id="SVGID_116_">
			<use xlink:href="#SVGID_115_"  style="overflow:visible;"/>
		</clipPath>
		<circle class="st60" cx="749.5" cy="511.5" r="11.5"/>
	</g>
	<g>
		<defs>
			<rect id="SVGID_117_" width="1000" height="700"/>
		</defs>
		<clipPath id="SVGID_118_">
			<use xlink:href="#SVGID_117_"  style="overflow:visible;"/>
		</clipPath>
		<path class="st61" d="M625,310.1L625,310.1c-0.9,0-1.6-0.7-1.6-1.6V302c0-0.9,0.7-1.6,1.6-1.6l0,0c0.9,0,1.6,0.7,1.6,1.6v6.5
			C626.6,309.4,625.9,310.1,625,310.1z"/>
	</g>
	<g>
		<defs>
			<rect id="SVGID_119_" width="1000" height="700"/>
		</defs>
		<clipPath id="SVGID_120_">
			<use xlink:href="#SVGID_119_"  style="overflow:visible;"/>
		</clipPath>
		<path class="st62" d="M639.1,296L639.1,296c0,0.9-0.7,1.6-1.6,1.6H631c-0.9,0-1.6-0.7-1.6-1.6l0,0c0-0.9,0.7-1.6,1.6-1.6h6.5
			C638.3,294.4,639.1,295.1,639.1,296z"/>
	</g>
	<g>
		<defs>
			<rect id="SVGID_121_" width="1000" height="700"/>
		</defs>
		<clipPath id="SVGID_122_">
			<use xlink:href="#SVGID_121_"  style="overflow:visible;"/>
		</clipPath>
		<path class="st63" d="M625,282L625,282c0.9,0,1.6,0.7,1.6,1.6v6.5c0,0.9-0.7,1.6-1.6,1.6l0,0c-0.9,0-1.6-0.7-1.6-1.6v-6.5
			C623.4,282.7,624.1,282,625,282z"/>
	</g>
	<g>
		<defs>
			<rect id="SVGID_123_" width="1000" height="700"/>
		</defs>
		<clipPath id="SVGID_124_">
			<use xlink:href="#SVGID_123_"  style="overflow:visible;"/>
		</clipPath>
		<path class="st64" d="M611,296L611,296c0-0.9,0.7-1.6,1.6-1.6h6.5c0.9,0,1.6,0.7,1.6,1.6l0,0c0,0.9-0.7,1.6-1.6,1.6h-6.5
			C611.7,297.6,611,296.9,611,296z"/>
	</g>
	<g>
		<defs>
			<rect id="SVGID_125_" width="1000" height="700"/>
		</defs>
		<clipPath id="SVGID_126_">
			<use xlink:href="#SVGID_125_"  style="overflow:visible;"/>
		</clipPath>
		<path class="st65" d="M803,391L803,391c-0.7,0-1.3-0.6-1.3-1.3v-5.1c0-0.7,0.6-1.3,1.3-1.3l0,0c0.7,0,1.3,0.6,1.3,1.3v5.1
			C804.3,390.4,803.7,391,803,391z"/>
	</g>
	<g>
		<defs>
			<rect id="SVGID_127_" width="1000" height="700"/>
		</defs>
		<clipPath id="SVGID_128_">
			<use xlink:href="#SVGID_127_"  style="overflow:visible;"/>
		</clipPath>
		<path class="st66" d="M813.9,380L813.9,380c0,0.7-0.6,1.3-1.3,1.3h-5.1c-0.7,0-1.3-0.6-1.3-1.3l0,0c0-0.7,0.6-1.3,1.3-1.3h5.1
			C813.4,378.7,813.9,379.3,813.9,380z"/>
	</g>
	<g>
		<defs>
			<rect id="SVGID_129_" width="1000" height="700"/>
		</defs>
		<clipPath id="SVGID_130_">
			<use xlink:href="#SVGID_129_"  style="overflow:visible;"/>
		</clipPath>
		<path class="st67" d="M803,369.1L803,369.1c0.7,0,1.3,0.6,1.3,1.3v5.1c0,0.7-0.6,1.3-1.3,1.3l0,0c-0.7,0-1.3-0.6-1.3-1.3v-5.1
			C801.7,369.7,802.3,369.1,803,369.1z"/>
	</g>
	<g>
		<defs>
			<rect id="SVGID_131_" width="1000" height="700"/>
		</defs>
		<clipPath id="SVGID_132_">
			<use xlink:href="#SVGID_131_"  style="overflow:visible;"/>
		</clipPath>
		<path class="st68" d="M792.1,380L792.1,380c0-0.7,0.6-1.3,1.3-1.3h5.1c0.7,0,1.3,0.6,1.3,1.3l0,0c0,0.7-0.6,1.3-1.3,1.3h-5.1
			C792.7,381.3,792.1,380.7,792.1,380z"/>
	</g>
	<g>
		<defs>
			<rect id="SVGID_133_" width="1000" height="700"/>
		</defs>
		<clipPath id="SVGID_134_">
			<use xlink:href="#SVGID_133_"  style="overflow:visible;"/>
		</clipPath>
		<path class="st69" d="M596,338L596,338c-0.6,0-1-0.5-1-1v-4.2c0-0.6,0.5-1,1-1l0,0c0.6,0,1,0.5,1,1v4.2
			C597.1,337.6,596.6,338,596,338z"/>
	</g>
	<g>
		<defs>
			<rect id="SVGID_135_" width="1000" height="700"/>
		</defs>
		<clipPath id="SVGID_136_">
			<use xlink:href="#SVGID_135_"  style="overflow:visible;"/>
		</clipPath>
		<path class="st70" d="M605,329L605,329c0,0.6-0.5,1-1,1h-4.2c-0.6,0-1-0.5-1-1l0,0c0-0.6,0.5-1,1-1h4.2
			C604.5,328,605,328.4,605,329z"/>
	</g>
	<g>
		<defs>
			<rect id="SVGID_137_" width="1000" height="700"/>
		</defs>
		<clipPath id="SVGID_138_">
			<use xlink:href="#SVGID_137_"  style="overflow:visible;"/>
		</clipPath>
		<path class="st71" d="M596,320.1L596,320.1c0.6,0,1,0.5,1,1v4.2c0,0.6-0.5,1-1,1l0,0c-0.6,0-1-0.5-1-1v-4.2
			C595,320.5,595.4,320.1,596,320.1z"/>
	</g>
	<g>
		<defs>
			<rect id="SVGID_139_" width="1000" height="700"/>
		</defs>
		<clipPath id="SVGID_140_">
			<use xlink:href="#SVGID_139_"  style="overflow:visible;"/>
		</clipPath>
		<path class="st72" d="M587.1,329L587.1,329c0-0.6,0.5-1,1-1h4.2c0.6,0,1,0.5,1,1l0,0c0,0.6-0.5,1-1,1h-4.2
			C587.5,330.1,587.1,329.6,587.1,329z"/>
	</g>
	<g>
		<defs>
			<rect id="SVGID_141_" width="1000" height="700"/>
		</defs>
		<clipPath id="SVGID_142_">
			<use xlink:href="#SVGID_141_"  style="overflow:visible;"/>
		</clipPath>
		<path class="st73" d="M551.8,473.2L551.8,473.2c-0.7,0-1.3-0.6-1.3-1.3v-5.1c0-0.7,0.6-1.3,1.3-1.3l0,0c0.7,0,1.3,0.6,1.3,1.3v5.1
			C553,472.6,552.5,473.2,551.8,473.2z"/>
	</g>
	<g>
		<defs>
			<rect id="SVGID_143_" width="1000" height="700"/>
		</defs>
		<clipPath id="SVGID_144_">
			<use xlink:href="#SVGID_143_"  style="overflow:visible;"/>
		</clipPath>
		<path class="st74" d="M562.7,462.2L562.7,462.2c0,0.7-0.6,1.3-1.3,1.3h-5.1c-0.7,0-1.3-0.6-1.3-1.3l0,0c0-0.7,0.6-1.3,1.3-1.3h5.1
			C562.1,461,562.7,461.5,562.7,462.2z"/>
	</g>
	<g>
		<defs>
			<rect id="SVGID_145_" width="1000" height="700"/>
		</defs>
		<clipPath id="SVGID_146_">
			<use xlink:href="#SVGID_145_"  style="overflow:visible;"/>
		</clipPath>
		<path class="st75" d="M551.8,451.3L551.8,451.3c0.7,0,1.3,0.6,1.3,1.3v5.1c0,0.7-0.6,1.3-1.3,1.3l0,0c-0.7,0-1.3-0.6-1.3-1.3v-5.1
			C550.5,451.9,551.1,451.3,551.8,451.3z"/>
	</g>
	<g>
		<defs>
			<rect id="SVGID_147_" width="1000" height="700"/>
		</defs>
		<clipPath id="SVGID_148_">
			<use xlink:href="#SVGID_147_"  style="overflow:visible;"/>
		</clipPath>
		<path class="st76" d="M540.9,462.2L540.9,462.2c0-0.7,0.6-1.3,1.3-1.3h5.1c0.7,0,1.3,0.6,1.3,1.3l0,0c0,0.7-0.6,1.3-1.3,1.3h-5.1
			C541.4,463.5,540.9,462.9,540.9,462.2z"/>
	</g>
	<g>
		<defs>
			<rect id="SVGID_149_" width="1000" height="700"/>
		</defs>
		<clipPath id="SVGID_150_">
			<use xlink:href="#SVGID_149_"  style="overflow:visible;"/>
		</clipPath>
		<path class="st77" d="M837.7,480.5L837.7,480.5c-0.7,0-1.3-0.6-1.3-1.3v-5.1c0-0.7,0.6-1.3,1.3-1.3l0,0c0.7,0,1.3,0.6,1.3,1.3v5.1
			C838.9,480,838.4,480.5,837.7,480.5z"/>
	</g>
	<g>
		<defs>
			<rect id="SVGID_151_" width="1000" height="700"/>
		</defs>
		<clipPath id="SVGID_152_">
			<use xlink:href="#SVGID_151_"  style="overflow:visible;"/>
		</clipPath>
		<path class="st78" d="M848.6,469.5L848.6,469.5c0,0.7-0.6,1.3-1.3,1.3h-5.1c-0.7,0-1.3-0.6-1.3-1.3l0,0c0-0.7,0.6-1.3,1.3-1.3h5.1
			C848,468.3,848.6,468.8,848.6,469.5z"/>
	</g>
	<g>
		<defs>
			<rect id="SVGID_153_" width="1000" height="700"/>
		</defs>
		<clipPath id="SVGID_154_">
			<use xlink:href="#SVGID_153_"  style="overflow:visible;"/>
		</clipPath>
		<path class="st79" d="M837.7,458.6L837.7,458.6c0.7,0,1.3,0.6,1.3,1.3v5.1c0,0.7-0.6,1.3-1.3,1.3l0,0c-0.7,0-1.3-0.6-1.3-1.3v-5.1
			C836.4,459.2,837,458.6,837.7,458.6z"/>
	</g>
	<g>
		<defs>
			<rect id="SVGID_155_" width="1000" height="700"/>
		</defs>
		<clipPath id="SVGID_156_">
			<use xlink:href="#SVGID_155_"  style="overflow:visible;"/>
		</clipPath>
		<path class="st80" d="M826.7,469.5L826.7,469.5c0-0.7,0.6-1.3,1.3-1.3h5.1c0.7,0,1.3,0.6,1.3,1.3l0,0c0,0.7-0.6,1.3-1.3,1.3H828
			C827.3,470.8,826.7,470.3,826.7,469.5z"/>
	</g>
	<g>
		<defs>
			<rect id="SVGID_157_" width="1000" height="700"/>
		</defs>
		<clipPath id="SVGID_158_">
			<use xlink:href="#SVGID_157_"  style="overflow:visible;"/>
		</clipPath>
		<path class="st81" d="M721.2,190.8L721.2,190.8c-0.9,0-1.6-0.7-1.7-1.6l-0.1-6.5c0-0.9,0.7-1.6,1.6-1.7l0,0c0.9,0,1.6,0.7,1.7,1.6
			l0.1,6.5C722.9,190.1,722.1,190.8,721.2,190.8z"/>
	</g>
	<g>
		<defs>
			<rect id="SVGID_159_" width="1000" height="700"/>
		</defs>
		<clipPath id="SVGID_160_">
			<use xlink:href="#SVGID_159_"  style="overflow:visible;"/>
		</clipPath>
		<path class="st82" d="M735,176.4L735,176.4c0,0.9-0.7,1.6-1.6,1.7l-6.5,0.1c-0.9,0-1.6-0.7-1.7-1.6l0,0c0-0.9,0.7-1.6,1.6-1.7
			l6.5-0.1C734.2,174.8,735,175.5,735,176.4z"/>
	</g>
	<g>
		<defs>
			<rect id="SVGID_161_" width="1000" height="700"/>
		</defs>
		<clipPath id="SVGID_162_">
			<use xlink:href="#SVGID_161_"  style="overflow:visible;"/>
		</clipPath>
		<path class="st83" d="M720.7,162.7L720.7,162.7c0.9,0,1.6,0.7,1.7,1.6l0.1,6.5c0,0.9-0.7,1.6-1.6,1.7l0,0c-0.9,0-1.6-0.7-1.7-1.6
			l-0.1-6.5C719.1,163.5,719.8,162.7,720.7,162.7z"/>
	</g>
	<g>
		<defs>
			<rect id="SVGID_163_" width="1000" height="700"/>
		</defs>
		<clipPath id="SVGID_164_">
			<use xlink:href="#SVGID_163_"  style="overflow:visible;"/>
		</clipPath>
		<path class="st84" d="M707,177L707,177c0-0.9,0.7-1.6,1.6-1.7l6.5-0.1c0.9,0,1.6,0.7,1.7,1.6l0,0c0,0.9-0.7,1.6-1.6,1.7l-6.5,0.1
			C707.7,178.6,707,177.9,707,177z"/>
	</g>
	<g>
		<defs>
			<rect id="SVGID_165_" width="1000" height="700"/>
		</defs>
		<clipPath id="SVGID_166_">
			<use xlink:href="#SVGID_165_"  style="overflow:visible;"/>
		</clipPath>
		<path class="st85" d="M722,291c0,0,2.2-5.4,7.6-2.7"/>
	</g>
	<g>
		<defs>
			<rect id="SVGID_167_" width="1000" height="700"/>
		</defs>
		<clipPath id="SVGID_168_">
			<use xlink:href="#SVGID_167_"  style="overflow:visible;"/>
		</clipPath>
		<path class="st86" d="M650.1,347.2c0,0,2.2-5.4,7.6-2.7"/>
	</g>
	<g>
		<defs>
			<rect id="SVGID_169_" width="1000" height="700"/>
		</defs>
		<clipPath id="SVGID_170_">
			<use xlink:href="#SVGID_169_"  style="overflow:visible;"/>
		</clipPath>
		<path class="st87" d="M599,463c0,0,5.5-8.5,16.5-5.5"/>
	</g>
	<g>
		<defs>
			<rect id="SVGID_171_" width="1000" height="700"/>
		</defs>
		<clipPath id="SVGID_172_">
			<use xlink:href="#SVGID_171_"  style="overflow:visible;"/>
		</clipPath>
		<path class="st88" d="M606,463c0,0,3.5-3.5,8.5-1.5"/>
	</g>
	<g>
		<defs>
			<rect id="SVGID_173_" width="1000" height="700"/>
		</defs>
		<clipPath id="SVGID_174_">
			<use xlink:href="#SVGID_173_"  style="overflow:visible;"/>
		</clipPath>
		<path class="st89" d="M737.2,390.7c0,0,2.2-5.4,7.6-2.7"/>
	</g>
	<g>
		<defs>
			<rect id="SVGID_175_" width="1000" height="700"/>
		</defs>
		<clipPath id="SVGID_176_">
			<use xlink:href="#SVGID_175_"  style="overflow:visible;"/>
		</clipPath>
		<path class="st90" d="M769.3,415.5c0,0,2.2-5.4,7.6-2.7"/>
	</g>
	<g>
		<defs>
			<rect id="SVGID_177_" width="1000" height="700"/>
		</defs>
		<clipPath id="SVGID_178_">
			<use xlink:href="#SVGID_177_"  style="overflow:visible;"/>
		</clipPath>
		<path class="st91" d="M743.9,508.7c0,0,2.2-5.4,7.6-2.7"/>
	</g>
	<g>
		<defs>
			<rect id="SVGID_179_" width="1000" height="700"/>
		</defs>
		<clipPath id="SVGID_180_">
			<use xlink:href="#SVGID_179_"  style="overflow:visible;"/>
		</clipPath>
		<circle class="st92" cx="695.5" cy="575.5" r="2.5"/>
	</g>
	<g>
		<defs>
			<rect id="SVGID_181_" width="1000" height="700"/>
		</defs>
		<clipPath id="SVGID_182_">
			<use xlink:href="#SVGID_181_"  style="overflow:visible;"/>
		</clipPath>
		<circle class="st93" cx="697.5" cy="620.5" r="2.5"/>
	</g>
	<g>
		<defs>
			<rect id="SVGID_183_" width="1000" height="700"/>
		</defs>
		<clipPath id="SVGID_184_">
			<use xlink:href="#SVGID_183_"  style="overflow:visible;"/>
		</clipPath>
		<circle class="st94" cx="697.5" cy="630.5" r="2.5"/>
	</g>
	<g>
		<defs>
			<rect id="SVGID_185_" width="1000" height="700"/>
		</defs>
		<clipPath id="SVGID_186_">
			<use xlink:href="#SVGID_185_"  style="overflow:visible;"/>
		</clipPath>
		<circle class="st95" cx="696.5" cy="672.5" r="2.5"/>
	</g>
	<g>
		<defs>
			<rect id="SVGID_187_" width="1000" height="700"/>
		</defs>
		<clipPath id="SVGID_188_">
			<use xlink:href="#SVGID_187_"  style="overflow:visible;"/>
		</clipPath>
		<path class="st96" d="M744,633.8c0,0-1,7.2-12,7.2c-8,0-15-7.2-15-7.2"/>
	</g>
	<g>
		<defs>
			<rect id="SVGID_189_" width="1000" height="700"/>
		</defs>
		<clipPath id="SVGID_190_">
			<use xlink:href="#SVGID_189_"  style="overflow:visible;"/>
		</clipPath>
		<polygon class="st97" points="744,633.8 730.5,637 717,633.8 717,619.9 717,606 730.5,606 744,606 744,619.9 		"/>
	</g>
	<g>
		<defs>
			<rect id="SVGID_191_" width="1000" height="700"/>
		</defs>
		<clipPath id="SVGID_192_">
			<use xlink:href="#SVGID_191_"  style="overflow:visible;"/>
		</clipPath>
		<path class="st98" d="M623.6,608.9l1.1-6.9c0,0-17.9,3-33.5,0.1C601.8,605.2,612.6,607.4,623.6,608.9z"/>
	</g>
	<g>
		<defs>
			<rect id="SVGID_193_" width="1000" height="700"/>
		</defs>
		<clipPath id="SVGID_194_">
			<use xlink:href="#SVGID_193_"  style="overflow:visible;"/>
		</clipPath>
		<line class="st99" x1="623.3" y1="609" x2="625.1" y2="602.3"/>
	</g>
	<g>
		<defs>
			<rect id="SVGID_195_" width="1000" height="700"/>
		</defs>
		<clipPath id="SVGID_196_">
			<use xlink:href="#SVGID_195_"  style="overflow:visible;"/>
		</clipPath>
		<circle class="st100" cx="850.5" cy="224.5" r="2.5"/>
	</g>
	<g>
		<defs>
			<rect id="SVGID_197_" width="1000" height="700"/>
		</defs>
		<clipPath id="SVGID_198_">
			<use xlink:href="#SVGID_197_"  style="overflow:visible;"/>
		</clipPath>
		<circle class="st101" cx="537.5" cy="224.7" r="2.5"/>
	</g>
	<g>
		<defs>
			<rect id="SVGID_199_" width="1000" height="700"/>
		</defs>
		<clipPath id="SVGID_200_">
			<use xlink:href="#SVGID_199_"  style="overflow:visible;"/>
		</clipPath>
		<ellipse class="st102" cx="684" cy="210" rx="1" ry="4"/>
	</g>
	<g>
		<defs>
			<rect id="SVGID_201_" width="1000" height="700"/>
		</defs>
		<clipPath id="SVGID_202_">
			<use xlink:href="#SVGID_201_"  style="overflow:visible;"/>
		</clipPath>
		<ellipse class="st103" cx="676" cy="210" rx="1" ry="4"/>
	</g>
	<g>
		<defs>
			<rect id="SVGID_203_" width="1000" height="700"/>
		</defs>
		<clipPath id="SVGID_204_">
			<use xlink:href="#SVGID_203_"  style="overflow:visible;"/>
		</clipPath>
		<path class="st104" d="M672,214c0,0,8,14,16,0"/>
	</g>
	<g>
		<defs>
			<rect id="SVGID_205_" width="1000" height="700"/>
		</defs>
		<clipPath id="SVGID_206_">
			<use xlink:href="#SVGID_205_"  style="overflow:visible;"/>
		</clipPath>
		<path class="st105" d="M451.1,602L451.1,602c-0.9,0-1.6-0.7-1.6-1.6v-6.5c0-0.9,0.7-1.6,1.6-1.6l0,0c0.9,0,1.6,0.7,1.6,1.6v6.5
			C452.7,601.2,452,602,451.1,602z"/>
	</g>
	<g>
		<defs>
			<rect id="SVGID_207_" width="1000" height="700"/>
		</defs>
		<clipPath id="SVGID_208_">
			<use xlink:href="#SVGID_207_"  style="overflow:visible;"/>
		</clipPath>
		<path class="st106" d="M465.1,587.8L465.1,587.8c0,0.9-0.7,1.6-1.6,1.6H457c-0.9,0-1.6-0.7-1.6-1.6l0,0c0-0.9,0.7-1.6,1.6-1.6h6.5
			C464.4,586.2,465.1,586.9,465.1,587.8z"/>
	</g>
	<g>
		<defs>
			<rect id="SVGID_209_" width="1000" height="700"/>
		</defs>
		<clipPath id="SVGID_210_">
			<use xlink:href="#SVGID_209_"  style="overflow:visible;"/>
		</clipPath>
		<path class="st107" d="M451.1,573.8L451.1,573.8c0.9,0,1.6,0.7,1.6,1.6v6.5c0,0.9-0.7,1.6-1.6,1.6l0,0c-0.9,0-1.6-0.7-1.6-1.6
			v-6.5C449.4,574.6,450.2,573.8,451.1,573.8z"/>
	</g>
	<g>
		<defs>
			<rect id="SVGID_211_" width="1000" height="700"/>
		</defs>
		<clipPath id="SVGID_212_">
			<use xlink:href="#SVGID_211_"  style="overflow:visible;"/>
		</clipPath>
		<path class="st108" d="M437.1,587.8L437.1,587.8c0-0.9,0.7-1.6,1.6-1.6h6.5c0.9,0,1.6,0.7,1.6,1.6l0,0c0,0.9-0.7,1.6-1.6,1.6h-6.5
			C437.8,589.5,437.1,588.8,437.1,587.8z"/>
	</g>
	<g>
		<defs>
			<rect id="SVGID_213_" width="1000" height="700"/>
		</defs>
		<clipPath id="SVGID_214_">
			<use xlink:href="#SVGID_213_"  style="overflow:visible;"/>
		</clipPath>
		<path class="st109" d="M651.9,530.5c-4.5,0.4-9.2-0.2-13.8-1.5c-17.9,3.7-32.2,1.3-39.3-0.6c11.2,8.2,35.5,13.5,65,0.4
			C659.7,529.8,655.6,530.2,651.9,530.5z"/>
	</g>
	<g>
		<defs>
			<rect id="SVGID_215_" width="1000" height="700"/>
		</defs>
		<clipPath id="SVGID_216_">
			<use xlink:href="#SVGID_215_"  style="overflow:visible;"/>
		</clipPath>
		<path class="st110" d="M643.3,532.5c-0.2,1.5,0.8,2.8,2.3,3s2.8-0.8,3-2.3"/>
	</g>
	<g>
		<defs>
			<rect id="SVGID_217_" width="1000" height="700"/>
		</defs>
		<clipPath id="SVGID_218_">
			<use xlink:href="#SVGID_217_"  style="overflow:visible;"/>
		</clipPath>
		<path class="st111" d="M654.2,527.5l-10.6-0.5c-1.6,0.9-3.7,1.6-5.9,2c-0.5,2.9-0.9,7.6,1.8,10.1
			C645.5,544.6,657.2,540.4,654.2,527.5z"/>
	</g>
	<g>
		<defs>
			<rect id="SVGID_219_" width="1000" height="700"/>
		</defs>
		<clipPath id="SVGID_220_">
			<use xlink:href="#SVGID_219_"  style="overflow:visible;"/>
		</clipPath>
		<g class="st112">
			<path class="st36" d="M76.6,635L76.6,635C68,635,61,628,61,619.4v-62.5c0-8.6,7-15.6,15.6-15.6l0,0c8.6,0,15.6,7,15.6,15.6v62.5
				C92.2,628,85.2,635,76.6,635z"/>
			<path class="st36" d="M210.9,500L210.9,500c0,8.6-7,15.6-15.6,15.6h-62.5c-8.6,0-15.6-7-15.6-15.6l0,0c0-8.6,7-15.6,15.6-15.6
				h62.5C203.9,484.3,210.9,491.3,210.9,500z"/>
			<path class="st36" d="M76.6,365.9L76.6,365.9c8.6,0,15.6,7,15.6,15.6V444c0,8.6-7,15.6-15.6,15.6l0,0c-8.6,0-15.6-7-15.6-15.6
				v-62.5C60.9,372.9,67.9,365.9,76.6,365.9z"/>
			<path class="st36" d="M-57.5,500L-57.5,500c0-8.6,7-15.6,15.6-15.6h62.5c8.6,0,15.6,7,15.6,15.6l0,0c0,8.6-7,15.6-15.6,15.6
				h-62.5C-50.5,515.6-57.5,508.6-57.5,500z"/>
		</g>
	</g>
	<g>
		<defs>
			<rect id="SVGID_221_" width="1000" height="700"/>
		</defs>
		<clipPath id="SVGID_222_">
			<use xlink:href="#SVGID_221_"  style="overflow:visible;"/>
		</clipPath>
		<g class="st113">
			<g class="st44">
				<path class="st5" d="M85.5,515.3h8.1v-25.9c0-0.7,0-1.5,0.1-2.4l-6.8,5.8c-0.2,0.2-0.5,0.3-0.7,0.4c-0.2,0-0.4,0-0.6,0
					c-0.2,0-0.4-0.1-0.5-0.2c-0.2-0.1-0.3-0.2-0.4-0.3l-1.5-2l11.3-9.8h3.8v34.5h7.5v3.6H85.5V515.3z"/>
				<path class="st5" d="M122.2,495.1c-0.4,0.4-0.7,0.8-1,1.2c-0.3,0.4-0.6,0.8-0.9,1.2c0.9-0.6,1.9-1.1,3-1.4s2.3-0.5,3.5-0.5
					c1.5,0,3,0.3,4.3,0.8s2.5,1.2,3.6,2.2c1,1,1.8,2.1,2.4,3.6c0.6,1.4,0.9,3,0.9,4.8c0,1.7-0.3,3.4-1,4.9c-0.6,1.5-1.5,2.8-2.7,3.9
					c-1.1,1.1-2.5,2-4.1,2.6c-1.6,0.6-3.4,1-5.3,1c-1.9,0-3.6-0.3-5.2-0.9c-1.6-0.6-2.9-1.5-4-2.6s-1.9-2.5-2.5-4.1
					s-0.9-3.4-0.9-5.4c0-1.7,0.4-3.4,1.1-5.3c0.7-1.9,1.9-3.9,3.5-6l9.6-13c0.2-0.3,0.6-0.6,1-0.8c0.4-0.2,0.9-0.3,1.5-0.3h4.2
					L122.2,495.1z M117,507.2c0,1.2,0.2,2.3,0.5,3.3s0.9,1.9,1.6,2.6c0.7,0.7,1.5,1.3,2.5,1.7c1,0.4,2.1,0.6,3.4,0.6
					c1.3,0,2.4-0.2,3.5-0.6c1-0.4,1.9-1,2.6-1.7c0.7-0.7,1.3-1.6,1.7-2.6s0.6-2.1,0.6-3.2c0-1.2-0.2-2.4-0.6-3.4s-0.9-1.8-1.7-2.5
					c-0.7-0.7-1.6-1.2-2.6-1.6c-1-0.4-2.1-0.6-3.3-0.6c-1.3,0-2.4,0.2-3.4,0.6s-1.9,1-2.6,1.7c-0.7,0.7-1.3,1.6-1.6,2.5
					C117.2,505.1,117,506.1,117,507.2z"/>
			</g>
			<g class="st44">
				<path class="st5" d="M80.7,548.9v-12.7h2.2v8.6c0,0.2,0,0.3,0,0.5c0,0.2,0,0.4-0.1,0.6c0.1-0.2,0.1-0.3,0.2-0.4
					c0.1-0.1,0.2-0.3,0.2-0.4c0,0,0.1-0.1,0.3-0.4c0.2-0.2,0.4-0.6,0.7-1c0.3-0.4,0.6-0.8,1-1.3c0.4-0.5,0.7-1,1.1-1.5
					c0.9-1.2,1.9-2.6,3-4.1c0.1-0.1,0.2-0.3,0.4-0.4c0.1-0.1,0.3-0.2,0.5-0.2h1.3v12.7h-2.2v-8.6c0-0.2,0-0.3,0-0.5s0-0.4,0.1-0.6
					c-0.1,0.2-0.2,0.3-0.2,0.5c-0.1,0.1-0.2,0.3-0.2,0.4c0,0-0.1,0.1-0.3,0.4c-0.2,0.2-0.4,0.6-0.7,1s-0.6,0.8-1,1.3
					c-0.4,0.5-0.7,1-1.1,1.5c-0.9,1.2-1.9,2.6-3,4.1c-0.1,0.1-0.2,0.3-0.3,0.4c-0.1,0.1-0.3,0.2-0.5,0.2H80.7z"/>
				<path class="st5" d="M97.3,536.2v5.5h3.1c0.1-0.9,0.3-1.6,0.5-2.3s0.7-1.3,1.2-1.8c0.5-0.5,1.1-0.9,1.7-1.1s1.4-0.4,2.2-0.4
					c0.9,0,1.7,0.2,2.4,0.5c0.7,0.3,1.3,0.7,1.8,1.3c0.5,0.6,0.9,1.3,1.2,2.1c0.3,0.8,0.4,1.7,0.4,2.7c0,1-0.1,1.9-0.4,2.7
					s-0.7,1.5-1.2,2c-0.5,0.6-1.1,1-1.8,1.3c-0.7,0.3-1.5,0.5-2.4,0.5c-0.8,0-1.6-0.1-2.3-0.4s-1.2-0.6-1.7-1.1
					c-0.5-0.5-0.9-1.1-1.1-1.8s-0.5-1.5-0.5-2.4h-3.1v5.6H95v-12.7H97.3z M106,547.3c1.2,0,2-0.4,2.6-1.3c0.6-0.8,0.9-2,0.9-3.5
					c0-1.5-0.3-2.7-0.9-3.5c-0.6-0.8-1.4-1.3-2.6-1.3c-1.2,0-2,0.4-2.6,1.3s-0.9,2-0.9,3.5c0,1.5,0.3,2.7,0.9,3.5
					C104,546.9,104.9,547.3,106,547.3z"/>
				<path class="st5" d="M125.3,536.2v12.7h-2.2V538h-4c-0.1,1.6-0.2,3-0.5,4.2c-0.2,1.2-0.4,2.2-0.7,3c-0.3,0.8-0.6,1.5-0.9,2
					c-0.3,0.5-0.7,0.9-1.1,1.2c-0.4,0.3-0.8,0.5-1.2,0.6c-0.4,0.1-0.8,0.1-1.2,0.1c-0.7,0-1.1-0.1-1.1-0.3v-1.4h0.6
					c0.3,0,0.6,0,0.9-0.1c0.3-0.1,0.6-0.3,0.9-0.6s0.5-0.7,0.8-1.2c0.3-0.5,0.5-1.2,0.7-2c0.2-0.8,0.4-1.8,0.5-3
					c0.2-1.2,0.3-2.6,0.4-4.2H125.3z"/>
				<path class="st5" d="M137.6,548.9h-2.1v-5.3h-1c-0.2,0-0.4,0-0.6,0.1s-0.3,0.1-0.4,0.2s-0.2,0.2-0.3,0.3
					c-0.1,0.1-0.2,0.2-0.3,0.4l-2.8,3.7c-0.1,0.3-0.3,0.5-0.5,0.6s-0.5,0.2-0.9,0.2h-1.6l3.7-4.8c0.3-0.5,0.7-0.8,1.2-1
					c-0.6-0.1-1.2-0.2-1.6-0.4c-0.4-0.2-0.8-0.5-1.1-0.8s-0.5-0.6-0.6-1s-0.2-0.7-0.2-1.1c0-0.4,0.1-0.9,0.3-1.3
					c0.2-0.4,0.4-0.8,0.8-1.2c0.4-0.3,0.9-0.6,1.5-0.8c0.6-0.2,1.3-0.3,2.2-0.3h4.3V548.9z M130.9,539.9c0,0.7,0.2,1.2,0.8,1.6
					s1.2,0.6,2.1,0.6h1.8v-4.4h-2.1c-0.5,0-0.9,0.1-1.2,0.2c-0.3,0.1-0.6,0.3-0.8,0.5c-0.2,0.2-0.3,0.5-0.4,0.7
					S130.9,539.7,130.9,539.9z"/>
			</g>
			<g class="st44">
				<path class="st11" d="M153.6,530.8c0.8,0,1.5,0.1,2.1,0.3c0.7,0.2,1.2,0.6,1.7,1c0.5,0.4,0.9,1,1.1,1.6c0.3,0.6,0.4,1.3,0.4,2.1
					c0,0.7-0.1,1.3-0.3,1.9c-0.2,0.6-0.5,1.1-0.8,1.6c-0.3,0.5-0.7,1-1.2,1.5c-0.4,0.5-0.9,1-1.4,1.5l-4.7,4.8
					c0.3-0.1,0.7-0.2,1-0.2c0.3-0.1,0.7-0.1,1-0.1h6c0.2,0,0.4,0.1,0.6,0.2c0.1,0.1,0.2,0.3,0.2,0.6v1.3h-12v-0.8
					c0-0.2,0-0.3,0.1-0.5s0.2-0.3,0.3-0.5l5.7-5.8c0.5-0.5,0.9-0.9,1.3-1.4c0.4-0.4,0.7-0.9,1-1.3c0.3-0.4,0.5-0.9,0.6-1.4
					c0.1-0.5,0.2-1,0.2-1.5s-0.1-1-0.2-1.4c-0.2-0.4-0.4-0.7-0.7-1c-0.3-0.3-0.6-0.5-1-0.6c-0.4-0.1-0.8-0.2-1.3-0.2
					c-0.5,0-0.9,0.1-1.3,0.2c-0.4,0.1-0.7,0.3-1,0.6c-0.3,0.2-0.5,0.5-0.7,0.8c-0.2,0.3-0.3,0.7-0.4,1.1c-0.1,0.3-0.2,0.5-0.4,0.6
					c-0.2,0.1-0.4,0.1-0.7,0.1l-1.2-0.2c0.1-0.8,0.3-1.5,0.7-2.2c0.3-0.6,0.8-1.2,1.3-1.6c0.5-0.4,1.1-0.7,1.8-1
					S152.8,530.8,153.6,530.8z"/>
				<path class="st11" d="M174.4,539.9c0,1.6-0.2,2.9-0.5,4.1c-0.3,1.1-0.8,2.1-1.4,2.8c-0.6,0.8-1.3,1.3-2.1,1.7
					c-0.8,0.4-1.6,0.5-2.6,0.5c-0.9,0-1.8-0.2-2.6-0.5c-0.8-0.4-1.5-0.9-2.1-1.7c-0.6-0.8-1-1.7-1.4-2.8c-0.3-1.1-0.5-2.5-0.5-4.1
					c0-1.6,0.2-2.9,0.5-4.1c0.3-1.1,0.8-2.1,1.4-2.9c0.6-0.8,1.3-1.3,2.1-1.7c0.8-0.4,1.6-0.5,2.6-0.5c0.9,0,1.8,0.2,2.6,0.5
					c0.8,0.4,1.5,0.9,2.1,1.7c0.6,0.8,1,1.7,1.4,2.9C174.3,537,174.4,538.4,174.4,539.9z M172.1,539.9c0-1.4-0.1-2.5-0.3-3.4
					c-0.2-0.9-0.5-1.7-0.9-2.2c-0.4-0.6-0.8-1-1.3-1.2c-0.5-0.2-1-0.4-1.6-0.4c-0.5,0-1.1,0.1-1.6,0.4c-0.5,0.2-1,0.7-1.3,1.2
					c-0.4,0.6-0.7,1.3-0.9,2.2c-0.2,0.9-0.3,2.1-0.3,3.4c0,1.4,0.1,2.5,0.3,3.4c0.2,0.9,0.5,1.7,0.9,2.2c0.4,0.6,0.8,1,1.3,1.2
					c0.5,0.2,1,0.4,1.6,0.4c0.6,0,1.1-0.1,1.6-0.4c0.5-0.2,1-0.7,1.3-1.2c0.4-0.6,0.7-1.3,0.9-2.2
					C172,542.4,172.1,541.3,172.1,539.9z"/>
				<path class="st11" d="M176.8,538.1c0-0.2,0-0.4,0.1-0.6s0.2-0.4,0.3-0.5c0.1-0.1,0.3-0.3,0.5-0.3c0.2-0.1,0.4-0.1,0.6-0.1
					s0.4,0,0.6,0.1c0.2,0.1,0.4,0.2,0.5,0.3c0.1,0.1,0.3,0.3,0.3,0.5c0.1,0.2,0.1,0.4,0.1,0.6c0,0.2,0,0.4-0.1,0.6
					c-0.1,0.2-0.2,0.4-0.3,0.5c-0.1,0.1-0.3,0.3-0.5,0.3c-0.2,0.1-0.4,0.1-0.6,0.1s-0.4,0-0.6-0.1c-0.2-0.1-0.4-0.2-0.5-0.3
					c-0.1-0.1-0.2-0.3-0.3-0.5S176.8,538.4,176.8,538.1z M176.8,547.5c0-0.2,0-0.4,0.1-0.6s0.2-0.4,0.3-0.5c0.1-0.1,0.3-0.3,0.5-0.3
					c0.2-0.1,0.4-0.1,0.6-0.1s0.4,0,0.6,0.1c0.2,0.1,0.4,0.2,0.5,0.3c0.1,0.1,0.3,0.3,0.3,0.5c0.1,0.2,0.1,0.4,0.1,0.6
					c0,0.2,0,0.4-0.1,0.6c-0.1,0.2-0.2,0.4-0.3,0.5c-0.1,0.1-0.3,0.3-0.5,0.3c-0.2,0.1-0.4,0.1-0.6,0.1s-0.4,0-0.6-0.1
					c-0.2-0.1-0.4-0.2-0.5-0.3c-0.1-0.1-0.2-0.3-0.3-0.5S176.8,547.7,176.8,547.5z"/>
				<path class="st11" d="M195.2,539.9c0,1.6-0.2,2.9-0.5,4.1c-0.3,1.1-0.8,2.1-1.4,2.8c-0.6,0.8-1.3,1.3-2.1,1.7
					c-0.8,0.4-1.6,0.5-2.6,0.5c-0.9,0-1.8-0.2-2.6-0.5c-0.8-0.4-1.5-0.9-2.1-1.7c-0.6-0.8-1-1.7-1.4-2.8c-0.3-1.1-0.5-2.5-0.5-4.1
					c0-1.6,0.2-2.9,0.5-4.1c0.3-1.1,0.8-2.1,1.4-2.9c0.6-0.8,1.3-1.3,2.1-1.7c0.8-0.4,1.6-0.5,2.6-0.5c0.9,0,1.8,0.2,2.6,0.5
					c0.8,0.4,1.5,0.9,2.1,1.7c0.6,0.8,1,1.7,1.4,2.9C195,537,195.2,538.4,195.2,539.9z M192.9,539.9c0-1.4-0.1-2.5-0.3-3.4
					c-0.2-0.9-0.5-1.7-0.9-2.2c-0.4-0.6-0.8-1-1.3-1.2c-0.5-0.2-1-0.4-1.6-0.4c-0.5,0-1.1,0.1-1.6,0.4c-0.5,0.2-1,0.7-1.3,1.2
					c-0.4,0.6-0.7,1.3-0.9,2.2c-0.2,0.9-0.3,2.1-0.3,3.4c0,1.4,0.1,2.5,0.3,3.4c0.2,0.9,0.5,1.7,0.9,2.2c0.4,0.6,0.8,1,1.3,1.2
					c0.5,0.2,1,0.4,1.6,0.4c0.6,0,1.1-0.1,1.6-0.4c0.5-0.2,1-0.7,1.3-1.2c0.4-0.6,0.7-1.3,0.9-2.2
					C192.8,542.4,192.9,541.3,192.9,539.9z"/>
				<path class="st11" d="M209.7,539.9c0,1.6-0.2,2.9-0.5,4.1c-0.3,1.1-0.8,2.1-1.4,2.8c-0.6,0.8-1.3,1.3-2.1,1.7
					c-0.8,0.4-1.6,0.5-2.6,0.5c-0.9,0-1.8-0.2-2.6-0.5c-0.8-0.4-1.5-0.9-2.1-1.7c-0.6-0.8-1-1.7-1.4-2.8c-0.3-1.1-0.5-2.5-0.5-4.1
					c0-1.6,0.2-2.9,0.5-4.1c0.3-1.1,0.8-2.1,1.4-2.9c0.6-0.8,1.3-1.3,2.1-1.7c0.8-0.4,1.6-0.5,2.6-0.5c0.9,0,1.8,0.2,2.6,0.5
					c0.8,0.4,1.5,0.9,2.1,1.7c0.6,0.8,1,1.7,1.4,2.9C209.5,537,209.7,538.4,209.7,539.9z M207.4,539.9c0-1.4-0.1-2.5-0.3-3.4
					c-0.2-0.9-0.5-1.7-0.9-2.2c-0.4-0.6-0.8-1-1.3-1.2c-0.5-0.2-1-0.4-1.6-0.4c-0.5,0-1.1,0.1-1.6,0.4c-0.5,0.2-1,0.7-1.3,1.2
					c-0.4,0.6-0.7,1.3-0.9,2.2c-0.2,0.9-0.3,2.1-0.3,3.4c0,1.4,0.1,2.5,0.3,3.4c0.2,0.9,0.5,1.7,0.9,2.2c0.4,0.6,0.8,1,1.3,1.2
					c0.5,0.2,1,0.4,1.6,0.4c0.6,0,1.1-0.1,1.6-0.4c0.5-0.2,1-0.7,1.3-1.2c0.4-0.6,0.7-1.3,0.9-2.2
					C207.3,542.4,207.4,541.3,207.4,539.9z"/>
			</g>
		</g>
	</g>
	<g>
		<defs>
			<rect id="SVGID_223_" width="1000" height="700"/>
		</defs>
		<clipPath id="SVGID_224_">
			<use xlink:href="#SVGID_223_"  style="overflow:visible;"/>
		</clipPath>
		<path class="st114" d="M212,654.4H91.6C71.4,654.4,55,638,55,617.7l0,0c0-20.3,16.4-36.7,36.7-36.7H212
			c20.3,0,36.7,16.4,36.7,36.7l0,0C248.7,638,232.2,654.4,212,654.4z"/>
	</g>
	<g>
		<defs>
			<rect id="SVGID_225_" width="1000" height="700"/>
		</defs>
		<clipPath id="SVGID_226_">
			<use xlink:href="#SVGID_225_"  style="overflow:visible;"/>
		</clipPath>
		<g class="st115">
			<g class="st44">
				<path class="st5" d="M83.6,619.6v6.7h-2.4v-17.9h5.3c1.1,0,2.1,0.1,3,0.4c0.8,0.3,1.5,0.6,2.1,1.1c0.5,0.5,1,1.1,1.2,1.8
					c0.3,0.7,0.4,1.4,0.4,2.3c0,0.8-0.1,1.6-0.4,2.3c-0.3,0.7-0.7,1.3-1.3,1.8s-1.3,0.9-2.1,1.2c-0.8,0.3-1.8,0.4-2.9,0.4H83.6z
					 M83.6,617.7h2.9c0.7,0,1.3-0.1,1.8-0.3c0.5-0.2,1-0.4,1.3-0.8s0.6-0.7,0.8-1.2c0.2-0.5,0.3-1,0.3-1.5c0-1.1-0.4-2-1.1-2.7
					c-0.7-0.6-1.8-1-3.2-1h-2.9V617.7z"/>
				<path class="st5" d="M100.2,613.4c0.8,0,1.5,0.1,2.1,0.4c0.6,0.3,1.2,0.6,1.7,1.1c0.5,0.5,0.8,1.1,1.1,1.8s0.4,1.5,0.4,2.4
					c0,0.4,0,0.6-0.1,0.7c-0.1,0.1-0.2,0.2-0.4,0.2h-8.4c0,0.8,0.1,1.5,0.3,2.1s0.5,1.1,0.8,1.5c0.3,0.4,0.8,0.7,1.2,0.9
					c0.5,0.2,1,0.3,1.6,0.3c0.6,0,1-0.1,1.4-0.2c0.4-0.1,0.8-0.3,1-0.4c0.3-0.2,0.5-0.3,0.7-0.4c0.2-0.1,0.4-0.2,0.5-0.2
					c0.2,0,0.3,0.1,0.4,0.2l0.6,0.8c-0.3,0.3-0.6,0.6-1,0.9c-0.4,0.2-0.8,0.4-1.2,0.6c-0.4,0.2-0.9,0.3-1.4,0.4
					c-0.5,0.1-0.9,0.1-1.4,0.1c-0.9,0-1.7-0.1-2.4-0.4s-1.4-0.7-1.9-1.3c-0.5-0.6-1-1.3-1.3-2.1c-0.3-0.8-0.4-1.8-0.4-2.9
					c0-0.9,0.1-1.7,0.4-2.5c0.3-0.8,0.7-1.4,1.2-2s1.1-1,1.9-1.3C98.4,613.6,99.2,613.4,100.2,613.4z M100.2,615.1
					c-1.1,0-1.9,0.3-2.5,0.9c-0.6,0.6-1,1.5-1.1,2.6h6.9c0-0.5-0.1-1-0.2-1.4c-0.1-0.4-0.4-0.8-0.6-1.1s-0.6-0.6-1-0.7
					S100.7,615.1,100.2,615.1z"/>
				<path class="st5" d="M116.4,613.6v1.7h-6v11h-2.2v-12.7H116.4z"/>
				<path class="st5" d="M118.5,626.3v-12.7h2.2v8.6c0,0.2,0,0.3,0,0.5s0,0.4-0.1,0.6c0.1-0.2,0.1-0.3,0.2-0.4
					c0.1-0.1,0.2-0.3,0.2-0.4c0,0,0.1-0.1,0.3-0.4c0.2-0.2,0.4-0.6,0.7-1s0.6-0.8,1-1.3c0.4-0.5,0.7-1,1.1-1.5
					c0.9-1.2,1.9-2.6,3-4.1c0.1-0.1,0.2-0.3,0.3-0.4c0.1-0.1,0.3-0.2,0.5-0.2h1.3v12.7h-2.2v-8.6c0-0.2,0-0.3,0-0.5s0-0.4,0.1-0.6
					c-0.1,0.2-0.2,0.3-0.2,0.5c-0.1,0.1-0.2,0.3-0.2,0.4c0,0-0.1,0.1-0.3,0.4c-0.2,0.2-0.4,0.6-0.7,1c-0.3,0.4-0.6,0.8-1,1.3
					c-0.4,0.5-0.7,1-1.1,1.5c-0.9,1.2-1.9,2.6-3,4.1c-0.1,0.1-0.2,0.3-0.3,0.4c-0.1,0.1-0.3,0.2-0.5,0.2H118.5z"/>
				<path class="st5" d="M141.6,615.9c-0.1,0.1-0.1,0.2-0.2,0.2c-0.1,0-0.2,0.1-0.3,0.1c-0.1,0-0.3-0.1-0.4-0.2
					c-0.1-0.1-0.3-0.2-0.6-0.3c-0.2-0.1-0.5-0.2-0.8-0.3s-0.7-0.2-1.2-0.2c-0.6,0-1.2,0.1-1.6,0.3s-0.9,0.5-1.2,1
					c-0.3,0.4-0.6,0.9-0.7,1.5c-0.2,0.6-0.2,1.3-0.2,2c0,0.8,0.1,1.4,0.3,2s0.4,1.1,0.7,1.5s0.7,0.7,1.2,0.9c0.5,0.2,1,0.3,1.5,0.3
					c0.5,0,1-0.1,1.3-0.2c0.3-0.1,0.6-0.3,0.9-0.4c0.2-0.2,0.4-0.3,0.6-0.4c0.2-0.1,0.3-0.2,0.5-0.2c0.2,0,0.3,0.1,0.4,0.2l0.6,0.8
					c-0.3,0.3-0.6,0.6-0.9,0.9c-0.3,0.2-0.7,0.4-1.1,0.6c-0.4,0.2-0.8,0.3-1.3,0.4s-0.9,0.1-1.3,0.1c-0.8,0-1.5-0.1-2.2-0.4
					c-0.7-0.3-1.3-0.7-1.8-1.3c-0.5-0.6-0.9-1.2-1.2-2c-0.3-0.8-0.4-1.7-0.4-2.8c0-0.9,0.1-1.8,0.4-2.6c0.3-0.8,0.6-1.5,1.1-2.1
					s1.1-1,1.9-1.4s1.6-0.5,2.5-0.5c0.9,0,1.7,0.1,2.4,0.4c0.7,0.3,1.3,0.7,1.8,1.2L141.6,615.9z"/>
				<path class="st5" d="M143.3,613.6h11.9v1.7h-4.9v11h-2.2v-11h-4.9V613.6z"/>
				<path class="st5" d="M157.4,630.6v-16.9h1.3c0.3,0,0.5,0.2,0.6,0.5l0.2,1.5c0.5-0.7,1.2-1.2,1.9-1.6c0.7-0.4,1.5-0.6,2.4-0.6
					c0.7,0,1.4,0.1,2,0.4c0.6,0.3,1.1,0.7,1.5,1.2s0.7,1.2,1,2c0.2,0.8,0.3,1.7,0.3,2.8c0,0.9-0.1,1.8-0.4,2.6
					c-0.2,0.8-0.6,1.5-1.1,2.1c-0.5,0.6-1,1-1.7,1.4c-0.7,0.3-1.4,0.5-2.3,0.5c-0.8,0-1.4-0.1-2-0.4c-0.6-0.3-1-0.6-1.5-1.1v5.6
					H157.4z M163,615.2c-0.7,0-1.4,0.2-1.9,0.5c-0.5,0.3-1,0.8-1.5,1.4v6.1c0.4,0.5,0.8,0.9,1.3,1.2c0.5,0.2,1,0.3,1.6,0.3
					c1.2,0,2.1-0.4,2.7-1.3s0.9-2,0.9-3.6c0-0.8-0.1-1.5-0.2-2.1s-0.4-1.1-0.6-1.5c-0.3-0.4-0.6-0.7-1-0.8
					C164,615.3,163.5,615.2,163,615.2z"/>
				<path class="st5" d="M179.4,626.3c-0.2,0-0.4,0-0.5-0.1c-0.1-0.1-0.2-0.2-0.3-0.4l-0.2-1.2c-0.3,0.3-0.7,0.6-1,0.8
					s-0.7,0.4-1,0.6c-0.3,0.2-0.7,0.3-1.1,0.4c-0.4,0.1-0.8,0.1-1.3,0.1c-0.5,0-1-0.1-1.4-0.2c-0.4-0.1-0.8-0.3-1.1-0.6
					s-0.6-0.6-0.8-1c-0.2-0.4-0.3-0.9-0.3-1.5c0-0.5,0.1-1,0.4-1.4c0.3-0.5,0.7-0.9,1.3-1.2c0.6-0.4,1.4-0.7,2.4-0.9
					c1-0.2,2.2-0.4,3.6-0.4v-1c0-1-0.2-1.7-0.6-2.2s-1-0.8-1.9-0.8c-0.5,0-1,0.1-1.4,0.2c-0.4,0.1-0.7,0.3-1,0.5
					c-0.3,0.2-0.5,0.3-0.7,0.5c-0.2,0.1-0.4,0.2-0.6,0.2c-0.1,0-0.3,0-0.4-0.1c-0.1-0.1-0.2-0.2-0.3-0.3l-0.4-0.7
					c0.7-0.7,1.5-1.2,2.3-1.5c0.8-0.3,1.7-0.5,2.7-0.5c0.7,0,1.3,0.1,1.9,0.4c0.5,0.2,1,0.6,1.4,1s0.7,0.9,0.8,1.5s0.3,1.2,0.3,2
					v8.1H179.4z M174.6,624.9c0.4,0,0.7,0,1.1-0.1c0.3-0.1,0.6-0.2,0.9-0.3c0.3-0.1,0.6-0.3,0.8-0.5c0.3-0.2,0.5-0.5,0.8-0.7v-2.6
					c-1,0-1.9,0.1-2.6,0.2c-0.7,0.1-1.3,0.3-1.8,0.5c-0.5,0.2-0.8,0.5-1,0.7c-0.2,0.3-0.3,0.6-0.3,1c0,0.3,0.1,0.6,0.2,0.9
					c0.1,0.2,0.3,0.4,0.4,0.6c0.2,0.2,0.4,0.3,0.7,0.3C174,624.9,174.3,624.9,174.6,624.9z"/>
				<path class="st5" d="M183.7,613.6h2.2v11h6.1v-11h2.2v11h2.3v5.4c0,0.2-0.1,0.4-0.2,0.5c-0.1,0.1-0.3,0.2-0.5,0.2h-1.4v-4.4
					h-10.8V613.6z"/>
				<path class="st5" d="M198.8,626.3v-12.7h2.2v8.6c0,0.2,0,0.3,0,0.5s0,0.4-0.1,0.6c0.1-0.2,0.1-0.3,0.2-0.4
					c0.1-0.1,0.2-0.3,0.2-0.4c0,0,0.1-0.1,0.3-0.4c0.2-0.2,0.4-0.6,0.7-1s0.6-0.8,1-1.3c0.4-0.5,0.7-1,1.1-1.5
					c0.9-1.2,1.9-2.6,3-4.1c0.1-0.1,0.2-0.3,0.3-0.4c0.1-0.1,0.3-0.2,0.5-0.2h1.3v12.7h-2.2v-8.6c0-0.2,0-0.3,0-0.5s0-0.4,0.1-0.6
					c-0.1,0.2-0.2,0.3-0.2,0.5c-0.1,0.1-0.2,0.3-0.2,0.4c0,0-0.1,0.1-0.3,0.4c-0.2,0.2-0.4,0.6-0.7,1c-0.3,0.4-0.6,0.8-1,1.3
					c-0.4,0.5-0.7,1-1.1,1.5c-0.9,1.2-1.9,2.6-3,4.1c-0.1,0.1-0.2,0.3-0.3,0.4c-0.1,0.1-0.3,0.2-0.5,0.2H198.8z"/>
				<path class="st5" d="M222,626.3h-2.1V621h-1c-0.2,0-0.4,0-0.6,0.1s-0.3,0.1-0.4,0.2s-0.2,0.2-0.3,0.3c-0.1,0.1-0.2,0.2-0.3,0.4
					l-2.8,3.7c-0.1,0.3-0.3,0.5-0.5,0.6c-0.2,0.1-0.5,0.2-0.9,0.2h-1.5l3.7-4.8c0.3-0.5,0.7-0.8,1.2-1c-0.6-0.1-1.2-0.2-1.6-0.4
					s-0.8-0.5-1.1-0.8s-0.5-0.6-0.6-1c-0.1-0.4-0.2-0.7-0.2-1.1c0-0.4,0.1-0.9,0.3-1.3s0.4-0.8,0.8-1.2c0.4-0.3,0.9-0.6,1.5-0.8
					c0.6-0.2,1.3-0.3,2.2-0.3h4.3V626.3z M215.2,617.4c0,0.7,0.2,1.2,0.7,1.6c0.5,0.4,1.2,0.6,2,0.6h1.8v-4.4h-2.1
					c-0.5,0-0.9,0.1-1.2,0.2c-0.3,0.1-0.6,0.3-0.8,0.5c-0.2,0.2-0.3,0.5-0.4,0.7C215.2,616.8,215.2,617.1,215.2,617.4z"/>
			</g>
		</g>
	</g>
	<g>
		<defs>
			<rect id="SVGID_227_" width="1000" height="700"/>
		</defs>
		<clipPath id="SVGID_228_">
			<use xlink:href="#SVGID_227_"  style="overflow:visible;"/>
		</clipPath>
		<g class="st116">
			<path class="st36" d="M425.2,154L425.2,154c-3.4,0-6.1-2.7-6.1-6.1v-24.5c0-3.4,2.7-6.1,6.1-6.1l0,0c3.4,0,6.1,2.7,6.1,6.1v24.5
				C431.3,151.3,428.6,154,425.2,154z"/>
			<path class="st36" d="M477.9,101L477.9,101c0,3.4-2.7,6.1-6.1,6.1h-24.5c-3.4,0-6.1-2.7-6.1-6.1l0,0c0-3.4,2.7-6.1,6.1-6.1h24.5
				C475.2,94.8,477.9,97.6,477.9,101z"/>
			<path class="st36" d="M425.2,48.3L425.2,48.3c3.4,0,6.1,2.7,6.1,6.1V79c0,3.4-2.7,6.1-6.1,6.1l0,0c-3.4,0-6.1-2.7-6.1-6.1V54.4
				C419,51.1,421.8,48.3,425.2,48.3z"/>
			<path class="st36" d="M372.5,101L372.5,101c0-3.4,2.7-6.1,6.1-6.1h24.5c3.4,0,6.1,2.7,6.1,6.1l0,0c0,3.4-2.7,6.1-6.1,6.1h-24.5
				C375.3,107.1,372.5,104.4,372.5,101z"/>
		</g>
	</g>
</g>
</svg>
