<?xml version="1.0" encoding="utf-8"?>
<!-- Generator: Adobe Illustrator 23.1.1, SVG Export Plug-In . SVG Version: 6.00 Build 0)  -->
<svg version="1.1" id="Layer_1" xmlns="http://www.w3.org/2000/svg" xmlns:xlink="http://www.w3.org/1999/xlink" x="0px" y="0px"
	 viewBox="0 0 1000 700" style="enable-background:new 0 0 1000 700;" xml:space="preserve">
<style type="text/css">
	.st0{clip-path:url(#SVGID_2_);}
	.st1{fill:url(#SVGID_3_);}
	.st2{fill:#FFB8B6;}
	.st3{opacity:0.3;fill:#341C7F;enable-background:new    ;}
	.st4{fill:#FFFFFF;}
	.st5{fill:#3D9BAA;}
	.st6{fill:url(#SVGID_4_);}
	.st7{fill:#FFB901;}
	.st8{fill:none;stroke:#51227A;stroke-linecap:round;stroke-miterlimit:10;}
	.st9{fill:#51227A;}
	.st10{fill:#FF8585;}
	.st11{fill:#E59E00;}
	.st12{opacity:0.1;fill:#FFB901;enable-background:new    ;}
	.st13{enable-background:new    ;}
	.st14{fill:none;stroke:#FFFFFF;stroke-width:2;stroke-linecap:round;stroke-miterlimit:10;}
	.st15{fill:none;stroke:#FFFFFF;stroke-linecap:round;stroke-miterlimit:10;}
	.st16{fill:#341C7F;stroke:#51227A;stroke-miterlimit:10;}
	.st17{fill:none;stroke:#341C7F;stroke-linecap:round;stroke-miterlimit:10;}
	.st18{fill:none;stroke:#FFB901;stroke-miterlimit:10;}
</style>
<title>im</title>
<g>
	<defs>
		<rect id="SVGID_1_" width="1000" height="700"/>
	</defs>
	<clipPath id="SVGID_2_">
		<use xlink:href="#SVGID_1_"  style="overflow:visible;"/>
	</clipPath>
	<g class="st0">
		
			<linearGradient id="SVGID_3_" gradientUnits="userSpaceOnUse" x1="500" y1="678.85" x2="500" y2="23.81" gradientTransform="matrix(1 0 0 -1 0 702)">
			<stop  offset="0" style="stop-color:#9734A5"/>
			<stop  offset="1" style="stop-color:#672895"/>
		</linearGradient>
		<rect class="st1" width="1000" height="700"/>
		<path class="st2" d="M736.1,611.4c-14.7,0-48.3-11.9-49.3-26.6c-2.2-30,11.2-27.8,49.3-26.6c89.1,2.9,161.8-72.6,161.8-161.8
			s-72.6-161.8-161.8-161.8c-14.7-0.3-26.3-12.4-26-27.1c0.3-14.3,11.8-25.8,26-26c118.7-0.8,215.5,94.7,216.3,213.4
			S857.7,610.6,739,611.4C738,611.4,737,611.4,736.1,611.4z"/>
		<path class="st3" d="M766,220h8l-6.4-36c-2.8-0.4-5.6-0.8-8.5-1.1L766,220z"/>
		<path class="st2" d="M652,610.8c-118.7-0.8-214.2-97.7-213.4-216.3C439.4,276.9,534.5,181.8,652,181c14.7,0.3,26.3,12.4,26,27.1
			c-0.3,14.3-11.8,25.8-26,26c-89.2,0-161.8,72.6-161.8,161.8S562.8,559.4,652,557.6c62.1-1.3,49.3,11.9,49.3,26.6
			S666.7,610.8,652,610.8z"/>
		<path class="st4" d="M765.7,250.1L639,251v-80l117.5-1c2,0,3.7,1.4,4,3.4l11.3,69.4c0.6,3.4-1.7,6.6-5.1,7.2
			C766.3,250,766,250,765.7,250.1z"/>
		<path class="st5" d="M761.7,250.1L635,251v-80l120.1-1c0.5,0,1,0.4,1.1,0.9l11.7,71.9c0.6,3.4-1.7,6.6-5.2,7.2
			C762.3,250,762,250,761.7,250.1z"/>
		
			<linearGradient id="SVGID_4_" gradientUnits="userSpaceOnUse" x1="693.94" y1="96.45" x2="700.94" y2="96.45" gradientTransform="matrix(1 0 0 -1 0 702)">
			<stop  offset="0" style="stop-color:#7536E9"/>
			<stop  offset="1" style="stop-color:#4A0CA5"/>
		</linearGradient>
		<circle class="st6" cx="697.4" cy="605.5" r="3.5"/>
		<path class="st2" d="M759.6,216.8l34.9,2.5c4.4,0.3,7.7,4.1,7.4,8.6l0,0c-0.3,4.4-4.1,7.7-8.6,7.4l-34.9-2.5
			c-4.4-0.3-7.7-4.1-7.4-8.6l0,0C751.4,219.8,755.2,216.5,759.6,216.8z"/>
		<path class="st7" d="M628.4,588.3h133.3c0,0,13.6,39.5,17.1,74.3c4.4,43.8,0.6,74.2,0.6,74.2H622c0,0-8.9-36.8-6.3-74.2
			C618,627.8,628.4,588.3,628.4,588.3z"/>
		<path class="st7" d="M888,244.6c-9.1-9.2-19.1-17.5-29.7-24.9c-10.5-7.3-21.6-13.6-33.2-18.9c0,0,0.7,11-5.2,25.6
			c-3.6,8.7-8.7,16.8-15.2,23.6c27.4,12.9,50.7,33.2,67.2,58.7c17,26.1,26,56.6,26,87.8c0,43.2-17.1,84.7-47.5,115.4
			c-29.3,29.7-69.7,47.8-114.3,46.3c-19.1-0.6-31.9-1.5-39.8,1.5s-10.7,10-9.5,25c0.5,7.3,9.2,14,19.6,18.8s22.4,7.8,29.8,7.8
			c118.6,0.2,214.9-95.8,215.1-214.4C951.2,339.9,928.5,285,888,244.6z"/>
		<path class="st7" d="M652,557.6c-44.6,0.9-85-17.2-114.3-46.8c-30.4-30.6-47.4-71.9-47.4-115c0-30.9,8.8-61.1,25.5-87.1
			c16.2-25.3,39.1-45.6,66.2-58.6c0,0-7.9-7.1-13.5-24.4c-5.7-17.6-3.5-26.4-3.5-26.4c-12,5.3-23.5,11.7-34.3,19.1
			c-11,7.5-21.2,16.1-30.6,25.5c-84,83.7-84.2,219.7-0.5,303.7c40.4,40.5,95.2,63.2,152.4,63.1c7.3,0,19.7-3,30.2-7.8
			s19.2-11.5,19.2-18.8s3.2-14.3-1.4-19.3S683.1,557,652,557.6z"/>
		<polygon class="st3" points="701,569 690,575 690,567 691,565 700.6,565.8 		"/>
		<path class="st8" d="M690.9,567c0,0,6.1,50-0.9,141"/>
		<path class="st9" d="M695.9,565l-6,10c0,0-22-7-22-14.8c0-1.3,1.1-2.4,2.4-2.4h29.4"/>
		<path class="st4" d="M622.6,170.7l127.7-4.1c3.7-0.1,6.7,3.4,5.9,6.8l-12.7,75.5c-0.5,2.7-2.8,4.8-5.6,4.9l-127.7,4.2
			c-3.2,0.1-5.9-2.4-6-5.6c0-0.4,0-0.8,0.1-1.2l12.6-75.5C617.5,172.8,619.8,170.8,622.6,170.7z"/>
		<path class="st9" d="M694.7,565l6,10c0,0,22-7,22-14.8c0-1.3-1.1-2.4-2.4-2.4c0,0,0,0,0,0h-29.4"/>
		<path class="st2" d="M717.2,560.3c0,0-7.2,3.1-22,3.1c-14.2,0-22-2.9-22-2.9c0.1-5.9-0.7-7.4-2.3-12.3c-1.5-4.7-4.1-8.9-7.6-12.5
			c-2.3-2.3-4.9-4.2-7.8-5.7c-1.2-0.7-2.4-1.2-3.7-1.7l0.3,0.1h0.1l6.2-21.1l6.2-21.1c3.4,1,6.7,2.4,9.9,4c6.3,3.2,12.2,7.2,17.4,12
			c7.2,6.5,13.1,14.4,17.3,23.1C714.1,535.6,717.5,544.4,717.2,560.3z"/>
		<path class="st3" d="M688.3,511.2L654.9,527l1.9,3.8c2.3,1.4,4.5,3.1,6.4,5l0,0C670.8,533,688.6,524.7,688.3,511.2z"/>
		<path class="st5" d="M626.9,494.1c1.5-8.4,12.1-12.9,10.6-28.1s-26-17-36.4-11.4c-9.9,5.3-7.6,14.4-4.5,15.2
			c0,0-12.5,11.1-10.6,21.2c1.5,8.4,8.3,8.4,8.3,8.4s-6.8,9.1-1.5,22c4.6,11.1,33.6,24.1,71.1,7.5L626.9,494.1z"/>
		<path class="st2" d="M611.7,497.6c0.3-8.8-0.8-35,24-28s58,14.4,54.3,35.4s-23.9,24.3-38.1,25.5
			C633.7,532.1,610.9,518.4,611.7,497.6z"/>
		<path class="st5" d="M626.9,494.1c0.4-8.5,12.1-12.9,10.6-28.1s-26-17-36.4-11.4c-9.9,5.3-7.6,14.4-4.5,15.2
			c0,0-12.5,11.1-10.6,21.2c1.5,8.4,8.3,8.4,8.3,8.4s-6.8,9.1-1.5,22c3.1,7.5,17.5,15.9,38.2,15.4c3.5-0.1-0.2-4.1,3.6-4.7
			c6.9-1.2-15.7,1.5-8-1.9c0,0,19.7,0,19.7-6.8S625.7,518,626.9,494.1z"/>
		<path class="st9" d="M634.5,486.6c-0.7-0.3-3.1-0.4-3.5,5.2s2,5.6,3.2,4.4S637.4,487.7,634.5,486.6z"/>
		<path class="st10" d="M649.2,484.1c0.2-0.7,7.3-1.4,9.9-2.2c4.2-1.3,5.2,5.3-0.5,5.3C655.5,487.2,649,484.8,649.2,484.1z"/>
		<circle class="st9" cx="641.8" cy="491.9" r="2.7"/>
		<path class="st9" d="M637.1,477.7c-0.8-0.1-2.9-1.1-0.7-6.2s4.4-4,4.9-2.4S640.2,478.1,637.1,477.7z"/>
		<circle class="st9" cx="646.6" cy="476.7" r="2.7"/>
		<path class="st8" d="M671,493.9c1.4-2.2,2.1-4.8,1.8-7.4"/>
		<path class="st8" d="M699.5,524.9c-0.4-2.6-1.7-4.9-3.6-6.7"/>
		<circle class="st10" cx="653.4" cy="495.6" r="1.5"/>
		<circle class="st10" cx="651.2" cy="505.5" r="1.5"/>
		<circle class="st10" cx="660.3" cy="502.5" r="1.5"/>
		<path class="st8" d="M570.8,255.6c0,0-9.2-8.1-14.5-23.4c-6-17.5-3.8-26.7-3.8-26.7"/>
		<polygon class="st11" points="649,341 655,338 664.2,359 660.3,361 		"/>
		<path class="st12" d="M914.2,606.1L914.2,606.1c2.9,0,5.3,2.4,5.3,5.3v21.3c0,2.9-2.4,5.3-5.3,5.3h0c-2.9,0-5.3-2.4-5.3-5.3v-21.3
			C908.9,608.5,911.2,606.1,914.2,606.1z"/>
		<path class="st12" d="M928,592L928,592c0-2.9,2.4-5.3,5.3-5.3h21.3c2.9,0,5.3,2.4,5.3,5.3v0c0,2.9-2.4,5.3-5.3,5.3h-21.3
			C930.4,597.3,928,594.9,928,592z"/>
		<path class="st12" d="M914.2,578.2L914.2,578.2c-2.9,0-5.3-2.4-5.3-5.3v-21.3c0-2.9,2.4-5.3,5.3-5.3h0c2.9,0,5.3,2.4,5.3,5.3v21.3
			C919.5,575.8,917.1,578.2,914.2,578.2z"/>
		<path class="st12" d="M900.4,592L900.4,592c0,2.9-2.4,5.3-5.3,5.3h-21.3c-2.9,0-5.3-2.4-5.3-5.3v0c0-2.9,2.4-5.3,5.3-5.3h21.3
			C898,586.7,900.4,589,900.4,592z"/>
		<path class="st8" d="M839.2,207.9c0,0,0.7,12.3-6.6,26.7c-8.3,16.5-16.5,21.4-16.5,21.4"/>
		<circle class="st11" cx="659.5" cy="348.5" r="11.5"/>
		<circle class="st5" cx="680.5" cy="212.5" r="11.5"/>
		<circle class="st7" cx="655.5" cy="350.5" r="11.5"/>
		<path class="st8" d="M587.5,231.4c-3.4-8.9-4.9-18.4-4.4-27.9"/>
		<path class="st8" d="M808.6,206.7c-0.5,9.5-3.1,18.8-7.4,27.3"/>
		<g class="st13">
			<path class="st4" d="M85.9,151.8h2.6c0.3,0,0.5,0,0.7-0.1c0.2,0,0.4-0.1,0.6-0.2c0.2-0.1,0.4-0.2,0.6-0.4s0.4-0.4,0.5-0.6
				l6.6-8.9c0.2-0.3,0.4-0.6,0.7-0.8c0.3-0.2,0.6-0.3,0.9-0.3h3.1l-7.7,10.6c-0.6,0.8-1.3,1.4-2.3,1.7c0.6,0.2,1.2,0.4,1.6,0.8
				c0.4,0.4,0.9,0.9,1.3,1.6l7.7,11.1h-3.3c-0.4,0-0.7-0.1-1-0.3c-0.3-0.2-0.5-0.5-0.7-0.9l-6.6-9.3c-0.3-0.5-0.6-0.8-1-1
				c-0.4-0.2-0.9-0.3-1.5-0.3h-3.1v11.8h-3.7v-25.8h3.7V151.8z"/>
		</g>
		<g class="st13">
			<path class="st4" d="M117.1,166.4c-0.3,0-0.6-0.1-0.8-0.2c-0.2-0.1-0.3-0.3-0.4-0.6l-0.4-1.6c-0.5,0.4-0.9,0.8-1.4,1.2
				c-0.5,0.3-0.9,0.6-1.4,0.9c-0.5,0.2-1,0.4-1.6,0.5c-0.6,0.1-1.2,0.2-1.9,0.2c-0.7,0-1.4-0.1-2-0.3c-0.6-0.2-1.2-0.5-1.6-0.9
				c-0.5-0.4-0.8-0.9-1.1-1.5c-0.3-0.6-0.4-1.3-0.4-2.2c0-0.7,0.2-1.4,0.6-2.1c0.4-0.7,1-1.3,1.9-1.8c0.9-0.5,2-1,3.5-1.3
				s3.2-0.5,5.2-0.6v-1.4c0-1.4-0.3-2.4-0.9-3.1c-0.6-0.7-1.5-1.1-2.6-1.1c-0.8,0-1.4,0.1-2,0.3s-1,0.4-1.4,0.6
				c-0.4,0.2-0.7,0.4-1,0.6s-0.6,0.3-0.9,0.3c-0.2,0-0.4-0.1-0.6-0.2c-0.2-0.1-0.3-0.3-0.4-0.4l-0.6-1.1c1-1,2.1-1.7,3.3-2.2
				c1.2-0.5,2.5-0.7,3.9-0.7c1,0,2,0.2,2.8,0.5c0.8,0.3,1.5,0.8,2,1.4c0.5,0.6,1,1.3,1.2,2.2c0.3,0.9,0.4,1.8,0.4,2.8v11.7H117.1z
				 M110.2,164.3c0.5,0,1-0.1,1.5-0.2c0.5-0.1,0.9-0.3,1.3-0.5c0.4-0.2,0.8-0.5,1.1-0.7c0.4-0.3,0.7-0.6,1.1-1v-3.7
				c-1.4,0-2.7,0.2-3.7,0.3c-1,0.2-1.8,0.4-2.5,0.7c-0.6,0.3-1.1,0.6-1.4,1c-0.3,0.4-0.4,0.8-0.4,1.3c0,0.5,0.1,0.9,0.2,1.2
				c0.1,0.3,0.4,0.6,0.6,0.8c0.3,0.2,0.6,0.4,0.9,0.5S109.8,164.3,110.2,164.3z"/>
			<path class="st4" d="M134.4,149.1c0.2-0.3,0.4-0.5,0.7-0.7c0.3-0.2,0.6-0.3,0.9-0.3h2.7l-4.7,6.9c-0.3,0.5-0.6,0.8-0.9,1.1
				c-0.3,0.3-0.7,0.5-1.2,0.7c0.6,0.2,1.1,0.4,1.5,0.7s0.8,0.8,1.1,1.3l4.7,7.6h-2.4c-0.6,0-1.1-0.1-1.4-0.3s-0.6-0.5-0.9-0.9
				l-3.4-5.6c-0.3-0.5-0.6-0.8-1-1c-0.4-0.2-0.9-0.4-1.4-0.4h-1.9v8.2h-3.4v-18.3h3.4v7.8h1.7c0.5,0,0.9-0.1,1.3-0.3
				s0.7-0.5,0.9-0.9L134.4,149.1z"/>
			<path class="st4" d="M150.1,150c0.7-0.6,1.5-1.2,2.5-1.6c1-0.4,2.2-0.6,3.6-0.6c1.1,0,2.1,0.1,3,0.4c0.9,0.3,1.6,0.6,2.1,1.1
				c0.6,0.4,1,1,1.3,1.5s0.4,1.2,0.4,1.8c0,0.4-0.1,0.7-0.2,1.1c-0.1,0.4-0.3,0.8-0.6,1.1s-0.6,0.7-1,1c-0.4,0.3-0.9,0.6-1.5,0.8
				c1.1,0.3,2,0.9,2.7,1.7c0.7,0.8,1,1.7,1,2.8c0,0.9-0.2,1.6-0.6,2.3c-0.4,0.7-0.9,1.3-1.6,1.7c-0.7,0.5-1.4,0.8-2.3,1.1
				s-1.8,0.4-2.7,0.4c-0.6,0-1.2-0.1-1.8-0.2c-0.6-0.1-1.2-0.3-1.8-0.5c-0.6-0.2-1.1-0.5-1.7-0.9s-1-0.8-1.4-1.3l1-1.2
				c0.1-0.2,0.4-0.3,0.6-0.3c0.2,0,0.4,0.1,0.7,0.3c0.2,0.2,0.5,0.4,0.9,0.6c0.4,0.2,0.8,0.4,1.3,0.6s1.1,0.3,1.9,0.3
				c0.6,0,1.2-0.1,1.7-0.2s0.9-0.4,1.3-0.7c0.4-0.3,0.6-0.6,0.8-1s0.3-0.8,0.3-1.3c0-0.9-0.4-1.6-1.1-2.1c-0.7-0.5-1.8-0.8-3.3-0.8
				h-2.1v-2.3h2.1c1.3,0,2.3-0.2,3.1-0.7s1.1-1.1,1.1-1.9c0-0.3-0.1-0.7-0.2-1c-0.2-0.3-0.4-0.6-0.7-0.8c-0.3-0.2-0.7-0.4-1.2-0.6
				s-1-0.2-1.7-0.2c-0.7,0-1.3,0.1-1.8,0.2c-0.5,0.1-0.9,0.3-1.2,0.5c-0.3,0.2-0.6,0.3-0.8,0.5c-0.2,0.1-0.4,0.2-0.6,0.2
				c-0.2,0-0.3,0-0.4-0.1c-0.1-0.1-0.2-0.2-0.4-0.4L150.1,150z"/>
			<path class="st4" d="M179.1,166.4c-0.3,0-0.6-0.1-0.8-0.2c-0.2-0.1-0.3-0.3-0.4-0.6l-0.4-1.6c-0.5,0.4-0.9,0.8-1.4,1.2
				c-0.5,0.3-0.9,0.6-1.4,0.9c-0.5,0.2-1,0.4-1.6,0.5c-0.6,0.1-1.2,0.2-1.9,0.2c-0.7,0-1.4-0.1-2-0.3c-0.6-0.2-1.2-0.5-1.6-0.9
				c-0.5-0.4-0.8-0.9-1.1-1.5c-0.3-0.6-0.4-1.3-0.4-2.2c0-0.7,0.2-1.4,0.6-2.1c0.4-0.7,1-1.3,1.9-1.8c0.9-0.5,2-1,3.5-1.3
				s3.2-0.5,5.2-0.6v-1.4c0-1.4-0.3-2.4-0.9-3.1c-0.6-0.7-1.5-1.1-2.6-1.1c-0.8,0-1.4,0.1-2,0.3s-1,0.4-1.4,0.6
				c-0.4,0.2-0.7,0.4-1,0.6s-0.6,0.3-0.9,0.3c-0.2,0-0.4-0.1-0.6-0.2c-0.2-0.1-0.3-0.3-0.4-0.4l-0.6-1.1c1-1,2.1-1.7,3.3-2.2
				c1.2-0.5,2.5-0.7,3.9-0.7c1,0,2,0.2,2.8,0.5c0.8,0.3,1.5,0.8,2,1.4c0.5,0.6,1,1.3,1.2,2.2c0.3,0.9,0.4,1.8,0.4,2.8v11.7H179.1z
				 M172.3,164.3c0.5,0,1-0.1,1.5-0.2c0.5-0.1,0.9-0.3,1.3-0.5c0.4-0.2,0.8-0.5,1.1-0.7c0.4-0.3,0.7-0.6,1.1-1v-3.7
				c-1.4,0-2.7,0.2-3.7,0.3c-1,0.2-1.8,0.4-2.5,0.7c-0.6,0.3-1.1,0.6-1.4,1c-0.3,0.4-0.4,0.8-0.4,1.3c0,0.5,0.1,0.9,0.2,1.2
				c0.1,0.3,0.4,0.6,0.6,0.8c0.3,0.2,0.6,0.4,0.9,0.5S171.9,164.3,172.3,164.3z"/>
			<path class="st4" d="M185.4,172.5v-24.4h2.1c0.5,0,0.8,0.2,0.9,0.7l0.3,2.1c0.8-0.9,1.7-1.7,2.7-2.2c1-0.6,2.2-0.9,3.4-0.9
				c1,0,2,0.2,2.8,0.6c0.8,0.4,1.6,1,2.2,1.8s1.1,1.8,1.4,2.9c0.3,1.2,0.5,2.5,0.5,4c0,1.4-0.2,2.6-0.5,3.8c-0.4,1.2-0.9,2.2-1.6,3
				c-0.7,0.9-1.5,1.5-2.5,2c-1,0.5-2.1,0.7-3.3,0.7c-1.1,0-2.1-0.2-2.8-0.5c-0.8-0.4-1.5-0.9-2.1-1.5v8H185.4z M193.6,150.6
				c-1,0-1.9,0.2-2.7,0.7c-0.8,0.5-1.5,1.1-2.1,2v8.7c0.6,0.8,1.2,1.3,1.9,1.6c0.7,0.3,1.4,0.5,2.3,0.5c1.6,0,2.9-0.6,3.8-1.8
				c0.9-1.2,1.3-2.9,1.3-5.1c0-1.2-0.1-2.2-0.3-3c-0.2-0.8-0.5-1.5-0.9-2c-0.4-0.5-0.9-0.9-1.4-1.2
				C195,150.7,194.3,150.6,193.6,150.6z"/>
			<path class="st4" d="M217.3,166.4c-0.3,0-0.6-0.1-0.8-0.2c-0.2-0.1-0.3-0.3-0.4-0.6l-0.4-1.6c-0.5,0.4-0.9,0.8-1.4,1.2
				c-0.5,0.3-0.9,0.6-1.4,0.9c-0.5,0.2-1,0.4-1.6,0.5c-0.6,0.1-1.2,0.2-1.9,0.2c-0.7,0-1.4-0.1-2-0.3c-0.6-0.2-1.2-0.5-1.6-0.9
				c-0.5-0.4-0.8-0.9-1.1-1.5c-0.3-0.6-0.4-1.3-0.4-2.2c0-0.7,0.2-1.4,0.6-2.1c0.4-0.7,1-1.3,1.9-1.8c0.9-0.5,2-1,3.5-1.3
				s3.2-0.5,5.2-0.6v-1.4c0-1.4-0.3-2.4-0.9-3.1c-0.6-0.7-1.5-1.1-2.6-1.1c-0.8,0-1.4,0.1-2,0.3s-1,0.4-1.4,0.6
				c-0.4,0.2-0.7,0.4-1,0.6s-0.6,0.3-0.9,0.3c-0.2,0-0.4-0.1-0.6-0.2c-0.2-0.1-0.3-0.3-0.4-0.4l-0.6-1.1c1-1,2.1-1.7,3.3-2.2
				c1.2-0.5,2.5-0.7,3.9-0.7c1,0,2,0.2,2.8,0.5c0.8,0.3,1.5,0.8,2,1.4c0.5,0.6,1,1.3,1.2,2.2c0.3,0.9,0.4,1.8,0.4,2.8v11.7H217.3z
				 M210.5,164.3c0.5,0,1-0.1,1.5-0.2c0.5-0.1,0.9-0.3,1.3-0.5c0.4-0.2,0.8-0.5,1.1-0.7c0.4-0.3,0.7-0.6,1.1-1v-3.7
				c-1.4,0-2.7,0.2-3.7,0.3c-1,0.2-1.8,0.4-2.5,0.7c-0.6,0.3-1.1,0.6-1.4,1c-0.3,0.4-0.4,0.8-0.4,1.3c0,0.5,0.1,0.9,0.2,1.2
				c0.1,0.3,0.4,0.6,0.6,0.8c0.3,0.2,0.6,0.4,0.9,0.5S210,164.3,210.5,164.3z"/>
			<path class="st4" d="M233.1,144c-1.2,0.1-2.2,0.4-3.1,0.8c-0.9,0.4-1.6,1-2.1,1.7c-0.6,0.7-1,1.6-1.3,2.6s-0.5,2.1-0.5,3.4
				c0.3-0.6,0.7-1.1,1.1-1.5c0.5-0.5,1-0.8,1.5-1.2c0.6-0.3,1.2-0.6,1.9-0.7c0.7-0.2,1.4-0.3,2.2-0.3c1.2,0,2.3,0.2,3.3,0.6
				c1,0.4,1.8,1,2.5,1.8c0.7,0.8,1.2,1.7,1.6,2.8s0.5,2.3,0.5,3.7c0,1.4-0.2,2.6-0.6,3.7c-0.4,1.1-1,2-1.8,2.8s-1.7,1.4-2.8,1.8
				c-1.1,0.4-2.3,0.6-3.6,0.6c-1.2,0-2.4-0.2-3.5-0.6c-1.1-0.4-2-1.1-2.8-2c-0.8-0.9-1.4-2.2-1.9-3.7c-0.4-1.5-0.7-3.4-0.7-5.7
				c0-1.9,0.2-3.7,0.5-5.3c0.3-1.6,0.9-3,1.7-4.2c0.8-1.2,1.8-2.2,3-2.9c1.2-0.7,2.7-1.2,4.5-1.3l6.5-0.6l0.2,1.8c0,0.4,0,0.7-0.2,1
				c-0.2,0.3-0.4,0.4-0.8,0.4L233.1,144z M231.9,164.1c1.8,0,3.1-0.6,4-1.7s1.3-2.7,1.3-4.7c0-2-0.4-3.6-1.3-4.7
				c-0.9-1.1-2.2-1.7-3.9-1.7c-0.8,0-1.6,0.1-2.2,0.4s-1.2,0.6-1.7,1.2c-0.5,0.5-0.8,1.1-1.1,1.9c-0.2,0.7-0.4,1.6-0.4,2.6
				c0,1.1,0.1,2,0.3,2.9s0.6,1.6,1,2.1c0.4,0.6,1,1,1.6,1.3C230.3,164,231,164.1,231.9,164.1z"/>
		</g>
		<g class="st13">
			<path class="st4" d="M256.4,166.4c-0.3,0-0.6-0.1-0.8-0.2c-0.2-0.1-0.3-0.3-0.4-0.6l-0.4-1.6c-0.5,0.4-0.9,0.8-1.4,1.2
				c-0.5,0.3-0.9,0.6-1.4,0.9c-0.5,0.2-1,0.4-1.6,0.5c-0.6,0.1-1.2,0.2-1.9,0.2c-0.7,0-1.4-0.1-2-0.3c-0.6-0.2-1.2-0.5-1.6-0.9
				c-0.5-0.4-0.8-0.9-1.1-1.5c-0.3-0.6-0.4-1.3-0.4-2.2c0-0.7,0.2-1.4,0.6-2.1c0.4-0.7,1-1.3,1.9-1.8c0.9-0.5,2-1,3.5-1.3
				s3.2-0.5,5.2-0.6v-1.4c0-1.4-0.3-2.4-0.9-3.1c-0.6-0.7-1.5-1.1-2.6-1.1c-0.8,0-1.4,0.1-2,0.3s-1,0.4-1.4,0.6
				c-0.4,0.2-0.7,0.4-1,0.6s-0.6,0.3-0.9,0.3c-0.2,0-0.4-0.1-0.6-0.2c-0.2-0.1-0.3-0.3-0.4-0.4l-0.6-1.1c1-1,2.1-1.7,3.3-2.2
				c1.2-0.5,2.5-0.7,3.9-0.7c1,0,2,0.2,2.8,0.5c0.8,0.3,1.5,0.8,2,1.4c0.5,0.6,1,1.3,1.2,2.2c0.3,0.9,0.4,1.8,0.4,2.8v11.7H256.4z
				 M249.5,164.3c0.5,0,1-0.1,1.5-0.2c0.5-0.1,0.9-0.3,1.3-0.5c0.4-0.2,0.8-0.5,1.1-0.7c0.4-0.3,0.7-0.6,1.1-1v-3.7
				c-1.4,0-2.7,0.2-3.7,0.3c-1,0.2-1.8,0.4-2.5,0.7c-0.6,0.3-1.1,0.6-1.4,1c-0.3,0.4-0.4,0.8-0.4,1.3c0,0.5,0.1,0.9,0.2,1.2
				c0.1,0.3,0.4,0.6,0.6,0.8c0.3,0.2,0.6,0.4,0.9,0.5S249.1,164.3,249.5,164.3z"/>
		</g>
		<g class="st13">
			<path class="st4" d="M260.2,148.1h17.3v2.6h-6.9v15.7h-3.4v-15.7h-6.9V148.1z"/>
			<path class="st4" d="M283.7,148.1v7.1h3.8c1.3,0,2.3,0.2,3.2,0.5c0.9,0.3,1.6,0.7,2.1,1.2c0.5,0.5,0.9,1.1,1.1,1.7
				c0.2,0.7,0.3,1.3,0.3,2.1c0,0.8-0.1,1.6-0.4,2.3c-0.3,0.7-0.7,1.3-1.3,1.8c-0.6,0.5-1.3,0.9-2.1,1.2s-1.8,0.4-2.9,0.4h-7.1v-18.3
				H283.7z M283.7,157.7v6.2h3.8c0.6,0,1.1-0.1,1.6-0.2c0.5-0.2,0.8-0.4,1.2-0.7c0.3-0.3,0.5-0.6,0.7-1c0.1-0.4,0.2-0.8,0.2-1.3
				c0-0.4-0.1-0.8-0.2-1.2c-0.1-0.4-0.3-0.7-0.6-1c-0.3-0.3-0.7-0.5-1.2-0.7s-1.1-0.2-1.7-0.2H283.7z M301.6,148.1v18.3h-3.4v-18.3
				H301.6z"/>
			<path class="st4" d="M306.5,148.1h6.8c1.1,0,2.1,0.1,2.9,0.3c0.8,0.2,1.5,0.5,2,0.9s0.9,0.8,1.2,1.4c0.2,0.5,0.4,1.1,0.4,1.7
				c0,0.4-0.1,0.8-0.2,1.2c-0.1,0.4-0.3,0.8-0.6,1.2c-0.3,0.4-0.6,0.8-1.1,1.1c-0.5,0.3-1,0.6-1.7,0.7c1.4,0.2,2.4,0.7,3.2,1.4
				c0.8,0.7,1.1,1.7,1.1,2.9c0,0.9-0.2,1.7-0.5,2.3c-0.4,0.7-0.9,1.2-1.5,1.7c-0.6,0.4-1.4,0.8-2.2,1c-0.8,0.2-1.7,0.3-2.7,0.3h-7.1
				V148.1z M309.8,156h3.4c0.5,0,1-0.1,1.4-0.2c0.4-0.1,0.8-0.3,1.1-0.6c0.3-0.3,0.6-0.6,0.7-0.9c0.2-0.4,0.3-0.8,0.3-1.2
				c0-0.3-0.1-0.6-0.2-0.9c-0.1-0.3-0.3-0.6-0.6-0.8s-0.6-0.4-1.1-0.6c-0.5-0.1-1-0.2-1.7-0.2h-3.4V156z M309.8,158.1v5.9h3.8
				c1.2,0,2.1-0.3,2.7-0.8s1-1.3,1-2.2c0-0.4-0.1-0.8-0.2-1.1c-0.1-0.3-0.3-0.6-0.6-0.9c-0.3-0.3-0.7-0.4-1.2-0.6
				c-0.5-0.1-1.1-0.2-1.8-0.2H309.8z"/>
		</g>
		<g class="st13">
			<path class="st4" d="M336.1,166.4c-0.3,0-0.6-0.1-0.8-0.2c-0.2-0.1-0.3-0.3-0.4-0.6l-0.4-1.6c-0.5,0.4-0.9,0.8-1.4,1.2
				c-0.5,0.3-0.9,0.6-1.4,0.9c-0.5,0.2-1,0.4-1.6,0.5c-0.6,0.1-1.2,0.2-1.9,0.2c-0.7,0-1.4-0.1-2-0.3c-0.6-0.2-1.2-0.5-1.6-0.9
				c-0.5-0.4-0.8-0.9-1.1-1.5c-0.3-0.6-0.4-1.3-0.4-2.2c0-0.7,0.2-1.4,0.6-2.1c0.4-0.7,1-1.3,1.9-1.8c0.9-0.5,2-1,3.5-1.3
				s3.2-0.5,5.2-0.6v-1.4c0-1.4-0.3-2.4-0.9-3.1c-0.6-0.7-1.5-1.1-2.6-1.1c-0.8,0-1.4,0.1-2,0.3s-1,0.4-1.4,0.6
				c-0.4,0.2-0.7,0.4-1,0.6s-0.6,0.3-0.9,0.3c-0.2,0-0.4-0.1-0.6-0.2c-0.2-0.1-0.3-0.3-0.4-0.4l-0.6-1.1c1-1,2.1-1.7,3.3-2.2
				c1.2-0.5,2.5-0.7,3.9-0.7c1,0,2,0.2,2.8,0.5c0.8,0.3,1.5,0.8,2,1.4c0.5,0.6,1,1.3,1.2,2.2c0.3,0.9,0.4,1.8,0.4,2.8v11.7H336.1z
				 M329.3,164.3c0.5,0,1-0.1,1.5-0.2c0.5-0.1,0.9-0.3,1.3-0.5c0.4-0.2,0.8-0.5,1.1-0.7c0.4-0.3,0.7-0.6,1.1-1v-3.7
				c-1.4,0-2.7,0.2-3.7,0.3c-1,0.2-1.8,0.4-2.5,0.7c-0.6,0.3-1.1,0.6-1.4,1c-0.3,0.4-0.4,0.8-0.4,1.3c0,0.5,0.1,0.9,0.2,1.2
				c0.1,0.3,0.4,0.6,0.6,0.8c0.3,0.2,0.6,0.4,0.9,0.5S328.9,164.3,329.3,164.3z"/>
		</g>
		<g class="st13">
			<path class="st4" d="M339.9,148.1h17.3v2.6h-6.9v15.7h-3.4v-15.7h-6.9V148.1z"/>
			<path class="st4" d="M363.4,148.1v7.1h3.8c1.3,0,2.3,0.2,3.2,0.5c0.9,0.3,1.6,0.7,2.1,1.2c0.5,0.5,0.9,1.1,1.1,1.7
				c0.2,0.7,0.3,1.3,0.3,2.1c0,0.8-0.1,1.6-0.4,2.3c-0.3,0.7-0.7,1.3-1.3,1.8c-0.6,0.5-1.3,0.9-2.1,1.2s-1.8,0.4-2.9,0.4h-7.1v-18.3
				H363.4z M363.4,157.7v6.2h3.8c0.6,0,1.1-0.1,1.6-0.2c0.5-0.2,0.8-0.4,1.2-0.7c0.3-0.3,0.5-0.6,0.7-1c0.1-0.4,0.2-0.8,0.2-1.3
				c0-0.4-0.1-0.8-0.2-1.2c-0.1-0.4-0.3-0.7-0.6-1c-0.3-0.3-0.7-0.5-1.2-0.7s-1.1-0.2-1.7-0.2H363.4z"/>
			<path class="st4" d="M376.8,164.1c0-0.6,0.2-1.1,0.6-1.5c0.4-0.4,0.9-0.6,1.6-0.6c0.4,0,0.7,0.1,1,0.2c0.3,0.1,0.5,0.3,0.7,0.6
				c0.2,0.2,0.3,0.5,0.4,0.8c0.1,0.3,0.1,0.7,0.1,1c0,0.5-0.1,1.1-0.2,1.7c-0.2,0.6-0.4,1.2-0.7,1.8c-0.3,0.6-0.7,1.1-1.1,1.7
				c-0.4,0.6-0.9,1.1-1.5,1.5l-0.6-0.5c-0.1-0.1-0.2-0.2-0.2-0.3c0-0.1-0.1-0.2-0.1-0.3c0-0.2,0.1-0.3,0.3-0.5
				c0.1-0.1,0.3-0.3,0.5-0.5s0.4-0.5,0.6-0.8c0.2-0.3,0.4-0.6,0.5-0.9c0.2-0.3,0.3-0.7,0.3-1.1H379c-0.3,0-0.6-0.1-0.9-0.2
				s-0.5-0.3-0.7-0.5c-0.2-0.2-0.3-0.5-0.4-0.7C376.9,164.7,376.8,164.4,376.8,164.1z"/>
		</g>
		<g class="st13">
			<path class="st4" d="M81.4,215.7v-24.4h2.1c0.5,0,0.8,0.2,0.9,0.7l0.3,2.1c0.8-0.9,1.7-1.7,2.7-2.2c1-0.6,2.2-0.9,3.4-0.9
				c1,0,2,0.2,2.8,0.6c0.8,0.4,1.6,1,2.2,1.8s1.1,1.8,1.4,2.9c0.3,1.2,0.5,2.5,0.5,4c0,1.4-0.2,2.6-0.5,3.8c-0.4,1.2-0.9,2.2-1.6,3
				c-0.7,0.9-1.5,1.5-2.5,2c-1,0.5-2.1,0.7-3.3,0.7c-1.1,0-2.1-0.2-2.8-0.5c-0.8-0.4-1.5-0.9-2.1-1.5v8H81.4z M89.6,193.8
				c-1,0-1.9,0.2-2.7,0.7c-0.8,0.5-1.5,1.1-2.1,2v8.7c0.6,0.8,1.2,1.3,1.9,1.6c0.7,0.3,1.4,0.5,2.3,0.5c1.6,0,2.9-0.6,3.8-1.8
				c0.9-1.2,1.3-2.9,1.3-5.1c0-1.2-0.1-2.2-0.3-3c-0.2-0.8-0.5-1.5-0.9-2c-0.4-0.5-0.9-0.9-1.4-1.2C91,193.9,90.3,193.8,89.6,193.8z
				"/>
			<path class="st4" d="M113.3,209.6c-0.3,0-0.6-0.1-0.8-0.2c-0.2-0.1-0.3-0.3-0.4-0.6l-0.4-1.6c-0.5,0.4-0.9,0.8-1.4,1.2
				c-0.5,0.3-0.9,0.6-1.4,0.9c-0.5,0.2-1,0.4-1.6,0.5c-0.6,0.1-1.2,0.2-1.9,0.2c-0.7,0-1.4-0.1-2-0.3c-0.6-0.2-1.2-0.5-1.6-0.9
				c-0.5-0.4-0.8-0.9-1.1-1.5c-0.3-0.6-0.4-1.3-0.4-2.2c0-0.7,0.2-1.4,0.6-2.1c0.4-0.7,1-1.3,1.9-1.8c0.9-0.5,2-1,3.5-1.3
				s3.2-0.5,5.2-0.6v-1.4c0-1.4-0.3-2.4-0.9-3.1c-0.6-0.7-1.5-1.1-2.6-1.1c-0.8,0-1.4,0.1-2,0.3s-1,0.4-1.4,0.6
				c-0.4,0.2-0.7,0.4-1,0.6s-0.6,0.3-0.9,0.3c-0.2,0-0.4-0.1-0.6-0.2c-0.2-0.1-0.3-0.3-0.4-0.4l-0.6-1.1c1-1,2.1-1.7,3.3-2.2
				c1.2-0.5,2.5-0.7,3.9-0.7c1,0,2,0.2,2.8,0.5c0.8,0.3,1.5,0.8,2,1.4c0.5,0.6,1,1.3,1.2,2.2c0.3,0.9,0.4,1.8,0.4,2.8v11.7H113.3z
				 M106.5,207.5c0.5,0,1-0.1,1.5-0.2c0.5-0.1,0.9-0.3,1.3-0.5c0.4-0.2,0.8-0.5,1.1-0.7c0.4-0.3,0.7-0.6,1.1-1v-3.7
				c-1.4,0-2.7,0.2-3.7,0.3c-1,0.2-1.8,0.4-2.5,0.7c-0.6,0.3-1.1,0.6-1.4,1c-0.3,0.4-0.4,0.8-0.4,1.3c0,0.5,0.1,0.9,0.2,1.2
				c0.1,0.3,0.4,0.6,0.6,0.8c0.3,0.2,0.6,0.4,0.9,0.5S106,207.5,106.5,207.5z"/>
			<path class="st4" d="M118.4,193.2c0.7-0.6,1.5-1.2,2.5-1.6c1-0.4,2.2-0.6,3.6-0.6c1.1,0,2.1,0.1,3,0.4c0.9,0.3,1.6,0.6,2.1,1.1
				c0.6,0.4,1,1,1.3,1.5s0.4,1.2,0.4,1.8c0,0.4-0.1,0.7-0.2,1.1c-0.1,0.4-0.3,0.8-0.6,1.1s-0.6,0.7-1,1c-0.4,0.3-0.9,0.6-1.5,0.8
				c1.1,0.3,2,0.9,2.7,1.7c0.7,0.8,1,1.7,1,2.8c0,0.9-0.2,1.6-0.6,2.3c-0.4,0.7-0.9,1.3-1.6,1.7c-0.7,0.5-1.4,0.8-2.3,1.1
				s-1.8,0.4-2.7,0.4c-0.6,0-1.2-0.1-1.8-0.2c-0.6-0.1-1.2-0.3-1.8-0.5c-0.6-0.2-1.1-0.5-1.7-0.9s-1-0.8-1.4-1.3l1-1.2
				c0.1-0.2,0.4-0.3,0.6-0.3c0.2,0,0.4,0.1,0.7,0.3c0.2,0.2,0.5,0.4,0.9,0.6c0.4,0.2,0.8,0.4,1.3,0.6s1.1,0.3,1.9,0.3
				c0.6,0,1.2-0.1,1.7-0.2s0.9-0.4,1.3-0.7c0.4-0.3,0.6-0.6,0.8-1s0.3-0.8,0.3-1.3c0-0.9-0.4-1.6-1.1-2.1c-0.7-0.5-1.8-0.8-3.3-0.8
				H122v-2.3h2.1c1.3,0,2.3-0.2,3.1-0.7s1.1-1.1,1.1-1.9c0-0.3-0.1-0.7-0.2-1c-0.2-0.3-0.4-0.6-0.7-0.8c-0.3-0.2-0.7-0.4-1.2-0.6
				s-1-0.2-1.7-0.2c-0.7,0-1.3,0.1-1.8,0.2c-0.5,0.1-0.9,0.3-1.2,0.5c-0.3,0.2-0.6,0.3-0.8,0.5c-0.2,0.1-0.4,0.2-0.6,0.2
				c-0.2,0-0.3,0-0.4-0.1c-0.1-0.1-0.2-0.2-0.4-0.4L118.4,193.2z"/>
			<path class="st4" d="M145.7,202.1c0.1,0.3,0.3,0.6,0.4,0.9c0.1-0.3,0.2-0.6,0.4-0.9c0.1-0.3,0.3-0.6,0.4-0.9l5.4-9.2
				c0.2-0.3,0.4-0.5,0.6-0.6s0.5-0.2,0.7-0.2h2.8v18.3h-3.1v-11.8c0-0.3,0-0.7,0.1-1.2c0-0.4,0.1-0.8,0.2-1.2l-6.2,10.9
				c-0.1,0.2-0.2,0.3-0.4,0.5c-0.2,0.1-0.4,0.2-0.6,0.2h-0.4c-0.2,0-0.4-0.1-0.6-0.2c-0.2-0.1-0.3-0.3-0.4-0.5l-6.3-10.9
				c0.1,0.4,0.1,0.8,0.2,1.2c0,0.4,0.1,0.8,0.1,1.2v11.8h-3.1v-18.3h2.8c0.2,0,0.5,0.1,0.7,0.2c0.2,0.1,0.4,0.3,0.6,0.6l5.5,9.2
				C145.4,201.5,145.6,201.8,145.7,202.1z"/>
			<path class="st4" d="M168.8,191c1.1,0,2.1,0.2,3.1,0.5s1.7,0.9,2.4,1.6c0.7,0.7,1.2,1.6,1.6,2.6c0.4,1,0.6,2.2,0.6,3.5
				c0,0.5-0.1,0.9-0.2,1.1c-0.1,0.2-0.3,0.3-0.6,0.3h-12.1c0,1.1,0.2,2.1,0.5,2.9c0.3,0.8,0.7,1.5,1.2,2.1c0.5,0.5,1.1,1,1.8,1.2
				c0.7,0.3,1.4,0.4,2.3,0.4c0.8,0,1.5-0.1,2-0.3c0.6-0.2,1.1-0.4,1.5-0.6c0.4-0.2,0.8-0.4,1.1-0.6c0.3-0.2,0.5-0.3,0.8-0.3
				c0.3,0,0.5,0.1,0.6,0.3l1,1.2c-0.4,0.5-0.9,0.9-1.5,1.3c-0.6,0.4-1.1,0.6-1.8,0.9c-0.6,0.2-1.3,0.4-2,0.5c-0.7,0.1-1.3,0.2-2,0.2
				c-1.3,0-2.4-0.2-3.5-0.6c-1.1-0.4-2-1-2.8-1.9c-0.8-0.8-1.4-1.8-1.8-3.1c-0.4-1.2-0.7-2.6-0.7-4.2c0-1.3,0.2-2.5,0.6-3.6
				c0.4-1.1,1-2.1,1.7-2.9c0.7-0.8,1.6-1.4,2.7-1.9C166.2,191.3,167.4,191,168.8,191z M168.8,193.5c-1.5,0-2.7,0.4-3.5,1.3
				s-1.4,2.1-1.6,3.6h9.7c0-0.7-0.1-1.4-0.3-2c-0.2-0.6-0.5-1.1-0.9-1.5c-0.4-0.4-0.9-0.8-1.4-1S169.5,193.5,168.8,193.5z"/>
			<path class="st4" d="M180.3,191.3h3.4V207h7.2v-15.7h3.4V207h7.2v-15.7h3.4V207h3.3v7.8c0,0.3-0.1,0.6-0.3,0.8
				c-0.2,0.2-0.4,0.3-0.7,0.3h-2.1v-6.3h-24.9V191.3z"/>
			<path class="st4" d="M223.2,209.6c-0.3,0-0.6-0.1-0.8-0.2c-0.2-0.1-0.3-0.3-0.4-0.6l-0.4-1.6c-0.5,0.4-0.9,0.8-1.4,1.2
				c-0.5,0.3-0.9,0.6-1.4,0.9c-0.5,0.2-1,0.4-1.6,0.5c-0.6,0.1-1.2,0.2-1.9,0.2c-0.7,0-1.4-0.1-2-0.3c-0.6-0.2-1.2-0.5-1.6-0.9
				c-0.5-0.4-0.8-0.9-1.1-1.5c-0.3-0.6-0.4-1.3-0.4-2.2c0-0.7,0.2-1.4,0.6-2.1c0.4-0.7,1-1.3,1.9-1.8c0.9-0.5,2-1,3.5-1.3
				s3.2-0.5,5.2-0.6v-1.4c0-1.4-0.3-2.4-0.9-3.1c-0.6-0.7-1.5-1.1-2.6-1.1c-0.8,0-1.4,0.1-2,0.3s-1,0.4-1.4,0.6
				c-0.4,0.2-0.7,0.4-1,0.6s-0.6,0.3-0.9,0.3c-0.2,0-0.4-0.1-0.6-0.2c-0.2-0.1-0.3-0.3-0.4-0.4l-0.6-1.1c1-1,2.1-1.7,3.3-2.2
				c1.2-0.5,2.5-0.7,3.9-0.7c1,0,2,0.2,2.8,0.5c0.8,0.3,1.5,0.8,2,1.4c0.5,0.6,1,1.3,1.2,2.2c0.3,0.9,0.4,1.8,0.4,2.8v11.7H223.2z
				 M216.3,207.5c0.5,0,1-0.1,1.5-0.2c0.5-0.1,0.9-0.3,1.3-0.5c0.4-0.2,0.8-0.5,1.1-0.7c0.4-0.3,0.7-0.6,1.1-1v-3.7
				c-1.4,0-2.7,0.2-3.7,0.3c-1,0.2-1.8,0.4-2.5,0.7c-0.6,0.3-1.1,0.6-1.4,1c-0.3,0.4-0.4,0.8-0.4,1.3c0,0.5,0.1,0.9,0.2,1.2
				c0.1,0.3,0.4,0.6,0.6,0.8c0.3,0.2,0.6,0.4,0.9,0.5S215.9,207.5,216.3,207.5z"/>
			<path class="st4" d="M242.3,209.6H239V202h-1.3c-0.3,0-0.6,0-0.8,0.1c-0.2,0.1-0.4,0.1-0.6,0.2c-0.2,0.1-0.3,0.2-0.4,0.4
				c-0.1,0.2-0.2,0.3-0.4,0.5l-3.8,5.2c-0.2,0.4-0.5,0.7-0.8,0.9s-0.8,0.3-1.4,0.3h-2.4l5.2-6.8c0.4-0.7,1-1.2,1.7-1.5
				c-0.9-0.1-1.7-0.3-2.3-0.6s-1.1-0.7-1.5-1.1s-0.7-0.9-0.9-1.4c-0.2-0.5-0.3-1-0.3-1.6c0-0.6,0.1-1.3,0.4-1.9
				c0.3-0.6,0.7-1.2,1.2-1.7c0.5-0.5,1.3-0.9,2.1-1.2c0.9-0.3,1.9-0.5,3.2-0.5h6.3V209.6z M232.6,196.7c0,1,0.4,1.7,1.1,2.2
				c0.7,0.5,1.7,0.8,2.9,0.8h2.6v-6.2h-3c-0.7,0-1.2,0.1-1.7,0.3c-0.4,0.2-0.8,0.4-1.1,0.7s-0.5,0.6-0.6,1S232.6,196.4,232.6,196.7z
				"/>
			<path class="st4" d="M256.4,215.7v-24.4h2.1c0.5,0,0.8,0.2,0.9,0.7l0.3,2.1c0.8-0.9,1.7-1.7,2.7-2.2c1-0.6,2.2-0.9,3.4-0.9
				c1,0,2,0.2,2.8,0.6c0.8,0.4,1.6,1,2.2,1.8s1.1,1.8,1.4,2.9c0.3,1.2,0.5,2.5,0.5,4c0,1.4-0.2,2.6-0.5,3.8c-0.4,1.2-0.9,2.2-1.6,3
				c-0.7,0.9-1.5,1.5-2.5,2c-1,0.5-2.1,0.7-3.3,0.7c-1.1,0-2.1-0.2-2.8-0.5c-0.8-0.4-1.5-0.9-2.1-1.5v8H256.4z M264.6,193.8
				c-1,0-1.9,0.2-2.7,0.7c-0.8,0.5-1.5,1.1-2.1,2v8.7c0.6,0.8,1.2,1.3,1.9,1.6c0.7,0.3,1.4,0.5,2.3,0.5c1.6,0,2.9-0.6,3.8-1.8
				c0.9-1.2,1.3-2.9,1.3-5.1c0-1.2-0.1-2.2-0.3-3c-0.2-0.8-0.5-1.5-0.9-2c-0.4-0.5-0.9-0.9-1.4-1.2
				C266,193.9,265.3,193.8,264.6,193.8z"/>
			<path class="st4" d="M284.2,191c1.1,0,2.1,0.2,3.1,0.5s1.7,0.9,2.4,1.6c0.7,0.7,1.2,1.6,1.6,2.6c0.4,1,0.6,2.2,0.6,3.5
				c0,0.5-0.1,0.9-0.2,1.1c-0.1,0.2-0.3,0.3-0.6,0.3H279c0,1.1,0.2,2.1,0.5,2.9c0.3,0.8,0.7,1.5,1.2,2.1c0.5,0.5,1.1,1,1.8,1.2
				c0.7,0.3,1.4,0.4,2.3,0.4c0.8,0,1.5-0.1,2-0.3c0.6-0.2,1.1-0.4,1.5-0.6c0.4-0.2,0.8-0.4,1.1-0.6c0.3-0.2,0.5-0.3,0.8-0.3
				c0.3,0,0.5,0.1,0.6,0.3l1,1.2c-0.4,0.5-0.9,0.9-1.5,1.3c-0.6,0.4-1.1,0.6-1.8,0.9c-0.6,0.2-1.3,0.4-2,0.5c-0.7,0.1-1.3,0.2-2,0.2
				c-1.3,0-2.4-0.2-3.5-0.6c-1.1-0.4-2-1-2.8-1.9c-0.8-0.8-1.4-1.8-1.8-3.1c-0.4-1.2-0.7-2.6-0.7-4.2c0-1.3,0.2-2.5,0.6-3.6
				c0.4-1.1,1-2.1,1.7-2.9c0.7-0.8,1.6-1.4,2.7-1.9C281.6,191.3,282.8,191,284.2,191z M284.2,193.5c-1.5,0-2.7,0.4-3.5,1.3
				s-1.4,2.1-1.6,3.6h9.7c0-0.7-0.1-1.4-0.3-2c-0.2-0.6-0.5-1.1-0.9-1.5c-0.4-0.4-0.9-0.8-1.4-1S284.9,193.5,284.2,193.5z"/>
			<path class="st4" d="M306.7,192.3c0.2-0.3,0.4-0.5,0.7-0.7c0.3-0.2,0.6-0.3,0.9-0.3h2.7l-4.7,6.9c-0.3,0.5-0.6,0.8-0.9,1.1
				c-0.3,0.3-0.7,0.5-1.2,0.7c0.6,0.2,1.1,0.4,1.5,0.7s0.8,0.8,1.1,1.3l4.7,7.6h-2.4c-0.6,0-1.1-0.1-1.4-0.3s-0.6-0.5-0.9-0.9
				l-3.4-5.6c-0.3-0.5-0.6-0.8-1-1c-0.4-0.2-0.9-0.4-1.4-0.4h-1.9v8.2h-3.4v-18.3h3.4v7.8h1.7c0.5,0,0.9-0.1,1.3-0.3
				s0.7-0.5,0.9-0.9L306.7,192.3z"/>
			<path class="st4" d="M330.6,191.3v18.3h-3.4V194h-5.6c-0.1,2.3-0.4,4.3-0.6,6c-0.3,1.7-0.6,3.1-1,4.3c-0.4,1.2-0.9,2.1-1.4,2.9
				c-0.5,0.7-1,1.3-1.6,1.7c-0.6,0.4-1.1,0.7-1.7,0.8c-0.6,0.1-1.2,0.2-1.8,0.2c-1.1,0-1.6-0.2-1.6-0.5v-2.2h1
				c0.4,0,0.8-0.1,1.2-0.2s0.8-0.4,1.2-0.8s0.8-1,1.1-1.7c0.4-0.7,0.7-1.7,1-2.8c0.3-1.2,0.6-2.6,0.8-4.3c0.2-1.7,0.4-3.7,0.5-6
				H330.6z"/>
			<path class="st4" d="M347.3,209.6c-0.3,0-0.6-0.1-0.8-0.2c-0.2-0.1-0.3-0.3-0.4-0.6l-0.4-1.6c-0.5,0.4-0.9,0.8-1.4,1.2
				c-0.5,0.3-0.9,0.6-1.4,0.9c-0.5,0.2-1,0.4-1.6,0.5c-0.6,0.1-1.2,0.2-1.9,0.2c-0.7,0-1.4-0.1-2-0.3c-0.6-0.2-1.2-0.5-1.6-0.9
				c-0.5-0.4-0.8-0.9-1.1-1.5c-0.3-0.6-0.4-1.3-0.4-2.2c0-0.7,0.2-1.4,0.6-2.1c0.4-0.7,1-1.3,1.9-1.8c0.9-0.5,2-1,3.5-1.3
				s3.2-0.5,5.2-0.6v-1.4c0-1.4-0.3-2.4-0.9-3.1c-0.6-0.7-1.5-1.1-2.6-1.1c-0.8,0-1.4,0.1-2,0.3s-1,0.4-1.4,0.6
				c-0.4,0.2-0.7,0.4-1,0.6s-0.6,0.3-0.9,0.3c-0.2,0-0.4-0.1-0.6-0.2c-0.2-0.1-0.3-0.3-0.4-0.4l-0.6-1.1c1-1,2.1-1.7,3.3-2.2
				c1.2-0.5,2.5-0.7,3.9-0.7c1,0,2,0.2,2.8,0.5c0.8,0.3,1.5,0.8,2,1.4c0.5,0.6,1,1.3,1.2,2.2c0.3,0.9,0.4,1.8,0.4,2.8v11.7H347.3z
				 M340.4,207.5c0.5,0,1-0.1,1.5-0.2c0.5-0.1,0.9-0.3,1.3-0.5c0.4-0.2,0.8-0.5,1.1-0.7c0.4-0.3,0.7-0.6,1.1-1v-3.7
				c-1.4,0-2.7,0.2-3.7,0.3c-1,0.2-1.8,0.4-2.5,0.7c-0.6,0.3-1.1,0.6-1.4,1c-0.3,0.4-0.4,0.8-0.4,1.3c0,0.5,0.1,0.9,0.2,1.2
				c0.1,0.3,0.4,0.6,0.6,0.8c0.3,0.2,0.6,0.4,0.9,0.5S340,207.5,340.4,207.5z"/>
			<path class="st4" d="M363.5,202.1c0.1,0.3,0.3,0.6,0.4,0.9c0.1-0.3,0.2-0.6,0.4-0.9c0.1-0.3,0.3-0.6,0.4-0.9l5.4-9.2
				c0.2-0.3,0.4-0.5,0.6-0.6s0.5-0.2,0.7-0.2h2.8v18.3H371v-11.8c0-0.3,0-0.7,0.1-1.2c0-0.4,0.1-0.8,0.2-1.2l-6.2,10.9
				c-0.1,0.2-0.2,0.3-0.4,0.5c-0.2,0.1-0.4,0.2-0.6,0.2h-0.4c-0.2,0-0.4-0.1-0.6-0.2c-0.2-0.1-0.3-0.3-0.4-0.5l-6.3-10.9
				c0.1,0.4,0.1,0.8,0.2,1.2c0,0.4,0.1,0.8,0.1,1.2v11.8h-3.1v-18.3h2.8c0.2,0,0.5,0.1,0.7,0.2c0.2,0.1,0.4,0.3,0.6,0.6l5.5,9.2
				C363.2,201.5,363.4,201.8,363.5,202.1z"/>
			<path class="st4" d="M384.8,214.9c-0.1,0.3-0.2,0.5-0.4,0.6s-0.4,0.2-0.8,0.2H381l3.3-7.3l-7.5-17.2h3c0.3,0,0.5,0.1,0.7,0.2
				c0.2,0.1,0.3,0.3,0.3,0.5l4.7,11.2c0.2,0.6,0.4,1.1,0.5,1.6c0.1-0.3,0.2-0.6,0.3-0.8c0.1-0.3,0.2-0.6,0.3-0.8l4.6-11.1
				c0.1-0.2,0.2-0.4,0.4-0.5c0.2-0.1,0.4-0.2,0.6-0.2h2.7L384.8,214.9z"/>
			<path class="st4" d="M422.1,191.3v18.3h-3.4v-8.5h-8.5v8.5h-3.4v-18.3h3.4v7.2h8.5v-7.2H422.1z"/>
			<path class="st4" d="M438.8,209.6c-0.3,0-0.6-0.1-0.8-0.2c-0.2-0.1-0.3-0.3-0.4-0.6l-0.4-1.6c-0.5,0.4-0.9,0.8-1.4,1.2
				c-0.5,0.3-0.9,0.6-1.4,0.9c-0.5,0.2-1,0.4-1.6,0.5c-0.6,0.1-1.2,0.2-1.9,0.2c-0.7,0-1.4-0.1-2-0.3c-0.6-0.2-1.2-0.5-1.6-0.9
				c-0.5-0.4-0.8-0.9-1.1-1.5c-0.3-0.6-0.4-1.3-0.4-2.2c0-0.7,0.2-1.4,0.6-2.1c0.4-0.7,1-1.3,1.9-1.8c0.9-0.5,2-1,3.5-1.3
				s3.2-0.5,5.2-0.6v-1.4c0-1.4-0.3-2.4-0.9-3.1c-0.6-0.7-1.5-1.1-2.6-1.1c-0.8,0-1.4,0.1-2,0.3s-1,0.4-1.4,0.6
				c-0.4,0.2-0.7,0.4-1,0.6s-0.6,0.3-0.9,0.3c-0.2,0-0.4-0.1-0.6-0.2c-0.2-0.1-0.3-0.3-0.4-0.4l-0.6-1.1c1-1,2.1-1.7,3.3-2.2
				c1.2-0.5,2.5-0.7,3.9-0.7c1,0,2,0.2,2.8,0.5c0.8,0.3,1.5,0.8,2,1.4c0.5,0.6,1,1.3,1.2,2.2c0.3,0.9,0.4,1.8,0.4,2.8v11.7H438.8z
				 M431.9,207.5c0.5,0,1-0.1,1.5-0.2c0.5-0.1,0.9-0.3,1.3-0.5c0.4-0.2,0.8-0.5,1.1-0.7c0.4-0.3,0.7-0.6,1.1-1v-3.7
				c-1.4,0-2.7,0.2-3.7,0.3c-1,0.2-1.8,0.4-2.5,0.7c-0.6,0.3-1.1,0.6-1.4,1c-0.3,0.4-0.4,0.8-0.4,1.3c0,0.5,0.1,0.9,0.2,1.2
				c0.1,0.3,0.4,0.6,0.6,0.8c0.3,0.2,0.6,0.4,0.9,0.5S431.5,207.5,431.9,207.5z"/>
		</g>
		<g class="st13">
			<path class="st4" d="M94.2,237.9c-0.1,0.1-0.2,0.2-0.3,0.3c-0.1,0.1-0.2,0.1-0.4,0.1c-0.2,0-0.4-0.1-0.6-0.2
				c-0.2-0.2-0.5-0.3-0.8-0.5c-0.3-0.2-0.7-0.3-1.2-0.5c-0.5-0.2-1-0.2-1.7-0.2c-0.9,0-1.6,0.2-2.3,0.5c-0.7,0.3-1.2,0.8-1.7,1.4
				c-0.5,0.6-0.8,1.3-1,2.1s-0.3,1.8-0.3,2.8c0,1.1,0.1,2,0.4,2.9s0.6,1.5,1,2.1c0.5,0.6,1,1,1.6,1.3c0.6,0.3,1.4,0.5,2.2,0.5
				c0.8,0,1.4-0.1,1.9-0.3c0.5-0.2,0.9-0.4,1.2-0.6c0.3-0.2,0.6-0.4,0.8-0.6c0.2-0.2,0.4-0.3,0.7-0.3c0.3,0,0.5,0.1,0.6,0.3l1,1.2
				c-0.4,0.5-0.9,0.9-1.4,1.3c-0.5,0.4-1.1,0.7-1.7,0.9c-0.6,0.2-1.2,0.4-1.8,0.5c-0.6,0.1-1.3,0.2-1.9,0.2c-1.1,0-2.2-0.2-3.2-0.6
				s-1.8-1-2.6-1.8s-1.3-1.8-1.7-3s-0.6-2.5-0.6-4c0-1.4,0.2-2.6,0.6-3.8c0.4-1.1,0.9-2.1,1.7-3s1.6-1.5,2.7-2
				c1.1-0.5,2.3-0.7,3.7-0.7c1.3,0,2.5,0.2,3.4,0.6c1,0.4,1.9,1,2.6,1.8L94.2,237.9z"/>
			<path class="st4" d="M98.6,234.5h6.8c1.1,0,2.1,0.1,2.9,0.3c0.8,0.2,1.5,0.5,2,0.9s0.9,0.8,1.2,1.4c0.2,0.5,0.4,1.1,0.4,1.7
				c0,0.4-0.1,0.8-0.2,1.2c-0.1,0.4-0.3,0.8-0.6,1.2c-0.3,0.4-0.6,0.8-1.1,1.1c-0.5,0.3-1,0.6-1.7,0.7c1.4,0.2,2.4,0.7,3.2,1.4
				c0.8,0.7,1.1,1.7,1.1,2.9c0,0.9-0.2,1.7-0.5,2.3c-0.4,0.7-0.9,1.2-1.5,1.7c-0.6,0.4-1.4,0.8-2.2,1c-0.8,0.2-1.7,0.3-2.7,0.3h-7.1
				V234.5z M101.9,242.4h3.4c0.5,0,1-0.1,1.4-0.2c0.4-0.1,0.8-0.3,1.1-0.6c0.3-0.3,0.6-0.6,0.7-0.9c0.2-0.4,0.3-0.8,0.3-1.2
				c0-0.3-0.1-0.6-0.2-0.9c-0.1-0.3-0.3-0.6-0.6-0.8s-0.6-0.4-1.1-0.6c-0.5-0.1-1-0.2-1.7-0.2h-3.4V242.4z M101.9,244.5v5.9h3.8
				c1.2,0,2.1-0.3,2.7-0.8s1-1.3,1-2.2c0-0.4-0.1-0.8-0.2-1.1c-0.1-0.3-0.3-0.6-0.6-0.9c-0.3-0.3-0.7-0.4-1.2-0.6
				c-0.5-0.1-1.1-0.2-1.8-0.2H101.9z"/>
			<path class="st4" d="M124.3,234.2c1.3,0,2.6,0.2,3.6,0.7c1.1,0.4,2,1.1,2.8,1.9c0.8,0.8,1.3,1.8,1.7,3c0.4,1.2,0.6,2.5,0.6,3.9
				c0,1.4-0.2,2.7-0.6,3.9c-0.4,1.2-1,2.2-1.7,3c-0.8,0.8-1.7,1.4-2.8,1.9c-1.1,0.4-2.3,0.7-3.6,0.7c-1.3,0-2.6-0.2-3.6-0.7
				c-1.1-0.4-2-1.1-2.8-1.9c-0.8-0.8-1.3-1.8-1.8-3c-0.4-1.2-0.6-2.5-0.6-3.9c0-1.4,0.2-2.7,0.6-3.9c0.4-1.2,1-2.1,1.8-3
				c0.8-0.8,1.7-1.4,2.8-1.9C121.7,234.5,122.9,234.2,124.3,234.2z M124.3,250.4c1.8,0,3.1-0.6,3.9-1.8c0.9-1.2,1.3-2.8,1.3-5
				c0-2.1-0.4-3.8-1.3-5c-0.9-1.2-2.2-1.8-3.9-1.8c-1.8,0-3.1,0.6-4,1.8c-0.9,1.2-1.3,2.8-1.3,5c0,2.1,0.4,3.8,1.3,5
				S122.5,250.4,124.3,250.4z"/>
			<path class="st4" d="M144.5,234.2c1.1,0,2.1,0.2,3.1,0.5s1.7,0.9,2.4,1.6c0.7,0.7,1.2,1.6,1.6,2.6c0.4,1,0.6,2.2,0.6,3.5
				c0,0.5-0.1,0.9-0.2,1.1c-0.1,0.2-0.3,0.3-0.6,0.3h-12.1c0,1.1,0.2,2.1,0.5,2.9c0.3,0.8,0.7,1.5,1.2,2.1c0.5,0.5,1.1,1,1.8,1.2
				c0.7,0.3,1.4,0.4,2.3,0.4c0.8,0,1.5-0.1,2-0.3c0.6-0.2,1.1-0.4,1.5-0.6c0.4-0.2,0.8-0.4,1.1-0.6c0.3-0.2,0.5-0.3,0.8-0.3
				c0.3,0,0.5,0.1,0.6,0.3l1,1.2c-0.4,0.5-0.9,0.9-1.5,1.3c-0.6,0.4-1.1,0.6-1.8,0.9c-0.6,0.2-1.3,0.4-2,0.5c-0.7,0.1-1.3,0.2-2,0.2
				c-1.3,0-2.4-0.2-3.5-0.6c-1.1-0.4-2-1-2.8-1.9c-0.8-0.8-1.4-1.8-1.8-3.1c-0.4-1.2-0.7-2.6-0.7-4.2c0-1.3,0.2-2.5,0.6-3.6
				c0.4-1.1,1-2.1,1.7-2.9c0.7-0.8,1.6-1.4,2.7-1.9C142,234.5,143.2,234.2,144.5,234.2z M144.6,236.7c-1.5,0-2.7,0.4-3.5,1.3
				s-1.4,2.1-1.6,3.6h9.7c0-0.7-0.1-1.4-0.3-2c-0.2-0.6-0.5-1.1-0.9-1.5c-0.4-0.4-0.9-0.8-1.4-1S145.3,236.7,144.6,236.7z"/>
			<path class="st4" d="M166,245.3c0.1,0.3,0.3,0.6,0.4,0.9c0.1-0.3,0.2-0.6,0.4-0.9c0.1-0.3,0.3-0.6,0.4-0.9l5.4-9.2
				c0.2-0.3,0.4-0.5,0.6-0.6s0.5-0.2,0.7-0.2h2.8v18.3h-3.1V241c0-0.3,0-0.7,0.1-1.2c0-0.4,0.1-0.8,0.2-1.2l-6.2,10.9
				c-0.1,0.2-0.2,0.3-0.4,0.5c-0.2,0.1-0.4,0.2-0.6,0.2h-0.4c-0.2,0-0.4-0.1-0.6-0.2c-0.2-0.1-0.3-0.3-0.4-0.5l-6.3-10.9
				c0.1,0.4,0.1,0.8,0.2,1.2c0,0.4,0.1,0.8,0.1,1.2v11.8H156v-18.3h2.8c0.2,0,0.5,0.1,0.7,0.2c0.2,0.1,0.4,0.3,0.6,0.6l5.5,9.2
				C165.7,244.7,165.8,245,166,245.3z"/>
			<path class="st4" d="M203.4,237.9c-0.1,0.1-0.2,0.2-0.3,0.3c-0.1,0.1-0.2,0.1-0.4,0.1c-0.2,0-0.4-0.1-0.6-0.2
				c-0.2-0.2-0.5-0.3-0.8-0.5c-0.3-0.2-0.7-0.3-1.2-0.5c-0.5-0.2-1-0.2-1.7-0.2c-0.9,0-1.6,0.2-2.3,0.5c-0.7,0.3-1.2,0.8-1.7,1.4
				c-0.5,0.6-0.8,1.3-1,2.1s-0.3,1.8-0.3,2.8c0,1.1,0.1,2,0.4,2.9s0.6,1.5,1,2.1c0.5,0.6,1,1,1.6,1.3c0.6,0.3,1.4,0.5,2.2,0.5
				c0.8,0,1.4-0.1,1.9-0.3c0.5-0.2,0.9-0.4,1.2-0.6c0.3-0.2,0.6-0.4,0.8-0.6c0.2-0.2,0.4-0.3,0.7-0.3c0.3,0,0.5,0.1,0.6,0.3l1,1.2
				c-0.4,0.5-0.9,0.9-1.4,1.3c-0.5,0.4-1.1,0.7-1.7,0.9c-0.6,0.2-1.2,0.4-1.8,0.5c-0.6,0.1-1.3,0.2-1.9,0.2c-1.1,0-2.2-0.2-3.2-0.6
				s-1.8-1-2.6-1.8s-1.3-1.8-1.7-3s-0.6-2.5-0.6-4c0-1.4,0.2-2.6,0.6-3.8c0.4-1.1,0.9-2.1,1.7-3s1.6-1.5,2.7-2
				c1.1-0.5,2.3-0.7,3.7-0.7c1.3,0,2.5,0.2,3.4,0.6c1,0.4,1.9,1,2.6,1.8L203.4,237.9z"/>
			<path class="st4" d="M219.5,252.8c-0.3,0-0.6-0.1-0.8-0.2c-0.2-0.1-0.3-0.3-0.4-0.6l-0.4-1.6c-0.5,0.4-0.9,0.8-1.4,1.2
				c-0.5,0.3-0.9,0.6-1.4,0.9c-0.5,0.2-1,0.4-1.6,0.5c-0.6,0.1-1.2,0.2-1.9,0.2c-0.7,0-1.4-0.1-2-0.3c-0.6-0.2-1.2-0.5-1.6-0.9
				c-0.5-0.4-0.8-0.9-1.1-1.5c-0.3-0.6-0.4-1.3-0.4-2.2c0-0.7,0.2-1.4,0.6-2.1c0.4-0.7,1-1.3,1.9-1.8c0.9-0.5,2-1,3.5-1.3
				s3.2-0.5,5.2-0.6v-1.4c0-1.4-0.3-2.4-0.9-3.1c-0.6-0.7-1.5-1.1-2.6-1.1c-0.8,0-1.4,0.1-2,0.3s-1,0.4-1.4,0.6
				c-0.4,0.2-0.7,0.4-1,0.6s-0.6,0.3-0.9,0.3c-0.2,0-0.4-0.1-0.6-0.2c-0.2-0.1-0.3-0.3-0.4-0.4l-0.6-1.1c1-1,2.1-1.7,3.3-2.2
				c1.2-0.5,2.5-0.7,3.9-0.7c1,0,2,0.2,2.8,0.5c0.8,0.3,1.5,0.8,2,1.4c0.5,0.6,1,1.3,1.2,2.2c0.3,0.9,0.4,1.8,0.4,2.8v11.7H219.5z
				 M212.7,250.7c0.5,0,1-0.1,1.5-0.2c0.5-0.1,0.9-0.3,1.3-0.5c0.4-0.2,0.8-0.5,1.1-0.7c0.4-0.3,0.7-0.6,1.1-1v-3.7
				c-1.4,0-2.7,0.2-3.7,0.3c-1,0.2-1.8,0.4-2.5,0.7c-0.6,0.3-1.1,0.6-1.4,1c-0.3,0.4-0.4,0.8-0.4,1.3c0,0.5,0.1,0.9,0.2,1.2
				c0.1,0.3,0.4,0.6,0.6,0.8c0.3,0.2,0.6,0.4,0.9,0.5S212.2,250.7,212.7,250.7z"/>
			<path class="st4" d="M225.8,252.8v-18.3h3.4v12.1c0,0.2,0,0.5,0,0.8c0,0.3-0.1,0.6-0.1,0.8c0.2-0.5,0.4-0.9,0.7-1.2
				c0,0,0.1-0.2,0.4-0.6c0.3-0.3,0.6-0.8,1-1.3s0.9-1.2,1.4-1.9c0.5-0.7,1-1.4,1.6-2.1c1.2-1.7,2.7-3.6,4.2-5.7
				c0.1-0.2,0.3-0.4,0.5-0.6c0.2-0.2,0.4-0.3,0.7-0.3h2.1v18.3h-3.4v-12.1c0-0.2,0-0.5,0-0.8s0.1-0.6,0.1-0.8
				c-0.1,0.2-0.2,0.5-0.3,0.7c-0.1,0.2-0.2,0.4-0.3,0.6c0,0-0.2,0.2-0.4,0.6c-0.3,0.3-0.6,0.8-1,1.3c-0.4,0.6-0.9,1.2-1.4,1.9
				s-1,1.4-1.6,2.1c-1.2,1.7-2.7,3.6-4.2,5.7c-0.1,0.2-0.3,0.4-0.5,0.6c-0.2,0.2-0.4,0.3-0.7,0.3H225.8z M233.9,230.1
				c0.5,0,0.9-0.1,1.2-0.2c0.3-0.1,0.6-0.3,0.8-0.5c0.2-0.2,0.4-0.6,0.4-1c0.1-0.4,0.1-0.9,0.1-1.4h2c0.2,0,0.4,0.1,0.5,0.3
				s0.2,0.4,0.2,0.7c0,0.6-0.1,1.1-0.4,1.6c-0.2,0.5-0.6,0.9-1.1,1.2s-1,0.6-1.7,0.8c-0.7,0.2-1.4,0.3-2.2,0.3s-1.6-0.1-2.2-0.3
				c-0.7-0.2-1.2-0.5-1.7-0.8c-0.5-0.3-0.8-0.8-1.1-1.2c-0.2-0.5-0.4-1-0.4-1.6c0-0.3,0.1-0.5,0.2-0.7s0.3-0.3,0.5-0.3h2
				c0,0.6,0,1,0.1,1.4c0.1,0.4,0.2,0.7,0.4,1s0.5,0.4,0.8,0.5C233,230,233.4,230.1,233.9,230.1z"/>
		</g>
		<g class="st13">
			<path class="st4" d="M244.6,234.5h17.3v2.6h-6.9v15.7h-3.4v-15.7h-6.9V234.5z"/>
		</g>
		<g class="st13">
			<path class="st4" d="M271.6,234.2c1.1,0,2.1,0.2,3.1,0.5s1.7,0.9,2.4,1.6c0.7,0.7,1.2,1.6,1.6,2.6c0.4,1,0.6,2.2,0.6,3.5
				c0,0.5-0.1,0.9-0.2,1.1c-0.1,0.2-0.3,0.3-0.6,0.3h-12.1c0,1.1,0.2,2.1,0.5,2.9c0.3,0.8,0.7,1.5,1.2,2.1c0.5,0.5,1.1,1,1.8,1.2
				c0.7,0.3,1.4,0.4,2.3,0.4c0.8,0,1.5-0.1,2-0.3c0.6-0.2,1.1-0.4,1.5-0.6c0.4-0.2,0.8-0.4,1.1-0.6c0.3-0.2,0.5-0.3,0.8-0.3
				c0.3,0,0.5,0.1,0.6,0.3l1,1.2c-0.4,0.5-0.9,0.9-1.5,1.3c-0.6,0.4-1.1,0.6-1.8,0.9c-0.6,0.2-1.3,0.4-2,0.5c-0.7,0.1-1.3,0.2-2,0.2
				c-1.3,0-2.4-0.2-3.5-0.6c-1.1-0.4-2-1-2.8-1.9c-0.8-0.8-1.4-1.8-1.8-3.1c-0.4-1.2-0.7-2.6-0.7-4.2c0-1.3,0.2-2.5,0.6-3.6
				c0.4-1.1,1-2.1,1.7-2.9c0.7-0.8,1.6-1.4,2.7-1.9C269.1,234.5,270.3,234.2,271.6,234.2z M271.6,236.7c-1.5,0-2.7,0.4-3.5,1.3
				s-1.4,2.1-1.6,3.6h9.7c0-0.7-0.1-1.4-0.3-2c-0.2-0.6-0.5-1.1-0.9-1.5c-0.4-0.4-0.9-0.8-1.4-1S272.4,236.7,271.6,236.7z"/>
		</g>
		<g class="st13">
			<path class="st4" d="M281.1,229.3c0.4-0.3,0.8-0.7,1.3-1c0.5-0.3,1-0.6,1.5-0.8c0.5-0.2,1.1-0.4,1.7-0.6c0.6-0.1,1.3-0.2,2-0.2
				c1,0,1.8,0.1,2.7,0.4c0.8,0.3,1.5,0.7,2.1,1.2c0.6,0.5,1.1,1.1,1.4,1.9c0.3,0.7,0.5,1.5,0.5,2.4c0,0.9-0.1,1.7-0.4,2.4
				s-0.6,1.2-1,1.7c-0.4,0.5-0.9,0.9-1.3,1.3c-0.5,0.4-0.9,0.7-1.4,1c-0.4,0.3-0.8,0.6-1.1,1c-0.3,0.3-0.5,0.7-0.5,1.1l-0.3,2.7
				h-2.3l-0.2-3c-0.1-0.5,0-1,0.3-1.4c0.3-0.4,0.6-0.8,1-1.1c0.4-0.4,0.9-0.7,1.3-1c0.5-0.3,0.9-0.7,1.4-1.1s0.8-0.9,1.1-1.4
				c0.3-0.5,0.4-1.2,0.4-1.9c0-0.5-0.1-1-0.3-1.4c-0.2-0.4-0.5-0.8-0.8-1c-0.3-0.3-0.7-0.5-1.2-0.7c-0.5-0.2-0.9-0.2-1.5-0.2
				c-0.7,0-1.3,0.1-1.9,0.3c-0.5,0.2-1,0.4-1.3,0.6s-0.7,0.4-0.9,0.6c-0.2,0.2-0.4,0.3-0.6,0.3c-0.3,0-0.6-0.1-0.7-0.4L281.1,229.3z
				 M284.7,250.7c0-0.3,0.1-0.6,0.2-0.9c0.1-0.3,0.3-0.5,0.5-0.7c0.2-0.2,0.4-0.4,0.7-0.5c0.3-0.1,0.6-0.2,0.9-0.2
				c0.3,0,0.6,0.1,0.9,0.2c0.3,0.1,0.5,0.3,0.7,0.5c0.2,0.2,0.4,0.5,0.5,0.7c0.1,0.3,0.2,0.6,0.2,0.9c0,0.3-0.1,0.6-0.2,0.9
				c-0.1,0.3-0.3,0.5-0.5,0.7s-0.5,0.4-0.7,0.5c-0.3,0.1-0.6,0.2-0.9,0.2c-0.3,0-0.6-0.1-0.9-0.2s-0.5-0.3-0.7-0.5
				c-0.2-0.2-0.4-0.5-0.5-0.7C284.7,251.4,284.7,251.1,284.7,250.7z"/>
		</g>
		<g class="st13">
			<path class="st7" d="M81.2,99.4V81.5h5.7c1.1,0,2,0.1,2.8,0.3c0.8,0.2,1.5,0.5,2,0.9c0.5,0.4,0.9,0.9,1.1,1.5s0.4,1.2,0.4,2
				c0,0.4-0.1,0.9-0.2,1.3c-0.1,0.4-0.3,0.8-0.6,1.1c-0.3,0.4-0.6,0.7-1,0.9c-0.4,0.3-0.9,0.5-1.5,0.7c1.3,0.3,2.3,0.7,3,1.4
				c0.7,0.7,1,1.6,1,2.7c0,0.8-0.1,1.4-0.4,2.1s-0.7,1.2-1.2,1.6c-0.5,0.4-1.2,0.8-2,1c-0.8,0.2-1.7,0.4-2.7,0.4H81.2z M83.6,89.5
				h3.2c0.7,0,1.3-0.1,1.8-0.2c0.5-0.2,0.9-0.4,1.2-0.6s0.6-0.6,0.7-1c0.2-0.4,0.2-0.8,0.2-1.2c0-1.1-0.3-1.8-0.9-2.3
				c-0.6-0.5-1.6-0.7-3-0.7h-3.3V89.5z M83.6,91.2v6.2h3.9c0.7,0,1.3-0.1,1.8-0.2s0.9-0.4,1.2-0.7c0.3-0.3,0.6-0.6,0.7-1
				c0.2-0.4,0.2-0.8,0.2-1.3c0-0.9-0.3-1.7-1-2.2c-0.7-0.5-1.6-0.8-3-0.8H83.6z"/>
		</g>
		<g class="st13">
			<path class="st7" d="M101.9,86.5c0.8,0,1.5,0.1,2.1,0.4c0.6,0.3,1.2,0.6,1.7,1.1c0.5,0.5,0.8,1.1,1.1,1.8s0.4,1.5,0.4,2.4
				c0,0.4,0,0.6-0.1,0.7c-0.1,0.1-0.2,0.2-0.4,0.2h-8.5c0,0.8,0.1,1.5,0.3,2.1s0.5,1.1,0.8,1.5c0.3,0.4,0.8,0.7,1.2,0.9
				c0.5,0.2,1,0.3,1.6,0.3c0.6,0,1-0.1,1.4-0.2s0.8-0.3,1-0.4c0.3-0.2,0.5-0.3,0.7-0.4c0.2-0.1,0.4-0.2,0.5-0.2
				c0.2,0,0.3,0.1,0.4,0.2l0.6,0.8c-0.3,0.3-0.6,0.6-1,0.9s-0.8,0.4-1.2,0.6s-0.9,0.3-1.4,0.4s-0.9,0.1-1.4,0.1
				c-0.9,0-1.7-0.1-2.4-0.4s-1.4-0.7-1.9-1.3c-0.5-0.6-1-1.3-1.3-2.1c-0.3-0.8-0.4-1.8-0.4-2.9c0-0.9,0.1-1.7,0.4-2.5
				c0.3-0.8,0.7-1.4,1.2-2s1.1-1,1.9-1.3C100.1,86.7,100.9,86.5,101.9,86.5z M101.9,88.2c-1.1,0-1.9,0.3-2.5,0.9
				c-0.6,0.6-1,1.5-1.1,2.6h6.9c0-0.5-0.1-1-0.2-1.4c-0.1-0.4-0.4-0.8-0.6-1.1c-0.3-0.3-0.6-0.6-1-0.7
				C102.9,88.3,102.4,88.2,101.9,88.2z"/>
			<path class="st7" d="M116.4,83.8c-0.9,0.1-1.6,0.3-2.2,0.6c-0.6,0.3-1.1,0.7-1.5,1.2s-0.7,1.1-0.9,1.8c-0.2,0.7-0.3,1.5-0.4,2.4
				c0.2-0.4,0.5-0.8,0.8-1.1c0.3-0.3,0.7-0.6,1.1-0.8c0.4-0.2,0.9-0.4,1.3-0.5c0.5-0.1,1-0.2,1.5-0.2c0.8,0,1.6,0.1,2.3,0.4
				s1.2,0.7,1.7,1.3c0.5,0.5,0.8,1.2,1.1,2s0.4,1.6,0.4,2.5c0,0.9-0.1,1.8-0.4,2.6s-0.7,1.4-1.2,2c-0.5,0.5-1.2,1-1.9,1.2
				c-0.7,0.3-1.6,0.4-2.5,0.4c-0.9,0-1.6-0.1-2.4-0.4s-1.4-0.8-1.9-1.4c-0.5-0.6-1-1.5-1.3-2.6s-0.5-2.4-0.5-3.9
				c0-1.3,0.1-2.6,0.4-3.7c0.2-1.1,0.6-2.1,1.2-2.9s1.2-1.5,2.1-2c0.9-0.5,1.9-0.8,3.1-0.9l4.5-0.4l0.1,1.1c0,0.3,0,0.5-0.1,0.7
				s-0.3,0.3-0.5,0.3L116.4,83.8z M115.6,97.9c1.2,0,2.2-0.4,2.8-1.2c0.6-0.8,1-1.9,1-3.3c0-1.4-0.3-2.5-0.9-3.3
				c-0.6-0.8-1.5-1.2-2.8-1.2c-0.6,0-1.1,0.1-1.6,0.3c-0.5,0.2-0.9,0.5-1.2,0.8s-0.6,0.8-0.8,1.3s-0.3,1.1-0.3,1.8
				c0,0.8,0.1,1.4,0.2,2c0.2,0.6,0.4,1.1,0.7,1.5c0.3,0.4,0.7,0.7,1.2,1C114.4,97.8,115,97.9,115.6,97.9z"/>
			<path class="st7" d="M124.5,99.4V86.7h2.2v8.6c0,0.2,0,0.3,0,0.5c0,0.2,0,0.4-0.1,0.6c0.1-0.2,0.1-0.3,0.2-0.4
				c0.1-0.1,0.2-0.3,0.2-0.4c0,0,0.1-0.1,0.3-0.4c0.2-0.2,0.4-0.6,0.7-1c0.3-0.4,0.6-0.8,1-1.3c0.4-0.5,0.7-1,1.1-1.5
				c0.9-1.2,1.9-2.6,3-4.1c0.1-0.1,0.2-0.3,0.4-0.4c0.1-0.1,0.3-0.2,0.5-0.2h1.3v12.7h-2.2v-8.6c0-0.2,0-0.3,0-0.5s0-0.4,0.1-0.6
				c-0.1,0.2-0.2,0.3-0.2,0.5c-0.1,0.1-0.2,0.3-0.2,0.4c0,0-0.1,0.1-0.3,0.4c-0.2,0.2-0.4,0.6-0.7,1s-0.6,0.8-1,1.3
				c-0.4,0.5-0.7,1-1.1,1.5c-0.9,1.2-1.9,2.6-3,4.1c-0.1,0.1-0.2,0.3-0.3,0.4c-0.1,0.1-0.3,0.2-0.5,0.2H124.5z"/>
			<path class="st7" d="M149.4,86.7v12.7h-2.2v-5.9h-6.1v5.9h-2.2V86.7h2.2v5h6.1v-5H149.4z"/>
			<path class="st7" d="M161,99.4c-0.2,0-0.4,0-0.5-0.1c-0.1-0.1-0.2-0.2-0.3-0.4l-0.2-1.2c-0.3,0.3-0.7,0.6-1,0.8s-0.7,0.4-1,0.6
				c-0.3,0.2-0.7,0.3-1.1,0.4c-0.4,0.1-0.8,0.1-1.3,0.1c-0.5,0-1-0.1-1.4-0.2c-0.4-0.1-0.8-0.3-1.1-0.6c-0.3-0.3-0.6-0.6-0.8-1
				s-0.3-0.9-0.3-1.5c0-0.5,0.1-1,0.4-1.4c0.3-0.5,0.7-0.9,1.3-1.2c0.6-0.4,1.4-0.7,2.4-0.9s2.2-0.4,3.6-0.4v-1c0-1-0.2-1.7-0.6-2.2
				c-0.4-0.5-1-0.8-1.9-0.8c-0.5,0-1,0.1-1.4,0.2c-0.4,0.1-0.7,0.3-1,0.5c-0.3,0.2-0.5,0.3-0.7,0.5s-0.4,0.2-0.6,0.2
				c-0.1,0-0.3,0-0.4-0.1c-0.1-0.1-0.2-0.2-0.3-0.3l-0.4-0.7c0.7-0.7,1.5-1.2,2.3-1.5c0.8-0.3,1.7-0.5,2.7-0.5
				c0.7,0,1.3,0.1,1.9,0.4c0.6,0.2,1,0.6,1.4,1s0.7,0.9,0.9,1.5c0.2,0.6,0.3,1.2,0.3,2v8.1H161z M156.2,98c0.4,0,0.8,0,1.1-0.1
				c0.3-0.1,0.6-0.2,0.9-0.3c0.3-0.1,0.6-0.3,0.8-0.5c0.3-0.2,0.5-0.5,0.8-0.7v-2.6c-1,0-1.9,0.1-2.6,0.2c-0.7,0.1-1.3,0.3-1.8,0.5
				c-0.5,0.2-0.8,0.5-1,0.7c-0.2,0.3-0.3,0.6-0.3,1c0,0.3,0.1,0.6,0.2,0.9c0.1,0.2,0.3,0.4,0.4,0.6c0.2,0.2,0.4,0.3,0.7,0.3
				C155.7,98,155.9,98,156.2,98z"/>
			<path class="st7" d="M165.4,103.7V86.7h1.3c0.3,0,0.5,0.2,0.6,0.5l0.2,1.5c0.5-0.7,1.2-1.2,1.9-1.6c0.7-0.4,1.5-0.6,2.4-0.6
				c0.7,0,1.4,0.1,2,0.4s1.1,0.7,1.5,1.2c0.4,0.5,0.7,1.2,1,2c0.2,0.8,0.3,1.7,0.3,2.8c0,0.9-0.1,1.8-0.4,2.6
				c-0.2,0.8-0.6,1.5-1.1,2.1c-0.5,0.6-1,1-1.7,1.4c-0.7,0.3-1.4,0.5-2.3,0.5c-0.8,0-1.4-0.1-2-0.4c-0.6-0.3-1-0.6-1.5-1.1v5.6
				H165.4z M171,88.3c-0.7,0-1.4,0.2-1.9,0.5c-0.5,0.3-1,0.8-1.5,1.4v6.1c0.4,0.5,0.8,0.9,1.3,1.2c0.5,0.2,1,0.3,1.6,0.3
				c1.2,0,2.1-0.4,2.7-1.3s1-2,1-3.6c0-0.8-0.1-1.5-0.2-2.1c-0.1-0.6-0.4-1.1-0.6-1.5c-0.3-0.4-0.6-0.7-1-0.8S171.5,88.3,171,88.3z"
				/>
		</g>
		<path class="st3" d="M766,602l2,7c45.5-6.7,87.6-28,120-60.6c4.5-4.5,8.7-9.1,12.7-13.9l7.6-9.5l0.1-0.1
			C907.5,525.8,841,596,766,602z"/>
		<line class="st8" x1="766" y1="602" x2="768.5" y2="609.5"/>
		<polygon class="st11" points="721,284 727,281 736.2,302 732.3,304 		"/>
		<circle class="st11" cx="731.5" cy="291.5" r="11.5"/>
		<circle class="st7" cx="727.5" cy="293.5" r="11.5"/>
		<polygon class="st11" points="736,384 742,381 751.2,402 747.3,404 		"/>
		<circle class="st11" cx="746.5" cy="391.5" r="11.5"/>
		<circle class="st7" cx="742.5" cy="393.5" r="11.5"/>
		<polygon class="st11" points="768,409 774,406 783.2,427 779.3,429 		"/>
		<circle class="st11" cx="778.5" cy="416.5" r="11.5"/>
		<circle class="st7" cx="774.5" cy="418.5" r="11.5"/>
		<polygon class="st11" points="743,502 749,499 758.2,520 754.3,522 		"/>
		<circle class="st11" cx="753.5" cy="509.5" r="11.5"/>
		<circle class="st7" cx="749.5" cy="511.5" r="11.5"/>
		<path class="st7" d="M625,300.3L625,300.3c0.9,0,1.6,0.7,1.6,1.6v6.5c0,0.9-0.7,1.6-1.6,1.6h0c-0.9,0-1.6-0.7-1.6-1.6V302
			C623.4,301.1,624.1,300.3,625,300.3z"/>
		<path class="st7" d="M629.3,296L629.3,296c0-0.9,0.7-1.6,1.6-1.6h6.5c0.9,0,1.6,0.7,1.6,1.6v0c0,0.9-0.7,1.6-1.6,1.6h-6.5
			C630,297.6,629.3,296.9,629.3,296z"/>
		<path class="st7" d="M625,291.8L625,291.8c-0.9,0-1.6-0.7-1.6-1.6v-6.5c0-0.9,0.7-1.6,1.6-1.6h0c0.9,0,1.6,0.7,1.6,1.6v6.5
			C626.7,291.1,625.9,291.8,625,291.8z"/>
		<path class="st7" d="M620.8,296L620.8,296c0,0.9-0.7,1.6-1.6,1.6h-6.5c-0.9,0-1.6-0.7-1.6-1.6v0c0-0.9,0.7-1.6,1.6-1.6h6.5
			C620.1,294.4,620.8,295.1,620.8,296z"/>
		<path class="st7" d="M803,383.4L803,383.4c0.7,0,1.3,0.6,1.3,1.3v5.1c0,0.7-0.6,1.3-1.3,1.3h0c-0.7,0-1.3-0.6-1.3-1.3v-5.1
			C801.8,383.9,802.3,383.4,803,383.4z"/>
		<path class="st7" d="M806.3,380L806.3,380c0-0.7,0.6-1.3,1.3-1.3h5.1c0.7,0,1.3,0.6,1.3,1.3v0c0,0.7-0.6,1.3-1.3,1.3h-5.1
			C806.9,381.3,806.3,380.7,806.3,380z"/>
		<path class="st7" d="M803,376.7L803,376.7c-0.7,0-1.3-0.6-1.3-1.3v-5.1c0-0.7,0.6-1.3,1.3-1.3h0c0.7,0,1.3,0.6,1.3,1.3v5.1
			C804.3,376.2,803.7,376.7,803,376.7z"/>
		<path class="st7" d="M799.7,380L799.7,380c0,0.7-0.6,1.3-1.3,1.3h-5.1c-0.7,0-1.3-0.6-1.3-1.3v0c0-0.7,0.6-1.3,1.3-1.3h5.1
			C799.2,378.7,799.7,379.3,799.7,380z"/>
		<path class="st7" d="M596,331.8L596,331.8c0.6,0,1.1,0.5,1.1,1v4.2c0,0.6-0.5,1-1,1h0c-0.6,0-1-0.5-1-1v-4.2
			C595,332.2,595.4,331.8,596,331.8z"/>
		<path class="st7" d="M598.7,329L598.7,329c0-0.6,0.5-1.1,1-1.1h4.2c0.6,0,1,0.5,1,1v0c0,0.6-0.5,1-1,1h-4.2
			C599.2,330.1,598.7,329.6,598.7,329z"/>
		<path class="st7" d="M596,326.3L596,326.3c-0.6,0-1.1-0.5-1.1-1v-4.2c0-0.6,0.5-1,1-1h0c0.6,0,1,0.5,1,1v4.2
			C597.1,325.9,596.6,326.3,596,326.3z"/>
		<path class="st7" d="M593.3,329L593.3,329c0,0.6-0.5,1.1-1,1.1h-4.2c-0.6,0-1-0.5-1-1v0c0-0.6,0.5-1,1-1h4.2
			C592.9,328,593.3,328.4,593.3,329z"/>
		<path class="st7" d="M551.8,465.6L551.8,465.6c0.7,0,1.3,0.6,1.3,1.3v5.1c0,0.7-0.6,1.3-1.3,1.3h0c-0.7,0-1.3-0.6-1.3-1.3v-5.1
			C550.5,466.2,551.1,465.6,551.8,465.6z"/>
		<path class="st7" d="M555.1,462.2L555.1,462.2c0-0.7,0.6-1.3,1.3-1.3h5.1c0.7,0,1.3,0.6,1.3,1.3v0c0,0.7-0.6,1.3-1.3,1.3h-5.1
			C555.6,463.5,555.1,462.9,555.1,462.2z"/>
		<path class="st7" d="M551.8,459L551.8,459c-0.7,0-1.3-0.6-1.3-1.3v-5.1c0-0.7,0.6-1.3,1.3-1.3h0c0.7,0,1.3,0.6,1.3,1.3v5.1
			C553,458.4,552.5,459,551.8,459z"/>
		<path class="st7" d="M548.5,462.2L548.5,462.2c0,0.7-0.6,1.3-1.3,1.3h-5.1c-0.7,0-1.3-0.6-1.3-1.3v0c0-0.7,0.6-1.3,1.3-1.3h5.1
			C547.9,461,548.5,461.5,548.5,462.2z"/>
		<path class="st7" d="M837.7,472.9L837.7,472.9c0.7,0,1.3,0.6,1.3,1.3v5.1c0,0.7-0.6,1.3-1.3,1.3h0c-0.7,0-1.3-0.6-1.3-1.3v-5.1
			C836.4,473.5,837,472.9,837.7,472.9z"/>
		<path class="st7" d="M841,469.5L841,469.5c0-0.7,0.6-1.3,1.3-1.3h5.1c0.7,0,1.3,0.6,1.3,1.3v0c0,0.7-0.6,1.3-1.3,1.3h-5.1
			C841.5,470.8,841,470.3,841,469.5z"/>
		<path class="st7" d="M837.7,466.3L837.7,466.3c-0.7,0-1.3-0.6-1.3-1.3v-5.1c0-0.7,0.6-1.3,1.3-1.3h0c0.7,0,1.3,0.6,1.3,1.3v5.1
			C838.9,465.7,838.4,466.3,837.7,466.3z"/>
		<path class="st7" d="M834.4,469.5L834.4,469.5c0,0.7-0.6,1.3-1.3,1.3H828c-0.7,0-1.3-0.6-1.3-1.3v0c0-0.7,0.6-1.3,1.3-1.3h5.1
			C833.8,468.3,834.4,468.8,834.4,469.5z"/>
		<path class="st7" d="M721,181L721,181c0.9,0,1.7,0.7,1.7,1.6l0.1,6.5c0,0.9-0.7,1.6-1.6,1.7l0,0c-0.9,0-1.6-0.7-1.7-1.6l-0.1-6.5
			C719.4,181.8,720.1,181,721,181z"/>
		<path class="st7" d="M725.2,176.6L725.2,176.6c0-0.9,0.7-1.7,1.6-1.7l6.5-0.1c0.9,0,1.6,0.7,1.7,1.6l0,0c0,0.9-0.7,1.6-1.6,1.7
			l-6.5,0.1C725.9,178.2,725.2,177.5,725.2,176.6z"/>
		<path class="st7" d="M720.9,172.5L720.9,172.5c-0.9,0-1.7-0.7-1.7-1.6l-0.1-6.5c0-0.9,0.7-1.6,1.6-1.7l0,0c0.9,0,1.6,0.7,1.7,1.6
			l0.1,6.5C722.5,171.8,721.8,172.5,720.9,172.5z"/>
		<path class="st7" d="M716.8,176.8L716.8,176.8c0,0.9-0.7,1.7-1.6,1.7l-6.5,0.1c-0.9,0-1.6-0.7-1.7-1.6l0,0c0-0.9,0.7-1.6,1.6-1.7
			l6.5-0.1C716,175.2,716.8,175.9,716.8,176.8z"/>
		<path class="st14" d="M722,291c0,0,2.2-5.4,7.6-2.7"/>
		<path class="st14" d="M650.1,347.2c0,0,2.2-5.4,7.6-2.7"/>
		<path class="st15" d="M599,463c3.7-5.2,10.4-7.4,16.5-5.5"/>
		<path class="st15" d="M606,463c2.3-2.1,5.6-2.7,8.5-1.5"/>
		<path class="st14" d="M737.2,390.7c0,0,2.2-5.4,7.6-2.7"/>
		<path class="st14" d="M769.3,415.5c0,0,2.2-5.4,7.6-2.7"/>
		<path class="st14" d="M743.9,508.7c0,0,2.2-5.4,7.6-2.7"/>
		<circle class="st9" cx="695.5" cy="575.5" r="2.5"/>
		<circle class="st9" cx="697.5" cy="620.5" r="2.5"/>
		<circle class="st9" cx="697.5" cy="630.5" r="2.5"/>
		<circle class="st9" cx="696.5" cy="672.5" r="2.5"/>
		<path class="st3" d="M744,633.8c0,0-1,7.2-12,7.2c-8,0-15-7.2-15-7.2"/>
		<polygon class="st9" points="744,633.8 730.5,637 717,633.8 717,619.9 717,606 730.5,606 744,606 744,619.9 		"/>
		<path class="st3" d="M623.6,608.9l1.1-6.9c0,0-17.9,3-33.5,0.1C601.9,605.2,612.7,607.5,623.6,608.9z"/>
		<line class="st8" x1="623.3" y1="609" x2="625.1" y2="602.2"/>
		<circle class="st16" cx="850.5" cy="224.5" r="2.5"/>
		<circle class="st16" cx="537.5" cy="224.7" r="2.5"/>
		<ellipse class="st4" cx="684" cy="210" rx="1" ry="4"/>
		<ellipse class="st4" cx="676" cy="210" rx="1" ry="4"/>
		<path class="st15" d="M672,214c0,0,8,14,16,0"/>
		<path class="st7" d="M451.1,592.2L451.1,592.2c0.9,0,1.6,0.7,1.6,1.6v6.5c0,0.9-0.7,1.6-1.6,1.6h0c-0.9,0-1.6-0.7-1.6-1.6v-6.5
			C449.4,592.9,450.2,592.2,451.1,592.2z"/>
		<path class="st7" d="M455.3,587.9L455.3,587.9c0-0.9,0.7-1.6,1.6-1.6h6.5c0.9,0,1.6,0.7,1.6,1.6v0c0,0.9-0.7,1.6-1.6,1.6h-6.5
			C456,589.5,455.3,588.8,455.3,587.9z"/>
		<path class="st7" d="M451.1,583.6L451.1,583.6c-0.9,0-1.6-0.7-1.6-1.6v-6.5c0-0.9,0.7-1.6,1.6-1.6h0c0.9,0,1.6,0.7,1.6,1.6v6.5
			C452.7,582.9,452,583.6,451.1,583.6z"/>
		<path class="st7" d="M446.9,587.8L446.9,587.8c0,0.9-0.7,1.6-1.6,1.6h-6.5c-0.9,0-1.6-0.7-1.6-1.6v0c0-0.9,0.7-1.6,1.6-1.6h6.5
			C446.1,586.2,446.9,586.9,446.9,587.8z"/>
		<path class="st3" d="M651.9,530.5c-4.7,0.3-9.3-0.2-13.8-1.5c-13,2.8-26.4,2.6-39.3-0.5c11.2,8.2,35.5,13.5,65,0.4
			C659.9,529.7,655.9,530.2,651.9,530.5z"/>
		<path class="st17" d="M643.3,532.5c-0.3,1.4,0.7,2.8,2.1,3.1c1.4,0.3,2.8-0.7,3.1-2.1c0-0.1,0-0.2,0-0.3"/>
		<path class="st2" d="M654.2,527.5l-10.6-0.5c-1.9,1-3.9,1.6-5.9,2c-0.5,2.8-0.9,7.6,1.8,10.1C645.5,544.7,657.2,540.4,654.2,527.5
			z"/>
		<path class="st12" d="M76.6,541.3L76.6,541.3c8.6,0,15.6,7,15.6,15.6v62.5c0,8.6-7,15.6-15.6,15.6l0,0c-8.6,0-15.6-7-15.6-15.6
			v-62.5C61,548.3,67.9,541.3,76.6,541.3z"/>
		<path class="st12" d="M117.2,499.9L117.2,499.9c0-8.6,7-15.6,15.6-15.6h62.5c8.6,0,15.6,7,15.6,15.6v0c0,8.6-7,15.6-15.6,15.6
			h-62.5C124.2,515.6,117.2,508.6,117.2,499.9z"/>
		<path class="st12" d="M76.6,459.6L76.6,459.6c-8.6,0-15.6-7-15.6-15.6v-62.5c0-8.6,7-15.6,15.6-15.6l0,0c8.6,0,15.6,7,15.6,15.6
			V444C92.2,452.6,85.2,459.6,76.6,459.6z"/>
		<path class="st12" d="M36.2,499.9L36.2,499.9c0,8.6-7,15.6-15.6,15.6h-62.5c-8.6,0-15.6-7-15.6-15.6l0,0c0-8.6,7-15.6,15.6-15.6
			h62.5C29.2,484.3,36.2,491.3,36.2,499.9z"/>
		<g class="st13">
			<path class="st4" d="M85.5,515.3h8.1v-25.9c0-0.7,0-1.5,0.1-2.4l-6.8,5.8c-0.2,0.2-0.5,0.3-0.7,0.4c-0.2,0-0.4,0-0.6,0
				c-0.2,0-0.4-0.1-0.5-0.2c-0.2-0.1-0.3-0.2-0.4-0.3l-1.5-2l11.3-9.8h3.8v34.5h7.5v3.6H85.5V515.3z"/>
			<path class="st4" d="M122.2,495.1c-0.4,0.4-0.7,0.8-1,1.2c-0.3,0.4-0.6,0.8-0.9,1.2c0.9-0.6,1.9-1.1,3-1.4s2.3-0.5,3.5-0.5
				c1.5,0,3,0.3,4.3,0.8s2.5,1.2,3.6,2.2c1,1,1.8,2.1,2.4,3.6c0.6,1.4,0.9,3,0.9,4.8c0,1.7-0.3,3.4-1,4.9c-0.6,1.5-1.5,2.8-2.7,3.9
				c-1.1,1.1-2.5,2-4.1,2.6c-1.6,0.6-3.4,1-5.3,1c-1.9,0-3.6-0.3-5.2-0.9c-1.6-0.6-2.9-1.5-4-2.6s-1.9-2.5-2.5-4.1s-0.9-3.4-0.9-5.4
				c0-1.7,0.4-3.4,1.1-5.3c0.7-1.9,1.9-3.9,3.5-6l9.6-13c0.2-0.3,0.6-0.6,1-0.8c0.4-0.2,0.9-0.3,1.5-0.3h4.2L122.2,495.1z
				 M117,507.2c0,1.2,0.2,2.3,0.5,3.3s0.9,1.9,1.6,2.6c0.7,0.7,1.5,1.3,2.5,1.7c1,0.4,2.1,0.6,3.4,0.6c1.3,0,2.4-0.2,3.5-0.6
				c1-0.4,1.9-1,2.6-1.7c0.7-0.7,1.3-1.6,1.7-2.6s0.6-2.1,0.6-3.2c0-1.2-0.2-2.4-0.6-3.4s-0.9-1.8-1.7-2.5c-0.7-0.7-1.6-1.2-2.6-1.6
				c-1-0.4-2.1-0.6-3.3-0.6c-1.3,0-2.4,0.2-3.4,0.6s-1.9,1-2.6,1.7c-0.7,0.7-1.3,1.6-1.6,2.5C117.2,505.1,117,506.1,117,507.2z"/>
		</g>
		<g class="st13">
			<path class="st4" d="M80.7,548.9v-12.7h2.2v8.6c0,0.2,0,0.3,0,0.5c0,0.2,0,0.4-0.1,0.6c0.1-0.2,0.1-0.3,0.2-0.4
				c0.1-0.1,0.2-0.3,0.2-0.4c0,0,0.1-0.1,0.3-0.4c0.2-0.2,0.4-0.6,0.7-1c0.3-0.4,0.6-0.8,1-1.3c0.4-0.5,0.7-1,1.1-1.5
				c0.9-1.2,1.9-2.6,3-4.1c0.1-0.1,0.2-0.3,0.4-0.4c0.1-0.1,0.3-0.2,0.5-0.2h1.3v12.7h-2.2v-8.6c0-0.2,0-0.3,0-0.5s0-0.4,0.1-0.6
				c-0.1,0.2-0.2,0.3-0.2,0.5c-0.1,0.1-0.2,0.3-0.2,0.4c0,0-0.1,0.1-0.3,0.4c-0.2,0.2-0.4,0.6-0.7,1s-0.6,0.8-1,1.3
				c-0.4,0.5-0.7,1-1.1,1.5c-0.9,1.2-1.9,2.6-3,4.1c-0.1,0.1-0.2,0.3-0.3,0.4c-0.1,0.1-0.3,0.2-0.5,0.2H80.7z"/>
		</g>
		<g class="st13">
			<path class="st4" d="M97.3,536.2v5.5h3.1c0.1-0.9,0.3-1.6,0.5-2.3s0.7-1.3,1.2-1.8c0.5-0.5,1.1-0.9,1.7-1.1s1.4-0.4,2.2-0.4
				c0.9,0,1.7,0.2,2.4,0.5c0.7,0.3,1.3,0.7,1.8,1.3c0.5,0.6,0.9,1.3,1.2,2.1c0.3,0.8,0.4,1.7,0.4,2.7c0,1-0.1,1.9-0.4,2.7
				s-0.7,1.5-1.2,2c-0.5,0.6-1.1,1-1.8,1.3c-0.7,0.3-1.5,0.5-2.4,0.5c-0.8,0-1.6-0.1-2.3-0.4s-1.2-0.6-1.7-1.1
				c-0.5-0.5-0.9-1.1-1.1-1.8s-0.5-1.5-0.5-2.4h-3.1v5.6h-2.2v-12.7H97.3z M106,547.3c1.2,0,2-0.4,2.6-1.3c0.6-0.8,0.9-2,0.9-3.5
				c0-1.5-0.3-2.7-0.9-3.5c-0.6-0.8-1.4-1.3-2.6-1.3c-1.2,0-2,0.4-2.6,1.3s-0.9,2-0.9,3.5c0,1.5,0.3,2.7,0.9,3.5
				C104,546.9,104.9,547.3,106,547.3z"/>
		</g>
		<g class="st13">
			<path class="st4" d="M125.3,536.2v12.7h-2.2V538h-4c-0.1,1.6-0.2,3-0.5,4.2c-0.2,1.2-0.4,2.2-0.7,3c-0.3,0.8-0.6,1.5-0.9,2
				c-0.3,0.5-0.7,0.9-1.1,1.2c-0.4,0.3-0.8,0.5-1.2,0.6c-0.4,0.1-0.8,0.1-1.2,0.1c-0.7,0-1.1-0.1-1.1-0.3v-1.4h0.6
				c0.3,0,0.6,0,0.9-0.1c0.3-0.1,0.6-0.3,0.9-0.6s0.5-0.7,0.8-1.2c0.3-0.5,0.5-1.2,0.7-2c0.2-0.8,0.4-1.8,0.5-3
				c0.2-1.2,0.3-2.6,0.4-4.2H125.3z"/>
			<path class="st4" d="M137.6,548.9h-2.1v-5.3h-1c-0.2,0-0.4,0-0.6,0.1s-0.3,0.1-0.4,0.2s-0.2,0.2-0.3,0.3
				c-0.1,0.1-0.2,0.2-0.3,0.4l-2.8,3.7c-0.1,0.3-0.3,0.5-0.5,0.6s-0.5,0.2-0.9,0.2h-1.6l3.7-4.8c0.3-0.5,0.7-0.8,1.2-1
				c-0.6-0.1-1.2-0.2-1.6-0.4c-0.4-0.2-0.8-0.5-1.1-0.8s-0.5-0.6-0.6-1s-0.2-0.7-0.2-1.1c0-0.4,0.1-0.9,0.3-1.3
				c0.2-0.4,0.4-0.8,0.8-1.2c0.4-0.3,0.9-0.6,1.5-0.8c0.6-0.2,1.3-0.3,2.2-0.3h4.3V548.9z M130.9,539.9c0,0.7,0.2,1.2,0.8,1.6
				s1.2,0.6,2.1,0.6h1.8v-4.4h-2.1c-0.5,0-0.9,0.1-1.2,0.2c-0.3,0.1-0.6,0.3-0.8,0.5c-0.2,0.2-0.3,0.5-0.4,0.7
				S130.9,539.7,130.9,539.9z"/>
		</g>
		<g class="st13">
			<path class="st7" d="M153.2,530.8c0.8,0,1.5,0.1,2.1,0.3c0.7,0.2,1.2,0.6,1.7,1c0.5,0.4,0.9,1,1.1,1.6c0.3,0.6,0.4,1.3,0.4,2.1
				c0,0.7-0.1,1.3-0.3,1.9c-0.2,0.6-0.5,1.1-0.8,1.6c-0.3,0.5-0.7,1-1.2,1.5c-0.4,0.5-0.9,1-1.4,1.5l-4.7,4.8c0.3-0.1,0.7-0.2,1-0.2
				c0.3-0.1,0.7-0.1,1-0.1h6c0.2,0,0.4,0.1,0.6,0.2c0.1,0.1,0.2,0.3,0.2,0.6v1.3h-12v-0.8c0-0.2,0-0.3,0.1-0.5s0.2-0.3,0.3-0.5
				l5.7-5.8c0.5-0.5,0.9-0.9,1.3-1.4c0.4-0.4,0.7-0.9,1-1.3c0.3-0.4,0.5-0.9,0.6-1.4c0.1-0.5,0.2-1,0.2-1.5s-0.1-1-0.2-1.4
				c-0.2-0.4-0.4-0.7-0.7-1c-0.3-0.3-0.6-0.5-1-0.6c-0.4-0.1-0.8-0.2-1.3-0.2c-0.5,0-0.9,0.1-1.3,0.2c-0.4,0.1-0.7,0.3-1,0.6
				c-0.3,0.2-0.5,0.5-0.7,0.8c-0.2,0.3-0.3,0.7-0.4,1.1c-0.1,0.3-0.2,0.5-0.4,0.6c-0.2,0.1-0.4,0.1-0.7,0.1l-1.2-0.2
				c0.1-0.8,0.3-1.5,0.7-2.2c0.3-0.6,0.8-1.2,1.3-1.6c0.5-0.4,1.1-0.7,1.8-1S152.4,530.8,153.2,530.8z"/>
			<path class="st7" d="M174.1,539.9c0,1.6-0.2,2.9-0.5,4.1c-0.3,1.1-0.8,2.1-1.4,2.8c-0.6,0.8-1.3,1.3-2.1,1.7
				c-0.8,0.4-1.6,0.5-2.6,0.5c-0.9,0-1.8-0.2-2.6-0.5c-0.8-0.4-1.5-0.9-2.1-1.7c-0.6-0.8-1-1.7-1.4-2.8c-0.3-1.1-0.5-2.5-0.5-4.1
				c0-1.6,0.2-2.9,0.5-4.1c0.3-1.1,0.8-2.1,1.4-2.9c0.6-0.8,1.3-1.3,2.1-1.7c0.8-0.4,1.6-0.5,2.6-0.5c0.9,0,1.8,0.2,2.6,0.5
				c0.8,0.4,1.5,0.9,2.1,1.7c0.6,0.8,1,1.7,1.4,2.9C173.9,537,174.1,538.4,174.1,539.9z M171.8,539.9c0-1.4-0.1-2.5-0.3-3.4
				c-0.2-0.9-0.5-1.7-0.9-2.2c-0.4-0.6-0.8-1-1.3-1.2c-0.5-0.2-1-0.4-1.6-0.4c-0.5,0-1.1,0.1-1.6,0.4c-0.5,0.2-1,0.7-1.3,1.2
				c-0.4,0.6-0.7,1.3-0.9,2.2c-0.2,0.9-0.3,2.1-0.3,3.4c0,1.4,0.1,2.5,0.3,3.4c0.2,0.9,0.5,1.7,0.9,2.2c0.4,0.6,0.8,1,1.3,1.2
				c0.5,0.2,1,0.4,1.6,0.4c0.6,0,1.1-0.1,1.6-0.4c0.5-0.2,1-0.7,1.3-1.2c0.4-0.6,0.7-1.3,0.9-2.2
				C171.6,542.4,171.8,541.3,171.8,539.9z"/>
			<path class="st7" d="M176.4,538.1c0-0.2,0-0.4,0.1-0.6s0.2-0.4,0.3-0.5c0.1-0.1,0.3-0.3,0.5-0.3c0.2-0.1,0.4-0.1,0.6-0.1
				s0.4,0,0.6,0.1c0.2,0.1,0.4,0.2,0.5,0.3c0.1,0.1,0.3,0.3,0.3,0.5c0.1,0.2,0.1,0.4,0.1,0.6c0,0.2,0,0.4-0.1,0.6
				c-0.1,0.2-0.2,0.4-0.3,0.5c-0.1,0.1-0.3,0.3-0.5,0.3c-0.2,0.1-0.4,0.1-0.6,0.1s-0.4,0-0.6-0.1c-0.2-0.1-0.4-0.2-0.5-0.3
				c-0.1-0.1-0.2-0.3-0.3-0.5S176.4,538.4,176.4,538.1z M176.4,547.5c0-0.2,0-0.4,0.1-0.6s0.2-0.4,0.3-0.5c0.1-0.1,0.3-0.3,0.5-0.3
				c0.2-0.1,0.4-0.1,0.6-0.1s0.4,0,0.6,0.1c0.2,0.1,0.4,0.2,0.5,0.3c0.1,0.1,0.3,0.3,0.3,0.5c0.1,0.2,0.1,0.4,0.1,0.6
				c0,0.2,0,0.4-0.1,0.6c-0.1,0.2-0.2,0.4-0.3,0.5c-0.1,0.1-0.3,0.3-0.5,0.3c-0.2,0.1-0.4,0.1-0.6,0.1s-0.4,0-0.6-0.1
				c-0.2-0.1-0.4-0.2-0.5-0.3c-0.1-0.1-0.2-0.3-0.3-0.5S176.4,547.7,176.4,547.5z"/>
			<path class="st7" d="M194.8,539.9c0,1.6-0.2,2.9-0.5,4.1c-0.3,1.1-0.8,2.1-1.4,2.8c-0.6,0.8-1.3,1.3-2.1,1.7
				c-0.8,0.4-1.6,0.5-2.6,0.5c-0.9,0-1.8-0.2-2.6-0.5c-0.8-0.4-1.5-0.9-2.1-1.7c-0.6-0.8-1-1.7-1.4-2.8c-0.3-1.1-0.5-2.5-0.5-4.1
				c0-1.6,0.2-2.9,0.5-4.1c0.3-1.1,0.8-2.1,1.4-2.9c0.6-0.8,1.3-1.3,2.1-1.7c0.8-0.4,1.6-0.5,2.6-0.5c0.9,0,1.8,0.2,2.6,0.5
				c0.8,0.4,1.5,0.9,2.1,1.7c0.6,0.8,1,1.7,1.4,2.9C194.7,537,194.8,538.4,194.8,539.9z M192.5,539.9c0-1.4-0.1-2.5-0.3-3.4
				c-0.2-0.9-0.5-1.7-0.9-2.2c-0.4-0.6-0.8-1-1.3-1.2c-0.5-0.2-1-0.4-1.6-0.4c-0.5,0-1.1,0.1-1.6,0.4c-0.5,0.2-1,0.7-1.3,1.2
				c-0.4,0.6-0.7,1.3-0.9,2.2c-0.2,0.9-0.3,2.1-0.3,3.4c0,1.4,0.1,2.5,0.3,3.4c0.2,0.9,0.5,1.7,0.9,2.2c0.4,0.6,0.8,1,1.3,1.2
				c0.5,0.2,1,0.4,1.6,0.4c0.6,0,1.1-0.1,1.6-0.4c0.5-0.2,1-0.7,1.3-1.2c0.4-0.6,0.7-1.3,0.9-2.2
				C192.4,542.4,192.5,541.3,192.5,539.9z"/>
			<path class="st7" d="M209.3,539.9c0,1.6-0.2,2.9-0.5,4.1c-0.3,1.1-0.8,2.1-1.4,2.8c-0.6,0.8-1.3,1.3-2.1,1.7
				c-0.8,0.4-1.6,0.5-2.6,0.5c-0.9,0-1.8-0.2-2.6-0.5c-0.8-0.4-1.5-0.9-2.1-1.7c-0.6-0.8-1-1.7-1.4-2.8c-0.3-1.1-0.5-2.5-0.5-4.1
				c0-1.6,0.2-2.9,0.5-4.1c0.3-1.1,0.8-2.1,1.4-2.9c0.6-0.8,1.3-1.3,2.1-1.7c0.8-0.4,1.6-0.5,2.6-0.5c0.9,0,1.8,0.2,2.6,0.5
				c0.8,0.4,1.5,0.9,2.1,1.7c0.6,0.8,1,1.7,1.4,2.9C209.1,537,209.3,538.4,209.3,539.9z M207,539.9c0-1.4-0.1-2.5-0.3-3.4
				c-0.2-0.9-0.5-1.7-0.9-2.2c-0.4-0.6-0.8-1-1.3-1.2c-0.5-0.2-1-0.4-1.6-0.4c-0.5,0-1.1,0.1-1.6,0.4c-0.5,0.2-1,0.7-1.3,1.2
				c-0.4,0.6-0.7,1.3-0.9,2.2c-0.2,0.9-0.3,2.1-0.3,3.4c0,1.4,0.1,2.5,0.3,3.4c0.2,0.9,0.5,1.7,0.9,2.2c0.4,0.6,0.8,1,1.3,1.2
				c0.5,0.2,1,0.4,1.6,0.4c0.6,0,1.1-0.1,1.6-0.4c0.5-0.2,1-0.7,1.3-1.2c0.4-0.6,0.7-1.3,0.9-2.2C206.9,542.4,207,541.3,207,539.9z"
				/>
		</g>
		<path class="st18" d="M91.7,581H212c20.3,0,36.7,16.4,36.7,36.7l0,0c0,20.3-16.4,36.7-36.7,36.7H91.7C71.4,654.4,55,638,55,617.7
			l0,0C55,597.5,71.4,581,91.7,581z"/>
		<g class="st13">
			<path class="st4" d="M83.6,619.6v6.7h-2.4v-17.9h5.3c1.1,0,2.1,0.1,3,0.4s1.5,0.6,2.1,1.1c0.6,0.5,1,1.1,1.2,1.8
				c0.3,0.7,0.4,1.4,0.4,2.3c0,0.8-0.1,1.6-0.4,2.3c-0.3,0.7-0.7,1.3-1.3,1.8s-1.3,0.9-2.1,1.2c-0.8,0.3-1.8,0.4-2.9,0.4H83.6z
				 M83.6,617.7h2.9c0.7,0,1.3-0.1,1.8-0.3c0.5-0.2,1-0.4,1.3-0.8c0.4-0.3,0.6-0.7,0.8-1.2c0.2-0.5,0.3-1,0.3-1.5
				c0-1.1-0.4-2-1.1-2.7s-1.8-1-3.2-1h-2.9V617.7z"/>
		</g>
		<g class="st13">
			<path class="st4" d="M100.2,613.4c0.8,0,1.5,0.1,2.1,0.4c0.6,0.3,1.2,0.6,1.7,1.1c0.5,0.5,0.8,1.1,1.1,1.8s0.4,1.5,0.4,2.4
				c0,0.4,0,0.6-0.1,0.7c-0.1,0.1-0.2,0.2-0.4,0.2h-8.5c0,0.8,0.1,1.5,0.3,2.1s0.5,1.1,0.8,1.5c0.3,0.4,0.8,0.7,1.2,0.9
				c0.5,0.2,1,0.3,1.6,0.3c0.6,0,1-0.1,1.4-0.2s0.8-0.3,1-0.4c0.3-0.2,0.5-0.3,0.7-0.4c0.2-0.1,0.4-0.2,0.5-0.2
				c0.2,0,0.3,0.1,0.4,0.2l0.6,0.8c-0.3,0.3-0.6,0.6-1,0.9s-0.8,0.4-1.2,0.6s-0.9,0.3-1.4,0.4s-0.9,0.1-1.4,0.1
				c-0.9,0-1.7-0.1-2.4-0.4s-1.4-0.7-1.9-1.3c-0.5-0.6-1-1.3-1.3-2.1c-0.3-0.8-0.4-1.8-0.4-2.9c0-0.9,0.1-1.7,0.4-2.5
				c0.3-0.8,0.7-1.4,1.2-2s1.1-1,1.9-1.3C98.5,613.6,99.3,613.4,100.2,613.4z M100.2,615.1c-1.1,0-1.9,0.3-2.5,0.9
				c-0.6,0.6-1,1.5-1.1,2.6h6.9c0-0.5-0.1-1-0.2-1.4c-0.1-0.4-0.4-0.8-0.6-1.1c-0.3-0.3-0.6-0.6-1-0.7
				C101.2,615.2,100.8,615.1,100.2,615.1z"/>
			<path class="st4" d="M116.4,613.6v1.7h-6v11h-2.2v-12.7H116.4z"/>
			<path class="st4" d="M118.5,626.3v-12.7h2.2v8.6c0,0.2,0,0.3,0,0.5c0,0.2,0,0.4-0.1,0.6c0.1-0.2,0.1-0.3,0.2-0.4
				c0.1-0.1,0.2-0.3,0.2-0.4c0,0,0.1-0.1,0.3-0.4c0.2-0.2,0.4-0.6,0.7-1c0.3-0.4,0.6-0.8,1-1.3c0.4-0.5,0.7-1,1.1-1.5
				c0.9-1.2,1.9-2.6,3-4.1c0.1-0.1,0.2-0.3,0.4-0.4c0.1-0.1,0.3-0.2,0.5-0.2h1.3v12.7h-2.2v-8.6c0-0.2,0-0.3,0-0.5s0-0.4,0.1-0.6
				c-0.1,0.2-0.2,0.3-0.2,0.5c-0.1,0.1-0.2,0.3-0.2,0.4c0,0-0.1,0.1-0.3,0.4c-0.2,0.2-0.4,0.6-0.7,1s-0.6,0.8-1,1.3
				c-0.4,0.5-0.7,1-1.1,1.5c-0.9,1.2-1.9,2.6-3,4.1c-0.1,0.1-0.2,0.3-0.3,0.4c-0.1,0.1-0.3,0.2-0.5,0.2H118.5z"/>
			<path class="st4" d="M141.7,615.9c-0.1,0.1-0.1,0.2-0.2,0.2c-0.1,0-0.2,0.1-0.3,0.1c-0.1,0-0.3-0.1-0.4-0.2s-0.3-0.2-0.6-0.3
				c-0.2-0.1-0.5-0.2-0.8-0.3s-0.7-0.2-1.2-0.2c-0.6,0-1.2,0.1-1.7,0.3c-0.5,0.2-0.9,0.5-1.2,1c-0.3,0.4-0.6,0.9-0.7,1.5
				s-0.2,1.3-0.2,2c0,0.8,0.1,1.4,0.3,2c0.2,0.6,0.4,1.1,0.7,1.5s0.7,0.7,1.2,0.9c0.5,0.2,1,0.3,1.5,0.3c0.5,0,1-0.1,1.3-0.2
				c0.4-0.1,0.6-0.3,0.9-0.4c0.2-0.2,0.4-0.3,0.6-0.4c0.2-0.1,0.3-0.2,0.5-0.2c0.2,0,0.3,0.1,0.4,0.2l0.6,0.8
				c-0.3,0.3-0.6,0.6-0.9,0.9c-0.4,0.2-0.7,0.4-1.1,0.6c-0.4,0.2-0.8,0.3-1.3,0.4c-0.4,0.1-0.9,0.1-1.4,0.1c-0.8,0-1.5-0.1-2.2-0.4
				c-0.7-0.3-1.3-0.7-1.8-1.3c-0.5-0.6-0.9-1.2-1.2-2c-0.3-0.8-0.4-1.7-0.4-2.8c0-0.9,0.1-1.8,0.4-2.6c0.3-0.8,0.6-1.5,1.1-2.1
				c0.5-0.6,1.1-1,1.9-1.4c0.7-0.3,1.6-0.5,2.5-0.5c0.9,0,1.7,0.1,2.4,0.4c0.7,0.3,1.3,0.7,1.8,1.2L141.7,615.9z"/>
			<path class="st4" d="M143.4,613.6h12v1.7h-4.9v11h-2.2v-11h-4.9V613.6z"/>
			<path class="st4" d="M157.5,630.6v-16.9h1.3c0.3,0,0.5,0.2,0.6,0.5l0.2,1.5c0.5-0.7,1.2-1.2,1.9-1.6c0.7-0.4,1.5-0.6,2.4-0.6
				c0.7,0,1.4,0.1,2,0.4s1.1,0.7,1.5,1.2c0.4,0.5,0.7,1.2,1,2c0.2,0.8,0.3,1.7,0.3,2.8c0,0.9-0.1,1.8-0.4,2.6
				c-0.2,0.8-0.6,1.5-1.1,2.1c-0.5,0.6-1,1-1.7,1.4c-0.7,0.3-1.4,0.5-2.3,0.5c-0.8,0-1.4-0.1-2-0.4c-0.6-0.3-1-0.6-1.5-1.1v5.6
				H157.5z M163.1,615.2c-0.7,0-1.4,0.2-1.9,0.5c-0.5,0.3-1,0.8-1.5,1.4v6.1c0.4,0.5,0.8,0.9,1.3,1.2c0.5,0.2,1,0.3,1.6,0.3
				c1.2,0,2.1-0.4,2.7-1.3s1-2,1-3.6c0-0.8-0.1-1.5-0.2-2.1c-0.1-0.6-0.4-1.1-0.6-1.5c-0.3-0.4-0.6-0.7-1-0.8
				S163.7,615.2,163.1,615.2z"/>
			<path class="st4" d="M179.5,626.3c-0.2,0-0.4,0-0.5-0.1c-0.1-0.1-0.2-0.2-0.3-0.4l-0.2-1.2c-0.3,0.3-0.7,0.6-1,0.8
				s-0.7,0.4-1,0.6c-0.3,0.2-0.7,0.3-1.1,0.4c-0.4,0.1-0.8,0.1-1.3,0.1c-0.5,0-1-0.1-1.4-0.2c-0.4-0.1-0.8-0.3-1.1-0.6
				c-0.3-0.3-0.6-0.6-0.8-1s-0.3-0.9-0.3-1.5c0-0.5,0.1-1,0.4-1.4c0.3-0.5,0.7-0.9,1.3-1.2c0.6-0.4,1.4-0.7,2.4-0.9s2.2-0.4,3.6-0.4
				v-1c0-1-0.2-1.7-0.6-2.2c-0.4-0.5-1-0.8-1.9-0.8c-0.5,0-1,0.1-1.4,0.2c-0.4,0.1-0.7,0.3-1,0.5c-0.3,0.2-0.5,0.3-0.7,0.5
				s-0.4,0.2-0.6,0.2c-0.1,0-0.3,0-0.4-0.1c-0.1-0.1-0.2-0.2-0.3-0.3l-0.4-0.7c0.7-0.7,1.5-1.2,2.3-1.5c0.8-0.3,1.7-0.5,2.7-0.5
				c0.7,0,1.3,0.1,1.9,0.4c0.6,0.2,1,0.6,1.4,1s0.7,0.9,0.9,1.5c0.2,0.6,0.3,1.2,0.3,2v8.1H179.5z M174.8,624.9c0.4,0,0.8,0,1.1-0.1
				c0.3-0.1,0.6-0.2,0.9-0.3c0.3-0.1,0.6-0.3,0.8-0.5c0.3-0.2,0.5-0.5,0.8-0.7v-2.6c-1,0-1.9,0.1-2.6,0.2c-0.7,0.1-1.3,0.3-1.8,0.5
				c-0.5,0.2-0.8,0.5-1,0.7c-0.2,0.3-0.3,0.6-0.3,1c0,0.3,0.1,0.6,0.2,0.9c0.1,0.2,0.3,0.4,0.4,0.6c0.2,0.2,0.4,0.3,0.7,0.3
				C174.2,624.9,174.5,624.9,174.8,624.9z"/>
			<path class="st4" d="M183.9,613.6h2.2v11h6.1v-11h2.2v11h2.3v5.4c0,0.2-0.1,0.4-0.2,0.5c-0.1,0.1-0.3,0.2-0.5,0.2h-1.4v-4.4
				h-10.8V613.6z"/>
			<path class="st4" d="M199,626.3v-12.7h2.2v8.6c0,0.2,0,0.3,0,0.5c0,0.2,0,0.4-0.1,0.6c0.1-0.2,0.1-0.3,0.2-0.4
				c0.1-0.1,0.2-0.3,0.2-0.4c0,0,0.1-0.1,0.3-0.4c0.2-0.2,0.4-0.6,0.7-1c0.3-0.4,0.6-0.8,1-1.3c0.4-0.5,0.7-1,1.1-1.5
				c0.9-1.2,1.9-2.6,3-4.1c0.1-0.1,0.2-0.3,0.4-0.4c0.1-0.1,0.3-0.2,0.5-0.2h1.3v12.7h-2.2v-8.6c0-0.2,0-0.3,0-0.5s0-0.4,0.1-0.6
				c-0.1,0.2-0.2,0.3-0.2,0.5c-0.1,0.1-0.2,0.3-0.2,0.4c0,0-0.1,0.1-0.3,0.4c-0.2,0.2-0.4,0.6-0.7,1s-0.6,0.8-1,1.3
				c-0.4,0.5-0.7,1-1.1,1.5c-0.9,1.2-1.9,2.6-3,4.1c-0.1,0.1-0.2,0.3-0.3,0.4c-0.1,0.1-0.3,0.2-0.5,0.2H199z"/>
			<path class="st4" d="M222.2,626.3h-2.1V621h-1c-0.2,0-0.4,0-0.6,0.1s-0.3,0.1-0.4,0.2s-0.2,0.2-0.3,0.3c-0.1,0.1-0.2,0.2-0.3,0.4
				l-2.8,3.7c-0.1,0.3-0.3,0.5-0.5,0.6s-0.5,0.2-0.9,0.2h-1.6l3.7-4.8c0.3-0.5,0.7-0.8,1.2-1c-0.6-0.1-1.2-0.2-1.6-0.4
				c-0.4-0.2-0.8-0.5-1.1-0.8s-0.5-0.6-0.6-1s-0.2-0.7-0.2-1.1c0-0.4,0.1-0.9,0.3-1.3c0.2-0.4,0.4-0.8,0.8-1.2
				c0.4-0.3,0.9-0.6,1.5-0.8c0.6-0.2,1.3-0.3,2.2-0.3h4.3V626.3z M215.4,617.4c0,0.7,0.2,1.2,0.8,1.6s1.2,0.6,2.1,0.6h1.8v-4.4H218
				c-0.5,0-0.9,0.1-1.2,0.2c-0.3,0.1-0.6,0.3-0.8,0.5c-0.2,0.2-0.3,0.5-0.4,0.7S215.4,617.1,215.4,617.4z"/>
		</g>
		<path class="st12" d="M425.2,117.2L425.2,117.2c3.4,0,6.1,2.7,6.1,6.1v24.5c0,3.4-2.7,6.1-6.1,6.1h0c-3.4,0-6.1-2.7-6.1-6.1v-24.5
			C419,119.9,421.8,117.2,425.2,117.2z"/>
		<path class="st12" d="M441.1,101L441.1,101c0-3.4,2.7-6.1,6.1-6.1h24.5c3.4,0,6.1,2.7,6.1,6.1v0c0,3.4-2.7,6.1-6.1,6.1h-24.5
			C443.9,107.1,441.1,104.4,441.1,101z"/>
		<path class="st12" d="M425.2,85.1L425.2,85.1c-3.4,0-6.1-2.7-6.1-6.1V54.4c0-3.4,2.7-6.1,6.1-6.1h0c3.4,0,6.1,2.7,6.1,6.1V79
			C431.3,82.4,428.6,85.1,425.2,85.1z"/>
		<path class="st12" d="M409.3,101L409.3,101c0,3.4-2.7,6.1-6.1,6.1h-24.5c-3.4,0-6.1-2.7-6.1-6.1v0c0-3.4,2.7-6.1,6.1-6.1h24.5
			C406.6,94.8,409.3,97.6,409.3,101z"/>
	</g>
</g>
</svg>
