<?xml version="1.0" encoding="utf-8"?>
<!-- Generator: Adobe Illustrator 23.1.1, SVG Export Plug-In . SVG Version: 6.00 Build 0)  -->
<svg version="1.1" id="Layer_1" xmlns="http://www.w3.org/2000/svg" xmlns:xlink="http://www.w3.org/1999/xlink" x="0px" y="0px"
	 viewBox="0 0 1000 700" style="enable-background:new 0 0 1000 700;" xml:space="preserve">
<style type="text/css">
	.st0{clip-path:url(#SVGID_2_);}
	.st1{fill:url(#SVGID_3_);}
	.st2{opacity:5.000000e-02;fill:#FFFFFF;enable-background:new    ;}
	.st3{fill:#341C7F;}
	.st4{fill:#FFB901;}
	.st5{fill:#FFFFFF;}
	.st6{fill:url(#SVGID_4_);}
	.st7{fill:url(#SVGID_5_);}
	.st8{fill:url(#SVGID_6_);}
	.st9{fill:url(#SVGID_7_);}
	.st10{fill:url(#SVGID_8_);}
	.st11{fill:url(#SVGID_9_);}
	.st12{fill:#FFFFFF;stroke:#FFFFFF;stroke-width:0.5;stroke-miterlimit:10;}
	.st13{fill:#FFB8B6;}
	.st14{fill:none;stroke:#341C7F;stroke-linecap:round;stroke-miterlimit:10;}
	.st15{opacity:0.3;fill:#341C7F;enable-background:new    ;}
	.st16{fill:#FF8585;}
	.st17{fill:none;stroke:#F2F2F2;stroke-width:1.29;stroke-linecap:round;stroke-miterlimit:10;}
	.st18{fill:none;stroke:#333333;stroke-width:1.29;stroke-linecap:round;stroke-miterlimit:10;}
	.st19{opacity:0.3;}
	.st20{enable-background:new    ;}
	.st21{opacity:0.3;fill:#341C7F;stroke:#341C7F;stroke-miterlimit:10;enable-background:new    ;}
	.st22{fill:none;stroke:#341C7F;stroke-width:1.17;stroke-linecap:round;stroke-miterlimit:10;}
	.st23{fill:none;stroke:#FFB901;stroke-miterlimit:10;}
</style>
<title>im</title>
<g>
	<defs>
		<rect id="SVGID_1_" width="1000" height="700"/>
	</defs>
	<clipPath id="SVGID_2_">
		<use xlink:href="#SVGID_1_"  style="overflow:visible;"/>
	</clipPath>
	<g class="st0">
		
			<linearGradient id="SVGID_3_" gradientUnits="userSpaceOnUse" x1="500" y1="678.85" x2="500" y2="23.81" gradientTransform="matrix(1 0 0 -1 0 702)">
			<stop  offset="0" style="stop-color:#7536E9"/>
			<stop  offset="1" style="stop-color:#4A0CA5"/>
		</linearGradient>
		<rect class="st1" width="1000" height="700"/>
		<path class="st2" d="M147,244c-53.1-0.1-104.7,17.2-147,49.2v389.5c42.3,32,93.9,49.3,147,49.2c134.8,0,244-109.2,244-244
			S281.8,244,147,244z"/>
		<rect y="490" class="st3" width="1000" height="210"/>
		<path class="st4" d="M415.8,457.6h126.1c3.1,0,5.6,2.5,5.6,5.6v73.8c0,3.1-2.5,5.6-5.6,5.6H415.8c-3.1,0-5.6-2.5-5.6-5.6v-73.8
			C410.1,460.1,412.7,457.6,415.8,457.6z"/>
		<rect x="416.5" y="465" class="st5" width="124.7" height="70.2"/>
		
			<linearGradient id="SVGID_4_" gradientUnits="userSpaceOnUse" x1="431.61" y1="209.69" x2="525.7" y2="209.69" gradientTransform="matrix(1 0 0 -1 0 702)">
			<stop  offset="0" style="stop-color:#7536E9"/>
			<stop  offset="1" style="stop-color:#4A0CA5"/>
		</linearGradient>
		<path class="st6" d="M435.4,480.4h86.5c2.1,0,3.8,1.7,3.8,3.8v16.3c0,2.1-1.7,3.8-3.8,3.8h-86.5c-2.1,0-3.8-1.7-3.8-3.8v-16.3
			C431.6,482.1,433.3,480.4,435.4,480.4z"/>
		
			<linearGradient id="SVGID_5_" gradientUnits="userSpaceOnUse" x1="383.82" y1="88.345" x2="573.5" y2="88.345" gradientTransform="matrix(1 0 0 -1 0 702)">
			<stop  offset="0" style="stop-color:#7536E9"/>
			<stop  offset="1" style="stop-color:#4A0CA5"/>
		</linearGradient>
		<path class="st7" d="M568.1,620H389.2c-3,0-5.4-2.4-5.4-5.4v-7.3h189.7v7.3C573.5,617.6,571.1,620,568.1,620z"/>
		<path class="st4" d="M413.5,542.3h130.4c2.1,0,4,1.3,4.9,3.2l25.4,59.6c1.1,2.7-0.1,5.8-2.8,6.9c-0.7,0.3-1.4,0.4-2.1,0.4H388.1
			c-2.9,0-5.3-2.4-5.3-5.3c0-0.7,0.1-1.4,0.4-2.1l25.4-59.6C409.4,543.6,411.3,542.3,413.5,542.3z"/>
		
			<linearGradient id="SVGID_6_" gradientUnits="userSpaceOnUse" x1="431.61" y1="177.545" x2="495.83" y2="177.545" gradientTransform="matrix(1 0 0 -1 0 702)">
			<stop  offset="0" style="stop-color:#7536E9"/>
			<stop  offset="1" style="stop-color:#4A0CA5"/>
		</linearGradient>
		<path class="st8" d="M435.4,514h56.7c2.1,0,3.8,1.7,3.8,3.8l0,0v17.1l0,0h-64.2l0,0v-17.2C431.6,515.7,433.3,514,435.4,514z"/>
		
			<linearGradient id="SVGID_7_" gradientUnits="userSpaceOnUse" x1="502.56" y1="177.545" x2="525.7" y2="177.545" gradientTransform="matrix(1 0 0 -1 0 702)">
			<stop  offset="0" style="stop-color:#7536E9"/>
			<stop  offset="1" style="stop-color:#4A0CA5"/>
		</linearGradient>
		<path class="st9" d="M506.3,514h15.6c2.1,0,3.8,1.7,3.8,3.8l0,0v17.2l0,0h-23.1l0,0v-17.2C502.6,515.7,504.3,514,506.3,514z"/>
		
			<linearGradient id="SVGID_8_" gradientUnits="userSpaceOnUse" x1="431.61" y1="229.85" x2="439.08" y2="229.85" gradientTransform="matrix(1 0 0 -1 0 702)">
			<stop  offset="0" style="stop-color:#7536E9"/>
			<stop  offset="1" style="stop-color:#4A0CA5"/>
		</linearGradient>
		<circle class="st10" cx="435.4" cy="472.1" r="3.7"/>
		
			<linearGradient id="SVGID_9_" gradientUnits="userSpaceOnUse" x1="454.1825" y1="105.895" x2="503.1079" y2="105.895" gradientTransform="matrix(1 0 0 -1 0 702)">
			<stop  offset="0" style="stop-color:#7536E9"/>
			<stop  offset="1" style="stop-color:#4A0CA5"/>
		</linearGradient>
		<path class="st11" d="M462,587.1h33.3c0.5,0,1,0.3,1.2,0.8l6.5,15.2c0.3,0.7,0,1.5-0.7,1.8c-0.2,0.1-0.3,0.1-0.5,0.1h-46.2
			c-0.8,0-1.4-0.6-1.4-1.4c0-0.2,0-0.4,0.1-0.5l6.5-15.2C461,587.5,461.5,587.2,462,587.1z"/>
		<path class="st12" d="M534.7,399c0,0,7.6,31.5,21.7,57.5c19.4,35.9,35.1,39.6,35.1,39.6l135.9,7.5c0,0-31.3-59-34.3-104.5H534.7z"
			/>
		<path class="st4" d="M580,476c-3.3,0-6.5,1-9.1,2.9C583,494,591.4,496,591.4,496l4,0.2c0.4-1.4,0.6-2.8,0.6-4.2
			C596,483.2,588.8,476,580,476z"/>
		<path class="st13" d="M867.4,366.5L601,366.1c-5.4,0.3-10.5,2.6-14.2,6.5c-4-4.2-9.6-6.5-15.4-6.5H601c0.4,0,0.8,0,1.3,0h-31.9
			l-264.2,0.4c-45.2,0-81.8,36.6-81.7,81.8c0,45.1,36.6,81.7,81.7,81.7l0,0l84.2-0.4h22.8l0,0c3.5-0.2,6.2-3.2,6-6.7
			c-0.1-1.6-0.8-3.1-1.9-4.2c2.8-2,3.5-6,1.5-8.8c-0.3-0.4-0.7-0.8-1.1-1.2c2.7-2.3,3-6.3,0.8-8.9c-0.2-0.3-0.5-0.5-0.8-0.8h22.4
			l0,0h0.4c3.5,0,6.4-2.8,6.4-6.4s-2.8-6.4-6.4-6.4h-0.4l0,0h-53.3l-80.7,0.4c-21.2,0-38.4-17.3-38.4-38.5
			c0-21.2,17.3-38.4,38.5-38.4l232.1-0.3c-0.2-2.7,1.4-5.5,4.8-5.5c48.7,0,97.3,2.3,146,2.4c2.1-0.1,3.9,1.2,4.5,3.2l173.7,0.2
			c21.2,0,38.4,17.2,38.4,38.5c0,21.2-17.2,38.4-38.4,38.4l-297.3-0.4h-53.3l0,0h-0.4c-3.5,0-6.4,2.8-6.4,6.4s2.8,6.4,6.4,6.4h0.4
			l0,0h22.4c-2.7,2.3-3,6.3-0.8,8.9c0.2,0.3,0.5,0.5,0.8,0.8c-2.7,2.2-3,6.2-0.8,8.9c0.3,0.4,0.7,0.8,1.2,1.1
			c-2.5,2.4-2.6,6.5-0.1,9c1.1,1.1,2.6,1.8,4.2,1.9l0,0h25.1l298.6,0.4c45.2,0,81.8-36.6,81.7-81.8
			C949.1,403.1,912.5,366.5,867.4,366.5L867.4,366.5z"/>
		<path class="st5" d="M733.7,409.6l-160.6-0.2h-0.9h-0.9l-72.7,0.1c-5.8-20.4,0-43.3,0-43.3l71.7-0.1h31.9c-0.4,0-0.8,0-1.3,0
			h-29.6c5.8,0,11.4,2.4,15.4,6.5c3.8-3.9,8.9-6.2,14.2-6.5l123.5,0.1C724.5,366.3,721.7,394.5,733.7,409.6z"/>
		<path class="st14" d="M534.7,399c0,0,0.3,1.1,0.8,3.1c2.3,8.5,9.4,33.3,20.9,54.4c7.7,14.1,14.7,23.3,20.5,29.2"/>
		<path class="st13" d="M586.9,388.4c0,0-2.2,23.3,31.4,23.3s33.6-35.8,33.6-35.8l-27.3-3.6L586.9,388.4z"/>
		<path class="st15" d="M628.5,377.5c0,0-18.6,16.7-30.8,11.9s28.3-19.2,28.3-19.2L628.5,377.5z"/>
		<path class="st3" d="M605.6,289.9c0,0,8.7-9,24.6-4.5c8.3,2.1,14.1,9.4,14.2,17.9c0,0,19.4-3.7,26.1,11.2s-2.6,25-2.6,25
			s12.4,8.4,5.2,25.4c-6,14.2-21.7,10.5-21.7,10.5s-3.7,6-17.2,6s-14.9-12-14.9-12l-42.6,6.4c0,0-23.4,2.1-24.7-16.8
			c-0.6-6.4,2.3-12.6,7.5-16.4c0,0-10.5-10.5-5.2-25.4c3.7-10.5,16.4-11.2,16.4-11.2s-2.3-16.6,12.7-20.9
			C599.3,280.6,605.6,289.9,605.6,289.9z"/>
		<path class="st14" d="M611.6,404.2c0,0-9-3-13.9-14.8"/>
		<path class="st13" d="M603,312.7c-8.5-1.4-31-8.6-30.2,16.8s-2.2,58.2,18.7,59.7s32.8-14.2,38.8-26.9S641.8,318.9,603,312.7z"/>
		<path class="st3" d="M597.7,335.3c-0.1-0.7,0.4-3,5.8-2.2s4.9,3.2,3.5,4.1S598.1,338.4,597.7,335.3z"/>
		<path class="st16" d="M586.2,349.7c-0.8,0-3.1,6.6-4.5,9c-2.2,3.7,3.8,6.3,5.2,0.8C587.7,356.4,586.9,349.7,586.2,349.7z"/>
		<circle class="st3" cx="603" cy="344.8" r="2.6"/>
		<path class="st3" d="M581,335.3c0.1-0.7-0.4-3-5.8-2.2s-4.9,3.2-3.5,4.1S580.7,338.4,581,335.3z"/>
		<circle class="st3" cx="577.6" cy="344.8" r="2.6"/>
		<path class="st16" d="M589.2,372.5c0,1.9-1,3.4-2.2,3.4s-2.2-1.5-2.2-3.4C584.7,372.1,589.2,372.1,589.2,372.5z"/>
		<path class="st14" d="M590.7,371.3c-2.4,0.9-5.1,0.9-7.5,0"/>
		<circle class="st16" cx="606" cy="359" r="5.6"/>
		<path class="st3" d="M567.5,328.8c13.3,3.6,27.5-0.1,37.3-9.7c0,0,2.2,7.5,9,9.7s9.7,1.5,9.7,1.5S621.3,346,637,346
			c9,0.1,17.3-5.2,20.9-13.4L587,291.5L567.5,328.8z"/>
		<path class="st17" d="M577.9,300.5c0,0,1.6-14,17.6-9"/>
		<path class="st14" d="M560,447.5c0,0,3,20.9,23.9,20.2"/>
		<path class="st13" d="M631.7,345.2c0,0,6.9-3.3,10.5,0.8c5.2,6,0,16.4-12,14.2L631.7,345.2z"/>
		<path class="st18" d="M635.8,349.3c1.4,0,2.6,1.2,2.6,2.6c0,1.4-1.2,2.6-2.6,2.6"/>
		<path class="st14" d="M587.4,388.5c1.3,0.4,2.6,0.6,4,0.7c14.1,1,24.2-5.8,31-14.3"/>
		<polygon class="st15" points="537.5,409.5 534.5,399.5 324.5,409.8 		"/>
		<path class="st14" d="M234.7,428.7c0,0-9,6.9-3.1,16.5"/>
		<path class="st14" d="M938.8,431.5c0,0,9,6.9,3.1,16.5"/>
		<g class="st19">
			<path class="st3" d="M927.5,503.5C927.4,503.6,908,517,877,522c-31.8,5.1-71.7,5.6-125.2,7.9l115.6,0.1
				C890.2,530,912.1,520.4,927.5,503.5z"/>
		</g>
		<path class="st4" d="M498.6,366.2c-1,4.4-1.7,8.9-2.1,13.4c8.1,3.6,17.5-0.1,21.1-8.2c0.7-1.7,1.2-3.5,1.3-5.3L498.6,366.2z"/>
		<circle class="st4" cx="568" cy="418" r="16"/>
		<circle class="st4" cx="664" cy="465" r="16"/>
		<path class="st14" d="M640,440.8c0,0,3,20.9,23.9,20.2"/>
		<path class="st4" d="M655.2,399h-10.5c-4.5,6.4-11.3,10.8-19.1,12c4,7.9,13.6,11.1,21.5,7.1C654.1,414.5,657.5,406.5,655.2,399z"
			/>
		<path class="st4" d="M649,390.7c-2.7,7.2-7.9,15-17.8,18.8H655c0.7-1.8,1-3.6,1-5.5C656,398.7,653.4,393.7,649,390.7z"/>
		<path class="st4" d="M718.2,366.3h-28.5c4,7.9,13.7,11,21.5,6.9C714.3,371.7,716.7,369.3,718.2,366.3z"/>
		<g class="st20">
			<path class="st5" d="M86,146.6h2.8c0.3,0,0.5,0,0.8-0.1s0.5-0.1,0.7-0.2s0.4-0.2,0.6-0.4c0.2-0.2,0.4-0.4,0.6-0.6l6.9-9.4
				c0.2-0.3,0.4-0.6,0.7-0.8c0.3-0.2,0.6-0.3,1-0.3h3.3L95.2,146c-0.6,0.9-1.4,1.5-2.4,1.8c0.7,0.2,1.3,0.5,1.7,0.9
				c0.5,0.4,0.9,1,1.4,1.7l8.1,11.7h-3.5c-0.4,0-0.7-0.1-1-0.3c-0.3-0.2-0.5-0.5-0.7-0.9l-7-9.8c-0.3-0.5-0.7-0.9-1.1-1.1
				s-0.9-0.3-1.6-0.3H86v12.4h-3.9v-27.3H86V146.6z"/>
		</g>
		<g class="st20">
			<path class="st5" d="M119,162.1c-0.4,0-0.6-0.1-0.8-0.2c-0.2-0.1-0.3-0.3-0.5-0.7l-0.4-1.7c-0.5,0.5-1,0.9-1.5,1.2
				c-0.5,0.4-1,0.7-1.5,0.9c-0.5,0.2-1.1,0.4-1.7,0.6c-0.6,0.1-1.3,0.2-2,0.2c-0.8,0-1.5-0.1-2.1-0.3s-1.2-0.5-1.7-1
				c-0.5-0.4-0.9-1-1.2-1.6s-0.4-1.4-0.4-2.3c0-0.8,0.2-1.5,0.6-2.2c0.4-0.7,1.1-1.3,2-1.9c0.9-0.6,2.1-1,3.6-1.4s3.3-0.6,5.5-0.6
				v-1.4c0-1.5-0.3-2.6-0.9-3.3c-0.6-0.7-1.5-1.1-2.8-1.1c-0.8,0-1.5,0.1-2.1,0.3c-0.6,0.2-1,0.4-1.4,0.7c-0.4,0.2-0.8,0.5-1.1,0.7
				s-0.6,0.3-0.9,0.3c-0.3,0-0.5-0.1-0.6-0.2c-0.2-0.1-0.3-0.3-0.4-0.5l-0.6-1.2c1.1-1,2.2-1.8,3.5-2.3c1.2-0.5,2.6-0.8,4.1-0.8
				c1.1,0,2.1,0.2,2.9,0.5s1.6,0.9,2.1,1.5c0.6,0.6,1,1.4,1.3,2.3c0.3,0.9,0.4,1.9,0.4,3v12.3H119z M111.7,159.8
				c0.6,0,1.1-0.1,1.6-0.2c0.5-0.1,0.9-0.3,1.4-0.5c0.4-0.2,0.8-0.5,1.2-0.8c0.4-0.3,0.8-0.7,1.1-1.1v-3.9c-1.5,0.1-2.8,0.2-3.9,0.4
				c-1.1,0.2-1.9,0.4-2.6,0.7s-1.1,0.7-1.5,1.1c-0.3,0.4-0.5,0.9-0.5,1.4c0,0.5,0.1,0.9,0.2,1.3c0.2,0.4,0.4,0.6,0.7,0.9
				c0.3,0.2,0.6,0.4,1,0.5C110.9,159.8,111.3,159.8,111.7,159.8z"/>
			<path class="st5" d="M137.2,143.8c0.2-0.3,0.4-0.5,0.8-0.7c0.3-0.2,0.6-0.3,1-0.3h2.8l-4.9,7.3c-0.3,0.5-0.6,0.9-0.9,1.2
				c-0.3,0.3-0.7,0.5-1.2,0.7c0.6,0.2,1.1,0.4,1.5,0.8c0.4,0.3,0.8,0.8,1.1,1.4l5,8h-2.5c-0.6,0-1.1-0.1-1.5-0.3
				c-0.4-0.2-0.7-0.5-0.9-0.9l-3.6-5.9c-0.3-0.5-0.7-0.8-1.1-1.1c-0.4-0.2-1-0.4-1.5-0.4h-2v8.6h-3.6v-19.3h3.6v8.3h1.8
				c0.5,0,1-0.1,1.4-0.3c0.4-0.2,0.7-0.5,1-1L137.2,143.8z"/>
		</g>
		<g class="st20">
			<path class="st5" d="M168.5,146.3c-0.1,0.1-0.2,0.2-0.3,0.3s-0.3,0.1-0.4,0.1c-0.2,0-0.4-0.1-0.6-0.2s-0.5-0.3-0.8-0.5
				c-0.3-0.2-0.7-0.4-1.2-0.5s-1.1-0.2-1.8-0.2c-0.9,0-1.7,0.2-2.5,0.5c-0.7,0.3-1.3,0.8-1.8,1.4c-0.5,0.6-0.8,1.4-1.1,2.2
				s-0.4,1.9-0.4,3c0,1.1,0.1,2.2,0.4,3s0.6,1.6,1.1,2.2c0.5,0.6,1.1,1.1,1.7,1.4s1.4,0.5,2.3,0.5c0.8,0,1.5-0.1,2-0.3
				s1-0.4,1.3-0.6c0.3-0.2,0.6-0.4,0.9-0.6c0.2-0.2,0.5-0.3,0.7-0.3c0.3,0,0.5,0.1,0.7,0.3l1,1.3c-0.4,0.5-0.9,1-1.5,1.4
				c-0.5,0.4-1.1,0.7-1.7,0.9c-0.6,0.2-1.3,0.4-1.9,0.5c-0.7,0.1-1.4,0.2-2.1,0.2c-1.2,0-2.3-0.2-3.4-0.7c-1-0.4-1.9-1.1-2.7-1.9
				c-0.8-0.8-1.4-1.9-1.8-3.1c-0.4-1.2-0.7-2.6-0.7-4.2c0-1.4,0.2-2.8,0.6-4c0.4-1.2,1-2.3,1.8-3.1c0.8-0.9,1.7-1.6,2.9-2.1
				s2.4-0.7,3.9-0.7c1.4,0,2.6,0.2,3.6,0.7s2,1.1,2.8,1.9L168.5,146.3z"/>
		</g>
		<g class="st20">
			<path class="st5" d="M181,142.5c1.4,0,2.7,0.2,3.8,0.7c1.1,0.5,2.1,1.1,2.9,2c0.8,0.9,1.4,1.9,1.8,3.1s0.6,2.6,0.6,4.1
				c0,1.5-0.2,2.9-0.6,4.1s-1,2.3-1.8,3.1c-0.8,0.9-1.8,1.5-2.9,2c-1.1,0.5-2.4,0.7-3.8,0.7c-1.4,0-2.7-0.2-3.8-0.7
				c-1.1-0.5-2.1-1.1-2.9-2c-0.8-0.9-1.4-1.9-1.9-3.1c-0.4-1.2-0.6-2.6-0.6-4.1c0-1.5,0.2-2.9,0.6-4.1c0.4-1.2,1-2.3,1.9-3.1
				c0.8-0.9,1.8-1.5,2.9-2C178.3,142.7,179.6,142.5,181,142.5z M181,159.5c1.8,0,3.2-0.6,4.1-1.9c0.9-1.2,1.4-3,1.4-5.2
				c0-2.2-0.5-4-1.4-5.2c-0.9-1.3-2.3-1.9-4.1-1.9c-1.9,0-3.3,0.6-4.2,1.9c-0.9,1.3-1.4,3-1.4,5.2c0,2.3,0.5,4,1.4,5.2
				C177.8,158.9,179.2,159.5,181,159.5z"/>
		</g>
		<g class="st20">
			<path class="st5" d="M192.8,144.8c0.7-0.7,1.6-1.2,2.7-1.7c1.1-0.4,2.3-0.6,3.8-0.6c1.2,0,2.2,0.1,3.1,0.4
				c0.9,0.3,1.7,0.7,2.3,1.1c0.6,0.5,1.1,1,1.4,1.6c0.3,0.6,0.5,1.2,0.5,1.9c0,0.4-0.1,0.8-0.2,1.2c-0.1,0.4-0.3,0.8-0.6,1.2
				c-0.3,0.4-0.6,0.7-1.1,1.1c-0.4,0.3-1,0.6-1.6,0.8c1.2,0.4,2.2,1,2.9,1.8c0.7,0.8,1,1.8,1,3c0,0.9-0.2,1.7-0.6,2.4
				c-0.4,0.7-1,1.3-1.7,1.8c-0.7,0.5-1.5,0.9-2.4,1.1c-0.9,0.3-1.9,0.4-2.8,0.4c-0.6,0-1.2-0.1-1.9-0.2c-0.6-0.1-1.3-0.3-1.9-0.5
				c-0.6-0.2-1.2-0.6-1.7-0.9c-0.6-0.4-1-0.8-1.5-1.4l1-1.3c0.2-0.2,0.4-0.3,0.7-0.3c0.2,0,0.5,0.1,0.7,0.3c0.3,0.2,0.6,0.4,1,0.6
				s0.8,0.4,1.4,0.6c0.5,0.2,1.2,0.3,2,0.3c0.7,0,1.3-0.1,1.8-0.2c0.5-0.2,1-0.4,1.4-0.7c0.4-0.3,0.7-0.6,0.8-1
				c0.2-0.4,0.3-0.8,0.3-1.3c0-0.9-0.4-1.7-1.1-2.2c-0.8-0.6-1.9-0.8-3.5-0.8h-2.2v-2.4h2.2c1.4,0,2.5-0.3,3.2-0.8
				c0.8-0.5,1.2-1.2,1.2-2c0-0.4-0.1-0.7-0.2-1c-0.2-0.3-0.4-0.6-0.8-0.9c-0.3-0.2-0.8-0.4-1.3-0.6c-0.5-0.1-1.1-0.2-1.8-0.2
				c-0.7,0-1.4,0.1-1.9,0.2c-0.5,0.1-0.9,0.3-1.3,0.5c-0.4,0.2-0.7,0.3-0.9,0.5c-0.2,0.1-0.4,0.2-0.6,0.2c-0.2,0-0.3,0-0.4-0.1
				c-0.1-0.1-0.2-0.2-0.4-0.4L192.8,144.8z"/>
			<path class="st5" d="M227.8,142.8v16.5h3.5v8.2c0,0.3-0.1,0.6-0.3,0.8c-0.2,0.2-0.4,0.3-0.8,0.3h-2.2v-6.6h-15.9v5.6
				c0,0.3-0.1,0.5-0.2,0.7c-0.2,0.2-0.4,0.3-0.7,0.3h-2.3v-9.2h0.6h0.2h5.4c-0.5,0.6-1,1.1-1.5,1.4c-0.5,0.3-1,0.4-1.5,0.5v0.8h-3.3
				v-2.6h0.8c0.4,0,0.9-0.1,1.3-0.3s0.8-0.5,1.2-0.9c0.4-0.4,0.8-1,1.1-1.8c0.3-0.8,0.7-1.8,0.9-3c0.3-1.2,0.5-2.7,0.7-4.5
				c0.2-1.7,0.4-3.8,0.5-6.2H227.8z M212.2,159.4v1.8c-0.1,0-0.1,0-0.1,0s-0.1,0-0.1,0h-2.5l-0.5-1.9H212.2z M218.4,145.6
				c-0.1,1.9-0.3,3.6-0.5,5.1s-0.5,2.8-0.8,3.9c-0.3,1.1-0.6,2.1-1,2.9c-0.3,0.8-0.7,1.4-1.1,2h9.2v-13.8H218.4z"/>
		</g>
		<g class="st20">
			<path class="st5" d="M247,162.1c-0.4,0-0.6-0.1-0.8-0.2c-0.2-0.1-0.3-0.3-0.5-0.7l-0.4-1.7c-0.5,0.5-1,0.9-1.5,1.2
				c-0.5,0.4-1,0.7-1.5,0.9c-0.5,0.2-1.1,0.4-1.7,0.6c-0.6,0.1-1.3,0.2-2,0.2c-0.8,0-1.5-0.1-2.1-0.3s-1.2-0.5-1.7-1
				c-0.5-0.4-0.9-1-1.2-1.6s-0.4-1.4-0.4-2.3c0-0.8,0.2-1.5,0.6-2.2c0.4-0.7,1.1-1.3,2-1.9c0.9-0.6,2.1-1,3.6-1.4s3.3-0.6,5.5-0.6
				v-1.4c0-1.5-0.3-2.6-0.9-3.3c-0.6-0.7-1.5-1.1-2.8-1.1c-0.8,0-1.5,0.1-2.1,0.3c-0.6,0.2-1,0.4-1.4,0.7c-0.4,0.2-0.8,0.5-1.1,0.7
				s-0.6,0.3-0.9,0.3c-0.3,0-0.5-0.1-0.6-0.2c-0.2-0.1-0.3-0.3-0.4-0.5l-0.6-1.2c1.1-1,2.2-1.8,3.5-2.3c1.2-0.5,2.6-0.8,4.1-0.8
				c1.1,0,2.1,0.2,2.9,0.5s1.6,0.9,2.1,1.5c0.6,0.6,1,1.4,1.3,2.3c0.3,0.9,0.4,1.9,0.4,3v12.3H247z M239.8,159.8
				c0.6,0,1.1-0.1,1.6-0.2c0.5-0.1,0.9-0.3,1.4-0.5c0.4-0.2,0.8-0.5,1.2-0.8c0.4-0.3,0.8-0.7,1.1-1.1v-3.9c-1.5,0.1-2.8,0.2-3.9,0.4
				c-1.1,0.2-1.9,0.4-2.6,0.7s-1.1,0.7-1.5,1.1c-0.3,0.4-0.5,0.9-0.5,1.4c0,0.5,0.1,0.9,0.2,1.3c0.2,0.4,0.4,0.6,0.7,0.9
				c0.3,0.2,0.6,0.4,1,0.5C239,159.8,239.4,159.8,239.8,159.8z"/>
		</g>
		<g class="st20">
			<path class="st5" d="M251.1,142.8h18.2v2.7H262v16.5h-3.6v-16.5h-7.3V142.8z"/>
			<path class="st5" d="M275.9,142.8v7.5h4c1.3,0,2.5,0.2,3.4,0.5s1.6,0.8,2.2,1.3s1,1.1,1.2,1.8c0.2,0.7,0.4,1.4,0.4,2.2
				c0,0.9-0.2,1.7-0.5,2.4c-0.3,0.7-0.8,1.4-1.4,1.9c-0.6,0.5-1.3,0.9-2.2,1.2c-0.9,0.3-1.9,0.4-3,0.4h-7.5v-19.3H275.9z
				 M275.9,152.9v6.5h4c0.6,0,1.2-0.1,1.7-0.2c0.5-0.2,0.9-0.4,1.2-0.7c0.3-0.3,0.6-0.6,0.7-1.1c0.2-0.4,0.2-0.8,0.2-1.3
				c0-0.4-0.1-0.8-0.2-1.2c-0.1-0.4-0.4-0.7-0.7-1c-0.3-0.3-0.7-0.5-1.2-0.7c-0.5-0.2-1.1-0.3-1.8-0.3H275.9z"/>
			<path class="st5" d="M316.5,142.8v19.3h-3.6v-16.5h-9v16.5h-3.6v-19.3H316.5z"/>
			<path class="st5" d="M321.7,168.5v-25.8h2.2c0.5,0,0.8,0.2,0.9,0.7l0.3,2.2c0.8-1,1.7-1.8,2.8-2.4c1.1-0.6,2.3-0.9,3.6-0.9
				c1.1,0,2.1,0.2,3,0.6c0.9,0.4,1.7,1.1,2.3,1.9s1.1,1.9,1.5,3.1c0.3,1.2,0.5,2.6,0.5,4.2c0,1.4-0.2,2.8-0.6,4
				c-0.4,1.2-0.9,2.3-1.7,3.2c-0.7,0.9-1.6,1.6-2.6,2.1c-1,0.5-2.2,0.8-3.5,0.8c-1.2,0-2.2-0.2-3-0.6c-0.8-0.4-1.6-0.9-2.2-1.6v8.4
				H321.7z M330.4,145.4c-1.1,0-2,0.2-2.8,0.7s-1.5,1.2-2.2,2.1v9.2c0.6,0.8,1.3,1.4,2,1.7c0.7,0.3,1.5,0.5,2.4,0.5
				c1.7,0,3.1-0.6,4-1.9s1.4-3,1.4-5.4c0-1.2-0.1-2.3-0.3-3.2s-0.5-1.6-0.9-2.2c-0.4-0.6-0.9-1-1.5-1.2S331.2,145.4,330.4,145.4z"/>
		</g>
		<g class="st20">
			<path class="st5" d="M351.3,142.5c1.4,0,2.7,0.2,3.8,0.7c1.1,0.5,2.1,1.1,2.9,2c0.8,0.9,1.4,1.9,1.8,3.1s0.6,2.6,0.6,4.1
				c0,1.5-0.2,2.9-0.6,4.1s-1,2.3-1.8,3.1c-0.8,0.9-1.8,1.5-2.9,2c-1.1,0.5-2.4,0.7-3.8,0.7c-1.4,0-2.7-0.2-3.8-0.7
				c-1.1-0.5-2.1-1.1-2.9-2c-0.8-0.9-1.4-1.9-1.9-3.1c-0.4-1.2-0.6-2.6-0.6-4.1c0-1.5,0.2-2.9,0.6-4.1c0.4-1.2,1-2.3,1.9-3.1
				c0.8-0.9,1.8-1.5,2.9-2C348.6,142.7,349.8,142.5,351.3,142.5z M351.3,159.5c1.8,0,3.2-0.6,4.1-1.9c0.9-1.2,1.4-3,1.4-5.2
				c0-2.2-0.5-4-1.4-5.2c-0.9-1.3-2.3-1.9-4.1-1.9c-1.9,0-3.3,0.6-4.2,1.9c-0.9,1.3-1.4,3-1.4,5.2c0,2.3,0.5,4,1.4,5.2
				C348,158.9,349.4,159.5,351.3,159.5z"/>
		</g>
		<g class="st20">
			<path class="st5" d="M380.6,142.8v16.5h3.5v8.2c0,0.3-0.1,0.6-0.3,0.8c-0.2,0.2-0.4,0.3-0.8,0.3h-2.2v-6.6H365v5.6
				c0,0.3-0.1,0.5-0.2,0.7c-0.2,0.2-0.4,0.3-0.7,0.3h-2.3v-9.2h0.6h0.2h5.4c-0.5,0.6-1,1.1-1.5,1.4c-0.5,0.3-1,0.4-1.5,0.5v0.8h-3.3
				v-2.6h0.8c0.4,0,0.9-0.1,1.3-0.3s0.8-0.5,1.2-0.9c0.4-0.4,0.8-1,1.1-1.8c0.3-0.8,0.7-1.8,0.9-3c0.3-1.2,0.5-2.7,0.7-4.5
				c0.2-1.7,0.4-3.8,0.5-6.2H380.6z M365,159.4v1.8c-0.1,0-0.1,0-0.1,0s-0.1,0-0.1,0h-2.5l-0.5-1.9H365z M371.2,145.6
				c-0.1,1.9-0.3,3.6-0.5,5.1s-0.5,2.8-0.8,3.9c-0.3,1.1-0.6,2.1-1,2.9c-0.3,0.8-0.7,1.4-1.1,2h9.2v-13.8H371.2z"/>
			<path class="st5" d="M399.8,162.1c-0.4,0-0.6-0.1-0.8-0.2c-0.2-0.1-0.3-0.3-0.5-0.7l-0.4-1.7c-0.5,0.5-1,0.9-1.5,1.2
				c-0.5,0.4-1,0.7-1.5,0.9c-0.5,0.2-1.1,0.4-1.7,0.6c-0.6,0.1-1.3,0.2-2,0.2c-0.8,0-1.5-0.1-2.1-0.3s-1.2-0.5-1.7-1
				c-0.5-0.4-0.9-1-1.2-1.6s-0.4-1.4-0.4-2.3c0-0.8,0.2-1.5,0.6-2.2c0.4-0.7,1.1-1.3,2-1.9c0.9-0.6,2.1-1,3.6-1.4s3.3-0.6,5.5-0.6
				v-1.4c0-1.5-0.3-2.6-0.9-3.3c-0.6-0.7-1.5-1.1-2.8-1.1c-0.8,0-1.5,0.1-2.1,0.3c-0.6,0.2-1,0.4-1.4,0.7c-0.4,0.2-0.8,0.5-1.1,0.7
				s-0.6,0.3-0.9,0.3c-0.3,0-0.5-0.1-0.6-0.2c-0.2-0.1-0.3-0.3-0.4-0.5l-0.6-1.2c1.1-1,2.2-1.8,3.5-2.3c1.2-0.5,2.6-0.8,4.1-0.8
				c1.1,0,2.1,0.2,2.9,0.5s1.6,0.9,2.1,1.5c0.6,0.6,1,1.4,1.3,2.3c0.3,0.9,0.4,1.9,0.4,3v12.3H399.8z M392.6,159.8
				c0.6,0,1.1-0.1,1.6-0.2c0.5-0.1,0.9-0.3,1.4-0.5c0.4-0.2,0.8-0.5,1.2-0.8c0.4-0.3,0.8-0.7,1.1-1.1v-3.9c-1.5,0.1-2.8,0.2-3.9,0.4
				c-1.1,0.2-1.9,0.4-2.6,0.7s-1.1,0.7-1.5,1.1c-0.3,0.4-0.5,0.9-0.5,1.4c0,0.5,0.1,0.9,0.2,1.3c0.2,0.4,0.4,0.6,0.7,0.9
				c0.3,0.2,0.6,0.4,1,0.5C391.8,159.8,392.2,159.8,392.6,159.8z"/>
			<path class="st5" d="M410.1,142.8v8.2h4.5c0.1-1.3,0.4-2.5,0.8-3.5c0.4-1.1,1-2,1.8-2.7c0.7-0.7,1.6-1.3,2.6-1.7
				c1-0.4,2.2-0.6,3.4-0.6c1.4,0,2.6,0.2,3.7,0.7c1.1,0.5,2,1.1,2.8,2c0.8,0.9,1.4,1.9,1.8,3.1s0.6,2.6,0.6,4.1
				c0,1.5-0.2,2.9-0.6,4.1s-1,2.3-1.8,3.1c-0.8,0.9-1.7,1.5-2.8,2c-1.1,0.5-2.3,0.7-3.6,0.7c-1.3,0-2.5-0.2-3.5-0.6s-1.9-1-2.7-1.7
				c-0.7-0.7-1.3-1.7-1.8-2.7c-0.4-1.1-0.7-2.3-0.8-3.6h-4.5v8.4h-3.6v-19.3H410.1z M423.3,159.5c1.7,0,3-0.6,3.9-1.9
				c0.8-1.2,1.3-3,1.3-5.2c0-2.2-0.4-4-1.3-5.2c-0.8-1.3-2.1-1.9-3.9-1.9s-3,0.6-3.9,1.9c-0.8,1.3-1.3,3-1.3,5.2
				c0,2.3,0.4,4,1.3,5.2C420.3,158.9,421.6,159.5,423.3,159.5z"/>
			<path class="st5" d="M436.3,142.8h3.6v16.5h7.6v-16.5h3.6v16.5h7.6v-16.5h3.6v16.5h3.5v8.2c0,0.3-0.1,0.6-0.3,0.8
				c-0.2,0.2-0.4,0.3-0.8,0.3h-2.2v-6.6h-26.3V142.8z"/>
			<path class="st5" d="M469.3,162.1v-19.3h3.6v12.8c0,0.3,0,0.5,0,0.8c0,0.3-0.1,0.6-0.1,0.9c0.2-0.5,0.5-0.9,0.7-1.3
				c0,0,0.2-0.2,0.4-0.6c0.3-0.4,0.6-0.8,1-1.4s0.9-1.2,1.4-2c0.5-0.7,1.1-1.5,1.6-2.2c1.3-1.8,2.8-3.8,4.5-6.1
				c0.1-0.2,0.3-0.4,0.5-0.6c0.2-0.2,0.5-0.3,0.8-0.3h2.2v19.3h-3.6v-12.8c0-0.3,0-0.5,0-0.8c0-0.3,0.1-0.6,0.1-0.9
				c-0.1,0.3-0.2,0.5-0.4,0.7c-0.1,0.2-0.2,0.4-0.4,0.6c0,0-0.2,0.2-0.4,0.6s-0.6,0.8-1,1.4c-0.4,0.6-0.9,1.2-1.5,2
				c-0.5,0.7-1.1,1.5-1.6,2.2c-1.3,1.8-2.8,3.8-4.4,6.1c-0.1,0.2-0.3,0.4-0.5,0.6c-0.2,0.2-0.5,0.3-0.8,0.3H469.3z"/>
			<path class="st5" d="M491.2,162.1v-19.3h3.6v12.8c0,0.3,0,0.5,0,0.8c0,0.3-0.1,0.6-0.1,0.9c0.2-0.5,0.5-0.9,0.7-1.3
				c0,0,0.2-0.2,0.4-0.6c0.3-0.4,0.6-0.8,1-1.4s0.9-1.2,1.4-2c0.5-0.7,1.1-1.5,1.6-2.2c1.3-1.8,2.8-3.8,4.5-6.1
				c0.1-0.2,0.3-0.4,0.5-0.6c0.2-0.2,0.5-0.3,0.8-0.3h2.2v19.3h-3.6v-12.8c0-0.3,0-0.5,0-0.8c0-0.3,0.1-0.6,0.1-0.9
				c-0.1,0.3-0.2,0.5-0.4,0.7c-0.1,0.2-0.2,0.4-0.4,0.6c0,0-0.2,0.2-0.4,0.6c-0.3,0.4-0.6,0.8-1,1.4c-0.4,0.6-0.9,1.2-1.5,2
				c-0.5,0.7-1.1,1.5-1.6,2.2c-1.3,1.8-2.8,3.8-4.4,6.1c-0.1,0.2-0.3,0.4-0.5,0.6c-0.2,0.2-0.5,0.3-0.8,0.3H491.2z M499.8,138.1
				c0.5,0,0.9-0.1,1.3-0.2s0.6-0.3,0.9-0.6c0.2-0.3,0.4-0.6,0.5-1s0.1-0.9,0.1-1.5h2.1c0.3,0,0.4,0.1,0.6,0.3s0.2,0.5,0.2,0.7
				c0,0.6-0.1,1.2-0.4,1.7s-0.6,1-1.1,1.3c-0.5,0.4-1.1,0.6-1.8,0.8c-0.7,0.2-1.5,0.3-2.4,0.3s-1.7-0.1-2.4-0.3
				c-0.7-0.2-1.3-0.5-1.8-0.8c-0.5-0.4-0.9-0.8-1.1-1.3c-0.3-0.5-0.4-1.1-0.4-1.7c0-0.3,0.1-0.5,0.2-0.7c0.1-0.2,0.3-0.3,0.6-0.3
				h2.1c0,0.6,0,1.1,0.1,1.5c0.1,0.4,0.2,0.8,0.5,1s0.5,0.4,0.8,0.6C498.8,138,499.2,138.1,499.8,138.1z"/>
			<path class="st5" d="M539.8,142.8v19.3h-3.6v-16.5h-5.9c-0.2,2.4-0.4,4.5-0.7,6.3c-0.3,1.8-0.7,3.3-1.1,4.5
				c-0.4,1.2-0.9,2.2-1.4,3c-0.5,0.8-1.1,1.4-1.7,1.8c-0.6,0.4-1.2,0.7-1.8,0.9c-0.6,0.2-1.2,0.2-1.9,0.2c-1.1,0-1.7-0.2-1.7-0.6
				v-2.3h1c0.4,0,0.9-0.1,1.3-0.2s0.9-0.4,1.3-0.9c0.4-0.4,0.8-1,1.2-1.8c0.4-0.8,0.7-1.8,1.1-3c0.3-1.2,0.6-2.7,0.8-4.5
				s0.4-3.9,0.5-6.3H539.8z"/>
			<path class="st5" d="M553,142.5c1.2,0,2.2,0.2,3.2,0.6c1,0.4,1.8,0.9,2.6,1.7c0.7,0.7,1.3,1.6,1.7,2.7s0.6,2.3,0.6,3.7
				c0,0.6-0.1,0.9-0.2,1.1c-0.1,0.2-0.3,0.3-0.7,0.3h-12.7c0,1.2,0.2,2.2,0.5,3.1c0.3,0.9,0.7,1.6,1.2,2.2c0.5,0.6,1.1,1,1.9,1.3
				c0.7,0.3,1.5,0.4,2.4,0.4c0.8,0,1.6-0.1,2.2-0.3c0.6-0.2,1.1-0.4,1.6-0.6c0.4-0.2,0.8-0.4,1.1-0.6c0.3-0.2,0.6-0.3,0.8-0.3
				c0.3,0,0.5,0.1,0.7,0.3l1,1.3c-0.4,0.5-1,1-1.5,1.4c-0.6,0.4-1.2,0.7-1.9,0.9c-0.7,0.2-1.4,0.4-2.1,0.5c-0.7,0.1-1.4,0.2-2.1,0.2
				c-1.3,0-2.6-0.2-3.7-0.7c-1.1-0.5-2.1-1.1-2.9-2c-0.8-0.9-1.5-1.9-1.9-3.2c-0.5-1.3-0.7-2.8-0.7-4.4c0-1.3,0.2-2.6,0.6-3.8
				s1-2.2,1.8-3c0.8-0.9,1.7-1.5,2.8-2S551.6,142.5,553,142.5z M553.1,145.1c-1.6,0-2.8,0.5-3.7,1.4s-1.5,2.2-1.7,3.8h10.2
				c0-0.8-0.1-1.5-0.3-2.1c-0.2-0.6-0.5-1.2-0.9-1.6c-0.4-0.5-0.9-0.8-1.5-1.1C554.5,145.3,553.9,145.1,553.1,145.1z"/>
			<path class="st5" d="M581.4,142.8v19.3h-3.6v-8.9h-9v8.9h-3.6v-19.3h3.6v7.6h9v-7.6H581.4z"/>
			<path class="st5" d="M603.3,142.8v16.5h3.5v8.2c0,0.3-0.1,0.6-0.3,0.8c-0.2,0.2-0.4,0.3-0.8,0.3h-2.2v-6.6h-15.9v5.6
				c0,0.3-0.1,0.5-0.2,0.7c-0.2,0.2-0.4,0.3-0.7,0.3h-2.3v-9.2h0.6h0.2h5.4c-0.5,0.6-1,1.1-1.5,1.4c-0.5,0.3-1,0.4-1.5,0.5v0.8h-3.3
				v-2.6h0.8c0.4,0,0.9-0.1,1.3-0.3s0.8-0.5,1.2-0.9c0.4-0.4,0.8-1,1.1-1.8c0.3-0.8,0.7-1.8,0.9-3c0.3-1.2,0.5-2.7,0.7-4.5
				c0.2-1.7,0.4-3.8,0.5-6.2H603.3z M587.7,159.4v1.8c-0.1,0-0.1,0-0.1,0c0,0-0.1,0-0.1,0h-2.5l-0.5-1.9H587.7z M593.9,145.6
				c-0.1,1.9-0.3,3.6-0.5,5.1c-0.2,1.5-0.5,2.8-0.8,3.9c-0.3,1.1-0.6,2.1-1,2.9c-0.3,0.8-0.7,1.4-1.1,2h9.2v-13.8H593.9z"/>
			<path class="st5" d="M610.2,162.1v-19.3h3.6v12.8c0,0.3,0,0.5,0,0.8c0,0.3-0.1,0.6-0.1,0.9c0.2-0.5,0.5-0.9,0.7-1.3
				c0,0,0.2-0.2,0.4-0.6c0.3-0.4,0.6-0.8,1-1.4c0.4-0.6,0.9-1.2,1.4-2c0.5-0.7,1.1-1.5,1.6-2.2c1.3-1.8,2.8-3.8,4.5-6.1
				c0.1-0.2,0.3-0.4,0.5-0.6c0.2-0.2,0.5-0.3,0.8-0.3h2.2v19.3h-3.6v-12.8c0-0.3,0-0.5,0-0.8c0-0.3,0.1-0.6,0.1-0.9
				c-0.1,0.3-0.2,0.5-0.4,0.7c-0.1,0.2-0.2,0.4-0.4,0.6c0,0-0.2,0.2-0.4,0.6c-0.3,0.4-0.6,0.8-1,1.4c-0.4,0.6-0.9,1.2-1.5,2
				c-0.5,0.7-1.1,1.5-1.6,2.2c-1.3,1.8-2.8,3.8-4.4,6.1c-0.1,0.2-0.3,0.4-0.5,0.6s-0.5,0.3-0.8,0.3H610.2z"/>
			<path class="st5" d="M648.3,142.8v19.3h-3.6v-8.9h-9v8.9h-3.6v-19.3h3.6v7.6h9v-7.6H648.3z"/>
			<path class="st5" d="M666.1,142.8v2.7h-9v16.5h-3.6v-19.3H666.1z"/>
			<path class="st5" d="M695.1,142.8v19.3h-3.6v-8.9h-9v8.9h-3.6v-19.3h3.6v7.6h9v-7.6H695.1z"/>
			<path class="st5" d="M712.7,162.1c-0.4,0-0.6-0.1-0.8-0.2c-0.2-0.1-0.3-0.3-0.5-0.7l-0.4-1.7c-0.5,0.5-1,0.9-1.5,1.2
				c-0.5,0.4-1,0.7-1.5,0.9c-0.5,0.2-1.1,0.4-1.7,0.6c-0.6,0.1-1.3,0.2-2,0.2c-0.8,0-1.5-0.1-2.1-0.3c-0.7-0.2-1.2-0.5-1.7-1
				c-0.5-0.4-0.9-1-1.2-1.6s-0.4-1.4-0.4-2.3c0-0.8,0.2-1.5,0.6-2.2c0.4-0.7,1.1-1.3,2-1.9c0.9-0.6,2.1-1,3.6-1.4s3.3-0.6,5.5-0.6
				v-1.4c0-1.5-0.3-2.6-0.9-3.3c-0.6-0.7-1.5-1.1-2.8-1.1c-0.8,0-1.5,0.1-2.1,0.3c-0.6,0.2-1,0.4-1.4,0.7c-0.4,0.2-0.8,0.5-1.1,0.7
				c-0.3,0.2-0.6,0.3-0.9,0.3c-0.3,0-0.5-0.1-0.6-0.2s-0.3-0.3-0.4-0.5l-0.6-1.2c1.1-1,2.2-1.8,3.5-2.3c1.2-0.5,2.6-0.8,4.1-0.8
				c1.1,0,2.1,0.2,2.9,0.5s1.6,0.9,2.1,1.5c0.6,0.6,1,1.4,1.3,2.3s0.4,1.9,0.4,3v12.3H712.7z M705.5,159.8c0.6,0,1.1-0.1,1.6-0.2
				c0.5-0.1,0.9-0.3,1.4-0.5c0.4-0.2,0.8-0.5,1.2-0.8c0.4-0.3,0.8-0.7,1.1-1.1v-3.9c-1.5,0.1-2.8,0.2-3.9,0.4
				c-1.1,0.2-1.9,0.4-2.6,0.7s-1.1,0.7-1.5,1.1c-0.3,0.4-0.5,0.9-0.5,1.4c0,0.5,0.1,0.9,0.2,1.3c0.2,0.4,0.4,0.6,0.7,0.9
				c0.3,0.2,0.6,0.4,1,0.5C704.6,159.8,705,159.8,705.5,159.8z"/>
		</g>
		<g class="st20">
			<path class="st5" d="M748.3,134.8v3.3h-8.7v24h-3.9v-24h-8.7v-3.3H748.3z"/>
		</g>
		<g class="st20">
			<path class="st5" d="M747.3,162.1v-19.3h3.6v12.8c0,0.3,0,0.5,0,0.8c0,0.3-0.1,0.6-0.1,0.9c0.2-0.5,0.5-0.9,0.7-1.3
				c0,0,0.2-0.2,0.4-0.6c0.3-0.4,0.6-0.8,1-1.4c0.4-0.6,0.9-1.2,1.4-2c0.5-0.7,1.1-1.5,1.6-2.2c1.3-1.8,2.8-3.8,4.5-6.1
				c0.1-0.2,0.3-0.4,0.5-0.6c0.2-0.2,0.5-0.3,0.8-0.3h2.2v19.3h-3.6v-12.8c0-0.3,0-0.5,0-0.8c0-0.3,0.1-0.6,0.1-0.9
				c-0.1,0.3-0.2,0.5-0.4,0.7c-0.1,0.2-0.2,0.4-0.4,0.6c0,0-0.2,0.2-0.4,0.6c-0.3,0.4-0.6,0.8-1,1.4c-0.4,0.6-0.9,1.2-1.5,2
				c-0.5,0.7-1.1,1.5-1.6,2.2c-1.3,1.8-2.8,3.8-4.4,6.1c-0.1,0.2-0.3,0.4-0.5,0.6s-0.5,0.3-0.8,0.3H747.3z"/>
			<path class="st5" d="M786.3,142.8v19.3h-3.6v-16.5h-5.9c-0.2,2.4-0.4,4.5-0.7,6.3c-0.3,1.8-0.7,3.3-1.1,4.5
				c-0.4,1.2-0.9,2.2-1.4,3c-0.5,0.8-1.1,1.4-1.7,1.8c-0.6,0.4-1.2,0.7-1.8,0.9c-0.6,0.2-1.2,0.2-1.9,0.2c-1.1,0-1.7-0.2-1.7-0.6
				v-2.3h1c0.4,0,0.9-0.1,1.3-0.2s0.9-0.4,1.3-0.9c0.4-0.4,0.8-1,1.2-1.8c0.4-0.8,0.7-1.8,1.1-3c0.3-1.2,0.6-2.7,0.8-4.5
				s0.4-3.9,0.5-6.3H786.3z"/>
			<path class="st5" d="M795,142.8v7.5h4c1.3,0,2.5,0.2,3.4,0.5s1.6,0.8,2.2,1.3s1,1.1,1.2,1.8c0.2,0.7,0.4,1.4,0.4,2.2
				c0,0.9-0.2,1.7-0.5,2.4c-0.3,0.7-0.8,1.4-1.4,1.9c-0.6,0.5-1.3,0.9-2.2,1.2c-0.9,0.3-1.9,0.4-3,0.4h-7.5v-19.3H795z M795,152.9
				v6.5h4c0.6,0,1.2-0.1,1.7-0.2c0.5-0.2,0.9-0.4,1.2-0.7c0.3-0.3,0.6-0.6,0.7-1.1s0.2-0.8,0.2-1.3c0-0.4-0.1-0.8-0.2-1.2
				s-0.4-0.7-0.7-1c-0.3-0.3-0.7-0.5-1.2-0.7c-0.5-0.2-1.1-0.3-1.8-0.3H795z"/>
		</g>
		<g class="st20">
			<path class="st5" d="M826.5,142.8v16.5h3.5v8.2c0,0.3-0.1,0.6-0.3,0.8c-0.2,0.2-0.4,0.3-0.8,0.3h-2.2v-6.6h-15.9v5.6
				c0,0.3-0.1,0.5-0.2,0.7c-0.2,0.2-0.4,0.3-0.7,0.3h-2.3v-9.2h0.6h0.2h5.4c-0.5,0.6-1,1.1-1.5,1.4s-1,0.4-1.5,0.5v0.8h-3.3v-2.6
				h0.8c0.4,0,0.9-0.1,1.3-0.3s0.8-0.5,1.2-0.9c0.4-0.4,0.8-1,1.1-1.8s0.7-1.8,0.9-3c0.3-1.2,0.5-2.7,0.7-4.5
				c0.2-1.7,0.4-3.8,0.5-6.2H826.5z M810.8,159.4v1.8c-0.1,0-0.1,0-0.1,0c0,0-0.1,0-0.1,0h-2.5l-0.5-1.9H810.8z M817.1,145.6
				c-0.1,1.9-0.3,3.6-0.5,5.1c-0.2,1.5-0.5,2.8-0.8,3.9c-0.3,1.1-0.6,2.1-1,2.9c-0.3,0.8-0.7,1.4-1.1,2h9.2v-13.8H817.1z"/>
		</g>
		<g class="st20">
			<path class="st5" d="M841,142.5c1.2,0,2.2,0.2,3.2,0.6c1,0.4,1.8,0.9,2.6,1.7c0.7,0.7,1.3,1.6,1.7,2.7s0.6,2.3,0.6,3.7
				c0,0.6-0.1,0.9-0.2,1.1c-0.1,0.2-0.3,0.3-0.7,0.3h-12.7c0,1.2,0.2,2.2,0.5,3.1s0.7,1.6,1.2,2.2c0.5,0.6,1.1,1,1.9,1.3
				c0.7,0.3,1.5,0.4,2.4,0.4c0.8,0,1.6-0.1,2.2-0.3c0.6-0.2,1.1-0.4,1.6-0.6c0.4-0.2,0.8-0.4,1.1-0.6c0.3-0.2,0.6-0.3,0.8-0.3
				c0.3,0,0.5,0.1,0.7,0.3l1,1.3c-0.4,0.5-1,1-1.5,1.4c-0.6,0.4-1.2,0.7-1.9,0.9c-0.7,0.2-1.4,0.4-2.1,0.5c-0.7,0.1-1.4,0.2-2.1,0.2
				c-1.3,0-2.6-0.2-3.7-0.7c-1.1-0.5-2.1-1.1-2.9-2c-0.8-0.9-1.5-1.9-1.9-3.2c-0.5-1.3-0.7-2.8-0.7-4.4c0-1.3,0.2-2.6,0.6-3.8
				s1-2.2,1.8-3c0.8-0.9,1.7-1.5,2.9-2S839.6,142.5,841,142.5z M841.1,145.1c-1.6,0-2.8,0.5-3.7,1.4c-0.9,0.9-1.5,2.2-1.7,3.8h10.2
				c0-0.8-0.1-1.5-0.3-2.1c-0.2-0.6-0.5-1.2-0.9-1.6s-0.9-0.8-1.5-1.1C842.5,145.3,841.8,145.1,841.1,145.1z"/>
		</g>
		<g class="st20">
			<path class="st5" d="M851.1,137.2c0.4-0.4,0.8-0.7,1.3-1c0.5-0.3,1-0.6,1.6-0.9c0.6-0.3,1.2-0.5,1.8-0.6c0.7-0.1,1.4-0.2,2.1-0.2
				c1,0,2,0.1,2.8,0.4s1.6,0.7,2.2,1.2c0.6,0.5,1.1,1.2,1.5,2c0.4,0.8,0.5,1.6,0.5,2.6c0,1-0.1,1.8-0.4,2.5s-0.6,1.3-1.1,1.8
				c-0.4,0.5-0.9,1-1.4,1.4c-0.5,0.4-1,0.8-1.4,1.1c-0.4,0.3-0.8,0.7-1.2,1c-0.3,0.3-0.5,0.7-0.6,1.1l-0.4,2.9h-2.5l-0.2-3.2
				c-0.1-0.6,0-1.1,0.3-1.5c0.3-0.4,0.6-0.8,1-1.2s0.9-0.7,1.4-1.1c0.5-0.4,1-0.8,1.4-1.2c0.4-0.4,0.8-0.9,1.1-1.5s0.5-1.2,0.5-2
				c0-0.5-0.1-1-0.3-1.4s-0.5-0.8-0.9-1.1c-0.4-0.3-0.8-0.5-1.3-0.7c-0.5-0.2-1-0.2-1.6-0.2c-0.8,0-1.4,0.1-2,0.3s-1,0.4-1.4,0.6
				s-0.7,0.4-0.9,0.6c-0.2,0.2-0.4,0.3-0.6,0.3c-0.3,0-0.6-0.1-0.8-0.4L851.1,137.2z M854.8,159.9c0-0.3,0.1-0.7,0.2-1
				s0.3-0.6,0.5-0.8c0.2-0.2,0.5-0.4,0.8-0.5c0.3-0.1,0.6-0.2,1-0.2c0.3,0,0.7,0.1,1,0.2s0.6,0.3,0.8,0.5c0.2,0.2,0.4,0.5,0.5,0.8
				c0.1,0.3,0.2,0.6,0.2,1c0,0.4-0.1,0.7-0.2,1c-0.1,0.3-0.3,0.6-0.5,0.8s-0.5,0.4-0.8,0.5c-0.3,0.1-0.6,0.2-1,0.2
				c-0.3,0-0.7-0.1-1-0.2c-0.3-0.1-0.6-0.3-0.8-0.5c-0.2-0.2-0.4-0.5-0.5-0.8C854.8,160.6,854.8,160.2,854.8,159.9z"/>
		</g>
		<g class="st20">
			<path class="st5" d="M87.3,612.5h8.1v-25.9c0-0.7,0-1.5,0.1-2.4l-6.8,5.8c-0.2,0.2-0.5,0.3-0.7,0.4c-0.2,0-0.4,0-0.6,0
				c-0.2,0-0.4-0.1-0.5-0.2c-0.2-0.1-0.3-0.2-0.4-0.3l-1.5-2l11.3-9.8h3.8v34.5h7.5v3.6H87.3V612.5z"/>
			<path class="st5" d="M127.1,577.7c1.6,0,3.1,0.2,4.5,0.7c1.4,0.5,2.6,1.2,3.6,2.1c1,0.9,1.8,2,2.4,3.3c0.6,1.3,0.9,2.8,0.9,4.5
				c0,1.4-0.2,2.7-0.6,3.9c-0.4,1.2-1,2.4-1.7,3.5c-0.7,1.1-1.6,2.2-2.5,3.2c-0.9,1-1.9,2.1-3,3.2l-10,10.2c0.7-0.2,1.4-0.3,2.1-0.5
				c0.7-0.1,1.4-0.2,2.1-0.2h12.7c0.5,0,0.9,0.2,1.2,0.5c0.3,0.3,0.5,0.7,0.5,1.2v2.9h-25.3v-1.6c0-0.3,0.1-0.7,0.2-1
				c0.1-0.4,0.4-0.7,0.7-1l12.2-12.2c1-1,1.9-2,2.8-3c0.8-0.9,1.5-1.9,2.1-2.8s1-1.9,1.4-2.9c0.3-1,0.5-2,0.5-3.1s-0.2-2.1-0.5-2.9
				c-0.4-0.8-0.8-1.5-1.4-2.1c-0.6-0.5-1.3-1-2.2-1.2c-0.8-0.3-1.7-0.4-2.7-0.4c-1,0-1.9,0.1-2.7,0.4c-0.8,0.3-1.5,0.7-2.2,1.2
				c-0.6,0.5-1.2,1.1-1.6,1.8c-0.4,0.7-0.7,1.4-0.9,2.3c-0.2,0.6-0.5,1-0.9,1.2s-0.9,0.3-1.5,0.2l-2.5-0.4c0.2-1.7,0.7-3.3,1.4-4.6
				c0.7-1.3,1.6-2.5,2.7-3.4s2.3-1.6,3.7-2.1C123.9,577.9,125.4,577.7,127.1,577.7z"/>
		</g>
		<g class="st20">
			<path class="st5" d="M82.4,646.1v-12.7h2.2v8.6c0,0.2,0,0.3,0,0.5c0,0.2,0,0.4-0.1,0.6c0.1-0.2,0.1-0.3,0.2-0.4
				c0.1-0.1,0.2-0.3,0.2-0.4c0,0,0.1-0.1,0.3-0.4c0.2-0.2,0.4-0.6,0.7-1c0.3-0.4,0.6-0.8,1-1.3c0.4-0.5,0.7-1,1.1-1.5
				c0.9-1.2,1.9-2.6,3-4.1c0.1-0.1,0.2-0.3,0.4-0.4c0.1-0.1,0.3-0.2,0.5-0.2h1.3v12.7H91v-8.6c0-0.2,0-0.3,0-0.5s0-0.4,0.1-0.6
				c-0.1,0.2-0.2,0.3-0.2,0.5c-0.1,0.1-0.2,0.3-0.2,0.4c0,0-0.1,0.1-0.3,0.4c-0.2,0.2-0.4,0.6-0.7,1s-0.6,0.8-1,1.3
				c-0.4,0.5-0.7,1-1.1,1.5c-0.9,1.2-1.9,2.6-3,4.1c-0.1,0.1-0.2,0.3-0.3,0.4c-0.1,0.1-0.3,0.2-0.5,0.2H82.4z"/>
			<path class="st5" d="M99,633.4v5.5h3.1c0.1-0.9,0.3-1.6,0.5-2.3s0.7-1.3,1.2-1.8c0.5-0.5,1.1-0.9,1.7-1.1s1.4-0.4,2.2-0.4
				c0.9,0,1.7,0.2,2.4,0.5c0.7,0.3,1.3,0.7,1.8,1.3c0.5,0.6,0.9,1.3,1.2,2.1c0.3,0.8,0.4,1.7,0.4,2.7c0,1-0.1,1.9-0.4,2.7
				s-0.7,1.5-1.2,2c-0.5,0.6-1.1,1-1.8,1.3c-0.7,0.3-1.5,0.5-2.4,0.5c-0.8,0-1.6-0.1-2.3-0.4s-1.2-0.6-1.7-1.1
				c-0.5-0.5-0.9-1.1-1.1-1.8s-0.5-1.5-0.5-2.4H99v5.6h-2.2v-12.7H99z M107.8,644.5c1.2,0,2-0.4,2.6-1.3c0.6-0.8,0.9-2,0.9-3.5
				c0-1.5-0.3-2.7-0.9-3.5c-0.6-0.8-1.4-1.3-2.6-1.3c-1.2,0-2,0.4-2.6,1.3s-0.9,2-0.9,3.5c0,1.5,0.3,2.7,0.9,3.5
				C105.7,644.1,106.6,644.5,107.8,644.5z"/>
			<path class="st5" d="M126.9,633.4v12.7h-2.2v-5.9h-6.1v5.9h-2.2v-12.7h2.2v5h6.1v-5H126.9z"/>
			<path class="st5" d="M139.2,646.1h-2.1v-5.3h-1c-0.2,0-0.4,0-0.6,0.1s-0.3,0.1-0.4,0.2s-0.2,0.2-0.3,0.3
				c-0.1,0.1-0.2,0.2-0.3,0.4l-2.8,3.7c-0.1,0.3-0.3,0.5-0.5,0.6s-0.5,0.2-0.9,0.2h-1.6l3.7-4.8c0.3-0.5,0.7-0.8,1.2-1
				c-0.6-0.1-1.2-0.2-1.6-0.4c-0.4-0.2-0.8-0.5-1.1-0.8s-0.5-0.6-0.6-1s-0.2-0.7-0.2-1.1c0-0.4,0.1-0.9,0.3-1.3
				c0.2-0.4,0.4-0.8,0.8-1.2c0.4-0.3,0.9-0.6,1.5-0.8c0.6-0.2,1.3-0.3,2.2-0.3h4.3V646.1z M132.4,637.1c0,0.7,0.2,1.2,0.8,1.6
				s1.2,0.6,2.1,0.6h1.8v-4.4H135c-0.5,0-0.9,0.1-1.2,0.2c-0.3,0.1-0.6,0.3-0.8,0.5c-0.2,0.2-0.3,0.5-0.4,0.7
				S132.4,636.9,132.4,637.1z"/>
		</g>
		<g class="st20">
			<path class="st4" d="M150.5,644.4h3.8v-12.2c0-0.4,0-0.7,0-1.1l-3.2,2.7c-0.1,0.1-0.2,0.1-0.3,0.2c-0.1,0-0.2,0-0.3,0
				s-0.2,0-0.3-0.1c-0.1,0-0.1-0.1-0.2-0.2l-0.7-1l5.3-4.6h1.8v16.2h3.5v1.7h-9.6V644.4z"/>
			<path class="st4" d="M170.6,638.9c0.2-0.2,0.4-0.5,0.5-0.7s0.3-0.4,0.5-0.6c-0.5,0.4-1,0.6-1.6,0.8c-0.6,0.2-1.2,0.3-1.8,0.3
				c-0.7,0-1.3-0.1-1.9-0.3c-0.6-0.2-1.1-0.6-1.6-1c-0.5-0.4-0.8-1-1.1-1.6c-0.3-0.6-0.4-1.4-0.4-2.2c0-0.8,0.1-1.5,0.4-2.2
				c0.3-0.7,0.7-1.3,1.2-1.8c0.5-0.5,1.1-0.9,1.9-1.2s1.5-0.4,2.4-0.4c0.9,0,1.6,0.1,2.3,0.4c0.7,0.3,1.3,0.7,1.8,1.2
				c0.5,0.5,0.9,1.1,1.2,1.8c0.3,0.7,0.4,1.5,0.4,2.3c0,0.5,0,1-0.1,1.5c-0.1,0.5-0.2,0.9-0.4,1.4c-0.2,0.4-0.4,0.9-0.7,1.3
				s-0.6,0.9-0.9,1.3l-4.4,6.3c-0.1,0.2-0.3,0.3-0.5,0.4c-0.2,0.1-0.4,0.1-0.7,0.1h-2L170.6,638.9z M172.7,633.5
				c0-0.6-0.1-1.1-0.3-1.5s-0.4-0.8-0.7-1.2c-0.3-0.3-0.7-0.6-1.1-0.7c-0.4-0.2-0.9-0.3-1.4-0.3c-0.5,0-1,0.1-1.5,0.3
				c-0.4,0.2-0.8,0.4-1.2,0.7c-0.3,0.3-0.6,0.7-0.8,1.1c-0.2,0.4-0.3,0.9-0.3,1.4c0,0.6,0.1,1.1,0.2,1.5c0.2,0.4,0.4,0.8,0.7,1.1
				c0.3,0.3,0.7,0.5,1.1,0.7s0.9,0.2,1.5,0.2c0.6,0,1.1-0.1,1.6-0.3c0.5-0.2,0.9-0.5,1.2-0.8c0.3-0.3,0.6-0.7,0.7-1.1
				C172.6,634.4,172.7,633.9,172.7,633.5z"/>
			<path class="st4" d="M178,635.3c0-0.2,0-0.4,0.1-0.6s0.2-0.4,0.3-0.5c0.1-0.1,0.3-0.3,0.5-0.3c0.2-0.1,0.4-0.1,0.6-0.1
				s0.4,0,0.6,0.1c0.2,0.1,0.4,0.2,0.5,0.3c0.1,0.1,0.3,0.3,0.3,0.5c0.1,0.2,0.1,0.4,0.1,0.6c0,0.2,0,0.4-0.1,0.6
				c-0.1,0.2-0.2,0.4-0.3,0.5c-0.1,0.1-0.3,0.3-0.5,0.3c-0.2,0.1-0.4,0.1-0.6,0.1s-0.4,0-0.6-0.1c-0.2-0.1-0.4-0.2-0.5-0.3
				c-0.1-0.1-0.2-0.3-0.3-0.5S178,635.5,178,635.3z M178,644.7c0-0.2,0-0.4,0.1-0.6s0.2-0.4,0.3-0.5c0.1-0.1,0.3-0.3,0.5-0.3
				c0.2-0.1,0.4-0.1,0.6-0.1s0.4,0,0.6,0.1c0.2,0.1,0.4,0.2,0.5,0.3c0.1,0.1,0.3,0.3,0.3,0.5c0.1,0.2,0.1,0.4,0.1,0.6
				c0,0.2,0,0.4-0.1,0.6c-0.1,0.2-0.2,0.4-0.3,0.5c-0.1,0.1-0.3,0.3-0.5,0.3c-0.2,0.1-0.4,0.1-0.6,0.1s-0.4,0-0.6-0.1
				c-0.2-0.1-0.4-0.2-0.5-0.3c-0.1-0.1-0.2-0.3-0.3-0.5S178,644.9,178,644.7z"/>
			<path class="st4" d="M196.4,637.1c0,1.6-0.2,2.9-0.5,4.1c-0.3,1.1-0.8,2.1-1.4,2.8c-0.6,0.8-1.3,1.3-2.1,1.7
				c-0.8,0.4-1.6,0.5-2.6,0.5c-0.9,0-1.8-0.2-2.6-0.5c-0.8-0.4-1.5-0.9-2.1-1.7c-0.6-0.8-1-1.7-1.4-2.8c-0.3-1.1-0.5-2.5-0.5-4.1
				c0-1.6,0.2-2.9,0.5-4.1c0.3-1.1,0.8-2.1,1.4-2.9c0.6-0.8,1.3-1.3,2.1-1.7c0.8-0.4,1.6-0.5,2.6-0.5c0.9,0,1.8,0.2,2.6,0.5
				c0.8,0.4,1.5,0.9,2.1,1.7c0.6,0.8,1,1.7,1.4,2.9C196.2,634.2,196.4,635.6,196.4,637.1z M194.1,637.1c0-1.4-0.1-2.5-0.3-3.4
				c-0.2-0.9-0.5-1.7-0.9-2.2c-0.4-0.6-0.8-1-1.3-1.2c-0.5-0.2-1-0.4-1.6-0.4c-0.5,0-1.1,0.1-1.6,0.4c-0.5,0.2-1,0.7-1.3,1.2
				c-0.4,0.6-0.7,1.3-0.9,2.2c-0.2,0.9-0.3,2.1-0.3,3.4c0,1.4,0.1,2.5,0.3,3.4c0.2,0.9,0.5,1.7,0.9,2.2c0.4,0.6,0.8,1,1.3,1.2
				c0.5,0.2,1,0.4,1.6,0.4c0.6,0,1.1-0.1,1.6-0.4c0.5-0.2,1-0.7,1.3-1.2c0.4-0.6,0.7-1.3,0.9-2.2C194,639.6,194.1,638.5,194.1,637.1
				z"/>
			<path class="st4" d="M210.9,637.1c0,1.6-0.2,2.9-0.5,4.1c-0.3,1.1-0.8,2.1-1.4,2.8c-0.6,0.8-1.3,1.3-2.1,1.7
				c-0.8,0.4-1.6,0.5-2.6,0.5c-0.9,0-1.8-0.2-2.6-0.5c-0.8-0.4-1.5-0.9-2.1-1.7c-0.6-0.8-1-1.7-1.4-2.8c-0.3-1.1-0.5-2.5-0.5-4.1
				c0-1.6,0.2-2.9,0.5-4.1c0.3-1.1,0.8-2.1,1.4-2.9c0.6-0.8,1.3-1.3,2.1-1.7c0.8-0.4,1.6-0.5,2.6-0.5c0.9,0,1.8,0.2,2.6,0.5
				c0.8,0.4,1.5,0.9,2.1,1.7c0.6,0.8,1,1.7,1.4,2.9C210.7,634.2,210.9,635.6,210.9,637.1z M208.6,637.1c0-1.4-0.1-2.5-0.3-3.4
				c-0.2-0.9-0.5-1.7-0.9-2.2c-0.4-0.6-0.8-1-1.3-1.2c-0.5-0.2-1-0.4-1.6-0.4c-0.5,0-1.1,0.1-1.6,0.4c-0.5,0.2-1,0.7-1.3,1.2
				c-0.4,0.6-0.7,1.3-0.9,2.2c-0.2,0.9-0.3,2.1-0.3,3.4c0,1.4,0.1,2.5,0.3,3.4c0.2,0.9,0.5,1.7,0.9,2.2c0.4,0.6,0.8,1,1.3,1.2
				c0.5,0.2,1,0.4,1.6,0.4c0.6,0,1.1-0.1,1.6-0.4c0.5-0.2,1-0.7,1.3-1.2c0.4-0.6,0.7-1.3,0.9-2.2
				C208.5,639.6,208.6,638.5,208.6,637.1z"/>
		</g>
		<g class="st20">
			<path class="st4" d="M81.9,96.1V78.2h5.7c1.1,0,2,0.1,2.8,0.3c0.8,0.2,1.5,0.5,2,0.9c0.5,0.4,0.9,0.9,1.1,1.5s0.4,1.2,0.4,2
				c0,0.4-0.1,0.9-0.2,1.3c-0.1,0.4-0.3,0.8-0.6,1.1c-0.3,0.4-0.6,0.7-1,0.9c-0.4,0.3-0.9,0.5-1.5,0.7c1.3,0.3,2.3,0.7,3,1.4
				c0.7,0.7,1,1.6,1,2.7c0,0.8-0.1,1.4-0.4,2.1s-0.7,1.2-1.2,1.6c-0.5,0.4-1.2,0.8-2,1c-0.8,0.2-1.7,0.4-2.7,0.4H81.9z M84.4,86.2
				h3.2c0.7,0,1.3-0.1,1.8-0.2c0.5-0.2,0.9-0.4,1.2-0.6s0.6-0.6,0.7-1c0.2-0.4,0.2-0.8,0.2-1.2c0-1.1-0.3-1.8-0.9-2.3
				c-0.6-0.5-1.6-0.7-3-0.7h-3.3V86.2z M84.4,87.9v6.2h3.9c0.7,0,1.3-0.1,1.8-0.2s0.9-0.4,1.2-0.7c0.3-0.3,0.6-0.6,0.7-1
				c0.2-0.4,0.2-0.8,0.2-1.3c0-0.9-0.3-1.7-1-2.2c-0.7-0.5-1.6-0.8-3-0.8H84.4z"/>
		</g>
		<g class="st20">
			<path class="st4" d="M102.6,83.2c0.8,0,1.5,0.1,2.1,0.4c0.6,0.3,1.2,0.6,1.7,1.1c0.5,0.5,0.8,1.1,1.1,1.8s0.4,1.5,0.4,2.4
				c0,0.4,0,0.6-0.1,0.7c-0.1,0.1-0.2,0.2-0.4,0.2h-8.5c0,0.8,0.1,1.5,0.3,2.1s0.5,1.1,0.8,1.5c0.3,0.4,0.8,0.7,1.2,0.9
				c0.5,0.2,1,0.3,1.6,0.3c0.6,0,1-0.1,1.4-0.2s0.8-0.3,1-0.4c0.3-0.2,0.5-0.3,0.7-0.4c0.2-0.1,0.4-0.2,0.5-0.2
				c0.2,0,0.3,0.1,0.4,0.2l0.6,0.8c-0.3,0.3-0.6,0.6-1,0.9s-0.8,0.4-1.2,0.6s-0.9,0.3-1.4,0.4s-0.9,0.1-1.4,0.1
				c-0.9,0-1.7-0.1-2.4-0.4s-1.4-0.7-1.9-1.3c-0.5-0.6-1-1.3-1.3-2.1c-0.3-0.8-0.4-1.8-0.4-2.9c0-0.9,0.1-1.7,0.4-2.5
				c0.3-0.8,0.7-1.4,1.2-2s1.1-1,1.9-1.3C100.8,83.4,101.7,83.2,102.6,83.2z M102.6,84.8c-1.1,0-1.9,0.3-2.5,0.9
				c-0.6,0.6-1,1.5-1.1,2.6h6.9c0-0.5-0.1-1-0.2-1.4c-0.1-0.4-0.4-0.8-0.6-1.1c-0.3-0.3-0.6-0.6-1-0.7
				C103.6,84.9,103.1,84.8,102.6,84.8z"/>
			<path class="st4" d="M117.2,80.4c-0.9,0.1-1.6,0.3-2.2,0.6c-0.6,0.3-1.1,0.7-1.5,1.2s-0.7,1.1-0.9,1.8c-0.2,0.7-0.3,1.5-0.4,2.4
				c0.2-0.4,0.5-0.8,0.8-1.1c0.3-0.3,0.7-0.6,1.1-0.8c0.4-0.2,0.9-0.4,1.3-0.5c0.5-0.1,1-0.2,1.5-0.2c0.8,0,1.6,0.1,2.3,0.4
				s1.2,0.7,1.7,1.3c0.5,0.5,0.8,1.2,1.1,2s0.4,1.6,0.4,2.5c0,0.9-0.1,1.8-0.4,2.6s-0.7,1.4-1.2,2c-0.5,0.5-1.2,1-1.9,1.2
				c-0.7,0.3-1.6,0.4-2.5,0.4c-0.9,0-1.6-0.1-2.4-0.4s-1.4-0.8-1.9-1.4c-0.5-0.6-1-1.5-1.3-2.6s-0.5-2.4-0.5-3.9
				c0-1.3,0.1-2.6,0.4-3.7c0.2-1.1,0.6-2.1,1.2-2.9s1.2-1.5,2.1-2c0.9-0.5,1.9-0.8,3.1-0.9l4.5-0.4l0.1,1.1c0,0.3,0,0.5-0.1,0.7
				s-0.3,0.3-0.5,0.3L117.2,80.4z M116.3,94.6c1.2,0,2.2-0.4,2.8-1.2c0.6-0.8,1-1.9,1-3.3c0-1.4-0.3-2.5-0.9-3.3
				c-0.6-0.8-1.5-1.2-2.8-1.2c-0.6,0-1.1,0.1-1.6,0.3c-0.5,0.2-0.9,0.5-1.2,0.8s-0.6,0.8-0.8,1.3s-0.3,1.1-0.3,1.8
				c0,0.8,0.1,1.4,0.2,2c0.2,0.6,0.4,1.1,0.7,1.5c0.3,0.4,0.7,0.7,1.2,1C115.1,94.5,115.7,94.6,116.3,94.6z"/>
			<path class="st4" d="M125.2,96.1V83.4h2.2V92c0,0.2,0,0.3,0,0.5c0,0.2,0,0.4-0.1,0.6c0.1-0.2,0.1-0.3,0.2-0.4
				c0.1-0.1,0.2-0.3,0.2-0.4c0,0,0.1-0.1,0.3-0.4c0.2-0.2,0.4-0.6,0.7-1c0.3-0.4,0.6-0.8,1-1.3c0.4-0.5,0.7-1,1.1-1.5
				c0.9-1.2,1.9-2.6,3-4.1c0.1-0.1,0.2-0.3,0.4-0.4c0.1-0.1,0.3-0.2,0.5-0.2h1.3v12.7h-2.2v-8.6c0-0.2,0-0.3,0-0.5s0-0.4,0.1-0.6
				c-0.1,0.2-0.2,0.3-0.2,0.5c-0.1,0.1-0.2,0.3-0.2,0.4c0,0-0.1,0.1-0.3,0.4c-0.2,0.2-0.4,0.6-0.7,1s-0.6,0.8-1,1.3
				c-0.4,0.5-0.7,1-1.1,1.5c-0.9,1.2-1.9,2.6-3,4.1c-0.1,0.1-0.2,0.3-0.3,0.4c-0.1,0.1-0.3,0.2-0.5,0.2H125.2z"/>
			<path class="st4" d="M150.2,83.4v12.7h-2.2v-5.9h-6.1v5.9h-2.2V83.4h2.2v5h6.1v-5H150.2z"/>
			<path class="st4" d="M161.7,96.1c-0.2,0-0.4,0-0.5-0.1c-0.1-0.1-0.2-0.2-0.3-0.4l-0.2-1.2c-0.3,0.3-0.7,0.6-1,0.8s-0.7,0.4-1,0.6
				c-0.3,0.2-0.7,0.3-1.1,0.4c-0.4,0.1-0.8,0.1-1.3,0.1c-0.5,0-1-0.1-1.4-0.2c-0.4-0.1-0.8-0.3-1.1-0.6c-0.3-0.3-0.6-0.6-0.8-1
				s-0.3-0.9-0.3-1.5c0-0.5,0.1-1,0.4-1.4c0.3-0.5,0.7-0.9,1.3-1.2c0.6-0.4,1.4-0.7,2.4-0.9s2.2-0.4,3.6-0.4v-1c0-1-0.2-1.7-0.6-2.2
				c-0.4-0.5-1-0.8-1.9-0.8c-0.5,0-1,0.1-1.4,0.2c-0.4,0.1-0.7,0.3-1,0.5c-0.3,0.2-0.5,0.3-0.7,0.5s-0.4,0.2-0.6,0.2
				c-0.1,0-0.3,0-0.4-0.1c-0.1-0.1-0.2-0.2-0.3-0.3l-0.4-0.7c0.7-0.7,1.5-1.2,2.3-1.5c0.8-0.3,1.7-0.5,2.7-0.5
				c0.7,0,1.3,0.1,1.9,0.4c0.6,0.2,1,0.6,1.4,1s0.7,0.9,0.9,1.5c0.2,0.6,0.3,1.2,0.3,2v8.1H161.7z M157,94.7c0.4,0,0.8,0,1.1-0.1
				c0.3-0.1,0.6-0.2,0.9-0.3c0.3-0.1,0.6-0.3,0.8-0.5c0.3-0.2,0.5-0.5,0.8-0.7v-2.6c-1,0-1.9,0.1-2.6,0.2c-0.7,0.1-1.3,0.3-1.8,0.5
				c-0.5,0.2-0.8,0.5-1,0.7c-0.2,0.3-0.3,0.6-0.3,1c0,0.3,0.1,0.6,0.2,0.9c0.1,0.2,0.3,0.4,0.4,0.6c0.2,0.2,0.4,0.3,0.7,0.3
				C156.4,94.7,156.7,94.7,157,94.7z"/>
			<path class="st4" d="M166.1,100.4V83.4h1.3c0.3,0,0.5,0.2,0.6,0.5l0.2,1.5c0.5-0.7,1.2-1.2,1.9-1.6c0.7-0.4,1.5-0.6,2.4-0.6
				c0.7,0,1.4,0.1,2,0.4s1.1,0.7,1.5,1.2c0.4,0.5,0.7,1.2,1,2c0.2,0.8,0.3,1.7,0.3,2.8c0,0.9-0.1,1.8-0.4,2.6
				c-0.2,0.8-0.6,1.5-1.1,2.1c-0.5,0.6-1,1-1.7,1.4c-0.7,0.3-1.4,0.5-2.3,0.5c-0.8,0-1.4-0.1-2-0.4c-0.6-0.3-1-0.6-1.5-1.1v5.6
				H166.1z M171.8,85c-0.7,0-1.4,0.2-1.9,0.5c-0.5,0.3-1,0.8-1.5,1.4V93c0.4,0.5,0.8,0.9,1.3,1.2c0.5,0.2,1,0.3,1.6,0.3
				c1.2,0,2.1-0.4,2.7-1.3s1-2,1-3.6c0-0.8-0.1-1.5-0.2-2.1c-0.1-0.6-0.4-1.1-0.6-1.5c-0.3-0.4-0.6-0.7-1-0.8S172.3,85,171.8,85z"/>
		</g>
		<path class="st21" d="M413.5,542.3h130.4c2.1,0,4,1.3,4.9,3.2l13.8,31.9l-153.9-31.9C409.4,543.6,411.3,542.3,413.5,542.3z"/>
		<path class="st4" d="M765,261L765,261z"/>
		<path class="st4" d="M808,259L808,259c1.4,0,2.5,1.1,2.5,2.5l0,0c0,1.4-1.1,2.5-2.5,2.5l0,0c-1.4,0-2.5-1.1-2.5-2.5l0,0
			C805.5,260.1,806.6,259,808,259z"/>
		<path class="st4" d="M808,268L808,268c1.4,0,2.5,1.1,2.5,2.5v10c0,1.4-1.1,2.5-2.5,2.5l0,0c-1.4,0-2.5-1.1-2.5-2.5v-10
			C805.5,269.1,806.6,268,808,268z"/>
		<path class="st4" d="M814.5,261.4L814.5,261.4c0-1.4,1.1-2.5,2.5-2.5h10c1.4,0,2.5,1.1,2.5,2.5l0,0c0,1.4-1.1,2.5-2.5,2.5h-10
			C815.6,263.9,814.5,262.8,814.5,261.4z"/>
		<path class="st4" d="M808,255L808,255c-1.4,0-2.5-1.1-2.5-2.5v-10c0-1.4,1.1-2.5,2.5-2.5l0,0c1.4,0,2.5,1.1,2.5,2.5v10
			C810.5,253.9,809.4,255,808,255z"/>
		<path class="st4" d="M801.5,261.4L801.5,261.4c0,1.4-1.1,2.5-2.5,2.5h-10c-1.4,0-2.5-1.1-2.5-2.5l0,0c0-1.4,1.1-2.5,2.5-2.5h10
			C800.4,258.9,801.5,260,801.5,261.4z"/>
		<path class="st4" d="M478.8,231.1L478.8,231.1c1.4,0,2.5,1.1,2.5,2.5v0c0,1.4-1.1,2.5-2.5,2.5l0,0c-1.4,0-2.5-1.1-2.5-2.5v0
			C476.3,232.2,477.5,231.1,478.8,231.1z"/>
		<path class="st4" d="M478.8,240.1L478.8,240.1c1.4,0,2.5,1.1,2.5,2.5v10c0,1.4-1.1,2.5-2.5,2.5l0,0c-1.4,0-2.5-1.1-2.5-2.5v-10
			C476.3,241.2,477.5,240.1,478.8,240.1z"/>
		<path class="st4" d="M485.3,233.5L485.3,233.5c0-1.4,1.1-2.5,2.5-2.5h10c1.4,0,2.5,1.1,2.5,2.5l0,0c0,1.4-1.1,2.5-2.5,2.5h-10
			C486.4,236,485.3,234.9,485.3,233.5z"/>
		<path class="st4" d="M478.8,227L478.8,227c-1.4,0-2.5-1.1-2.5-2.5v-10c0-1.4,1.1-2.5,2.5-2.5l0,0c1.4,0,2.5,1.1,2.5,2.5v10
			C481.3,225.9,480.2,227,478.8,227z"/>
		<path class="st4" d="M472.4,233.5L472.4,233.5c0,1.4-1.1,2.5-2.5,2.5h-10c-1.4,0-2.5-1.1-2.5-2.5l0,0c0-1.4,1.1-2.5,2.5-2.5h10
			C471.3,231,472.4,232.1,472.4,233.5z"/>
		<path class="st4" d="M841.6,216.3L841.6,216.3c0.9,0,1.6,0.7,1.6,1.6v0c0,0.9-0.7,1.6-1.6,1.6h0c-0.9,0-1.6-0.7-1.6-1.6v0
			C840,217,840.7,216.3,841.6,216.3z"/>
		<path class="st4" d="M841.6,222.2L841.6,222.2c0.9,0,1.6,0.7,1.6,1.6v6.5c0,0.9-0.7,1.6-1.6,1.6h0c-0.9,0-1.6-0.7-1.6-1.6v-6.5
			C840,222.9,840.7,222.2,841.6,222.2z"/>
		<path class="st4" d="M845.8,217.9L845.8,217.9c0-0.9,0.7-1.6,1.6-1.6h6.5c0.9,0,1.6,0.7,1.6,1.6v0c0,0.9-0.7,1.6-1.6,1.6h-6.5
			C846.6,219.5,845.8,218.8,845.8,217.9z"/>
		<path class="st4" d="M841.6,213.7L841.6,213.7c-0.9,0-1.6-0.7-1.6-1.6v-6.5c0-0.9,0.7-1.6,1.6-1.6h0c0.9,0,1.6,0.7,1.6,1.6v6.5
			C843.2,212.9,842.5,213.7,841.6,213.7z"/>
		<path class="st4" d="M837.4,217.9L837.4,217.9c0,0.9-0.7,1.6-1.6,1.6h-6.5c-0.9,0-1.6-0.7-1.6-1.6v0c0-0.9,0.7-1.6,1.6-1.6h6.5
			C836.6,216.2,837.4,217,837.4,217.9z"/>
		<path class="st4" d="M488.4,486.4L488.4,486.4c0.8,0,1.4,0.6,1.4,1.4v0c0,0.8-0.6,1.4-1.4,1.4h0c-0.8,0-1.4-0.6-1.4-1.4v0
			C487,487,487.6,486.4,488.4,486.4z"/>
		<path class="st4" d="M488.4,491.5L488.4,491.5c0.8,0,1.4,0.6,1.4,1.4v5.7c0,0.8-0.6,1.4-1.4,1.4h0c-0.8,0-1.4-0.6-1.4-1.4v-5.7
			C487,492.1,487.6,491.5,488.4,491.5z"/>
		<path class="st4" d="M492.1,487.8L492.1,487.8c0-0.8,0.6-1.4,1.4-1.4h5.7c0.8,0,1.4,0.6,1.4,1.4v0c0,0.8-0.6,1.4-1.4,1.4h-5.7
			C492.7,489.2,492.1,488.5,492.1,487.8z"/>
		<path class="st4" d="M488.4,484.1L488.4,484.1c-0.8,0-1.4-0.6-1.4-1.4V477c0-0.8,0.6-1.4,1.4-1.4h0c0.8,0,1.4,0.6,1.4,1.4v5.7
			C489.8,483.5,489.2,484.1,488.4,484.1z"/>
		<path class="st4" d="M484.7,487.8L484.7,487.8c0,0.8-0.6,1.4-1.4,1.4h-5.7c-0.8,0-1.4-0.6-1.4-1.4v0c0-0.8,0.6-1.4,1.4-1.4h5.7
			C484.1,486.3,484.7,487,484.7,487.8z"/>
		<path class="st22" d="M388.8,525.2c-3.2,1.7-7,1.7-10.2,0"/>
		<path class="st22" d="M576.8,525.2c-3.2,1.7-7,1.7-10.2,0"/>
		<path class="st17" d="M567.5,311.5c0,0-9,1-8,11"/>
		<path class="st23" d="M762.3,582.1h120.3c20.3,0,36.7,16.4,36.7,36.7l0,0c0,20.3-16.4,36.7-36.7,36.7H762.3
			c-20.3,0-36.7-16.4-36.7-36.7l0,0C725.6,598.6,742,582.1,762.3,582.1z"/>
		<g class="st20">
			<path class="st5" d="M754.2,620.7v6.7h-2.4v-17.9h5.3c1.1,0,2.1,0.1,3,0.4c0.8,0.3,1.5,0.6,2.1,1.1c0.5,0.5,1,1.1,1.2,1.8
				c0.3,0.7,0.4,1.4,0.4,2.3c0,0.8-0.1,1.6-0.4,2.3c-0.3,0.7-0.7,1.3-1.3,1.8s-1.3,0.9-2.1,1.2c-0.8,0.3-1.8,0.4-2.9,0.4H754.2z
				 M754.2,618.8h2.9c0.7,0,1.3-0.1,1.8-0.3c0.5-0.2,1-0.4,1.3-0.8c0.4-0.3,0.6-0.7,0.8-1.2c0.2-0.5,0.3-1,0.3-1.5
				c0-1.1-0.4-2-1.1-2.7c-0.7-0.6-1.8-1-3.2-1h-2.9V618.8z"/>
		</g>
		<g class="st20">
			<path class="st5" d="M770.8,614.5c0.8,0,1.5,0.1,2.1,0.4c0.6,0.3,1.2,0.6,1.7,1.1c0.5,0.5,0.8,1.1,1.1,1.8s0.4,1.5,0.4,2.4
				c0,0.4,0,0.6-0.1,0.7c-0.1,0.1-0.2,0.2-0.4,0.2h-8.5c0,0.8,0.1,1.5,0.3,2.1s0.5,1.1,0.8,1.5c0.3,0.4,0.8,0.7,1.2,0.9
				c0.5,0.2,1,0.3,1.6,0.3c0.6,0,1-0.1,1.4-0.2s0.8-0.3,1-0.4c0.3-0.2,0.5-0.3,0.7-0.4c0.2-0.1,0.4-0.2,0.5-0.2
				c0.2,0,0.3,0.1,0.4,0.2l0.6,0.8c-0.3,0.3-0.6,0.6-1,0.9c-0.4,0.2-0.8,0.4-1.2,0.6s-0.9,0.3-1.4,0.4s-0.9,0.1-1.4,0.1
				c-0.9,0-1.7-0.1-2.4-0.4s-1.4-0.7-1.9-1.3c-0.5-0.6-1-1.3-1.3-2.1s-0.5-1.8-0.5-2.9c0-0.9,0.1-1.7,0.4-2.5s0.7-1.4,1.2-2
				c0.5-0.6,1.1-1,1.9-1.3C769.1,614.7,769.9,614.5,770.8,614.5z M770.9,616.2c-1.1,0-1.9,0.3-2.5,0.9c-0.6,0.6-1,1.5-1.1,2.6h6.9
				c0-0.5-0.1-1-0.2-1.4c-0.1-0.4-0.4-0.8-0.6-1.1s-0.6-0.6-1-0.7S771.4,616.2,770.9,616.2z"/>
			<path class="st5" d="M787,614.7v1.7h-6v11h-2.2v-12.7H787z"/>
			<path class="st5" d="M789.2,627.4v-12.7h2.2v8.6c0,0.2,0,0.3,0,0.5c0,0.2,0,0.4-0.1,0.6c0.1-0.2,0.1-0.3,0.2-0.4
				c0.1-0.1,0.2-0.3,0.2-0.4c0,0,0.1-0.1,0.3-0.4c0.2-0.2,0.4-0.6,0.7-1s0.6-0.8,1-1.3c0.4-0.5,0.7-1,1.1-1.5c0.9-1.2,1.9-2.6,3-4.1
				c0.1-0.1,0.2-0.3,0.3-0.4c0.1-0.1,0.3-0.2,0.5-0.2h1.3v12.7h-2.2v-8.6c0-0.2,0-0.3,0-0.5s0-0.4,0.1-0.6c-0.1,0.2-0.2,0.3-0.2,0.5
				c-0.1,0.1-0.2,0.3-0.2,0.4c0,0-0.1,0.1-0.3,0.4c-0.2,0.2-0.4,0.6-0.7,1c-0.3,0.4-0.6,0.8-1,1.3c-0.4,0.5-0.7,1-1.1,1.5
				c-0.9,1.2-1.9,2.6-3,4.1c-0.1,0.1-0.2,0.3-0.3,0.4c-0.1,0.1-0.3,0.2-0.5,0.2H789.2z"/>
			<path class="st5" d="M812.4,617c-0.1,0.1-0.1,0.2-0.2,0.2c-0.1,0-0.2,0.1-0.3,0.1c-0.1,0-0.3-0.1-0.4-0.2
				c-0.2-0.1-0.3-0.2-0.6-0.3s-0.5-0.2-0.8-0.3c-0.3-0.1-0.7-0.2-1.2-0.2c-0.6,0-1.2,0.1-1.7,0.3s-0.9,0.5-1.2,1
				c-0.3,0.4-0.6,0.9-0.7,1.5c-0.2,0.6-0.2,1.3-0.2,2c0,0.8,0.1,1.4,0.3,2c0.2,0.6,0.4,1.1,0.7,1.5c0.3,0.4,0.7,0.7,1.2,0.9
				c0.5,0.2,1,0.3,1.5,0.3c0.5,0,1-0.1,1.3-0.2c0.3-0.1,0.6-0.3,0.9-0.4c0.2-0.2,0.4-0.3,0.6-0.4c0.2-0.1,0.3-0.2,0.5-0.2
				c0.2,0,0.3,0.1,0.4,0.2l0.6,0.8c-0.3,0.3-0.6,0.6-0.9,0.9c-0.4,0.2-0.7,0.4-1.1,0.6c-0.4,0.2-0.8,0.3-1.3,0.4s-0.9,0.1-1.3,0.1
				c-0.8,0-1.5-0.1-2.2-0.4c-0.7-0.3-1.3-0.7-1.8-1.3c-0.5-0.6-0.9-1.2-1.2-2c-0.3-0.8-0.4-1.7-0.4-2.8c0-0.9,0.1-1.8,0.4-2.6
				s0.6-1.5,1.2-2.1c0.5-0.6,1.1-1,1.9-1.4s1.6-0.5,2.5-0.5c0.9,0,1.7,0.1,2.4,0.4c0.7,0.3,1.3,0.7,1.8,1.2L812.4,617z"/>
			<path class="st5" d="M814.1,614.7h12v1.7h-4.9v11h-2.2v-11h-4.9V614.7z"/>
			<path class="st5" d="M828.1,631.7v-16.9h1.3c0.3,0,0.5,0.2,0.6,0.5l0.2,1.5c0.5-0.7,1.2-1.2,1.9-1.6c0.7-0.4,1.5-0.6,2.4-0.6
				c0.7,0,1.4,0.1,2,0.4s1.1,0.7,1.5,1.2s0.7,1.2,1,2c0.2,0.8,0.3,1.7,0.3,2.8c0,0.9-0.1,1.8-0.4,2.6c-0.2,0.8-0.6,1.5-1.1,2.1
				s-1,1-1.7,1.4c-0.7,0.3-1.4,0.5-2.3,0.5c-0.8,0-1.4-0.1-2-0.4c-0.6-0.3-1-0.6-1.5-1.1v5.6H828.1z M833.8,616.3
				c-0.7,0-1.4,0.2-1.9,0.5c-0.5,0.3-1,0.8-1.5,1.4v6.1c0.4,0.5,0.8,0.9,1.3,1.2c0.5,0.2,1,0.3,1.6,0.3c1.2,0,2.1-0.4,2.7-1.3
				c0.6-0.8,1-2,1-3.6c0-0.8-0.1-1.5-0.2-2.1s-0.4-1.1-0.6-1.5c-0.3-0.4-0.6-0.7-1-0.8C834.7,616.4,834.3,616.3,833.8,616.3z"/>
			<path class="st5" d="M850.2,627.4c-0.2,0-0.4,0-0.5-0.1c-0.1-0.1-0.2-0.2-0.3-0.4l-0.2-1.2c-0.3,0.3-0.7,0.6-1,0.8
				c-0.3,0.2-0.7,0.4-1,0.6c-0.3,0.2-0.7,0.3-1.1,0.4c-0.4,0.1-0.8,0.1-1.3,0.1c-0.5,0-1-0.1-1.4-0.2c-0.4-0.1-0.8-0.3-1.1-0.6
				c-0.3-0.3-0.6-0.6-0.8-1s-0.3-0.9-0.3-1.5c0-0.5,0.1-1,0.4-1.4c0.3-0.5,0.7-0.9,1.3-1.2c0.6-0.4,1.4-0.7,2.4-0.9
				c1-0.2,2.2-0.4,3.6-0.4v-1c0-1-0.2-1.7-0.6-2.2c-0.4-0.5-1-0.8-1.9-0.8c-0.5,0-1,0.1-1.4,0.2c-0.4,0.1-0.7,0.3-1,0.5
				s-0.5,0.3-0.7,0.5c-0.2,0.1-0.4,0.2-0.6,0.2c-0.1,0-0.3,0-0.4-0.1c-0.1-0.1-0.2-0.2-0.3-0.3l-0.4-0.7c0.7-0.7,1.5-1.2,2.3-1.5
				c0.8-0.3,1.7-0.5,2.7-0.5c0.7,0,1.3,0.1,1.9,0.4s1,0.6,1.4,1s0.7,0.9,0.8,1.5s0.3,1.2,0.3,2v8.1H850.2z M845.4,626
				c0.4,0,0.8,0,1.1-0.1c0.3-0.1,0.6-0.2,0.9-0.3c0.3-0.1,0.6-0.3,0.8-0.5c0.3-0.2,0.5-0.5,0.8-0.7v-2.6c-1,0-1.9,0.1-2.6,0.2
				c-0.7,0.1-1.3,0.3-1.8,0.5c-0.5,0.2-0.8,0.5-1,0.7c-0.2,0.3-0.3,0.6-0.3,1c0,0.3,0.1,0.6,0.2,0.9c0.1,0.2,0.3,0.4,0.4,0.6
				c0.2,0.2,0.4,0.3,0.7,0.3C844.8,626,845.1,626,845.4,626z"/>
			<path class="st5" d="M854.5,614.7h2.2v11h6.1v-11h2.2v11h2.3v5.4c0,0.2-0.1,0.4-0.2,0.5c-0.1,0.1-0.3,0.2-0.5,0.2h-1.4v-4.4
				h-10.8V614.7z"/>
			<path class="st5" d="M869.7,627.4v-12.7h2.2v8.6c0,0.2,0,0.3,0,0.5c0,0.2,0,0.4-0.1,0.6c0.1-0.2,0.1-0.3,0.2-0.4
				c0.1-0.1,0.2-0.3,0.2-0.4c0,0,0.1-0.1,0.3-0.4c0.2-0.2,0.4-0.6,0.7-1s0.6-0.8,1-1.3c0.4-0.5,0.7-1,1.1-1.5c0.9-1.2,1.9-2.6,3-4.1
				c0.1-0.1,0.2-0.3,0.3-0.4c0.1-0.1,0.3-0.2,0.5-0.2h1.3v12.7h-2.2v-8.6c0-0.2,0-0.3,0-0.5s0-0.4,0.1-0.6c-0.1,0.2-0.2,0.3-0.2,0.5
				c-0.1,0.1-0.2,0.3-0.2,0.4c0,0-0.1,0.1-0.3,0.4c-0.2,0.2-0.4,0.6-0.7,1c-0.3,0.4-0.6,0.8-1,1.3c-0.4,0.5-0.7,1-1.1,1.5
				c-0.9,1.2-1.9,2.6-3,4.1c-0.1,0.1-0.2,0.3-0.3,0.4c-0.1,0.1-0.3,0.2-0.5,0.2H869.7z"/>
			<path class="st5" d="M892.8,627.4h-2.1v-5.3h-1c-0.2,0-0.4,0-0.6,0.1s-0.3,0.1-0.4,0.2s-0.2,0.2-0.3,0.3
				c-0.1,0.1-0.2,0.2-0.3,0.4l-2.8,3.7c-0.1,0.3-0.3,0.5-0.5,0.6s-0.5,0.2-0.9,0.2h-1.6l3.7-4.8c0.3-0.5,0.7-0.8,1.2-1
				c-0.6-0.1-1.2-0.2-1.6-0.4c-0.4-0.2-0.8-0.5-1.1-0.8s-0.5-0.6-0.6-1s-0.2-0.7-0.2-1.1c0-0.4,0.1-0.9,0.3-1.3s0.4-0.8,0.8-1.2
				c0.4-0.3,0.9-0.6,1.5-0.8c0.6-0.2,1.3-0.3,2.2-0.3h4.3V627.4z M886.1,618.5c0,0.7,0.2,1.2,0.8,1.6s1.2,0.6,2,0.6h1.8v-4.4h-2.1
				c-0.5,0-0.9,0.1-1.2,0.2c-0.3,0.1-0.6,0.3-0.8,0.5c-0.2,0.2-0.3,0.5-0.4,0.7C886.1,618,886.1,618.2,886.1,618.5z"/>
		</g>
	</g>
</g>
</svg>
