<?xml version="1.0" encoding="utf-8"?>
<!-- Generator: Adobe Illustrator 24.0.0, SVG Export Plug-In . SVG Version: 6.00 Build 0)  -->
<svg version="1.1" id="Layer_1" xmlns="http://www.w3.org/2000/svg" xmlns:xlink="http://www.w3.org/1999/xlink" x="0px" y="0px"
	 viewBox="0 0 1800 987" style="enable-background:new 0 0 1800 987;" xml:space="preserve">
<style type="text/css">
	.st0{fill:none;stroke:#EAACAC;stroke-width:34.5929;stroke-miterlimit:10;}
	.st1{fill:#BFF7F7;}
	.st2{fill:#9FEDED;}
	.st3{fill:#D2F9F7;}
	.st4{fill:#FFCDCD;}
	.st5{fill:#CFFFFB;}
	.st6{fill:#DB9595;}
	.st7{fill:#99FFEB;}
	.st8{fill:#69CCC5;}
	.st9{fill:#B75C5C;}
	.st10{fill:none;stroke:#DB9595;stroke-width:43.4058;stroke-linecap:round;stroke-miterlimit:10;}
	.st11{fill:#994242;}
	.st12{fill:#D37979;}
	.st13{fill:#FFF69F;}
	.st14{fill:#F4E67F;}
	.st15{fill:#FFFFFF;}
	.st16{fill:none;stroke:#F4E67F;stroke-width:3.1352;stroke-miterlimit:10;}
	.st17{fill:#EAACAC;}
</style>
<title>lg</title>
<g>
	<path class="st0" d="M359.1,710.8c-169.7,0-307.2-136.1-307.2-304s137.5-304.1,307.2-304.1c81.5,0,159.7,32,217.3,89.1
		c4.8,4.7,9.4,9.6,13.8,14.5"/>
	<ellipse class="st1" cx="594.7" cy="533.3" rx="137.4" ry="232.1"/>
	<path class="st2" d="M594.7,301.2c-75.9,0-137.4,103.9-137.4,232.1s61.5,232.1,137.4,232.1V301.2z"/>
	<path class="st3" d="M594.7,301.2c-75.9,0-137.4,103.9-137.4,232.1s61.5,232.1,137.4,232.1s137.4-103.9,137.4-232.1
		S670.6,301.2,594.7,301.2z M594.7,706c-61.6,0-111.5-68.6-111.5-172.7s49.9-204.1,111.5-204.1s111.5,100.1,111.5,204.1
		S656.3,706,594.7,706z"/>
	<path class="st4" d="M665.2,332.3c0,18.6-31.6,30-70.6,30s-70.6-11.4-70.6-30s31.6-44.5,70.6-44.5S665.2,313.8,665.2,332.3z"/>
	<path class="st5" d="M644,322.5c0,0-13.2,9.3-50.5,9.3c-36.1,0-48.2-9.3-48.2-9.3v-72H644V322.5L644,322.5z"/>
	<path class="st6" d="M594.6,287.8c-39,0-70.6,25.9-70.6,44.5s31.6,30,70.6,30V287.8z"/>
	<path class="st7" d="M545.3,286.5v36c0,0,12.1,9.3,48.2,9.3h1.2v-81.3h-49.4V286.5z"/>
	<ellipse class="st7" cx="594.6" cy="250.6" rx="49.4" ry="6.6"/>
	<path class="st4" d="M614.1,248.8c0,0-6.4,4.7-19.5,4.7c-12.3,0-19.6-4.7-19.6-4.7v-60.6c0-5.3,3.7-20.7,5.7-25.2
		c2.7-6.1,8.4-16.1,13.8-16.1l0,0c5.4,0,10.6,9.4,13.8,16.1c2.1,4.5,5.7,19.9,5.7,25.2L614.1,248.8L614.1,248.8z"/>
	<path class="st4" d="M501.8,725.5c0,0,70.7,92.2,194,128c12.2,3.6,31.8,10.1,56.1,14.3c58.5,10,67.3-85.2,44.6-98.3
		c-13-7.7-26.6-14.2-40.7-19.5C710.2,732.8,636.7,707.7,501.8,725.5z"/>
	<path class="st8" d="M594.6,243.8c-27.3,0-49.4,3-49.4,6.6c0,3.7,22.1,6.6,49.4,6.6V243.8z"/>
	<path class="st6" d="M501.6,726.2c0,0,17.7,23.1,50.8,50.6s81.6,59.5,143.3,77.4c6.1,1.8,14,4.3,23.5,6.9c10.7,3,21.6,5.5,32.6,7.4
		c29.3,5,46.1-16.3,52.8-40.5L501.6,726.2z"/>
	<ellipse class="st9" cx="503.9" cy="730.7" rx="26.3" ry="26"/>
	<path class="st10" d="M292.8,703.7c-19.5-4.3-38.6-10.4-56.9-18.3"/>
	<path class="st6" d="M594.6,146.9c-5.4,0-11.1,10-13.8,16.1c-2,4.5-5.7,19.9-5.7,25.2v60.6c0,0,7.3,4.7,19.6,4.7L594.6,146.9
		L594.6,146.9z"/>
	<ellipse class="st3" cx="565.3" cy="583.3" rx="15.2" ry="15"/>
	<ellipse class="st3" cx="645.6" cy="509.8" rx="19.6" ry="19.4"/>
	<ellipse class="st3" cx="603.4" cy="443.9" rx="15" ry="14.8"/>
	<path class="st11" d="M530,733.6c-1.6,14.3-14.6,24.6-29.1,23s-24.8-14.5-23.2-28.8l28,3.1L530,733.6z"/>
	<path class="st12" d="M417.4,640.9c43.3,5.3,78.5,45.9,73,89.7c-5.5,43.9-46.1,75-93.1,69.3c-57.8-7.1-121.4-51.1-115.9-95
		C286.9,661,359.5,633.8,417.4,640.9z"/>
	<path class="st9" d="M490.6,729.5c-5.5,43.9-46.1,75-93,69.2c-57.8-7.1-121.4-51.1-115.9-95L490.6,729.5z"/>
</g>
<g>
	<path class="st13" d="M1432.1,315.5h244.1c25.5,0,46.2,20.5,46.2,45.8v362c0,25.3-20.7,45.8-46.2,45.8h-244.1
		c-25.5,0-46.2-20.5-46.2-45.8v-362C1385.9,336,1406.6,315.5,1432.1,315.5z"/>
	<path class="st14" d="M1554.2,769h-122c-25.5,0.1-46.3-20.4-46.3-45.6v-0.1v-362c0-25.3,20.7-45.8,46.3-45.8h0.1h122.1L1554.2,769z
		"/>
	<rect x="1460" y="473.1" class="st15" width="191.8" height="137.3"/>
	<rect x="1479.6" y="487.2" class="st16" width="152.6" height="109.2"/>
	<path class="st0" d="M1318.7,716.2c-169.7,0-307.2-136.1-307.2-304s137.5-304.1,307.2-304.1c81.5,0,159.7,32,217.3,89.1
		c4.8,4.7,9.4,9.6,13.8,14.5"/>
	<path class="st4" d="M1624.8,337.8c0,18.6-31.6,30-70.6,30s-70.6-11.4-70.6-30s31.6-44.5,70.6-44.5S1624.8,319.2,1624.8,337.8z"/>
	<path class="st5" d="M1603.6,327.9c0,0-13.2,9.3-50.5,9.3c-36.1,0-48.2-9.3-48.2-9.3v-72.1h98.7V327.9L1603.6,327.9z"/>
	<path class="st6" d="M1554.2,293.3c-39,0-70.6,25.9-70.6,44.5s31.6,30,70.6,30V293.3z"/>
	<path class="st7" d="M1504.8,291.9v36c0,0,12.1,9.3,48.2,9.3h1.2v-81.3h-49.4V291.9z"/>
	<ellipse class="st7" cx="1554.2" cy="256" rx="49.4" ry="6.6"/>
	<path class="st4" d="M1573.8,254.2c0,0-6.4,4.7-19.5,4.7c-12.3,0-19.6-4.7-19.6-4.7v-60.5c0-5.3,0.2-13.8,2.3-18.3
		c2.7-6.1,11.9-13.3,17.3-13.3l0,0c5.4,0,14.1,6.6,17.3,13.3c2.2,4.5,2.3,13,2.3,18.3L1573.8,254.2L1573.8,254.2z"/>
	<path class="st4" d="M1461.4,729.2c0,0,70.7,92.2,194,128c12.2,3.6,31.8,10.1,56.1,14.3c58.5,10,67.3-85.2,44.6-98.3
		c-12.9-7.7-26.5-14.2-40.6-19.6C1669.8,736.6,1596.2,711.5,1461.4,729.2z"/>
	<path class="st8" d="M1554.2,249.3c-27.3,0-49.4,3-49.4,6.6c0,3.7,22.1,6.6,49.4,6.6V249.3z"/>
	<path class="st6" d="M1461.2,729.8c0,0,17.7,23.1,50.7,50.6c33.1,27.5,81.6,59.5,143.3,77.4c6.1,1.8,14,4.3,23.5,6.9
		c10.7,3,21.6,5.4,32.6,7.4c29.3,5,46.1-16.3,52.8-40.5L1461.2,729.8z"/>
	<ellipse class="st9" cx="1463.5" cy="736.1" rx="26.3" ry="26"/>
	<path class="st10" d="M1252.4,709.1c-19.5-4.3-38.6-10.4-56.9-18.3"/>
	<path class="st6" d="M1554.2,162c-5.4,0-14.6,7.2-17.3,13.3c-2,4.5-2.3,13-2.3,18.3v60.5c0,0,7.3,4.7,19.6,4.7V162z"/>
	<path class="st11" d="M1489.6,739c-1.3,14.3-14.1,24.8-28.6,23.5s-25.1-14-23.8-28.3c0-0.3,0.1-0.7,0.1-1l28,3.1L1489.6,739z"/>
	<path class="st12" d="M1377,646.4c43.3,5.3,78.5,45.9,73,89.7c-5.5,43.9-46.1,75-93.1,69.2c-57.8-7.1-121.4-51.1-115.9-95
		C1246.5,666.4,1319.1,639.3,1377,646.4z"/>
	<path class="st9" d="M1450.2,734.9c-5.5,43.9-46.1,75-93,69.2c-57.8-7.1-121.4-51.1-115.9-95L1450.2,734.9z"/>
	<path class="st17" d="M1600.4,518.7c0,24.3-43.3,67.5-43.3,67.5s-45.5-43.2-45.5-67.5c0-11.4,4.5-19.3,15.2-20.4
		c21.7-2.1,30.3,21.4,30.3,21.4s10.2-21.4,26-21.4C1596,498.4,1600.4,506.6,1600.4,518.7z"/>
</g>
</svg>
