<?xml version="1.0" encoding="utf-8"?>
<!-- Generator: Adobe Illustrator 24.0.0, SVG Export Plug-In . SVG Version: 6.00 Build 0)  -->
<svg version="1.1" id="Layer_1" xmlns="http://www.w3.org/2000/svg" xmlns:xlink="http://www.w3.org/1999/xlink" x="0px" y="0px"
	 viewBox="0 0 1800 987" style="enable-background:new 0 0 1800 987;" xml:space="preserve">
<style type="text/css">
	.st0{clip-path:url(#SVGID_2_);}
	.st1{fill:none;stroke:#8452AF;stroke-width:21;stroke-linecap:round;stroke-miterlimit:10;}
	.st2{fill:#ADF2EE;}
	.st3{fill:#CC6C15;}
	.st4{fill:#E08532;}
	.st5{fill:#D7FFFD;}
	.st6{fill:#3A6D52;}
	.st7{fill:#3D8762;}
	.st8{fill:#8452AF;}
	.st9{fill:#D38E44;}
	.st10{font-family:'DINCondensed-Bold';}
	.st11{font-size:130px;}
	.st12{letter-spacing:-2;}
	.st13{fill:none;stroke:#CC6C15;stroke-width:10;stroke-miterlimit:10;}
	.st14{clip-path:url(#SVGID_4_);}
</style>
<title>lg</title>
<g>
	<g>
		<g>
			<defs>
				<circle id="SVGID_1_" cx="421" cy="493.6" r="380.5"/>
			</defs>
			<clipPath id="SVGID_2_">
				<use xlink:href="#SVGID_1_"  style="overflow:visible;"/>
			</clipPath>
			<g class="st0">
				<path class="st1" d="M461.8,317.8c0-27.8-22.5-50.3-50.3-50.3s-50.3,22.5-50.3,50.3c0,27.8,22.5,50.3,50.3,50.3l0,0v50.1
					c0,0-217.3,88.5-218.3,157.8s216.8-9.8,216.8-9.8"/>
				<rect x="292.6" y="457.5" class="st2" width="129.3" height="390.1"/>
				<path class="st3" d="M137.3,896.3c0,0-3.9-196.8,0-281.3c2.4-52,17.1-97,32.7-104.5c28.4-13.6,121.2,83.7,121.2,83.7L335,896.3
					H137.3z"/>
				<polygon class="st4" points="422.6,896.3 335.1,896.3 209.5,896.3 210.4,703.1 170.1,510.5 335.1,441.8 358.7,441.8 
					422.6,789.2 				"/>
				<polygon class="st3" points="292.6,457.5 422.6,789.2 363.3,466.8 				"/>
				<path class="st5" d="M374.8,519.9l-80.1-59c-6.4-4.7-8.6-13.2-5.4-20.4l16-35.6L422,457.5l-25.5,56.7
					c-3.3,7.3-11.8,10.5-19.1,7.2C376.4,521,375.6,520.5,374.8,519.9z"/>
				<path class="st6" d="M331.6,631.4c-3,19.8-18.2,28.8-30.2,27s-24-14-21-33.8c4.3-28.6,32.1-40,32.1-40S335.8,603.3,331.6,631.4z
					"/>
				<path class="st7" d="M301.4,658.4c-12-1.8-24-14-21-33.8c4.3-28.6,32.1-40,32.1-40L301.4,658.4z"/>
				<path class="st6" d="M287.1,619.9c8.1,16.5,1.3,31.4-8.7,36.3s-25.5,1.9-33.7-14.6c-11.7-24,3.4-47.2,3.4-47.2
					S275.6,596.4,287.1,619.9z"/>
				<path class="st7" d="M278.5,656.3c-10,4.9-25.5,1.9-33.7-14.6c-11.7-24,3.4-47.2,3.4-47.2L278.5,656.3z"/>
				<polygon class="st3" points="339.8,737.1 286.5,756.4 233.3,737.1 233.3,672.8 233.3,646.2 286.5,646.2 339.8,646.2 
					339.8,672.8 				"/>
				<path class="st8" d="M233.3,663.1v-15.4c0-8,6.5-14.4,14.4-14.4h77.7c8,0,14.4,6.5,14.4,14.4v36.4L233.3,663.1z"/>
				<circle class="st8" cx="382.9" cy="502" r="8.5"/>
				<circle class="st8" cx="412.5" cy="319.3" r="8.5"/>
				<circle class="st9" cx="286.5" cy="652.6" r="8.5"/>
				<line class="st1" x1="331.9" y1="222.7" x2="382.9" y2="275.4"/>
				<line class="st1" x1="495.4" y1="222.7" x2="443.3" y2="276.4"/>
				<text transform="matrix(1 0 0 1 432.9446 550.525)" class="st3 st10 st11 st12">W</text>
				<text transform="matrix(1 0 0 1 506.1346 550.525)" class="st3 st10 st11">ASH</text>
				<text transform="matrix(1 0 0 1 432.9446 706.525)" class="st3 st10 st11">TIP</text>
			</g>
		</g>
	</g>
	<circle class="st13" cx="421" cy="493.6" r="380.5"/>
</g>
<g>
	<g>
		<defs>
			<circle id="SVGID_3_" cx="1383.1" cy="493.6" r="380.5"/>
		</defs>
		<clipPath id="SVGID_4_">
			<use xlink:href="#SVGID_3_"  style="overflow:visible;"/>
		</clipPath>
		<g class="st14">
			<path class="st1" d="M1423.9,317.8c0-27.8-22.5-50.3-50.2-50.3c-27.8,0-50.3,22.5-50.3,50.2c0,27.8,22.5,50.3,50.2,50.3h0.1v50.1
				c0,0-217.3,88.5-218.3,157.8s216.8-9.8,216.8-9.8"/>
			<rect x="1254.7" y="457.5" class="st2" width="129.3" height="390.1"/>
			<path class="st3" d="M1099.4,896.3c0,0-3.9-196.9,0-281.4c2.4-52,17.1-96.9,32.7-104.5c28.4-13.6,121.2,83.7,121.2,83.7
				l43.8,302.1L1099.4,896.3z"/>
			<polygon class="st4" points="1384.7,896.3 1297.2,896.3 1171.6,896.3 1172.5,703 1132.2,510.4 1297.2,441.8 1320.8,441.8 
				1384.7,789.2 			"/>
			<polygon class="st3" points="1254.7,457.5 1384.7,789.2 1325.4,466.8 			"/>
			<path class="st5" d="M1336.9,519.9l-80.1-59c-6.4-4.7-8.6-13.2-5.4-20.4l16-35.6l116.7,52.6l-25.5,56.7
				c-3.3,7.3-11.8,10.5-19.1,7.2C1338.6,521,1337.7,520.5,1336.9,519.9z"/>
			<path class="st6" d="M1293.7,631.4c-3,19.8-18.2,28.8-30.2,27s-24-14-21-33.8c4.3-28.6,32.1-40,32.1-40
				S1297.9,603.3,1293.7,631.4z"/>
			<path class="st7" d="M1263.5,658.4c-12-1.8-24-14-21-33.8c4.3-28.6,32.1-40,32.1-40L1263.5,658.4z"/>
			<path class="st6" d="M1249.2,619.9c8.1,16.5,1.3,31.4-8.7,36.3s-25.5,1.9-33.7-14.6c-11.7-24,3.4-47.2,3.4-47.2
				S1237.7,596.3,1249.2,619.9z"/>
			<path class="st7" d="M1240.6,656.3c-10,4.9-25.5,1.9-33.7-14.6c-11.7-24,3.4-47.2,3.4-47.2L1240.6,656.3z"/>
			<polygon class="st3" points="1301.9,737.1 1248.6,756.3 1195.4,737.1 1195.4,672.8 1195.4,646.1 1248.6,646.1 1301.9,646.1 
				1301.9,672.8 			"/>
			<path class="st8" d="M1195.4,663.1v-15.4c0-8,6.4-14.4,14.4-14.4l0,0h77.7c8,0,14.4,6.5,14.4,14.4l0,0v36.4L1195.4,663.1z"/>
			<circle class="st8" cx="1345" cy="502" r="8.5"/>
			<circle class="st8" cx="1374.6" cy="319.3" r="8.5"/>
			<circle class="st9" cx="1248.6" cy="652.6" r="8.5"/>
			<line class="st1" x1="1294" y1="222.7" x2="1345" y2="275.4"/>
			<line class="st1" x1="1457.5" y1="222.7" x2="1405.4" y2="276.4"/>
			<text transform="matrix(1 0 0 1 1394.9915 550.515)" class="st3 st10 st11 st12">W</text>
			<text transform="matrix(1 0 0 1 1468.1815 550.515)" class="st3 st10 st11">ASH</text>
			<text transform="matrix(1 0 0 1 1394.9915 706.515)" class="st3 st10 st11">TIP</text>
		</g>
	</g>
</g>
</svg>
