<svg id="Layer_1" data-name="Layer 1" xmlns="http://www.w3.org/2000/svg" xmlns:xlink="http://www.w3.org/1999/xlink" viewBox="0 0 600 600"><defs><style>.cls-1,.cls-9{fill:none;}.cls-2{fill:#fff;}.cls-3{fill:#b3dbff;}.cls-4{clip-path:url(#clip-path);}.cls-5{fill:#ffdef0;}.cls-6{fill:#efbfce;}.cls-7{fill:#f291a6;}.cls-8{fill:#a67c52;}.cls-9{stroke:#efefef;stroke-linecap:round;stroke-miterlimit:10;stroke-width:5.4px;}.cls-10{fill:#f489a5;}</style><clipPath id="clip-path"><path class="cls-1" d="M334.92,432.81H265.08a89.72,89.72,0,0,1-89.72-89.71v-140c0-18.3,18.84-44.55,33.15-33.14,9.86,7.86,11.22,49.18,11.22,49.18h160.2s1.66-41.34,11.56-49.18c14.35-11.36,33.15,14.84,33.15,33.14v140A89.72,89.72,0,0,1,334.92,432.81Z"/></clipPath></defs><title>logo</title><circle class="cls-2" cx="300" cy="300" r="235"/><circle class="cls-3" cx="300" cy="300" r="203.49"/><g class="cls-4"><path class="cls-2" d="M334.92,432.81H265.08a89.72,89.72,0,0,1-89.72-89.71v-140c0-18.3,18.84-44.55,33.15-33.14,9.86,7.86,11.22,49.18,11.22,49.18h160.2s1.66-41.34,11.56-49.18c14.35-11.36,33.15,14.84,33.15,33.14v140A89.72,89.72,0,0,1,334.92,432.81Z"/><path class="cls-5" d="M325.56,443.59c-7.18-.14-26.41-11.33-26.41-11.33S278.62,443.44,271,443.59c-27.85.54-39.72-14.63-39.72-32.83h0c0-18.19,23-61,50.87-61h27.14c31.24,0,57.65,39.46,57.65,57.65h0C367,425.56,355.11,444.13,325.56,443.59Z"/><path class="cls-6" d="M396.64,189.4c-.28,0-.55,0-.83.07v29.68h17.84c0-.61.06-1.21.06-1.82C413.71,201.91,406.07,189.4,396.64,189.4Z"/><path class="cls-6" d="M203.36,189.4c.28,0,.55,0,.83.07v29.68H186.35c0-.61-.06-1.21-.06-1.82C186.29,201.91,193.93,189.4,203.36,189.4Z"/><circle cx="243.4" cy="323.24" r="12.91"/><circle class="cls-2" cx="237.45" cy="316.71" r="2.33"/><circle class="cls-2" cx="238.44" cy="321.08" r="1.06"/><circle cx="351.93" cy="324.94" r="12.91"/><circle class="cls-2" cx="345.98" cy="318.4" r="2.33"/><circle class="cls-2" cx="346.97" cy="322.78" r="1.06"/><path class="cls-7" d="M319.5,359c0,4.74-8.88,14.31-19.84,14.31s-19.84-9.57-19.84-14.31,8.88-8.59,19.84-8.59S319.5,354.21,319.5,359Z"/><ellipse class="cls-8" cx="170.28" cy="283.58" rx="30.52" ry="25.44"/><path class="cls-8" d="M373.76,214.06c0,14.05-10.27,35.61-27.13,35.61s-33.91-21.56-33.91-35.61,13.66-25.44,30.52-25.44S373.76,200,373.76,214.06Z"/><path class="cls-9" d="M247.43,286.13s38.62-8.52,51.72-8.48c12.69,0,50,8.48,50,8.48"/><path class="cls-10" d="M300,430.26c6.56,0,11.87-8,11.87-17.8H288.13C288.13,422.29,293.44,430.26,300,430.26Z"/><path class="cls-1" d="M334.92,432.81H265.08a89.72,89.72,0,0,1-89.72-89.71v-140c0-18.3,18.84-44.55,33.15-33.14,9.86,7.86,11.22,49.18,11.22,49.18s26.85-15.26,81.12-15.26c61,0,79.08,15.26,79.08,15.26s1.66-41.34,11.56-49.18c14.35-11.36,33.15,14.84,33.15,33.14v140A89.72,89.72,0,0,1,334.92,432.81Z"/></g></svg>