<svg id="Layer_1" data-name="Layer 1" xmlns="http://www.w3.org/2000/svg" xmlns:xlink="http://www.w3.org/1999/xlink" viewBox="0 0 600 600"><defs><style>.cls-1{fill:none;}.cls-2{clip-path:url(#clip-path);}.cls-3{fill:#fff;}.cls-4{clip-path:url(#clip-path-2);}.cls-5{fill:#feffc0;}.cls-6{fill:#930f32;}.cls-7{fill:#85c6ab;}.cls-8{fill:#567c69;}.cls-9{fill:#efdf4b;}.cls-10{fill:#add9c6;}.cls-11{clip-path:url(#clip-path-3);}</style><clipPath id="clip-path"><circle class="cls-1" cx="163.5" cy="-515.5" r="112.5"/></clipPath><clipPath id="clip-path-2"><circle class="cls-1" cx="300" cy="300" r="157.33"/></clipPath><clipPath id="clip-path-3"><circle class="cls-1" cx="300" cy="300" r="203.45"/></clipPath></defs><title>logo</title><g class="cls-2"><rect class="cls-1" x="-100.04" y="-665.35" width="377.69" height="817.83"/></g><circle class="cls-3" cx="300" cy="300" r="182.5"/><g class="cls-4"><circle class="cls-5" cx="300" cy="300" r="157.33"/><path class="cls-6" d="M158.49,276.68s13,5.44,24.59,5.55a34.43,34.43,0,0,0,17.81-4.52c3.94-2.35,6.12-4.92,5.53-8.64a6.81,6.81,0,0,0-7.8-5.65c-7.56,1.2-8.9,7.8-16.87,10.47C170.73,277.59,158.49,276.68,158.49,276.68Z"/><ellipse class="cls-6" cx="282.01" cy="306.22" rx="22.01" ry="11.29"/><path class="cls-6" d="M237.52,339.73s-14-.54-24.63-5.36a34.35,34.35,0,0,1-14.24-11.61c-2.58-3.8-3.47-7.05-1.36-10.16a6.8,6.8,0,0,1,9.45-1.84c6.35,4.28,4.78,10.83,10.87,16.61C226,335.38,237.52,339.73,237.52,339.73Z"/><path class="cls-7" d="M352.4,425s-14.93,2.46-20.34-.19c-15.77-7.73-26.56-63.67-26.56-63.67s-10,2.22-3.37,25l-17.6-13.07s-6,6.83,10.88,21.33L276.5,395s-3.15,8.23,21.5,10.53c0,0,3.77,28.46,14,42,16.86,22.37,55,20.25,55,20.25Z"/><path class="cls-8" d="M352.4,425s.47.85-5.5.82c-2.26,7.9-7.12,27.16-4.63,39.38a98.34,98.34,0,0,0,23.65,2.55l.81-.89Z"/><path class="cls-7" d="M460.88,467.6s-30.47-5.64-30.47-45.14V344.59s4.52-91.41-103.82-117.37c0,0-59.82-11.28-79,6.77-5.81,5.47-11.29,24.83-11.29,24.83H197.93s-4.51,0-4.51,6.77v22.57h91.41s-3.39,18.06-20.32,18.06H190v10.16s-1.13,6.77,6.77,6.77H305.14s11.29,1.13,11.29-5.64c0,0,30.47,5.64,30.47,45.14v77.87s-4.51,91.41,103.83,117.37c0,0,59.81,11.28,79-6.77C535.54,545.65,460.88,460.83,460.88,467.6Z"/><circle class="cls-6" cx="264.51" cy="246.41" r="12.41"/><circle class="cls-9" cx="264.51" cy="246.41" r="9.93"/><circle cx="264.51" cy="246.41" r="5.59"/><circle class="cls-3" cx="268.55" cy="250.44" r="2.79"/><path class="cls-6" d="M278.06,225.91c0,2.07-11,6-20.88,6.69-8.17.57-12.41-.64-14.52-1.24-3.38-1-6.36-2.85-6.36-6.36a6.35,6.35,0,0,1,6.36-6.35c3.32,0,7.67,2.95,14.52,3.82C267,223.72,278.06,223.84,278.06,225.91Z"/><path class="cls-6" d="M244.13,276.8s-13,5.38-24.61,5.43a34.43,34.43,0,0,1-17.8-4.61c-3.92-2.37-6.09-4.95-5.48-8.66a6.81,6.81,0,0,1,7.82-5.62c7.56,1.24,8.87,7.84,16.82,10.55C231.89,277.65,244.13,276.8,244.13,276.8Z"/><path class="cls-8" d="M421,548.07c2.44-6.24,6.11-19.15,3.75-36.45l-21.45,27.29A142.9,142.9,0,0,0,421,548.07Z"/><path class="cls-7" d="M380.37,519.27s.14,15.13-3.31,20.08c-10.05,14.39-67,16.49-67,16.49s.67,10.2,24.2,7.16l-15.61,15.38s5.83,7,22.74-7.48L339,589.67s7.65,4.37,13.7-19.63c0,0,28.7.64,43.66-7.38,24.69-13.23,28.45-51.28,28.45-51.28Z"/><path class="cls-10" d="M483.11,488.41c-12.31-13.58-22.23-23.27-22.23-20.81,0,0-30.47-5.64-30.47-45.14V344.59s4-81.68-87.08-112.54c6.71,13.3,11.66,26.52,23.88,34.67,27.09,18.06,44,39.5,45.15,81.26,1.06,39.5-10.1,84.06,7.9,112.85C437.18,487.92,457.68,489.7,483.11,488.41Z"/><path class="cls-6" d="M316.43,317.51c3.61,8.41,18.06,18.05,20.31,30.47,0,0,24.83-33.86-3.38-58.69,0,0,23.7-2.25,32.72,9,0,0,1.13-24.83-25.95-39.5,0,0,33.85-7.9,45.14,6.77,0,0-5.64-46.27-55-37.45C329.9,228.2,316.43,317.51,316.43,317.51Z"/><path class="cls-10" d="M327.3,245.7c-5.44,5-12.82,10.74-17.69,10-3.72-.53-7.06-4.55-7.16-8.31-.13-4.79,6.59-10.92,11.86-15.79,15-13.83,26.32-17.5,28.86-14.75S342.28,231.87,327.3,245.7Z"/><path class="cls-7" d="M313.42,251.78c-2.7,2.5-6.37,5.34-8.78,5a4.57,4.57,0,0,1-3.56-4.13c-.07-2.38,3.27-5.42,5.89-7.84,7.44-6.87,13.07-8.7,14.34-7.33S320.86,244.91,313.42,251.78Z"/><rect class="cls-1" x="-68.55" y="90.44" width="528.19" height="1143.7"/></g><circle class="cls-3" cx="300" cy="300" r="236"/><g class="cls-11"><circle class="cls-5" cx="300" cy="300" r="203.45"/><path class="cls-6" d="M117,269.85s16.75,7,31.79,7.17a44.6,44.6,0,0,0,23-5.84c5.09-3,7.91-6.37,7.15-11.17a8.81,8.81,0,0,0-10.08-7.32c-9.79,1.55-11.52,10.09-21.82,13.54C132.83,271,117,269.85,117,269.85Z"/><ellipse class="cls-6" cx="276.73" cy="308.04" rx="28.46" ry="14.59"/><path class="cls-6" d="M219.2,351.38s-18.16-.7-31.84-6.93a44.52,44.52,0,0,1-18.42-15c-3.33-4.91-4.48-9.11-1.76-13.14a8.79,8.79,0,0,1,12.22-2.38c8.22,5.54,6.19,14,14.06,21.49C204.36,345.76,219.2,351.38,219.2,351.38Z"/><path class="cls-7" d="M367.76,461.69s-19.3,3.18-26.3-.25c-20.39-10-34.35-82.34-34.35-82.34s-12.9,2.87-4.36,32.34L280,394.55s-7.77,8.83,14.07,27.57l-24.46.66s-4.07,10.65,27.8,13.62c0,0,4.87,36.8,18.08,54.33,21.81,28.93,71.18,26.19,71.18,26.19Z"/><path class="cls-8" d="M367.76,461.69s.61,1.09-7.11,1.05c-2.92,10.22-9.21,35.12-6,50.93A126.21,126.21,0,0,0,385.24,517c.36-.37.7-.76,1.05-1.14Z"/><path class="cls-7" d="M508.05,516.74s-39.41-7.3-39.41-58.38V357.66s5.84-118.21-134.26-151.77c0,0-77.35-14.6-102.16,8.75-7.51,7.08-14.59,32.11-14.59,32.11H168s-5.84,0-5.84,8.76v29.18H280.38S276,308,254.11,308H157.79v13.14s-1.46,8.76,8.76,8.76h140.1s14.59,1.46,14.59-7.3c0,0,39.41,7.3,39.41,58.37v100.7s-5.84,118.21,134.26,151.78c0,0,77.35,14.59,102.16-8.76C604.58,617.66,508.05,508,508.05,516.74Z"/><circle class="cls-6" cx="254.11" cy="230.7" r="16.05"/><circle class="cls-9" cx="254.11" cy="230.7" r="12.84"/><circle cx="254.11" cy="230.7" r="7.22"/><circle class="cls-3" cx="259.33" cy="235.91" r="3.61"/><path class="cls-6" d="M271.63,204.19c0,2.67-14.27,7.76-27,8.65-10.57.74-16-.82-18.79-1.61-4.36-1.24-8.21-3.67-8.21-8.21a8.22,8.22,0,0,1,8.21-8.22c4.31,0,9.93,3.82,18.79,4.94C257.32,201.36,271.63,201.52,271.63,204.19Z"/><path class="cls-6" d="M227.75,270S211,277,195.92,277a44.49,44.49,0,0,1-23-5.95c-5.08-3.06-7.88-6.4-7.09-11.2a8.81,8.81,0,0,1,10.12-7.27c9.77,1.6,11.47,10.14,21.75,13.65C211.92,271.09,227.75,270,227.75,270Z"/><path class="cls-8" d="M456.5,620.8c3.15-8.07,7.9-24.77,4.85-47.15L433.61,609A187,187,0,0,0,456.5,620.8Z"/><path class="cls-7" d="M403.93,583.56s.18,19.56-4.28,26c-13,18.62-86.63,21.33-86.63,21.33s.86,13.18,31.29,9.26L324.13,660s7.54,9,29.41-9.67l-3.1,24.26s9.9,5.66,17.72-25.38c0,0,37.12.83,56.46-9.54,31.93-17.11,36.79-66.32,36.79-66.32Z"/><path class="cls-10" d="M536.79,543.65c-15.92-17.56-28.74-30.1-28.74-26.91,0,0-39.41-7.3-39.41-58.38V357.66S473.84,252,356,212.13c8.67,17.2,15.07,34.3,30.88,44.84,35,23.35,56.91,51.07,58.37,105.07,1.38,51.08-13.05,108.71,10.22,145.94C477.4,543,503.91,545.31,536.79,543.65Z"/><path class="cls-6" d="M321.24,322.64c4.67,10.88,23.35,23.35,26.27,39.4,0,0,32.11-43.78-4.37-75.89,0,0,30.64-2.91,42.32,11.68,0,0,1.46-32.11-33.57-51.08,0,0,43.78-10.22,58.38,8.76,0,0-7.3-59.84-71.16-48.44C338.67,207.15,321.24,322.64,321.24,322.64Z"/><path class="cls-10" d="M335.3,229.79c-7,6.49-16.58,13.88-22.88,13-4.81-.69-9.13-5.89-9.26-10.75-.17-6.2,8.52-14.12,15.35-20.42,19.37-17.89,34-22.63,37.32-19.08S354.67,211.9,335.3,229.79Z"/><path class="cls-7" d="M317.36,237.65c-3.5,3.23-8.24,6.89-11.37,6.45a5.92,5.92,0,0,1-4.6-5.34c-.08-3.08,4.24-7,7.63-10.14,9.62-8.89,16.9-11.25,18.53-9.48S327,228.76,317.36,237.65Z"/><rect class="cls-1" x="-176.59" y="29" width="683.03" height="1478.98"/></g></svg>