<svg id="Layer_1" data-name="Layer 1" xmlns="http://www.w3.org/2000/svg" xmlns:xlink="http://www.w3.org/1999/xlink" viewBox="0 0 600 600"><defs><style>.cls-1{fill:none;}.cls-2{fill:#fff;}.cls-3{clip-path:url(#clip-path);}.cls-4{fill:#feffc0;}.cls-5{fill:#930f32;}.cls-6{fill:#85c6ab;}.cls-7{fill:#567c69;}.cls-8{fill:#efdf4b;}.cls-9{fill:#add9c6;}.cls-10{clip-path:url(#clip-path-2);}.cls-11{clip-path:url(#clip-path-3);}.cls-12{clip-path:url(#clip-path-4);}.cls-13{fill:#d9f1ff;}.cls-14{fill:#ffdce4;}.cls-15{fill:#ff94bd;}.cls-16{fill:#562c15;}.cls-17{fill:#ffcad8;}.cls-18{fill:#b75858;}.cls-19{fill:#994a4a;}.cls-20{fill:#9e4a4a;}.cls-21{fill:#42210b;}</style><clipPath id="clip-path"><circle class="cls-1" cx="300" cy="300" r="157.33"/></clipPath><clipPath id="clip-path-2"><circle class="cls-1" cx="300" cy="-381" r="157.33"/></clipPath><clipPath id="clip-path-3"><circle class="cls-1" cx="300" cy="-381" r="203.45"/></clipPath><clipPath id="clip-path-4"><circle class="cls-1" cx="300" cy="300" r="203.45"/></clipPath></defs><title>logo</title><circle class="cls-2" cx="300" cy="300" r="182.5"/><g class="cls-3"><circle class="cls-4" cx="300" cy="300" r="157.33"/><path class="cls-5" d="M158.49,276.68s13,5.44,24.59,5.55a34.43,34.43,0,0,0,17.81-4.52c3.94-2.35,6.12-4.92,5.53-8.64a6.81,6.81,0,0,0-7.8-5.65c-7.56,1.2-8.9,7.8-16.87,10.47C170.73,277.59,158.49,276.68,158.49,276.68Z"/><ellipse class="cls-5" cx="282.01" cy="306.22" rx="22.01" ry="11.29"/><path class="cls-5" d="M237.52,339.73s-14-.54-24.63-5.36a34.35,34.35,0,0,1-14.24-11.61c-2.58-3.8-3.47-7.05-1.36-10.16a6.8,6.8,0,0,1,9.45-1.84c6.35,4.28,4.78,10.83,10.87,16.61C226,335.38,237.52,339.73,237.52,339.73Z"/><path class="cls-6" d="M352.4,425s-14.93,2.46-20.34-.19c-15.77-7.73-26.56-63.67-26.56-63.67s-10,2.22-3.37,25l-17.6-13.07s-6,6.83,10.88,21.33L276.5,395s-3.15,8.23,21.5,10.53c0,0,3.77,28.46,14,42,16.86,22.37,55,20.25,55,20.25Z"/><path class="cls-7" d="M352.4,425s.47.85-5.5.82c-2.26,7.9-7.12,27.16-4.63,39.38a98.34,98.34,0,0,0,23.65,2.55l.81-.89Z"/><path class="cls-6" d="M460.88,467.6s-30.47-5.64-30.47-45.14V344.59s4.52-91.41-103.82-117.37c0,0-59.82-11.28-79,6.77-5.81,5.47-11.29,24.83-11.29,24.83H197.93s-4.51,0-4.51,6.77v22.57h91.41s-3.39,18.06-20.32,18.06H190v10.16s-1.13,6.77,6.77,6.77H305.14s11.29,1.13,11.29-5.64c0,0,30.47,5.64,30.47,45.14v77.87s-4.51,91.41,103.83,117.37c0,0,59.81,11.28,79-6.77C535.54,545.65,460.88,460.83,460.88,467.6Z"/><circle class="cls-5" cx="264.51" cy="246.41" r="12.41"/><circle class="cls-8" cx="264.51" cy="246.41" r="9.93"/><circle cx="264.51" cy="246.41" r="5.59"/><circle class="cls-2" cx="268.55" cy="250.44" r="2.79"/><path class="cls-5" d="M278.06,225.91c0,2.07-11,6-20.88,6.69-8.17.57-12.41-.64-14.52-1.24-3.38-1-6.36-2.85-6.36-6.36a6.35,6.35,0,0,1,6.36-6.35c3.32,0,7.67,2.95,14.52,3.82C267,223.72,278.06,223.84,278.06,225.91Z"/><path class="cls-5" d="M244.13,276.8s-13,5.38-24.61,5.43a34.43,34.43,0,0,1-17.8-4.61c-3.92-2.37-6.09-4.95-5.48-8.66a6.81,6.81,0,0,1,7.82-5.62c7.56,1.24,8.87,7.84,16.82,10.55C231.89,277.65,244.13,276.8,244.13,276.8Z"/><path class="cls-7" d="M421,548.07c2.44-6.24,6.11-19.15,3.75-36.45l-21.45,27.29A142.9,142.9,0,0,0,421,548.07Z"/><path class="cls-6" d="M380.37,519.27s.14,15.13-3.31,20.08c-10.05,14.39-67,16.49-67,16.49s.67,10.2,24.2,7.16l-15.61,15.38s5.83,7,22.74-7.48L339,589.67s7.65,4.37,13.7-19.63c0,0,28.7.64,43.66-7.38,24.69-13.23,28.45-51.28,28.45-51.28Z"/><path class="cls-9" d="M483.11,488.41c-12.31-13.58-22.23-23.27-22.23-20.81,0,0-30.47-5.64-30.47-45.14V344.59s4-81.68-87.08-112.54c6.71,13.3,11.66,26.52,23.88,34.67,27.09,18.06,44,39.5,45.15,81.26,1.06,39.5-10.1,84.06,7.9,112.85C437.18,487.92,457.68,489.7,483.11,488.41Z"/><path class="cls-5" d="M316.43,317.51c3.61,8.41,18.06,18.05,20.31,30.47,0,0,24.83-33.86-3.38-58.69,0,0,23.7-2.25,32.72,9,0,0,1.13-24.83-25.95-39.5,0,0,33.85-7.9,45.14,6.77,0,0-5.64-46.27-55-37.45C329.9,228.2,316.43,317.51,316.43,317.51Z"/><path class="cls-9" d="M327.3,245.7c-5.44,5-12.82,10.74-17.69,10-3.72-.53-7.06-4.55-7.16-8.31-.13-4.79,6.59-10.92,11.86-15.79,15-13.83,26.32-17.5,28.86-14.75S342.28,231.87,327.3,245.7Z"/><path class="cls-6" d="M313.42,251.78c-2.7,2.5-6.37,5.34-8.78,5a4.57,4.57,0,0,1-3.56-4.13c-.07-2.38,3.27-5.42,5.89-7.84,7.44-6.87,13.07-8.7,14.34-7.33S320.86,244.91,313.42,251.78Z"/><rect class="cls-1" x="-68.55" y="90.44" width="528.19" height="1143.7"/></g><circle class="cls-2" cx="300" cy="300" r="236"/><g class="cls-10"><rect class="cls-1" x="-68.55" y="-590.56" width="528.19" height="1143.7"/></g><g class="cls-11"><rect class="cls-1" x="-176.59" y="-652" width="683.03" height="1478.98"/></g><g class="cls-12"><rect class="cls-13" x="-29.72" y="-37.43" width="677.73" height="726.36"/><path class="cls-2" d="M240.92,190.66A82.42,82.42,0,0,1,269,206.27s-16.22,4.74-32.82-.41-27.3-18.23-27.3-18.23A82.41,82.41,0,0,1,240.92,190.66Z"/><path class="cls-2" d="M205.68,216.55A105.38,105.38,0,0,1,237.15,243s-21.52,2-41.1-8.53-29.81-29.54-29.81-29.54A105.48,105.48,0,0,1,205.68,216.55Z"/><path class="cls-2" d="M121.81,184.54a105.33,105.33,0,0,1,38.74-13.77s-9.17,19.57-28.14,31.14-40.57,10.78-40.57,10.78A105.27,105.27,0,0,1,121.81,184.54Z"/><path class="cls-2" d="M208.74,162.75a90.43,90.43,0,0,1,25.85-24S234,157.27,223,172.84s-28.31,22.28-28.31,22.28A90.46,90.46,0,0,1,208.74,162.75Z"/><path class="cls-2" d="M252.72,146.37a78,78,0,0,1,25.42-16.66S275,145.37,263.37,157s-27.25,14.83-27.25,14.83A78,78,0,0,1,252.72,146.37Z"/><path class="cls-2" d="M163.68,170.75a105.38,105.38,0,0,1,29.63-28.51s-.3,21.61-12.82,40S148,208.74,148,208.74A105.32,105.32,0,0,1,163.68,170.75Z"/><path class="cls-2" d="M152.58,221.38a105.39,105.39,0,0,1,32.7,24.92s-21.4,3-41.46-6.55-31.19-28.09-31.19-28.09A105.37,105.37,0,0,1,152.58,221.38Z"/><path class="cls-2" d="M108.24,229.81a105.4,105.4,0,0,1,28.28,29.85s-21.61-.46-39.87-13.12-26.29-32.73-26.29-32.73A105.46,105.46,0,0,1,108.24,229.81Z"/><path class="cls-2" d="M85,215.64c-38.84,0-67.12-6-67.51-6a1.57,1.57,0,1,1,.66-3.06c.52.12,53.14,11.21,113.38,2.91,45.66-6.29,83.73-21.83,113.14-46.17a1.56,1.56,0,1,1,2,2.41c-29.87,24.72-68.46,40.48-114.7,46.86A346.48,346.48,0,0,1,85,215.64Z"/><path class="cls-2" d="M356.23,136.19a1.51,1.51,0,0,1-.51-2.75c.37-.24,37.45-23.82,83.92-49.07C482.58,61,542.55,31.48,584.41,23.12a1.5,1.5,0,0,1,.59,2.95c-41.49,8.29-101.17,37.72-143.92,61-46.38,25.2-83.37,48.73-83.74,49A1.52,1.52,0,0,1,356.23,136.19Z"/><path class="cls-2" d="M324.67,142.59a124,124,0,0,1,37.24-10.37A138.4,138.4,0,0,1,328,155a107,107,0,0,1-36.64,9.54A138.32,138.32,0,0,1,324.67,142.59Z"/><path class="cls-2" d="M362,151.61a124,124,0,0,1,19.84-33.18,138.16,138.16,0,0,1-8.92,39.89,107,107,0,0,1-20,32.16A137.82,137.82,0,0,1,362,151.61Z"/><path class="cls-2" d="M394.71,138.29a133.67,133.67,0,0,1,18.11-37.56,149.19,149.19,0,0,1-5.72,43.71,115.46,115.46,0,0,1-18.34,36.48A148.73,148.73,0,0,1,394.71,138.29Z"/><path class="cls-2" d="M388.86,67.27a133.68,133.68,0,0,1,23,34.78,149,149,0,0,1-34.62-27.3,115.23,115.23,0,0,1-21.94-34.43A148.7,148.7,0,0,1,388.86,67.27Z"/><path class="cls-2" d="M344.62,102.21a133.71,133.71,0,0,1,38,17.22,149.14,149.14,0,0,1-43.84-4.69,115.38,115.38,0,0,1-36.89-17.49A149,149,0,0,1,344.62,102.21Z"/><path class="cls-2" d="M421.07,128a130.74,130.74,0,0,1,12.71-38.78,146.12,146.12,0,0,1,.1,43.16,113.08,113.08,0,0,1-13.08,37.76A145.4,145.4,0,0,1,421.07,128Z"/><path class="cls-2" d="M395.24,71.68A131,131,0,0,1,365.9,43.31a145.8,145.8,0,0,1,38.86,18.75A113,113,0,0,1,433,90.32,145.54,145.54,0,0,1,395.24,71.68Z"/><path class="cls-2" d="M449.25,109.4a131.77,131.77,0,0,1,16.57-37.69,147.4,147.4,0,0,1-4.14,43.34,114,114,0,0,1-16.85,36.64A146.94,146.94,0,0,1,449.25,109.4Z"/><path class="cls-2" d="M434.14,46.18A132,132,0,0,1,465.6,72.75,147,147,0,0,1,425.2,56.5,114,114,0,0,1,394.84,30,147,147,0,0,1,434.14,46.18Z"/><path class="cls-2" d="M478.91,100.41A137.89,137.89,0,0,1,492.3,59.56a153.66,153.66,0,0,1,.1,45.46,119.13,119.13,0,0,1-13.78,39.79A153.43,153.43,0,0,1,478.91,100.41Z"/><path class="cls-2" d="M456,36.29a138,138,0,0,1,36.59,22.57,153.82,153.82,0,0,1-44.23-10.52,119.16,119.16,0,0,1-35.46-22.7A153.56,153.56,0,0,1,456,36.29Z"/><path class="cls-2" d="M489.9,84.77A139.34,139.34,0,0,1,514.58,49,155.44,155.44,0,0,1,501.67,93.1a120.33,120.33,0,0,1-24.75,34.63A155,155,0,0,1,489.9,84.77Z"/><path class="cls-2" d="M482.68,19.82a139.34,139.34,0,0,1,31.18,30.29A155.32,155.32,0,0,1,472.51,30a120.22,120.22,0,0,1-30-30.16A155.34,155.34,0,0,1,482.68,19.82Z"/><ellipse class="cls-2" cx="187.91" cy="77.58" rx="35.29" ry="7.23" transform="translate(17.41 188.31) rotate(-55.44)"/><ellipse class="cls-2" cx="146.8" cy="93.08" rx="36.16" ry="7.41" transform="translate(37.5 228.25) rotate(-83.42)"/><ellipse class="cls-2" cx="107.55" cy="118.1" rx="7.98" ry="38.95" transform="translate(-28.73 34.77) rotate(-16.23)"/><ellipse class="cls-2" cx="75.62" cy="166.57" rx="8.3" ry="40.51" transform="translate(-7.15 3.44) rotate(-2.49)"/><ellipse class="cls-2" cx="93.36" cy="216.9" rx="40.51" ry="8.3" transform="matrix(0.83, -0.56, 0.56, 0.83, -105.2, 89.1)"/><ellipse class="cls-2" cx="218.95" cy="72.23" rx="29.46" ry="6.04" transform="translate(-0.35 143.38) rotate(-36.23)"/><ellipse class="cls-2" cx="193.62" cy="119.56" rx="7.23" ry="35.29" transform="translate(52.64 298.2) rotate(-83.42)"/><ellipse class="cls-2" cx="163.94" cy="152.04" rx="7.24" ry="35.31" transform="translate(-30.79 261.91) rotate(-72.28)"/><ellipse class="cls-2" cx="135.88" cy="171.81" rx="41.35" ry="8.47" transform="translate(-37.95 38.53) rotate(-14.18)"/><path class="cls-2" d="M40.65,277.56l-.2-.05a1.32,1.32,0,0,1-.79-1.7c.11-.31,11.43-31,37.62-70.26a433.64,433.64,0,0,1,51.77-63.71,391.09,391.09,0,0,1,78-61.43,1.32,1.32,0,0,1,1.35,2.28,388,388,0,0,0-77.46,61A430.44,430.44,0,0,0,79.52,207C58.7,238.14,46,266.22,42.14,276.72A1.31,1.31,0,0,1,40.65,277.56Z"/><circle class="cls-1" cx="294.64" cy="229.2" r="230.73"/><path class="cls-14" d="M282.91,258s39.94-63.52,87.6-61.74,51.12,26.45,45.88,49.45-65.93,79.93-65.93,79.93l73.24-24.92s-5.32-4.76-4.82-6.77c1.17-4.67,47.26-12.32,47.4-10.44.16,2.06-80.76,64.78-106.84,77.87-23.75,11.91-61.3,20.07-74.19,5.71s-3.75-57.91,31.69-89.21Z"/><path class="cls-15" d="M178.44,383.15c2.13,1.31.95,3-.36,5.09s-2.26,3.92-4.38,2.61-8.25-7.46-6.94-9.58S176.32,381.84,178.44,383.15Z"/><path class="cls-14" d="M227.23,327.82s-3.75,10.75-13.55,12.32a59.17,59.17,0,0,0-5.79-4.8c-17.7-13-38-12-48.09-7.8s-16.44,29.82-12.08,41.57,45,24.58,51.92,23c4.88-1.1,10-17.52,13.23-23.4,1.82-3.28,3.82-5,12.16-8.81s20.69-4.18,20.69-4.18Z"/><path class="cls-16" d="M174.47,312.37c2.14,9.37-2.84,11.75-10,13.86s-13.93.5-15.91-6.22,2.71-12.18,9.87-14.29S172.91,305.54,174.47,312.37Z"/><path class="cls-17" d="M211.17,363.68c-5,6.5-10.57,22-10.17,27.76,4.45-3.38,8.91-17.38,11.87-22.71,1.82-3.28,3.82-5,12.16-8.81s20.69-4.18,20.69-4.18l-8.82-3.51S218,354.77,211.17,363.68Z"/><path class="cls-14" d="M255.29,289.65c-11.13,11.64-44,40.44-22,65.57s62.07,44.67,65.66,51.71,9.31,75.65,9.31,75.65-12-2.13-13.63-1.62c-3.16,1-16.38,10.32-15,12.18.41.57,6.31.56,13.25.39,3.06-.07,5.19,0,8.1-.18s5.64-.08,8-.4a38.52,38.52,0,0,0,6.3-1.17c3.94-1.52,11.51-83,9.73-89.38-.55-1.95-14.58-22-29.19-36.18-26.9-26,25.55-89.19,25.55-89.19l-38.43-19S263.11,281.46,255.29,289.65Z"/><path class="cls-17" d="M325,402.4c-1.19-7.44-14.58-22-29.19-36.18a24.27,24.27,0,0,1-3.15-3.72c.62,2.28-4,4.7-1.41,7.59,14,15.72,20.74,20.36,26.13,31.33,3.21,6.54-1.67,73.61-4.43,83.47-1.57,5.57-1.85,4-2.88,7.91a31.48,31.48,0,0,0,5.2-1C319.19,490.26,326,408.9,325,402.4Z"/><path class="cls-17" d="M280.62,353.33l-7.56-8.81s6.5-1.84,10.29,1.18S280.62,353.33,280.62,353.33Z"/><rect class="cls-18" x="313.5" y="275.05" width="5.74" height="4.5" transform="translate(-12.04 14.37) rotate(-2.55)"/><path class="cls-18" d="M282.91,258s39.94-63.52,87.6-61.74,51.12,26.45,45.88,49.45-65.93,79.93-65.93,79.93l63.91-21.75L424.44,317c-23.88,17.93-52.14,38.24-65.5,45-23.75,11.91-60.8,19.49-73.69,5.13s-3-55.2,29.95-90.7Z"/><path class="cls-2" d="M347.88,247.78a1.07,1.07,0,0,0-1.46-.43c-14.23,7.66-26.58,20.29-33.26,27.89L282.91,258s-14.25,16.87-23.35,27c4.31,8.63-14.65,28.1-21.27,38.1-6.19,9.37-11.79,19-11.82,19.16a26.3,26.3,0,0,0,2.46,6.66c0-.05,7.27-11.31,11.86-17.32,5.92-7.74,22-19.54,32.18-14a32.27,32.27,0,0,1,11,9.13c4.61-13.61,13-28.82,25.22-43.48.15-.08,5.87-6.91,5.87-6.91,6.63-7.5,18.62-19.68,32.37-27.08A1.09,1.09,0,0,0,347.88,247.78Z"/><path class="cls-19" d="M424.44,317l-4.17-5.43c-30.79,21.12-67,47.89-80.67,58.11A131,131,0,0,0,358.94,362C372.3,355.27,400.56,335,424.44,317Z"/><path class="cls-17" d="M420.27,311.6l3.63,5.83c23-17.23,42.46-32.89,42.38-33.9C459.38,283.29,420.27,311.6,420.27,311.6Z"/><path class="cls-20" d="M416.39,245.73c-9.89,36.12-65.93,79.93-65.93,79.93l-20.62,10.79c-.69-.62,34.45-38.53,59.79-64.17C404,257.72,416.39,245.73,416.39,245.73Z"/><path class="cls-16" d="M157.41,323.87c-10.92,6.8-15.47,14-15.06,31.91.43,18.7,6.54,18.25,17,6.93s21.47-11.75,28.43-8.06-8.29-12.26-3.39-15.08,12.7,3.24,12.75,6.8,23.24,1.54,17-7.76S182.34,308.33,157.41,323.87Z"/><path class="cls-21" d="M174.47,312.37c0-.19-.09-.37-.14-.55-1.8,5.91-12.27,12.57-16.78,15.21a19.07,19.07,0,0,0,6.92-.8C171.63,324.12,176.61,321.74,174.47,312.37Z"/><path class="cls-21" d="M197.21,346.58l0,.11,0,0,.06.1,0,0,.08.1,0,0,.11.09,0,0,.13.09,0,0,.16.09h0l.19.09h0l.22.09h0l.25.08h0l.28.07h0a10.49,10.49,0,0,0,1.77.27,8.84,8.84,0,0,0-3-5.77,7.64,7.64,0,0,0-5.63-1.89c2.78,1.6,5,4.18,5,6.06a.88.88,0,0,0,0,.16Z"/><path class="cls-14" d="M192.72,349.34h0c-.76.32-1.78,0-1.77-.94,0-1.71-.47-2.34-2.21-2.89a1.13,1.13,0,0,1-.58-1.88h0c.51-.71.93-1,2.2-.54,2.32.79,2.72,2.13,3.24,4.24A1.76,1.76,0,0,1,192.72,349.34Z"/></g></svg>