<svg id="Layer_1" data-name="Layer 1" xmlns="http://www.w3.org/2000/svg" xmlns:xlink="http://www.w3.org/1999/xlink" viewBox="0 0 600 600"><defs><style>.cls-1{fill:none;}.cls-2{clip-path:url(#clip-path);}.cls-3{clip-path:url(#clip-path-2);}.cls-4{fill:#fff;}.cls-5{fill:#b3dbff;}.cls-6{fill:#666;}.cls-7{fill:#4e4e4e;}.cls-8{fill:#ffff3c;}</style><clipPath id="clip-path"><circle class="cls-1" cx="855.5" cy="-515.5" r="112.5"/></clipPath><clipPath id="clip-path-2"><circle class="cls-1" cx="992" cy="300" r="203.45"/></clipPath></defs><title>logo</title><g class="cls-2"><rect class="cls-1" x="591.96" y="-665.35" width="377.69" height="817.83"/></g><g class="cls-3"><rect class="cls-1" x="515.41" y="29" width="683.03" height="1478.98"/></g><circle class="cls-4" cx="300" cy="300" r="236"/><circle class="cls-5" cx="299.5" cy="299.5" r="203.88"/><path class="cls-6" d="M305.79,503.27q1.68,0,3.36-.12l1.64-.09,3.39-.21,1.4-.1q2.37-.18,4.71-.42l.44-.05c1.42-.14,2.83-.31,4.24-.48l1.49-.2c1.08-.14,2.16-.29,3.23-.45l1.6-.24,3.33-.55,1.3-.23q2.28-.4,4.56-.87l.73-.16c1.27-.26,2.54-.54,3.8-.82l1.48-.35,3.1-.76,1.52-.39,3.31-.89,1.16-.32c1.47-.42,2.93-.86,4.38-1.31l.91-.29c1.15-.36,2.31-.73,3.46-1.12l1.45-.5c1-.34,2-.68,3-1l1.45-.53c1.09-.4,2.18-.81,3.26-1.24.34-.13.68-.25,1-.39,1.41-.55,2.8-1.12,4.19-1.71l1-.43c1.06-.45,2.12-.91,3.17-1.39l1.4-.63,2.83-1.32,1.36-.65,3.24-1.61.81-.41q2-1,4-2.1l1-.58q1.47-.79,2.91-1.62l1.34-.77c.9-.52,1.79-1.05,2.68-1.59l1.25-.75c1.09-.67,2.17-1.34,3.24-2l.57-.36c1.26-.8,2.51-1.63,3.75-2.46l1-.72c.89-.61,1.78-1.22,2.66-1.85l1.26-.89c.85-.61,1.69-1.22,2.52-1.84l1.15-.85c1.09-.82,2.16-1.64,3.23-2.48a3.92,3.92,0,0,0,.32-.25q1.75-1.38,3.48-2.8l1-.86c.81-.67,1.62-1.36,2.42-2.05.4-.33.79-.67,1.17-1l2.36-2.09,1-.92c1.1-1,2.19-2,3.27-3l.06-.06c1-1,2.1-2,3.13-3.06l1-1c.74-.74,1.47-1.49,2.2-2.25l1.06-1.11c.73-.77,1.46-1.55,2.18-2.34l.89-1q1.5-1.65,3-3.34l.32-.37c.87-1,1.72-2,2.57-3l.91-1.11q1-1.21,1.95-2.43l.95-1.2c.67-.86,1.34-1.73,2-2.6l.75-1c.89-1.19,1.77-2.4,2.63-3.61.15-.2.29-.41.44-.62l2.13-3.07.81-1.22c.58-.86,1.15-1.72,1.71-2.59.28-.43.56-.86.83-1.29.6-.95,1.19-1.9,1.78-2.85l.61-1q1.15-1.9,2.28-3.86c.16-.27.31-.55.47-.83.58-1,1.16-2.06,1.74-3.11l.71-1.32c.49-.91,1-1.83,1.45-2.75.24-.45.47-.9.7-1.36.53-1,1-2.07,1.55-3.12.15-.31.31-.62.46-.94.65-1.35,1.29-2.71,1.91-4.08l.45-1q.7-1.58,1.38-3.15l.6-1.42c.4-1,.79-1.93,1.18-2.9.19-.47.38-.94.56-1.41.45-1.14.88-2.28,1.31-3.43.1-.28.21-.56.31-.83.51-1.4,1-2.8,1.48-4.21q.93-2.72,1.77-5.45c.13-.43.25-.86.38-1.29.43-1.42.85-2.84,1.25-4.27l.51-1.89c.34-1.28.67-2.57,1-3.85.15-.64.31-1.27.46-1.9.35-1.48.68-3,1-4.44.09-.44.19-.86.28-1.3.18-.88.34-1.77.52-2.66s.31-1.58.45-2.37.31-1.82.46-2.73l.39-2.34c.14-.94.26-1.88.4-2.82.1-.76.22-1.53.32-2.29.12-1,.22-1.93.33-2.89.09-.76.18-1.51.26-2.27.1-1,.18-2,.27-3,.06-.75.14-1.49.2-2.24.07-1,.13-2.07.2-3.11,0-.71.09-1.41.13-2.12.06-1.17.1-2.35.14-3.53,0-.58.05-1.15.06-1.73.05-1.76.07-3.53.07-5.3,0-.64-62.24-64.15-62.24-64.15l-74.95,28-34.3,52.08-53.35-29.22-25.41,33-21.59,5.08-5.08,39.38L182,352.22l-62,44.09A203.84,203.84,0,0,0,299.5,503.38q2.42,0,4.8-.06Z"/><path class="cls-7" d="M222.65,422.08,276,387.78,255.68,351l22.86-64.79-25.41,33-21.59,5.08-5.08,39.38L182,352.22l-62,44.09a204.94,204.94,0,0,0,72.14,76.56"/><path class="cls-8" d="M351.53,102.33A62.24,62.24,0,1,0,454.8,167.42,203.83,203.83,0,0,0,351.53,102.33Z"/><path class="cls-7" d="M366.19,263.3l-34.3,52.08s39.05,35.9,39.38,35.57"/><circle class="cls-8" cx="423.99" cy="341.42" r="8.26"/><circle class="cls-8" cx="343.96" cy="399.85" r="8.26"/><circle class="cls-8" cx="385.88" cy="448.12" r="8.26"/><circle class="cls-8" cx="293.15" cy="481.15" r="8.26"/><rect class="cls-8" x="383.97" y="323" width="2.54" height="92.73" transform="translate(454.83 -159.79) rotate(53.7)"/><rect class="cls-8" x="336.97" y="418.27" width="2.54" height="92.73" transform="translate(674.4 -1.51) rotate(71.85)"/><rect class="cls-8" x="364.61" y="389.03" width="2.71" height="73.01" transform="translate(-189.86 347.63) rotate(-41.33)"/><path class="cls-8" d="M286,502.93l2.75.17,4.54-18.73-2.64-.64Z"/></svg>