<svg id="Layer_1" data-name="Layer 1" xmlns="http://www.w3.org/2000/svg" xmlns:xlink="http://www.w3.org/1999/xlink" viewBox="0 0 600 600"><defs><style>.cls-1{fill:none;}.cls-2{fill:#fff;}.cls-3{clip-path:url(#clip-path);}.cls-4{clip-path:url(#clip-path-2);}.cls-5{clip-path:url(#clip-path-3);}.cls-6{fill:#628464;}.cls-7{fill:#1a422e;}.cls-8{fill:#471010;}.cls-9{fill:#8c6239;}.cls-10{fill:#e0cfbd;}.cls-11{fill:#ffdede;}.cls-12{fill:#c7b299;}.cls-13{fill:#fffed2;}.cls-14,.cls-19{fill:#9e714c;}.cls-14{opacity:0.5;}.cls-15{fill:#0a7c43;}.cls-16{fill:#f7931e;}.cls-17{fill:#ce6f11;}.cls-18{fill:#383838;opacity:0.2;}</style><clipPath id="clip-path"><circle class="cls-1" cx="992" cy="-381" r="203.45"/></clipPath><clipPath id="clip-path-2"><circle class="cls-1" cx="300" cy="300" r="203.5"/></clipPath><clipPath id="clip-path-3"><circle class="cls-1" cx="300.46" cy="299.77" r="203.47"/></clipPath></defs><title>logo</title><circle class="cls-2" cx="300" cy="300" r="236"/><g class="cls-3"><rect class="cls-1" x="515.41" y="-652" width="683.03" height="1478.98"/></g><g class="cls-4"><g class="cls-5"><circle class="cls-6" cx="300.46" cy="299.77" r="203.47"/><rect class="cls-7" x="400.73" y="326.93" width="5.82" height="187.06"/><rect class="cls-7" x="198.63" y="259.76" width="5.82" height="234.52"/><rect class="cls-8" x="385.22" y="179.79" width="36.84" height="157.96" rx="18.42"/><rect class="cls-8" x="188.2" y="155.93" width="26.68" height="114.36" rx="13.34"/><path class="cls-7" d="M257.89,187.9h0a6.21,6.21,0,0,0-6.21,6.21v40.83a6.21,6.21,0,0,0,4.86,6.06V345.46h2.71V241a6.21,6.21,0,0,0,4.86-6.06V194.11A6.22,6.22,0,0,0,257.89,187.9Z"/><path class="cls-7" d="M277.77,196.67h0a6.22,6.22,0,0,0-6.21,6.22v40.83a6.21,6.21,0,0,0,4.86,6.05V354.23h2.71V249.77a6.21,6.21,0,0,0,4.85-6.05V202.89A6.22,6.22,0,0,0,277.77,196.67Z"/><polyline class="cls-7" points="159.81 538.11 176.75 227 183.87 538.11"/><polyline class="cls-7" points="409.07 544.73 431.67 194.18 436.1 544.46"/><polyline class="cls-7" points="378.01 574.61 376.11 223.34 404.95 572.45"/></g><path class="cls-9" d="M-62.43,445.58C-1.4,425.4,45.11,401.92,84,384.08,215.78,323.62,227.85,272,239.09,216.72s26.43-77,55.6-77c28.25,0,43.91,28,47.65,50.45,1.44,8.69,9.74,14.41,6.32,20.8-2.87,5.36-4.64,9.77-4.64,9.77a25.44,25.44,0,0,0-13.56-4.34c.37-2.81-1.28-5.94-4.94-5.94a4.69,4.69,0,0,0-4.65,3.18,5.06,5.06,0,0,0-5.19,1c-17.24,15.2-29.25,35-33.15,57.8-6.82,39.81,6.68,79.91,15.13,118.39C302,410.4,305,430,304.45,450.05c0,1.6-.12,3.21-.23,4.81-10.9,13.46-21.36,28.21-23,45.94h0q-1.59,2-3.26,3.91a5.69,5.69,0,0,0-2.92,1.22c-12.91,10.3-31.18,15.92-39.82,30.84-.94.36-1.88.7-2.81,1-16.31,5.78-33.41,9.08-50.45,11.91-14.49,2.41-29,5-43.62,6.34-10.09,1-20.25,1.54-30.4,1.65-11.15-1.07-22-2.69-32.34-4.66a6.39,6.39,0,0,0-.92-.67C52.59,539.66,26.9,537.19,2.94,529.76c-5.12-1.58-10.1-3.46-15-5.5a5.46,5.46,0,0,0-1.24-2.94c-6.41-7.55-17-11.3-26.24-14.05a123.1,123.1,0,0,0-20-4.4c-11.79-4.49-23.78-8.15-36.28-9.16a4.4,4.4,0,0,0-3.1-2.42c-3.15-.54-6.4-.48-9.1-1.25a5.47,5.47,0,0,0-1.55-.22l-3.57-1.29S-118.43,464.09-62.43,445.58Z"/><path class="cls-10" d="M-113.2,488.53a.45.45,0,0,0,0-.08h0c0-.05,0-.13,0-.23v0c0-.1,0-.23,0-.38h0c-.16-2,0-8.11,5.89-15.75h0c112-16,329-6.57,357.84-132.83C272.67,241.75,259,190,296.92,171.85c24.41-11.7,45.62,19.3,45.62,19.3v0c1.88,8.12,9.39,13.63,6.11,19.77-2.87,5.36-4.64,9.77-4.64,9.77h0a25.58,25.58,0,0,0-18-4.07c-.48.07-1,.16-1.46.26a31.37,31.37,0,0,0-12.83,6.22c-.56.44-1.13.91-1.7,1.4a64,64,0,0,0-9.5,10.19c-1.11,1.49-2.15,3-3.13,4.63a68,68,0,0,0-5.15,10.19q-6.58,16.24-6.31,38.13a188.55,188.55,0,0,0,4.31,36c.65,3.1,1.52,6.6,2.52,10.45.11.43.23.86.34,1.29.92,3.49,1.94,7.24,3,11.23.93,3.49,1.9,7.15,2.86,11,.27,1.09.54,2.19.82,3.31.13.56.27,1.12.41,1.68.27,1.13.54,2.26.8,3.41s.53,2.31.79,3.48.52,2.35.77,3.54c.13.6.26,1.2.38,1.8.25,1.2.49,2.41.73,3.62,3.33,17.06,5.54,35.86,4.19,54.81-.2,2.71-.46,5.41-.81,8.12a131.54,131.54,0,0,1-2.58,14.18c-.32,1.34-.67,2.68-1,4q-.27,1-.57,2-.88,3-1.94,6c-.47,1.32-1,2.64-1.49,4a110.91,110.91,0,0,1-7.59,15.5q-1.12,1.91-2.34,3.78c-1.21,1.88-2.5,3.74-3.85,5.58l-1.39,1.83q-1.4,1.83-2.91,3.63c-1.5,1.8-3.09,3.58-4.75,5.34q-1.67,1.75-3.43,3.48c-1.17,1.15-2.39,2.28-3.64,3.41q-3.75,3.38-8,6.62a153.56,153.56,0,0,1-13.68,9.35c-1.64,1-3.32,2-5.05,2.94a200.09,200.09,0,0,1-25.93,12.1,194.44,194.44,0,0,1-20.48,6.62,215.83,215.83,0,0,1-26,5.13c-1.74.24-3.48.45-5.22.65q-5.22.59-10.42,1c-1.74.12-3.47.22-5.2.3-5.19.26-10.37.35-15.5.31q-5.15,0-10.23-.27a328.11,328.11,0,0,1-34.65-3.44c-3.19-.49-6.35-1-9.46-1.57-10.9-2-21.29-4.31-31-6.86q-4.15-1.1-8.13-2.22t-7.75-2.29Q27.16,540.72,22,539c-2.31-.77-4.55-1.54-6.71-2.29l-3.18-1.13c-2.07-.75-4.07-1.49-6-2.21-17.22-6.48-27.52-11.64-27.52-11.64l-91.77-33.19Z"/><circle class="cls-11" cx="296.45" cy="201.9" r="16.51"/><path class="cls-8" d="M284.05,164.7c-4.51,5.74-2.37,15.12,3.37,19.63s30.15,14.89,34.66,9.15-12.58-25.42-18.32-29.93S288.56,159,284.05,164.7Z"/><path class="cls-12" d="M285.76,167s-2,10.94,4.79,15.5c6,4,15.66.13,15.66.13s3.05-12.4-4.14-16.73C294.59,161.42,285.76,167,285.76,167Z"/><path class="cls-13" d="M250.44,339.23c.08-.35.15-.7.23-1.05,13.46,21.54,19.05,57.53,14.9,84.4-9.9,64.05-68.76,75-101,75-28.37,0-19.09-33-16.43-62.95C199.27,417.12,239.2,388.51,250.44,339.23Z"/><path class="cls-14" d="M-112.75,482.55l60.17-5.76a10.48,10.48,0,0,1,.75-6.43c2.54-6.06,25-8.3,25-8.3L198.4,477.41s-14,37.39-123.3,29.39c-55.48-4.06-92.92-9.43-112.3-17.21h0s-8.29,7.38-62.26,3.91l-13.74-5h0a.45.45,0,0,0,0-.08h0c0-.05,0-.13,0-.23v0c0-.1,0-.23,0-.38h0A16.79,16.79,0,0,1-112.75,482.55Z"/><circle cx="296.45" cy="174.33" r="8.88"/><circle class="cls-15" cx="296.45" cy="174.33" r="7.7"/><circle cx="296.45" cy="174.33" r="4.18"/><circle class="cls-2" cx="299.34" cy="171.85" r="2.43"/><path class="cls-9" d="M279.89,375.1a7.69,7.69,0,0,0,15.37,0c0-4.25-3.44-17.41-7.69-17.41S279.89,370.85,279.89,375.1Z"/><path class="cls-9" d="M231.45,375.1a7.69,7.69,0,0,0,15.37,0c0-4.25-3.44-17.41-7.69-17.41S231.45,370.85,231.45,375.1Z"/><path class="cls-9" d="M302.4,422.74c0-3.37,2.17-12.37,5.19-15.92a180.9,180.9,0,0,1,.41,23.32A7.68,7.68,0,0,1,302.4,422.74Z"/><path class="cls-9" d="M281.93,465.13a7.69,7.69,0,1,0,15.37,0c0-4.24-3.44-17.41-7.68-17.41S281.93,460.89,281.93,465.13Z"/><path class="cls-9" d="M256.55,336.86a7.69,7.69,0,1,0,15.37,0c0-4.25-3.44-17.41-7.68-17.41S256.55,332.61,256.55,336.86Z"/><path class="cls-9" d="M285.09,276.25a2.38,2.38,0,0,1,1.14.31c-.27,3.58-.39,7.28-.34,11.12.05,4.33.32,8.83.78,13.5a7.5,7.5,0,0,1-1.58.16,7.69,7.69,0,0,1-7.69-7.68C277.4,289.41,280.85,276.25,285.09,276.25Z"/><path class="cls-16" d="M371.63,243.94s60.13,39.17,65.63,36.77-15.46-17.87-25.43-25.09-61.51-46.73-63.91-53.26c0,0-11,6.19-21.31,3.09,0,0,1.84,10.6,0,11.14Z"/><path class="cls-9" d="M259.23,422.74a7.69,7.69,0,1,0,15.37,0c0-4.24-3.44-17.4-7.69-17.4S259.23,418.5,259.23,422.74Z"/><path class="cls-17" d="M327.3,205.64l106.57,74.54h0a65.55,65.55,0,0,1-7.44-3.31l-99.55-69.63c-.15-1.07-.28-1.8-.28-1.8Z"/><path class="cls-17" d="M348.15,208.68a1.82,1.82,0,0,0-2.52,2.62c.72.7,3.43,2.17,4.12,1.44S348.87,209.38,348.15,208.68Z"/><path class="cls-18" d="M369.79,242.82c1-6.75,3.73-10.64,9.36-12.4,13.79,11,27.94,21.77,32.68,25.2,10,7.22,30.93,22.68,25.43,25.09s-65.63-36.77-65.63-36.77Z"/><path class="cls-19" d="M142.4,373.49a54.83,54.83,0,0,1,70.15,33c10.24,28.49,15.28,79.25-48,91.06-24.47,4.57-64.59,4.84-103.72,2.33a5,5,0,0,0-4.22-2.5c-6-.3-11.88-1.08-17.83-1.69-5.79-.6-11.65-.52-17.42-1.34a5.4,5.4,0,0,0-4.59,1.45c-37.5-4.64-66.9-11.68-69.17-19.41C-60.95,447.38,113.91,383.73,142.4,373.49Z"/></g></svg>