<svg id="Layer_1" data-name="Layer 1" xmlns="http://www.w3.org/2000/svg" xmlns:xlink="http://www.w3.org/1999/xlink" viewBox="0 0 600 600"><defs><style>.cls-1{fill:none;}.cls-2{fill:#fff;}.cls-3{clip-path:url(#clip-path);}.cls-4{clip-path:url(#clip-path-2);}.cls-5{clip-path:url(#clip-path-3);}.cls-6{fill:#ffffe5;}.cls-7{fill:#bdccd4;}.cls-8{fill:#99ad89;}.cls-9{fill:#4d4d4d;}.cls-10{fill:#ff7bac;}.cls-11{fill:#9aa7ad;}.cls-12{clip-path:url(#clip-path-4);}.cls-13{clip-path:url(#clip-path-5);}.cls-14{fill:#bce5f7;}.cls-15{fill:#c57631;}.cls-16{fill:#a8622d;}.cls-17{fill:#eabd75;}.cls-18{fill:#087c6d;}.cls-19{fill:#0c9682;}.cls-20{fill:#11aa90;}.cls-21{fill:#edf4f7;}.cls-22{fill:#156052;}.cls-23{fill:#ce5e0b;}.cls-24,.cls-27{fill:#472914;}.cls-25{fill:#af652e;}.cls-26{fill:#683c1e;}.cls-27,.cls-28{opacity:0.5;}.cls-28{fill:#543119;}</style><clipPath id="clip-path"><circle class="cls-1" cx="300" cy="-417" r="157.33"/></clipPath><clipPath id="clip-path-2"><circle class="cls-1" cx="300" cy="-1098" r="203.45"/></clipPath><clipPath id="clip-path-3"><circle class="cls-1" cx="300" cy="300" r="203.49"/></clipPath><clipPath id="clip-path-4"><circle class="cls-1" cx="999" cy="300" r="203.49"/></clipPath><clipPath id="clip-path-5"><circle class="cls-1" cx="797.73" cy="159.37" r="772.48"/></clipPath></defs><title>logo</title><circle class="cls-2" cx="300" cy="300" r="235"/><g class="cls-3"><rect class="cls-1" x="-68.55" y="-626.56" width="528.19" height="1143.7"/></g><g class="cls-4"><rect class="cls-1" x="-176.59" y="-1369" width="683.03" height="1478.98"/></g><g class="cls-5"><circle class="cls-6" cx="301.13" cy="306.92" r="214.5"/><rect class="cls-7" x="94.63" y="409.51" width="406.59" height="117.31"/><path class="cls-8" d="M308.15,313.47l-15.77,0a3.29,3.29,0,0,1,0-6.57l15.76,0a3.29,3.29,0,0,1,0,6.57Z"/><path class="cls-9" d="M328.91,373.53a3.27,3.27,0,0,1-3-1.83l-29-59.08a3.28,3.28,0,1,1,5.89-2.89l29,59.07a3.29,3.29,0,0,1-1.5,4.4A3.19,3.19,0,0,1,328.91,373.53Z"/><path class="cls-9" d="M192.68,407.53a65.35,65.35,0,1,1,65.26-65.43A65.43,65.43,0,0,1,192.68,407.53Zm-.16-122.81a57.47,57.47,0,1,0,57.54,57.39A57.52,57.52,0,0,0,192.52,284.72Z"/><path class="cls-8" d="M192.88,410.48A68.18,68.18,0,1,1,261,342.22,68.25,68.25,0,0,1,192.88,410.48Zm-.16-129.78a61.61,61.61,0,1,0,61.68,61.53A61.68,61.68,0,0,0,192.72,280.7Z"/><path class="cls-9" d="M407.11,407.26a65.35,65.35,0,1,1,65.26-65.43A65.42,65.42,0,0,1,407.11,407.26ZM407,284.44a57.47,57.47,0,1,0,57.54,57.4A57.54,57.54,0,0,0,407,284.44Z"/><path class="cls-8" d="M407.31,410.38A68.34,68.34,0,1,1,475.57,342,68.41,68.41,0,0,1,407.31,410.38Zm-.16-129.79A61.45,61.45,0,1,0,468.67,342,61.53,61.53,0,0,0,407.15,280.59Z"/><rect class="cls-7" x="145.73" y="274.7" width="135.59" height="6.57" transform="translate(-116.75 395.41) rotate(-72.04)"/><circle class="cls-10" cx="192.76" cy="342.35" r="7.39"/><path class="cls-7" d="M408.62,345.89s-98.55-3.75-99.91-5l-88-83.46a4.11,4.11,0,0,1,2.82-7.09l116.63-.14L353.82,208l6.25,2L346.13,252.9,411,341.48A2.78,2.78,0,0,1,408.62,345.89ZM319.15,336,401,339l-57.4-78.42Zm-89.49-79.15,82.8,78.49L338,256.73Z"/><path class="cls-11" d="M330.84,364.68c-6.16,0-11.12-.09-14.12-.17-13.85-.37-24.83-11.57-24.47-25s11.92-24,25.77-23.62a466.75,466.75,0,0,1,53.79,5.14c30.57,5,45.47,12,45.56,21.63a10.75,10.75,0,0,1-3.56,7.9c-6.77,6.66-23.76,11-50.49,13C351.54,364.43,339.9,364.67,330.84,364.68Zm-13.55-45.15c-11.58,0-21.12,8.91-21.43,20.11-.3,11.4,9.1,20.94,20.95,21.26,7.36.19,26.6.5,46.25-.94,25.49-1.86,42.16-6,48.22-11.95a7.17,7.17,0,0,0,2.47-5.29c0-4.18-5.61-12.1-42.52-18.1a461.37,461.37,0,0,0-53.31-5.08Z"/><circle class="cls-7" cx="314.26" cy="340.22" r="7.39"/><path class="cls-10" d="M314.28,363.54a23.32,23.32,0,1,1,23.29-23.35A23.35,23.35,0,0,1,314.28,363.54Zm0-41.71a18.39,18.39,0,1,0,18.41,18.37A18.41,18.41,0,0,0,314.23,321.83Z"/><circle class="cls-10" cx="407.85" cy="342.4" r="7.39"/><path class="cls-9" d="M328.91,373.53a3.27,3.27,0,0,1-3-1.85l-14.16-29.21a3.28,3.28,0,0,1,5.91-2.86l14.16,29.21a3.27,3.27,0,0,1-2.95,4.71Z"/><polygon class="cls-11" points="351.36 215.55 358.26 215.54 360.07 209.99 356.94 208.98 353.49 208.98 351.36 215.55"/><path class="cls-10" d="M386.17,210.26l-48.27.06a3.29,3.29,0,1,1,0-6.57l48.27-.06a3.29,3.29,0,0,1,0,6.57Z"/><polygon class="cls-11" points="228.88 219.98 235.78 219.97 237.59 214.42 234.46 213.4 231.01 213.41 228.88 219.98"/><path class="cls-10" d="M206.89,241.53a16.18,16.18,0,0,1,0-32.36l43.36-.21h0a3.29,3.29,0,0,1,0,6.57l-43.37.21a9.61,9.61,0,1,0,0,19.22,3.29,3.29,0,0,1,0,6.57Z"/><path class="cls-8" d="M335.81,374.84l-15.44,0a3.29,3.29,0,0,1,0-6.57l15.43,0a3.29,3.29,0,0,1,0,6.57Z"/></g><g class="cls-12"><g class="cls-13"><path class="cls-14" d="M-415.63-664.17v1704.7h2492V-664.17ZM21.12,221.42c-.11-12.74-2.2-25.29-2.66-38s0-25.44,0-38.15c0-8.37,13-8.35,13,0,0,12.71-.43,25.44,0,38.15.38,10.54,1.87,21,2.43,31.48a7.19,7.19,0,0,1,.08,8C32.56,229.75,21.18,229.23,21.12,221.42ZM1574,92.48c-.16,8.36-13.14,8.36-13,0,.34-17.51-4.24-34.45-6.3-51.73-1.42-11.94-1.45-24-1.28-36-3.62.51-7.36-1.51-6.78-6.09,1.78-14.21-3.4-26.51-7-39.92-1.83-6.74-3.13-13.19-6.48-19.4-2.65-4.92-5.12-9.87-6-15.45-1.23-8.19,11.28-11.68,12.52-3.45,1,6.61,4.7,11.62,7.35,17.6,2.76,6.19,3.76,13,5.69,19.41,2.49,8.34,5.2,16.55,6.51,25,3.54-.46,7.44,1.6,7.4,6.2-.15,17.32-1.08,34.9,1,52.15S1574.34,74.94,1574,92.48Z"/><path class="cls-15" d="M1146.77,220.08C1094.49,129.72,1033.24,41.75,979-32c-35.87-4.53-98.48-55.2-121.82-55.2-26.87,0-21.83,47-70.54,31.92s-67.19,25.19-87.35,47C684.11,8.23,644.17,4.6,625.52,1.84,557,111.25,484.64,229.46,484.64,229.46S1249.83,398.2,1146.77,220.08Z"/><path class="cls-16" d="M612.23,23.1C548,126,484.64,229.46,484.64,229.46s136,30,285.56,51.33l-7.47-13.09C676.84,117,636.73,49.34,612.23,23.1Z"/><path class="cls-2" d="M302.55,138.24l-436-.83,30.74,92.17H239.94s16.16.85,16.16-13.2c0-10.73-17.3-9.83-17.3-9.83l-59.09-.83s-12.32-.9-12.52-10.25c-.23-10.46,12.52-11.38,12.52-11.38h121.7s29,3.93,29-22.26C330.39,135.49,302.55,138.24,302.55,138.24ZM21.12,221.42c-.11-12.74-2.2-25.29-2.66-38s0-25.44,0-38.15c0-8.37,13-8.35,13,0,0,12.71-.43,25.44,0,38.15.38,10.54,1.87,21,2.43,31.48a7.19,7.19,0,0,1,.08,8C32.56,229.75,21.18,229.23,21.12,221.42Z"/><path class="cls-17" d="M724.18,288.76C634.8,131.92,595,65.05,570.77,41.16a6.32,6.32,0,0,1-1,.41,7.09,7.09,0,0,1-9.61.87c-9.51-7.46-19-2.81-28.19,2a6.24,6.24,0,0,1-4.17.68,5.43,5.43,0,0,1-.71,0,6.1,6.1,0,0,1-4-1.35l-.27.18c-15.93,11-28,3.63-40.76-12.78a6.83,6.83,0,0,1-2.24.36,6.64,6.64,0,0,1-2.41-.43,5.84,5.84,0,0,1-5.44-1.82c-22.12-22.54-32.86-52.67-53.15-76.47C411.09-56.18,402.44-68,392-74c-.25-.15-.5-.27-.76-.4l-.07.06c-16.78,14.44-31.94,30.68-43.53,49.65C334.94-3.94,327.17,19,322.25,42.62c-1,4.75-5.46,5.57-8.8,3.87-7.86,13.67-15,27.75-22,41.86A5.54,5.54,0,0,1,284,91.16c-43.25,109.41-78.76,231.37-78.76,231.37l553,28.2S888.39,576.9,724.18,288.76Z"/><path class="cls-2" d="M302.55,138.24l-436-.83,30.74,92.17,123.85-8.35c-.12-12.67-2.2-25.17-2.65-37.82s0-25.44,0-38.15c0-8.37,13-8.35,13,0,0,12.71-.43,25.44,0,38.15.38,10.53,1.86,21,2.42,31.47A7.17,7.17,0,0,1,35,220.29L238.8,206.55l-59.09-.83s-12.32-.9-12.52-10.25c-.23-10.46,12.52-11.38,12.52-11.38h121.7s29,3.93,29-22.26C330.39,135.49,302.55,138.24,302.55,138.24Z"/><path class="cls-18" d="M-34.75,259.76s370.51,44.46,500.18,44.46,511.31-34.15,592.82,90.37,129.68,146.75,129.68,146.75L-34.75,585.8Z"/><path class="cls-19" d="M-34.75,433.9s170.43,125,333.46,84.74S791.48,293.1,1050.84,285.69s497.5,64.88,497.5,64.88l26,3.12,75.24,402.79L1577,789.58-34.75,830.34Z"/><path class="cls-20" d="M109.94,669.62C264,589.86,489.62,515.56,786.6,515.25s626.55,55.07,736.67,137.1S1606.52,800,1606.52,800L1577,1019.38H-34.75l-95.83-73.75S-127.22,792.37,109.94,669.62Z"/><path class="cls-21" d="M321.42,82.44c13.44-13.44,45.36-47,67.19-10.08s37,31,45.35,20.53c8.24-10.25,6.79-58.73,49.48-59.9C463.52,8.36,442.24-39.22,402-73.74,370.51-100.69,323.53-9,283.36,92.88,293.6,93,312,91.84,321.42,82.44Z"/><path class="cls-17" d="M169.55,498.65s-31.3-20.18-8.94-61.79c0,0,7.65,15.57,16.14,16.41,0,0-7.08-43.59,24.62-64.25,0,0,2.16,8.3,8.78,19.53,8.51,14.43,14.44,23.21,15,38.21,0,0,12.17-6.79,11.33-15.56,0,0,33.11,44.15-12.18,85.2l-41.89-3.12Z"/><path class="cls-15" d="M204.08,518.26s-43.14-24.79-1.94-82.42c0,0,37.35,47.33,11.59,77.91Z"/><path class="cls-22" d="M259.44,549.83c18.66-5.56,22.82-17.75,21.09-27.4a292.2,292.2,0,0,1-56.67,4.11c-9.82,3.69-19.32,6.5-27.51,6.75l-34,18.13S234,557.42,259.44,549.83Z"/><path class="cls-23" d="M203.56,505.5s-15.42-6.69,0-33.44C203.56,472.06,218.15,497.18,203.56,505.5Z"/><path class="cls-24" d="M152.64,494.36l102.89,19.82s10.55,11.35-3,30.76L148.09,525.42S138.82,512.1,152.64,494.36Z"/><path class="cls-25" d="M255.53,514.18s-11.17,12.26-3,30.76C266.08,525.53,255.53,514.18,255.53,514.18Z"/><path class="cls-26" d="M152.78,521.11l101.33-26.75s14.45,5.6,10.78,29l-102.51,28.1S148.1,543.1,152.78,521.11Z"/><path class="cls-15" d="M254.11,494.36s-4.69,15.91,10.78,29C268.56,500,254.11,494.36,254.11,494.36Z"/><path class="cls-21" d="M570.94,41.33C550.63,21.18,541.27,31.17,523,43.85c6.43,7,15.84,14.91,25.84,14.91C559.59,58.76,565,49.69,570.94,41.33Z"/><circle class="cls-2" cx="198.75" cy="69.15" r="2.6"/><path class="cls-22" d="M374.37,536s33.79-6.5,21.81-23.05c-2.38-3.29-14.14-6.34-18,4.19"/><path class="cls-26" d="M374.37,460.83H355.59s-7.07,7.6-7.07,15.49S366,488.55,366,488.55l17.44-12.23S383.18,469.13,374.37,460.83Z"/><path class="cls-15" d="M383.4,532.53s-5.31,4.05-15.79,4.05c-14.24,0-19.09-4.05-19.09-4.05V476.32s4.71,3.93,19.09,4.05c11.18.09,15.79-4.05,15.79-4.05Z"/><path class="cls-24" d="M355.59,460.83s-.46-14.29,8.81-14.38,10,10.05,10,14.38C374.37,460.83,367.14,465.76,355.59,460.83Z"/><path class="cls-27" d="M374.37,460.83c0-4.06-.62-13.21-8.32-14.28.34,10.26,8.68,25.4,8.32,33.3V536c6-1.13,9-3.44,9-3.44V476.32S383.18,469.13,374.37,460.83Z"/><path class="cls-28" d="M259.47,498.37c0,.08,2.09,3.73,1,10.8-.82,5.57-1.35,8.09-1.35,8.09L157.39,546.75h0a21.72,21.72,0,0,0,4.56,4.4h0l.3.2,0,0,.09,0,102.51-28.1C267,509.92,263.14,502.37,259.47,498.37Z"/><path class="cls-28" d="M252.57,544.94c5.74-8.25,7.13-15,6.84-20.12L213,537.55Z"/><path class="cls-1" d="M769.51-589C333.46-589-20-251.55-20,164.71S333.46,918.42,769.51,918.42,1559.05,581,1559.05,164.71,1205.56-589,769.51-589ZM21.12,221.42c-.11-12.74-2.2-25.29-2.66-38s0-25.44,0-38.15c0-8.37,13-8.35,13,0,0,12.71-.43,25.44,0,38.15.38,10.54,1.87,21,2.43,31.48a7.19,7.19,0,0,1,.08,8C32.56,229.75,21.18,229.23,21.12,221.42Z"/></g></g></svg>