<svg id="Layer_1" data-name="Layer 1" xmlns="http://www.w3.org/2000/svg" viewBox="0 0 600 600"><defs><style>.cls-1,.cls-4{fill:#fff;}.cls-2{fill:#ccffd9;}.cls-3{fill:#ffc5dd;}.cls-4{opacity:0.3;}.cls-5,.cls-7{fill:none;stroke-miterlimit:10;}.cls-5{stroke:#7db28b;stroke-width:13.9px;}.cls-6{fill:#7db28b;}.cls-7{stroke:#fffc9c;stroke-linecap:round;stroke-width:6.95px;}</style></defs><title>logo</title><circle class="cls-1" cx="300" cy="300" r="235"/><circle class="cls-2" cx="301.37" cy="300.37" r="199.87"/><circle cx="204.35" cy="266.59" r="50.67"/><circle class="cls-1" cx="217.02" cy="245.47" r="12.67"/><circle class="cls-1" cx="186.05" cy="290.52" r="7.04"/><path class="cls-3" d="M329.18,355.12c0,28.31-12.45,51.27-27.81,51.27s-27.81-23-27.81-51.27c0-.87,12.45-.87,27.81-.87S329.18,354.25,329.18,355.12Z"/><path class="cls-1" d="M301.37,354.25c-15.36,0-27.81,0-27.81.87a93.24,93.24,0,0,0,.49,9.56h54.64c.31-3.1.49-6.3.49-9.56C329.18,354.25,316.73,354.25,301.37,354.25Z"/><path class="cls-4" d="M499.83,300.37c0-109.91-88.73-199.08-198.46-199.84V500.2C411.1,499.44,499.83,410.28,499.83,300.37Z"/><circle cx="390.15" cy="266.59" r="50.67"/><circle class="cls-1" cx="402.81" cy="245.47" r="12.67"/><circle class="cls-1" cx="371.85" cy="290.52" r="7.04"/><circle class="cls-5" cx="301.37" cy="300.37" r="199.87"/><circle class="cls-6" cx="440.82" cy="142.72" r="42.23"/><polyline class="cls-7" points="418.3 144.6 434.56 165.87 463.34 130.84"/></svg>