<?xml version="1.0" encoding="utf-8"?>
<!-- Generator: Adobe Illustrator 23.1.1, SVG Export Plug-In . SVG Version: 6.00 Build 0)  -->
<svg version="1.1" id="Layer_1" xmlns="http://www.w3.org/2000/svg" xmlns:xlink="http://www.w3.org/1999/xlink" x="0px" y="0px"
	 viewBox="0 0 2064 2588.9" style="enable-background:new 0 0 2064 2588.9;" xml:space="preserve">
<style type="text/css">
	.st0{fill:#F9E8EA;}
	.st1{fill:none;stroke:#628FE8;stroke-width:4.14;stroke-miterlimit:10;}
	.st2{fill:#C6DAF5;}
	.st3{fill:#FD716A;}
	.st4{fill:#F5D2D6;}
	.st5{fill:#FFFC97;}
	.st6{fill:#628FE8;}
	.st7{fill:none;stroke:#F5D2D6;stroke-width:4.14;stroke-linecap:round;stroke-miterlimit:10;}
	.st8{fill:#FFFFFF;}
	.st9{fill:none;stroke:#628FE8;stroke-miterlimit:10;}
	.st10{fill:#FFFFFF;stroke:#FFFFFF;stroke-miterlimit:10;}
	.st11{fill:none;stroke:#FD716A;stroke-width:13.96;stroke-linecap:round;stroke-miterlimit:10;}
	.st12{fill:#FFC6A6;}
	.st13{fill:#E2A88A;}
	.st14{fill:none;stroke:#E2A88A;stroke-width:1.34;stroke-linecap:round;stroke-miterlimit:10;}
	.st15{fill:#C69555;}
	.st16{fill:#FFB7A9;}
	.st17{fill:none;stroke:#F9E8EA;stroke-width:1.34;stroke-linecap:round;stroke-miterlimit:10;}
	.st18{opacity:0.3;fill:#FD716A;enable-background:new    ;}
	.st19{fill:#DB5B58;}
	.st20{fill:#E0AB5F;}
	.st21{clip-path:url(#SVGID_2_);}
	.st22{fill:#D39B50;}
	.st23{fill:#EF5F5B;}
	.st24{fill:#74AFD6;}
	.st25{fill:#D19DA5;}
	.st26{fill:#BC8892;}
	.st27{fill:#C2D5EF;}
	.st28{fill:#3076E5;}
	.st29{enable-background:new    ;}
	.st30{fill:none;}
	.st31{fill:#AABDF2;}
	.st32{fill:none;stroke:#FFFC97;stroke-width:6.98;stroke-linecap:round;stroke-miterlimit:10;}
	.st33{fill:none;stroke:#FFFFFF;stroke-width:0.5;stroke-linecap:round;stroke-linejoin:round;}
	.st34{fill:none;stroke:#F9E8EA;stroke-linecap:round;stroke-miterlimit:10;}
</style>
<title>nyash</title>
<rect x="223.2" y="1333.9" class="st0" width="427" height="674"/>
<rect x="1405.2" y="1273.9" class="st0" width="438" height="674"/>
<rect x="818.2" y="1167.9" class="st0" width="427" height="674"/>
<path class="st1" d="M1083.9,2295.4c-18.6,26.9-31.1,107.6-31.1,107.6"/>
<path class="st2" d="M1077.7,2295.4c0,0-5,10.6-1.4,14.6s11.8-10.5,11.8-10.5L1077.7,2295.4z"/>
<path class="st3" d="M1076.5,2303.7c0,0-29.7-26.5-7.4-58.9s15.5,28.9,15.5,28.9s18.4-47.3,31.5-39.2s-15.7,50.9-15.7,50.9
	s37.9-21.6,44.5-11.4S1099.3,2318.9,1076.5,2303.7z"/>
<path class="st4" d="M960.7,2313.7c0,0-19.6-19-8.7-25.7c13.8-8.5,18.4,19.3,18.4,19.3s0.7-21,12.9-21c6.7,0,10.1,14-2.5,27.7
	c0,0,19.2-1.3,21.7,7.7s-9.1,16.6-26.1,1c0,0,14.1,20.5,2.9,24.2c-8.4,2.8-16.1-13.8-13.6-23.3c0,0-15.2,12.7-22.9,8.4
	C930.5,2324.9,947.9,2313.7,960.7,2313.7z"/>
<circle class="st5" cx="970.9" cy="2316.9" r="5.9"/>
<path class="st6" d="M1067.5,2404.6c0,0,18.6-12.5,37.2,13.1S1067.5,2404.6,1067.5,2404.6z"/>
<path class="st6" d="M1061.1,2347.1c0,0,6.2-28.7-10.4-36.1S1044.6,2340.9,1061.1,2347.1z"/>
<path class="st7" d="M1103.2,2254.7c0,0-15.2,26.2-17.2,34.5"/>
<path class="st7" d="M1073.6,2251.9c0,0-6.2,24.8,4.1,37.3"/>
<path class="st7" d="M1129.4,2280.9c0,0-4.1,14.5-35.2,18.6"/>
<path class="st4" d="M1034.6,2343.7c0,0-16.1-4.4-22.7,6.6c-3.9,6.1-3.6,14,0.7,19.8c0,0-7.3,3.7-6.6,17.6s20.5,14.7,20.5,14.7
	s2.2,16.9,16.1,19.1s22.7-15.4,22.7-15.4s22,7.3,30.1-9.5s-7.5-22.6-7.5-22.6s9.8-19.2,2.4-28s-22.7-3.7-22.7-3.7
	s-5.2-13.6-18.4-11.9S1034.6,2343.7,1034.6,2343.7z"/>
<path class="st8" d="M1040.5,2364.2c0,0,15.4-8.1,19.8-6.6s-7.3-8.8-13.9-5.9S1040.5,2364.2,1040.5,2364.2z"/>
<path class="st8" d="M1031,2379.6c0,0,10.3,13.9,19.8,11c0,0-7.3,8.1-16.9,3.7S1031,2379.6,1031,2379.6z"/>
<path class="st8" d="M1064.7,2366.4c0,0,2.9,13.9-4.4,21.3c0,0,11,0.7,12.5-8.1S1070.6,2368.6,1064.7,2366.4z"/>
<path class="st9" d="M984.4,2353.9c0,0-7,0-5,10s10,5,10,0S989.4,2353.9,984.4,2353.9z"/>
<path class="st9" d="M1053.4,2286.9c0,0-7,0-5,10s10,5,10,0S1058.4,2286.9,1053.4,2286.9z"/>
<path class="st9" d="M1001.9,2371.3c0,0-5-4.9-10.6,3.5s3.5,10.6,7.1,7.1S1005.5,2374.9,1001.9,2371.3z"/>
<path class="st9" d="M1001.2,2413.4c0,0,6.7-1.9,2-11s-11-2.1-9.6,2.8S996.4,2414.8,1001.2,2413.4z"/>
<path class="st9" d="M984.6,2383.3c0,0-6.7-1.9-7.6,8.2s8.2,7.6,9.6,2.8S989.4,2384.6,984.6,2383.3z"/>
<path class="st10" d="M223.2,1876.3c0,0,189-102.7,427-68.5v200.1h-427L223.2,1876.3L223.2,1876.3z"/>
<path class="st8" d="M317.5,1642.3c-1.4,17.8-16,34.4-19.7,34.1s-11.9-19-10.5-36.8s12-27.9,15.6-27.7S318.9,1624.6,317.5,1642.3z"
	/>
<path class="st8" d="M263.2,1699c1.6,19.9-6.8,37.8-10.8,38.1s-15.1-19.6-16.7-39.5s8.5-23,12.6-23.3S261.6,1679.1,263.2,1699z"/>
<path class="st8" d="M272.8,1757.7c-16.2,11.7-32.7,12.3-35.1,9s4.9-17.9,21-29.7s26.7-11.3,29.1-8S288.9,1746,272.8,1757.7z"/>
<path class="st8" d="M378,1621.3c-11.9,8.3-22.6,9.7-24.3,7.3s2.7-13.6,14.6-21.9s19.6-5.3,21.3-2.9S389.9,1612.9,378,1621.3z"/>
<path class="st8" d="M349.6,1667c-17.4-1.4-28-10.6-27.7-14.1s14.4-10.8,31.8-9.4s20.1,9.3,19.8,12.8S366.9,1668.3,349.6,1667z"/>
<path class="st8" d="M308.1,1716.1c-16.8-4.7-26.4-16.5-25.4-19.9s14.7-10,31.5-5.3s23.4,16.1,22.5,19.6S324.9,1720.8,308.1,1716.1z
	"/>
<path class="st8" d="M221.8,1801.3h-0.2c-0.6-0.2-1-0.9-0.8-1.5l0,0c0.1-0.3,9.2-28.1,31.3-63.9c12.8-20.9,27.6-40.5,44.2-58.5
	c20-21.9,42.8-41.2,67.7-57.3c0.6-0.4,1.3-0.2,1.6,0.4c0.4,0.6,0.2,1.3-0.4,1.6c-24.7,16-47.3,35.2-67.2,56.9
	c-16.4,17.9-31.1,37.4-43.9,58.1c-17.6,28.5-28.1,54-31.1,63.5C222.9,1801.1,222.4,1801.4,221.8,1801.3z"/>
<line class="st11" x1="1124.1" y1="1572.9" x2="1022.9" y2="1590.3"/>
<path class="st12" d="M1063.6,1549.3c0,0-235.3-154.2-252.4-162c-4.2-1.9-11.1-2.4-12-6.6c-2.8-13.7-0.8-32.2,2.7-33.2
	c4.1-1.2,7.3,21.4,14.5,27.1c6,4.7,117.6,51.1,131.6,57.1s151.9,77,151.9,77L1063.6,1549.3z"/>
<path class="st6" d="M811.2,1387.3c-4.2-1.9-11.1-2.4-12-6.6c-2.8-13.7-0.8-32.2,2.7-33.2c4.1-1.2,7.3,21.4,14.5,27.1"/>
<path class="st12" d="M1091.5,1567c0,0-29.5,10-62.8,11.8c-35.9,1.9-82.1,0.9-82.1,0.9c-42.6,41.7-95.2,76.2-103.4,82.7
	c-3.6,2.9-7.1,9-10.6,6.4c-11.2-8.4-22-23.5-20-26.7c2.3-3.6,16.8,7.8,26.1,7.2c7.6-0.4,87.7-95.7,102.2-100.5
	s150.7-36.4,150.7-36.4L1091.5,1567z"/>
<path class="st6" d="M843.3,1662.4c-3.8,4.7-7,8.8-10.6,6.4c-12.3-8.1-23.1-25.9-21.1-29c2.3-3.6,18,10.1,27.2,9.6"/>
<path class="st2" d="M1126.2,1488.1c0,0,19.6,21.3,0,62.4c-16.2,34.1-104.6,31.9-104.6,31.9s3-84.6,5.8-125.2L1126.2,1488.1z"/>
<path class="st2" d="M1097.5,1369c-26.7,5.6-40.9,31.2-45.8,93.3c0,0-20.4,84.8,80.9,69.8C1132.7,1532.1,1160.9,1355.7,1097.5,1369z
	"/>
<path class="st3" d="M1075.4,1301.1c0,0-3.4-32.9,37.4-28.2s45.8,51.7,6.8,74.4S1075.4,1301.1,1075.4,1301.1z"/>
<path class="st12" d="M1125,1333.6l-9.7,41.7c0,0-13.1,14.8-32.1,2.1l4.9-20.9L1125,1333.6z"/>
<path class="st13" d="M1123.2,1341.3c-7.7,15.3-22.6,25-35.4,22c-0.4-0.1-0.9-0.3-1.3-0.4l1.5-6.4l37-23L1123.2,1341.3z"/>
<path class="st12" d="M1072.1,1312.8c-3.2,22.9,5,41,12.7,43.5c15.3,4.9,35.2-8.6,41.9-29.4s-5.1-41.8-18.9-46.2
	S1075.1,1291.2,1072.1,1312.8z"/>
<circle class="st12" cx="1129.4" cy="1329.2" r="10"/>
<path class="st14" d="M1127.2,1324.9c0,0,4.9,4.5-2.2,6.8"/>
<path class="st3" d="M1094.3,1288.1c2,9.8,8.9,17.9,18.2,21.5c15.9,6.4,18.1,14.8,18.1,14.8s13.1-42.6-13.7-46.8s-42,4.7-41.4,23.3
	C1075.6,1300.8,1080.1,1286.9,1094.3,1288.1z"/>
<path class="st3" d="M1132.8,1283.7c0,0,1.8-33.5,29.1-25.9s19.4,20.3,39.3,20.8s33.8-23.4,55.4-18.3s57.4,31.7,26.5,65.3
	s-29.1-20.4-55.5-9.2s-44,16.6-57.7,2.2s-20.9-37.1-33.3-29S1132.8,1283.7,1132.8,1283.7z"/>
<path class="st15" d="M1682.2,1909.4l1.7,2.9l159.3-0.4c0-64-0.2-111,0-165.6h-161V1909.4z"/>
<ellipse class="st2" cx="1693" cy="1202.8" rx="3.1" ry="7.9"/>
<path class="st6" d="M1715.2,1210.6l-19.9,1.6c-1.2,0-2.1-1-2.1-2.1l0,0v-14.4c0-1.2,1-2.1,2.1-2.1l0,0l19.9,1.6
	c1.2,0,2.1,1,2.1,2.1l0,0v11.2C1717.3,1209.6,1716.4,1210.6,1715.2,1210.6z"/>
<path class="st6" d="M1712.7,1196.7h16.2c1.4,0,2.5,1.1,2.5,2.5v7.2c0,1.4-1.1,2.5-2.5,2.5h-16.2c-1.4,0-2.5-1.1-2.5-2.5v-7.2
	C1710.2,1197.8,1711.3,1196.7,1712.7,1196.7z"/>
<path class="st16" d="M1736.9,1199.5c0,0-7.6,13.7-5.1,16.2c2.6,2.7,12.2,0,12.2,0L1736.9,1199.5z"/>
<path class="st6" d="M1741.7,1160.4c0,0-11.4,15-6.9,29.6s18.9-18.1,18.9-18.1L1741.7,1160.4z"/>
<path class="st5" d="M1767.6,1249.6c-10.2,7.7-33.1,31.7-42.6,89.5c-2.6,16.1-5,41,4.2,49.2c24,21.1,41.4,35.8,89.3,4.8
	c0,0,4.7-2.7,6.2-10.6C1832.5,1342.5,1831.9,1201.1,1767.6,1249.6z"/>
<path class="st6" d="M1664.9,1535.1c-5.3,9.6,49.4,30.2,58.1,19.2S1683.1,1502.1,1664.9,1535.1z"/>
<path class="st12" d="M1818.5,1554.8c0,0-2.9,14.9-3.4,23s-14.9,186.2-14.9,199.2c0,11.7,1.9,18.2-8.6,19.7s-59,1.9-58.6-1.9
	s49-16.8,49-16.8l-18.7-246.2L1818.5,1554.8z"/>
<path class="st12" d="M1733.1,1528.4c0,0-26.4,33.1-24.5,44.6s22.6,92.6,30.7,124.3c0.8,2.9,6.2,17.8-2.9,18.7
	c-11.6,1.2-67.2,4.3-65.7,0s50.4-16.3,50.4-16.3s-57.6-120.4-50.4-144.4s21.1-57.1,21.1-57.1L1733.1,1528.4z"/>
<path class="st2" d="M1818.5,1393.1c0,0,16.3,19.2,13.9,57.1s-9.1,112.3-9.1,112.3s-26.4,5.3-61.4,0l-8.6-45.1c0,0-25,28.8-30.2,37
	c0,0-19.7-35.5-58.1-19.2c0,0,31.6-56.4,58.6-101.3c5.9-9.9,9.9-29.4,15.3-37.4C1738.8,1396.5,1789.7,1407,1818.5,1393.1z"/>
<path class="st17" d="M1739.1,1404.9c0,0-12.5,31.2,14.2,112.5"/>
<path class="st12" d="M1785,1201l13.4,40.8c0,0-4.5,16-27.4,15l-5.7-16.9L1785,1201z"/>
<path class="st13" d="M1787.5,1208.6c1.4,17.1-6.2,33.2-18.8,37.3c-0.4,0.1-0.9,0.2-1.3,0.3l-2.1-6.2l19.7-39L1787.5,1208.6z"/>
<path class="st12" d="M1735.3,1202.7c3.6,22.9,13.5,38.2,21.5,38.3c16.1,0.3,31.2-18.6,31.6-40.4s-17.1-38.6-31.6-38.8
	S1731.8,1181.1,1735.3,1202.7z"/>
<path class="st6" d="M1789.5,1215.1c0,0,14-15.2,5.5-39.9c-9.1-26.4-44.8-16.1-45-22.4s-19.6,7.3-16.3,23.8
	c2.6,13,49.2,6.4,52.3,22.8C1788.3,1211.9,1789.5,1215.1,1789.5,1215.1z"/>
<path class="st6" d="M1765.7,1316.8c-5.7,1.2-24.5-42.2-14.9-45.1S1777.2,1314.4,1765.7,1316.8z"/>
<circle class="st12" cx="1785.9" cy="1202.6" r="10.1"/>
<path class="st14" d="M1782.7,1199.1c0,0,6,2.9-0.1,7.1"/>
<path class="st12" d="M1807.9,1292.5c-0.4,5.8-2,8.6-15.3,11.9c-7.7,1.9-98,23.1-108.5,5c-4.3-7.4-1.9-37.2,22.6-93.8l11.5,6.2
	c0,0-11.5,58.6-7.9,65.9C1711.8,1290.7,1810.8,1250.2,1807.9,1292.5z"/>
<path class="st18" d="M1529.3,1708.1c0,0-31.4,8.6-28.6,13.2s34.5-2.7,44.2-5.8C1554.8,1712.4,1529.3,1708.1,1529.3,1708.1z"/>
<path class="st2" d="M1765.6,1317c0,0-0.6-36-15-45.3c0,0,58.2-20.9,64.2,4.8S1802.6,1310.9,1765.6,1317z"/>
<path class="st12" d="M1714.8,1226.1c0,0,9.1-3.4,12.5-26.4c1.7-11.4-28.8-18.7-28.8,0c0,7,6.3,23.2,6.3,23.2L1714.8,1226.1z"/>
<path class="st17" d="M1767.1,1410.9c0,0,3.2,24.7,33.4,26.6"/>
<path class="st6" d="M1753.7,1182.9c0,0,14.9,11,15.8,16.3s18.7-9.6,18.7-9.6L1753.7,1182.9z"/>
<path class="st3" d="M1791.6,1796.7c9.4-1.3,8.9-6.6,8.7-16l-18.3-2.7c0,0-48.5,13-49,16.8S1781.1,1798.1,1791.6,1796.7z"/>
<path class="st3" d="M1736.4,1716.1c6.2-0.7,5.7-7.7,4.4-13l-19.8-3.3c0,0-48.9,12-50.4,16.3S1724.8,1717.3,1736.4,1716.1z"/>
<path class="st8" d="M1558.7,1683.4c0,0,13,20.2,35.3,4.3c0,0-6.9,15.3-17.6,14.9S1559.9,1695.9,1558.7,1683.4z"/>
<path class="st8" d="M1462,1675.7c-8.5-16.1-14.7-19.3-18.9-20.5c-3.1-0.9-39.3-5.8-32.7-29.6c0.1-0.4,0.5-0.6,0.9-0.6l23.9,2
	c0.3,0,0.6-0.1,0.7-0.3c1-1.3,5.8-8.5,21.9-4.7c3.8,0.9-2.4,1.2,1.5,1.8s2,0.4,5.6,1.3c5.4,1.3,8,8.7,12.4,13.9
	c7.1,8.4,79.5,42.8,79.5,42.8s6.5,3.1,8.2,9.7s-0.2,35.8-46.3,23.9C1489.6,1707.7,1476.5,1703.3,1462,1675.7z"/>
<path class="st18" d="M1498.4,1709.3c-0.9-23.1-8.5-26.7-8.5-26.7l-1.9,22.2C1491.4,1706.5,1494.8,1708,1498.4,1709.3z"/>
<circle cx="1445.2" cy="1629.5" r="2.4"/>
<path class="st19" d="M1415.3,1625.2l-4-0.3c-0.4,0-0.8,0.2-0.9,0.6c-0.3,1.1-0.5,2.1-0.7,3.2l0.3,0.1c2.2,0.7,4.5-0.2,5.1-2.1
	C1415.3,1626.3,1415.4,1625.7,1415.3,1625.2z"/>
<path class="st3" d="M1487.1,1645.8c-3.5,5-7.4,14.4,0.8,24.9c12.2,15.7,36.5,7.7,36.6-3.4c0-0.5,0-1,0-1.4
	C1511.2,1659.1,1496.6,1651.5,1487.1,1645.8z"/>
<path class="st3" d="M1465.5,1632.4c0-2.8-0.7-5.5-2.1-7.9c-1.3-0.4-2.6-0.7-4-0.9c-3.9-0.6,2.2-0.9-1.5-1.8
	c-16.1-3.8-20.9,3.4-21.9,4.7c-0.2,0.2-0.4,0.3-0.7,0.3h-0.3c-0.1,1.7-0.1,3.4,0.1,5.1c0.9,8.4,5.8,17.1,15,15.4
	C1458.3,1645.9,1465.4,1640.8,1465.5,1632.4z"/>
<circle class="st8" cx="1444.6" cy="1629.5" r="2.4"/>
<path class="st19" d="M1458.7,1636.8l14.1-8.3c1.2-0.7,1.6-2.2,0.9-3.4c-0.2-0.4-0.6-0.7-1-0.9l-12.6-6.6c-1.1-0.6-2.5-0.2-3,0.9
	c-0.1,0.3-0.2,0.6-0.3,0.9l-1.2,15.4c-0.1,1.1,0.8,2.1,1.9,2.2C1457.9,1637.1,1458.3,1637,1458.7,1636.8z"/>
<path class="st8" d="M1482.8,1678.9c0,0-7.8,2.9-7.3,8.3s6.4,17.3,5.2,22.7c-0.6,2.4-6.1,7.7-3.1,10.7s10.2-3.4,12.1-10.6
	c1.8-6.8,3.2-22,2-25.6S1486.4,1678.9,1482.8,1678.9z"/>
<path class="st8" d="M1523.2,1595.5c0,0-10.3-58.1-32.8-46.7S1523.2,1595.5,1523.2,1595.5z"/>
<path class="st20" d="M1843.2,1947.9H1491c-24.6-17.6-60.3-46.8-75.7-62.3l0,0c-45.6-46.2-75.3-104.2-75.3-167.2l0,0l57-0.3l0.2-0.2
	l299.8-1.6c19.5-0.1,35.3,15.5,35.4,35c0,0.1,0,0.3,0,0.4l-0.2,37.9c0,2,1.6,3.6,3.6,3.7l0,0l107.2-0.2"/>
<path class="st8" d="M1521.8,1691c-0.6,1.8-2.6,10.7,6.3,24.6c5,8.1,13.2,13.6,22.5,15.2c0,0-9,31.2-3.7,31.3s15.7-30.8,18.1-40.7
	c2.5-10.1,8.7-30.3-11.8-38.7C1533.1,1674.6,1523.5,1686,1521.8,1691z"/>
<path class="st3" d="M1557.3,1697.1c1.1-4.4,0.8-8.6-2.4-13.7c-0.5-0.2-1.1-0.5-1.6-0.7c-20.1-8.2-29.7,3.2-31.5,8.3
	c-0.4,1.3-1.6,6.2,1.1,14c1.3,1.3,2.7,2.3,4.4,3.1C1542.9,1715.5,1555.8,1703,1557.3,1697.1z"/>
<ellipse transform="matrix(0.9239 -0.3825 0.3825 0.9239 -426.6693 464.0728)" class="st8" cx="953.7" cy="1305" rx="6.1" ry="29.9"/>
<ellipse transform="matrix(9.567321e-02 -0.9954 0.9954 9.567321e-02 -444.7544 2080.4211)" class="st8" cx="922.6" cy="1285" rx="30.6" ry="6.3"/>
<ellipse transform="matrix(0.4741 -0.8805 0.8805 0.4741 -636.4442 1448.8174)" class="st8" cx="894.6" cy="1257.2" rx="33" ry="6.8"/>
<ellipse transform="matrix(0.2514 -0.9679 0.9679 0.2514 -516.3265 1755.562)" class="st8" cx="876.7" cy="1211.6" rx="34.3" ry="7"/>
<ellipse transform="matrix(0.7196 -0.6944 0.6944 0.7196 -562.2139 954.0505)" class="st8" cx="900.2" cy="1173.2" rx="7" ry="34.3"/>
<ellipse transform="matrix(0.7071 -0.7071 0.7071 0.7071 -642.2474 1077.4806)" class="st8" cx="979.5" cy="1314" rx="5.1" ry="24.9"/>
<ellipse transform="matrix(9.567321e-02 -0.9954 0.9954 9.567321e-02 -391.9898 2111.252)" class="st8" cx="966" cy="1271.4" rx="6.1" ry="29.9"/>
<ellipse transform="matrix(0.9951 -9.845546e-02 9.845546e-02 0.9951 -117.3985 99.2634)" class="st8" cx="947.1" cy="1239.1" rx="29.9" ry="6.1"/>
<ellipse transform="matrix(0.4423 -0.8969 0.8969 0.4423 -574.9291 1510.9543)" class="st8" cx="927.4" cy="1217.8" rx="7.2" ry="35"/>
<path class="st8" d="M867.4,1113.5h-0.2c-0.6,0.1-1.1,0.6-1,1.2l0,0c0,0.3,4,27.7,18.7,64.8c8.5,21.6,19.1,42.3,31.6,61.9
	c15.1,23.7,33.1,45.5,53.7,64.6c0.4,0.4,1.1,0.5,1.6,0s0.5-1.1,0-1.6l-0.1-0.1c-20.4-19-38.3-40.6-53.3-64.2
	c-12.4-19.4-22.9-40-31.4-61.4c-11.7-29.5-17.3-55-18.6-64.3C868.3,1113.9,867.9,1113.5,867.4,1113.5z"/>
<path class="st10" d="M818.2,1762.1c0,0,52-46.2,104-46.2c58,0,97,74,128,69c31-5,66-84,104-89s91,57.6,91,57.6v88.4h-427
	L818.2,1762.1z"/>
<path class="st10" d="M1405.2,1885.4c0,0,32-26.2,70-30.1s9,33.6,29,33c15.3-0.5,95-57.3,127-34.4c14.6,10.5-2,35.5,28,34.4
	s87.1-50.9,117-34c24,13.6-10,38.1,20,40.6c12,1,47-19.6,47-19.6v72.5l-438,0.5V1885.4z"/>
<path class="st8" d="M1632.9,1805.4c0,0,80.2-23.8,60.6-53.6S1632.9,1805.4,1632.9,1805.4z"/>
<g>
	<g>
		<defs>
			<rect id="SVGID_1_" x="217.9" width="1628.3" height="879.3"/>
		</defs>
		<clipPath id="SVGID_2_">
			<use xlink:href="#SVGID_1_"  style="overflow:visible;"/>
		</clipPath>
		<g class="st21">
			<rect x="217.9" class="st2" width="1628.3" height="879.3"/>
			<path class="st6" d="M218,449.4c0,0,197-184,309.4-184c144.9,0,389.2,327.3,569.9,327.3c236.1,0,452.2-245.9,589.4-245.9
				c120.5,0,159.6,99.3,159.6,99.3v436.4H218V449.4z"/>
			<path class="st8" d="M705.1,498.2c0,13.6-1.1,27.3-3.2,40.8c-2.2,13.3-5.2,26.4-9,39.3c-3.9,14.4-7.3,28.7-10.5,42.9
				c-3.1,14.2-5.9,28.7-8.3,43.7c-0.5,5.3-3.4,9.4-8.7,12.3c-4.5,2.3-9.4,3.8-14.4,4.3s-10.1,0.7-15.2,0.7H628
				c-3.6-0.6-7-2.2-9.7-4.7c-3.2-2.7-6-5.9-8.3-9.4c-2.4-3.6-4.3-7.5-5.8-11.5c-1.4-4.1-2.6-7.6-3.6-10.5c-2.9-13-5.4-25-7.6-36.1
				c-2.2-11.1-4.1-22-5.8-32.8c-1.7-10.8-2.9-22-3.6-33.5c-0.7-11.5-1.1-23.8-1.1-36.8c-0.7-3.1-3.3-5.4-6.5-5.8h-97.4
				c-2.4-0.1-4.9,0.1-7.2,0.7c-3.9,0-5.8,1.7-5.8,5c-0.5,2.1-0.7,4.3-0.7,6.5v6.6c-0.5,14-0.7,27.5-0.7,40.8v56.6
				c-0.5,8.2-3.3,13.2-8.3,15.2c-5,1.9-11.2,2.9-18.4,2.9h-2.9c-4.5,0.1-8.9-0.2-13.3-0.7c-3.1-0.5-5.3-1.4-6.5-2.9
				s-1.7-3.7-1.5-6.8s0.6-7.1,1.1-11.9c1.4-13.7,2.2-27.4,2.2-41.1c0.5-31.7,0.6-63.1,0.4-94.1s-1.1-62.4-2.5-94.1
				c-0.5-9.1-0.7-18.1-0.7-27v-27l-4.3-99.5v-23.4c-0.1-5,0.9-9.9,2.9-14.4c1.9-3.8,4.3-5.8,7.2-5.8c2,0.2,3.9,0.7,5.8,1.4
				c2.9,1.4,5.7,2.8,8.3,4c2.7,1.3,5.2,2.8,7.6,4.7c5.6,3.8,12,6,18.8,6.5c6.2,0.5,9.4,4.1,9.4,10.8c0.5,10.1,0.5,19.7,0,28.9
				c-1.4,14-2.3,27.5-2.5,40.8c-0.2,13.2-0.4,26.8-0.4,40.8c-0.5,21.2-0.7,42.2-0.7,63.1v63.1c0,6.7,0.5,11.1,1.4,13
				s3.6,2.9,7.9,2.9h7.2c13.9,0,28,0.2,42.2,0.7c14.2,0.5,28.2,1.2,42.2,2.2h6.5c3.8,0,6.5-0.8,7.9-2.5s2.2-5.9,2.2-12.6
				c0-20.7,0.2-41.2,0.7-61.7s0.7-41,0.7-61.7c1-17.8,1.4-35.6,1.5-53.4v-53.4c-0.1-7.3,1.6-14.5,5-20.9c3.3-6.2,6.9-12.2,10.8-18
				c2.9-2.9,5.5-4.3,7.9-4.3c2.3,0,4.6,0.7,6.5,2.2c7.7,3.9,15.3,7.7,22.8,11.5c7.4,3.8,15,7.7,22.7,11.5c2.7,1.4,5.6,2.2,8.7,2.5
				c2.9,0.2,5.8,0.4,8.7,0.4c7.2,0,12.4,1.3,15.5,4s5.4,7.4,6.8,14.1c1,4.8,1.7,9.4,2.2,13.7c0.5,4.6,0.7,9.1,0.7,13.7
				c0.5,21.2,0.7,42.2,0.7,63.1c0,20.9,0.2,41.9,0.7,63.1c-0.5,19.7-0.7,39.3-0.7,58.8L705.1,498.2z"/>
			<path class="st8" d="M891.2,486.7c-4.6,1.4-9.3,2.4-14.1,2.9c-4.2,0.5-8.4,0.7-12.6,0.7c-17.8,0.1-35.3-4-51.2-11.9
				s-26.9-21-33.2-39.3c-5.2-15.5-7.2-32-5.8-48.3c1.5-14.8,4-29.5,7.6-44c3.6-14.9,8.4-29.5,14.4-43.6c5.9-14.1,13.3-27.5,22-40
				c8.4-12.2,18.4-23.4,29.6-33.2c10.6-9.1,22.6-13.7,36.1-13.7c1.9,0,3.9,0.1,5.8,0.4c1.6,0.1,3.1,0.7,4.3,1.8
				c8.3,5.4,17.3,9.6,26.7,12.6c9.6,3.2,18.2,9,24.5,17c0.7,0.9,1.8,1.4,2.9,1.4c1.9,0,3.4-1.2,4.3-3.6c0.9-3.8,1.9-7.5,3.2-11.2
				c1.7-5,3.6-10.2,5.8-15.5c1.9-4.8,4.2-9.6,6.8-14.1c2.4-4.1,5-6.2,7.9-6.2c2.2,0.2,4.4,0.7,6.5,1.5c3.8,1.9,7.6,3.7,11.2,5.4
				c3.8,1.8,7.6,3.9,11.2,6.1c4.2,2.3,8.5,4.4,13,6.1c4.6,1.7,9.5,2.6,14.4,2.5c6.7,0.5,11.3,4.6,13.7,12.3
				c2.4,8.3,4.2,16.7,5.4,25.2c1.2,8.7,2,17.3,2.5,26c0,48.6-1.3,96.5-4,143.9s-6.6,95.1-11.9,143.2c-1,9.2-2.4,18.4-4.3,27.4
				c-1.9,9.1-3.9,18.3-5.8,27.4c-0.5,2.4-1.1,5-1.8,7.9c-0.7,2.7-1.5,5.3-2.5,7.9c-1.7,3.6-4.5,6.7-7.9,8.7
				c-3.9,2.4-8.2,4.4-12.6,5.8c-4.6,1.4-9.3,2.4-14.1,2.9s-8.9,0.7-12.3,0.7c-2.4,0-5.4-0.1-9-0.4c-3.5-0.2-7-0.7-10.5-1.4
				c-3.2-0.7-6.3-2-9-4c-2.5-1.8-4.4-4.3-5.4-7.2c-1.9-5.6-3.3-11.4-4.3-17.3c-2.8-15-4.4-30.2-4.7-45.4
				c-0.2-14.9-0.8-29.8-1.8-44.7v-9.5c0-2.9-0.2-5.8-0.7-8.7c0.1-1.4-0.8-2.6-2.2-2.9c-1-0.1-2,0.1-2.9,0.7
				c-3.8,3.7-7.2,7.8-10.1,12.3L847,635.2c-4.8,7.7-9.6,15.3-14.4,22.7c-4.8,7.4-9.6,15.3-14.4,23.4c-1,1.1-1.9,2.3-2.5,3.6
				c-0.6,1.3-1.5,2.5-2.5,3.6c-1.9,3.3-4.2,5.3-6.8,5.8c-3,0.5-6,0.7-9,0.7c-2.4-0.5-4.7-0.8-6.8-1.1c-2.4-0.3-4.7-0.9-6.9-1.8
				c-5.3-1.9-8.3-3.9-9-5.8c-0.7-1.9,0.1-5.3,2.5-10.1c2.4-5.3,4.8-10.2,7.2-14.8s4.8-9.3,7.2-14.1c12-22.1,24-43.8,36.1-64.9
				c12.2-21.5,25.7-42.2,40.4-62c2.9-4.3,5.9-8.5,9-12.6s6.1-8.3,9-12.6c0.9-0.9,1.7-2,2.2-3.2C889.1,490.3,890.1,488.4,891.2,486.7
				z M938.8,344.6c1-15.4-0.5-30.9-4.3-45.8c-3.9-14.8-9.7-28.9-17.3-42.2c-4.8-8.7-9.4-13-13.7-13s-9.1,2.6-14.5,8
				c-10.7,9.3-20.1,20.1-27.8,32.1c-7.9,12.2-14.7,25.1-20.2,38.6c-5.6,13.6-10,27.6-13.3,41.8c-3.2,13.8-5.6,27.7-7.2,41.8
				c-1.4,16.4,0.5,31,5.8,44c2.4,7.2,4.9,12.4,7.6,15.5c2.6,3.1,6.4,4.8,10.5,4.7c3.3,0,8.7-1.2,15.9-3.6
				c11.4-4.3,22.5-9.3,33.2-15.2c10.6-5.8,21.4-11.8,32.5-18c4.3-2.4,7-7,7.9-13.7c1-12.5,1.8-25,2.5-37.5
				C937,369.6,937.8,357.1,938.8,344.6z"/>
			<path class="st8" d="M1117.7,491.8c1-17.3,2.9-38.8,5.8-64.5s7-52,12.3-79c5.1-26.1,11.6-51.8,19.5-77.2
				c7.7-24.5,16.6-44,26.7-58.4c0.9-1.9,2-3.7,3.2-5.4c1.2-1.7,2.5-3.2,4-4.7c2.9-3.3,6-5,9.4-5c1.9,0.2,3.7,0.7,5.4,1.4
				c2.8,1.1,5.6,2.3,8.3,3.6c2.9,1.4,5.5,2.9,7.9,4.3s4.1,2.4,5.1,2.9c3.7,2.4,7.7,4.3,11.9,5.8c4.3,1.5,8.8,2.2,13.3,2.2
				c4,0.3,7.8,2,10.8,4.7c3,2.8,5.4,6.1,7.2,9.7c3.6,7.4,5.6,15.5,5.8,23.8c0,8.7-0.6,17.4-1.8,26c-1.2,8.7-2.5,17.3-4,26
				c-2.9,15.4-5.9,30.8-9,46.2s-6.1,30.8-9,46.2c-4.8,27.6-8.1,55.4-10.1,83.3c-1.9,28-1.4,56.1,1.4,84c1,6.7,1.8,13.5,2.5,20.2
				c0.8,6.9,2.3,13.7,4.7,20.2c3.4-0.5,5.5-1.8,6.5-4c1-2.2,1.9-4.2,2.9-6.1c8.2-16.3,15.6-32.8,22.4-49.4
				c6.7-16.6,13.2-33.5,19.5-50.8c9.6-27.4,18.7-55.1,27.4-82.9c8.7-27.9,17.6-55.8,26.7-83.7c4.8-14.4,9.7-28.9,14.8-43.3
				c5.1-14.5,11-28.7,17.7-42.5c3.9-8.2,8.2-16.1,13-23.8c1.9-3.3,4.3-5,7.2-5c2.2,0.2,4.4,0.7,6.5,1.5c3.8,1.4,7.4,2.9,10.8,4.3
				c3.7,1.6,7.6,2.8,11.5,3.6c6.2,0.5,9.8,4.6,10.8,12.3c1,8.4,0.7,16.9-0.7,25.2c-4.3,25.5-8.4,50-12.3,73.6
				c-3.9,23.6-7.2,47.1-10.1,70.7c-2.9,23.6-5.1,47.2-6.5,71s-2.2,48.7-2.2,74.6c0,2.9,0.1,7.7,0.4,14.4c0.3,6.7,0.7,13.7,1.4,20.9
				c0.7,7.2,1.7,14.1,2.9,20.6s2.8,10.9,4.7,13.3c3.1-1.2,5.5-3.7,6.5-6.8s1.9-5.9,2.9-8.3c2.4-8.7,4.8-17.3,7.2-26
				c2.4-8.7,4.8-17.3,7.2-26c10.6-42.8,21.3-85.2,32.1-127.3s21.8-84.3,32.8-126.6c3.8-13.9,7.9-27.5,12.3-40.8
				c4.3-13.2,8.9-26.6,13.7-40c1.3-3.5,2.8-6.9,4.7-10.1c1.8-3.1,3.8-5.9,6.1-8.6c1.9-1.9,3.8-2.9,5.8-2.9c1.2,0,2.5,0.2,3.6,0.7
				c2.8,1.9,5.7,3.6,8.7,5l8.7,4.3c2.3,1.4,4.7,2.6,7.2,3.6c2.6,1,5.2,1.7,7.9,2.2c7.7,1,13.6,3.9,17.7,8.6c4.3,5.1,7.6,11,9.7,17.3
				c1.9,5.1,3.1,10.4,3.6,15.9c0.5,5.3,1.2,10.6,2.2,15.9c2.9,28.3,3.6,56.7,2.2,85.1c-1.4,27.9-4.1,56-7.9,84.4
				c-1.9,16.8-3.8,33.3-5.8,49.4s-3.6,32.6-5.1,49.4c-2.9,34.6-0.2,70,7.9,106c1,3.4,1.9,6.4,2.9,9s3.6,4.2,7.9,4.7
				c2.4,0.5,3.1,2.4,2.2,5.8c-0.5,2.9-2.2,5.4-4.7,6.8c-2.9,1.8-6.1,3.2-9.4,4c-3.5,1-7.2,1.6-10.8,1.8c-3.6,0.2-6.6,0.4-9,0.4
				c-3.4,0-6.5-0.1-9.4-0.4s-6-0.6-9.4-1.1c-3-0.7-5.7-2.2-7.9-4.3c-8.7-7.2-16.6-15.4-23.4-24.5c-6-8.1-11-17-14.8-26.3
				c-3.9-9.7-6.9-19.7-9-29.9c-2.2-10.6-4.2-21.9-6.1-33.9c-2.4-14.6-3.8-29.3-4.3-44c-0.5-14.4-0.7-29.1-0.7-44
				c0.1-3.6-0.2-7.2-0.7-10.8l-2.2-2.2c-0.4,0.4-0.9,0.7-1.4,0.7c-1.3,2.1-2.3,4.4-2.9,6.9c-0.5,2.2-1,4.5-1.4,6.8l-21.6,93
				c-2.4,8.7-4.8,17.3-7.2,26c-2.4,8.7-4.8,17.3-7.2,26c-1.4,3.9-2.9,7.6-4.3,11.2s-3.1,7.1-5,10.5c-5.8,12-14.9,18-27.4,18h-25.2
				c-2.9-0.3-5.8-1.3-8.3-2.9c-2.5-1.7-4.8-3.6-6.8-5.8c-3.7-5.5-6.5-11.6-8.3-18c-2.2-7.6-4.1-15.3-5.4-23.1
				c-1.4-8.2-2.5-16.1-3.2-23.8c-0.7-7.7-1.1-14.2-1.2-19.5c-1-19.7-1-39.2,0-58.4c1-19.2,2.4-38.7,4.3-58.4
				c1.9-20.7,4.1-41.1,6.5-61.3s5.5-40.4,9.4-60.6c0.5-1.8,0.6-3.6,0.4-5.4c-0.3-1.8-0.4-3.6-0.4-5.4c-1.9,0-3.4,1.2-4.3,3.6
				c-1.9,5.3-3.8,10.3-5.8,14.8c-1.9,4.5-3.9,9.2-5.8,14.1c-10.1,28.8-19.3,58.1-27.8,87.6s-17.2,59-26.3,88.3
				c-5.3,17.8-10.7,35.5-16.2,53s-10.9,35-16.2,52.3c-1.9,5.8-4.1,11.4-6.5,17s-4.8,11-7.2,16.2c-3.9,8.3-11.3,14.5-20.2,16.9
				c-8.7,2.6-17.6,3.9-26.7,4h-19.1c-6,0-12.4-0.2-19.1-0.7c-8.8,0.1-17.5-2.4-24.9-7.2c-7.6-4.9-14.2-11.1-19.5-18.4
				c-5.5-7.4-10-15.5-13.3-24.2c-3.2-7.9-5.6-16.1-7.2-24.5C1118.4,569,1116.2,530.4,1117.7,491.8z M1390.3,312.2
				c0.4,0.4,0.7,0.9,0.7,1.4C1392,312.7,1391.7,312.2,1390.3,312.2L1390.3,312.2z"/>
			<path class="st2" d="M607.7,586.1c-6.4,0-12.7,0.1-19,0.3c1.3,7.8,2.8,15.8,4.3,23.7c2.2,11.1,4.7,23.1,7.6,36.1
				c1,2.9,2.2,6.4,3.6,10.5c1.4,4.1,3.4,8,5.8,11.5c2.3,3.5,5.1,6.7,8.3,9.4c2.7,2.5,6.1,4.1,9.7,4.7h7.9c5.1,0,10.1-0.2,15.2-0.7
				c5-0.5,9.9-2,14.4-4.3c5.3-2.9,8.2-7,8.7-12.3c2.4-14.9,5.2-29.4,8.3-43.6c2.2-9.8,4.5-19.7,7-29.7
				C662.3,587.8,635,586,607.7,586.1z"/>
			<path class="st2" d="M421.3,634.6c4.4,0.6,8.9,0.8,13.3,0.7h2.9c7.2,0,13.4-1,18.4-2.9s7.8-7,8.3-15.2v-12.8
				c-19.9,5.8-37.1,12.8-50.9,20.7c-0.2,3,0.3,5.2,1.5,6.6C416,633.1,418.2,634.1,421.3,634.6z"/>
			<path class="st15" d="M1537.6,637.6l0.7,1.3h76c-4.9-23.6-7.4-47.6-7.3-71.6h-69.4L1537.6,637.6z"/>
			<path class="st22" d="M695.1,495.2c0,0-14,130.7-13.4,139.2c0.2,2.1,0.8,4.9-0.6,6.2c-4.7,4.1-20.4,3.8-21.6,2.7
				c-1.3-1.4,14.9-4,15.6-8.2c0.5-3.4-5.4-57.8-6-64.6c-0.6-6.8-2.7-77-2.7-77L695.1,495.2z"/>
			<path class="st3" d="M700.3,501.1c0,0,31.6-0.6,32.8-12.9s-1.1-81.4-12.9-94.3s-51.5,16.4-51.5,16.4L700.3,501.1z"/>
			<path class="st3" d="M696.8,402.7c0,0,26.2,0,27.5-4.1s-9.3-32.8-29.2-34s-24,41-24,41L696.8,402.7z"/>
			<path class="st5" d="M681.7,634.4c0.2,2.1,1.1,7-0.7,7.7c-5.3,2.1-21.8,3.5-21.5,1.1c0.4-3.5,14.9-4,15.6-8.2"/>
			<path class="st12" d="M603.8,533.2c0,0,8.2,108.1,7.6,115.3c-0.1,1.8-1.2,4.2,0,5.3c4.1,3.5,10.7,6.3,11.7,5.3
				c1.2-1.2-5.8-6.4-6.4-10c-0.5-2.9,4.7-49.2,5.3-55c0.6-5.8,2.3-65.6,2.3-65.6L603.8,533.2z"/>
			<path class="st12" d="M626,527.4c0,0,9.4,111.8,9.4,114.7c0,1.5-0.3,4.3,1.2,4.7c4.7,1.2,12.9,1.8,12.9,0.6
				c0-1.8-8.8-4.7-8.8-6.4c0-2.9,2.9-46.8,3.5-52.7s2.3-65.6,2.3-65.6L626,527.4z"/>
			<path class="st20" d="M713.8,491.7c0,0-14,130.7-13.4,139.2c0.2,2.1,0.8,4.9-0.6,6.2c-4.7,4.1-13.4,12.6-14.5,11.5
				c-1.3-1.4,7.9-12.8,8.5-17c0.5-3.4-5.3-57.8-6-64.6c-0.7-6.8-2.7-77-2.7-77L713.8,491.7z"/>
			<path class="st5" d="M700.4,630.9c0.2,2.1,0.8,4.9-0.6,6.2c-4.7,4.1-13.2,12.4-14.5,11.5c-3.1-2.3,7.9-12.8,8.5-17"/>
			<path class="st2" d="M600.5,500.8c0,0-2.9,34,0.6,36.3c0,0,19.9,0.6,24.6-1.8v-0.6c0,0,17.6,1.2,22.3-1.2c0,0,1.8-26.3,0.6-32.8
				L600.5,500.8L600.5,500.8z"/>
			<path class="st4" d="M716.7,491.7c0,0-15.2,5.3-26.3,6.4s-24-4.7-24-4.7l-7-58l37.5-25.2l17,12.3L716.7,491.7z"/>
			<path class="st6" d="M617.2,420.3l13.5,4.1c0,0,25.2,20.5,18.7,76.7c-16.2,3.5-33,3.5-49.2,0c0,0-4.5-66.3,5-71.5
				S617.2,420.3,617.2,420.3z"/>
			<path class="st23" d="M691.4,483.6c-7.8,0.1-15.5-0.5-23.1-1.9l1.5-7.5c19.6,3.9,49.4,0,49.7,0l1,7.5
				C710.8,482.9,701.1,483.5,691.4,483.6z"/>
			<path class="st6" d="M629.5,422.6c0,0,14.6,7,19.9,10.5s19.3,8.2,19.3,8.2l-2.3,10.6l-44.5-22.2L629.5,422.6z"/>
			<path class="st12" d="M624.4,468.7c0,0,1.7-5.7,3.4-6.3s1.8,2.9,1.8,2.9L624.4,468.7z"/>
			<path class="st5" d="M629.2,378.4c0,0-8.8-5.3-14,0s-4.1,12.9-6.4,15.8s-12.3,15.2-2.3,21.7s17-1.2,17-1.2l3.5,6.4
				c0,0,10,1.2,13.5-2.9s3.5-8.8,2.9-16.4s2.9-15.8-1.8-20.5S632.7,377.2,629.2,378.4z"/>
			<path class="st12" d="M616.9,401.8v18.7c0,0,4.1,7.6,13.5,4.1v-9.4L616.9,401.8z"/>
			<path class="st13" d="M616.9,405.3c1.7,7.3,7.1,12.9,12.9,12.9c0.2,0,0.4,0,0.6-0.1v-2.9l-13.5-13.5V405.3z"/>
			<path class="st12" d="M641.5,399.5c-1.8,10-7.6,16.4-11.1,16.4c-7,0-13.5-8.3-13.5-17.8s7.8-16.7,14-16.7
				S643.2,390.1,641.5,399.5z"/>
			<path class="st13" d="M627.8,381.9c-5.1,1.7-10.1,7.2-10.8,14.4c2,0,11.3-1.2,15.4-8.2c0,0,5.3,7,9.3,8.2
				c0.1-4.5-1.6-8.9-4.8-12.2L627.8,381.9z"/>
			<path class="st5" d="M612.8,394.8c0,0,16.4,0.6,18.7-11.1c0,0,4.7,7.6,10.5,10l-1.2-10l-16.7-5l-7.3,8.5L612.8,394.8z"/>
			<circle class="st12" cx="615.5" cy="398.6" r="4.4"/>
			<path class="st13" d="M616.9,400.5c-0.1,0-0.1,0-0.2-0.1c-0.9-0.7-1.3-1.3-1.3-2c0.1-1,1.3-1.6,1.3-1.6c0.1-0.1,0.3,0,0.4,0.1
				l0,0c0.1,0.1,0,0.3-0.1,0.4c0,0-0.9,0.4-1,1.1s0.5,1.1,1,1.5c0.1,0.1,0.2,0.3,0.1,0.4l0,0C617.1,400.5,617,400.5,616.9,400.5z"/>
			<path class="st6" d="M611.4,648.6c-0.1,1.8-1.2,4.2,0,5.3c4.1,3.5,10.7,6.3,11.7,5.3c1.2-1.2-5.8-6.4-6.4-10"/>
			<path class="st6" d="M635.4,642.1c0,1.5-0.3,4.3,1.2,4.7c4.7,1.2,12.9,1.8,12.9,0.6c0-1.8-8.8-4.7-8.8-6.4"/>
			<polygon class="st8" points="626.3,535 625.8,535 626.9,514.5 627.4,514.5 			"/>
			<path class="st12" d="M719.3,492.4c0,0,1.2,8.5,0.5,11.5s-1.6,7.1-4.2,4.7s-1.9-10-1.9-10l3.1-6.9L719.3,492.4z"/>
			<path class="st12" d="M713.8,491.7c0,0-1.8,8.2-2.3,10.5s0.4,4.7,3.4-1.5s1.8-9.1,1.8-9.1L713.8,491.7z"/>
			<path class="st4" d="M659.5,435.5c0,0-3.8-41.2,27.9-42.1c20.5-0.6,27.5,8.8,34,32.2s0,69.7,0,69.7s-5.9-1.8-9.4,0
				c0,0-7.6-64.4-8.8-69.1S659.5,435.5,659.5,435.5z"/>
			<path class="st12" d="M693.7,374.1v20.7c0,0-4.5,8.4-14.9,4.5V389L693.7,374.1z"/>
			<path class="st13" d="M693.7,378c-1.9,8-7.8,14.2-14.2,14.2c-0.2,0-0.4,0-0.6-0.1v-3.2l14.9-14.9v4H693.7z"/>
			<path class="st12" d="M666.7,373c2.9,10.8,9.9,17.3,13.8,17c7.7-0.7,14-10.4,13.2-20.9s-10.1-17.6-17-17S664,362.8,666.7,373z"/>
			<path class="st24" d="M686,350.9c-9.2-2.9-20.6-2.4-20,13.2c3.1-0.4,6.3-0.6,9.4-0.6c7.7,0,14.3,1.1,17.3,2.6
				c1.2-0.7,2-1.1,2-1.1S695.4,353.8,686,350.9z"/>
			<path class="st6" d="M692.2,365.9c0,0-9.1-9.7-19.6-10.3s-17,1.2-15.8,5.3s9.5,3.9,9.5,3.9S684.2,362.1,692.2,365.9z"/>
			<path class="st23" d="M679.5,456.3l-6.9-3.2c1.2-2.7,2.9-10.5,0.6-33c-1-9.4-2.3-18.2-3-22.4c-0.2-1.5,0.8-2.9,2.3-3.2l2-0.4
				c1.5-0.3,3,0.7,3.2,2.3l0,0C679.6,407.6,685,444.1,679.5,456.3z"/>
			<circle class="st12" cx="695.3" cy="369.6" r="4.8"/>
			<path class="st13" d="M693.8,371.8c-0.1,0-0.2,0-0.2-0.1c-0.1-0.1-0.1-0.3,0-0.5c0.5-0.5,1.1-1.1,1-1.7s-1.2-1.1-1.2-1.2
				c-0.2-0.1-0.3-0.2-0.2-0.4l0,0c0.1-0.2,0.2-0.3,0.4-0.2c0.1,0,1.4,0.5,1.6,1.6c0.1,0.7-0.3,1.5-1.2,2.3
				C694,371.8,693.9,371.8,693.8,371.8z"/>
			<path class="st23" d="M714,468.5c-0.8,1.3-2.5,1.8-3.8,1c-0.2-0.1-0.3-0.2-0.4-0.3c-7.8-6.7-12.7-21.4-14.5-43.8
				c-0.8-10.5-1-21.1-0.5-31.7c0.1-1.5,1.4-2.7,2.9-2.6h0.1l2.1,0.1c1.5,0.1,2.7,1.4,2.6,2.9c-0.4,10.3-0.3,20.5,0.5,30.8
				c1.6,19.5,5.7,33,11.6,38.3c1,0.9,1.3,2.4,0.6,3.5L714,468.5z"/>
			<path class="st4" d="M711.9,403c3.9,5.2,6.8,12.6,9.5,22.5c6.4,23.4,0,69.7,0,69.7s-5.9-1.8-9.4,0c0,0-7.6-64.4-8.8-69.1"/>
			<polygon class="st8" points="693.7,493.4 659.9,488.5 627.9,493.4 627.9,466.5 627.9,439.6 658.9,435.3 691.7,439.6 692.7,463.5 
							"/>
			<path class="st12" d="M625.1,470.9c0,0,5.8-2.3,7.6-4.1s4.1-4.1,1.8-5.3s-7,2.3-7,2.3l-3.5,5.3L625.1,470.9z"/>
			<path class="st12" d="M695.7,462.4c-0.6,0.8-2.2,1.5-4-0.3s-4.1-4.1-1.8-5.3s6.4,0.6,7,2.3C697.2,460,696.2,461.7,695.7,462.4z"
				/>
			<path class="st3" d="M980.9,498.3c-1.8,0-3.3-1.4-3.3-3.2c0-1.6,1.1-3,2.7-3.3l47.2-8.1c1.8-0.3,3.5,0.9,3.8,2.7
				s-0.9,3.5-2.7,3.8l-47.2,8.1C981.3,498.3,981.1,498.3,980.9,498.3z"/>
			<path class="st12" d="M999.9,475.9c0,0-109.8-71.9-117.7-75.6c-2-0.9-5.2-1.1-5.6-3.1c-1.3-6.4-0.4-15,1.3-15.5
				c1.9-0.6,3.4,10,6.8,12.7c2.8,2.2,54.8,23.8,61.4,26.6s70.8,35.9,70.8,35.9L999.9,475.9z"/>
			<path class="st6" d="M882.2,400.3c-2-0.9-5.2-1.1-5.6-3.1c-1.3-6.4-0.4-15,1.3-15.5c1.9-0.6,3.4,10,6.8,12.7"/>
			<path class="st12" d="M1012.9,484.2c-9.5,3-19.3,4.9-29.3,5.5c-16.8,0.9-38.3,0.4-38.3,0.4c-19.9,19.5-44.4,35.6-48.2,38.6
				c-1.7,1.3-3.3,4.2-4.9,3c-5.2-3.9-10.2-11-9.3-12.4c1.1-1.7,7.9,3.6,12.2,3.4c3.5-0.2,40.9-44.6,47.7-46.9s70.3-17,70.3-17
				L1012.9,484.2z"/>
			<path class="st6" d="M897.1,528.7c-1.8,2.2-3.3,4.1-4.9,3c-5.8-3.8-10.8-12.1-9.8-13.5c1.1-1.7,8.4,4.7,12.7,4.5"/>
			<path class="st2" d="M1029.1,447.4c0,0,9.1,9.9,0,29.1c-7.6,15.9-48.8,14.9-48.8,14.9s1.4-39.4,2.7-58.4L1029.1,447.4z"/>
			<path class="st2" d="M1015.7,391.8c-12.5,2.6-19.1,14.5-21.3,43.5c0,0-9.5,39.5,37.8,32.6
				C1032.1,467.9,1045.3,385.6,1015.7,391.8z"/>
			<path class="st3" d="M1005.4,360.1c0,0-1.6-15.3,17.5-13.2c19,2.2,21.3,24.1,3.2,34.7S1005.4,360.1,1005.4,360.1z"/>
			<path class="st12" d="M1028.5,375.3l-4.5,19.5c0,0-6.1,6.9-15,1l2.3-9.7L1028.5,375.3z"/>
			<path class="st13" d="M1027.7,378.9c-3.6,7.2-10.5,11.7-16.5,10.3c-0.2-0.1-0.4-0.1-0.6-0.2l0.7-3l17.3-10.7L1027.7,378.9z"/>
			<path class="st12" d="M1003.8,365.6c-1.5,10.7,2.3,19.1,5.9,20.3c7.1,2.3,16.4-4,19.5-13.7s-2.4-19.5-8.8-21.5
				S1005.2,355.5,1003.8,365.6z"/>
			<circle class="st12" cx="1030.6" cy="373.2" r="4.7"/>
			<path class="st13" d="M1028.6,374.7c-0.1,0-0.3-0.1-0.3-0.2c-0.1-0.2,0-0.3,0.2-0.4c0.6-0.2,1.4-0.6,1.6-1.2s-0.6-1.5-0.6-1.5
				c-0.1-0.1-0.1-0.3,0-0.4l0,0c0.1-0.1,0.3-0.1,0.4,0l0,0c0.6,0.5,0.9,1.3,0.8,2.1C1030.5,373.8,1029.8,374.3,1028.6,374.7
				L1028.6,374.7z"/>
			<path class="st3" d="M1014.2,354.1c1,4.6,4.1,8.3,8.5,10c7.4,3,8.5,6.9,8.5,6.9s6.1-19.8-6.4-21.8s-19.6,2.2-19.3,10.9
				C1005.5,360,1007.6,353.5,1014.2,354.1z"/>
			<path class="st3" d="M1032.2,352c0,0,0.9-15.6,13.6-12.1s9.1,9.5,18.3,9.7s15.8-10.9,25.8-8.5s26.8,14.8,12.4,30.5
				s-13.6-9.5-25.9-4.3s-20.5,7.8-26.9,1s-9.8-17.3-15.5-13.5S1032.2,352,1032.2,352z"/>
			<ellipse class="st2" cx="1542.2" cy="332.8" rx="1.3" ry="3.4"/>
			<path class="st6" d="M1551.8,336.2l-8.6,0.7c-0.5,0-0.9-0.4-0.9-0.9v-6.2c0-0.5,0.4-0.9,0.9-0.9l8.6,0.7c0.5,0,0.9,0.4,0.9,0.9
				v4.8C1552.7,335.7,1552.3,336.2,1551.8,336.2z"/>
			<path class="st6" d="M1550.7,330.2h7c0.6,0,1.1,0.5,1.1,1.1v3.1c0,0.6-0.5,1.1-1.1,1.1h-7c-0.6,0-1.1-0.5-1.1-1.1v-3.1
				C1549.6,330.7,1550.1,330.2,1550.7,330.2z"/>
			<path class="st16" d="M1561.1,331.4c0,0-3.3,5.9-2.2,7s5.3,0,5.3,0L1561.1,331.4z"/>
			<path class="st6" d="M1563.2,314.5c0,0-4.9,6.5-3,12.8s8.2-7.8,8.2-7.8L1563.2,314.5z"/>
			<path class="st5" d="M1574.4,353c-4.4,3.3-14.3,13.7-18.4,38.6c-1.1,6.9-2.2,17.7,1.8,21.2c10.3,9.1,17.8,15.4,38.5,2.1
				c1.5-1.1,2.5-2.7,2.7-4.5C1602.4,393.1,1602.1,332.1,1574.4,353z"/>
			<path class="st6" d="M1530.1,476.2c-2.3,4.1,21.3,13,25.1,8.3S1537.9,461.9,1530.1,476.2z"/>
			<path class="st12" d="M1596.3,484.7c0,0-1.2,6.4-1.4,9.9s-6.4,80.3-6.4,85.9c0,5,0.8,7.9-3.7,8.5s-25.5,0.8-25.3-0.8
				s21.1-7.2,21.1-7.2l-8.1-106.2L1596.3,484.7z"/>
			<path class="st12" d="M1559.5,473.3c0,0-11.4,14.3-10.6,19.2s9.7,40,13.2,53.6c0.3,1.3,2.7,7.7-1.2,8.1c-5,0.5-29,1.9-28.4,0
				s21.7-7,21.7-7s-24.8-52-21.7-62.3s9.1-24.6,9.1-24.6L1559.5,473.3z"/>
			<path class="st2" d="M1596.3,414.9c0,0,7,8.3,6,24.6s-3.9,48.4-3.9,48.4c-8.8,1.4-17.7,1.4-26.5,0l-3.7-19.5
				c0,0-10.8,12.4-13,15.9c0,0-8.5-15.3-25.1-8.3c0,0,13.6-24.3,25.2-43.7c2.6-4.3,4.3-12.7,6.6-16.2
				C1562,416.4,1583.9,420.9,1596.3,414.9z"/>
			<path class="st8" d="M1568.2,468.8c-0.1,0-0.2-0.1-0.2-0.2c-6-18.2-7.3-30.4-7.4-37.5c-0.1-7.7,1.2-11.1,1.3-11.2
				c0-0.1,0.2-0.2,0.3-0.2c0.1,0,0.2,0.2,0.2,0.3l0,0c0,0-1.3,3.4-1.2,11.1c0.1,7,1.4,19.2,7.3,37.3
				C1568.5,468.6,1568.4,468.7,1568.2,468.8C1568.3,468.7,1568.3,468.7,1568.2,468.8L1568.2,468.8z"/>
			<path class="st12" d="M1581.9,332l5.8,17.6c0,0-2,6.9-11.8,6.5l-2.4-7.3L1581.9,332z"/>
			<path class="st13" d="M1583,335.3c0.6,7.4-2.7,14.3-8.1,16.1c-0.2,0.1-0.4,0.1-0.6,0.1l-0.9-2.7l8.5-16.8L1583,335.3z"/>
			<path class="st12" d="M1560.4,332.8c1.6,9.9,5.8,16.5,9.3,16.5c6.9,0.1,13.4-8,13.6-17.4s-7.4-16.6-13.6-16.7
				S1559,323.4,1560.4,332.8z"/>
			<path class="st6" d="M1583.8,338.1c0,0,6-6.6,2.3-17.2c-3.9-11.4-19.3-6.9-19.4-9.7s-8.4,3.1-7,10.2c1.1,5.6,21.2,2.8,22.6,9.8
				C1582.7,333.6,1583.2,335.9,1583.8,338.1z"/>
			<path class="st8" d="M1573.6,382c-2.5,0.5-10.6-18.2-6.4-19.5S1578.6,380.9,1573.6,382z"/>
			<circle class="st12" cx="1582.3" cy="332.7" r="4.3"/>
			<path class="st13" d="M1580.8,334.6c-0.1,0-0.2-0.1-0.2-0.1c-0.1-0.1-0.1-0.3,0.1-0.4c0.5-0.3,1.1-0.9,1.1-1.5s-1-1.1-1-1.1
				c-0.1-0.1-0.2-0.2-0.1-0.4l0,0c0.1-0.1,0.2-0.2,0.4-0.1c0,0,1.2,0.6,1.3,1.6c0,0.7-0.4,1.3-1.3,2
				C1580.9,334.6,1580.9,334.6,1580.8,334.6z"/>
			<path class="st12" d="M1591.8,371.5c-0.2,2.5-0.9,3.7-6.6,5.1c-3.3,0.8-42.3,10-46.8,2.2c-1.8-3.2-0.8-16,9.7-40.5l5,2.7
				c0,0-5,25.3-3.4,28.4C1550.3,370.7,1593,353.3,1591.8,371.5z"/>
			<path class="st25" d="M1471.6,550.8c0,0-13.5,3.7-12.3,5.7s14.9-1.2,19-2.5C1482.4,552.7,1471.6,550.8,1471.6,550.8z"/>
			<path class="st2" d="M1573.5,382.1c0,0-0.2-15.5-6.4-19.6c0,0,25.1-9,27.7,2S1589.5,379.4,1573.5,382.1z"/>
			<path class="st12" d="M1551.6,342.9c0,0,3.9-1.5,5.4-11.4c0.7-4.9-12.4-8.1-12.4,0c0,3,2.7,10,2.7,10L1551.6,342.9z"/>
			<path class="st8" d="M1588.6,434.3c-13.1-0.8-14.6-11.6-14.6-11.7l0.5-0.1c0,0.1,1.5,10.5,14.2,11.3L1588.6,434.3z"/>
			<path class="st6" d="M1568.4,324.2c0,0,6.4,4.8,6.8,7s8.1-4.1,8.1-4.1L1568.4,324.2z"/>
			<path class="st20" d="M1559.2,568c0-7.5-6-13.7-13.5-13.7c-0.1,0-0.1,0-0.2,0l-31.1,0.2c0.2,1.5,0.4,2.9,0.6,4.3
				c1.9,12,4,23.3,6.1,33.9c2.1,10.2,5.1,20.3,9,29.9c3.8,9.4,8.8,18.2,14.8,26.3c6.7,8.8,14.4,16.9,22.9,24h56.6
				c2.4-1.5,4-3.9,4.5-6.7c1-3.4,0.2-5.3-2.2-5.8c-4.3-0.5-7-2-7.9-4.7c-0.9-2.7-1.9-5.6-2.9-9c-4.5-19.5-7.3-39.4-8.5-59.4
				l-48.4,0.1L1559.2,568z"/>
			<path class="st20" d="M1449.2,648.8c2.8-2.9,5.1-6.2,6.8-9.9c1.9-3.4,3.6-6.9,5-10.5s2.9-7.3,4.3-11.2c2.4-8.7,4.8-17.3,7.2-26
				c2.4-8.7,4.8-17.3,7.2-26l2.5-10.7l-34.1,0.2c0,0.1,0,0.2-0.1,0.3c-2.4,8.7-4.8,17.3-7.2,26c-2.4,8.7-4.8,17.3-7.2,26
				c-1,2.4-1.9,5.2-2.9,8.3c-1,3.2-3.4,5.7-6.5,6.8c-1.9-2.4-3.5-6.8-4.7-13.3s-2.2-13.3-2.9-20.6c-0.7-7.2-1.2-14.2-1.4-20.9
				c-0.2-5.4-0.3-9.5-0.3-12.4l-24.9,0.2l0,0C1390,593.4,1415.2,627.2,1449.2,648.8z"/>
			<path class="st3" d="M1584.8,589c4-0.5,3.8-2.8,3.7-6.9l-7.9-1.2c0,0-20.9,5.6-21.1,7.2C1559.3,589.7,1580.2,589.6,1584.8,589z"
				/>
			<path class="st3" d="M1561,554.2c2.7-0.3,2.4-3.3,1.9-5.6l-8.5-1.4c0,0-21.1,5.2-21.7,7C1532.1,556,1555.9,554.7,1561,554.2z"/>
			<path class="st5" d="M433.8,35.9c0,0-65.1,1.6-52.1,26.1S433.8,35.9,433.8,35.9z"/>
			<path class="st5" d="M615.5,82.3c0,0-65.1,1.6-52.1,26S615.5,82.3,615.5,82.3z"/>
			<path class="st5" d="M552.7,19.6c0,0-65.1-6.5-57,16.3S552.7,19.6,552.7,19.6z"/>
			<path class="st5" d="M751.8,81.6c0,0-65.4,1.1-54.7,22.8S751.8,81.6,751.8,81.6z"/>
			<path class="st5" d="M246.7,263.3c0,0-65.4,1.1-54.7,22.8S246.7,263.3,246.7,263.3z"/>
			<path class="st5" d="M255.4,103.6c0,0-65.4,1.1-54.7,22.8S255.4,103.6,255.4,103.6z"/>
			<path class="st5" d="M510.3,99.4c0,0-42.3-4.9-39.1,13S510.3,99.4,510.3,99.4z"/>
			<path class="st5" d="M331.8,27c0,0-42.3-4.9-39.1,13S331.8,27,331.8,27z"/>
			<path class="st5" d="M679.5,27c0,0-42.3-4.9-39.1,13S679.5,27,679.5,27z"/>
			<path class="st5" d="M543.4,181.2c0,0-42.3-4.9-39.1,13S543.4,181.2,543.4,181.2z"/>
			<path class="st5" d="M331.8,225.2c0,0-42.3-4.9-39.1,13S331.8,225.2,331.8,225.2z"/>
			<path class="st5" d="M294.8,319.6c0,0-42.3-4.9-39.1,13C258.9,350.5,294.8,319.6,294.8,319.6z"/>
			<path class="st5" d="M355.6,117.3c0,0-48.9-6.5-47.2,11.4S355.6,117.3,355.6,117.3z"/>
			<path class="st4" d="M217.9,606.2c0,0,74.9-7.1,118.9,69.5s92.1,89.5,140,101c81.4,19.5,81.4,105.8,81.4,105.8H217.9V606.2z"/>
			<path class="st2" d="M1374.5,607.3c1.3,7.7,3.1,15.4,5.4,22.9c1.8,6.4,4.6,12.5,8.3,18c2.1,2.1,4.4,4.1,6.8,5.8
				c2.5,1.6,5.3,2.6,8.3,2.9h25.2c12.5,0,21.6-6,27.4-18c1.9-3.3,3.6-6.8,5-10.3c-14.3,1.6-22.7-4.8-31.6-10.3
				c-1.3,1.8-3.1,3.2-5.1,4.1c-1.6-2-2.9-5.3-4-10c-5.6-3.8-12.7-9.8-21.5-10.8C1391.1,600.5,1383.1,600.9,1374.5,607.3z"/>
			<path class="st2" d="M1530.2,622.7c3.8,9.4,8.8,18.2,14.8,26.3c6.8,9.1,14.7,17.3,23.4,24.5c2.2,2.1,5,3.6,7.9,4.3
				c3.4,0.5,6.5,0.8,9.4,1.1c2.9,0.3,6,0.4,9.4,0.4c2.4,0,5.4-0.1,9-0.4c3.7-0.2,7.3-0.9,10.8-1.8c3.3-0.8,6.5-2.2,9.4-4
				c2.5-1.5,4.2-4,4.7-6.8c1-3.4,0.2-5.3-2.2-5.8c-4.3-0.5-7-2-7.9-4.7c-1-2.6-1.9-5.6-2.9-9c-0.6-2.7-1.2-5.3-1.7-8l0,0
				c-26.1,4.3-35.8-33.1-66.8-36.4c-5.2-0.5-13.2,1.9-22.5,5.5C1526.5,613.1,1528.3,617.9,1530.2,622.7z"/>
			<path class="st4" d="M1484.3,540.1c0,0,5.6,8.7,15.2,1.8c0,0-3,7.3-7.6,7.2S1484.8,545.5,1484.3,540.1z"/>
			<path class="st4" d="M1442.6,536.8c-3.7-6.9-6.3-8.3-8.1-8.9c-1.3-0.4-17-2.5-14.1-12.8c0-0.2,0.2-0.3,0.4-0.2l10.3,0.9
				c0.1,0,0.2,0,0.3-0.1c0.4-0.6,2.5-3.7,9.4-2c1.6,0.4-1,0.5,0.7,0.8c0.8,0.1,1.6,0.3,2.4,0.5c2.3,0.5,3.4,3.7,5.3,6
				c3,3.7,34.3,18.5,34.3,18.5c1.7,0.9,3,2.4,3.6,4.2c0.7,2.8-0.1,15.4-20,10.3C1454.5,550.6,1448.8,548.7,1442.6,536.8z"/>
			<path class="st25" d="M1458.3,551.3c-0.4-10-3.7-11.5-3.7-11.5l-0.8,9.6C1455.2,550.1,1456.7,550.7,1458.3,551.3z"/>
			<circle cx="1435.3" cy="516.9" r="1"/>
			<path class="st26" d="M1422.4,515l-1.7-0.1c-0.2,0-0.3,0.1-0.4,0.2c-0.1,0.5-0.2,0.9-0.3,1.4h0.1c0.9,0.4,1.8-0.1,2.2-0.9
				C1422.4,515.5,1422.5,515.2,1422.4,515z"/>
			<path class="st4" d="M1468.4,543.4c-0.3,0.8-1.1,4.6,2.7,10.6c2.1,3.5,5.7,5.9,9.7,6.6c0,0-3.9,13.5-1.6,13.5s6.8-13.3,7.8-17.5
				c1-4.2,3.8-13.1-5.1-16.7C1473.2,536.3,1469.1,541.2,1468.4,543.4z"/>
			<path class="st25" d="M1483.7,546c0.6-2,0.2-4.2-1.1-5.9c-0.2-0.1-0.4-0.2-0.7-0.3c-8.7-3.5-12.8,1.4-13.6,3.6
				c-0.2,0.5-0.7,2.7,0.5,6c0.5,0.6,1.2,1,1.9,1.3C1477.5,553.9,1483.1,548.6,1483.7,546z"/>
			<path class="st25" d="M1453.4,523.9c-2.4,3.2-2.3,7.7,0.3,10.7c5.2,6.8,15.7,3.3,15.8-1.5c0-0.2,0-0.4,0-0.6
				C1463.8,529.6,1457.5,526.4,1453.4,523.9z"/>
			<path class="st25" d="M1444.1,518.1c0-1.2-0.3-2.4-0.9-3.4c-0.6-0.2-1.1-0.3-1.7-0.4c-1.7-0.3,1-0.4-0.7-0.8
				c-6.9-1.6-9,1.5-9.4,2c-0.1,0.1-0.2,0.1-0.3,0.1h-0.1c0,0.7,0,1.5,0.1,2.2c0.4,3.6,2.5,7.4,6.5,6.7
				C1441,524,1444,521.7,1444.1,518.1z"/>
			<circle class="st6" cx="1435.1" cy="516.9" r="1"/>
			<path class="st26" d="M1441.1,520l6.1-3.6c0.5-0.3,0.7-0.9,0.4-1.4c-0.1-0.2-0.2-0.3-0.4-0.4l-5.4-2.8c-0.5-0.2-1.1,0-1.3,0.5
				c0,0.1-0.1,0.2-0.1,0.3l-0.5,6.6c0,0.5,0.4,0.9,0.9,0.9C1440.9,520.1,1441,520.1,1441.1,520z"/>
			<path class="st4" d="M1451.6,538.2c0,0-3.4,1.2-3.1,3.6c0.3,2.4,2.8,7.5,2.2,9.8c-0.2,1-2.6,3.3-1.3,4.6c1.3,1.3,4.4-1.5,5.2-4.6
				c0.8-2.9,1.4-9.5,0.9-11S1453.1,538.2,1451.6,538.2z"/>
			<path class="st6" d="M1005.3,641.8l-3.2-0.5c0-0.2,2.5-16.2,6.7-34.5c5.7-24.8,11.8-41.9,18-50.8l2.7,1.9
				C1015.2,578.5,1005.4,641.2,1005.3,641.8z"/>
			<path class="st2" d="M1023.2,556.9c0,0-3.9,8.3-1.1,11.5c2.8,3.2,9.3-8.2,9.3-8.2L1023.2,556.9z"/>
			<path class="st3" d="M1022.3,563.5c0,0-23.3-20.8-5.8-46.3c17.5-25.5,12.2,22.7,12.2,22.7s14.5-37.2,24.8-30.9
				c10.3,6.3-12.3,40-12.3,40s29.8-17,35-9S1040.2,575.4,1022.3,563.5z"/>
			<path class="st4" d="M931.2,571.3c0,0-15.4-14.9-6.8-20.2c10.9-6.7,14.5,15.2,14.5,15.2s0.5-16.5,10.1-16.5c5.3,0,7.9,11-2,21.8
				c0,0,15.1-1,17,6s-7.2,13.1-20.6,0.8c0,0,11.1,16.1,2.3,19c-6.6,2.2-12.6-10.9-10.7-18.4c0,0-12,10-18,6.6
				C907.5,580.1,921.1,571.3,931.2,571.3z"/>
			<circle class="st5" cx="939.3" cy="573.9" r="4.6"/>
			<path class="st2" d="M997,644.1c0,0-17.5,2.1-15.4,26.9S997,644.1,997,644.1z"/>
			<path class="st6" d="M1010.2,597.6c0,0,4.9-22.6-8.2-28.4S997.2,592.7,1010.2,597.6z"/>
			<path class="st4" d="M1029.8,553.7c-0.1,0-0.3,0-0.4,0c-0.9-0.2-1.4-1.1-1.2-2l0,0c1.7-6.7,13.2-26.7,13.7-27.5
				c0.5-0.8,1.5-1,2.2-0.5s1,1.4,0.6,2.1c-0.1,0.2-11.8,20.5-13.3,26.7C1031.1,553.2,1030.5,553.7,1029.8,553.7z"/>
			<path class="st4" d="M1023.2,553.7c-0.5,0-0.9-0.2-1.2-0.6c-8.6-10.3-3.8-29.9-3.6-30.8c0.3-0.9,1.2-1.4,2-1.1
				c0.8,0.2,1.3,1.1,1.1,1.9c0,0.2-4.6,18.9,2.9,27.9c0.6,0.7,0.5,1.7-0.2,2.3C1024,553.5,1023.6,553.7,1023.2,553.7L1023.2,553.7z"
				/>
			<path class="st4" d="M1036.3,561.8c-0.9,0-1.6-0.8-1.6-1.7c0-0.8,0.6-1.4,1.4-1.6c23.1-3.1,26.3-13.4,26.3-13.5
				c0.3-0.9,1.2-1.3,2.1-1c0.8,0.3,1.3,1.1,1.1,1.9c-0.2,0.5-3.8,12.5-29,15.8L1036.3,561.8z"/>
			<path class="st4" d="M989.4,594.9c0,0-12.7-3.5-17.9,5.2c-3.1,4.8-2.8,11,0.6,15.6c0,0-5.8,2.9-5.2,13.8
				c0.6,10.9,16.1,11.6,16.1,11.6s1.7,13.3,12.7,15c11,1.7,17.9-12.1,17.9-12.1s17.3,5.8,23.7-7.5c6.4-13.3-5.9-17.8-5.9-17.8
				s7.7-15.1,1.9-22s-17.9-2.9-17.9-2.9s-4.1-10.7-14.5-9.4C995.1,584.9,990.4,589.2,989.4,594.9z"/>
			<path class="st8" d="M994,611.1c0,0,12.1-6.3,15.6-5.2s-5.8-6.9-11-4.6S994,611.1,994,611.1z"/>
			<path class="st8" d="M986.5,623.2c0,0,8.1,11,15.6,8.7c0,0-5.8,6.3-13.3,2.9C981.3,631.4,986.5,623.2,986.5,623.2z"/>
			<path class="st8" d="M1013,612.8c0,0,2.3,11-3.5,16.7c0,0,8.7,0.6,9.8-6.3C1020.4,616.3,1017.6,614.5,1013,612.8z"/>
			
				<ellipse transform="matrix(0.3828 -0.9238 0.9238 0.3828 239.1225 935.0833)" class="st6" cx="819.4" cy="288.6" rx="23.5" ry="4.8"/>
			
				<ellipse transform="matrix(0.7715 -0.6362 0.6362 0.7715 -13.1973 597.7261)" class="st6" cx="825.6" cy="317.2" rx="24.1" ry="4.9"/>
			
				<ellipse transform="matrix(0.9578 -0.2874 0.2874 0.9578 -65.1856 252.0509)" class="st6" cx="825.9" cy="348" rx="25.9" ry="5.3"/>
			
				<ellipse transform="matrix(0.8622 -0.5066 0.5066 0.8622 -82.6901 463.3788)" class="st6" cx="810.3" cy="383.7" rx="27" ry="5.5"/>
			
				<ellipse transform="matrix(1.780210e-02 -0.9998 0.9998 1.780210e-02 370.2355 1160.621)" class="st6" cx="775.9" cy="391.9" rx="27" ry="5.5"/>
			<ellipse class="st6" cx="810.1" cy="269.3" rx="4" ry="19.6"/>
			
				<ellipse transform="matrix(0.7715 -0.6362 0.6362 0.7715 -9.8742 573.7482)" class="st6" cx="793.9" cy="300.6" rx="4.8" ry="23.5"/>
			
				<ellipse transform="matrix(0.6341 -0.7733 0.7733 0.6341 33.3834 728.6176)" class="st6" cx="786.5" cy="329" rx="4.8" ry="23.5"/>
			
				<ellipse transform="matrix(0.9469 -0.3214 0.3214 0.9469 -71.3669 271.1487)" class="st6" cx="785.5" cy="351.7" rx="5.6" ry="27.5"/>
			<path class="st6" d="M761,443.2L761,443.2c0.5,0.4,1,0.3,1.3-0.1l0,0c0.1-0.2,13.2-17.6,25.6-46.4c7.2-16.8,12.9-34.2,16.8-52
				c4.8-21.6,6.9-43.7,6.1-65.8c0-0.5-0.4-0.9-0.9-0.9s-0.9,0.4-0.9,0.9c0.8,21.9-1.2,43.9-6,65.3c-3.9,17.7-9.5,35-16.7,51.6
				c-9.9,22.9-21,40.2-25.5,46.1C760.7,442.4,760.7,442.9,761,443.2z"/>
			<path class="st27" d="M949.6,615.8c-1.1,0-3.2-0.6-4.1-4.9c-0.6-3-0.3-5.2,0.9-6.7c0.9-1,2.1-1.6,3.4-1.7c4.3,0,4.3,4.4,4.3,8.3
				c-0.1,2.4-1.8,4.5-4.2,4.9L949.6,615.8z M949.8,603.4c-1.1,0.1-2.1,0.6-2.8,1.4c-1,1.3-1.3,3.3-0.8,6c0.5,2.7,1.8,4.4,3.6,4.2
				c2-0.4,3.5-2.1,3.5-4.1C953.4,607,953.4,603.4,949.8,603.4z"/>
			<path class="st27" d="M1003.9,563.1c-1.1,0-3.2-0.6-4.1-4.9c-0.6-3-0.3-5.2,0.9-6.7c0.8-1,2.1-1.6,3.4-1.7c4.3,0,4.3,4.4,4.3,8.3
				c-0.1,2.4-1.8,4.5-4.2,4.9L1003.9,563.1z M1004.1,550.7c-1.1,0.1-2.1,0.6-2.8,1.4c-1,1.3-1.3,3.3-0.8,6c0.6,2.8,1.8,4.4,3.6,4.2
				c2-0.4,3.5-2.1,3.5-4.1C1007.7,554.3,1007.7,550.7,1004.1,550.7L1004.1,550.7z"/>
			<path class="st27" d="M957.5,626.7c-1,0-2-0.3-2.8-0.9c-0.8-0.7-2.3-2.6,0.3-6.5c1.7-2.5,3.5-3.9,5.4-4.1
				c1.3-0.1,2.6,0.3,3.6,1.2c3.1,3.1,0,6.2-2.8,8.9C960.1,626.2,958.8,626.7,957.5,626.7z M960.8,615.9h-0.4
				c-1.6,0.2-3.2,1.4-4.8,3.7c-1.6,2.3-1.8,4.4-0.5,5.5c1.7,1.1,3.9,1,5.4-0.4c2.7-2.7,5.3-5.3,2.8-7.8
				C962.6,616.3,961.7,615.9,960.8,615.9z"/>
			<path class="st27" d="M961.8,650.4c-3.1,0-4.2-3.7-5.1-7c-0.6-2.4,0.5-4.8,2.7-5.9c0.9-0.4,3.4-0.8,5.6,3.5
				c1.4,2.7,1.7,4.9,0.9,6.7c-0.5,1.2-1.5,2.1-2.8,2.5C962.8,650.3,962.3,650.3,961.8,650.4z M960.6,638.1c-0.3,0-0.6,0.1-0.9,0.2
				c-1.8,0.9-2.7,3-2.3,5c1.1,3.7,2.1,7.2,5.5,6.2l0,0c1-0.4,1.9-1.1,2.3-2.1c0.7-1.5,0.3-3.5-0.9-6
				C963.3,639.2,961.9,638.1,960.6,638.1L960.6,638.1z"/>
			<path class="st27" d="M947.2,638.4c-0.2,0-0.4,0-0.7-0.1c-1-0.2-3.3-1.1-2.9-5.9c0.2-3,1.2-5.1,2.7-6.2c1.1-0.7,2.4-1,3.7-0.7
				l0,0c1.7,0.4,3,1.9,2.9,3.7c-0.1,1.9-0.4,3.7-1,5.5C951.3,636.9,949.4,638.3,947.2,638.4z M949,626.3c-0.8,0-1.5,0.2-2.2,0.7
				c-1.3,0.9-2.2,2.8-2.4,5.6c-0.2,2.8,0.6,4.7,2.3,5c2,0.2,3.9-1.1,4.5-3c0.6-1.7,0.9-3.4,1-5.2c0.1-1.4-0.9-2.7-2.3-3
				C949.6,626.3,949.3,626.3,949,626.3L949,626.3z"/>
			<path class="st2" d="M1124.5,608.7c1.6,7.8,3.9,15.5,6.9,22.9c3.3,8.6,7.8,16.7,13.3,24.2c5.3,7.3,11.9,13.5,19.5,18.4
				c7.4,4.8,16.1,7.3,24.9,7.2c6.7,0.5,13.1,0.7,19.1,0.7h19.1c9-0.1,18-1.4,26.7-4c8.9-2.4,16.3-8.6,20.2-17
				c2.4-5.3,4.8-10.7,7.2-16.2c1.4-3.2,2.7-6.4,3.9-9.7c-34-0.3-68.4-9.2-96.7-24.1C1172,602.5,1144.6,597.9,1124.5,608.7z"/>
			<path class="st6" d="M1217,600.6c0,0-16.6-52.1-33.2-35.8C1167.2,581.1,1217,600.6,1217,600.6z"/>
			<path class="st6" d="M1223.6,561.5c0,0,12.8-16.7,5.2-18.3S1223.6,561.5,1223.6,561.5"/>
			<path class="st6" d="M1161.3,573.2c0,0-6.3-35.2-19.9-28.3S1161.3,573.2,1161.3,573.2z"/>
			<path class="st6" d="M1129.8,481.1c0,0-6.3-35.2-19.9-28.3S1129.8,481.1,1129.8,481.1z"/>
			<path class="st6" d="M1388.3,588.9c0,0-4.5-25.1-14.2-20.1S1388.3,588.9,1388.3,588.9z"/>
			<path class="st6" d="M430,530.3c4.2,8.2,2.4,19.4,0.7,20.3c-1.7,0.9-10.4-5-14.6-13.2c-4.2-8.2-2.4-15.5-0.7-16.3
				C417.1,520.3,425.8,522.1,430,530.3z"/>
			<path class="st6" d="M421.7,569.9c6.1,8.3,7.3,18.4,5.6,19.6s-12-4.5-18.1-12.7c-6.1-8.2-2.5-12.4-0.8-13.7
				C410.1,561.8,415.5,561.6,421.7,569.9z"/>
			<path class="st6" d="M441.8,593c-3.9,9.5-11,14.3-12.9,13.5c-1.9-0.8-2.8-9.2,1.1-18.7s8.6-12.2,10.6-11.4
				C442.6,577.2,445.7,583.4,441.8,593z"/>
			<path class="st6" d="M450.8,504.6c-2.9,6.9-7.3,10.4-8.7,9.8c-1.4-0.6-2.5-6.7,0.4-13.6s7.1-7.7,8.5-7S453.7,497.7,450.8,504.6z"
				/>
			<path class="st6" d="M450.7,532.4c-8,4.1-15.1,3-16,1.3c-0.9-1.7,3.4-8.7,11.3-12.8s11.3-1.4,12.2,0.2
				C459.1,522.7,458.7,528.2,450.7,532.4z"/>
			<path class="st6" d="M445.9,565.1c-8.6,2.5-16,0-16.5-1.8c-0.5-1.8,3.7-8.4,12.3-10.9s14.6,0.7,15.1,2.5
				C457.3,556.7,454.6,562.6,445.9,565.1z"/>
			<path class="st6" d="M431.4,625.9L431.4,625.9c-0.4,0.1-0.7-0.1-0.8-0.4l0,0c0-0.2-3.6-14.8-3.7-36.5
				c-0.1-12.6,1.1-25.2,3.4-37.6c2.8-15,7.5-29.6,14-43.5c0.1-0.3,0.5-0.4,0.8-0.3c0.3,0.1,0.4,0.5,0.3,0.8l0,0
				c-6.5,13.7-11.1,28.2-13.9,43.2c-2.3,12.3-3.5,24.8-3.4,37.4c0.1,17.2,2.4,31.2,3.6,36.2C431.8,625.5,431.6,625.8,431.4,625.9z"
				/>
			<path class="st5" d="M1545,90.4c-10.3,11.3-14.2,29.1,16.5,59s70-10.2,49.6-39.3S1566.6,66.8,1545,90.4z"/>
			<path class="st5" d="M1742.2,263.1c-7.6,0-15.9-3-23.9-10.8c-25.5-24.8-30.9-44.5-16.6-60.1l0,0c7.9-8.6,16.5-12.7,25.6-12.1
				c13.2,0.8,27.7,11.8,41.7,31.8c4.9,6.8,6.8,15.4,5.3,23.6c-1.5,7.7-5.6,14.7-11.6,19.8C1757,260.2,1749.7,263,1742.2,263.1z
				 M1725.6,181.6c-8,0-15.7,3.9-22.7,11.7l0,0c-13.6,14.9-8.2,33.8,16.5,57.9c15.8,15.4,32.6,11.2,42.3,3
				c10.9-9.3,16.5-26.5,6.1-41.3c-13.8-19.6-27.8-30.4-40.5-31.2C1726.7,181.6,1726.1,181.6,1725.6,181.6z"/>
			<path class="st5" d="M1707.8,139.2c-10.3,11.3-14.2,29.1,16.5,59s70-10.2,49.6-39.3S1729.5,115.5,1707.8,139.2z"/>
			<path class="st5" d="M1702.9,84.5c-7.6,0-15.9-3-23.9-10.8c-25.4-24.8-30.9-44.5-16.6-60.1c7.9-8.6,16.5-12.7,25.6-12.1
				c13.2,0.9,27.7,11.9,41.7,31.9c4.9,6.8,6.8,15.4,5.2,23.6c-1.5,7.7-5.6,14.7-11.6,19.8C1717.6,81.7,1710.4,84.4,1702.9,84.5z
				 M1686.3,3c-8,0-15.7,3.9-22.8,11.7l0,0c-13.6,14.9-8.2,33.8,16.5,57.9c15.8,15.4,32.6,11.2,42.3,3c10.9-9.3,16.5-26.4,6.1-41.3
				c-13.8-19.6-27.8-30.4-40.5-31.2C1687.3,3,1686.8,3,1686.3,3z"/>
			<path class="st5" d="M1851.5,144.3c-7.6,0-15.9-3-23.9-10.8c-25.4-24.8-30.9-44.5-16.6-60.1l0,0c7.9-8.6,16.5-12.7,25.6-12.1
				c13.2,0.9,27.7,11.9,41.7,31.9c4.9,6.8,6.8,15.4,5.3,23.6c-1.5,7.7-5.6,14.7-11.6,19.8C1866.3,141.4,1859.1,144.2,1851.5,144.3z
				 M1812.2,74.5c-13.6,14.9-8.2,33.8,16.5,57.9c15.8,15.4,32.6,11.2,42.3,3c10.9-9.3,16.5-26.5,6.1-41.3
				c-13.8-19.6-27.8-30.4-40.5-31.2C1828,62.4,1819.8,66.3,1812.2,74.5L1812.2,74.5z"/>
			<path class="st5" d="M1721.2-48.8c-10.3,11.3-14.2,29.1,16.5,59s70-10.2,49.6-39.3S1742.8-72.5,1721.2-48.8z"/>
			<path class="st5" d="M1425.2,241.1c-7.6,0-15.9-3-23.9-10.8c-25.4-24.8-30.9-44.5-16.6-60.1l0.6,0.5l-0.6-0.5
				c7.9-8.6,16.5-12.7,25.6-12.1c13.2,0.9,27.7,11.9,41.7,31.9c4.9,6.8,6.8,15.4,5.2,23.6c-1.5,7.7-5.6,14.7-11.6,19.7
				C1439.9,238.2,1432.7,241,1425.2,241.1z M1408.6,159.6c-8,0-15.7,3.9-22.8,11.7c-13.6,14.9-8.2,33.8,16.5,57.9
				c15.8,15.3,32.6,11.2,42.3,3c10.9-9.3,16.5-26.5,6.1-41.3c-13.8-19.6-27.8-30.4-40.5-31.2
				C1409.7,159.6,1409.1,159.6,1408.6,159.6L1408.6,159.6z"/>
			<path class="st5" d="M1578.6,48.3c-7.6,0-15.9-3-23.9-10.8c-25.4-24.8-30.9-44.5-16.6-60.1l0,0c7.9-8.6,16.5-12.7,25.6-12.1
				c13.2,0.9,27.7,11.9,41.7,31.9c4.9,6.8,6.8,15.4,5.3,23.6c-1.5,7.7-5.6,14.7-11.6,19.7C1593.3,45.5,1586.1,48.2,1578.6,48.3z
				 M1562-33.2c-8,0-15.7,3.9-22.8,11.7l0,0c-13.6,14.9-8.2,33.8,16.5,57.9c15.8,15.3,32.6,11.2,42.3,3c10.9-9.3,16.5-26.5,6.1-41.3
				c-13.8-19.6-27.8-30.4-40.5-31.2C1563.1-33.1,1562.5-33.2,1562-33.2z"/>
			<path class="st2" d="M1500.3,882.5c0,0-4.9-110,77.7-107.6s156.7,107.7,156.7,107.7L1500.3,882.5z"/>
			<path class="st2" d="M1846.3,725.6c0,0-60.1-18.4-60.9,18.6s60.9,58,60.9,58V725.6z"/>
			<path class="st2" d="M1666.9,688.3c-3.2,5.7-1.6,12.6,15.7,29.1s29.9-9.4,12.6-25.2C1677.9,676.4,1669.3,684,1666.9,688.3z"/>
			<path class="st28" d="M1042.4,412.9c0,0-12.2,7.9-12.3,14.9c0,0,0,1.1,7.5-6.4C1043.6,415.3,1042.3,413.2,1042.4,412.9z"/>
			<path class="st2" d="M1471.1,837.1c2.7-3.8,2.1-8.9-9-22.1s-22.2,4.4-11,17.1S1469,840,1471.1,837.1z"/>
			<path class="st2" d="M1474.2,636.5c-2.5,4.4-1.2,9.7,12.2,22.5c13.4,12.8,23.1-7.3,9.7-19.5
				C1482.7,627.3,1476.1,633.2,1474.2,636.5z"/>
			<path class="st2" d="M1338.3,672.7c-5,3.5,8.3,23.7,18,32.9c9.7,9.2,10-10.5,1.8-20.6C1350.2,675.3,1344.5,668.3,1338.3,672.7z"
				/>
			<path class="st2" d="M1741.1,828.4c-5,3.6,8.3,23.7,18,32.9s10-10.5,1.8-20.6C1753,831.1,1747.3,824,1741.1,828.4z"/>
			<path class="st2" d="M1568.2,718.3c6.4-6.7,9.3-19.1-12-33.3c-17.7-11.8-33.1,5.3-17.3,24.6
				C1554.7,728.9,1564.6,722.1,1568.2,718.3z"/>
			<path class="st2" d="M1469,749.5c2.3-2.4,6.3-9.8-1.2-14.8c-6.2-4.2-14.7,4.9-9.2,11.7C1464.1,753.2,1467.8,750.8,1469,749.5z"/>
			<path class="st2" d="M1689.3,798.2c2.2-2.3,6.3-9.8-1.2-14.8c-6.2-4.2-14.7,4.9-9.2,11.7C1684.4,801.9,1688,799.6,1689.3,798.2z"
				/>
			<path class="st2" d="M1689.3,640.9c2.2-2.3,6.3-9.8-1.2-14.8c-6.2-4.2-14.7,4.9-9.2,11.7C1684.4,644.6,1688,642.3,1689.3,640.9z"
				/>
			<path class="st2" d="M1759.8,785.6c-1.1-0.8-4.4-2-6,1.4c-1.3,2.8,2.9,5.8,5.4,3.1C1761.7,787.4,1760.4,786,1759.8,785.6z"/>
			<g class="st29">
				<path class="st8" d="M977.7,129.3l7.9,11l7.9-11h5l-10.2,14.4l11,15.6h-5.1l-8.6-12l-8.6,12h-5l11-15.5l-10.2-14.6h4.9V129.3z"
					/>
			</g>
			<g class="st29">
				<path class="st8" d="M1001.1,144.4c0-8.8,6.8-15.4,16-15.4c9.2,0,15.9,6.5,15.9,15.4s-6.8,15.4-15.9,15.4
					C1007.9,159.8,1001.1,153.2,1001.1,144.4z M1028.8,144.4c0-6.7-5-11.6-11.6-11.6c-6.7,0-11.7,4.9-11.7,11.6s5,11.6,11.7,11.6
					C1023.8,155.9,1028.8,151,1028.8,144.4z"/>
			</g>
			<g class="st29">
				<path class="st8" d="M1037.6,144.4c0-8.9,6.8-15.4,15.9-15.4c4.6,0,8.7,1.6,11.4,4.7l-2.8,2.7c-2.3-2.5-5.2-3.6-8.5-3.6
					c-6.8,0-11.8,4.9-11.8,11.6s5,11.6,11.8,11.6c3.3,0,6.1-1.2,8.5-3.6l2.8,2.7c-2.8,3.1-6.8,4.7-11.5,4.7
					C1044.4,159.8,1037.6,153.3,1037.6,144.4z"/>
			</g>
			<g class="st29">
				<path class="st8" d="M1091.2,133.1h-10.3v26.3h-4.2v-26.3h-10.3v-3.7h24.8V133.1z"/>
				<path class="st8" d="M1118.3,155.7v3.7h-21.8v-30.1h21.2v3.7h-16.9v9.2h15.1v3.7h-15.1v9.7L1118.3,155.7L1118.3,155.7z"/>
				<path class="st8" d="M1149.6,129.3v30.1h-4.2v-26.3h-13.3l-0.3,8.8c-0.4,11.9-2.2,17.9-8.2,17.9c-0.9,0-1.7-0.1-2.7-0.3l0.3-3.8
					c0.5,0.1,0.9,0.2,1.4,0.2c3.7,0,5-4.4,5.4-13.8l0.5-12.7h21.1V129.3z"/>
			</g>
			<g class="st29">
				<path class="st8" d="M932.2,761.9c0-8.9,6.8-15.4,15.9-15.4c4.6,0,8.7,1.6,11.4,4.7l-2.8,2.7c-2.3-2.5-5.2-3.6-8.5-3.6
					c-6.8,0-11.8,4.9-11.8,11.6s5,11.6,11.8,11.6c3.3,0,6.1-1.2,8.5-3.6l2.8,2.7c-2.8,3.1-6.8,4.7-11.5,4.7
					C939,777.3,932.2,770.8,932.2,761.9z"/>
				<path class="st8" d="M987.3,773.2v3.7h-21.8v-30h21.2v3.7h-16.9v9.2h15.1v3.7h-15.1v9.7L987.3,773.2L987.3,773.2z"/>
				<path class="st8" d="M1014.5,768.5c0,5.5-5.8,8.8-12.3,8.8c-3.9,0-8-1.1-11.4-3.6l1.5-3.2c2.7,2.1,6.2,3.1,9.4,3.1
					c4.6,0,8.5-2,8.5-5.7c0-3.1-2.6-4.7-7-4.7h-6.7v-3.5h6.4c3.8,0,6.1-1.7,6.1-4.5c0-3.3-3.3-5.1-7.4-5.1c-2.7,0-5.7,0.8-8.4,2.4
					l-1.4-3.5c3.1-1.8,6.6-2.6,9.9-2.6c6.3,0,11.6,3.1,11.6,8.3c0,3.1-1.8,5.5-4.8,6.6C1012.2,762.3,1014.5,765,1014.5,768.5z"/>
				<path class="st8" d="M1019.2,761.9c0-8.8,6.8-15.4,16-15.4s15.9,6.5,15.9,15.4s-6.8,15.4-15.9,15.4
					C1026,777.3,1019.2,770.7,1019.2,761.9z M1046.8,761.9c0-6.7-5-11.6-11.6-11.6c-6.7,0-11.7,4.9-11.7,11.6s5,11.6,11.7,11.6
					C1041.9,773.5,1046.8,768.6,1046.8,761.9z"/>
				<path class="st8" d="M1084,746.9V777h-4.3v-13.4h-17.3V777h-4.3v-30.1h4.3v12.9h17.3v-12.9H1084z"/>
			</g>
			<g class="st29">
				<path class="st8" d="M1123.4,773.2v3.7h-21.6V774l12.2-11.8c3.2-3.1,3.8-5,3.8-6.9c0-3.1-2.2-5-6.4-5c-3.2,0-5.8,1-7.7,3.3
					l-2.9-2.5c2.3-2.9,6.3-4.6,11-4.6c6.3,0,10.3,3.2,10.3,8.4c0,2.9-0.9,5.5-4.9,9.5l-9.2,8.9h15.4V773.2z"/>
				<path class="st8" d="M1126.8,761.9c0-9.8,5.2-15.4,12.3-15.4c7,0,12.2,5.6,12.2,15.4c0,9.8-5.2,15.4-12.2,15.4
					C1132.1,777.3,1126.8,771.7,1126.8,761.9z M1147.1,761.9c0-7.7-3.3-11.6-8-11.6s-8,3.9-8,11.6s3.3,11.6,8,11.6
					C1143.8,773.5,1147.1,769.6,1147.1,761.9z"/>
			</g>
			<g class="st29">
				<path class="st8" d="M1164.7,746.9V777h-4.3v-26.3h-6.8v-3.8H1164.7z"/>
				<path class="st8" d="M1193.7,761.5c0,10.3-5.8,15.8-14.2,15.8c-2.8,0-5.5-0.6-7.5-1.8l1.6-3.4c1.6,1,3.6,1.4,5.8,1.4
					c6.1,0,10-3.8,10-11.3v-1.1c-1.8,2.6-4.9,4-8.7,4c-6,0-10.3-3.6-10.3-9.1c0-5.8,4.6-9.5,10.6-9.5
					C1189.1,746.5,1193.7,751.9,1193.7,761.5z M1188.4,755.8c0-3.1-2.5-5.8-7.2-5.8c-3.9,0-6.6,2.3-6.6,5.8s2.6,5.8,6.8,5.8
					C1185.5,761.7,1188.4,759.1,1188.4,755.8z"/>
			</g>
			<rect x="217.9" class="st30" width="1628.3" height="882.6"/>
			<path class="st28" d="M623.7,469.4l-24.2,17.2c0.1,1.7,0.1,3.3,0.2,4.8c2.6,0.7,13.8,2,27.8-20.5"/>
			<path class="st6" d="M617.2,420.3c0,0-14.9,6.7-22.8,19.3c-6.6,10.5-10.2,40.1,0.9,47.1c14.4,9.1,32.2-15.8,32.2-15.8l-3.5-4.1
				c0,0-11.8,10.7-19.3,8.2c-5.3-1.8,0-24,0-24"/>
			<path class="st31" d="M607.2,475.6c-0.9,0-1.8-0.1-2.6-0.4c-2.3-0.8-3-5.1-2.1-12.9c0.5-3.8,1.1-7.6,2-11.4
				c0-0.1,0.2-0.2,0.3-0.2l0,0c0.1,0,0.2,0.2,0.2,0.3c-0.1,0.2-5.2,22-0.2,23.7c7.3,2.4,19.2-7.9,19.3-8s0.3-0.1,0.3,0
				c0.1,0.1,0.1,0.3,0,0.4c-2.2,1.9-4.5,3.5-7,5C613.4,474.5,610,475.6,607.2,475.6z"/>
			<path class="st23" d="M711.7,495.3c-0.1,0-0.2-0.1-0.2-0.2l-4-33.2c0-0.1,0.1-0.3,0.2-0.3c0.1,0,0.3,0.1,0.3,0.2l0,0l4,33.2
				C712,495.2,711.9,495.3,711.7,495.3L711.7,495.3L711.7,495.3z"/>
			<path class="st12" d="M1020.4,403.2c1.9-1.4,4.9-3.1,9.4,0.2c2.6,1.9,26.2,25.7,27.8,34c1,5.3-6.5,9.6-34.1,12.6l-0.2-5.4
				c0,0,24.9-7.1,24.1-8.2S1006.5,413.1,1020.4,403.2z"/>
			<path class="st6" d="M1042.4,412.9c0,0-12.2,7.9-12.3,14.9c0,0-19.6-15.4-12.2-23S1032.3,401.5,1042.4,412.9z"/>
			<path class="st12" d="M1024.2,443.7c0,0-3.4-3.2-5.7-1.4s-3.5,9.3,1.4,8.6c4.9-0.7,5.6-2.1,5.6-2.1L1024.2,443.7z"/>
			<path class="st5" d="M1053.7,334c-0.5,0.2-0.9,0.6-1.1,1.1c-20.9,77.3-48.9,154.8-49.2,155.6s0.1,1.8,1,2.1l0,0
				c0.2,0.1,0.4,0.1,0.5,0.1c0.7,0,1.3-0.4,1.5-1.1c0.3-0.8,26.4-73,47-147.6C1053.6,340.9,1053.7,337.5,1053.7,334z"/>
		</g>
	</g>
</g>
<path class="st22" d="M639.5,1583.6c0,0-27.3,255.2-26.1,271.7c0.3,4.1,1.6,9.6-1.2,12.1c-9.1,8.1-39.9,7.5-42.1,5.2
	c-2.6-2.7,29.1-7.9,30.4-16c1.1-6.6-10.5-112.7-11.8-126.2s-5.2-150.3-5.2-150.3L639.5,1583.6z"/>
<path class="st3" d="M649.8,1595c0,0,61.7-1.2,64-25.1s-2.3-158.8-25.1-184s-100.5,32-100.5,32L649.8,1595z"/>
<path class="st3" d="M642.9,1403c0,0,51.2,0,53.6-8s-18.2-64-57-66.3s-46.8,80-46.8,80L642.9,1403z"/>
<path class="st5" d="M613.3,1855.3c0.3,4.1,2.2,13.7-1.3,15.1c-10.5,4.1-42.5,6.8-42,2.2c0.8-6.8,29.1-7.9,30.4-16"/>
<path class="st12" d="M461.2,1657.8c0,0,15.9,211,14.9,225.1c-0.3,3.5-2.4,8.2,0,10.3c8,6.9,20.9,12.2,22.9,10.3
	c2.3-2.3-11.4-12.6-12.6-19.4c-0.9-5.6,9.1-96,10.3-107.4s4.6-128,4.6-128L461.2,1657.8z"/>
<path class="st12" d="M504.6,1646.4c0,0,18.3,218.2,18.3,224c0,2.9-0.6,8.4,2.3,9.1c9.1,2.3,25.1,3.4,25.1,1.1
	c0-3.4-17.1-9.1-17.1-12.6c0-5.7,5.7-91.4,6.8-102.8s4.6-128,4.6-128L504.6,1646.4z"/>
<path class="st20" d="M676,1576.7c0,0-27.3,255.2-26.1,271.7c0.3,4.1,1.7,9.6-1.1,12.1c-9.1,8-26.2,24.7-28.4,22.4
	c-2.6-2.7,15.3-25,16.7-33.1c1.1-6.6-10.5-112.7-11.8-126.2s-5.3-150.3-5.3-150.3L676,1576.7z"/>
<path class="st5" d="M649.9,1848.4c0.3,4.1,1.7,9.6-1.1,12.1c-9.1,8-25.8,24.3-28.4,22.4c-6-4.5,15.3-25,16.7-33.1"/>
<path class="st2" d="M454.9,1594.4c0,0-5.7,66.3,1.1,70.8c0,0,38.9,1.1,48-3.4v-1.1c0,0,34.3,2.3,43.4-2.3c0,0,3.4-51.4,1.1-64
	H454.9z"/>
<path class="st4" d="M681.7,1576.7c0,0-29.7,10.3-51.4,12.6s-46.8-9.1-46.8-9.1l-13.7-113.1l73.1-49.1l33.1,24L681.7,1576.7z"/>
<path class="st6" d="M487.5,1437.3l26.3,8c0,0,49.1,40,36.6,149.7c0,0-44.6,11.4-96,0c0,0-8.9-129.4,9.8-139.5
	S487.5,1437.3,487.5,1437.3z"/>
<path class="st23" d="M632.3,1560.8c-15.2,0-31.2-0.9-45.2-3.7l2.9-14.6c38.3,7.7,96.4,0,97-0.1l2,14.7
	C670.3,1559.6,651.3,1560.8,632.3,1560.8z"/>
<path class="st6" d="M511.5,1441.9c0,0,28.6,13.7,38.8,20.6s37.7,16,37.7,16l-4.6,20.6l-86.8-43.4L511.5,1441.9z"/>
<path class="st12" d="M501.4,1531.8c0,0,3.2-11.1,6.6-12.2s3.4,5.7,3.4,5.7L501.4,1531.8z"/>
<path class="st5" d="M510.9,1355.6c0,0-17.1-10.3-27.4,0s-8,25.1-12.6,30.8s-24,29.7-4.6,42.3s33.1-2.3,33.1-2.3l6.9,12.6
	c0,0,19.4,2.3,26.3-5.7s6.8-17.1,5.7-32s5.7-30.9-3.4-40S517.8,1353.3,510.9,1355.6z"/>
<path class="st12" d="M486.9,1401.3v36.6c0,0,8,14.9,26.3,8v-18.3L486.9,1401.3z"/>
<path class="st13" d="M486.9,1408.1c3.4,14.2,13.9,25.2,25.1,25.2c0.4,0,0.8,0,1.1-0.1v-5.6l-26.3-26.3v6.8H486.9z"/>
<path class="st12" d="M534.9,1396.7c-3.4,19.4-14.8,32-21.7,32c-13.7,0-26.3-16.2-26.3-34.8s15.1-32.6,27.4-32.6
	C526.6,1361.3,538.2,1378.4,534.9,1396.7z"/>
<path class="st13" d="M508.2,1362.4c-9.9,3.3-19.7,14.1-21.1,28.1c4,0,22.1-2.3,30.1-16c0,0,10.3,13.7,18.3,16
	c0-9.7-3.8-18.4-9.3-23.7L508.2,1362.4z"/>
<path class="st5" d="M478.9,1387.6c0,0,32,1.2,36.6-21.7c0,0,9.1,14.9,20.6,19.4l-2.3-19.4l-32.6-9.7l-14.3,16.6L478.9,1387.6z"/>
<circle class="st12" cx="484.1" cy="1395" r="8.6"/>
<path class="st13" d="M486.9,1398.7c-0.1,0-0.2,0-0.3-0.1c-1.8-1.3-2.6-2.6-2.5-3.9c0.2-2,2.5-3.1,2.6-3.1c0.3-0.1,0.6,0,0.8,0.3
	l0,0c0.1,0.3,0,0.6-0.3,0.8c0,0-1.8,0.9-2,2.2c-0.1,1.1,1.1,2.2,2,2.9c0.3,0.2,0.3,0.5,0.1,0.8l0,0
	C487.2,1398.6,487.1,1398.7,486.9,1398.7z"/>
<path class="st6" d="M476.1,1882.9c-0.3,3.5-2.4,8.2,0,10.3c8,6.9,20.9,12.2,22.9,10.3c2.3-2.3-11.4-12.6-12.6-19.4"/>
<path class="st6" d="M522.9,1870.4c0,2.9-0.6,8.4,2.3,9.1c9.1,2.3,25.1,3.4,25.1,1.1c0-3.4-17.1-9.1-17.1-12.6"/>
<path class="st12" d="M686.7,1578.1c0,0,2.3,16.6,1,22.5s-3.1,13.9-8.2,9.2s-3.7-19.5-3.7-19.5l6.1-13.5L686.7,1578.1z"/>
<path class="st12" d="M676,1576.7c0,0-3.4,16-4.6,20.6s0.8,9.1,6.7-2.9s3.6-17.7,3.6-17.7H676z"/>
<path class="st4" d="M570.1,1467c0,0-7.5-80.5,54.5-82.3c40-1.2,53.7,17.1,66.3,62.8s0,136,0,136s-11.4-3.4-18.3,0
	c0,0-14.8-125.7-17.1-134.8S570.1,1467,570.1,1467z"/>
<path class="st12" d="M636.8,1347.3v40.4c0,0-8.8,16.4-29,8.8v-20.2L636.8,1347.3z"/>
<path class="st13" d="M636.8,1354.8c-3.7,15.7-15.3,27.8-27.8,27.8c-0.4,0-0.8,0-1.3-0.1v-6.2l29-29L636.8,1354.8z"/>
<path class="st12" d="M584.1,1345c5.6,21,19.3,33.8,26.8,33.2c15.1-1.3,27.4-20.3,25.7-40.8s-19.6-34.4-33.2-33.3
	S578.8,1325.1,584.1,1345z"/>
<path class="st24" d="M621.8,1301.9c-17.9-5.6-40.3-4.6-38.9,25.7c6.1-0.8,12.2-1.1,18.4-1.1c15,0,28,2.1,33.8,5
	c2.4-1.3,3.9-2.2,3.9-2.2S640,1307.6,621.8,1301.9z"/>
<path class="st6" d="M633.8,1331.1c0,0-17.7-19-38.3-20.1s-33.1,2.3-30.8,10.3s18.6,7.6,18.6,7.6S618.3,1323.8,633.8,1331.1z"/>
<path class="st23" d="M609.1,1507.6l-13.5-6.2c2.3-5.2,5.6-20.4,1.2-64.4c-1.8-18.4-4.4-35.4-5.8-43.7c-0.5-2.9,1.5-5.7,4.4-6.2
	l4-0.7c2.9-0.5,5.7,1.4,6.3,4.4c0,0,0,0,0,0.1C609.3,1412.5,619.9,1483.9,609.1,1507.6z"/>
<circle class="st12" cx="639.9" cy="1338.3" r="9.5"/>
<path class="st13" d="M637,1342.7c-0.2,0-0.4-0.1-0.5-0.2c-0.2-0.3-0.2-0.7,0.1-0.9c1-0.9,2.2-2.2,2-3.4c-0.3-1.4-2.3-2.2-2.3-2.2
	c-0.3-0.1-0.5-0.5-0.4-0.8l0,0c0.1-0.3,0.5-0.5,0.8-0.4c0.1,0,2.8,1,3.2,3.2c0.3,1.4-0.5,3-2.4,4.6
	C637.3,1342.7,637.2,1342.7,637,1342.7z"/>
<path class="st23" d="M676.4,1531.5c-1.5,2.6-4.9,3.4-7.5,1.9c-0.3-0.2-0.6-0.4-0.8-0.6c-15.2-13.2-24.7-41.8-28.2-85.4
	c-1.6-20.6-1.9-41.2-1-61.9c0.1-3,2.6-5.3,5.6-5.2h0.1l4,0.3c2.9,0.2,5.2,2.7,5.1,5.6c-0.8,20-0.5,40.1,1,60.1
	c3.1,38.2,11,64.4,22.6,74.8c2,1.7,2.5,4.6,1.2,6.9L676.4,1531.5z"/>
<path class="st4" d="M672.3,1403.6c7.7,10.1,13.2,24.6,18.5,44c12.6,45.7,0,136,0,136s-11.4-3.4-18.3,0c0,0-14.8-125.7-17.1-134.8"
	/>
<polygon class="st8" points="636.8,1580.1 570.8,1570.6 508.3,1580.1 508.3,1527.6 508.3,1475 568.9,1466.6 632.9,1475 
	634.8,1521.7 "/>
<path class="st12" d="M502.9,1536.1c0,0,11.4-4.6,14.9-8s8-8,3.4-10.3s-13.7,4.6-13.7,4.6l-6.9,10.3L502.9,1536.1z"/>
<path class="st12" d="M640.6,1519.6c-1.2,1.5-4.4,2.9-7.8-0.6s-8-8-3.4-10.3s12.6,1.1,13.7,4.6
	C643.6,1514.9,641.7,1518.2,640.6,1519.6z"/>
<path class="st28" d="M500.2,1533.3l-47.2,33.6c0.1,3.3,0.3,6.4,0.4,9.3c5,1.3,26.9,3.8,54.2-40"/>
<path class="st6" d="M487.5,1437.3c0,0-29.1,13.1-44.6,37.7c-12.9,20.5-20,78.3,1.7,92c28.2,17.8,62.9-30.8,62.9-30.8l-6.9-8
	c0,0-23,20.9-37.7,16c-10.3-3.4,0-46.8,0-46.8"/>
<path class="st0" d="M467.9,1545.4c-1.8,0-3.5-0.2-5.2-0.8c-4.5-1.5-5.9-10-4.2-25.2c0.9-7.5,2.2-14.9,3.9-22.2
	c0.1-0.3,0.3-0.4,0.6-0.4l0,0c0.3,0.1,0.4,0.3,0.4,0.6c-0.1,0.4-10.1,43-0.3,46.3c14.3,4.8,37.5-15.4,37.8-15.7
	c0.2-0.2,0.5-0.2,0.7,0s0.2,0.5,0,0.7c-4.3,3.6-8.9,6.9-13.7,9.8C480.1,1543.1,473.4,1545.4,467.9,1545.4z"/>
<path class="st23" d="M671.9,1583.8c-0.2,0-0.5-0.2-0.5-0.4l-7.8-64.8c0-0.3,0.2-0.5,0.4-0.5c0.3,0,0.5,0.2,0.5,0.4l0,0l7.8,64.8
	C672.4,1583.5,672.2,1583.8,671.9,1583.8L671.9,1583.8z"/>
<path class="st28" d="M1154.7,1414.1c0,0-26.1,17-26.3,31.9c0,0,2.5,2,18.6-14.1C1157,1421.9,1156,1414.9,1154.7,1414.1z"/>
<path class="st12" d="M1107.7,1393.4c4.1-2.9,10.5-6.6,20,0.4c5.6,4.1,56.2,55.1,59.5,72.8c2.1,11.4-13.8,20.6-73.2,27.1l-0.4-11.6
	c0,0,53.3-15.2,51.6-17.5S1077.9,1414.7,1107.7,1393.4z"/>
<path class="st6" d="M1154.7,1414.1c0,0-26.1,17-26.3,31.9c0,0-42.1-33-26.1-49.2S1133.1,1389.8,1154.7,1414.1z"/>
<path class="st32" d="M1074.6,1582.4c0,0,99.8-292.2,145.1-460"/>
<path class="st12" d="M1117,1481.9c0,0-8.5-8.4-13.5-4.6s-7.6,19.9,2.9,18.5s12.1-4.4,12.1-4.4L1117,1481.9z"/>
<path class="st17" d="M1072,1474.9c0,0-13.5-8.4-20.7-10.2"/>
<path class="st33" d="M999.5,439.4c0,0-5-3-7-4"/>
<line class="st34" x1="505.5" y1="1617.4" x2="504.5" y2="1661.4"/>
</svg>
