<svg id="Layer_1" data-name="Layer 1" xmlns="http://www.w3.org/2000/svg" xmlns:xlink="http://www.w3.org/1999/xlink" viewBox="0 0 999 1000"><defs><style>.cls-1,.cls-12,.cls-13,.cls-4,.cls-8{fill:none;}.cls-2{clip-path:url(#clip-path);}.cls-3{fill:#fffff3;}.cls-4{stroke:#cc4387;stroke-width:1.71px;}.cls-12,.cls-4,.cls-8{stroke-linecap:round;}.cls-12,.cls-13,.cls-4,.cls-8{stroke-miterlimit:10;}.cls-5{fill:#b7d7f1;}.cls-6{fill:#190c35;}.cls-7{fill:#94bbd6;}.cls-8{stroke:#93bcd8;}.cls-12,.cls-8{stroke-width:1.14px;}.cls-9{fill:#e29e6f;}.cls-10{fill:#efe8df;}.cls-11{fill:#d18959;}.cls-12,.cls-13{stroke:#b7d7f1;}.cls-13{stroke-width:0.85px;}.cls-14{fill:#cc4387;}.cls-15{clip-path:url(#clip-path-2);}.cls-16{clip-path:url(#clip-path-3);}.cls-17{clip-path:url(#clip-path-4);}</style><clipPath id="clip-path"><rect class="cls-1" x="499" y="500" width="500" height="500"/></clipPath><clipPath id="clip-path-2"><rect class="cls-1" x="-1" y="500" width="500" height="500"/></clipPath><clipPath id="clip-path-3"><rect class="cls-1" x="499" width="500" height="500"/></clipPath><clipPath id="clip-path-4"><rect class="cls-1" x="-1" width="500" height="500"/></clipPath></defs><title>pattern_unicorn</title><g class="cls-2"><rect class="cls-3" x="499" y="500" width="500" height="500"/><polyline class="cls-4" points="511.49 787.8 516.63 815.79 532.05 815.79"/><path class="cls-5" d="M429.82,763.81s-1.16,27,63.4,33.7c58,6,79.43.79,86.81-33.7,8.85-41.4-4.57-76.52-24.56-78.24s-29.41,15.14-27.13,40.27c0,0-116.3,24.91-113.08,39.4C416.4,770.38,429.82,763.81,429.82,763.81Z"/><circle class="cls-6" cx="540.05" cy="695.85" r="2.28"/><circle class="cls-6" cx="550.9" cy="702.13" r="2.28"/><path class="cls-7" d="M539,710.59c1.21-5-6.14-4.08-9.93-3.27A57.29,57.29,0,0,0,528,718.5C530.74,717.94,537.7,716,539,710.59Z"/><path class="cls-7" d="M429.82,763.81s-1.16,27,63.4,33.7c51.68,5.35,74.35,1.79,83.88-23.48-4.05,9.12-30.38,20.49-84.45,16.63-56-4-57.69-29.7-57.69-29.7l-7.91-6c-7.79,3.67-12.47,7.2-11.79,10.27C416.4,770.38,429.82,763.81,429.82,763.81Z"/><path class="cls-7" d="M577.45,773.07c.06-.18.13-.36.19-.55C577.57,772.69,577.51,772.87,577.45,773.07Z"/><path class="cls-8" d="M556.9,708.41s-5,.7-5.91,4.4a5.67,5.67,0,0,0,1.62,5.77"/><path class="cls-9" d="M518.21,708.41a12.82,12.82,0,0,0,8.54,5.15c5.66.74,10.41-.36,11.28-2.55S518.21,708.41,518.21,708.41Z"/><polyline class="cls-4" points="497.22 787.8 508.07 820.93 522.92 820.93"/><path class="cls-6" d="M483.25,738.4c-4.45.54-8.55,1-12.8,2.51a26.89,26.89,0,0,0-5.36,3,19.79,19.79,0,0,1-5.87,2.28,60.12,60.12,0,0,0-12.86,4.92,2.79,2.79,0,0,1-3.69-.88,2.62,2.62,0,0,1-1-1.08c-16,5.67-27.44,11.44-26.4,16.13,1.14,5.14,14.56-1.43,14.56-1.43,18.75,16.07,45.95-9.63,61.87-28.35A20.89,20.89,0,0,1,483.25,738.4Z"/><path class="cls-10" d="M528.26,724.72c0,.37,0,.74.08,1.12,0,0-53.41,11.44-86.84,23.32,5.14,13.47,19.69,36.76,57.43,27.22C531,768.28,532.4,743.26,528.26,724.72Z"/><path class="cls-5" d="M549.56,679.08c-4.58.42,6.67,12.89,6.67,12.89l5.95-1.56s-8-11.74-12.62-11.33"/><path class="cls-5" d="M546.13,680.8c-4.58.41,6.68,12.88,6.68,12.88l5.94-1.56s-8-11.74-12.62-11.32"/><path class="cls-8" d="M552.61,686.71a8.76,8.76,0,0,1-3.42-4.56"/><path class="cls-8" d="M550.33,690.71a8.74,8.74,0,0,1-3.43-4.57"/><path class="cls-11" d="M518.21,708.41a12.44,12.44,0,0,0,2.88,2.87h.5c3.61.17,7.84,1.68,11.13,2.35,2.78-.35,4.78-1.29,5.31-2.63C538.89,708.82,518.21,708.41,518.21,708.41Z"/><path class="cls-9" d="M539.38,709.46c.15-1.14-.18-4-5-5.84-4.38-1.73-15.22-2.57-19.73,5.48-1.67,3,2.94-.34,8.08-.1C529.61,709.33,538.72,714.52,539.38,709.46Z"/><path class="cls-12" d="M506.57,762.1s5.62,1.7,10.24-4"/><path class="cls-12" d="M485.84,769.94s5.35,2.45,10.69-2.54"/><path class="cls-12" d="M460.79,758.34s5.51,2,10.47-3.32"/><path class="cls-12" d="M510.93,733.63s5.19,2.78,10.82-1.89"/><path class="cls-5" d="M929.82,763.81s-1.16,27,63.4,33.7c58,6,79.43.79,86.81-33.7,8.85-41.4-4.57-76.52-24.56-78.24s-29.41,15.14-27.13,40.27c0,0-116.3,24.91-113.08,39.4C916.4,770.38,929.82,763.81,929.82,763.81Z"/><path class="cls-7" d="M929.82,763.81s-1.16,27,63.4,33.7c51.68,5.35,74.35,1.79,83.88-23.48-4,9.12-30.38,20.49-84.45,16.63-56-4-57.69-29.7-57.69-29.7l-7.91-6c-7.79,3.67-12.47,7.2-11.79,10.27C916.4,770.38,929.82,763.81,929.82,763.81Z"/><polyline class="cls-4" points="997.22 787.8 1008.07 820.93 1022.92 820.93"/><path class="cls-6" d="M983.25,738.4c-4.45.54-8.55,1-12.8,2.51a26.89,26.89,0,0,0-5.36,3,19.79,19.79,0,0,1-5.87,2.28,60.12,60.12,0,0,0-12.86,4.92,2.79,2.79,0,0,1-3.69-.88,2.62,2.62,0,0,1-1-1.08c-16,5.67-27.44,11.44-26.4,16.13,1.14,5.14,14.56-1.43,14.56-1.43,18.75,16.07,45.95-9.63,61.87-28.35A20.89,20.89,0,0,1,983.25,738.4Z"/><path class="cls-10" d="M1028.26,724.72c0,.37,0,.74.08,1.12,0,0-53.41,11.44-86.84,23.32,5.14,13.47,19.69,36.76,57.43,27.22C1031,768.28,1032.4,743.26,1028.26,724.72Z"/><path class="cls-12" d="M985.84,769.94s5.35,2.45,10.69-2.54"/><path class="cls-12" d="M960.79,758.34s5.51,2,10.47-3.32"/><path class="cls-4" d="M801.86,556.08s13.94,11.48,28.45,9.26c0,0,3,11.71,6.78,14.89"/><path class="cls-10" d="M734.69,492.51C716,484.74,678.05,460,665.06,455.32c-18.33-6.64-37.16-10.37-42.78-9.39-4.1.71-4.21,3.54-3.41,10.44,1.2,10.23,12.76,34.88,32.86,42.41,18,6.74,30.46,5.15,38.75,9.51C699.18,512.86,744.2,496.44,734.69,492.51Z"/><path class="cls-5" d="M684.68,525c-2.81-12.85,1.13-26.86,18.75-32.24,24.8-7.56,29.21,1.31,74.4-8.84,8.12-1.83,17-7,21.8-2.63,27.26,24.83,42.55,15.06,48.79,15.3,8.17.32,17.64-1.9,18.81,4.85,1.37,7.88-15.32,11.94-15.32,11.94.88,18.39-8.56,47.3-37.59,50.57-38.09,4.29-69.06-22.28-90.58-24.28C695.46,537,687,535.68,684.68,525Z"/><path class="cls-7" d="M867,504.13c-6.56,2-16.43,1.32-16.43,1.32s-3.29,44.73-40.24,48.71C775,558,765,539.24,723.52,535c-14.75-1.5-17.83.78-33.86-4.71-1.71-.58-5-5.26-5-5.26,2.38,10.64,10.85,12,39,14.57,21.52,2,52.49,28.57,90.58,24.28,29-3.27,38.47-32.18,37.59-50.57C851.91,513.33,864.75,510.21,867,504.13Z"/><path class="cls-6" d="M867.23,501.39c-1.17-6.75-10.64-4.53-18.81-4.85-7.61-.3-23.35-11-70.59-12.67-8.89-.32-15.85,3.19-22,4,0,0,1.3,6.38,2.59,8.06,13.45,17.37,72,47.78,93.44,17.41C851.91,513.33,868.6,509.27,867.23,501.39Z"/><path class="cls-7" d="M695,523.92c-.82-5.24-8.43-.2-10.67.83a14.7,14.7,0,0,0,1.25,3.21l.8,1.27a17.25,17.25,0,0,0,5.19,4.1C693.08,531.9,695.55,527.46,695,523.92Z"/><path class="cls-7" d="M743.36,489s13.71,22.2,41.48,18.54,94.53-59.87,94.68-79c.15-18.42-62.77-7.66-95.57,30.49C760.49,486.33,743.36,489,743.36,489Z"/><path class="cls-10" d="M784,459c-23.46,27.29-40.59,30-40.59,30l.35.53c1.57,1.45,10.21,3.34,23.25-1.49,14.71-5.45,37.08-30.2,53.91-40.07s42.85-23.67,58.65-19.45C879.67,410.13,816.75,420.89,784,459Z"/><path class="cls-4" d="M808.09,550.7s21,7.59,34.44,1.77c0,0,5.89,10.57,10.32,12.7"/><path class="cls-9" d="M674.45,529s3.17,2,9.75,2.13c7.12.09,9.74-3.71,9.85-6.06S674.45,529,674.45,529Z"/><path class="cls-11" d="M678.87,530.59c3.32-1.63,8.46-1.63,13-1.62a5.55,5.55,0,0,0,2.21-3.87.3.3,0,0,0,0-.19C693,523.14,674.45,529,674.45,529A14.38,14.38,0,0,0,678.87,530.59Z"/><path class="cls-9" d="M694.83,523.2c-.22-1.12-1.44-3.68-6.61-3.92-4.7-.22-15.23,2.47-16.9,11.55-.62,3.37,2.67-1.27,7.61-2.7C685.54,526.23,695.84,528.21,694.83,523.2Z"/><circle class="cls-6" cx="688.75" cy="512.78" r="2.28"/><circle class="cls-6" cx="700.11" cy="514.67" r="2.28"/><path class="cls-8" d="M708.6,518.51s-4.78,1.54-5.08,5.35a5.69,5.69,0,0,0,2.58,5.41"/><path class="cls-5" d="M701,488.42c4.59-.25-4.77,13.7-4.77,13.7l-6.11-.69s6.28-12.77,10.88-13"/><path class="cls-5" d="M704.64,489.63c4.59-.25-4.77,13.7-4.77,13.7l-6.11-.7s6.29-12.76,10.88-13"/><path class="cls-8" d="M699.07,496.41a8.8,8.8,0,0,0,2.74-5"/><path class="cls-8" d="M703.74,497.88a14,14,0,0,0,2.2-5.4"/><path class="cls-12" d="M627.08,450s1.4,5.71,8.63,6.79"/><path class="cls-12" d="M644.78,486s1.4,5.71,8.64,6.79"/><path class="cls-12" d="M658.07,491s3.2,4.93,10.38,3.58"/><path class="cls-12" d="M671.47,464.73s2.64,5.25,9.93,4.69"/><path class="cls-12" d="M771,477.3s5.88,0,8.64-6.78"/><path class="cls-12" d="M855.79,424.15s5,3.14,10.93-1.11"/><path class="cls-12" d="M839.16,431.45s5.81.89,9.57-5.38"/><path class="cls-12" d="M685.18,485.86s2.64,5.25,9.93,4.69"/><path class="cls-10" d="M734.69,992.51C716,984.74,678.05,960,665.06,955.32c-18.33-6.64-37.16-10.37-42.78-9.39-4.1.71-4.21,3.54-3.41,10.44,1.2,10.23,12.76,34.88,32.86,42.41,18,6.74,30.46,5.15,38.75,9.51C699.18,1012.86,744.2,996.44,734.69,992.51Z"/><path class="cls-5" d="M684.68,1025c-2.81-12.85,1.13-26.86,18.75-32.24,24.8-7.56,29.21,1.31,74.4-8.84,8.12-1.83,17-7,21.8-2.63,27.26,24.83,42.55,15.06,48.79,15.3,8.17.32,17.64-1.9,18.81,4.85,1.37,7.88-15.32,11.94-15.32,11.94.88,18.39-8.56,47.3-37.59,50.57-38.09,4.29-69.06-22.28-90.58-24.28C695.46,1037,687,1035.68,684.68,1025Z"/><path class="cls-6" d="M867.23,1001.39c-1.17-6.75-10.64-4.53-18.81-4.85-7.61-.3-23.35-11-70.59-12.67-8.89-.32-15.85,3.19-22,4,0,0,1.3,6.38,2.59,8.06,13.45,17.37,72,47.78,93.44,17.41C851.91,1013.33,868.6,1009.27,867.23,1001.39Z"/><path class="cls-7" d="M743.36,989s13.71,22.2,41.48,18.54,94.53-59.87,94.68-79c.15-18.42-62.77-7.66-95.57,30.49C760.49,986.33,743.36,989,743.36,989Z"/><path class="cls-10" d="M784,959c-23.46,27.29-40.59,30-40.59,30l.35.53c1.57,1.45,10.21,3.34,23.25-1.49,14.71-5.45,37.08-30.2,53.91-40.07s42.85-23.67,58.65-19.45C879.67,910.13,816.75,920.89,784,959Z"/><path class="cls-5" d="M701,988.42c4.59-.25-4.77,13.7-4.77,13.7l-6.11-.69s6.28-12.77,10.88-13"/><path class="cls-5" d="M704.64,989.63c4.59-.25-4.77,13.7-4.77,13.7l-6.11-.7s6.29-12.76,10.88-13"/><path class="cls-8" d="M699.07,996.41a8.8,8.8,0,0,0,2.74-5"/><path class="cls-8" d="M703.74,997.88a14,14,0,0,0,2.2-5.4"/><path class="cls-12" d="M627.08,950s1.4,5.71,8.63,6.79"/><path class="cls-12" d="M644.78,986s1.4,5.71,8.64,6.79"/><path class="cls-12" d="M658.07,991s3.2,4.93,10.38,3.58"/><path class="cls-12" d="M671.47,964.73s2.64,5.25,9.93,4.69"/><path class="cls-12" d="M771,977.3s5.88,0,8.64-6.78"/><path class="cls-12" d="M855.79,924.15s5,3.14,10.93-1.11"/><path class="cls-12" d="M839.16,931.45s5.81.89,9.57-5.38"/><path class="cls-12" d="M685.18,985.86s2.64,5.25,9.93,4.69"/><path class="cls-10" d="M797.21,688c-3.17-2.27-38,12.4-69.64,49.68-26.16,30.8-32.51,64-29.27,66.76s40.11-17.1,64.2-45.46C794.86,720.9,800.68,690.5,797.21,688Z"/><path class="cls-13" d="M707.66,786.59s-21.91,18.13-6,31.66c18.64,15.84,36.46-24.46,49.27-21.86,11.51,2.33,1.75,21.48-8,13.22-7.83-6.65,1.35-26.76,24.25-29.63S795,762.13,795,762.13"/><path class="cls-9" d="M718,781.22s-12.13-3.8-21.2,5.24c-5,5-4.93,7.44-4.66,7.67.81.69,6.13-4.52,9.17-4.77,4-.32,7.28,2.93,7.28,2.93Z"/><rect class="cls-9" x="791.73" y="759.27" width="6.73" height="3.19" rx="1.15" transform="translate(237.25 -187.76) rotate(15.8)"/><path class="cls-14" d="M742.64,721.73c-2.85,2.72-5.72,5.61-8.58,8.68l7.16,23.52L764.17,757c2.77-3.34,5.33-6.61,7.71-9.8l-22.4-3Z"/><path class="cls-14" d="M758,708.55c-2.93,2.26-5.93,4.73-9,7.39l6.47,21.24L777,740.06q3.51-5.16,6.35-10l-19.61-2.62Z"/><path class="cls-14" d="M748.36,773.54c3.31-3,6.56-6.21,9.67-9.53L735.25,761,728,737.18l-.44.51c-2.76,3.26-5.3,6.54-7.64,9.81L727,770.68Z"/><path class="cls-9" d="M698,804a1.72,1.72,0,0,0,.32.44,1.18,1.18,0,0,0,.52.21l98.74-116.24a1.43,1.43,0,0,0-.35-.41,1.22,1.22,0,0,0-.54-.18Z"/><rect class="cls-1" x="499" y="500" width="500" height="500"/></g><g class="cls-15"><rect class="cls-3" x="-1" y="500" width="500" height="500"/><polyline class="cls-4" points="11.49 787.8 16.63 815.79 32.05 815.79"/><path class="cls-5" d="M-70.18,763.81s-1.16,27,63.4,33.7c58,6,79.43.79,86.81-33.7,8.85-41.4-4.57-76.52-24.56-78.24s-29.41,15.14-27.13,40.27c0,0-116.3,24.91-113.08,39.4C-83.6,770.38-70.18,763.81-70.18,763.81Z"/><circle class="cls-6" cx="40.05" cy="695.85" r="2.28"/><circle class="cls-6" cx="50.9" cy="702.13" r="2.28"/><path class="cls-7" d="M39,710.59c1.21-5-6.14-4.08-9.93-3.27A57.29,57.29,0,0,0,28,718.5C30.74,717.94,37.7,716,39,710.59Z"/><path class="cls-7" d="M-70.18,763.81s-1.16,27,63.4,33.7C44.9,802.86,67.57,799.3,77.1,774c-4,9.12-30.38,20.49-84.45,16.63C-63.32,786.66-65,761-65,761l-7.91-6c-7.79,3.67-12.47,7.2-11.79,10.27C-83.6,770.38-70.18,763.81-70.18,763.81Z"/><path class="cls-7" d="M77.45,773.07c.06-.18.13-.36.19-.55C77.57,772.69,77.51,772.87,77.45,773.07Z"/><path class="cls-8" d="M56.9,708.41s-5,.7-5.91,4.4a5.67,5.67,0,0,0,1.62,5.77"/><path class="cls-9" d="M18.21,708.41a12.82,12.82,0,0,0,8.54,5.15c5.66.74,10.41-.36,11.28-2.55S18.21,708.41,18.21,708.41Z"/><polyline class="cls-4" points="-2.78 787.8 8.07 820.93 22.92 820.93"/><path class="cls-10" d="M28.26,724.72c0,.37,0,.74.08,1.12,0,0-53.41,11.44-86.84,23.32,5.14,13.47,19.69,36.76,57.43,27.22C31,768.28,32.4,743.26,28.26,724.72Z"/><path class="cls-5" d="M49.56,679.08C45,679.5,56.23,692,56.23,692l6-1.56s-8-11.74-12.62-11.33"/><path class="cls-5" d="M46.13,680.8c-4.58.41,6.68,12.88,6.68,12.88l5.94-1.56s-8-11.74-12.62-11.32"/><path class="cls-8" d="M52.61,686.71a8.76,8.76,0,0,1-3.42-4.56"/><path class="cls-8" d="M50.33,690.71a8.74,8.74,0,0,1-3.43-4.57"/><path class="cls-11" d="M18.21,708.41a12.44,12.44,0,0,0,2.88,2.87h.5c3.61.17,7.84,1.68,11.13,2.35,2.78-.35,4.78-1.29,5.31-2.63C38.89,708.82,18.21,708.41,18.21,708.41Z"/><path class="cls-9" d="M39.38,709.46c.15-1.14-.18-4-5-5.84-4.38-1.73-15.22-2.57-19.73,5.48-1.67,3,2.94-.34,8.08-.1C29.61,709.33,38.72,714.52,39.38,709.46Z"/><path class="cls-12" d="M6.57,762.1s5.62,1.7,10.24-4"/><path class="cls-12" d="M10.93,733.63s5.19,2.78,10.82-1.89"/><polyline class="cls-4" points="511.49 787.8 516.63 815.79 532.05 815.79"/><path class="cls-5" d="M429.82,763.81s-1.16,27,63.4,33.7c58,6,79.43.79,86.81-33.7,8.85-41.4-4.57-76.52-24.56-78.24s-29.41,15.14-27.13,40.27c0,0-116.3,24.91-113.08,39.4C416.4,770.38,429.82,763.81,429.82,763.81Z"/><circle class="cls-6" cx="540.05" cy="695.85" r="2.28"/><circle class="cls-6" cx="550.9" cy="702.13" r="2.28"/><path class="cls-7" d="M539,710.59c1.21-5-6.14-4.08-9.93-3.27A57.29,57.29,0,0,0,528,718.5C530.74,717.94,537.7,716,539,710.59Z"/><path class="cls-7" d="M429.82,763.81s-1.16,27,63.4,33.7c51.68,5.35,74.35,1.79,83.88-23.48-4.05,9.12-30.38,20.49-84.45,16.63-56-4-57.69-29.7-57.69-29.7l-7.91-6c-7.79,3.67-12.47,7.2-11.79,10.27C416.4,770.38,429.82,763.81,429.82,763.81Z"/><path class="cls-7" d="M577.45,773.07c.06-.18.13-.36.19-.55C577.57,772.69,577.51,772.87,577.45,773.07Z"/><path class="cls-8" d="M556.9,708.41s-5,.7-5.91,4.4a5.67,5.67,0,0,0,1.62,5.77"/><path class="cls-9" d="M518.21,708.41a12.82,12.82,0,0,0,8.54,5.15c5.66.74,10.41-.36,11.28-2.55S518.21,708.41,518.21,708.41Z"/><polyline class="cls-4" points="497.22 787.8 508.07 820.93 522.92 820.93"/><path class="cls-6" d="M483.25,738.4c-4.45.54-8.55,1-12.8,2.51a26.89,26.89,0,0,0-5.36,3,19.79,19.79,0,0,1-5.87,2.28,60.12,60.12,0,0,0-12.86,4.92,2.79,2.79,0,0,1-3.69-.88,2.62,2.62,0,0,1-1-1.08c-16,5.67-27.44,11.44-26.4,16.13,1.14,5.14,14.56-1.43,14.56-1.43,18.75,16.07,45.95-9.63,61.87-28.35A20.89,20.89,0,0,1,483.25,738.4Z"/><path class="cls-10" d="M528.26,724.72c0,.37,0,.74.08,1.12,0,0-53.41,11.44-86.84,23.32,5.14,13.47,19.69,36.76,57.43,27.22C531,768.28,532.4,743.26,528.26,724.72Z"/><path class="cls-5" d="M549.56,679.08c-4.58.42,6.67,12.89,6.67,12.89l5.95-1.56s-8-11.74-12.62-11.33"/><path class="cls-5" d="M546.13,680.8c-4.58.41,6.68,12.88,6.68,12.88l5.94-1.56s-8-11.74-12.62-11.32"/><path class="cls-8" d="M552.61,686.71a8.76,8.76,0,0,1-3.42-4.56"/><path class="cls-8" d="M550.33,690.71a8.74,8.74,0,0,1-3.43-4.57"/><path class="cls-11" d="M518.21,708.41a12.44,12.44,0,0,0,2.88,2.87h.5c3.61.17,7.84,1.68,11.13,2.35,2.78-.35,4.78-1.29,5.31-2.63C538.89,708.82,518.21,708.41,518.21,708.41Z"/><path class="cls-9" d="M539.38,709.46c.15-1.14-.18-4-5-5.84-4.38-1.73-15.22-2.57-19.73,5.48-1.67,3,2.94-.34,8.08-.1C529.61,709.33,538.72,714.52,539.38,709.46Z"/><path class="cls-12" d="M506.57,762.1s5.62,1.7,10.24-4"/><path class="cls-12" d="M485.84,769.94s5.35,2.45,10.69-2.54"/><path class="cls-12" d="M460.79,758.34s5.51,2,10.47-3.32"/><path class="cls-12" d="M510.93,733.63s5.19,2.78,10.82-1.89"/><path class="cls-4" d="M301.86,556.08s13.94,11.48,28.45,9.26c0,0,3,11.71,6.78,14.89"/><path class="cls-10" d="M234.69,492.51C216,484.74,178.05,460,165.06,455.32c-18.33-6.64-37.16-10.37-42.78-9.39-4.1.71-4.21,3.54-3.41,10.44,1.2,10.23,12.76,34.88,32.86,42.41,18,6.74,30.46,5.15,38.75,9.51C199.18,512.86,244.2,496.44,234.69,492.51Z"/><path class="cls-5" d="M184.68,525c-2.81-12.85,1.13-26.86,18.75-32.24,24.8-7.56,29.21,1.31,74.4-8.84,8.12-1.83,17-7,21.8-2.63,27.26,24.83,42.55,15.06,48.79,15.3,8.17.32,17.64-1.9,18.81,4.85,1.37,7.88-15.32,11.94-15.32,11.94.88,18.39-8.56,47.3-37.59,50.57-38.09,4.29-69.06-22.28-90.58-24.28C195.46,537,187,535.68,184.68,525Z"/><path class="cls-7" d="M367,504.13c-6.56,2-16.43,1.32-16.43,1.32s-3.29,44.73-40.24,48.71C275,558,265,539.24,223.52,535c-14.75-1.5-17.83.78-33.86-4.71-1.71-.58-5-5.26-5-5.26,2.38,10.64,10.85,12,39,14.57,21.52,2,52.49,28.57,90.58,24.28,29-3.27,38.47-32.18,37.59-50.57C351.91,513.33,364.75,510.21,367,504.13Z"/><path class="cls-6" d="M367.23,501.39c-1.17-6.75-10.64-4.53-18.81-4.85-7.61-.3-23.35-11-70.59-12.67-8.89-.32-15.85,3.19-21.95,4,0,0,1.3,6.38,2.59,8.06,13.45,17.37,72,47.78,93.44,17.41C351.91,513.33,368.6,509.27,367.23,501.39Z"/><path class="cls-7" d="M195,523.92c-.82-5.24-8.43-.2-10.67.83a14.7,14.7,0,0,0,1.25,3.21l.8,1.27a17.25,17.25,0,0,0,5.19,4.1C193.08,531.9,195.55,527.46,195,523.92Z"/><path class="cls-7" d="M243.36,489s13.71,22.2,41.48,18.54,94.53-59.87,94.68-79c.15-18.42-62.77-7.66-95.57,30.49C260.49,486.33,243.36,489,243.36,489Z"/><path class="cls-10" d="M284,459c-23.46,27.29-40.59,30-40.59,30l.35.53c1.57,1.45,10.21,3.34,23.25-1.49,14.71-5.45,37.08-30.2,53.91-40.07s42.85-23.67,58.65-19.45C379.67,410.13,316.75,420.89,284,459Z"/><path class="cls-4" d="M308.09,550.7s21,7.59,34.44,1.77c0,0,5.89,10.57,10.32,12.7"/><path class="cls-9" d="M174.45,529s3.17,2,9.75,2.13c7.12.09,9.74-3.71,9.85-6.06S174.45,529,174.45,529Z"/><path class="cls-11" d="M178.87,530.59c3.32-1.63,8.46-1.63,13-1.62a5.55,5.55,0,0,0,2.21-3.87.3.3,0,0,0,0-.19C193,523.14,174.45,529,174.45,529A14.38,14.38,0,0,0,178.87,530.59Z"/><path class="cls-9" d="M194.83,523.2c-.22-1.12-1.44-3.68-6.61-3.92-4.7-.22-15.23,2.47-16.9,11.55-.62,3.37,2.67-1.27,7.61-2.7C185.54,526.23,195.84,528.21,194.83,523.2Z"/><circle class="cls-6" cx="188.75" cy="512.78" r="2.28"/><circle class="cls-6" cx="200.11" cy="514.67" r="2.28"/><path class="cls-8" d="M208.6,518.51s-4.78,1.54-5.08,5.35a5.69,5.69,0,0,0,2.58,5.41"/><path class="cls-5" d="M201,488.42c4.59-.25-4.77,13.7-4.77,13.7l-6.11-.69s6.28-12.77,10.88-13"/><path class="cls-5" d="M204.64,489.63c4.59-.25-4.77,13.7-4.77,13.7l-6.11-.7s6.29-12.76,10.88-13"/><path class="cls-8" d="M199.07,496.41a8.8,8.8,0,0,0,2.74-5"/><path class="cls-8" d="M203.74,497.88a14,14,0,0,0,2.2-5.4"/><path class="cls-12" d="M127.08,450s1.4,5.71,8.63,6.79"/><path class="cls-12" d="M144.78,486s1.4,5.71,8.64,6.79"/><path class="cls-12" d="M158.07,491s3.2,4.93,10.38,3.58"/><path class="cls-12" d="M171.47,464.73s2.64,5.25,9.93,4.69"/><path class="cls-12" d="M271,477.3s5.88,0,8.64-6.78"/><path class="cls-12" d="M355.79,424.15s5,3.14,10.93-1.11"/><path class="cls-12" d="M339.16,431.45s5.81.89,9.57-5.38"/><path class="cls-12" d="M185.18,485.86s2.64,5.25,9.93,4.69"/><path class="cls-10" d="M234.69,992.51C216,984.74,178.05,960,165.06,955.32c-18.33-6.64-37.16-10.37-42.78-9.39-4.1.71-4.21,3.54-3.41,10.44,1.2,10.23,12.76,34.88,32.86,42.41,18,6.74,30.46,5.15,38.75,9.51C199.18,1012.86,244.2,996.44,234.69,992.51Z"/><path class="cls-5" d="M184.68,1025c-2.81-12.85,1.13-26.86,18.75-32.24,24.8-7.56,29.21,1.31,74.4-8.84,8.12-1.83,17-7,21.8-2.63,27.26,24.83,42.55,15.06,48.79,15.3,8.17.32,17.64-1.9,18.81,4.85,1.37,7.88-15.32,11.94-15.32,11.94.88,18.39-8.56,47.3-37.59,50.57-38.09,4.29-69.06-22.28-90.58-24.28C195.46,1037,187,1035.68,184.68,1025Z"/><path class="cls-6" d="M367.23,1001.39c-1.17-6.75-10.64-4.53-18.81-4.85-7.61-.3-23.35-11-70.59-12.67-8.89-.32-15.85,3.19-21.95,4,0,0,1.3,6.38,2.59,8.06,13.45,17.37,72,47.78,93.44,17.41C351.91,1013.33,368.6,1009.27,367.23,1001.39Z"/><path class="cls-7" d="M243.36,989s13.71,22.2,41.48,18.54,94.53-59.87,94.68-79c.15-18.42-62.77-7.66-95.57,30.49C260.49,986.33,243.36,989,243.36,989Z"/><path class="cls-10" d="M284,959c-23.46,27.29-40.59,30-40.59,30l.35.53c1.57,1.45,10.21,3.34,23.25-1.49,14.71-5.45,37.08-30.2,53.91-40.07s42.85-23.67,58.65-19.45C379.67,910.13,316.75,920.89,284,959Z"/><path class="cls-5" d="M201,988.42c4.59-.25-4.77,13.7-4.77,13.7l-6.11-.69s6.28-12.77,10.88-13"/><path class="cls-5" d="M204.64,989.63c4.59-.25-4.77,13.7-4.77,13.7l-6.11-.7s6.29-12.76,10.88-13"/><path class="cls-8" d="M199.07,996.41a8.8,8.8,0,0,0,2.74-5"/><path class="cls-8" d="M203.74,997.88a14,14,0,0,0,2.2-5.4"/><path class="cls-12" d="M127.08,950s1.4,5.71,8.63,6.79"/><path class="cls-12" d="M144.78,986s1.4,5.71,8.64,6.79"/><path class="cls-12" d="M158.07,991s3.2,4.93,10.38,3.58"/><path class="cls-12" d="M171.47,964.73s2.64,5.25,9.93,4.69"/><path class="cls-12" d="M271,977.3s5.88,0,8.64-6.78"/><path class="cls-12" d="M355.79,924.15s5,3.14,10.93-1.11"/><path class="cls-12" d="M339.16,931.45s5.81.89,9.57-5.38"/><path class="cls-12" d="M185.18,985.86s2.64,5.25,9.93,4.69"/><path class="cls-10" d="M297.21,688c-3.17-2.27-38,12.4-69.64,49.68-26.16,30.8-32.51,64-29.27,66.76s40.11-17.1,64.2-45.46C294.86,720.9,300.68,690.5,297.21,688Z"/><path class="cls-13" d="M207.66,786.59s-21.91,18.13-6,31.66c18.64,15.84,36.46-24.46,49.27-21.86,11.51,2.33,1.75,21.48-8,13.22-7.83-6.65,1.35-26.76,24.25-29.63S295,762.13,295,762.13"/><path class="cls-9" d="M218,781.22s-12.13-3.8-21.2,5.24c-5,5-4.93,7.44-4.66,7.67.81.69,6.13-4.52,9.17-4.77,4-.32,7.28,2.93,7.28,2.93Z"/><rect class="cls-9" x="291.73" y="759.27" width="6.73" height="3.19" rx="1.15" transform="translate(218.35 -51.6) rotate(15.8)"/><path class="cls-14" d="M242.64,721.73c-2.85,2.72-5.72,5.61-8.58,8.68l7.16,23.52,23,3.08c2.77-3.34,5.33-6.61,7.71-9.8l-22.4-3Z"/><path class="cls-14" d="M258,708.55c-2.93,2.26-5.93,4.73-9,7.39l6.47,21.24L277,740.06q3.51-5.16,6.35-10l-19.61-2.62Z"/><path class="cls-14" d="M248.36,773.54c3.31-3,6.56-6.21,9.67-9.53L235.25,761,228,737.18l-.44.51c-2.76,3.26-5.3,6.54-7.64,9.81L227,770.68Z"/><path class="cls-9" d="M198,804a1.72,1.72,0,0,0,.32.44,1.18,1.18,0,0,0,.52.21l98.74-116.24a1.43,1.43,0,0,0-.35-.41,1.22,1.22,0,0,0-.54-.18Z"/><rect class="cls-1" x="-1" y="500" width="500" height="500"/></g><g class="cls-16"><rect class="cls-3" x="499" width="500" height="500"/><polyline class="cls-4" points="511.49 287.8 516.63 315.79 532.05 315.79"/><path class="cls-5" d="M429.82,263.81s-1.16,27,63.4,33.7c58,6,79.43.79,86.81-33.7,8.85-41.4-4.57-76.52-24.56-78.24s-29.41,15.14-27.13,40.27c0,0-116.3,24.91-113.08,39.4C416.4,270.38,429.82,263.81,429.82,263.81Z"/><circle class="cls-6" cx="540.05" cy="195.85" r="2.28"/><circle class="cls-6" cx="550.9" cy="202.13" r="2.28"/><path class="cls-7" d="M539,210.59c1.21-5-6.14-4.08-9.93-3.27A57.29,57.29,0,0,0,528,218.5C530.74,217.94,537.7,216,539,210.59Z"/><path class="cls-7" d="M429.82,263.81s-1.16,27,63.4,33.7c51.68,5.35,74.35,1.79,83.88-23.48-4.05,9.12-30.38,20.49-84.45,16.63-56-4-57.69-29.7-57.69-29.7l-7.91-6c-7.79,3.67-12.47,7.2-11.79,10.27C416.4,270.38,429.82,263.81,429.82,263.81Z"/><path class="cls-7" d="M577.45,273.07c.06-.18.13-.36.19-.55C577.57,272.69,577.51,272.87,577.45,273.07Z"/><path class="cls-8" d="M556.9,208.41s-5,.7-5.91,4.4a5.67,5.67,0,0,0,1.62,5.77"/><path class="cls-9" d="M518.21,208.41a12.82,12.82,0,0,0,8.54,5.15c5.66.74,10.41-.36,11.28-2.55S518.21,208.41,518.21,208.41Z"/><polyline class="cls-4" points="497.22 287.8 508.07 320.93 522.92 320.93"/><path class="cls-6" d="M483.25,238.4c-4.45.54-8.55,1-12.8,2.51a26.89,26.89,0,0,0-5.36,3,19.79,19.79,0,0,1-5.87,2.28,60.12,60.12,0,0,0-12.86,4.92,2.79,2.79,0,0,1-3.69-.88,2.62,2.62,0,0,1-1-1.08c-16,5.67-27.44,11.44-26.4,16.13,1.14,5.14,14.56-1.43,14.56-1.43,18.75,16.07,45.95-9.63,61.87-28.35A20.89,20.89,0,0,1,483.25,238.4Z"/><path class="cls-10" d="M528.26,224.72c0,.37,0,.74.08,1.12,0,0-53.41,11.44-86.84,23.32,5.14,13.47,19.69,36.76,57.43,27.22C531,268.28,532.4,243.26,528.26,224.72Z"/><path class="cls-5" d="M549.56,179.08c-4.58.42,6.67,12.89,6.67,12.89l5.95-1.56s-8-11.74-12.62-11.33"/><path class="cls-5" d="M546.13,180.8c-4.58.41,6.68,12.88,6.68,12.88l5.94-1.56s-8-11.74-12.62-11.32"/><path class="cls-8" d="M552.61,186.71a8.76,8.76,0,0,1-3.42-4.56"/><path class="cls-8" d="M550.33,190.71a8.74,8.74,0,0,1-3.43-4.57"/><path class="cls-11" d="M518.21,208.41a12.44,12.44,0,0,0,2.88,2.87h.5c3.61.17,7.84,1.68,11.13,2.35,2.78-.35,4.78-1.29,5.31-2.63C538.89,208.82,518.21,208.41,518.21,208.41Z"/><path class="cls-9" d="M539.38,209.46c.15-1.14-.18-4-5-5.84-4.38-1.73-15.22-2.57-19.73,5.48-1.67,3,2.94-.34,8.08-.1C529.61,209.33,538.72,214.52,539.38,209.46Z"/><path class="cls-12" d="M506.57,262.1s5.62,1.7,10.24-4"/><path class="cls-12" d="M485.84,269.94s5.35,2.45,10.69-2.54"/><path class="cls-12" d="M460.79,258.34s5.51,2.05,10.47-3.32"/><path class="cls-12" d="M510.93,233.63s5.19,2.78,10.82-1.89"/><path class="cls-5" d="M929.82,263.81s-1.16,27,63.4,33.7c58,6,79.43.79,86.81-33.7,8.85-41.4-4.57-76.52-24.56-78.24s-29.41,15.14-27.13,40.27c0,0-116.3,24.91-113.08,39.4C916.4,270.38,929.82,263.81,929.82,263.81Z"/><path class="cls-7" d="M929.82,263.81s-1.16,27,63.4,33.7c51.68,5.35,74.35,1.79,83.88-23.48-4,9.12-30.38,20.49-84.45,16.63-56-4-57.69-29.7-57.69-29.7l-7.91-6c-7.79,3.67-12.47,7.2-11.79,10.27C916.4,270.38,929.82,263.81,929.82,263.81Z"/><polyline class="cls-4" points="997.22 287.8 1008.07 320.93 1022.92 320.93"/><path class="cls-6" d="M983.25,238.4c-4.45.54-8.55,1-12.8,2.51a26.89,26.89,0,0,0-5.36,3,19.79,19.79,0,0,1-5.87,2.28,60.12,60.12,0,0,0-12.86,4.92,2.79,2.79,0,0,1-3.69-.88,2.62,2.62,0,0,1-1-1.08c-16,5.67-27.44,11.44-26.4,16.13,1.14,5.14,14.56-1.43,14.56-1.43,18.75,16.07,45.95-9.63,61.87-28.35A20.89,20.89,0,0,1,983.25,238.4Z"/><path class="cls-10" d="M1028.26,224.72c0,.37,0,.74.08,1.12,0,0-53.41,11.44-86.84,23.32,5.14,13.47,19.69,36.76,57.43,27.22C1031,268.28,1032.4,243.26,1028.26,224.72Z"/><path class="cls-12" d="M985.84,269.94s5.35,2.45,10.69-2.54"/><path class="cls-12" d="M960.79,258.34s5.51,2.05,10.47-3.32"/><path class="cls-4" d="M801.86,56.08s13.94,11.48,28.45,9.26c0,0,3,11.71,6.78,14.89"/><path class="cls-10" d="M734.69-7.49C716-15.26,678.05-40,665.06-44.68,646.73-51.32,627.9-55,622.28-54.07c-4.1.71-4.21,3.54-3.41,10.44,1.2,10.23,12.76,34.88,32.86,42.41,18,6.74,30.46,5.15,38.75,9.51C699.18,12.86,744.2-3.56,734.69-7.49Z"/><path class="cls-5" d="M684.68,25c-2.81-12.85,1.13-26.86,18.75-32.24,24.8-7.56,29.21,1.31,74.4-8.84,8.12-1.83,17-7,21.8-2.63C826.89,6.07,842.18-3.7,848.42-3.46c8.17.32,17.64-1.9,18.81,4.85,1.37,7.88-15.32,11.94-15.32,11.94.88,18.39-8.56,47.3-37.59,50.57-38.09,4.29-69.06-22.28-90.58-24.28C695.46,37,687,35.68,684.68,25Z"/><path class="cls-7" d="M867,4.13c-6.56,2-16.43,1.32-16.43,1.32s-3.29,44.73-40.24,48.71C775,58,765,39.24,723.52,35c-14.75-1.5-17.83.78-33.86-4.71-1.71-.58-5-5.26-5-5.26,2.38,10.64,10.85,12,39,14.57,21.52,2,52.49,28.57,90.58,24.28,29-3.27,38.47-32.18,37.59-50.57C851.91,13.33,864.75,10.21,867,4.13Z"/><path class="cls-6" d="M867.23,1.39c-1.17-6.75-10.64-4.53-18.81-4.85-7.61-.3-23.35-11-70.59-12.67-8.89-.32-15.85,3.19-22,4,0,0,1.3,6.38,2.59,8.06,13.45,17.37,72,47.78,93.44,17.41C851.91,13.33,868.6,9.27,867.23,1.39Z"/><path class="cls-7" d="M695,23.92c-.82-5.24-8.43-.2-10.67.83A14.7,14.7,0,0,0,685.58,28l.8,1.27a17.25,17.25,0,0,0,5.19,4.1C693.08,31.9,695.55,27.46,695,23.92Z"/><path class="cls-7" d="M743.36-11s13.71,22.2,41.48,18.54,94.53-59.87,94.68-79C879.67-89.87,816.75-79.11,784-41,760.49-13.67,743.36-11,743.36-11Z"/><path class="cls-4" d="M808.09,50.7s21,7.59,34.44,1.77c0,0,5.89,10.57,10.32,12.7"/><path class="cls-9" d="M674.45,29s3.17,2,9.75,2.13c7.12.09,9.74-3.71,9.85-6.06S674.45,29,674.45,29Z"/><path class="cls-11" d="M678.87,30.59c3.32-1.63,8.46-1.63,13-1.62a5.55,5.55,0,0,0,2.21-3.87.3.3,0,0,0,0-.19C693,23.14,674.45,29,674.45,29A14.38,14.38,0,0,0,678.87,30.59Z"/><path class="cls-9" d="M694.83,23.2c-.22-1.12-1.44-3.68-6.61-3.92-4.7-.22-15.23,2.47-16.9,11.55-.62,3.37,2.67-1.27,7.61-2.7C685.54,26.23,695.84,28.21,694.83,23.2Z"/><circle class="cls-6" cx="688.75" cy="12.78" r="2.28"/><circle class="cls-6" cx="700.11" cy="14.67" r="2.28"/><path class="cls-8" d="M708.6,18.51s-4.78,1.54-5.08,5.35a5.69,5.69,0,0,0,2.58,5.41"/><path class="cls-5" d="M701-11.58c4.59-.25-4.77,13.7-4.77,13.7l-6.11-.69s6.28-12.77,10.88-13"/><path class="cls-5" d="M704.64-10.37c4.59-.25-4.77,13.7-4.77,13.7l-6.11-.7s6.29-12.76,10.88-13"/><path class="cls-4" d="M801.86,556.08s13.94,11.48,28.45,9.26c0,0,3,11.71,6.78,14.89"/><path class="cls-10" d="M734.69,492.51C716,484.74,678.05,460,665.06,455.32c-18.33-6.64-37.16-10.37-42.78-9.39-4.1.71-4.21,3.54-3.41,10.44,1.2,10.23,12.76,34.88,32.86,42.41,18,6.74,30.46,5.15,38.75,9.51C699.18,512.86,744.2,496.44,734.69,492.51Z"/><path class="cls-5" d="M684.68,525c-2.81-12.85,1.13-26.86,18.75-32.24,24.8-7.56,29.21,1.31,74.4-8.84,8.12-1.83,17-7,21.8-2.63,27.26,24.83,42.55,15.06,48.79,15.3,8.17.32,17.64-1.9,18.81,4.85,1.37,7.88-15.32,11.94-15.32,11.94.88,18.39-8.56,47.3-37.59,50.57-38.09,4.29-69.06-22.28-90.58-24.28C695.46,537,687,535.68,684.68,525Z"/><path class="cls-7" d="M867,504.13c-6.56,2-16.43,1.32-16.43,1.32s-3.29,44.73-40.24,48.71C775,558,765,539.24,723.52,535c-14.75-1.5-17.83.78-33.86-4.71-1.71-.58-5-5.26-5-5.26,2.38,10.64,10.85,12,39,14.57,21.52,2,52.49,28.57,90.58,24.28,29-3.27,38.47-32.18,37.59-50.57C851.91,513.33,864.75,510.21,867,504.13Z"/><path class="cls-6" d="M867.23,501.39c-1.17-6.75-10.64-4.53-18.81-4.85-7.61-.3-23.35-11-70.59-12.67-8.89-.32-15.85,3.19-22,4,0,0,1.3,6.38,2.59,8.06,13.45,17.37,72,47.78,93.44,17.41C851.91,513.33,868.6,509.27,867.23,501.39Z"/><path class="cls-7" d="M695,523.92c-.82-5.24-8.43-.2-10.67.83a14.7,14.7,0,0,0,1.25,3.21l.8,1.27a17.25,17.25,0,0,0,5.19,4.1C693.08,531.9,695.55,527.46,695,523.92Z"/><path class="cls-7" d="M743.36,489s13.71,22.2,41.48,18.54,94.53-59.87,94.68-79c.15-18.42-62.77-7.66-95.57,30.49C760.49,486.33,743.36,489,743.36,489Z"/><path class="cls-10" d="M784,459c-23.46,27.29-40.59,30-40.59,30l.35.53c1.57,1.45,10.21,3.34,23.25-1.49,14.71-5.45,37.08-30.2,53.91-40.07s42.85-23.67,58.65-19.45C879.67,410.13,816.75,420.89,784,459Z"/><path class="cls-4" d="M808.09,550.7s21,7.59,34.44,1.77c0,0,5.89,10.57,10.32,12.7"/><path class="cls-9" d="M674.45,529s3.17,2,9.75,2.13c7.12.09,9.74-3.71,9.85-6.06S674.45,529,674.45,529Z"/><path class="cls-11" d="M678.87,530.59c3.32-1.63,8.46-1.63,13-1.62a5.55,5.55,0,0,0,2.21-3.87.3.3,0,0,0,0-.19C693,523.14,674.45,529,674.45,529A14.38,14.38,0,0,0,678.87,530.59Z"/><path class="cls-9" d="M694.83,523.2c-.22-1.12-1.44-3.68-6.61-3.92-4.7-.22-15.23,2.47-16.9,11.55-.62,3.37,2.67-1.27,7.61-2.7C685.54,526.23,695.84,528.21,694.83,523.2Z"/><circle class="cls-6" cx="688.75" cy="512.78" r="2.28"/><circle class="cls-6" cx="700.11" cy="514.67" r="2.28"/><path class="cls-8" d="M708.6,518.51s-4.78,1.54-5.08,5.35a5.69,5.69,0,0,0,2.58,5.41"/><path class="cls-5" d="M701,488.42c4.59-.25-4.77,13.7-4.77,13.7l-6.11-.69s6.28-12.77,10.88-13"/><path class="cls-5" d="M704.64,489.63c4.59-.25-4.77,13.7-4.77,13.7l-6.11-.7s6.29-12.76,10.88-13"/><path class="cls-8" d="M699.07,496.41a8.8,8.8,0,0,0,2.74-5"/><path class="cls-8" d="M703.74,497.88a14,14,0,0,0,2.2-5.4"/><path class="cls-12" d="M627.08,450s1.4,5.71,8.63,6.79"/><path class="cls-12" d="M644.78,486s1.4,5.71,8.64,6.79"/><path class="cls-12" d="M658.07,491s3.2,4.93,10.38,3.58"/><path class="cls-12" d="M671.47,464.73s2.64,5.25,9.93,4.69"/><path class="cls-12" d="M771,477.3s5.88,0,8.64-6.78"/><path class="cls-12" d="M855.79,424.15s5,3.14,10.93-1.11"/><path class="cls-12" d="M839.16,431.45s5.81.89,9.57-5.38"/><path class="cls-12" d="M685.18,485.86s2.64,5.25,9.93,4.69"/><path class="cls-10" d="M797.21,188c-3.17-2.27-38,12.4-69.64,49.68-26.16,30.8-32.51,64-29.27,66.76s40.11-17.1,64.2-45.46C794.86,220.9,800.68,190.5,797.21,188Z"/><path class="cls-13" d="M707.66,286.59s-21.91,18.13-6,31.66c18.64,15.84,36.46-24.46,49.27-21.86,11.51,2.33,1.75,21.48-8,13.22-7.83-6.65,1.35-26.76,24.25-29.63S795,262.13,795,262.13"/><path class="cls-9" d="M718,281.22s-12.13-3.8-21.2,5.24c-5,5-4.93,7.44-4.66,7.67.81.69,6.13-4.52,9.17-4.77,4-.32,7.28,2.93,7.28,2.93Z"/><rect class="cls-9" x="791.73" y="259.27" width="6.73" height="3.19" rx="1.15" transform="translate(101.09 -206.66) rotate(15.8)"/><path class="cls-14" d="M742.64,221.73c-2.85,2.72-5.72,5.61-8.58,8.68l7.16,23.52L764.17,257c2.77-3.34,5.33-6.61,7.71-9.8l-22.4-3Z"/><path class="cls-14" d="M758,208.55c-2.93,2.26-5.93,4.73-9,7.39l6.47,21.24L777,240.06q3.51-5.16,6.35-10l-19.61-2.62Z"/><path class="cls-14" d="M748.36,273.54c3.31-3,6.56-6.21,9.67-9.53L735.25,261,728,237.18l-.44.51c-2.76,3.26-5.3,6.54-7.64,9.81L727,270.68Z"/><path class="cls-9" d="M698,304a1.72,1.72,0,0,0,.32.44,1.18,1.18,0,0,0,.52.21l98.74-116.24a1.43,1.43,0,0,0-.35-.41,1.22,1.22,0,0,0-.54-.18Z"/><rect class="cls-1" x="499" width="500" height="500"/></g><g class="cls-17"><rect class="cls-3" x="-1" width="500" height="500"/><polyline class="cls-4" points="11.49 287.8 16.63 315.79 32.05 315.79"/><path class="cls-5" d="M-70.18,263.81s-1.16,27,63.4,33.7c58,6,79.43.79,86.81-33.7,8.85-41.4-4.57-76.52-24.56-78.24s-29.41,15.14-27.13,40.27c0,0-116.3,24.91-113.08,39.4C-83.6,270.38-70.18,263.81-70.18,263.81Z"/><circle class="cls-6" cx="40.05" cy="195.85" r="2.28"/><circle class="cls-6" cx="50.9" cy="202.13" r="2.28"/><path class="cls-7" d="M39,210.59c1.21-5-6.14-4.08-9.93-3.27A57.29,57.29,0,0,0,28,218.5C30.74,217.94,37.7,216,39,210.59Z"/><path class="cls-7" d="M-70.18,263.81s-1.16,27,63.4,33.7C44.9,302.86,67.57,299.3,77.1,274c-4,9.12-30.38,20.49-84.45,16.63C-63.32,286.66-65,261-65,261l-7.91-6c-7.79,3.67-12.47,7.2-11.79,10.27C-83.6,270.38-70.18,263.81-70.18,263.81Z"/><path class="cls-7" d="M77.45,273.07c.06-.18.13-.36.19-.55C77.57,272.69,77.51,272.87,77.45,273.07Z"/><path class="cls-8" d="M56.9,208.41s-5,.7-5.91,4.4a5.67,5.67,0,0,0,1.62,5.77"/><path class="cls-9" d="M18.21,208.41a12.82,12.82,0,0,0,8.54,5.15c5.66.74,10.41-.36,11.28-2.55S18.21,208.41,18.21,208.41Z"/><polyline class="cls-4" points="-2.78 287.8 8.07 320.93 22.92 320.93"/><path class="cls-10" d="M28.26,224.72c0,.37,0,.74.08,1.12,0,0-53.41,11.44-86.84,23.32,5.14,13.47,19.69,36.76,57.43,27.22C31,268.28,32.4,243.26,28.26,224.72Z"/><path class="cls-5" d="M49.56,179.08C45,179.5,56.23,192,56.23,192l6-1.56s-8-11.74-12.62-11.33"/><path class="cls-5" d="M46.13,180.8c-4.58.41,6.68,12.88,6.68,12.88l5.94-1.56s-8-11.74-12.62-11.32"/><path class="cls-8" d="M52.61,186.71a8.76,8.76,0,0,1-3.42-4.56"/><path class="cls-8" d="M50.33,190.71a8.74,8.74,0,0,1-3.43-4.57"/><path class="cls-11" d="M18.21,208.41a12.44,12.44,0,0,0,2.88,2.87h.5c3.61.17,7.84,1.68,11.13,2.35,2.78-.35,4.78-1.29,5.31-2.63C38.89,208.82,18.21,208.41,18.21,208.41Z"/><path class="cls-9" d="M39.38,209.46c.15-1.14-.18-4-5-5.84-4.38-1.73-15.22-2.57-19.73,5.48-1.67,3,2.94-.34,8.08-.1C29.61,209.33,38.72,214.52,39.38,209.46Z"/><path class="cls-12" d="M6.57,262.1s5.62,1.7,10.24-4"/><path class="cls-12" d="M10.93,233.63s5.19,2.78,10.82-1.89"/><polyline class="cls-4" points="511.49 287.8 516.63 315.79 532.05 315.79"/><path class="cls-5" d="M429.82,263.81s-1.16,27,63.4,33.7c58,6,79.43.79,86.81-33.7,8.85-41.4-4.57-76.52-24.56-78.24s-29.41,15.14-27.13,40.27c0,0-116.3,24.91-113.08,39.4C416.4,270.38,429.82,263.81,429.82,263.81Z"/><circle class="cls-6" cx="540.05" cy="195.85" r="2.28"/><circle class="cls-6" cx="550.9" cy="202.13" r="2.28"/><path class="cls-7" d="M539,210.59c1.21-5-6.14-4.08-9.93-3.27A57.29,57.29,0,0,0,528,218.5C530.74,217.94,537.7,216,539,210.59Z"/><path class="cls-7" d="M429.82,263.81s-1.16,27,63.4,33.7c51.68,5.35,74.35,1.79,83.88-23.48-4.05,9.12-30.38,20.49-84.45,16.63-56-4-57.69-29.7-57.69-29.7l-7.91-6c-7.79,3.67-12.47,7.2-11.79,10.27C416.4,270.38,429.82,263.81,429.82,263.81Z"/><path class="cls-7" d="M577.45,273.07c.06-.18.13-.36.19-.55C577.57,272.69,577.51,272.87,577.45,273.07Z"/><path class="cls-8" d="M556.9,208.41s-5,.7-5.91,4.4a5.67,5.67,0,0,0,1.62,5.77"/><path class="cls-9" d="M518.21,208.41a12.82,12.82,0,0,0,8.54,5.15c5.66.74,10.41-.36,11.28-2.55S518.21,208.41,518.21,208.41Z"/><polyline class="cls-4" points="497.22 287.8 508.07 320.93 522.92 320.93"/><path class="cls-6" d="M483.25,238.4c-4.45.54-8.55,1-12.8,2.51a26.89,26.89,0,0,0-5.36,3,19.79,19.79,0,0,1-5.87,2.28,60.12,60.12,0,0,0-12.86,4.92,2.79,2.79,0,0,1-3.69-.88,2.62,2.62,0,0,1-1-1.08c-16,5.67-27.44,11.44-26.4,16.13,1.14,5.14,14.56-1.43,14.56-1.43,18.75,16.07,45.95-9.63,61.87-28.35A20.89,20.89,0,0,1,483.25,238.4Z"/><path class="cls-10" d="M528.26,224.72c0,.37,0,.74.08,1.12,0,0-53.41,11.44-86.84,23.32,5.14,13.47,19.69,36.76,57.43,27.22C531,268.28,532.4,243.26,528.26,224.72Z"/><path class="cls-5" d="M549.56,179.08c-4.58.42,6.67,12.89,6.67,12.89l5.95-1.56s-8-11.74-12.62-11.33"/><path class="cls-5" d="M546.13,180.8c-4.58.41,6.68,12.88,6.68,12.88l5.94-1.56s-8-11.74-12.62-11.32"/><path class="cls-8" d="M552.61,186.71a8.76,8.76,0,0,1-3.42-4.56"/><path class="cls-8" d="M550.33,190.71a8.74,8.74,0,0,1-3.43-4.57"/><path class="cls-11" d="M518.21,208.41a12.44,12.44,0,0,0,2.88,2.87h.5c3.61.17,7.84,1.68,11.13,2.35,2.78-.35,4.78-1.29,5.31-2.63C538.89,208.82,518.21,208.41,518.21,208.41Z"/><path class="cls-9" d="M539.38,209.46c.15-1.14-.18-4-5-5.84-4.38-1.73-15.22-2.57-19.73,5.48-1.67,3,2.94-.34,8.08-.1C529.61,209.33,538.72,214.52,539.38,209.46Z"/><path class="cls-12" d="M506.57,262.1s5.62,1.7,10.24-4"/><path class="cls-12" d="M485.84,269.94s5.35,2.45,10.69-2.54"/><path class="cls-12" d="M460.79,258.34s5.51,2.05,10.47-3.32"/><path class="cls-12" d="M510.93,233.63s5.19,2.78,10.82-1.89"/><path class="cls-4" d="M301.86,56.08s13.94,11.48,28.45,9.26c0,0,3,11.71,6.78,14.89"/><path class="cls-10" d="M234.69-7.49C216-15.26,178.05-40,165.06-44.68,146.73-51.32,127.9-55,122.28-54.07c-4.1.71-4.21,3.54-3.41,10.44,1.2,10.23,12.76,34.88,32.86,42.41,18,6.74,30.46,5.15,38.75,9.51C199.18,12.86,244.2-3.56,234.69-7.49Z"/><path class="cls-5" d="M184.68,25c-2.81-12.85,1.13-26.86,18.75-32.24,24.8-7.56,29.21,1.31,74.4-8.84,8.12-1.83,17-7,21.8-2.63C326.89,6.07,342.18-3.7,348.42-3.46c8.17.32,17.64-1.9,18.81,4.85,1.37,7.88-15.32,11.94-15.32,11.94.88,18.39-8.56,47.3-37.59,50.57-38.09,4.29-69.06-22.28-90.58-24.28C195.46,37,187,35.68,184.68,25Z"/><path class="cls-7" d="M367,4.13c-6.56,2-16.43,1.32-16.43,1.32s-3.29,44.73-40.24,48.71C275,58,265,39.24,223.52,35c-14.75-1.5-17.83.78-33.86-4.71-1.71-.58-5-5.26-5-5.26,2.38,10.64,10.85,12,39,14.57,21.52,2,52.49,28.57,90.58,24.28,29-3.27,38.47-32.18,37.59-50.57C351.91,13.33,364.75,10.21,367,4.13Z"/><path class="cls-6" d="M367.23,1.39c-1.17-6.75-10.64-4.53-18.81-4.85-7.61-.3-23.35-11-70.59-12.67-8.89-.32-15.85,3.19-21.95,4,0,0,1.3,6.38,2.59,8.06,13.45,17.37,72,47.78,93.44,17.41C351.91,13.33,368.6,9.27,367.23,1.39Z"/><path class="cls-7" d="M195,23.92c-.82-5.24-8.43-.2-10.67.83A14.7,14.7,0,0,0,185.58,28l.8,1.27a17.25,17.25,0,0,0,5.19,4.1C193.08,31.9,195.55,27.46,195,23.92Z"/><path class="cls-7" d="M243.36-11s13.71,22.2,41.48,18.54,94.53-59.87,94.68-79C379.67-89.87,316.75-79.11,284-41,260.49-13.67,243.36-11,243.36-11Z"/><path class="cls-4" d="M308.09,50.7s21,7.59,34.44,1.77c0,0,5.89,10.57,10.32,12.7"/><path class="cls-9" d="M174.45,29s3.17,2,9.75,2.13c7.12.09,9.74-3.71,9.85-6.06S174.45,29,174.45,29Z"/><path class="cls-11" d="M178.87,30.59c3.32-1.63,8.46-1.63,13-1.62a5.55,5.55,0,0,0,2.21-3.87.3.3,0,0,0,0-.19C193,23.14,174.45,29,174.45,29A14.38,14.38,0,0,0,178.87,30.59Z"/><path class="cls-9" d="M194.83,23.2c-.22-1.12-1.44-3.68-6.61-3.92-4.7-.22-15.23,2.47-16.9,11.55-.62,3.37,2.67-1.27,7.61-2.7C185.54,26.23,195.84,28.21,194.83,23.2Z"/><circle class="cls-6" cx="188.75" cy="12.78" r="2.28"/><circle class="cls-6" cx="200.11" cy="14.67" r="2.28"/><path class="cls-8" d="M208.6,18.51s-4.78,1.54-5.08,5.35a5.69,5.69,0,0,0,2.58,5.41"/><path class="cls-5" d="M201-11.58c4.59-.25-4.77,13.7-4.77,13.7l-6.11-.69s6.28-12.77,10.88-13"/><path class="cls-5" d="M204.64-10.37c4.59-.25-4.77,13.7-4.77,13.7l-6.11-.7s6.29-12.76,10.88-13"/><path class="cls-4" d="M301.86,556.08s13.94,11.48,28.45,9.26c0,0,3,11.71,6.78,14.89"/><path class="cls-10" d="M234.69,492.51C216,484.74,178.05,460,165.06,455.32c-18.33-6.64-37.16-10.37-42.78-9.39-4.1.71-4.21,3.54-3.41,10.44,1.2,10.23,12.76,34.88,32.86,42.41,18,6.74,30.46,5.15,38.75,9.51C199.18,512.86,244.2,496.44,234.69,492.51Z"/><path class="cls-5" d="M184.68,525c-2.81-12.85,1.13-26.86,18.75-32.24,24.8-7.56,29.21,1.31,74.4-8.84,8.12-1.83,17-7,21.8-2.63,27.26,24.83,42.55,15.06,48.79,15.3,8.17.32,17.64-1.9,18.81,4.85,1.37,7.88-15.32,11.94-15.32,11.94.88,18.39-8.56,47.3-37.59,50.57-38.09,4.29-69.06-22.28-90.58-24.28C195.46,537,187,535.68,184.68,525Z"/><path class="cls-7" d="M367,504.13c-6.56,2-16.43,1.32-16.43,1.32s-3.29,44.73-40.24,48.71C275,558,265,539.24,223.52,535c-14.75-1.5-17.83.78-33.86-4.71-1.71-.58-5-5.26-5-5.26,2.38,10.64,10.85,12,39,14.57,21.52,2,52.49,28.57,90.58,24.28,29-3.27,38.47-32.18,37.59-50.57C351.91,513.33,364.75,510.21,367,504.13Z"/><path class="cls-6" d="M367.23,501.39c-1.17-6.75-10.64-4.53-18.81-4.85-7.61-.3-23.35-11-70.59-12.67-8.89-.32-15.85,3.19-21.95,4,0,0,1.3,6.38,2.59,8.06,13.45,17.37,72,47.78,93.44,17.41C351.91,513.33,368.6,509.27,367.23,501.39Z"/><path class="cls-7" d="M195,523.92c-.82-5.24-8.43-.2-10.67.83a14.7,14.7,0,0,0,1.25,3.21l.8,1.27a17.25,17.25,0,0,0,5.19,4.1C193.08,531.9,195.55,527.46,195,523.92Z"/><path class="cls-7" d="M243.36,489s13.71,22.2,41.48,18.54,94.53-59.87,94.68-79c.15-18.42-62.77-7.66-95.57,30.49C260.49,486.33,243.36,489,243.36,489Z"/><path class="cls-10" d="M284,459c-23.46,27.29-40.59,30-40.59,30l.35.53c1.57,1.45,10.21,3.34,23.25-1.49,14.71-5.45,37.08-30.2,53.91-40.07s42.85-23.67,58.65-19.45C379.67,410.13,316.75,420.89,284,459Z"/><path class="cls-4" d="M308.09,550.7s21,7.59,34.44,1.77c0,0,5.89,10.57,10.32,12.7"/><path class="cls-9" d="M174.45,529s3.17,2,9.75,2.13c7.12.09,9.74-3.71,9.85-6.06S174.45,529,174.45,529Z"/><path class="cls-11" d="M178.87,530.59c3.32-1.63,8.46-1.63,13-1.62a5.55,5.55,0,0,0,2.21-3.87.3.3,0,0,0,0-.19C193,523.14,174.45,529,174.45,529A14.38,14.38,0,0,0,178.87,530.59Z"/><path class="cls-9" d="M194.83,523.2c-.22-1.12-1.44-3.68-6.61-3.92-4.7-.22-15.23,2.47-16.9,11.55-.62,3.37,2.67-1.27,7.61-2.7C185.54,526.23,195.84,528.21,194.83,523.2Z"/><circle class="cls-6" cx="188.75" cy="512.78" r="2.28"/><circle class="cls-6" cx="200.11" cy="514.67" r="2.28"/><path class="cls-8" d="M208.6,518.51s-4.78,1.54-5.08,5.35a5.69,5.69,0,0,0,2.58,5.41"/><path class="cls-5" d="M201,488.42c4.59-.25-4.77,13.7-4.77,13.7l-6.11-.69s6.28-12.77,10.88-13"/><path class="cls-5" d="M204.64,489.63c4.59-.25-4.77,13.7-4.77,13.7l-6.11-.7s6.29-12.76,10.88-13"/><path class="cls-8" d="M199.07,496.41a8.8,8.8,0,0,0,2.74-5"/><path class="cls-8" d="M203.74,497.88a14,14,0,0,0,2.2-5.4"/><path class="cls-12" d="M127.08,450s1.4,5.71,8.63,6.79"/><path class="cls-12" d="M144.78,486s1.4,5.71,8.64,6.79"/><path class="cls-12" d="M158.07,491s3.2,4.93,10.38,3.58"/><path class="cls-12" d="M171.47,464.73s2.64,5.25,9.93,4.69"/><path class="cls-12" d="M271,477.3s5.88,0,8.64-6.78"/><path class="cls-12" d="M355.79,424.15s5,3.14,10.93-1.11"/><path class="cls-12" d="M339.16,431.45s5.81.89,9.57-5.38"/><path class="cls-12" d="M185.18,485.86s2.64,5.25,9.93,4.69"/><path class="cls-10" d="M297.21,188c-3.17-2.27-38,12.4-69.64,49.68-26.16,30.8-32.51,64-29.27,66.76s40.11-17.1,64.2-45.46C294.86,220.9,300.68,190.5,297.21,188Z"/><path class="cls-13" d="M207.66,286.59s-21.91,18.13-6,31.66c18.64,15.84,36.46-24.46,49.27-21.86,11.51,2.33,1.75,21.48-8,13.22-7.83-6.65,1.35-26.76,24.25-29.63S295,262.13,295,262.13"/><path class="cls-9" d="M218,281.22s-12.13-3.8-21.2,5.24c-5,5-4.93,7.44-4.66,7.67.81.69,6.13-4.52,9.17-4.77,4-.32,7.28,2.93,7.28,2.93Z"/><rect class="cls-9" x="291.73" y="259.27" width="6.73" height="3.19" rx="1.15" transform="translate(82.19 -70.5) rotate(15.8)"/><path class="cls-14" d="M242.64,221.73c-2.85,2.72-5.72,5.61-8.58,8.68l7.16,23.52,23,3.08c2.77-3.34,5.33-6.61,7.71-9.8l-22.4-3Z"/><path class="cls-14" d="M258,208.55c-2.93,2.26-5.93,4.73-9,7.39l6.47,21.24L277,240.06q3.51-5.16,6.35-10l-19.61-2.62Z"/><path class="cls-14" d="M248.36,273.54c3.31-3,6.56-6.21,9.67-9.53L235.25,261,228,237.18l-.44.51c-2.76,3.26-5.3,6.54-7.64,9.81L227,270.68Z"/><path class="cls-9" d="M198,304a1.72,1.72,0,0,0,.32.44,1.18,1.18,0,0,0,.52.21l98.74-116.24a1.43,1.43,0,0,0-.35-.41,1.22,1.22,0,0,0-.54-.18Z"/><rect class="cls-1" x="-1" width="500" height="500"/></g></svg>