<svg id="Layer_1" data-name="Layer 1" xmlns="http://www.w3.org/2000/svg" viewBox="0 0 1000 1751"><defs><style>.cls-1,.cls-14,.cls-18,.cls-7{fill:#cc4387;}.cls-2{fill:#b7d7f1;}.cls-3{fill:#e591c3;}.cls-4{fill:#9e2166;}.cls-5{fill:#9accef;}.cls-6{fill:#efacd1;}.cls-7{opacity:0.7;}.cls-8{fill:#22457e;}.cls-9{fill:#f4f1ed;}.cls-10,.cls-17,.cls-20,.cls-22,.cls-24,.cls-27,.cls-28{fill:none;stroke-miterlimit:10;}.cls-10,.cls-22{stroke:#cc4387;}.cls-10,.cls-17,.cls-20,.cls-22,.cls-24,.cls-27{stroke-linecap:round;}.cls-10{stroke-width:1.31px;}.cls-11{fill:#efe8df;}.cls-12{fill:#aa266f;}.cls-13{fill:#f2c0de;}.cls-14{opacity:0.5;}.cls-15{fill:#6a9b7a;}.cls-16{fill:#9bc9ac;}.cls-17{stroke:#6a9b7a;stroke-width:0.73px;}.cls-18{opacity:0.4;}.cls-19{fill:#190c35;}.cls-20{stroke:#efe8df;stroke-width:9px;}.cls-21{fill:#ffffb3;}.cls-22{stroke-width:2.24px;}.cls-23{fill:#94bbd6;}.cls-24{stroke:#93bcd8;}.cls-24,.cls-27{stroke-width:1.5px;}.cls-25{fill:#e29e6f;}.cls-26{fill:#d18959;}.cls-27,.cls-28{stroke:#b7d7f1;}.cls-28{stroke-width:1.17px;}</style></defs><title>pattern_unicorn</title><path class="cls-1" d="M395.35,118.28s20.31-6.17,25.55-2.24-19.65,8.4-19.65,8.4Z"/><path class="cls-2" d="M397.65,120.51s42.24,8.85,40.28,29.81c0,0,43.23,2,31.44,30.78,0,0,17,3.28,16.37,26.2s-17,23.58-17,23.58-1.63,22.6-22.92,19c-23.47-4-1.49-45.46-17.36-81.55C412.09,131.16,397.65,120.51,397.65,120.51Z"/><path class="cls-3" d="M562.35,252.89s55.31,17.37,59.48-39.23c0,0,9.57-3.51,10.45-10.51,0,0,13.12,8.76,15,8.26s1.3-13.2.4-15.34c-1-2.3-21-11.77-25.85-10.84-2.57.49-25.16,10-34.19,11.64s-19.87-.91-27.95,1.88Z"/><path class="cls-4" d="M643.94,193.28a69,69,0,0,0-4.69,14.29c3.47,2.09,7.12,4.08,8,3.84,1.91-.5,1.3-13.2.4-15.34C647.46,195.5,646,194.48,643.94,193.28Z"/><path class="cls-3" d="M382.25,252.5c-14.41,2-28.54,1.2-49.12-5.9-19-6.55-25.6-14.31-27.51-11.13s-1.71,7.76-.66,11.13c3.28,10.48,40.61,30.79,74,32.75"/><path class="cls-2" d="M595.91,202.38s-5-20.57,7.53-33.44c10.29-10.53,19.33-9.31,19.33-9.31s.75-16.81,14.72-23c9.74-4.34,18-3.61,21.75.88,0,0,23.43-20.38,38.15-1,6.26,8.25,9.31,33.47-26.13,34.49,0,0,7.4,19.79-12.39,27.19s-29.52-2.4-29.52-2.4-3.76,9.65-26.34,11Z"/><path class="cls-5" d="M629.35,195.77s9.74,9.8,29.52,2.4S671.26,171,671.26,171c15.81-.45,24-5.73,27.57-12.16h0c-8.29,9.16-32.31,8.53-32.31,8.53S669.14,187,656,193.55s-28.49-3-28.49-3C624.28,201.08,604,203.7,604,203.7l.86,2.92C625.79,204.89,629.35,195.77,629.35,195.77Z"/><path class="cls-6" d="M370.46,149.66s-18,15.8-22.27,61.57c-4.91,53.38,15.07,91,15.07,91s81.22,55,161.78,44.54c40.9-5.32,80.57-33.41,96.29-74.67s-17.69-98.25-74.67-93.67c-21.69,1.75-40.61,9.83-60.92,22.27A340.6,340.6,0,0,1,443.17,223s3.27-59.6-38.65-97.59C374,97.73,335.76,79.56,322,93.33,305,110.36,370.46,149.66,370.46,149.66Z"/><path class="cls-2" d="M412.73,125.1c11.92,4.58,26.37,12.76,25.2,25.22,0,0,43.23,2,31.44,30.78,0,0,17,3.28,16.37,26.2s-17,23.58-17,23.58-1.63,22.6-22.92,19c-23.47-4,1.75-48.24-14.12-84.34-8.56-19.47-17.49-30.9-24.05-37.37"/><path class="cls-6" d="M401.9,126.74s20.31-7.21,25.55-2.62-19.65,9.82-19.65,9.82Z"/><path class="cls-7" d="M400.92,316.36,375.87,310h0c4.58,2.61,10.28,5.69,16.9,9A27.54,27.54,0,0,0,400.92,316.36Z"/><circle class="cls-8" cx="390.11" cy="123.46" r="1.64"/><circle class="cls-8" cx="395.35" cy="130.67" r="1.64"/><path class="cls-6" d="M375.09,278s-25.13,3.37-46.75.84c-20-2.34-27.93-7.87-29.12-4.36s0,8,1.74,11c3.19,5.58,26.63,12.72,51.16,20.1,17.41,5.23,32.43,9.5,48.8,10.81Z"/><path class="cls-7" d="M621.33,272.15a59,59,0,0,0,2.39-8l-38.09,5.68c10.66,12.54,23.71,13.68,30.55,13.75A108.29,108.29,0,0,0,621.33,272.15Z"/><path class="cls-6" d="M585.3,270.18s49.13,30.79,67.47-22.92c0,0,10.15-1,12.77-7.54,0,0,10.48,11.79,12.45,11.79s4.58-12.44,4.25-14.73c-.35-2.47-17.35-16.71-22.27-17-2.61-.18-26.85,3.27-36,2.62s-19-5.9-27.51-5.24Z"/><path class="cls-9" d="M661.61,141.47a19,19,0,0,1,5.24-7.2c3.56-2.8,8.31-5.26,11.44-5.91h0c-13.4,1.32-19,9.12-19,9.12-3.76-4.49-12-5.22-21.75-.88-14,6.22-14.72,23-14.72,23s-9-1.22-19.33,9.31a27.83,27.83,0,0,0-2.69,3.24c.64-.48,11.08-11.06,24.18-10.4C624.93,161.78,630.17,127.72,661.61,141.47Z"/><path class="cls-9" d="M483.05,192.64a20.93,20.93,0,0,0-13.68-11.54c11.79-28.82-31.44-30.78-31.44-30.78.62-6.64-3.19-12.06-8.7-16.38,0,.05,7.72,5.57,6.73,20.31,0,0,41.6-3.61,28.82,31.44C464.78,185.69,479,185.92,483.05,192.64Z"/><path class="cls-5" d="M435.32,235.88s0-.1,0-.16S435.31,235.83,435.32,235.88Z"/><path class="cls-5" d="M435.25,234.74a.71.71,0,0,1,0-.14A.71.71,0,0,0,435.25,234.74Z"/><path class="cls-5" d="M435.41,237h0Z"/><path class="cls-5" d="M468.78,230.88h.29l.14,0h.08c.2,0,.44-.06.73-.11h0a17.66,17.66,0,0,0,11.16-7.34l0-.05c.16-.23.32-.46.47-.7h0c-4.36,4.46-16.59,6.63-16.59,6.63.47,13.2-19.05,16.22-29.56,8.83,0,.32.09.64.15,1a1.55,1.55,0,0,0,0,.21c0,.25.09.49.15.73a2.38,2.38,0,0,0,.05.26c.06.23.11.46.18.69a1.74,1.74,0,0,0,.05.22c.17.59.36,1.16.57,1.7a1.42,1.42,0,0,1,.08.18c.08.2.17.4.26.6l.12.24.27.51.13.23.32.52.12.18c.15.22.31.44.48.65l.05.06c.15.18.31.36.47.53l.18.18c.13.13.26.26.4.38l.21.19.43.34.22.17.54.36.14.09c.24.15.48.28.74.41l.2.09a6.28,6.28,0,0,0,.59.27l.3.11.56.21.33.1.63.17.3.08,1,.2c21.29,3.6,22.92-19,22.92-19h.07Z"/><path class="cls-10" d="M406.15,130.67a41.76,41.76,0,0,1,16.06-4.59"/><path class="cls-11" d="M612.42,290.27c-63.47-10.59-112.59-11.25-188.9,42,29,10.8,65.34,19.3,101.52,14.6C559.63,342.32,593.33,321.53,612.42,290.27Z"/><circle class="cls-3" cx="393.72" cy="141.47" r="4.58"/><circle class="cls-3" cx="328.63" cy="92.68" r="0.98"/><circle class="cls-3" cx="331.08" cy="94.64" r="0.98"/><path class="cls-1" d="M679.31,233.12a68.51,68.51,0,0,0-8.15,12.64c2.83,2.9,5.86,5.75,6.83,5.75,2,0,4.58-12.44,4.25-14.73C682.16,236.16,681,234.81,679.31,233.12Z"/><path class="cls-1" d="M299.22,274.43c-1.22,3.62,0,8,1.74,11a8.56,8.56,0,0,0,2.58,2.49,119.43,119.43,0,0,0,5.25-13C302.77,273.36,299.9,272.44,299.22,274.43Z"/><path class="cls-12" d="M305.62,235.47c-2,3.27-1.71,7.76-.66,11.13a11.75,11.75,0,0,0,2.2,3.7,111.16,111.16,0,0,0,7.49-12C309.25,235.35,306.69,233.68,305.62,235.47Z"/><path class="cls-1" d="M332.43,113.67a5,5,0,0,0,1,3.25.35.35,0,0,0,.27.14.33.33,0,0,0,.19-.06.31.31,0,0,0,.08-.45,4.14,4.14,0,0,1-.85-3.18,3.48,3.48,0,0,1,1.47-2.07.34.34,0,0,0,.11-.45.32.32,0,0,0-.45-.11,4.25,4.25,0,0,0-1.7,2.26,15.36,15.36,0,0,1-9-1.94c.27.39.56.79.86,1.19a15.81,15.81,0,0,0,6.68,1.48C331.51,113.73,332,113.71,332.43,113.67Z"/><circle class="cls-13" cx="531.59" cy="223.02" r="2.95"/><circle class="cls-13" cx="565" cy="187.65" r="2.95"/><circle class="cls-13" cx="556.48" cy="204.03" r="3.6"/><circle class="cls-13" cx="554.52" cy="224.33" r="1.64"/><circle class="cls-13" cx="503.43" cy="205.34" r="2.29"/><circle class="cls-13" cx="535.52" cy="196.82" r="3.6"/><circle class="cls-13" cx="583.67" cy="201.08" r="4.58"/><path class="cls-7" d="M379.31,153.26s-6.65-2.63-8.86-3.59c-.1.1-.78.72-1.85,2C371.94,152.09,378.28,153.61,379.31,153.26Z"/><path class="cls-2" d="M406.93,1013.57s-37-4.85-50.33,7.88C345.36,1032.18,356,1036,356,1036s-37,5.2-41.84,27.89c-3.64,17,12.73,18.8,12.73,18.8s-12.73,15.77-13.94,34,14.55,20,19.4,18.8c0,0-4,31.63,10.31,30.32,6.67-.6,9.7-21.83,10.31-29.1,0,0,6.07,24.86,9.1,16.37,3.68-10.3.6-20-1.82-25.47S406.93,1013.57,406.93,1013.57Z"/><path class="cls-3" d="M577.64,1085.86s-38,44.54,18.34,70.74c0,0,3.47,12.4,8.52,25.55,0,0-1.31,6.42-3.7,9.77s-4.72,6.94-4.54,7.91c.35,1.93,11.75,2.27,14,1.53a6.8,6.8,0,0,0,3.06-3.54c3.34-7.49,8.79-18.41,8.37-22.08-.3-2.61-1.73-27.68-2.73-36.82s7.2-47.82,2.62-53.06Z"/><path class="cls-12" d="M613.27,1197.82c-3.61-1.9-7.76-4.52-12.58-5.74-2.35,3.31-4.61,6.8-4.43,7.75.35,1.93,11.75,2.27,14,1.53C610.8,1201.17,612.36,1200.49,613.27,1197.82Z"/><path class="cls-2" d="M606.15,999.32s38.81-24.26,47.91,12.73c0,0,29.41-3.33,32.75,26.08,2.94,25.94-15.16,29.71-15.16,29.71s24.56,34.27-27,45.18C597.49,1123,606.15,999.32,606.15,999.32Z"/><path class="cls-5" d="M648.71,1104.53l-9.06,9.06a25,25,0,0,0,5-.57c26.55-5.62,32.91-17.43,32.83-27.57A38.46,38.46,0,0,1,648.71,1104.53Z"/><path class="cls-9" d="M654.06,1012.05c-6.82-27.74-30.35-21-41.69-15.95v1.77s13.8-4,25.32.84c13.64,5.76,13.94,20.62,13.94,20.62s20.32-10.61,34.83,16.4C681.84,1008.91,654.06,1012.05,654.06,1012.05Z"/><path class="cls-5" d="M346.43,1145.47c-2,26.16-13.09,12.16-13.12,12.13,1.47,5,4.24,8.65,9.34,8.18s8-12.5,9.38-21.56C349.76,1136.82,347.36,1133.05,346.43,1145.47Z"/><path class="cls-9" d="M360.85,1037.83s-9-5.25-2.43-12.74c8.49-9.7,39.24-9.76,39.24-9.76l1.12-2.46c-11.68-.63-32.79-.38-42.18,8.58C345.36,1032.18,356,1036,356,1036s-37,5.2-41.84,27.89c-3.64,17,12.73,18.8,12.73,18.8s-12.73,15.77-13.94,34,14.55,20,19.4,18.8a77,77,0,0,0-.06,17.11h0c-.66-7.15,3.09-20.14,3.09-20.14-6.06,1.21-17.58,1.82-18.19-11.52-.72-15.76,13.34-38.81,13.34-38.81s-17.78-8-10.31-22.44C329.31,1042.07,360.85,1037.83,360.85,1037.83Z"/><path class="cls-7" d="M496.1,1128.59,463,1114.47c-.05,3.24-.13,10.69,0,19.82A56.07,56.07,0,0,0,489,1147C490.85,1139.08,493.17,1132.26,496.1,1128.59Z"/><path class="cls-3" d="M444,1110.1s-.81,34.65,2,59c2.62,22.92,3.58,27.16,5.89,29.47,2,2,10.2-.56,11.14-5.24,1.31-6.55,4.58-62.22,16.37-69.43S444,1110.1,444,1110.1Z"/><path class="cls-6" d="M443.93,1117.27c-34,17.72-63.18,8.58-63.18,8.58s17.69,69-2.62,68.74c-18-.27-36.09-37-38-75.17-2.57-52.32,38.59-89.2,38.59-89.2s57.36-62.12,150.69-56.07c76.37,5,119.6,33.11,130.08,82.78,4.2,19.9-3.64,111-108.86,101C483.21,1151.49,443.93,1117.27,443.93,1117.27Z"/><path class="cls-14" d="M340.1,1117.86l.06,1.56a140.84,140.84,0,0,0,1.77,16.26c1.91-5.07,6.74-18.73,5.15-23C346.28,1110.58,343.32,1113.57,340.1,1117.86Z"/><path class="cls-6" d="M335.67,1131.33c4.09,5.63,11.56-18.68,11.56-18.68l-6.64-6.52s-9,19.57-4.92,25.2"/><circle class="cls-8" cx="348.97" cy="1140.41" r="1.64"/><circle class="cls-8" cx="348.32" cy="1132.84" r="1.64"/><path class="cls-7" d="M499.5,1146.86a111.5,111.5,0,0,1-.64-11.94c.2-2.53-7.16,4.87-10.1,7.92C492.16,1144.22,495.74,1145.57,499.5,1146.86Z"/><path class="cls-10" d="M344.12,1110.71a41.7,41.7,0,0,0-6,15.58"/><circle class="cls-3" cx="356.25" cy="1121.23" r="4.58"/><circle class="cls-3" cx="367.7" cy="1185.31" r="0.98"/><circle class="cls-3" cx="367.35" cy="1182.18" r="0.98"/><path class="cls-6" d="M467,1118s-.81,34.65,2,59c2.62,22.92,1.62,27.81,3.93,30.13,2,2,12.17-.57,13.1-5.24,1.31-6.55,4.59-62.88,16.38-70.09S467,1118,467,1118Z"/><path class="cls-12" d="M485.94,1201.8v0c-4.8-1.54-11.89-2.83-15.09-3.7h0c0,.32.05.63.07.93l0,.22.06.66a2.45,2.45,0,0,0,0,.27c0,.19,0,.38.05.56l0,.27c0,.18,0,.34,0,.5l0,.26c0,.16,0,.31.05.46l0,.22.06.46c0,.06,0,.12,0,.17s.05.36.08.53v0c0,.19.06.37.1.54v0l.09.42a.5.5,0,0,0,0,.13c0,.1.05.2.08.3s0,.1,0,.14l.09.25a.58.58,0,0,0,.05.14l.09.22.06.13.1.2.06.12a1.74,1.74,0,0,1,.11.18.61.61,0,0,1,.07.1,1.41,1.41,0,0,0,.14.18l.06.09.22.24a2.83,2.83,0,0,0,1.51.6C477.84,1208.14,485.16,1205.72,485.94,1201.8Z"/><path class="cls-12" d="M463,1193.25c-4.54-1.26-10.27-2.38-14.26-3.25,1,5.35,1.84,7.23,3.12,8.52,2,2,10.2-.56,11.14-5.24Z"/><ellipse class="cls-15" cx="401.13" cy="1210.69" rx="17.34" ry="3.55"/><path class="cls-16" d="M386.07,1210.07h29.68s4.88-14.64.94-18c-3.27-2.75-6.64,1.66-7.06,2.91,0,0,2.91-13.08-5.81-14.12-9.31-1.11-8.3,13.29-8.3,13.29s-.42-7.48-5.82-6.44S382.44,1199.58,386.07,1210.07Z"/><path class="cls-17" d="M402.78,1188s.62,15.36,0,22.11"/><path class="cls-17" d="M413.78,1199s-2.13,9.34-2.73,11.11"/><path class="cls-17" d="M389.7,1194.19s.51,10.17,2.33,15.88"/><path class="cls-18" d="M384.92,1145.63c10,71.23-24.34,37.65-24.45,37.54,5.35,6.9,11.29,11.12,17.24,11.4a12.92,12.92,0,0,0,3.85-.73C390.71,1189.19,388.16,1164,384.92,1145.63Z"/><path class="cls-1" d="M383.37,1179.35a.33.33,0,1,0-.64-.14,3.74,3.74,0,0,1-1.65,2.55,5,5,0,0,1-3.45.4.33.33,0,0,0-.41.23.34.34,0,0,0,.23.4,6.33,6.33,0,0,0,1.47.17,5,5,0,0,0,2-.41,35.31,35.31,0,0,0,4.45,7c.1-.21.2-.44.3-.67a34.6,34.6,0,0,1-4.17-6.63A4.43,4.43,0,0,0,383.37,1179.35Z"/><circle class="cls-13" cx="564.87" cy="1020.69" r="2.95"/><circle class="cls-13" cx="608.75" cy="1000.38" r="2.95"/><circle class="cls-13" cx="591.72" cy="1022.65" r="3.6"/><circle class="cls-13" cx="596.96" cy="1052.78" r="1.64"/><circle class="cls-13" cx="525.57" cy="1008.24" r="2.29"/><circle class="cls-13" cx="564.87" cy="991.21" r="3.6"/><circle class="cls-13" cx="633.32" cy="1033.46" r="4.58"/><path class="cls-11" d="M520.13,1152.85a223,223,0,0,0,30.53,5.05c30.18,2.87,52.33-2.58,68.5-12.28-8-8.15-25.56-21.75-50.69-18.49A76.72,76.72,0,0,0,520.13,1152.85Z"/><path class="cls-7" d="M596.25,1116.87s-11.73,18.53,8.26,35.67a80.39,80.39,0,0,0,25.39-14.66c.17-2.51.14-4.2.14-4.2Z"/><path class="cls-6" d="M607.12,1091.1s-38,44.54,18.34,70.74c0,0,3.47,12.4,8.51,25.55a69.23,69.23,0,0,1-5,9.12c-2.39,3.35-4.73,6.94-4.55,7.91.35,1.93,11.76,2.26,14,1.53a6.9,6.9,0,0,0,3.07-3.54c3.34-7.49,10.1-17.76,9.68-21.43-.3-2.61-1.73-27.68-2.74-36.82s7.21-47.82,2.62-53.06Z"/><path class="cls-1" d="M641.44,1202.41c-3.61-1.91-7.76-4.52-12.59-5.74-2.34,3.3-4.6,6.79-4.43,7.75.35,1.93,11.76,2.26,14,1.53C639,1205.75,640.52,1205.07,641.44,1202.41Z"/><path class="cls-7" d="M380.78,1125.86c.19.05,1.47.44,3.67.88L377.21,1114S379.39,1122.36,380.78,1125.86Z"/><path class="cls-6" d="M402.38,746.87c-.65,1.6-2.36,12.54-3.81,12L389.32,755c-4.6-1.88-6.21-8.59-3.6-15s8.47-10,13.07-8.16l9.25,3.79C410.62,736.74,403.69,743.68,402.38,746.87Z"/><ellipse class="cls-19" cx="403.31" cy="747.25" rx="12.5" ry="9" transform="translate(-441.03 837.43) rotate(-67.74)"/><line class="cls-20" x1="404.07" y1="749.57" x2="441.41" y2="760.84"/><path class="cls-6" d="M447.18,764.13c-.65,1.6-2.36,12.54-3.81,12l-9.25-3.79c-4.6-1.88-6.21-8.59-3.6-15s8.47-10,13.07-8.16l9.25,3.79C455.42,754,448.49,760.93,447.18,764.13Z"/><ellipse class="cls-19" cx="448.11" cy="764.51" rx="12.5" ry="9" transform="translate(-429.17 889.61) rotate(-67.74)"/><path class="cls-6" d="M562.33,738.87c-.65,1.6-2.36,12.54-3.81,12L549.27,747c-4.6-1.89-6.21-8.59-3.59-15s8.46-10,13.06-8.16l9.26,3.79C570.57,728.73,563.64,735.67,562.33,738.87Z"/><ellipse class="cls-19" cx="563.26" cy="739.25" rx="12.5" ry="9" transform="translate(-334.27 980.49) rotate(-67.74)"/><polygon class="cls-11" points="579.27 746.34 567.24 741.41 585.75 725.22 597.78 730.15 579.27 746.34"/><polygon class="cls-11" points="414.42 753.47 426.9 757.12 422.52 732.92 410.05 729.26 414.42 753.47"/><line class="cls-20" x1="564.03" y1="741.57" x2="601.36" y2="752.84"/><path class="cls-2" d="M392.18,725.23S386.5,735.51,402.24,742s69,10.95,104.5,6c9.34-1.3,117.76-7.36,121.65-39.58S392.18,725.23,392.18,725.23Z"/><path class="cls-21" d="M504.94,694.3C474.27,698,385,710.06,392.31,729.24c11.63,30.67,244.77,11.32,235.85-24.48C623.66,686.71,545.7,689.45,504.94,694.3Z"/><path class="cls-6" d="M599.73,753.1c-.65,1.59-2.36,12.54-3.81,11.94l-9.25-3.79c-4.6-1.88-6.21-8.58-3.6-15s8.47-10,13.07-8.16l9.25,3.79C608,743,601,749.9,599.73,753.1Z"/><ellipse class="cls-19" cx="600.66" cy="753.47" rx="12.5" ry="9" transform="translate(-324.2 1023.93) rotate(-67.74)"/><path class="cls-16" d="M612.5,722.14,477.66,698q-2.9.42-5.87.9l38.92,22.82L426.49,707.9a150.86,150.86,0,0,0-20.62,6.76l143.46,23.48c2.45-.37,4.86-.75,7.25-1.15l-36.16-21.21,73.22,13.13A136.24,136.24,0,0,0,612.5,722.14Z"/><ellipse class="cls-11" cx="448.11" cy="764.51" rx="3.5" ry="2.52" transform="translate(-429.17 889.61) rotate(-67.74)"/><ellipse class="cls-11" cx="600.66" cy="753.47" rx="3.5" ry="2.52" transform="translate(-324.2 1023.93) rotate(-67.74)"/><polyline class="cls-22" points="498.6 681.19 506.48 717.62 526.67 716.98"/><path class="cls-2" d="M390.68,653.16s-.4,35.42,84.39,41.5c76.14,5.45,104-2.26,112.26-47.71,9.88-54.57-9.15-100-35.39-101.42s-37.88,21-33.85,53.84c0,0-151.23,37.42-146.42,56.26C373.38,662.32,390.68,653.16,390.68,653.16Z"/><circle class="cls-19" cx="532.18" cy="559.63" r="2.99"/><circle class="cls-19" cx="546.64" cy="567.4" r="2.99"/><path class="cls-23" d="M531.41,579c1.38-6.65-8.2-5.09-13.13-3.88a74.81,74.81,0,0,0-.92,14.69C520.9,588.93,529.94,586.1,531.41,579Z"/><path class="cls-23" d="M390.68,653.16s-.4,35.42,84.39,41.5c67.88,4.86,97.41-.74,108.85-34.22C579,672.55,545,688.53,474,685.71c-73.44-2.92-76.75-36.5-76.75-36.5l-10.6-7.51c-10.06,5.12-16,9.94-15,13.93C373.38,662.32,390.68,653.16,390.68,653.16Z"/><path class="cls-23" d="M584.34,659.18c.07-.24.15-.49.23-.73A4.19,4.19,0,0,0,584.34,659.18Z"/><path class="cls-24" d="M554.76,575.37s-6.47,1.12-7.56,6a7.44,7.44,0,0,0,2.36,7.49"/><path class="cls-25" d="M504.1,577a16.81,16.81,0,0,0,11.4,6.39c7.44.74,13.62-.9,14.66-3.81S504.1,577,504.1,577Z"/><polyline class="cls-22" points="479.9 681.78 495.48 724.7 514.92 724.08"/><path class="cls-19" d="M459.57,617.68c-5.8.89-11.15,1.61-16.65,3.82a36,36,0,0,0-6.9,4.09,25.28,25.28,0,0,1-7.59,3.23,78.83,78.83,0,0,0-16.63,7,3.65,3.65,0,0,1-4.86-1,3.37,3.37,0,0,1-1.37-1.38c-20.69,8.08-35.46,16.12-33.9,22.21,1.71,6.69,19-2.47,19-2.47,25.21,20.26,59.75-14.51,79.82-39.68A27.23,27.23,0,0,1,459.57,617.68Z"/><path class="cls-11" d="M517.93,597.91c.05.49.1,1,.16,1.46,0,0-69.45,17.18-112.73,34.13,7.29,17.42,27.3,47.3,76.31,33.25C523.28,654.83,524.13,622,517.93,597.91Z"/><path class="cls-2" d="M543.93,537.28c-6,.73,9.28,16.59,9.28,16.59l7.72-2.29s-11-15-17-14.3"/><path class="cls-2" d="M539.52,539.67c-6,.73,9.27,16.58,9.27,16.58l7.72-2.28s-11-15-17-14.3"/><path class="cls-24" d="M548.25,547.14s-2.83-1.42-4.68-5.84"/><path class="cls-24" d="M545.42,552.47s-2.83-1.42-4.67-5.84"/><path class="cls-26" d="M504.1,577A16.32,16.32,0,0,0,508,580.6h.67c4.73.07,10.32,1.88,14.66,2.61,3.62-.57,6.2-1.88,6.84-3.66C531.2,576.65,504.1,577,504.1,577Z"/><path class="cls-25" d="M531.87,577.47c.14-1.49-.41-5.16-6.78-7.44-5.81-2.08-20-2.74-25.6,8-2.07,4,3.83-.57,10.57-.46C519.06,577.7,531.21,584.12,531.87,577.47Z"/><path class="cls-27" d="M491.08,647.74s7.44,2,13.24-5.62"/><path class="cls-27" d="M464.27,658.87s7.1,3,13.89-3.78"/><path class="cls-27" d="M421.79,637.56s7.32,2.42,13.55-4.86"/><path class="cls-27" d="M431,644.72s7.3,2.46,13.57-4.79"/><path class="cls-27" d="M495.62,610.3s6.9,3.41,14.09-2.93"/><path class="cls-22" d="M542.21,1543.45s18.26,15,37.27,12.12c0,0,4,15.35,8.88,19.51"/><path class="cls-11" d="M454.23,1460.17C429.69,1450,380,1417.62,363,1411.46c-24-8.69-48.67-13.58-56-12.3-5.37.93-5.52,4.64-4.46,13.68,1.56,13.4,16.71,45.69,43,55.55,23.55,8.83,39.9,6.75,50.76,12.46C407.71,1486.84,466.68,1465.33,454.23,1460.17Z"/><path class="cls-2" d="M388.71,1502.67c-3.68-16.83,1.49-35.19,24.57-42.23,32.48-9.91,38.26,1.72,97.45-11.59,10.63-2.39,22.32-9.13,28.56-3.44,35.71,32.53,55.73,19.73,63.91,20,10.71.42,23.11-2.49,24.64,6.35,1.79,10.32-20.06,15.63-20.06,15.63,1.14,24.1-11.22,62-49.25,66.25-49.9,5.62-90.45-29.18-118.65-31.81C402.84,1518.44,391.79,1516.73,388.71,1502.67Z"/><path class="cls-23" d="M627.51,1475.39c-8.59,2.68-21.52,1.73-21.52,1.73s-4.32,58.6-52.71,63.81c-46.21,5-59.31-19.55-113.69-25.07-19.32-2-23.36,1-44.34-6.16-2.25-.77-6.51-6.9-6.51-6.9,3.12,13.93,14.21,15.65,51.14,19.08,28.2,2.63,68.75,37.43,118.65,31.81,38-4.28,50.39-42.15,49.25-66.25C607.78,1487.44,624.58,1483.36,627.51,1475.39Z"/><path class="cls-19" d="M627.84,1471.81c-1.53-8.84-13.93-5.93-24.64-6.35-10-.39-30.59-14.43-92.47-16.61-11.64-.41-20.76,4.19-28.75,5.24,0,0,1.7,8.36,3.4,10.55,17.61,22.76,94.37,62.59,122.4,22.8C607.78,1487.44,629.63,1482.13,627.84,1471.81Z"/><path class="cls-23" d="M402.23,1501.32c-1.07-6.86-11-.26-14,1.09a19.54,19.54,0,0,0,1.64,4.2l1.05,1.67a22.48,22.48,0,0,0,6.79,5.36C399.72,1511.77,403,1506,402.23,1501.32Z"/><path class="cls-23" d="M465.58,1455.61s18,29.09,54.33,24.3,123.82-78.43,124-103.52c.19-24.12-82.23-10-125.19,39.94C488,1452.09,465.58,1455.61,465.58,1455.61Z"/><path class="cls-11" d="M518.75,1416.33c-30.74,35.76-53.17,39.28-53.17,39.28s.15.25.46.7c2,1.9,13.38,4.38,30.46-2,19.26-7.14,48.56-39.56,70.62-52.49s56.12-31,76.82-25.48C644.13,1352.27,561.71,1366.36,518.75,1416.33Z"/><path class="cls-22" d="M550.37,1536.39s27.45,9.95,45.11,2.33c0,0,7.72,13.84,13.52,16.63"/><path class="cls-25" d="M375.32,1508s4.15,2.67,12.77,2.78c9.33.12,12.76-4.85,12.9-7.93S375.32,1508,375.32,1508Z"/><path class="cls-26" d="M381.11,1510.06c4.34-2.13,11.08-2.13,17-2.12a7.3,7.3,0,0,0,2.89-5.07.39.39,0,0,0-.06-.26c-1.38-2.32-25.61,5.41-25.61,5.41A19.07,19.07,0,0,0,381.11,1510.06Z"/><path class="cls-25" d="M402,1500.37c-.29-1.46-1.89-4.81-8.66-5.13-6.16-.29-19.95,3.24-22.14,15.13-.82,4.41,3.5-1.66,10-3.53C389.84,1504.34,403.34,1506.93,402,1500.37Z"/><circle class="cls-19" cx="393.3" cy="1486.73" r="2.99"/><circle class="cls-19" cx="409.67" cy="1489.21" r="2.99"/><path class="cls-24" d="M420.05,1497.22s-6.26,2-6.66,7a7.44,7.44,0,0,0,3.39,7.08"/><path class="cls-2" d="M410.1,1454.82c6-.32-6.25,18-6.25,18l-8-.91s8.24-16.72,14.25-17"/><path class="cls-2" d="M414.87,1456.4c6-.32-6.25,17.95-6.25,17.95l-8-.91s8.23-16.72,14.25-17"/><path class="cls-24" d="M407.57,1465.28s2.54-1.9,3.58-6.56"/><path class="cls-24" d="M413.69,1467.21a18.05,18.05,0,0,0,2.87-7.07"/><path class="cls-27" d="M313.27,1404.54s1.83,7.48,11.31,8.9"/><path class="cls-27" d="M336.46,1451.67s1.83,7.48,11.31,8.9"/><path class="cls-27" d="M353.86,1458.15s4.19,6.46,13.61,4.68"/><path class="cls-27" d="M371.42,1423.78s3.46,6.89,13,6.15"/><path class="cls-27" d="M501.82,1440.25s7.7,0,11.33-8.88"/><path class="cls-27" d="M612.85,1370.63s6.52,4.11,14.32-1.45"/><path class="cls-27" d="M591.06,1380.2s7.62,1.16,12.55-7"/><path class="cls-27" d="M389.37,1451.46s3.46,6.89,13,6.15"/><path class="cls-11" d="M466.47,1561.58c-2.67,5.88,32.27,57.7,102.95,97.2,58.38,32.64,114.34,32.33,117.77,26.18s-40.59-59.65-94.36-89.71C520.62,1554.89,469.39,1555.15,466.47,1561.58Z"/><path class="cls-28" d="M655.19,1675.47s36.45,29.79,53.34-.43c19.76-35.34-51.39-51.38-51.27-73,.11-19.44,34.33-9.72,24,8.72-8.3,14.85-43.9,6.38-55.88-29.89s-37.85-39.31-37.85-39.31"/><path class="cls-25" d="M643.15,1660.34s-2.28,20.91,15.3,32.75c9.75,6.57,13.66,5.62,13.95,5.11.86-1.54-9.3-8.51-10.68-13.36-1.81-6.39,2.43-12.76,2.43-12.76Z"/><rect class="cls-25" x="579.88" y="1539.08" width="11.15" height="5.28" rx="1.9" transform="translate(-998.73 2000.01) rotate(-85.34)"/><path class="cls-1" d="M538.69,1639.43q8,5.64,16.84,11.16l35.9-19.16-2.35-38.25q-9.45-5.15-18.38-9.39l2.29,37.33Z"/><path class="cls-1" d="M512.38,1618.78c4.61,4,9.57,8.11,14.88,12.2l32.42-17.3-2.21-35.87q-9.51-4.05-18.24-7.13l2,32.7Z"/><path class="cls-1" d="M621,1613.57c-6-4.42-12.18-8.68-18.58-12.66l2.33,38-36.29,19.37,1,.54c6.17,3.45,12.31,6.53,18.37,9.28l35.39-18.88Z"/><path class="cls-25" d="M686.58,1685.62a2.19,2.19,0,0,0,.61-.66,1.76,1.76,0,0,0,.18-.91L467,1560.88a2.28,2.28,0,0,0-.55.7,2,2,0,0,0-.13.94Z"/></svg>