<svg id="Layer_1" data-name="Layer 1" xmlns="http://www.w3.org/2000/svg" xmlns:xlink="http://www.w3.org/1999/xlink" viewBox="0 0 1000 1000"><defs><style>.cls-1,.cls-10,.cls-19,.cls-24{fill:none;}.cls-2{clip-path:url(#clip-path);}.cls-3{fill:#b7d7f1;}.cls-4{fill:#e591c3;}.cls-5{fill:#aa266f;}.cls-6{fill:#9accef;}.cls-7{fill:#efacd1;}.cls-8{fill:#6a9b7a;}.cls-9{fill:#9bc9ac;}.cls-10{stroke:#6a9b7a;stroke-width:0.55px;}.cls-10,.cls-19,.cls-24{stroke-linecap:round;stroke-miterlimit:10;}.cls-11,.cls-12,.cls-16,.cls-22{fill:#cc4387;}.cls-11{opacity:0.4;}.cls-13{clip-path:url(#clip-path-2);}.cls-14{fill:#f5fff8;}.cls-15{fill:#9e2166;}.cls-16{opacity:0.7;}.cls-17{fill:#22457e;}.cls-18{fill:#f4f1ed;}.cls-19{stroke:#cc4387;stroke-width:0.99px;}.cls-20{fill:#efe8df;}.cls-21{fill:#f2c0de;}.cls-22{opacity:0.5;}.cls-23{fill:#190c35;}.cls-24{stroke:#efe8df;stroke-width:3.77px;}.cls-25{fill:#ffffb3;}.cls-26{clip-path:url(#clip-path-3);}.cls-27{clip-path:url(#clip-path-4);}.cls-28{clip-path:url(#clip-path-5);}</style><clipPath id="clip-path"><rect class="cls-1" x="159.5" y="-555.5" width="500" height="500"/></clipPath><clipPath id="clip-path-2"><rect class="cls-1" x="500.5" y="500.5" width="500" height="500"/></clipPath><clipPath id="clip-path-3"><rect class="cls-1" x="0.5" y="500.5" width="500" height="500"/></clipPath><clipPath id="clip-path-4"><rect class="cls-1" x="500.5" y="0.5" width="500" height="500"/></clipPath><clipPath id="clip-path-5"><rect class="cls-1" x="0.5" y="0.5" width="500" height="500"/></clipPath></defs><title>pattern_unicorn</title><g class="cls-2"><path class="cls-3" d="M338.71-113.15s-27.94-3.66-38,6c-8.49,8.1-.46,11-.46,11s-27.93,3.93-31.6,21.07c-2.75,12.82,9.61,14.2,9.61,14.2S268.64-49,267.72-35.28s11,15.11,14.66,14.2c0,0-3.06,23.88,7.78,22.9,5-.46,7.33-16.49,7.79-22,0,0,4.58,18.78,6.87,12.37,2.78-7.78.46-15.12-1.37-19.24S338.71-113.15,338.71-113.15Z"/><path class="cls-4" d="M467.64-58.55S439-24.91,481.49-5.12c0,0,2.62,9.37,6.43,19.29,0,0-1,4.86-2.79,7.39s-3.57,5.24-3.43,6c.26,1.46,8.88,1.71,10.54,1.16A5.22,5.22,0,0,0,494.55,26c2.52-5.65,6.64-13.91,6.32-16.68-.23-2-1.31-20.9-2.07-27.81s5.45-36.11,2-40.07Z"/><path class="cls-5" d="M494.55,26c-2.73-1.44-5.86-3.41-9.51-4.33-1.77,2.49-3.47,5.13-3.34,5.85.26,1.46,8.88,1.71,10.54,1.16A3.86,3.86,0,0,0,494.55,26Z"/><path class="cls-6" d="M293-13.53c-1.48,19.76-9.88,9.19-9.9,9.16,1.1,3.75,3.2,6.54,7.05,6.19s6-9.44,7.09-16.29C295.53-20.06,293.72-22.91,293-13.53Z"/><path class="cls-4" d="M366.72-40.24s-.61,26.17,1.49,44.52c2,17.31,2.7,20.51,4.45,22.26,1.48,1.48,7.7-.43,8.41-4,1-4.94,3.46-47,12.37-52.43S366.72-40.24,366.72-40.24Z"/><path class="cls-7" d="M366.65-34.82c-25.65,13.38-47.71,6.47-47.71,6.47s13.36,52.15-2,51.92c-13.62-.2-27.26-28-28.68-56.77-1.94-39.52,29.15-67.37,29.15-67.37s43.32-46.91,113.8-42.35c57.68,3.74,90.33,25,98.24,62.52,3.18,15-2.74,83.82-82.21,76.26C396.32-9,366.65-34.82,366.65-34.82Z"/><circle class="cls-4" cx="309.08" cy="16.56" r="0.74"/><circle class="cls-4" cx="308.82" cy="14.2" r="0.74"/><path class="cls-7" d="M384-34.31s-.62,26.18,1.48,44.53c2,17.31,1.22,21,3,22.75,1.48,1.49,9.19-.42,9.89-4,1-4.94,3.47-47.49,12.37-52.93S384-34.31,384-34.31Z"/><path class="cls-5" d="M398.38,29v0c-3.63-1.17-9-2.14-11.4-2.8h0l.06.7v.17c0,.17,0,.34,0,.5s0,.14,0,.2,0,.29,0,.43a1.23,1.23,0,0,0,0,.2l0,.38a1.23,1.23,0,0,1,0,.19c0,.12,0,.24,0,.35a1.11,1.11,0,0,1,0,.17c0,.12,0,.23,0,.35a.5.5,0,0,0,0,.12,2.57,2.57,0,0,0,.06.4v0c0,.14.05.27.08.4v0c0,.11.05.22.07.32l0,.09.06.23a.49.49,0,0,0,0,.11l.06.19,0,.1a.87.87,0,0,0,.07.17l0,.1.08.15a.41.41,0,0,0,.05.09l.08.13a.56.56,0,0,0,.05.08l.1.14.05.06.17.18a2.17,2.17,0,0,0,1.14.46C392.26,33.8,397.79,32,398.38,29Z"/><path class="cls-5" d="M381.07,22.56c-3.43-.95-7.75-1.8-10.77-2.46.73,4,1.39,5.47,2.36,6.44,1.48,1.48,7.7-.43,8.41-4Z"/><ellipse class="cls-8" cx="334.33" cy="35.73" rx="13.1" ry="2.68"/><path class="cls-9" d="M323,35.26h22.41s3.69-11,.71-13.56c-2.47-2.08-5,1.25-5.33,2.19,0,0,2.19-9.87-4.39-10.66-7-.83-6.27,10-6.27,10s-.32-5.65-4.39-4.86S320.21,27.34,323,35.26Z"/><path class="cls-10" d="M335.58,18.56s.47,11.61,0,16.7"/><path class="cls-10" d="M343.88,26.87s-1.61,7.06-2.06,8.39"/><path class="cls-10" d="M325.7,23.27s.38,7.68,1.76,12"/><path class="cls-11" d="M322.09-13.41C329.62,40.39,303.7,15,303.62,15c4,5.21,8.52,8.4,13,8.61a9.59,9.59,0,0,0,2.91-.56C326.46,19.49,324.53.46,322.09-13.41Z"/><path class="cls-12" d="M320.92,12.06a.27.27,0,0,0-.19-.3.26.26,0,0,0-.3.19,2.81,2.81,0,0,1-1.24,1.93,3.72,3.72,0,0,1-2.61.3.25.25,0,1,0-.13.48,4.47,4.47,0,0,0,1.1.13,3.91,3.91,0,0,0,1.54-.31,26.8,26.8,0,0,0,3.36,5.28c.08-.16.15-.33.22-.51a26.11,26.11,0,0,1-3.14-5A3.37,3.37,0,0,0,320.92,12.06Z"/><path class="cls-7" d="M489.9-54.59S461.21-20.95,503.75-1.16c0,0,2.62,9.36,6.43,19.29A52.14,52.14,0,0,1,506.4,25c-1.8,2.53-3.56,5.24-3.43,6,.27,1.46,8.88,1.72,10.54,1.16a5.23,5.23,0,0,0,2.31-2.67c2.52-5.66,7.63-13.42,7.31-16.19-.23-2-1.3-20.91-2.06-27.81s5.44-36.11,2-40.07Z"/><path class="cls-12" d="M515.82,29.48c-2.73-1.44-5.86-3.42-9.5-4.34-1.77,2.5-3.48,5.13-3.35,5.85.27,1.46,8.88,1.72,10.54,1.16A3.83,3.83,0,0,0,515.82,29.48Z"/></g><g class="cls-13"><rect class="cls-14" x="500.5" y="500.5" width="500" height="500"/><path class="cls-12" d="M421,674.4s15.33-4.66,19.29-1.7-14.84,6.35-14.84,6.35Z"/><path class="cls-3" d="M422.7,676.08s31.9,6.68,30.42,22.51c0,0,32.65,1.49,23.75,23.25,0,0,12.86,2.48,12.36,19.79s-12.86,17.81-12.86,17.81-1.24,17.07-17.31,14.34c-17.73-3-1.13-34.32-13.11-61.58C433.61,684.13,422.7,676.08,422.7,676.08Z"/><path class="cls-4" d="M547.09,776.06s41.77,13.12,44.92-29.62c0,0,7.23-2.66,7.9-8,0,0,9.91,6.62,11.34,6.24s1-10,.3-11.58S595.68,724.26,592,725c-1.95.37-19,7.52-25.83,8.79s-15-.68-21.1,1.42Z"/><path class="cls-15" d="M608.71,731a52.33,52.33,0,0,0-3.54,10.79c2.62,1.58,5.38,3.09,6.08,2.9,1.44-.37,1-10,.3-11.58A8.55,8.55,0,0,0,608.71,731Z"/><path class="cls-4" d="M411.07,775.76c-10.88,1.49-21.55.91-37.1-4.45-14.34-4.95-19.34-10.81-20.78-8.41s-1.29,5.87-.49,8.41c2.47,7.92,30.67,23.25,55.9,24.74"/><path class="cls-3" d="M572.44,737.91s-3.81-15.54,5.68-25.25c7.77-7.95,14.6-7,14.6-7s.57-12.7,11.12-17.4c7.36-3.27,13.59-2.72,16.43.67,0,0,17.69-15.4,28.8-.75,4.73,6.23,7,25.28-19.73,26.05,0,0,5.59,14.94-9.35,20.53s-22.3-1.81-22.3-1.81-2.84,7.29-19.89,8.29Z"/><path class="cls-6" d="M597.69,732.92s7.36,7.4,22.3,1.81,9.35-20.53,9.35-20.53c11.94-.34,18.09-4.33,20.83-9.19h0c-6.27,6.92-24.4,6.44-24.4,6.44s2,14.84-7.92,19.79S596.33,729,596.33,729c-2.47,7.91-17.81,9.89-17.81,9.89l.65,2.2C595,739.81,597.69,732.92,597.69,732.92Z"/><path class="cls-7" d="M402.17,698.1S388.53,710,385.35,744.6c-3.71,40.32,11.38,68.76,11.38,68.76S458.07,854.91,518.91,847c30.89-4,60.85-25.23,72.72-56.4s-13.35-74.2-56.39-70.74c-16.38,1.32-30.67,7.42-46,16.82a256.73,256.73,0,0,1-32.15,16.82s2.47-45-29.19-73.71c-23.08-20.91-51.93-34.64-62.33-24.24C352.7,668.42,402.17,698.1,402.17,698.1Z"/><path class="cls-3" d="M434.09,679.55c9,3.46,19.91,9.63,19,19,0,0,32.65,1.49,23.75,23.25,0,0,12.86,2.48,12.36,19.79s-12.86,17.81-12.86,17.81-1.24,17.07-17.31,14.34c-17.73-3,1.32-36.43-10.66-63.69-6.47-14.7-13.21-23.33-18.17-28.22"/><path class="cls-7" d="M425.91,680.78s15.34-5.44,19.3-2-14.84,7.43-14.84,7.43Z"/><path class="cls-16" d="M425.17,824l-18.92-4.84h0c3.46,2,7.76,4.3,12.77,6.77A20.74,20.74,0,0,0,425.17,824Z"/><circle class="cls-17" cx="417.01" cy="678.31" r="1.24"/><circle class="cls-17" cx="420.97" cy="683.75" r="1.24"/><path class="cls-7" d="M405.66,795s-19,2.55-35.31.63c-15.07-1.76-21.09-5.94-22-3.29s0,6,1.32,8.32c2.4,4.22,20.11,9.61,38.64,15.18,13.14,3.95,24.48,7.18,36.85,8.17Z"/><path class="cls-16" d="M591.63,790.6a43.85,43.85,0,0,0,1.81-6l-28.77,4.29c8.05,9.47,17.91,10.33,23.08,10.39A81.26,81.26,0,0,0,591.63,790.6Z"/><path class="cls-7" d="M564.43,789.12s37.1,23.25,51-17.31c0,0,7.67-.75,9.64-5.69,0,0,7.92,8.9,9.4,8.9s3.47-9.4,3.22-11.13S624.53,751.28,620.82,751c-2-.13-20.28,2.47-27.21,2s-14.34-4.45-20.78-4Z"/><path class="cls-18" d="M622.06,691.91a14.32,14.32,0,0,1,4-5.44,24.55,24.55,0,0,1,8.64-4.46h0c-10.12,1-14.38,6.89-14.38,6.89-2.84-3.39-9.07-3.94-16.43-.67-10.55,4.7-11.12,17.4-11.12,17.4s-6.83-.92-14.6,7a20.13,20.13,0,0,0-2,2.45c.48-.37,8.37-8.36,18.26-7.86C594.35,707.25,598.31,681.53,622.06,691.91Z"/><path class="cls-18" d="M487.2,730.56a15.8,15.8,0,0,0-10.33-8.72c8.9-21.76-23.75-23.25-23.75-23.25.47-5-2.41-9.11-6.57-12.36,0,0,5.83,4.2,5.09,15.33,0,0,31.41-2.72,21.76,23.75C473.4,725.31,484.17,725.48,487.2,730.56Z"/><path class="cls-6" d="M451.15,763.22a.49.49,0,0,1,0-.12A.49.49,0,0,0,451.15,763.22Z"/><path class="cls-6" d="M451.09,762.36v0Z"/><path class="cls-6" d="M451.22,764h0Z"/><path class="cls-6" d="M476.42,759.44h.22l.11,0h.06l.55-.09h0a13.39,13.39,0,0,0,8.43-5.55l0,0c.12-.17.23-.35.35-.53h0c-3.3,3.37-12.53,5-12.53,5,.36,10-14.39,12.25-22.33,6.67,0,.24.07.48.12.71l0,.16c0,.19.07.38.11.56s0,.13,0,.19.09.35.13.52,0,.12.05.17a9.61,9.61,0,0,0,.43,1.28.78.78,0,0,0,0,.14l.2.45.09.18c.07.13.13.26.21.39a1.62,1.62,0,0,0,.1.18,3,3,0,0,0,.24.38l.08.14c.12.17.24.33.37.49l0,.05.35.4.14.14a2.68,2.68,0,0,0,.3.28l.16.15.32.25.16.13.41.27.11.07c.18.11.37.21.56.31l.15.07.45.2.22.09.43.15.24.08.48.13.23,0c.24.06.48.11.74.15,16.07,2.73,17.31-14.34,17.31-14.34h.05Z"/><path class="cls-19" d="M429.12,683.75a31.41,31.41,0,0,1,12.13-3.46"/><path class="cls-20" d="M584.91,804.29c-47.94-8-85-8.49-142.67,31.68,21.92,8.16,49.35,14.58,76.67,11C545,843.6,570.49,827.9,584.91,804.29Z"/><circle class="cls-4" cx="419.73" cy="691.91" r="3.46"/><circle class="cls-4" cx="370.57" cy="655.06" r="0.74"/><circle class="cls-4" cx="372.43" cy="656.54" r="0.74"/><path class="cls-12" d="M635.42,761.13a52.39,52.39,0,0,0-6.15,9.55c2.14,2.19,4.42,4.34,5.15,4.34,1.49,0,3.47-9.4,3.22-11.13A8.67,8.67,0,0,0,635.42,761.13Z"/><path class="cls-12" d="M348.36,792.33c-.92,2.73,0,6,1.32,8.32a6.36,6.36,0,0,0,1.94,1.89,90.35,90.35,0,0,0,4-9.81C351,791.52,348.87,790.82,348.36,792.33Z"/><path class="cls-5" d="M353.19,762.9c-1.48,2.47-1.29,5.87-.49,8.41a8.68,8.68,0,0,0,1.66,2.79,81,81,0,0,0,5.65-9.05C355.93,762.81,354,761.55,353.19,762.9Z"/><path class="cls-12" d="M373.45,670.91a3.75,3.75,0,0,0,.77,2.46.22.22,0,0,0,.2.1.23.23,0,0,0,.14,0,.24.24,0,0,0,.06-.34,3.12,3.12,0,0,1-.64-2.4,2.69,2.69,0,0,1,1.11-1.57.25.25,0,1,0-.26-.42,3.18,3.18,0,0,0-1.28,1.71,11.55,11.55,0,0,1-6.83-1.47l.65.91a12.12,12.12,0,0,0,5.05,1.11C372.75,671,373.09,670.94,373.45,670.91Z"/><circle class="cls-21" cx="523.86" cy="753.5" r="2.23"/><circle class="cls-21" cx="549.09" cy="726.79" r="2.23"/><circle class="cls-21" cx="542.66" cy="739.16" r="2.72"/><circle class="cls-21" cx="541.17" cy="754.49" r="1.24"/><circle class="cls-21" cx="502.59" cy="740.15" r="1.73"/><circle class="cls-21" cx="526.83" cy="733.72" r="2.72"/><circle class="cls-21" cx="563.19" cy="736.93" r="3.46"/><path class="cls-16" d="M408.85,700.82s-5-2-6.69-2.71a16.52,16.52,0,0,0-1.4,1.46C403.28,699.93,408.07,701.08,408.85,700.82Z"/><path class="cls-12" d="M921,674.4s15.33-4.66,19.29-1.7-14.84,6.35-14.84,6.35Z"/><path class="cls-3" d="M922.7,676.08s31.9,6.68,30.42,22.51c0,0,32.65,1.49,23.75,23.25,0,0,12.86,2.48,12.36,19.79s-12.86,17.81-12.86,17.81-1.24,17.07-17.31,14.34c-17.73-3-1.13-34.32-13.11-61.58C933.61,684.13,922.7,676.08,922.7,676.08Z"/><path class="cls-4" d="M911.07,775.76c-10.88,1.49-21.55.91-37.1-4.45-14.34-4.95-19.34-10.81-20.78-8.41s-1.29,5.87-.49,8.41c2.47,7.92,30.67,23.25,55.9,24.74"/><path class="cls-7" d="M902.17,698.1S888.53,710,885.35,744.6c-3.71,40.32,11.38,68.76,11.38,68.76s61.34,41.55,122.18,33.64c30.89-4,60.85-25.23,72.72-56.4s-13.35-74.2-56.39-70.74c-16.38,1.32-30.67,7.42-46,16.82a256.73,256.73,0,0,1-32.15,16.82s2.47-45-29.19-73.71c-23.08-20.91-51.93-34.64-62.33-24.24C852.7,668.42,902.17,698.1,902.17,698.1Z"/><path class="cls-3" d="M934.09,679.55c9,3.46,19.91,9.63,19,19,0,0,32.65,1.49,23.75,23.25,0,0,12.86,2.48,12.36,19.79s-12.86,17.81-12.86,17.81-1.24,17.07-17.31,14.34c-17.73-3,1.32-36.43-10.66-63.69-6.47-14.7-13.21-23.33-18.17-28.22"/><path class="cls-7" d="M925.91,680.78s15.34-5.44,19.3-2-14.84,7.43-14.84,7.43Z"/><path class="cls-16" d="M925.17,824l-18.92-4.84h0c3.46,2,7.76,4.3,12.77,6.77A20.74,20.74,0,0,0,925.17,824Z"/><circle class="cls-17" cx="917.01" cy="678.31" r="1.24"/><circle class="cls-17" cx="920.97" cy="683.75" r="1.24"/><path class="cls-7" d="M905.66,795s-19,2.55-35.31.63c-15.07-1.76-21.09-5.94-22-3.29s0,6,1.32,8.32c2.4,4.22,20.11,9.61,38.64,15.18,13.14,3.95,24.48,7.18,36.85,8.17Z"/><path class="cls-18" d="M987.2,730.56a15.8,15.8,0,0,0-10.33-8.72c8.9-21.76-23.75-23.25-23.75-23.25.47-5-2.41-9.11-6.57-12.36,0,0,5.83,4.2,5.09,15.33,0,0,31.41-2.72,21.76,23.75C973.4,725.31,984.17,725.48,987.2,730.56Z"/><path class="cls-6" d="M951.15,763.22a.49.49,0,0,1,0-.12A.49.49,0,0,0,951.15,763.22Z"/><path class="cls-6" d="M951.09,762.36v0Z"/><path class="cls-6" d="M951.22,764h0Z"/><path class="cls-6" d="M976.42,759.44h.22l.11,0h.06l.55-.09h0a13.39,13.39,0,0,0,8.43-5.55l0,0c.12-.17.23-.35.35-.53h0c-3.3,3.37-12.53,5-12.53,5,.36,10-14.39,12.25-22.33,6.67,0,.24.07.48.12.71l0,.16c0,.19.07.38.11.56s0,.13,0,.19.09.35.13.52,0,.12,0,.17a9.61,9.61,0,0,0,.43,1.28.78.78,0,0,0,0,.14l.2.45.09.18c.07.13.13.26.21.39a1.62,1.62,0,0,0,.1.18,3,3,0,0,0,.24.38l.08.14c.12.17.24.33.37.49l0,.05.35.4.14.14a2.68,2.68,0,0,0,.3.28l.16.15.32.25.16.13.41.27.11.07c.18.11.37.21.56.31l.15.07.45.2.22.09.43.15.24.08.48.13.23,0c.24.06.48.11.74.15,16.07,2.73,17.31-14.34,17.31-14.34h0Z"/><path class="cls-19" d="M929.12,683.75a31.41,31.41,0,0,1,12.13-3.46"/><path class="cls-20" d="M1084.91,804.29c-47.94-8-85-8.49-142.67,31.68,21.92,8.16,49.35,14.58,76.67,11C1045,843.6,1070.49,827.9,1084.91,804.29Z"/><circle class="cls-4" cx="919.73" cy="691.91" r="3.46"/><circle class="cls-4" cx="870.57" cy="655.06" r="0.74"/><circle class="cls-4" cx="872.43" cy="656.54" r="0.74"/><path class="cls-12" d="M848.36,792.33c-.92,2.73,0,6,1.32,8.32a6.36,6.36,0,0,0,1.94,1.89,90.35,90.35,0,0,0,4-9.81C851,791.52,848.87,790.82,848.36,792.33Z"/><path class="cls-5" d="M853.19,762.9c-1.48,2.47-1.29,5.87-.49,8.41a8.68,8.68,0,0,0,1.66,2.79,81,81,0,0,0,5.65-9.05C855.93,762.81,854,761.55,853.19,762.9Z"/><path class="cls-12" d="M873.45,670.91a3.75,3.75,0,0,0,.77,2.46.22.22,0,0,0,.2.1.23.23,0,0,0,.14,0,.24.24,0,0,0,.06-.34,3.12,3.12,0,0,1-.64-2.4,2.69,2.69,0,0,1,1.11-1.57.25.25,0,1,0-.26-.42,3.18,3.18,0,0,0-1.28,1.71,11.55,11.55,0,0,1-6.83-1.47l.65.91a12.12,12.12,0,0,0,5,1.11C872.75,671,873.09,670.94,873.45,670.91Z"/><path class="cls-16" d="M908.85,700.82s-5-2-6.69-2.71a16.52,16.52,0,0,0-1.4,1.46C903.28,699.93,908.07,701.08,908.85,700.82Z"/><path class="cls-3" d="M679.71,440.85s-27.94-3.66-38,6c-8.49,8.1-.46,11-.46,11s-27.93,3.93-31.6,21.07c-2.75,12.82,9.61,14.2,9.61,14.2s-9.61,11.91-10.53,25.65,11,15.11,14.66,14.2c0,0-3.06,23.88,7.78,22.9,5-.46,7.33-16.49,7.79-22,0,0,4.58,18.78,6.87,12.37,2.78-7.78.46-15.12-1.37-19.24S679.71,440.85,679.71,440.85Z"/><path class="cls-4" d="M808.64,495.45S780,529.09,822.49,548.88c0,0,2.62,9.37,6.43,19.29,0,0-1,4.86-2.79,7.39s-3.57,5.24-3.43,6c.26,1.46,8.88,1.71,10.54,1.16a5.22,5.22,0,0,0,2.31-2.68c2.52-5.65,6.64-13.91,6.32-16.68-.23-2-1.31-20.9-2.07-27.81s5.45-36.11,2-40.07Z"/><path class="cls-5" d="M835.55,580c-2.73-1.44-5.86-3.41-9.51-4.33-1.77,2.49-3.47,5.13-3.34,5.85.26,1.46,8.88,1.71,10.54,1.16A3.86,3.86,0,0,0,835.55,580Z"/><path class="cls-3" d="M830.17,430.09s29.31-18.32,36.18,9.62c0,0,22.22-2.52,24.74,19.69,2.22,19.59-11.45,22.45-11.45,22.45s18.54,25.87-20.39,34.12C823.63,523.51,830.17,430.09,830.17,430.09Z"/><path class="cls-6" d="M862.31,509.55l-6.84,6.85a19,19,0,0,0,3.78-.43c20.06-4.25,24.86-13.17,24.8-20.83A29,29,0,0,1,862.31,509.55Z"/><path class="cls-18" d="M866.35,439.71c-5.15-20.95-22.92-15.89-31.49-12V429s10.42-3,19.12.63c10.3,4.35,10.53,15.58,10.53,15.58s15.34-8,26.3,12.38C887.33,437.33,866.35,439.71,866.35,439.71Z"/><path class="cls-6" d="M634,540.47c-1.48,19.76-9.88,9.19-9.9,9.16,1.1,3.75,3.2,6.54,7,6.19s6-9.44,7.09-16.29C636.53,533.94,634.72,531.09,634,540.47Z"/><path class="cls-18" d="M644.9,459.18s-6.78-4-1.83-9.62c6.41-7.33,29.64-7.38,29.64-7.38l.84-1.85c-8.82-.48-24.76-.29-31.85,6.48-8.49,8.1-.46,11-.46,11s-27.93,3.93-31.6,21.07c-2.75,12.82,9.61,14.2,9.61,14.2s-9.61,11.91-10.53,25.65,11,15.11,14.66,14.2a57.66,57.66,0,0,0,0,12.92h0c-.5-5.41,2.34-15.21,2.34-15.21-4.58.91-13.29,1.37-13.74-8.71C611.39,510,622,492.61,622,492.61s-13.43-6-7.78-16.95C621.09,462.38,644.9,459.18,644.9,459.18Z"/><path class="cls-16" d="M747.05,527.73l-25-10.67c0,2.45-.1,8.07,0,15a42.28,42.28,0,0,0,19.65,9.63C743.09,535.65,744.84,530.5,747.05,527.73Z"/><path class="cls-4" d="M707.72,513.76s-.61,26.17,1.49,44.52c2,17.31,2.7,20.51,4.45,22.26,1.48,1.48,7.7-.43,8.41-4,1-4.94,3.46-47,12.37-52.43S707.72,513.76,707.72,513.76Z"/><path class="cls-7" d="M707.65,519.18c-25.65,13.38-47.71,6.47-47.71,6.47s13.36,52.15-2,51.92c-13.62-.2-27.26-28-28.68-56.77-1.94-39.52,29.15-67.37,29.15-67.37s43.32-46.91,113.8-42.35c57.68,3.74,90.33,25,98.24,62.52,3.18,15-2.74,83.82-82.21,76.26C737.32,545,707.65,519.18,707.65,519.18Z"/><path class="cls-22" d="M629.24,519.62c0,.39,0,.78,0,1.18a106,106,0,0,0,1.34,12.28c1.44-3.83,5.09-14.14,3.89-17.34C633.9,514.12,631.67,516.38,629.24,519.62Z"/><path class="cls-7" d="M625.89,529.79c3.09,4.26,8.73-14.1,8.73-14.1l-5-4.93s-6.81,14.78-3.72,19"/><circle class="cls-17" cx="635.94" cy="536.65" r="1.24"/><circle class="cls-17" cx="635.45" cy="530.93" r="1.24"/><path class="cls-16" d="M749.62,541.53a84.32,84.32,0,0,1-.48-9c.15-1.91-5.41,3.67-7.63,6C744.08,539.53,746.79,540.55,749.62,541.53Z"/><path class="cls-19" d="M632.27,514.22A31.63,31.63,0,0,0,627.73,526"/><circle class="cls-4" cx="641.44" cy="522.17" r="3.46"/><circle class="cls-4" cx="650.08" cy="570.56" r="0.74"/><circle class="cls-4" cx="649.82" cy="568.2" r="0.74"/><path class="cls-7" d="M725,519.69s-.62,26.18,1.48,44.53c2,17.31,1.22,21,3,22.75,1.48,1.49,9.19-.42,9.89-4,1-4.94,3.47-47.49,12.37-52.93S725,519.69,725,519.69Z"/><path class="cls-5" d="M739.38,583v0c-3.63-1.17-9-2.14-11.4-2.8h0l.06.7v.17c0,.17,0,.34,0,.5s0,.14,0,.2,0,.29,0,.43a1.23,1.23,0,0,0,0,.2l0,.38a1.23,1.23,0,0,1,0,.19c0,.12,0,.24,0,.35a1.11,1.11,0,0,1,0,.17c0,.12,0,.23.05.35a.5.5,0,0,0,0,.12,2.57,2.57,0,0,0,.06.4v0c0,.14.05.27.08.4v0c0,.11,0,.22.07.32l0,.09.06.23a.49.49,0,0,0,0,.11l.06.19,0,.1a.87.87,0,0,0,.07.17l0,.1.08.15a.41.41,0,0,0,0,.09l.08.13a.56.56,0,0,0,0,.08l.1.14.05.06.17.18a2.17,2.17,0,0,0,1.14.46C733.26,587.8,738.79,586,739.38,583Z"/><path class="cls-5" d="M722.07,576.56c-3.43-.95-7.75-1.8-10.77-2.46.73,4,1.39,5.47,2.36,6.44,1.48,1.48,7.7-.43,8.41-4Z"/><ellipse class="cls-8" cx="675.33" cy="589.73" rx="13.1" ry="2.68"/><path class="cls-9" d="M664,589.26h22.41s3.69-11,.71-13.56c-2.47-2.08-5,1.25-5.33,2.19,0,0,2.19-9.87-4.39-10.66-7-.83-6.27,10-6.27,10s-.32-5.65-4.39-4.86S661.21,581.34,664,589.26Z"/><path class="cls-10" d="M676.58,572.56s.47,11.61,0,16.7"/><path class="cls-10" d="M684.88,580.87s-1.61,7.06-2.06,8.39"/><path class="cls-10" d="M666.7,577.27s.38,7.68,1.76,12"/><path class="cls-11" d="M663.09,540.59c7.53,53.8-18.39,28.44-18.47,28.36,4,5.21,8.52,8.4,13,8.61a9.59,9.59,0,0,0,2.91-.56C667.46,573.49,665.53,554.46,663.09,540.59Z"/><path class="cls-12" d="M661.92,566.06a.27.27,0,0,0-.19-.3.26.26,0,0,0-.3.19,2.81,2.81,0,0,1-1.24,1.93,3.72,3.72,0,0,1-2.61.3.25.25,0,1,0-.13.48,4.47,4.47,0,0,0,1.1.13,3.91,3.91,0,0,0,1.54-.31,26.8,26.8,0,0,0,3.36,5.28c.08-.16.15-.33.22-.51a26.11,26.11,0,0,1-3.14-5A3.37,3.37,0,0,0,661.92,566.06Z"/><circle class="cls-21" cx="798.99" cy="446.23" r="2.23"/><circle class="cls-21" cx="832.14" cy="430.9" r="2.23"/><circle class="cls-21" cx="819.27" cy="447.72" r="2.72"/><circle class="cls-21" cx="823.23" cy="470.47" r="1.24"/><circle class="cls-21" cx="769.31" cy="436.83" r="1.73"/><circle class="cls-21" cx="798.99" cy="423.97" r="2.72"/><circle class="cls-21" cx="850.69" cy="455.88" r="3.46"/><path class="cls-20" d="M765.2,546.05a167.82,167.82,0,0,0,23.06,3.81c22.79,2.17,39.53-2,51.74-9.27-6.08-6.16-19.31-16.43-38.29-14A58,58,0,0,0,765.2,546.05Z"/><path class="cls-16" d="M822.69,518.88s-8.85,14,6.24,26.93a60.58,60.58,0,0,0,19.18-11.07c.13-1.89.1-3.17.1-3.17Z"/><path class="cls-7" d="M830.9,499.41s-28.69,33.64,13.85,53.43c0,0,2.62,9.36,6.43,19.29A52.14,52.14,0,0,1,847.4,579c-1.8,2.53-3.56,5.24-3.43,6,.27,1.46,8.88,1.72,10.54,1.16a5.23,5.23,0,0,0,2.31-2.67c2.52-5.66,7.63-13.42,7.31-16.19-.23-2-1.3-20.91-2.06-27.81s5.44-36.11,2-40.07Z"/><path class="cls-12" d="M856.82,583.48c-2.73-1.44-5.86-3.42-9.5-4.34-1.77,2.5-3.48,5.13-3.35,5.85.27,1.46,8.88,1.72,10.54,1.16A3.83,3.83,0,0,0,856.82,583.48Z"/><path class="cls-16" d="M660,525.66c.14,0,1.11.33,2.77.66l-5.46-9.59S658.91,523,660,525.66Z"/><path class="cls-3" d="M679.71,939.85s-27.94-3.66-38,6c-8.49,8.1-.46,11-.46,11s-27.93,3.93-31.6,21.07c-2.75,12.82,9.61,14.2,9.61,14.2s-9.61,11.91-10.53,25.65,11,15.11,14.66,14.2c0,0-3.06,23.88,7.78,22.9,5-.46,7.33-16.49,7.79-22,0,0,4.58,18.78,6.87,12.37,2.78-7.78.46-15.12-1.37-19.24S679.71,939.85,679.71,939.85Z"/><path class="cls-4" d="M808.64,994.45s-28.69,33.64,13.85,53.43c0,0,2.62,9.37,6.43,19.29,0,0-1,4.86-2.79,7.39s-3.57,5.24-3.43,6c.26,1.46,8.88,1.71,10.54,1.16a5.22,5.22,0,0,0,2.31-2.68c2.52-5.65,6.64-13.91,6.32-16.68-.23-2-1.31-20.9-2.07-27.81s5.45-36.11,2-40.07Z"/><path class="cls-3" d="M830.17,929.09s29.31-18.32,36.18,9.62c0,0,22.22-2.52,24.74,19.69,2.22,19.59-11.45,22.45-11.45,22.45s18.54,25.87-20.39,34.12C823.63,1022.51,830.17,929.09,830.17,929.09Z"/><path class="cls-6" d="M862.31,1008.55l-6.84,6.85a19,19,0,0,0,3.78-.43c20.06-4.25,24.86-13.17,24.8-20.83A29,29,0,0,1,862.31,1008.55Z"/><path class="cls-18" d="M866.35,938.71c-5.15-21-22.92-15.89-31.49-12.05V928s10.42-3,19.12.63c10.3,4.35,10.53,15.58,10.53,15.58s15.34-8,26.3,12.38C887.33,936.33,866.35,938.71,866.35,938.71Z"/><path class="cls-18" d="M644.9,958.18s-6.78-4-1.83-9.62c6.41-7.33,29.64-7.38,29.64-7.38l.84-1.85c-8.82-.48-24.76-.29-31.85,6.48-8.49,8.1-.46,11-.46,11s-27.93,3.93-31.6,21.07c-2.75,12.82,9.61,14.2,9.61,14.2s-9.61,11.91-10.53,25.65,11,15.11,14.66,14.2a57.66,57.66,0,0,0,0,12.92h0c-.5-5.41,2.34-15.21,2.34-15.21-4.58.91-13.29,1.37-13.74-8.71C611.39,1009,622,991.61,622,991.61s-13.43-6-7.78-17C621.09,961.38,644.9,958.18,644.9,958.18Z"/><path class="cls-7" d="M707.65,1018.18c-25.65,13.38-47.71,6.47-47.71,6.47s13.36,52.15-2,51.92c-13.62-.2-27.26-28-28.68-56.77-1.94-39.52,29.15-67.37,29.15-67.37s43.32-46.91,113.8-42.35c57.68,3.74,90.33,25,98.24,62.52,3.18,15-2.74,83.82-82.21,76.26C737.32,1044,707.65,1018.18,707.65,1018.18Z"/><circle class="cls-21" cx="798.99" cy="945.23" r="2.23"/><circle class="cls-21" cx="832.14" cy="929.9" r="2.23"/><circle class="cls-21" cx="819.27" cy="946.72" r="2.72"/><circle class="cls-21" cx="823.23" cy="969.47" r="1.24"/><circle class="cls-21" cx="769.31" cy="935.83" r="1.73"/><circle class="cls-21" cx="798.99" cy="922.97" r="2.72"/><circle class="cls-21" cx="850.69" cy="954.88" r="3.46"/><path class="cls-7" d="M830.9,998.41s-28.69,33.64,13.85,53.43c0,0,2.62,9.36,6.43,19.29a52.14,52.14,0,0,1-3.78,6.89c-1.8,2.53-3.56,5.24-3.43,6,.27,1.46,8.88,1.72,10.54,1.16a5.23,5.23,0,0,0,2.31-2.67c2.52-5.66,7.63-13.42,7.31-16.19-.23-2-1.3-20.91-2.06-27.81s5.44-36.11,2-40.07Z"/><path class="cls-7" d="M714.74,726.67c-.66.3-4.33,3.14-4.6,2.54l-1.72-3.81c-.86-1.9.58-4.4,3.21-5.6s5.47-.61,6.33,1.28l1.72,3.82C720.16,726,716.06,726.08,714.74,726.67Z"/><ellipse class="cls-23" cx="714.91" cy="727.06" rx="5.24" ry="3.77" transform="translate(-236.03 359.06) rotate(-24.33)"/><line class="cls-24" x1="714.48" y1="727.98" x2="722.59" y2="742.16"/><path class="cls-7" d="M723.4,744.82c-.66.3-4.33,3.13-4.59,2.54l-1.73-3.82c-.86-1.9.58-4.4,3.22-5.59s5.46-.62,6.32,1.28l1.73,3.81C728.83,744.11,724.72,744.22,723.4,744.82Z"/><ellipse class="cls-23" cx="723.58" cy="745.2" rx="5.24" ry="3.77" transform="translate(-242.74 364.24) rotate(-24.33)"/><path class="cls-7" d="M765.71,770.28c-.66.3-4.33,3.13-4.6,2.54L759.39,769c-.86-1.9.58-4.4,3.21-5.59s5.47-.62,6.33,1.28l1.72,3.81C771.13,769.57,767,769.68,765.71,770.28Z"/><ellipse class="cls-23" cx="765.88" cy="770.66" rx="5.24" ry="3.77" transform="translate(-249.47 383.93) rotate(-24.33)"/><polygon class="cls-20" points="768.71 777.42 766.47 772.46 776.76 772.87 779 777.83 768.71 777.42"/><polygon class="cls-20" points="716.5 732.15 719.25 736.85 724.88 728.23 722.14 723.52 716.5 732.15"/><line class="cls-24" x1="765.45" y1="771.59" x2="773.56" y2="785.76"/><path class="cls-3" d="M717.86,717.15s-4.68,1.5-1.75,8,17.84,23.19,30.06,31.92c3.21,2.3,38,31.66,48.4,23S717.86,717.15,717.86,717.15Z"/><path class="cls-25" d="M761.07,740.2c-10.38-7.72-41-29.72-44.32-21.79-5.29,12.68,71.21,73.9,78.8,60.44C799.38,772.06,774.87,750.45,761.07,740.2Z"/><path class="cls-7" d="M773,785.37c-.66.3-4.33,3.14-4.6,2.54l-1.72-3.82c-.86-1.89.58-4.4,3.22-5.59s5.46-.62,6.32,1.28l1.72,3.82C778.42,784.66,774.31,784.78,773,785.37Z"/><ellipse class="cls-23" cx="773.16" cy="785.75" rx="5.24" ry="3.77" transform="translate(-255.04 388.27) rotate(-24.33)"/><path class="cls-9" d="M785.79,779.63l-34.07-46.17-2-1.42L755,750.19l-21.66-28.43a62,62,0,0,0-8.22-3.88L762,766.31l2.54,1.74-4.9-16.86,18.5,25.07A56.74,56.74,0,0,0,785.79,779.63Z"/><ellipse class="cls-20" cx="723.58" cy="745.2" rx="1.47" ry="1.06" transform="translate(-242.74 364.24) rotate(-24.33)"/><ellipse class="cls-20" cx="773.16" cy="785.75" rx="1.47" ry="1.06" transform="translate(-255.04 388.27) rotate(-24.33)"/><rect class="cls-1" x="500.5" y="500.5" width="500" height="500"/></g><g class="cls-26"><rect class="cls-14" x="0.5" y="500.5" width="500" height="500"/><path class="cls-4" d="M47.09,776.06S88.86,789.18,92,746.44c0,0,7.23-2.66,7.9-8,0,0,9.91,6.62,11.34,6.24s1-10,.3-11.58S95.68,724.26,92,725c-2,.37-19,7.52-25.83,8.79s-15-.68-21.1,1.42Z"/><path class="cls-15" d="M108.71,731a52.33,52.33,0,0,0-3.54,10.79c2.62,1.58,5.38,3.09,6.08,2.9,1.44-.37,1-10,.3-11.58A8.55,8.55,0,0,0,108.71,731Z"/><path class="cls-3" d="M72.44,737.91s-3.81-15.54,5.68-25.25c7.77-7.95,14.6-7,14.6-7s.57-12.7,11.12-17.4c7.36-3.27,13.59-2.72,16.43.67,0,0,17.69-15.4,28.8-.75,4.73,6.23,7,25.28-19.73,26.05,0,0,5.59,14.94-9.35,20.53s-22.3-1.81-22.3-1.81-2.84,7.29-19.89,8.29Z"/><path class="cls-6" d="M97.69,732.92s7.36,7.4,22.3,1.81,9.35-20.53,9.35-20.53c11.94-.34,18.09-4.33,20.83-9.19h0c-6.27,6.92-24.4,6.44-24.4,6.44s2,14.84-7.92,19.79S96.33,729,96.33,729c-2.47,7.91-17.81,9.89-17.81,9.89l.65,2.2C95,739.81,97.69,732.92,97.69,732.92Z"/><path class="cls-7" d="M-97.83,698.1s-13.64,11.93-16.82,46.5c-3.71,40.32,11.38,68.76,11.38,68.76S-41.93,854.91,18.91,847c30.89-4,60.85-25.23,72.72-56.4s-13.35-74.2-56.39-70.74c-16.38,1.32-30.67,7.42-46,16.82A256.73,256.73,0,0,1-42.92,753.5s2.47-45-29.19-73.71c-23.08-20.91-51.93-34.64-62.33-24.24C-147.3,668.42-97.83,698.1-97.83,698.1Z"/><path class="cls-16" d="M91.63,790.6a43.85,43.85,0,0,0,1.81-6l-28.77,4.29c8,9.47,17.91,10.33,23.08,10.39A81.26,81.26,0,0,0,91.63,790.6Z"/><path class="cls-7" d="M64.43,789.12s37.1,23.25,50.95-17.31c0,0,7.67-.75,9.64-5.69,0,0,7.92,8.9,9.4,8.9s3.47-9.4,3.22-11.13S124.53,751.28,120.82,751c-2-.13-20.28,2.47-27.21,2s-14.34-4.45-20.78-4Z"/><path class="cls-18" d="M122.06,691.91a14.32,14.32,0,0,1,4-5.44,24.55,24.55,0,0,1,8.64-4.46h0c-10.12,1-14.38,6.89-14.38,6.89-2.84-3.39-9.07-3.94-16.43-.67-10.55,4.7-11.12,17.4-11.12,17.4s-6.83-.92-14.6,7a20.13,20.13,0,0,0-2,2.45c.48-.37,8.37-8.36,18.26-7.86C94.35,707.25,98.31,681.53,122.06,691.91Z"/><path class="cls-20" d="M84.91,804.29C37,796.29-.13,795.8-57.76,836c21.92,8.16,49.35,14.58,76.67,11C45,843.6,70.49,827.9,84.91,804.29Z"/><path class="cls-12" d="M135.42,761.13a52.39,52.39,0,0,0-6.15,9.55c2.14,2.19,4.42,4.34,5.15,4.34,1.49,0,3.47-9.4,3.22-11.13A8.67,8.67,0,0,0,135.42,761.13Z"/><circle class="cls-21" cx="23.86" cy="753.5" r="2.23"/><circle class="cls-21" cx="49.09" cy="726.79" r="2.23"/><circle class="cls-21" cx="42.66" cy="739.16" r="2.72"/><circle class="cls-21" cx="41.17" cy="754.49" r="1.24"/><circle class="cls-21" cx="2.59" cy="740.15" r="1.73"/><circle class="cls-21" cx="26.83" cy="733.72" r="2.72"/><circle class="cls-21" cx="63.19" cy="736.93" r="3.46"/><path class="cls-12" d="M421,674.4s15.33-4.66,19.29-1.7-14.84,6.35-14.84,6.35Z"/><path class="cls-3" d="M422.7,676.08s31.9,6.68,30.42,22.51c0,0,32.65,1.49,23.75,23.25,0,0,12.86,2.48,12.36,19.79s-12.86,17.81-12.86,17.81-1.24,17.07-17.31,14.34c-17.73-3-1.13-34.32-13.11-61.58C433.61,684.13,422.7,676.08,422.7,676.08Z"/><path class="cls-4" d="M547.09,776.06s41.77,13.12,44.92-29.62c0,0,7.23-2.66,7.9-8,0,0,9.91,6.62,11.34,6.24s1-10,.3-11.58S595.68,724.26,592,725c-1.95.37-19,7.52-25.83,8.79s-15-.68-21.1,1.42Z"/><path class="cls-15" d="M608.71,731a52.33,52.33,0,0,0-3.54,10.79c2.62,1.58,5.38,3.09,6.08,2.9,1.44-.37,1-10,.3-11.58A8.55,8.55,0,0,0,608.71,731Z"/><path class="cls-4" d="M411.07,775.76c-10.88,1.49-21.55.91-37.1-4.45-14.34-4.95-19.34-10.81-20.78-8.41s-1.29,5.87-.49,8.41c2.47,7.92,30.67,23.25,55.9,24.74"/><path class="cls-3" d="M572.44,737.91s-3.81-15.54,5.68-25.25c7.77-7.95,14.6-7,14.6-7s.57-12.7,11.12-17.4c7.36-3.27,13.59-2.72,16.43.67,0,0,17.69-15.4,28.8-.75,4.73,6.23,7,25.28-19.73,26.05,0,0,5.59,14.94-9.35,20.53s-22.3-1.81-22.3-1.81-2.84,7.29-19.89,8.29Z"/><path class="cls-6" d="M597.69,732.92s7.36,7.4,22.3,1.81,9.35-20.53,9.35-20.53c11.94-.34,18.09-4.33,20.83-9.19h0c-6.27,6.92-24.4,6.44-24.4,6.44s2,14.84-7.92,19.79S596.33,729,596.33,729c-2.47,7.91-17.81,9.89-17.81,9.89l.65,2.2C595,739.81,597.69,732.92,597.69,732.92Z"/><path class="cls-7" d="M402.17,698.1S388.53,710,385.35,744.6c-3.71,40.32,11.38,68.76,11.38,68.76S458.07,854.91,518.91,847c30.89-4,60.85-25.23,72.72-56.4s-13.35-74.2-56.39-70.74c-16.38,1.32-30.67,7.42-46,16.82a256.73,256.73,0,0,1-32.15,16.82s2.47-45-29.19-73.71c-23.08-20.91-51.93-34.64-62.33-24.24C352.7,668.42,402.17,698.1,402.17,698.1Z"/><path class="cls-3" d="M434.09,679.55c9,3.46,19.91,9.63,19,19,0,0,32.65,1.49,23.75,23.25,0,0,12.86,2.48,12.36,19.79s-12.86,17.81-12.86,17.81-1.24,17.07-17.31,14.34c-17.73-3,1.32-36.43-10.66-63.69-6.47-14.7-13.21-23.33-18.17-28.22"/><path class="cls-7" d="M425.91,680.78s15.34-5.44,19.3-2-14.84,7.43-14.84,7.43Z"/><path class="cls-16" d="M425.17,824l-18.92-4.84h0c3.46,2,7.76,4.3,12.77,6.77A20.74,20.74,0,0,0,425.17,824Z"/><circle class="cls-17" cx="417.01" cy="678.31" r="1.24"/><circle class="cls-17" cx="420.97" cy="683.75" r="1.24"/><path class="cls-7" d="M405.66,795s-19,2.55-35.31.63c-15.07-1.76-21.09-5.94-22-3.29s0,6,1.32,8.32c2.4,4.22,20.11,9.61,38.64,15.18,13.14,3.95,24.48,7.18,36.85,8.17Z"/><path class="cls-16" d="M591.63,790.6a43.85,43.85,0,0,0,1.81-6l-28.77,4.29c8.05,9.47,17.91,10.33,23.08,10.39A81.26,81.26,0,0,0,591.63,790.6Z"/><path class="cls-7" d="M564.43,789.12s37.1,23.25,51-17.31c0,0,7.67-.75,9.64-5.69,0,0,7.92,8.9,9.4,8.9s3.47-9.4,3.22-11.13S624.53,751.28,620.82,751c-2-.13-20.28,2.47-27.21,2s-14.34-4.45-20.78-4Z"/><path class="cls-18" d="M622.06,691.91a14.32,14.32,0,0,1,4-5.44,24.55,24.55,0,0,1,8.64-4.46h0c-10.12,1-14.38,6.89-14.38,6.89-2.84-3.39-9.07-3.94-16.43-.67-10.55,4.7-11.12,17.4-11.12,17.4s-6.83-.92-14.6,7a20.13,20.13,0,0,0-2,2.45c.48-.37,8.37-8.36,18.26-7.86C594.35,707.25,598.31,681.53,622.06,691.91Z"/><path class="cls-18" d="M487.2,730.56a15.8,15.8,0,0,0-10.33-8.72c8.9-21.76-23.75-23.25-23.75-23.25.47-5-2.41-9.11-6.57-12.36,0,0,5.83,4.2,5.09,15.33,0,0,31.41-2.72,21.76,23.75C473.4,725.31,484.17,725.48,487.2,730.56Z"/><path class="cls-6" d="M451.15,763.22a.49.49,0,0,1,0-.12A.49.49,0,0,0,451.15,763.22Z"/><path class="cls-6" d="M451.09,762.36v0Z"/><path class="cls-6" d="M451.22,764h0Z"/><path class="cls-6" d="M476.42,759.44h.22l.11,0h.06l.55-.09h0a13.39,13.39,0,0,0,8.43-5.55l0,0c.12-.17.23-.35.35-.53h0c-3.3,3.37-12.53,5-12.53,5,.36,10-14.39,12.25-22.33,6.67,0,.24.07.48.12.71l0,.16c0,.19.07.38.11.56s0,.13,0,.19.09.35.13.52,0,.12.05.17a9.61,9.61,0,0,0,.43,1.28.78.78,0,0,0,0,.14l.2.45.09.18c.07.13.13.26.21.39a1.62,1.62,0,0,0,.1.18,3,3,0,0,0,.24.38l.08.14c.12.17.24.33.37.49l0,.05.35.4.14.14a2.68,2.68,0,0,0,.3.28l.16.15.32.25.16.13.41.27.11.07c.18.11.37.21.56.31l.15.07.45.2.22.09.43.15.24.08.48.13.23,0c.24.06.48.11.74.15,16.07,2.73,17.31-14.34,17.31-14.34h.05Z"/><path class="cls-19" d="M429.12,683.75a31.41,31.41,0,0,1,12.13-3.46"/><path class="cls-20" d="M584.91,804.29c-47.94-8-85-8.49-142.67,31.68,21.92,8.16,49.35,14.58,76.67,11C545,843.6,570.49,827.9,584.91,804.29Z"/><circle class="cls-4" cx="419.73" cy="691.91" r="3.46"/><circle class="cls-4" cx="370.57" cy="655.06" r="0.74"/><circle class="cls-4" cx="372.43" cy="656.54" r="0.74"/><path class="cls-12" d="M635.42,761.13a52.39,52.39,0,0,0-6.15,9.55c2.14,2.19,4.42,4.34,5.15,4.34,1.49,0,3.47-9.4,3.22-11.13A8.67,8.67,0,0,0,635.42,761.13Z"/><path class="cls-12" d="M348.36,792.33c-.92,2.73,0,6,1.32,8.32a6.36,6.36,0,0,0,1.94,1.89,90.35,90.35,0,0,0,4-9.81C351,791.52,348.87,790.82,348.36,792.33Z"/><path class="cls-5" d="M353.19,762.9c-1.48,2.47-1.29,5.87-.49,8.41a8.68,8.68,0,0,0,1.66,2.79,81,81,0,0,0,5.65-9.05C355.93,762.81,354,761.55,353.19,762.9Z"/><path class="cls-12" d="M373.45,670.91a3.75,3.75,0,0,0,.77,2.46.22.22,0,0,0,.2.1.23.23,0,0,0,.14,0,.24.24,0,0,0,.06-.34,3.12,3.12,0,0,1-.64-2.4,2.69,2.69,0,0,1,1.11-1.57.25.25,0,1,0-.26-.42,3.18,3.18,0,0,0-1.28,1.71,11.55,11.55,0,0,1-6.83-1.47l.65.91a12.12,12.12,0,0,0,5.05,1.11C372.75,671,373.09,670.94,373.45,670.91Z"/><circle class="cls-21" cx="523.86" cy="753.5" r="2.23"/><circle class="cls-21" cx="549.09" cy="726.79" r="2.23"/><circle class="cls-21" cx="542.66" cy="739.16" r="2.72"/><circle class="cls-21" cx="541.17" cy="754.49" r="1.24"/><circle class="cls-21" cx="502.59" cy="740.15" r="1.73"/><circle class="cls-21" cx="526.83" cy="733.72" r="2.72"/><circle class="cls-21" cx="563.19" cy="736.93" r="3.46"/><path class="cls-16" d="M408.85,700.82s-5-2-6.69-2.71a16.52,16.52,0,0,0-1.4,1.46C403.28,699.93,408.07,701.08,408.85,700.82Z"/><path class="cls-3" d="M179.71,440.85s-27.94-3.66-38,6c-8.49,8.1-.46,11-.46,11s-27.93,3.93-31.6,21.07c-2.75,12.82,9.61,14.2,9.61,14.2s-9.61,11.91-10.53,25.65,11,15.11,14.66,14.2c0,0-3.06,23.88,7.78,22.9,5-.46,7.33-16.49,7.79-22,0,0,4.58,18.78,6.87,12.37,2.78-7.78.46-15.12-1.37-19.24S179.71,440.85,179.71,440.85Z"/><path class="cls-4" d="M308.64,495.45S280,529.09,322.49,548.88c0,0,2.62,9.37,6.43,19.29,0,0-1,4.86-2.79,7.39s-3.57,5.24-3.43,6c.26,1.46,8.88,1.71,10.54,1.16a5.22,5.22,0,0,0,2.31-2.68c2.52-5.65,6.64-13.91,6.32-16.68-.23-2-1.31-20.9-2.07-27.81s5.45-36.11,2-40.07Z"/><path class="cls-5" d="M335.55,580c-2.73-1.44-5.86-3.41-9.51-4.33-1.77,2.49-3.47,5.13-3.34,5.85.26,1.46,8.88,1.71,10.54,1.16A3.86,3.86,0,0,0,335.55,580Z"/><path class="cls-3" d="M330.17,430.09s29.31-18.32,36.18,9.62c0,0,22.22-2.52,24.74,19.69,2.22,19.59-11.45,22.45-11.45,22.45s18.54,25.87-20.39,34.12C323.63,523.51,330.17,430.09,330.17,430.09Z"/><path class="cls-6" d="M362.31,509.55l-6.84,6.85a19,19,0,0,0,3.78-.43c20.06-4.25,24.86-13.17,24.8-20.83A29,29,0,0,1,362.31,509.55Z"/><path class="cls-18" d="M366.35,439.71c-5.15-20.95-22.92-15.89-31.49-12V429s10.42-3,19.12.63c10.3,4.35,10.53,15.58,10.53,15.58s15.34-8,26.3,12.38C387.33,437.33,366.35,439.71,366.35,439.71Z"/><path class="cls-6" d="M134,540.47c-1.48,19.76-9.88,9.19-9.9,9.16,1.1,3.75,3.2,6.54,7,6.19s6-9.44,7.09-16.29C136.53,533.94,134.72,531.09,134,540.47Z"/><path class="cls-18" d="M144.9,459.18s-6.78-4-1.83-9.62c6.41-7.33,29.64-7.38,29.64-7.38l.84-1.85c-8.82-.48-24.76-.29-31.85,6.48-8.49,8.1-.46,11-.46,11s-27.93,3.93-31.6,21.07c-2.75,12.82,9.61,14.2,9.61,14.2s-9.61,11.91-10.53,25.65,11,15.11,14.66,14.2a57.66,57.66,0,0,0,0,12.92h0c-.5-5.41,2.34-15.21,2.34-15.21-4.58.91-13.29,1.37-13.74-8.71C111.39,510,122,492.61,122,492.61s-13.43-6-7.78-16.95C121.09,462.38,144.9,459.18,144.9,459.18Z"/><path class="cls-16" d="M247.05,527.73l-25-10.67c0,2.45-.1,8.07,0,15a42.28,42.28,0,0,0,19.65,9.63C243.09,535.65,244.84,530.5,247.05,527.73Z"/><path class="cls-4" d="M207.72,513.76s-.61,26.17,1.49,44.52c2,17.31,2.7,20.51,4.45,22.26,1.48,1.48,7.7-.43,8.41-4,1-4.94,3.46-47,12.37-52.43S207.72,513.76,207.72,513.76Z"/><path class="cls-7" d="M207.65,519.18c-25.65,13.38-47.71,6.47-47.71,6.47s13.36,52.15-2,51.92c-13.62-.2-27.26-28-28.68-56.77-1.94-39.52,29.15-67.37,29.15-67.37s43.32-46.91,113.8-42.35c57.68,3.74,90.33,25,98.24,62.52,3.18,15-2.74,83.82-82.21,76.26C237.32,545,207.65,519.18,207.65,519.18Z"/><path class="cls-22" d="M129.24,519.62c0,.39,0,.78,0,1.18a106,106,0,0,0,1.34,12.28c1.44-3.83,5.09-14.14,3.89-17.34C133.9,514.12,131.67,516.38,129.24,519.62Z"/><path class="cls-7" d="M125.89,529.79c3.09,4.26,8.73-14.1,8.73-14.1l-5-4.93s-6.81,14.78-3.72,19"/><circle class="cls-17" cx="135.94" cy="536.65" r="1.24"/><circle class="cls-17" cx="135.45" cy="530.93" r="1.24"/><path class="cls-16" d="M249.62,541.53a84.32,84.32,0,0,1-.48-9c.15-1.91-5.41,3.67-7.63,6C244.08,539.53,246.79,540.55,249.62,541.53Z"/><path class="cls-19" d="M132.27,514.22A31.63,31.63,0,0,0,127.73,526"/><circle class="cls-4" cx="141.44" cy="522.17" r="3.46"/><circle class="cls-4" cx="150.08" cy="570.56" r="0.74"/><circle class="cls-4" cx="149.82" cy="568.2" r="0.74"/><path class="cls-7" d="M225,519.69s-.62,26.18,1.48,44.53c2,17.31,1.22,21,3,22.75,1.48,1.49,9.19-.42,9.89-4,1-4.94,3.47-47.49,12.37-52.93S225,519.69,225,519.69Z"/><path class="cls-5" d="M239.38,583v0c-3.63-1.17-9-2.14-11.4-2.8h0l.06.7v.17c0,.17,0,.34,0,.5s0,.14,0,.2,0,.29,0,.43a1.23,1.23,0,0,0,0,.2l0,.38a1.23,1.23,0,0,1,0,.19c0,.12,0,.24,0,.35a1.11,1.11,0,0,1,0,.17c0,.12,0,.23.05.35a.5.5,0,0,0,0,.12,2.57,2.57,0,0,0,.06.4v0c0,.14.05.27.08.4v0c0,.11.05.22.07.32l0,.09.06.23a.49.49,0,0,0,0,.11l.06.19,0,.1a.87.87,0,0,0,.07.17l0,.1.08.15a.41.41,0,0,0,0,.09l.08.13a.56.56,0,0,0,0,.08l.1.14,0,.06.17.18a2.17,2.17,0,0,0,1.14.46C233.26,587.8,238.79,586,239.38,583Z"/><path class="cls-5" d="M222.07,576.56c-3.43-.95-7.75-1.8-10.77-2.46.73,4,1.39,5.47,2.36,6.44,1.48,1.48,7.7-.43,8.41-4Z"/><ellipse class="cls-8" cx="175.33" cy="589.73" rx="13.1" ry="2.68"/><path class="cls-9" d="M164,589.26h22.41s3.69-11,.71-13.56c-2.47-2.08-5,1.25-5.33,2.19,0,0,2.19-9.87-4.39-10.66-7-.83-6.27,10-6.27,10s-.32-5.65-4.39-4.86S161.21,581.34,164,589.26Z"/><path class="cls-10" d="M176.58,572.56s.47,11.61,0,16.7"/><path class="cls-10" d="M184.88,580.87s-1.61,7.06-2.06,8.39"/><path class="cls-10" d="M166.7,577.27s.38,7.68,1.76,12"/><path class="cls-11" d="M163.09,540.59c7.53,53.8-18.39,28.44-18.47,28.36,4,5.21,8.52,8.4,13,8.61a9.59,9.59,0,0,0,2.91-.56C167.46,573.49,165.53,554.46,163.09,540.59Z"/><path class="cls-12" d="M161.92,566.06a.27.27,0,0,0-.19-.3.26.26,0,0,0-.3.19,2.81,2.81,0,0,1-1.24,1.93,3.72,3.72,0,0,1-2.61.3.25.25,0,1,0-.13.48,4.47,4.47,0,0,0,1.1.13,3.91,3.91,0,0,0,1.54-.31,26.8,26.8,0,0,0,3.36,5.28c.08-.16.15-.33.22-.51a26.11,26.11,0,0,1-3.14-5A3.37,3.37,0,0,0,161.92,566.06Z"/><circle class="cls-21" cx="298.99" cy="446.23" r="2.23"/><circle class="cls-21" cx="332.14" cy="430.9" r="2.23"/><circle class="cls-21" cx="319.27" cy="447.72" r="2.72"/><circle class="cls-21" cx="323.23" cy="470.47" r="1.24"/><circle class="cls-21" cx="269.31" cy="436.83" r="1.73"/><circle class="cls-21" cx="298.99" cy="423.97" r="2.72"/><circle class="cls-21" cx="350.69" cy="455.88" r="3.46"/><path class="cls-20" d="M265.2,546.05a167.82,167.82,0,0,0,23.06,3.81c22.79,2.17,39.53-2,51.74-9.27-6.08-6.16-19.31-16.43-38.29-14A58,58,0,0,0,265.2,546.05Z"/><path class="cls-16" d="M322.69,518.88s-8.85,14,6.24,26.93a60.58,60.58,0,0,0,19.18-11.07c.13-1.89.1-3.17.1-3.17Z"/><path class="cls-7" d="M330.9,499.41s-28.69,33.64,13.85,53.43c0,0,2.62,9.36,6.43,19.29A52.14,52.14,0,0,1,347.4,579c-1.8,2.53-3.56,5.24-3.43,6,.27,1.46,8.88,1.72,10.54,1.16a5.23,5.23,0,0,0,2.31-2.67c2.52-5.66,7.63-13.42,7.31-16.19-.23-2-1.3-20.91-2.06-27.81s5.44-36.11,2-40.07Z"/><path class="cls-12" d="M356.82,583.48c-2.73-1.44-5.86-3.42-9.5-4.34-1.77,2.5-3.48,5.13-3.35,5.85.27,1.46,8.88,1.72,10.54,1.16A3.83,3.83,0,0,0,356.82,583.48Z"/><path class="cls-16" d="M160,525.66c.14,0,1.11.33,2.77.66l-5.46-9.59S158.91,523,160,525.66Z"/><path class="cls-3" d="M179.71,939.85s-27.94-3.66-38,6c-8.49,8.1-.46,11-.46,11s-27.93,3.93-31.6,21.07c-2.75,12.82,9.61,14.2,9.61,14.2s-9.61,11.91-10.53,25.65,11,15.11,14.66,14.2c0,0-3.06,23.88,7.78,22.9,5-.46,7.33-16.49,7.79-22,0,0,4.58,18.78,6.87,12.37,2.78-7.78.46-15.12-1.37-19.24S179.71,939.85,179.71,939.85Z"/><path class="cls-4" d="M308.64,994.45s-28.69,33.64,13.85,53.43c0,0,2.62,9.37,6.43,19.29,0,0-1,4.86-2.79,7.39s-3.57,5.24-3.43,6c.26,1.46,8.88,1.71,10.54,1.16a5.22,5.22,0,0,0,2.31-2.68c2.52-5.65,6.64-13.91,6.32-16.68-.23-2-1.31-20.9-2.07-27.81s5.45-36.11,2-40.07Z"/><path class="cls-3" d="M330.17,929.09s29.31-18.32,36.18,9.62c0,0,22.22-2.52,24.74,19.69,2.22,19.59-11.45,22.45-11.45,22.45s18.54,25.87-20.39,34.12C323.63,1022.51,330.17,929.09,330.17,929.09Z"/><path class="cls-6" d="M362.31,1008.55l-6.84,6.85a19,19,0,0,0,3.78-.43c20.06-4.25,24.86-13.17,24.8-20.83A29,29,0,0,1,362.31,1008.55Z"/><path class="cls-18" d="M366.35,938.71c-5.15-21-22.92-15.89-31.49-12.05V928s10.42-3,19.12.63c10.3,4.35,10.53,15.58,10.53,15.58s15.34-8,26.3,12.38C387.33,936.33,366.35,938.71,366.35,938.71Z"/><path class="cls-18" d="M144.9,958.18s-6.78-4-1.83-9.62c6.41-7.33,29.64-7.38,29.64-7.38l.84-1.85c-8.82-.48-24.76-.29-31.85,6.48-8.49,8.1-.46,11-.46,11s-27.93,3.93-31.6,21.07c-2.75,12.82,9.61,14.2,9.61,14.2s-9.61,11.91-10.53,25.65,11,15.11,14.66,14.2a57.66,57.66,0,0,0,0,12.92h0c-.5-5.41,2.34-15.21,2.34-15.21-4.58.91-13.29,1.37-13.74-8.71C111.39,1009,122,991.61,122,991.61s-13.43-6-7.78-17C121.09,961.38,144.9,958.18,144.9,958.18Z"/><path class="cls-7" d="M207.65,1018.18c-25.65,13.38-47.71,6.47-47.71,6.47s13.36,52.15-2,51.92c-13.62-.2-27.26-28-28.68-56.77-1.94-39.52,29.15-67.37,29.15-67.37s43.32-46.91,113.8-42.35c57.68,3.74,90.33,25,98.24,62.52,3.18,15-2.74,83.82-82.21,76.26C237.32,1044,207.65,1018.18,207.65,1018.18Z"/><circle class="cls-21" cx="298.99" cy="945.23" r="2.23"/><circle class="cls-21" cx="332.14" cy="929.9" r="2.23"/><circle class="cls-21" cx="319.27" cy="946.72" r="2.72"/><circle class="cls-21" cx="323.23" cy="969.47" r="1.24"/><circle class="cls-21" cx="269.31" cy="935.83" r="1.73"/><circle class="cls-21" cx="298.99" cy="922.97" r="2.72"/><circle class="cls-21" cx="350.69" cy="954.88" r="3.46"/><path class="cls-7" d="M330.9,998.41s-28.69,33.64,13.85,53.43c0,0,2.62,9.36,6.43,19.29a52.14,52.14,0,0,1-3.78,6.89c-1.8,2.53-3.56,5.24-3.43,6,.27,1.46,8.88,1.72,10.54,1.16a5.23,5.23,0,0,0,2.31-2.67c2.52-5.66,7.63-13.42,7.31-16.19-.23-2-1.3-20.91-2.06-27.81s5.44-36.11,2-40.07Z"/><path class="cls-7" d="M214.74,726.67c-.66.3-4.33,3.14-4.6,2.54l-1.72-3.81c-.86-1.9.58-4.4,3.21-5.6s5.47-.61,6.33,1.28l1.72,3.82C220.16,726,216.06,726.08,214.74,726.67Z"/><ellipse class="cls-23" cx="214.91" cy="727.06" rx="5.24" ry="3.77" transform="translate(-280.43 153.09) rotate(-24.33)"/><line class="cls-24" x1="214.48" y1="727.98" x2="222.59" y2="742.16"/><path class="cls-7" d="M223.4,744.82c-.66.3-4.33,3.13-4.59,2.54l-1.73-3.82c-.86-1.9.58-4.4,3.22-5.59s5.46-.62,6.32,1.28l1.73,3.81C228.83,744.11,224.72,744.22,223.4,744.82Z"/><ellipse class="cls-23" cx="223.58" cy="745.2" rx="5.24" ry="3.77" transform="translate(-287.13 158.27) rotate(-24.33)"/><path class="cls-7" d="M265.71,770.28c-.66.3-4.33,3.13-4.6,2.54L259.39,769c-.86-1.9.58-4.4,3.21-5.59s5.47-.62,6.33,1.28l1.72,3.81C271.13,769.57,267,769.68,265.71,770.28Z"/><ellipse class="cls-23" cx="265.88" cy="770.66" rx="5.24" ry="3.77" transform="translate(-293.86 177.96) rotate(-24.33)"/><polygon class="cls-20" points="268.71 777.42 266.47 772.46 276.76 772.87 279 777.83 268.71 777.42"/><polygon class="cls-20" points="216.5 732.15 219.25 736.85 224.88 728.23 222.14 723.52 216.5 732.15"/><line class="cls-24" x1="265.45" y1="771.59" x2="273.56" y2="785.76"/><path class="cls-3" d="M217.86,717.15s-4.68,1.5-1.75,8,17.84,23.19,30.06,31.92c3.21,2.3,38,31.66,48.4,23S217.86,717.15,217.86,717.15Z"/><path class="cls-25" d="M261.07,740.2c-10.38-7.72-41-29.72-44.32-21.79-5.29,12.68,71.21,73.9,78.8,60.44C299.38,772.06,274.87,750.45,261.07,740.2Z"/><path class="cls-7" d="M273,785.37c-.66.3-4.33,3.14-4.6,2.54l-1.72-3.82c-.86-1.89.58-4.4,3.22-5.59s5.46-.62,6.32,1.28l1.72,3.82C278.42,784.66,274.31,784.78,273,785.37Z"/><ellipse class="cls-23" cx="273.16" cy="785.75" rx="5.24" ry="3.77" transform="matrix(0.91, -0.41, 0.41, 0.91, -299.43, 182.3)"/><path class="cls-9" d="M285.79,779.63l-34.07-46.17-2-1.42L255,750.19l-21.66-28.43a62,62,0,0,0-8.22-3.88L262,766.31l2.54,1.74-4.9-16.86,18.5,25.07A56.74,56.74,0,0,0,285.79,779.63Z"/><ellipse class="cls-20" cx="223.58" cy="745.2" rx="1.47" ry="1.06" transform="translate(-287.13 158.27) rotate(-24.33)"/><ellipse class="cls-20" cx="273.16" cy="785.75" rx="1.47" ry="1.06" transform="translate(-299.43 182.3) rotate(-24.33)"/><rect class="cls-1" x="0.5" y="500.5" width="500" height="500"/></g><g class="cls-27"><rect class="cls-14" x="500.5" y="0.5" width="500" height="500"/><path class="cls-12" d="M421,174.4s15.33-4.66,19.29-1.7-14.84,6.35-14.84,6.35Z"/><path class="cls-3" d="M422.7,176.08s31.9,6.68,30.42,22.51c0,0,32.65,1.49,23.75,23.25,0,0,12.86,2.48,12.36,19.79s-12.86,17.81-12.86,17.81-1.24,17.07-17.31,14.34c-17.73-3-1.13-34.32-13.11-61.58C433.61,184.13,422.7,176.08,422.7,176.08Z"/><path class="cls-4" d="M547.09,276.06s41.77,13.12,44.92-29.62c0,0,7.23-2.66,7.9-7.95,0,0,9.91,6.62,11.34,6.24s1-10,.3-11.58S595.68,224.26,592,225c-1.95.37-19,7.52-25.83,8.79s-15-.68-21.1,1.42Z"/><path class="cls-15" d="M608.71,231a52.33,52.33,0,0,0-3.54,10.79c2.62,1.58,5.38,3.09,6.08,2.9,1.44-.37,1-10,.3-11.58A8.55,8.55,0,0,0,608.71,231Z"/><path class="cls-4" d="M411.07,275.76c-10.88,1.49-21.55.91-37.1-4.45-14.34-4.95-19.34-10.81-20.78-8.41s-1.29,5.87-.49,8.41c2.47,7.92,30.67,23.25,55.9,24.74"/><path class="cls-3" d="M572.44,237.91s-3.81-15.54,5.68-25.25c7.77-7.95,14.6-7,14.6-7s.57-12.7,11.12-17.4c7.36-3.27,13.59-2.72,16.43.67,0,0,17.69-15.4,28.8-.75,4.73,6.23,7,25.28-19.73,26,0,0,5.59,14.94-9.35,20.53s-22.3-1.81-22.3-1.81-2.84,7.29-19.89,8.29Z"/><path class="cls-6" d="M597.69,232.92s7.36,7.4,22.3,1.81,9.35-20.53,9.35-20.53c11.94-.34,18.09-4.33,20.83-9.19h0c-6.27,6.92-24.4,6.44-24.4,6.44s2,14.84-7.92,19.79S596.33,229,596.33,229c-2.47,7.91-17.81,9.89-17.81,9.89l.65,2.2C595,239.81,597.69,232.92,597.69,232.92Z"/><path class="cls-7" d="M402.17,198.1S388.53,210,385.35,244.6c-3.71,40.32,11.38,68.76,11.38,68.76S458.07,354.91,518.91,347c30.89-4,60.85-25.23,72.72-56.4s-13.35-74.2-56.39-70.74c-16.38,1.32-30.67,7.42-46,16.82a256.73,256.73,0,0,1-32.15,16.82s2.47-45-29.19-73.71c-23.08-20.91-51.93-34.64-62.33-24.24C352.7,168.42,402.17,198.1,402.17,198.1Z"/><path class="cls-3" d="M434.09,179.55c9,3.46,19.91,9.63,19,19,0,0,32.65,1.49,23.75,23.25,0,0,12.86,2.48,12.36,19.79s-12.86,17.81-12.86,17.81-1.24,17.07-17.31,14.34c-17.73-3,1.32-36.43-10.66-63.69-6.47-14.7-13.21-23.33-18.17-28.22"/><path class="cls-7" d="M425.91,180.78s15.34-5.44,19.3-2-14.84,7.43-14.84,7.43Z"/><path class="cls-16" d="M425.17,324l-18.92-4.84h0c3.46,2,7.76,4.3,12.77,6.77A20.74,20.74,0,0,0,425.17,324Z"/><circle class="cls-17" cx="417.01" cy="178.31" r="1.24"/><circle class="cls-17" cx="420.97" cy="183.75" r="1.24"/><path class="cls-7" d="M405.66,295s-19,2.55-35.31.63c-15.07-1.76-21.09-5.94-22-3.29s0,6,1.32,8.32c2.4,4.22,20.11,9.61,38.64,15.18,13.14,3.95,24.48,7.18,36.85,8.17Z"/><path class="cls-16" d="M591.63,290.6a43.85,43.85,0,0,0,1.81-6l-28.77,4.29c8.05,9.47,17.91,10.33,23.08,10.39A81.26,81.26,0,0,0,591.63,290.6Z"/><path class="cls-7" d="M564.43,289.12s37.1,23.25,51-17.31c0,0,7.67-.75,9.64-5.69,0,0,7.92,8.9,9.4,8.9s3.47-9.4,3.22-11.13S624.53,251.28,620.82,251c-2-.13-20.28,2.47-27.21,2s-14.34-4.45-20.78-4Z"/><path class="cls-18" d="M622.06,191.91a14.32,14.32,0,0,1,4-5.44,24.55,24.55,0,0,1,8.64-4.46h0c-10.12,1-14.38,6.89-14.38,6.89-2.84-3.39-9.07-3.94-16.43-.67-10.55,4.7-11.12,17.4-11.12,17.4s-6.83-.92-14.6,7a20.13,20.13,0,0,0-2,2.45c.48-.37,8.37-8.36,18.26-7.86C594.35,207.25,598.31,181.53,622.06,191.91Z"/><path class="cls-18" d="M487.2,230.56a15.8,15.8,0,0,0-10.33-8.72c8.9-21.76-23.75-23.25-23.75-23.25.47-5-2.41-9.11-6.57-12.36,0,0,5.83,4.2,5.09,15.33,0,0,31.41-2.72,21.76,23.75C473.4,225.31,484.17,225.48,487.2,230.56Z"/><path class="cls-6" d="M451.15,263.22a.49.49,0,0,1,0-.12A.49.49,0,0,0,451.15,263.22Z"/><path class="cls-6" d="M451.09,262.36v0Z"/><path class="cls-6" d="M451.22,264h0Z"/><path class="cls-6" d="M476.42,259.44h.22l.11,0h.06l.55-.09h0a13.39,13.39,0,0,0,8.43-5.55l0,0c.12-.17.23-.35.35-.53h0c-3.3,3.37-12.53,5-12.53,5,.36,10-14.39,12.25-22.33,6.67,0,.24.07.48.12.71l0,.16c0,.19.07.38.11.56s0,.13,0,.19.09.35.13.52,0,.12.05.17a9.61,9.61,0,0,0,.43,1.28.78.78,0,0,0,0,.14l.2.45.09.18c.07.13.13.26.21.39a1.62,1.62,0,0,0,.1.18,3,3,0,0,0,.24.38l.08.14c.12.17.24.33.37.49l0,.05.35.4.14.14a2.68,2.68,0,0,0,.3.28l.16.15.32.25.16.13.41.27.11.07c.18.11.37.21.56.31l.15.07.45.2.22.09.43.15.24.08.48.13.23.05c.24.06.48.11.74.15,16.07,2.73,17.31-14.34,17.31-14.34h.05Z"/><path class="cls-19" d="M429.12,183.75a31.41,31.41,0,0,1,12.13-3.46"/><path class="cls-20" d="M584.91,304.29c-47.94-8-85-8.49-142.67,31.68,21.92,8.16,49.35,14.58,76.67,11C545,343.6,570.49,327.9,584.91,304.29Z"/><circle class="cls-4" cx="419.73" cy="191.91" r="3.46"/><circle class="cls-4" cx="370.57" cy="155.06" r="0.74"/><circle class="cls-4" cx="372.43" cy="156.54" r="0.74"/><path class="cls-12" d="M635.42,261.13a52.39,52.39,0,0,0-6.15,9.55c2.14,2.19,4.42,4.34,5.15,4.34,1.49,0,3.47-9.4,3.22-11.13A8.67,8.67,0,0,0,635.42,261.13Z"/><path class="cls-12" d="M348.36,292.33c-.92,2.73,0,6,1.32,8.32a6.36,6.36,0,0,0,1.94,1.89,90.35,90.35,0,0,0,4-9.81C351,291.52,348.87,290.82,348.36,292.33Z"/><path class="cls-5" d="M353.19,262.9c-1.48,2.47-1.29,5.87-.49,8.41a8.68,8.68,0,0,0,1.66,2.79,81,81,0,0,0,5.65-9.05C355.93,262.81,354,261.55,353.19,262.9Z"/><path class="cls-12" d="M373.45,170.91a3.75,3.75,0,0,0,.77,2.46.22.22,0,0,0,.2.1.23.23,0,0,0,.14,0,.24.24,0,0,0,.06-.34,3.12,3.12,0,0,1-.64-2.4,2.69,2.69,0,0,1,1.11-1.57.25.25,0,0,0-.26-.42,3.18,3.18,0,0,0-1.28,1.71,11.55,11.55,0,0,1-6.83-1.47l.65.91a12.12,12.12,0,0,0,5.05,1.11C372.75,171,373.09,170.94,373.45,170.91Z"/><circle class="cls-21" cx="523.86" cy="253.5" r="2.23"/><circle class="cls-21" cx="549.09" cy="226.79" r="2.23"/><circle class="cls-21" cx="542.66" cy="239.16" r="2.72"/><circle class="cls-21" cx="541.17" cy="254.49" r="1.24"/><circle class="cls-21" cx="502.59" cy="240.15" r="1.73"/><circle class="cls-21" cx="526.83" cy="233.72" r="2.72"/><circle class="cls-21" cx="563.19" cy="236.93" r="3.46"/><path class="cls-16" d="M408.85,200.82s-5-2-6.69-2.71a16.52,16.52,0,0,0-1.4,1.46C403.28,199.93,408.07,201.08,408.85,200.82Z"/><path class="cls-12" d="M921,174.4s15.33-4.66,19.29-1.7-14.84,6.35-14.84,6.35Z"/><path class="cls-3" d="M922.7,176.08s31.9,6.68,30.42,22.51c0,0,32.65,1.49,23.75,23.25,0,0,12.86,2.48,12.36,19.79s-12.86,17.81-12.86,17.81-1.24,17.07-17.31,14.34c-17.73-3-1.13-34.32-13.11-61.58C933.61,184.13,922.7,176.08,922.7,176.08Z"/><path class="cls-4" d="M911.07,275.76c-10.88,1.49-21.55.91-37.1-4.45-14.34-4.95-19.34-10.81-20.78-8.41s-1.29,5.87-.49,8.41c2.47,7.92,30.67,23.25,55.9,24.74"/><path class="cls-7" d="M902.17,198.1S888.53,210,885.35,244.6c-3.71,40.32,11.38,68.76,11.38,68.76s61.34,41.55,122.18,33.64c30.89-4,60.85-25.23,72.72-56.4s-13.35-74.2-56.39-70.74c-16.38,1.32-30.67,7.42-46,16.82a256.73,256.73,0,0,1-32.15,16.82s2.47-45-29.19-73.71c-23.08-20.91-51.93-34.64-62.33-24.24C852.7,168.42,902.17,198.1,902.17,198.1Z"/><path class="cls-3" d="M934.09,179.55c9,3.46,19.91,9.63,19,19,0,0,32.65,1.49,23.75,23.25,0,0,12.86,2.48,12.36,19.79s-12.86,17.81-12.86,17.81-1.24,17.07-17.31,14.34c-17.73-3,1.32-36.43-10.66-63.69-6.47-14.7-13.21-23.33-18.17-28.22"/><path class="cls-7" d="M925.91,180.78s15.34-5.44,19.3-2-14.84,7.43-14.84,7.43Z"/><path class="cls-16" d="M925.17,324l-18.92-4.84h0c3.46,2,7.76,4.3,12.77,6.77A20.74,20.74,0,0,0,925.17,324Z"/><circle class="cls-17" cx="917.01" cy="178.31" r="1.24"/><circle class="cls-17" cx="920.97" cy="183.75" r="1.24"/><path class="cls-7" d="M905.66,295s-19,2.55-35.31.63c-15.07-1.76-21.09-5.94-22-3.29s0,6,1.32,8.32c2.4,4.22,20.11,9.61,38.64,15.18,13.14,3.95,24.48,7.18,36.85,8.17Z"/><path class="cls-18" d="M987.2,230.56a15.8,15.8,0,0,0-10.33-8.72c8.9-21.76-23.75-23.25-23.75-23.25.47-5-2.41-9.11-6.57-12.36,0,0,5.83,4.2,5.09,15.33,0,0,31.41-2.72,21.76,23.75C973.4,225.31,984.17,225.48,987.2,230.56Z"/><path class="cls-6" d="M951.15,263.22a.49.49,0,0,1,0-.12A.49.49,0,0,0,951.15,263.22Z"/><path class="cls-6" d="M951.09,262.36v0Z"/><path class="cls-6" d="M951.22,264h0Z"/><path class="cls-6" d="M976.42,259.44h.22l.11,0h.06l.55-.09h0a13.39,13.39,0,0,0,8.43-5.55l0,0c.12-.17.23-.35.35-.53h0c-3.3,3.37-12.53,5-12.53,5,.36,10-14.39,12.25-22.33,6.67,0,.24.07.48.12.71l0,.16c0,.19.07.38.11.56s0,.13,0,.19.09.35.13.52,0,.12,0,.17a9.61,9.61,0,0,0,.43,1.28.78.78,0,0,0,0,.14l.2.45.09.18c.07.13.13.26.21.39a1.62,1.62,0,0,0,.1.18,3,3,0,0,0,.24.38l.08.14c.12.17.24.33.37.49l0,.05.35.4.14.14a2.68,2.68,0,0,0,.3.28l.16.15.32.25.16.13.41.27.11.07c.18.11.37.21.56.31l.15.07.45.2.22.09.43.15.24.08.48.13.23.05c.24.06.48.11.74.15,16.07,2.73,17.31-14.34,17.31-14.34h0Z"/><path class="cls-19" d="M929.12,183.75a31.41,31.41,0,0,1,12.13-3.46"/><path class="cls-20" d="M1084.91,304.29c-47.94-8-85-8.49-142.67,31.68,21.92,8.16,49.35,14.58,76.67,11C1045,343.6,1070.49,327.9,1084.91,304.29Z"/><circle class="cls-4" cx="919.73" cy="191.91" r="3.46"/><circle class="cls-4" cx="870.57" cy="155.06" r="0.74"/><circle class="cls-4" cx="872.43" cy="156.54" r="0.74"/><path class="cls-12" d="M848.36,292.33c-.92,2.73,0,6,1.32,8.32a6.36,6.36,0,0,0,1.94,1.89,90.35,90.35,0,0,0,4-9.81C851,291.52,848.87,290.82,848.36,292.33Z"/><path class="cls-5" d="M853.19,262.9c-1.48,2.47-1.29,5.87-.49,8.41a8.68,8.68,0,0,0,1.66,2.79,81,81,0,0,0,5.65-9.05C855.93,262.81,854,261.55,853.19,262.9Z"/><path class="cls-12" d="M873.45,170.91a3.75,3.75,0,0,0,.77,2.46.22.22,0,0,0,.2.1.23.23,0,0,0,.14,0,.24.24,0,0,0,.06-.34,3.12,3.12,0,0,1-.64-2.4,2.69,2.69,0,0,1,1.11-1.57.25.25,0,1,0-.26-.42,3.18,3.18,0,0,0-1.28,1.71,11.55,11.55,0,0,1-6.83-1.47l.65.91a12.12,12.12,0,0,0,5,1.11C872.75,171,873.09,170.94,873.45,170.91Z"/><path class="cls-16" d="M908.85,200.82s-5-2-6.69-2.71a16.52,16.52,0,0,0-1.4,1.46C903.28,199.93,908.07,201.08,908.85,200.82Z"/><path class="cls-3" d="M679.71-59.15s-27.94-3.66-38,6c-8.49,8.1-.46,11-.46,11s-27.93,3.93-31.6,21.07c-2.75,12.82,9.61,14.2,9.61,14.2S609.64,5,608.72,18.72s11,15.11,14.66,14.2c0,0-3.06,23.88,7.78,22.9,5-.46,7.33-16.49,7.79-22,0,0,4.58,18.78,6.87,12.37,2.78-7.78.46-15.12-1.37-19.24S679.71-59.15,679.71-59.15Z"/><path class="cls-4" d="M808.64-4.55S780,29.09,822.49,48.88c0,0,2.62,9.37,6.43,19.29,0,0-1,4.86-2.79,7.39s-3.57,5.24-3.43,6c.26,1.46,8.88,1.71,10.54,1.16A5.22,5.22,0,0,0,835.55,80c2.52-5.65,6.64-13.91,6.32-16.68-.23-2-1.31-20.9-2.07-27.81s5.45-36.11,2-40.07Z"/><path class="cls-5" d="M835.55,80c-2.73-1.44-5.86-3.41-9.51-4.33-1.77,2.49-3.47,5.13-3.34,5.85.26,1.46,8.88,1.71,10.54,1.16A3.86,3.86,0,0,0,835.55,80Z"/><path class="cls-3" d="M830.17-69.91s29.31-18.32,36.18,9.62c0,0,22.22-2.52,24.74,19.69,2.22,19.59-11.45,22.45-11.45,22.45S898.18,7.72,859.25,16C823.63,23.51,830.17-69.91,830.17-69.91Z"/><path class="cls-6" d="M862.31,9.55l-6.84,6.85a19,19,0,0,0,3.78-.43c20.06-4.25,24.86-13.17,24.8-20.83A29,29,0,0,1,862.31,9.55Z"/><path class="cls-6" d="M634,40.47c-1.48,19.76-9.88,9.19-9.9,9.16,1.1,3.75,3.2,6.54,7,6.19s6-9.44,7.09-16.29C636.53,33.94,634.72,31.09,634,40.47Z"/><path class="cls-18" d="M644.9-40.82s-6.78-4-1.83-9.62c6.41-7.33,29.64-7.38,29.64-7.38l.84-1.85c-8.82-.48-24.76-.29-31.85,6.48-8.49,8.1-.46,11-.46,11s-27.93,3.93-31.6,21.07c-2.75,12.82,9.61,14.2,9.61,14.2S609.64,5,608.72,18.72s11,15.11,14.66,14.2a57.66,57.66,0,0,0,0,12.92h0c-.5-5.41,2.34-15.21,2.34-15.21-4.58.91-13.29,1.37-13.74-8.71C611.39,10,622-7.39,622-7.39s-13.43-6-7.78-16.95C621.09-37.62,644.9-40.82,644.9-40.82Z"/><path class="cls-16" d="M747.05,27.73,722,17.06c0,2.45-.1,8.07,0,15a42.28,42.28,0,0,0,19.65,9.63C743.09,35.65,744.84,30.5,747.05,27.73Z"/><path class="cls-4" d="M707.72,13.76s-.61,26.17,1.49,44.52c2,17.31,2.7,20.51,4.45,22.26,1.48,1.48,7.7-.43,8.41-4,1-4.94,3.46-47,12.37-52.43S707.72,13.76,707.72,13.76Z"/><path class="cls-7" d="M707.65,19.18c-25.65,13.38-47.71,6.47-47.71,6.47s13.36,52.15-2,51.92c-13.62-.2-27.26-28-28.68-56.77-1.94-39.52,29.15-67.37,29.15-67.37s43.32-46.91,113.8-42.35c57.68,3.74,90.33,25,98.24,62.52,3.18,15-2.74,83.82-82.21,76.26C737.32,45,707.65,19.18,707.65,19.18Z"/><path class="cls-22" d="M629.24,19.62c0,.39,0,.78,0,1.18a106,106,0,0,0,1.34,12.28c1.44-3.83,5.09-14.14,3.89-17.34C633.9,14.12,631.67,16.38,629.24,19.62Z"/><path class="cls-7" d="M625.89,29.79c3.09,4.26,8.73-14.1,8.73-14.1l-5-4.93s-6.81,14.78-3.72,19"/><circle class="cls-17" cx="635.94" cy="36.65" r="1.24"/><circle class="cls-17" cx="635.45" cy="30.93" r="1.24"/><path class="cls-16" d="M749.62,41.53a84.32,84.32,0,0,1-.48-9c.15-1.91-5.41,3.67-7.63,6C744.08,39.53,746.79,40.55,749.62,41.53Z"/><path class="cls-19" d="M632.27,14.22A31.63,31.63,0,0,0,627.73,26"/><circle class="cls-4" cx="641.44" cy="22.17" r="3.46"/><circle class="cls-4" cx="650.08" cy="70.56" r="0.74"/><circle class="cls-4" cx="649.82" cy="68.2" r="0.74"/><path class="cls-7" d="M725,19.69s-.62,26.18,1.48,44.53c2,17.31,1.22,21,3,22.75,1.48,1.49,9.19-.42,9.89-4,1-4.94,3.47-47.49,12.37-52.93S725,19.69,725,19.69Z"/><path class="cls-5" d="M739.38,83v0c-3.63-1.17-9-2.14-11.4-2.8h0l.06.7v.17c0,.17,0,.34,0,.5s0,.14,0,.2,0,.29,0,.43a1.23,1.23,0,0,0,0,.2l0,.38a1.23,1.23,0,0,1,0,.19c0,.12,0,.24,0,.35a1.11,1.11,0,0,1,0,.17c0,.12,0,.23.05.35a.5.5,0,0,0,0,.12,2.57,2.57,0,0,0,.06.4v0c0,.14.05.27.08.4v0c0,.11,0,.22.07.32l0,.09.06.23a.49.49,0,0,0,0,.11l.06.19,0,.1a.87.87,0,0,0,.07.17l0,.1.08.15a.41.41,0,0,0,0,.09l.08.13a.56.56,0,0,0,0,.08l.1.14.05.06.17.18a2.17,2.17,0,0,0,1.14.46C733.26,87.8,738.79,86,739.38,83Z"/><path class="cls-5" d="M722.07,76.56c-3.43-1-7.75-1.8-10.77-2.46.73,4,1.39,5.47,2.36,6.44,1.48,1.48,7.7-.43,8.41-4Z"/><ellipse class="cls-8" cx="675.33" cy="89.73" rx="13.1" ry="2.68"/><path class="cls-9" d="M664,89.26h22.41s3.69-11.05.71-13.56c-2.47-2.08-5,1.25-5.33,2.19,0,0,2.19-9.87-4.39-10.66-7-.83-6.27,10-6.27,10s-.32-5.65-4.39-4.86S661.21,81.34,664,89.26Z"/><path class="cls-10" d="M676.58,72.56s.47,11.61,0,16.7"/><path class="cls-10" d="M684.88,80.87s-1.61,7.06-2.06,8.39"/><path class="cls-10" d="M666.7,77.27s.38,7.68,1.76,12"/><path class="cls-11" d="M663.09,40.59C670.62,94.39,644.7,69,644.62,69c4,5.21,8.52,8.4,13,8.61a9.59,9.59,0,0,0,2.91-.56C667.46,73.49,665.53,54.46,663.09,40.59Z"/><path class="cls-12" d="M661.92,66.06a.27.27,0,0,0-.19-.3.26.26,0,0,0-.3.19,2.81,2.81,0,0,1-1.24,1.93,3.72,3.72,0,0,1-2.61.3.25.25,0,1,0-.13.48,4.47,4.47,0,0,0,1.1.13,3.91,3.91,0,0,0,1.54-.31,26.8,26.8,0,0,0,3.36,5.28c.08-.16.15-.33.22-.51a26.11,26.11,0,0,1-3.14-5A3.37,3.37,0,0,0,661.92,66.06Z"/><path class="cls-20" d="M765.2,46.05a167.82,167.82,0,0,0,23.06,3.81c22.79,2.17,39.53-2,51.74-9.27-6.08-6.16-19.31-16.43-38.29-14A58,58,0,0,0,765.2,46.05Z"/><path class="cls-16" d="M822.69,18.88s-8.85,14,6.24,26.93a60.58,60.58,0,0,0,19.18-11.07c.13-1.89.1-3.17.1-3.17Z"/><path class="cls-7" d="M830.9-.59s-28.69,33.64,13.85,53.43c0,0,2.62,9.36,6.43,19.29A52.14,52.14,0,0,1,847.4,79c-1.8,2.53-3.56,5.24-3.43,6,.27,1.46,8.88,1.72,10.54,1.16a5.23,5.23,0,0,0,2.31-2.67c2.52-5.66,7.63-13.42,7.31-16.19-.23-2-1.3-20.91-2.06-27.81s5.44-36.11,2-40.07Z"/><path class="cls-12" d="M856.82,83.48c-2.73-1.44-5.86-3.42-9.5-4.34-1.77,2.5-3.48,5.13-3.35,5.85.27,1.46,8.88,1.72,10.54,1.16A3.83,3.83,0,0,0,856.82,83.48Z"/><path class="cls-16" d="M660,25.66c.14,0,1.11.33,2.77.66l-5.46-9.59S658.91,23,660,25.66Z"/><path class="cls-3" d="M679.71,439.85s-27.94-3.66-38,6c-8.49,8.1-.46,11-.46,11s-27.93,3.93-31.6,21.07c-2.75,12.82,9.61,14.2,9.61,14.2s-9.61,11.91-10.53,25.65,11,15.11,14.66,14.2c0,0-3.06,23.88,7.78,22.9,5-.46,7.33-16.49,7.79-22,0,0,4.58,18.78,6.87,12.37,2.78-7.78.46-15.12-1.37-19.24S679.71,439.85,679.71,439.85Z"/><path class="cls-4" d="M808.64,494.45S780,528.09,822.49,547.88c0,0,2.62,9.37,6.43,19.29,0,0-1,4.86-2.79,7.39s-3.57,5.24-3.43,6c.26,1.46,8.88,1.71,10.54,1.16a5.22,5.22,0,0,0,2.31-2.68c2.52-5.65,6.64-13.91,6.32-16.68-.23-2-1.31-20.9-2.07-27.81s5.45-36.11,2-40.07Z"/><path class="cls-5" d="M835.55,579c-2.73-1.44-5.86-3.41-9.51-4.33-1.77,2.49-3.47,5.13-3.34,5.85.26,1.46,8.88,1.71,10.54,1.16A3.86,3.86,0,0,0,835.55,579Z"/><path class="cls-3" d="M830.17,429.09s29.31-18.32,36.18,9.62c0,0,22.22-2.52,24.74,19.69,2.22,19.59-11.45,22.45-11.45,22.45s18.54,25.87-20.39,34.12C823.63,522.51,830.17,429.09,830.17,429.09Z"/><path class="cls-6" d="M862.31,508.55l-6.84,6.85a19,19,0,0,0,3.78-.43c20.06-4.25,24.86-13.17,24.8-20.83A29,29,0,0,1,862.31,508.55Z"/><path class="cls-18" d="M866.35,438.71c-5.15-20.95-22.92-15.89-31.49-12V428s10.42-3,19.12.63c10.3,4.35,10.53,15.58,10.53,15.58s15.34-8,26.3,12.38C887.33,436.33,866.35,438.71,866.35,438.71Z"/><path class="cls-6" d="M634,539.47c-1.48,19.76-9.88,9.19-9.9,9.16,1.1,3.75,3.2,6.54,7,6.19s6-9.44,7.09-16.29C636.53,532.94,634.72,530.09,634,539.47Z"/><path class="cls-18" d="M644.9,458.18s-6.78-4-1.83-9.62c6.41-7.33,29.64-7.38,29.64-7.38l.84-1.85c-8.82-.48-24.76-.29-31.85,6.48-8.49,8.1-.46,11-.46,11s-27.93,3.93-31.6,21.07c-2.75,12.82,9.61,14.2,9.61,14.2s-9.61,11.91-10.53,25.65,11,15.11,14.66,14.2a57.66,57.66,0,0,0,0,12.92h0c-.5-5.41,2.34-15.21,2.34-15.21-4.58.91-13.29,1.37-13.74-8.71C611.39,509,622,491.61,622,491.61s-13.43-6-7.78-16.95C621.09,461.38,644.9,458.18,644.9,458.18Z"/><path class="cls-16" d="M747.05,526.73l-25-10.67c0,2.45-.1,8.07,0,15a42.28,42.28,0,0,0,19.65,9.63C743.09,534.65,744.84,529.5,747.05,526.73Z"/><path class="cls-4" d="M707.72,512.76s-.61,26.17,1.49,44.52c2,17.31,2.7,20.51,4.45,22.26,1.48,1.48,7.7-.43,8.41-4,1-4.94,3.46-47,12.37-52.43S707.72,512.76,707.72,512.76Z"/><path class="cls-7" d="M707.65,518.18c-25.65,13.38-47.71,6.47-47.71,6.47s13.36,52.15-2,51.92c-13.62-.2-27.26-28-28.68-56.77-1.94-39.52,29.15-67.37,29.15-67.37s43.32-46.91,113.8-42.35c57.68,3.74,90.33,25,98.24,62.52,3.18,15-2.74,83.82-82.21,76.26C737.32,544,707.65,518.18,707.65,518.18Z"/><path class="cls-22" d="M629.24,518.62c0,.39,0,.78,0,1.18a106,106,0,0,0,1.34,12.28c1.44-3.83,5.09-14.14,3.89-17.34C633.9,513.12,631.67,515.38,629.24,518.62Z"/><path class="cls-7" d="M625.89,528.79c3.09,4.26,8.73-14.1,8.73-14.1l-5-4.93s-6.81,14.78-3.72,19"/><circle class="cls-17" cx="635.94" cy="535.65" r="1.24"/><circle class="cls-17" cx="635.45" cy="529.93" r="1.24"/><path class="cls-16" d="M749.62,540.53a84.32,84.32,0,0,1-.48-9c.15-1.91-5.41,3.67-7.63,6C744.08,538.53,746.79,539.55,749.62,540.53Z"/><path class="cls-19" d="M632.27,513.22A31.63,31.63,0,0,0,627.73,525"/><circle class="cls-4" cx="641.44" cy="521.17" r="3.46"/><circle class="cls-4" cx="650.08" cy="569.56" r="0.74"/><circle class="cls-4" cx="649.82" cy="567.2" r="0.74"/><path class="cls-7" d="M725,518.69s-.62,26.18,1.48,44.53c2,17.31,1.22,21,3,22.75,1.48,1.49,9.19-.42,9.89-4,1-4.94,3.47-47.49,12.37-52.93S725,518.69,725,518.69Z"/><path class="cls-5" d="M739.38,582v0c-3.63-1.17-9-2.14-11.4-2.8h0l.06.7v.17c0,.17,0,.34,0,.5s0,.14,0,.2,0,.29,0,.43a1.23,1.23,0,0,0,0,.2l0,.38a1.23,1.23,0,0,1,0,.19c0,.12,0,.24,0,.35a1.11,1.11,0,0,1,0,.17c0,.12,0,.23.05.35a.5.5,0,0,0,0,.12,2.57,2.57,0,0,0,.06.4v0c0,.14.05.27.08.4v0c0,.11,0,.22.07.32l0,.09.06.23a.49.49,0,0,0,0,.11l.06.19,0,.1a.87.87,0,0,0,.07.17l0,.1.08.15a.41.41,0,0,0,0,.09l.08.13a.56.56,0,0,0,0,.08l.1.14.05.06.17.18a2.17,2.17,0,0,0,1.14.46C733.26,586.8,738.79,585,739.38,582Z"/><path class="cls-5" d="M722.07,575.56c-3.43-.95-7.75-1.8-10.77-2.46.73,4,1.39,5.47,2.36,6.44,1.48,1.48,7.7-.43,8.41-4Z"/><ellipse class="cls-8" cx="675.33" cy="588.73" rx="13.1" ry="2.68"/><path class="cls-9" d="M664,588.26h22.41s3.69-11,.71-13.56c-2.47-2.08-5,1.25-5.33,2.19,0,0,2.19-9.87-4.39-10.66-7-.83-6.27,10-6.27,10s-.32-5.65-4.39-4.86S661.21,580.34,664,588.26Z"/><path class="cls-10" d="M676.58,571.56s.47,11.61,0,16.7"/><path class="cls-10" d="M684.88,579.87s-1.61,7.06-2.06,8.39"/><path class="cls-10" d="M666.7,576.27s.38,7.68,1.76,12"/><path class="cls-11" d="M663.09,539.59c7.53,53.8-18.39,28.44-18.47,28.36,4,5.21,8.52,8.4,13,8.61a9.59,9.59,0,0,0,2.91-.56C667.46,572.49,665.53,553.46,663.09,539.59Z"/><path class="cls-12" d="M661.92,565.06a.27.27,0,0,0-.19-.3.26.26,0,0,0-.3.19,2.81,2.81,0,0,1-1.24,1.93,3.72,3.72,0,0,1-2.61.3.25.25,0,1,0-.13.48,4.47,4.47,0,0,0,1.1.13,3.91,3.91,0,0,0,1.54-.31,26.8,26.8,0,0,0,3.36,5.28c.08-.16.15-.33.22-.51a26.11,26.11,0,0,1-3.14-5A3.37,3.37,0,0,0,661.92,565.06Z"/><circle class="cls-21" cx="798.99" cy="445.23" r="2.23"/><circle class="cls-21" cx="832.14" cy="429.9" r="2.23"/><circle class="cls-21" cx="819.27" cy="446.72" r="2.72"/><circle class="cls-21" cx="823.23" cy="469.47" r="1.24"/><circle class="cls-21" cx="769.31" cy="435.83" r="1.73"/><circle class="cls-21" cx="798.99" cy="422.97" r="2.72"/><circle class="cls-21" cx="850.69" cy="454.88" r="3.46"/><path class="cls-20" d="M765.2,545.05a167.82,167.82,0,0,0,23.06,3.81c22.79,2.17,39.53-2,51.74-9.27-6.08-6.16-19.31-16.43-38.29-14A58,58,0,0,0,765.2,545.05Z"/><path class="cls-16" d="M822.69,517.88s-8.85,14,6.24,26.93a60.58,60.58,0,0,0,19.18-11.07c.13-1.89.1-3.17.1-3.17Z"/><path class="cls-7" d="M830.9,498.41s-28.69,33.64,13.85,53.43c0,0,2.62,9.36,6.43,19.29A52.14,52.14,0,0,1,847.4,578c-1.8,2.53-3.56,5.24-3.43,6,.27,1.46,8.88,1.72,10.54,1.16a5.23,5.23,0,0,0,2.31-2.67c2.52-5.66,7.63-13.42,7.31-16.19-.23-2-1.3-20.91-2.06-27.81s5.44-36.11,2-40.07Z"/><path class="cls-12" d="M856.82,582.48c-2.73-1.44-5.86-3.42-9.5-4.34-1.77,2.5-3.48,5.13-3.35,5.85.27,1.46,8.88,1.72,10.54,1.16A3.83,3.83,0,0,0,856.82,582.48Z"/><path class="cls-16" d="M660,524.66c.14,0,1.11.33,2.77.66l-5.46-9.59S658.91,522,660,524.66Z"/><path class="cls-7" d="M714.74,226.67c-.66.3-4.33,3.14-4.6,2.54l-1.72-3.81c-.86-1.9.58-4.4,3.21-5.6s5.47-.61,6.33,1.28l1.72,3.82C720.16,226,716.06,226.08,714.74,226.67Z"/><ellipse class="cls-23" cx="714.91" cy="227.06" rx="5.24" ry="3.77" transform="translate(-30.06 314.67) rotate(-24.33)"/><line class="cls-24" x1="714.48" y1="227.98" x2="722.59" y2="242.16"/><path class="cls-7" d="M723.4,244.82c-.66.3-4.33,3.13-4.59,2.54l-1.73-3.82c-.86-1.9.58-4.4,3.22-5.59s5.46-.62,6.32,1.28l1.73,3.81C728.83,244.11,724.72,244.22,723.4,244.82Z"/><ellipse class="cls-23" cx="723.58" cy="245.2" rx="5.24" ry="3.77" transform="translate(-36.76 319.85) rotate(-24.33)"/><path class="cls-7" d="M765.71,270.28c-.66.3-4.33,3.13-4.6,2.54L759.39,269c-.86-1.9.58-4.4,3.21-5.59s5.47-.62,6.33,1.28l1.72,3.81C771.13,269.57,767,269.68,765.71,270.28Z"/><ellipse class="cls-23" cx="765.88" cy="270.66" rx="5.24" ry="3.77" transform="translate(-43.49 339.53) rotate(-24.33)"/><polygon class="cls-20" points="768.71 277.43 766.47 272.46 776.76 272.87 779 277.83 768.71 277.43"/><polygon class="cls-20" points="716.5 232.15 719.25 236.85 724.88 228.23 722.14 223.52 716.5 232.15"/><line class="cls-24" x1="765.45" y1="271.59" x2="773.56" y2="285.76"/><path class="cls-3" d="M717.86,217.15s-4.68,1.5-1.75,8,17.84,23.19,30.06,31.92c3.21,2.3,38,31.66,48.4,23S717.86,217.15,717.86,217.15Z"/><path class="cls-25" d="M761.07,240.2c-10.38-7.72-41-29.72-44.32-21.79-5.29,12.68,71.21,73.9,78.8,60.44C799.38,272.06,774.87,250.45,761.07,240.2Z"/><path class="cls-7" d="M773,285.37c-.66.3-4.33,3.14-4.6,2.54l-1.72-3.82c-.86-1.89.58-4.4,3.22-5.59s5.46-.62,6.32,1.28l1.72,3.82C778.42,284.66,774.31,284.78,773,285.37Z"/><ellipse class="cls-23" cx="773.16" cy="285.75" rx="5.24" ry="3.77" transform="translate(-49.06 343.88) rotate(-24.33)"/><path class="cls-9" d="M785.79,279.63l-34.07-46.17-2-1.42L755,250.19l-21.66-28.43a62,62,0,0,0-8.22-3.88L762,266.31l2.54,1.74-4.9-16.86,18.5,25.07A56.74,56.74,0,0,0,785.79,279.63Z"/><ellipse class="cls-20" cx="723.58" cy="245.2" rx="1.47" ry="1.06" transform="translate(-36.76 319.85) rotate(-24.33)"/><ellipse class="cls-20" cx="773.16" cy="285.75" rx="1.47" ry="1.06" transform="translate(-49.06 343.88) rotate(-24.33)"/><rect class="cls-1" x="500.5" y="0.5" width="500" height="500"/></g><g class="cls-28"><rect class="cls-14" x="0.5" y="0.5" width="500" height="500"/><path class="cls-4" d="M47.09,276.06S88.86,289.18,92,246.44c0,0,7.23-2.66,7.9-7.95,0,0,9.91,6.62,11.34,6.24s1-10,.3-11.58S95.68,224.26,92,225c-2,.37-19,7.52-25.83,8.79s-15-.68-21.1,1.42Z"/><path class="cls-15" d="M108.71,231a52.33,52.33,0,0,0-3.54,10.79c2.62,1.58,5.38,3.09,6.08,2.9,1.44-.37,1-10,.3-11.58A8.55,8.55,0,0,0,108.71,231Z"/><path class="cls-3" d="M72.44,237.91s-3.81-15.54,5.68-25.25c7.77-7.95,14.6-7,14.6-7s.57-12.7,11.12-17.4c7.36-3.27,13.59-2.72,16.43.67,0,0,17.69-15.4,28.8-.75,4.73,6.23,7,25.28-19.73,26,0,0,5.59,14.94-9.35,20.53s-22.3-1.81-22.3-1.81-2.84,7.29-19.89,8.29Z"/><path class="cls-6" d="M97.69,232.92s7.36,7.4,22.3,1.81,9.35-20.53,9.35-20.53c11.94-.34,18.09-4.33,20.83-9.19h0c-6.27,6.92-24.4,6.44-24.4,6.44s2,14.84-7.92,19.79S96.33,229,96.33,229c-2.47,7.91-17.81,9.89-17.81,9.89l.65,2.2C95,239.81,97.69,232.92,97.69,232.92Z"/><path class="cls-7" d="M-97.83,198.1s-13.64,11.93-16.82,46.5c-3.71,40.32,11.38,68.76,11.38,68.76S-41.93,354.91,18.91,347c30.89-4,60.85-25.23,72.72-56.4s-13.35-74.2-56.39-70.74c-16.38,1.32-30.67,7.42-46,16.82A256.73,256.73,0,0,1-42.92,253.5s2.47-45-29.19-73.71c-23.08-20.91-51.93-34.64-62.33-24.24C-147.3,168.42-97.83,198.1-97.83,198.1Z"/><path class="cls-16" d="M91.63,290.6a43.85,43.85,0,0,0,1.81-6l-28.77,4.29c8,9.47,17.91,10.33,23.08,10.39A81.26,81.26,0,0,0,91.63,290.6Z"/><path class="cls-7" d="M64.43,289.12s37.1,23.25,50.95-17.31c0,0,7.67-.75,9.64-5.69,0,0,7.92,8.9,9.4,8.9s3.47-9.4,3.22-11.13S124.53,251.28,120.82,251c-2-.13-20.28,2.47-27.21,2s-14.34-4.45-20.78-4Z"/><path class="cls-18" d="M122.06,191.91a14.32,14.32,0,0,1,4-5.44,24.55,24.55,0,0,1,8.64-4.46h0c-10.12,1-14.38,6.89-14.38,6.89-2.84-3.39-9.07-3.94-16.43-.67-10.55,4.7-11.12,17.4-11.12,17.4s-6.83-.92-14.6,7a20.13,20.13,0,0,0-2,2.45c.48-.37,8.37-8.36,18.26-7.86C94.35,207.25,98.31,181.53,122.06,191.91Z"/><path class="cls-20" d="M84.91,304.29C37,296.29-.13,295.8-57.76,336c21.92,8.16,49.35,14.58,76.67,11C45,343.6,70.49,327.9,84.91,304.29Z"/><path class="cls-12" d="M135.42,261.13a52.39,52.39,0,0,0-6.15,9.55c2.14,2.19,4.42,4.34,5.15,4.34,1.49,0,3.47-9.4,3.22-11.13A8.67,8.67,0,0,0,135.42,261.13Z"/><circle class="cls-21" cx="23.86" cy="253.5" r="2.23"/><circle class="cls-21" cx="49.09" cy="226.79" r="2.23"/><circle class="cls-21" cx="42.66" cy="239.16" r="2.72"/><circle class="cls-21" cx="41.17" cy="254.49" r="1.24"/><circle class="cls-21" cx="2.59" cy="240.15" r="1.73"/><circle class="cls-21" cx="26.83" cy="233.72" r="2.72"/><circle class="cls-21" cx="63.19" cy="236.93" r="3.46"/><path class="cls-12" d="M421,174.4s15.33-4.66,19.29-1.7-14.84,6.35-14.84,6.35Z"/><path class="cls-3" d="M422.7,176.08s31.9,6.68,30.42,22.51c0,0,32.65,1.49,23.75,23.25,0,0,12.86,2.48,12.36,19.79s-12.86,17.81-12.86,17.81-1.24,17.07-17.31,14.34c-17.73-3-1.13-34.32-13.11-61.58C433.61,184.13,422.7,176.08,422.7,176.08Z"/><path class="cls-4" d="M547.09,276.06s41.77,13.12,44.92-29.62c0,0,7.23-2.66,7.9-7.95,0,0,9.91,6.62,11.34,6.24s1-10,.3-11.58S595.68,224.26,592,225c-1.95.37-19,7.52-25.83,8.79s-15-.68-21.1,1.42Z"/><path class="cls-15" d="M608.71,231a52.33,52.33,0,0,0-3.54,10.79c2.62,1.58,5.38,3.09,6.08,2.9,1.44-.37,1-10,.3-11.58A8.55,8.55,0,0,0,608.71,231Z"/><path class="cls-4" d="M411.07,275.76c-10.88,1.49-21.55.91-37.1-4.45-14.34-4.95-19.34-10.81-20.78-8.41s-1.29,5.87-.49,8.41c2.47,7.92,30.67,23.25,55.9,24.74"/><path class="cls-3" d="M572.44,237.91s-3.81-15.54,5.68-25.25c7.77-7.95,14.6-7,14.6-7s.57-12.7,11.12-17.4c7.36-3.27,13.59-2.72,16.43.67,0,0,17.69-15.4,28.8-.75,4.73,6.23,7,25.28-19.73,26,0,0,5.59,14.94-9.35,20.53s-22.3-1.81-22.3-1.81-2.84,7.29-19.89,8.29Z"/><path class="cls-6" d="M597.69,232.92s7.36,7.4,22.3,1.81,9.35-20.53,9.35-20.53c11.94-.34,18.09-4.33,20.83-9.19h0c-6.27,6.92-24.4,6.44-24.4,6.44s2,14.84-7.92,19.79S596.33,229,596.33,229c-2.47,7.91-17.81,9.89-17.81,9.89l.65,2.2C595,239.81,597.69,232.92,597.69,232.92Z"/><path class="cls-7" d="M402.17,198.1S388.53,210,385.35,244.6c-3.71,40.32,11.38,68.76,11.38,68.76S458.07,354.91,518.91,347c30.89-4,60.85-25.23,72.72-56.4s-13.35-74.2-56.39-70.74c-16.38,1.32-30.67,7.42-46,16.82a256.73,256.73,0,0,1-32.15,16.82s2.47-45-29.19-73.71c-23.08-20.91-51.93-34.64-62.33-24.24C352.7,168.42,402.17,198.1,402.17,198.1Z"/><path class="cls-3" d="M434.09,179.55c9,3.46,19.91,9.63,19,19,0,0,32.65,1.49,23.75,23.25,0,0,12.86,2.48,12.36,19.79s-12.86,17.81-12.86,17.81-1.24,17.07-17.31,14.34c-17.73-3,1.32-36.43-10.66-63.69-6.47-14.7-13.21-23.33-18.17-28.22"/><path class="cls-7" d="M425.91,180.78s15.34-5.44,19.3-2-14.84,7.43-14.84,7.43Z"/><path class="cls-16" d="M425.17,324l-18.92-4.84h0c3.46,2,7.76,4.3,12.77,6.77A20.74,20.74,0,0,0,425.17,324Z"/><circle class="cls-17" cx="417.01" cy="178.31" r="1.24"/><circle class="cls-17" cx="420.97" cy="183.75" r="1.24"/><path class="cls-7" d="M405.66,295s-19,2.55-35.31.63c-15.07-1.76-21.09-5.94-22-3.29s0,6,1.32,8.32c2.4,4.22,20.11,9.61,38.64,15.18,13.14,3.95,24.48,7.18,36.85,8.17Z"/><path class="cls-16" d="M591.63,290.6a43.85,43.85,0,0,0,1.81-6l-28.77,4.29c8.05,9.47,17.91,10.33,23.08,10.39A81.26,81.26,0,0,0,591.63,290.6Z"/><path class="cls-7" d="M564.43,289.12s37.1,23.25,51-17.31c0,0,7.67-.75,9.64-5.69,0,0,7.92,8.9,9.4,8.9s3.47-9.4,3.22-11.13S624.53,251.28,620.82,251c-2-.13-20.28,2.47-27.21,2s-14.34-4.45-20.78-4Z"/><path class="cls-18" d="M622.06,191.91a14.32,14.32,0,0,1,4-5.44,24.55,24.55,0,0,1,8.64-4.46h0c-10.12,1-14.38,6.89-14.38,6.89-2.84-3.39-9.07-3.94-16.43-.67-10.55,4.7-11.12,17.4-11.12,17.4s-6.83-.92-14.6,7a20.13,20.13,0,0,0-2,2.45c.48-.37,8.37-8.36,18.26-7.86C594.35,207.25,598.31,181.53,622.06,191.91Z"/><path class="cls-18" d="M487.2,230.56a15.8,15.8,0,0,0-10.33-8.72c8.9-21.76-23.75-23.25-23.75-23.25.47-5-2.41-9.11-6.57-12.36,0,0,5.83,4.2,5.09,15.33,0,0,31.41-2.72,21.76,23.75C473.4,225.31,484.17,225.48,487.2,230.56Z"/><path class="cls-6" d="M451.15,263.22a.49.49,0,0,1,0-.12A.49.49,0,0,0,451.15,263.22Z"/><path class="cls-6" d="M451.09,262.36v0Z"/><path class="cls-6" d="M451.22,264h0Z"/><path class="cls-6" d="M476.42,259.44h.22l.11,0h.06l.55-.09h0a13.39,13.39,0,0,0,8.43-5.55l0,0c.12-.17.23-.35.35-.53h0c-3.3,3.37-12.53,5-12.53,5,.36,10-14.39,12.25-22.33,6.67,0,.24.07.48.12.71l0,.16c0,.19.07.38.11.56s0,.13,0,.19.09.35.13.52,0,.12.05.17a9.61,9.61,0,0,0,.43,1.28.78.78,0,0,0,0,.14l.2.45.09.18c.07.13.13.26.21.39a1.62,1.62,0,0,0,.1.18,3,3,0,0,0,.24.38l.08.14c.12.17.24.33.37.49l0,.05.35.4.14.14a2.68,2.68,0,0,0,.3.28l.16.15.32.25.16.13.41.27.11.07c.18.11.37.21.56.31l.15.07.45.2.22.09.43.15.24.08.48.13.23.05c.24.06.48.11.74.15,16.07,2.73,17.31-14.34,17.31-14.34h.05Z"/><path class="cls-19" d="M429.12,183.75a31.41,31.41,0,0,1,12.13-3.46"/><path class="cls-20" d="M584.91,304.29c-47.94-8-85-8.49-142.67,31.68,21.92,8.16,49.35,14.58,76.67,11C545,343.6,570.49,327.9,584.91,304.29Z"/><circle class="cls-4" cx="419.73" cy="191.91" r="3.46"/><circle class="cls-4" cx="370.57" cy="155.06" r="0.74"/><circle class="cls-4" cx="372.43" cy="156.54" r="0.74"/><path class="cls-12" d="M635.42,261.13a52.39,52.39,0,0,0-6.15,9.55c2.14,2.19,4.42,4.34,5.15,4.34,1.49,0,3.47-9.4,3.22-11.13A8.67,8.67,0,0,0,635.42,261.13Z"/><path class="cls-12" d="M348.36,292.33c-.92,2.73,0,6,1.32,8.32a6.36,6.36,0,0,0,1.94,1.89,90.35,90.35,0,0,0,4-9.81C351,291.52,348.87,290.82,348.36,292.33Z"/><path class="cls-5" d="M353.19,262.9c-1.48,2.47-1.29,5.87-.49,8.41a8.68,8.68,0,0,0,1.66,2.79,81,81,0,0,0,5.65-9.05C355.93,262.81,354,261.55,353.19,262.9Z"/><path class="cls-12" d="M373.45,170.91a3.75,3.75,0,0,0,.77,2.46.22.22,0,0,0,.2.1.23.23,0,0,0,.14,0,.24.24,0,0,0,.06-.34,3.12,3.12,0,0,1-.64-2.4,2.69,2.69,0,0,1,1.11-1.57.25.25,0,0,0-.26-.42,3.18,3.18,0,0,0-1.28,1.71,11.55,11.55,0,0,1-6.83-1.47l.65.91a12.12,12.12,0,0,0,5.05,1.11C372.75,171,373.09,170.94,373.45,170.91Z"/><circle class="cls-21" cx="523.86" cy="253.5" r="2.23"/><circle class="cls-21" cx="549.09" cy="226.79" r="2.23"/><circle class="cls-21" cx="542.66" cy="239.16" r="2.72"/><circle class="cls-21" cx="541.17" cy="254.49" r="1.24"/><circle class="cls-21" cx="502.59" cy="240.15" r="1.73"/><circle class="cls-21" cx="526.83" cy="233.72" r="2.72"/><circle class="cls-21" cx="563.19" cy="236.93" r="3.46"/><path class="cls-16" d="M408.85,200.82s-5-2-6.69-2.71a16.52,16.52,0,0,0-1.4,1.46C403.28,199.93,408.07,201.08,408.85,200.82Z"/><path class="cls-3" d="M179.71-59.15s-27.94-3.66-38,6c-8.49,8.1-.46,11-.46,11s-27.93,3.93-31.6,21.07c-2.75,12.82,9.61,14.2,9.61,14.2S109.64,5,108.72,18.72s11,15.11,14.66,14.2c0,0-3.06,23.88,7.78,22.9,5-.46,7.33-16.49,7.79-22,0,0,4.58,18.78,6.87,12.37,2.78-7.78.46-15.12-1.37-19.24S179.71-59.15,179.71-59.15Z"/><path class="cls-4" d="M308.64-4.55S280,29.09,322.49,48.88c0,0,2.62,9.37,6.43,19.29,0,0-1,4.86-2.79,7.39s-3.57,5.24-3.43,6c.26,1.46,8.88,1.71,10.54,1.16A5.22,5.22,0,0,0,335.55,80c2.52-5.65,6.64-13.91,6.32-16.68-.23-2-1.31-20.9-2.07-27.81s5.45-36.11,2-40.07Z"/><path class="cls-5" d="M335.55,80c-2.73-1.44-5.86-3.41-9.51-4.33-1.77,2.49-3.47,5.13-3.34,5.85.26,1.46,8.88,1.71,10.54,1.16A3.86,3.86,0,0,0,335.55,80Z"/><path class="cls-3" d="M330.17-69.91s29.31-18.32,36.18,9.62c0,0,22.22-2.52,24.74,19.69,2.22,19.59-11.45,22.45-11.45,22.45S398.18,7.72,359.25,16C323.63,23.51,330.17-69.91,330.17-69.91Z"/><path class="cls-6" d="M362.31,9.55l-6.84,6.85a19,19,0,0,0,3.78-.43c20.06-4.25,24.86-13.17,24.8-20.83A29,29,0,0,1,362.31,9.55Z"/><path class="cls-6" d="M134,40.47c-1.48,19.76-9.88,9.19-9.9,9.16,1.1,3.75,3.2,6.54,7,6.19s6-9.44,7.09-16.29C136.53,33.94,134.72,31.09,134,40.47Z"/><path class="cls-18" d="M144.9-40.82s-6.78-4-1.83-9.62c6.41-7.33,29.64-7.38,29.64-7.38l.84-1.85c-8.82-.48-24.76-.29-31.85,6.48-8.49,8.1-.46,11-.46,11s-27.93,3.93-31.6,21.07c-2.75,12.82,9.61,14.2,9.61,14.2S109.64,5,108.72,18.72s11,15.11,14.66,14.2a57.66,57.66,0,0,0,0,12.92h0c-.5-5.41,2.34-15.21,2.34-15.21-4.58.91-13.29,1.37-13.74-8.71C111.39,10,122-7.39,122-7.39s-13.43-6-7.78-16.95C121.09-37.62,144.9-40.82,144.9-40.82Z"/><path class="cls-16" d="M247.05,27.73,222,17.06c0,2.45-.1,8.07,0,15a42.28,42.28,0,0,0,19.65,9.63C243.09,35.65,244.84,30.5,247.05,27.73Z"/><path class="cls-4" d="M207.72,13.76s-.61,26.17,1.49,44.52c2,17.31,2.7,20.51,4.45,22.26,1.48,1.48,7.7-.43,8.41-4,1-4.94,3.46-47,12.37-52.43S207.72,13.76,207.72,13.76Z"/><path class="cls-7" d="M207.65,19.18c-25.65,13.38-47.71,6.47-47.71,6.47s13.36,52.15-2,51.92c-13.62-.2-27.26-28-28.68-56.77-1.94-39.52,29.15-67.37,29.15-67.37s43.32-46.91,113.8-42.35c57.68,3.74,90.33,25,98.24,62.52,3.18,15-2.74,83.82-82.21,76.26C237.32,45,207.65,19.18,207.65,19.18Z"/><path class="cls-22" d="M129.24,19.62c0,.39,0,.78,0,1.18a106,106,0,0,0,1.34,12.28c1.44-3.83,5.09-14.14,3.89-17.34C133.9,14.12,131.67,16.38,129.24,19.62Z"/><path class="cls-7" d="M125.89,29.79c3.09,4.26,8.73-14.1,8.73-14.1l-5-4.93s-6.81,14.78-3.72,19"/><circle class="cls-17" cx="135.94" cy="36.65" r="1.24"/><circle class="cls-17" cx="135.45" cy="30.93" r="1.24"/><path class="cls-16" d="M249.62,41.53a84.32,84.32,0,0,1-.48-9c.15-1.91-5.41,3.67-7.63,6C244.08,39.53,246.79,40.55,249.62,41.53Z"/><path class="cls-19" d="M132.27,14.22A31.63,31.63,0,0,0,127.73,26"/><circle class="cls-4" cx="141.44" cy="22.17" r="3.46"/><circle class="cls-4" cx="150.08" cy="70.56" r="0.74"/><circle class="cls-4" cx="149.82" cy="68.2" r="0.74"/><path class="cls-7" d="M225,19.69s-.62,26.18,1.48,44.53c2,17.31,1.22,21,3,22.75,1.48,1.49,9.19-.42,9.89-4,1-4.94,3.47-47.49,12.37-52.93S225,19.69,225,19.69Z"/><path class="cls-5" d="M239.38,83v0c-3.63-1.17-9-2.14-11.4-2.8h0l.06.7v.17c0,.17,0,.34,0,.5s0,.14,0,.2,0,.29,0,.43a1.23,1.23,0,0,0,0,.2l0,.38a1.23,1.23,0,0,1,0,.19c0,.12,0,.24,0,.35a1.11,1.11,0,0,1,0,.17c0,.12,0,.23.05.35a.5.5,0,0,0,0,.12,2.57,2.57,0,0,0,.06.4v0c0,.14.05.27.08.4v0c0,.11.05.22.07.32l0,.09.06.23a.49.49,0,0,0,0,.11l.06.19,0,.1a.87.87,0,0,0,.07.17l0,.1.08.15a.41.41,0,0,0,0,.09l.08.13a.56.56,0,0,0,0,.08l.1.14,0,.06.17.18a2.17,2.17,0,0,0,1.14.46C233.26,87.8,238.79,86,239.38,83Z"/><path class="cls-5" d="M222.07,76.56c-3.43-1-7.75-1.8-10.77-2.46.73,4,1.39,5.47,2.36,6.44,1.48,1.48,7.7-.43,8.41-4Z"/><ellipse class="cls-8" cx="175.33" cy="89.73" rx="13.1" ry="2.68"/><path class="cls-9" d="M164,89.26h22.41s3.69-11.05.71-13.56c-2.47-2.08-5,1.25-5.33,2.19,0,0,2.19-9.87-4.39-10.66-7-.83-6.27,10-6.27,10s-.32-5.65-4.39-4.86S161.21,81.34,164,89.26Z"/><path class="cls-10" d="M176.58,72.56s.47,11.61,0,16.7"/><path class="cls-10" d="M184.88,80.87s-1.61,7.06-2.06,8.39"/><path class="cls-10" d="M166.7,77.27s.38,7.68,1.76,12"/><path class="cls-11" d="M163.09,40.59C170.62,94.39,144.7,69,144.62,69c4,5.21,8.52,8.4,13,8.61a9.59,9.59,0,0,0,2.91-.56C167.46,73.49,165.53,54.46,163.09,40.59Z"/><path class="cls-12" d="M161.92,66.06a.27.27,0,0,0-.19-.3.26.26,0,0,0-.3.19,2.81,2.81,0,0,1-1.24,1.93,3.72,3.72,0,0,1-2.61.3.25.25,0,1,0-.13.48,4.47,4.47,0,0,0,1.1.13,3.91,3.91,0,0,0,1.54-.31,26.8,26.8,0,0,0,3.36,5.28c.08-.16.15-.33.22-.51a26.11,26.11,0,0,1-3.14-5A3.37,3.37,0,0,0,161.92,66.06Z"/><path class="cls-20" d="M265.2,46.05a167.82,167.82,0,0,0,23.06,3.81c22.79,2.17,39.53-2,51.74-9.27-6.08-6.16-19.31-16.43-38.29-14A58,58,0,0,0,265.2,46.05Z"/><path class="cls-16" d="M322.69,18.88s-8.85,14,6.24,26.93a60.58,60.58,0,0,0,19.18-11.07c.13-1.89.1-3.17.1-3.17Z"/><path class="cls-7" d="M330.9-.59s-28.69,33.64,13.85,53.43c0,0,2.62,9.36,6.43,19.29A52.14,52.14,0,0,1,347.4,79c-1.8,2.53-3.56,5.24-3.43,6,.27,1.46,8.88,1.72,10.54,1.16a5.23,5.23,0,0,0,2.31-2.67c2.52-5.66,7.63-13.42,7.31-16.19-.23-2-1.3-20.91-2.06-27.81s5.44-36.11,2-40.07Z"/><path class="cls-12" d="M356.82,83.48c-2.73-1.44-5.86-3.42-9.5-4.34-1.77,2.5-3.48,5.13-3.35,5.85.27,1.46,8.88,1.72,10.54,1.16A3.83,3.83,0,0,0,356.82,83.48Z"/><path class="cls-16" d="M160,25.66c.14,0,1.11.33,2.77.66l-5.46-9.59S158.91,23,160,25.66Z"/><path class="cls-3" d="M179.71,439.85s-27.94-3.66-38,6c-8.49,8.1-.46,11-.46,11s-27.93,3.93-31.6,21.07c-2.75,12.82,9.61,14.2,9.61,14.2s-9.61,11.91-10.53,25.65,11,15.11,14.66,14.2c0,0-3.06,23.88,7.78,22.9,5-.46,7.33-16.49,7.79-22,0,0,4.58,18.78,6.87,12.37,2.78-7.78.46-15.12-1.37-19.24S179.71,439.85,179.71,439.85Z"/><path class="cls-4" d="M308.64,494.45S280,528.09,322.49,547.88c0,0,2.62,9.37,6.43,19.29,0,0-1,4.86-2.79,7.39s-3.57,5.24-3.43,6c.26,1.46,8.88,1.71,10.54,1.16a5.22,5.22,0,0,0,2.31-2.68c2.52-5.65,6.64-13.91,6.32-16.68-.23-2-1.31-20.9-2.07-27.81s5.45-36.11,2-40.07Z"/><path class="cls-5" d="M335.55,579c-2.73-1.44-5.86-3.41-9.51-4.33-1.77,2.49-3.47,5.13-3.34,5.85.26,1.46,8.88,1.71,10.54,1.16A3.86,3.86,0,0,0,335.55,579Z"/><path class="cls-3" d="M330.17,429.09s29.31-18.32,36.18,9.62c0,0,22.22-2.52,24.74,19.69,2.22,19.59-11.45,22.45-11.45,22.45s18.54,25.87-20.39,34.12C323.63,522.51,330.17,429.09,330.17,429.09Z"/><path class="cls-6" d="M362.31,508.55l-6.84,6.85a19,19,0,0,0,3.78-.43c20.06-4.25,24.86-13.17,24.8-20.83A29,29,0,0,1,362.31,508.55Z"/><path class="cls-18" d="M366.35,438.71c-5.15-20.95-22.92-15.89-31.49-12V428s10.42-3,19.12.63c10.3,4.35,10.53,15.58,10.53,15.58s15.34-8,26.3,12.38C387.33,436.33,366.35,438.71,366.35,438.71Z"/><path class="cls-6" d="M134,539.47c-1.48,19.76-9.88,9.19-9.9,9.16,1.1,3.75,3.2,6.54,7,6.19s6-9.44,7.09-16.29C136.53,532.94,134.72,530.09,134,539.47Z"/><path class="cls-18" d="M144.9,458.18s-6.78-4-1.83-9.62c6.41-7.33,29.64-7.38,29.64-7.38l.84-1.85c-8.82-.48-24.76-.29-31.85,6.48-8.49,8.1-.46,11-.46,11s-27.93,3.93-31.6,21.07c-2.75,12.82,9.61,14.2,9.61,14.2s-9.61,11.91-10.53,25.65,11,15.11,14.66,14.2a57.66,57.66,0,0,0,0,12.92h0c-.5-5.41,2.34-15.21,2.34-15.21-4.58.91-13.29,1.37-13.74-8.71C111.39,509,122,491.61,122,491.61s-13.43-6-7.78-16.95C121.09,461.38,144.9,458.18,144.9,458.18Z"/><path class="cls-16" d="M247.05,526.73l-25-10.67c0,2.45-.1,8.07,0,15a42.28,42.28,0,0,0,19.65,9.63C243.09,534.65,244.84,529.5,247.05,526.73Z"/><path class="cls-4" d="M207.72,512.76s-.61,26.17,1.49,44.52c2,17.31,2.7,20.51,4.45,22.26,1.48,1.48,7.7-.43,8.41-4,1-4.94,3.46-47,12.37-52.43S207.72,512.76,207.72,512.76Z"/><path class="cls-7" d="M207.65,518.18c-25.65,13.38-47.71,6.47-47.71,6.47s13.36,52.15-2,51.92c-13.62-.2-27.26-28-28.68-56.77-1.94-39.52,29.15-67.37,29.15-67.37s43.32-46.91,113.8-42.35c57.68,3.74,90.33,25,98.24,62.52,3.18,15-2.74,83.82-82.21,76.26C237.32,544,207.65,518.18,207.65,518.18Z"/><path class="cls-22" d="M129.24,518.62c0,.39,0,.78,0,1.18a106,106,0,0,0,1.34,12.28c1.44-3.83,5.09-14.14,3.89-17.34C133.9,513.12,131.67,515.38,129.24,518.62Z"/><path class="cls-7" d="M125.89,528.79c3.09,4.26,8.73-14.1,8.73-14.1l-5-4.93s-6.81,14.78-3.72,19"/><circle class="cls-17" cx="135.94" cy="535.65" r="1.24"/><circle class="cls-17" cx="135.45" cy="529.93" r="1.24"/><path class="cls-16" d="M249.62,540.53a84.32,84.32,0,0,1-.48-9c.15-1.91-5.41,3.67-7.63,6C244.08,538.53,246.79,539.55,249.62,540.53Z"/><path class="cls-19" d="M132.27,513.22A31.63,31.63,0,0,0,127.73,525"/><circle class="cls-4" cx="141.44" cy="521.17" r="3.46"/><circle class="cls-4" cx="150.08" cy="569.56" r="0.74"/><circle class="cls-4" cx="149.82" cy="567.2" r="0.74"/><path class="cls-7" d="M225,518.69s-.62,26.18,1.48,44.53c2,17.31,1.22,21,3,22.75,1.48,1.49,9.19-.42,9.89-4,1-4.94,3.47-47.49,12.37-52.93S225,518.69,225,518.69Z"/><path class="cls-5" d="M239.38,582v0c-3.63-1.17-9-2.14-11.4-2.8h0l.06.7v.17c0,.17,0,.34,0,.5s0,.14,0,.2,0,.29,0,.43a1.23,1.23,0,0,0,0,.2l0,.38a1.23,1.23,0,0,1,0,.19c0,.12,0,.24,0,.35a1.11,1.11,0,0,1,0,.17c0,.12,0,.23.05.35a.5.5,0,0,0,0,.12,2.57,2.57,0,0,0,.06.4v0c0,.14.05.27.08.4v0c0,.11.05.22.07.32l0,.09.06.23a.49.49,0,0,0,0,.11l.06.19,0,.1a.87.87,0,0,0,.07.17l0,.1.08.15a.41.41,0,0,0,0,.09l.08.13a.56.56,0,0,0,0,.08l.1.14,0,.06.17.18a2.17,2.17,0,0,0,1.14.46C233.26,586.8,238.79,585,239.38,582Z"/><path class="cls-5" d="M222.07,575.56c-3.43-.95-7.75-1.8-10.77-2.46.73,4,1.39,5.47,2.36,6.44,1.48,1.48,7.7-.43,8.41-4Z"/><ellipse class="cls-8" cx="175.33" cy="588.73" rx="13.1" ry="2.68"/><path class="cls-9" d="M164,588.26h22.41s3.69-11,.71-13.56c-2.47-2.08-5,1.25-5.33,2.19,0,0,2.19-9.87-4.39-10.66-7-.83-6.27,10-6.27,10s-.32-5.65-4.39-4.86S161.21,580.34,164,588.26Z"/><path class="cls-10" d="M176.58,571.56s.47,11.61,0,16.7"/><path class="cls-10" d="M184.88,579.87s-1.61,7.06-2.06,8.39"/><path class="cls-10" d="M166.7,576.27s.38,7.68,1.76,12"/><path class="cls-11" d="M163.09,539.59c7.53,53.8-18.39,28.44-18.47,28.36,4,5.21,8.52,8.4,13,8.61a9.59,9.59,0,0,0,2.91-.56C167.46,572.49,165.53,553.46,163.09,539.59Z"/><path class="cls-12" d="M161.92,565.06a.27.27,0,0,0-.19-.3.26.26,0,0,0-.3.19,2.81,2.81,0,0,1-1.24,1.93,3.72,3.72,0,0,1-2.61.3.25.25,0,1,0-.13.48,4.47,4.47,0,0,0,1.1.13,3.91,3.91,0,0,0,1.54-.31,26.8,26.8,0,0,0,3.36,5.28c.08-.16.15-.33.22-.51a26.11,26.11,0,0,1-3.14-5A3.37,3.37,0,0,0,161.92,565.06Z"/><circle class="cls-21" cx="298.99" cy="445.23" r="2.23"/><circle class="cls-21" cx="332.14" cy="429.9" r="2.23"/><circle class="cls-21" cx="319.27" cy="446.72" r="2.72"/><circle class="cls-21" cx="323.23" cy="469.47" r="1.24"/><circle class="cls-21" cx="269.31" cy="435.83" r="1.73"/><circle class="cls-21" cx="298.99" cy="422.97" r="2.72"/><circle class="cls-21" cx="350.69" cy="454.88" r="3.46"/><path class="cls-20" d="M265.2,545.05a167.82,167.82,0,0,0,23.06,3.81c22.79,2.17,39.53-2,51.74-9.27-6.08-6.16-19.31-16.43-38.29-14A58,58,0,0,0,265.2,545.05Z"/><path class="cls-16" d="M322.69,517.88s-8.85,14,6.24,26.93a60.58,60.58,0,0,0,19.18-11.07c.13-1.89.1-3.17.1-3.17Z"/><path class="cls-7" d="M330.9,498.41s-28.69,33.64,13.85,53.43c0,0,2.62,9.36,6.43,19.29A52.14,52.14,0,0,1,347.4,578c-1.8,2.53-3.56,5.24-3.43,6,.27,1.46,8.88,1.72,10.54,1.16a5.23,5.23,0,0,0,2.31-2.67c2.52-5.66,7.63-13.42,7.31-16.19-.23-2-1.3-20.91-2.06-27.81s5.44-36.11,2-40.07Z"/><path class="cls-12" d="M356.82,582.48c-2.73-1.44-5.86-3.42-9.5-4.34-1.77,2.5-3.48,5.13-3.35,5.85.27,1.46,8.88,1.72,10.54,1.16A3.83,3.83,0,0,0,356.82,582.48Z"/><path class="cls-16" d="M160,524.66c.14,0,1.11.33,2.77.66l-5.46-9.59S158.91,522,160,524.66Z"/><path class="cls-7" d="M214.74,226.67c-.66.3-4.33,3.14-4.6,2.54l-1.72-3.81c-.86-1.9.58-4.4,3.21-5.6s5.47-.61,6.33,1.28l1.72,3.82C220.16,226,216.06,226.08,214.74,226.67Z"/><ellipse class="cls-23" cx="214.91" cy="227.06" rx="5.24" ry="3.77" transform="translate(-74.45 108.69) rotate(-24.33)"/><line class="cls-24" x1="214.48" y1="227.98" x2="222.59" y2="242.16"/><path class="cls-7" d="M223.4,244.82c-.66.3-4.33,3.13-4.59,2.54l-1.73-3.82c-.86-1.9.58-4.4,3.22-5.59s5.46-.62,6.32,1.28l1.73,3.81C228.83,244.11,224.72,244.22,223.4,244.82Z"/><ellipse class="cls-23" cx="223.58" cy="245.2" rx="5.24" ry="3.77" transform="translate(-81.16 113.87) rotate(-24.33)"/><path class="cls-7" d="M265.71,270.28c-.66.3-4.33,3.13-4.6,2.54L259.39,269c-.86-1.9.58-4.4,3.21-5.59s5.47-.62,6.33,1.28l1.72,3.81C271.13,269.57,267,269.68,265.71,270.28Z"/><ellipse class="cls-23" cx="265.88" cy="270.66" rx="5.24" ry="3.77" transform="translate(-87.89 133.56) rotate(-24.33)"/><polygon class="cls-20" points="268.71 277.43 266.47 272.46 276.76 272.87 279 277.83 268.71 277.43"/><polygon class="cls-20" points="216.5 232.15 219.25 236.85 224.88 228.23 222.14 223.52 216.5 232.15"/><line class="cls-24" x1="265.45" y1="271.59" x2="273.56" y2="285.76"/><path class="cls-3" d="M217.86,217.15s-4.68,1.5-1.75,8,17.84,23.19,30.06,31.92c3.21,2.3,38,31.66,48.4,23S217.86,217.15,217.86,217.15Z"/><path class="cls-25" d="M261.07,240.2c-10.38-7.72-41-29.72-44.32-21.79-5.29,12.68,71.21,73.9,78.8,60.44C299.38,272.06,274.87,250.45,261.07,240.2Z"/><path class="cls-7" d="M273,285.37c-.66.3-4.33,3.14-4.6,2.54l-1.72-3.82c-.86-1.89.58-4.4,3.22-5.59s5.46-.62,6.32,1.28l1.72,3.82C278.42,284.66,274.31,284.78,273,285.37Z"/><ellipse class="cls-23" cx="273.16" cy="285.75" rx="5.24" ry="3.77" transform="matrix(0.91, -0.41, 0.41, 0.91, -93.46, 137.9)"/><path class="cls-9" d="M285.79,279.63l-34.07-46.17-2-1.42L255,250.19l-21.66-28.43a62,62,0,0,0-8.22-3.88L262,266.31l2.54,1.74-4.9-16.86,18.5,25.07A56.74,56.74,0,0,0,285.79,279.63Z"/><ellipse class="cls-20" cx="223.58" cy="245.2" rx="1.47" ry="1.06" transform="translate(-81.16 113.87) rotate(-24.33)"/><ellipse class="cls-20" cx="273.16" cy="285.75" rx="1.47" ry="1.06" transform="translate(-93.46 137.9) rotate(-24.33)"/><rect class="cls-1" x="0.5" y="0.5" width="500" height="500"/></g></svg>