<?xml version="1.0" encoding="utf-8"?>
<!-- Generator: Adobe Illustrator 23.1.1, SVG Export Plug-In . SVG Version: 6.00 Build 0)  -->
<svg version="1.1" id="Layer_1" xmlns="http://www.w3.org/2000/svg" xmlns:xlink="http://www.w3.org/1999/xlink" x="0px" y="0px"
	 viewBox="0 0 2087 1843.9" style="enable-background:new 0 0 2087 1843.9;" xml:space="preserve">
<style type="text/css">
	.st0{fill:#FF9292;stroke:#FF9292;stroke-width:2;stroke-miterlimit:10;}
	.st1{fill:#C7ECFF;stroke:#C7ECFF;stroke-width:2;stroke-miterlimit:10;}
	.st2{fill:#F7987C;}
	.st3{fill:none;stroke:#000000;stroke-width:1.5;stroke-miterlimit:10;}
	.st4{fill:#FFE80E;}
	.st5{fill:#FFE80F;}
	.st6{fill:#6CA6E3;}
	.st7{fill:none;stroke:#000000;stroke-width:1.62;stroke-miterlimit:10;}
	.st8{fill:#3C75BA;}
</style>
<title>run</title>
<path class="st0" d="M206.5,1086.8h1458c99.4,0,180,80.6,180,180l0,0c0,99.4-80.6,180-180,180h-1458c-99.4,0-180-80.6-180-180l0,0
	C26.5,1167.4,107.1,1086.8,206.5,1086.8z"/>
<path class="st0" d="M836.8,1575.8H1952c73.2,0,132.5,59.3,132.5,132.5l0,0c0,73.2-59.3,132.5-132.5,132.5H836.8
	c-73.2,0-132.5-59.3-132.5-132.5l0,0C704.3,1635.1,763.6,1575.8,836.8,1575.8z"/>
<path class="st0" d="M1327.5,1511.3c0-35.5,28.6-64.3,64.1-64.5H926.5c-0.5,0-1,0-1.5,0c35,0.8,63,29.4,63,64.5l0,0
	c0,35-28,63.7-63,64.5c0.5,0,1,0,1.5,0h465.1C1356.2,1575.5,1327.5,1546.8,1327.5,1511.3z"/>
<g>
	<path class="st1" d="M1820.5,1236.8c0-99.4-80.6-180-180-180h-1458c-99.4,0-180,80.6-180,180s80.6,180,180,180h1458
		C1739.9,1416.8,1820.5,1336.2,1820.5,1236.8z"/>
	<g>
		<path class="st1" d="M1928,1545.8H812.8c-73.2,0-132.5,59.3-132.5,132.5s59.3,132.5,132.5,132.5H1928
			c73.2,0,132.5-59.3,132.5-132.5S2001.2,1545.8,1928,1545.8z"/>
		<path class="st1" d="M901,1545.7c0.5,0,1,0,1.5,0h465.1c-35.5-0.2-64.1-29-64.1-64.4c0-35.5,28.6-64.3,64.1-64.5H902.5
			c-0.5,0-1,0-1.5,0c35,0.8,63,29.4,63,64.5C964,1516.3,936,1544.9,901,1545.7z"/>
	</g>
</g>
<circle class="st2" cx="1305.3" cy="389.6" r="57.8"/>
<circle cx="1306.1" cy="385.8" r="3.8"/>
<circle cx="1339.1" cy="385.8" r="3.8"/>
<polyline class="st3" points="1321.1,378.3 1339.1,403.8 1321.1,403.8 "/>
<path class="st3" d="M1282.1,405.3c0,0,6,25.5,39,22.5"/>
<path class="st4" d="M1209.6,300.3c-7-1.2-14.1-0.1-20.4,3.1c-7.4-21.6-30.8-33.1-52.4-25.7c-8.4,2.9-15.6,8.3-20.6,15.6
	c-13.4-6.5-29.6-1-36.1,12.4c-1.1,2.3-1.9,4.7-2.3,7.3c-0.3,1.7-0.4,3.3-0.4,5c-20.9,2.9-35.6,22.2-32.7,43.1s22.2,35.6,43.1,32.7
	c11-1.5,20.8-7.7,26.8-17c11.3,19.8,36.5,26.7,56.3,15.5c10.7-6.1,18.2-16.7,20.3-28.8c0-0.3,0.1-0.6,0.1-0.9c2.3,1,4.7,1.7,7.2,2.1
	c17.8,3.1,34.6-8.8,37.7-26.6S1227.4,303.4,1209.6,300.3L1209.6,300.3z"/>
<path class="st3" d="M1227.7,325.5c-0.6-18-15.7-32.2-33.7-31.6c-4.8,0.2-9.5,1.4-13.8,3.6c-7.4-21.6-30.9-33-52.4-25.6
	c-8.3,2.9-15.5,8.3-20.5,15.5c-2.3-1.1-4.7-1.9-7.3-2.4c-14.7-2.5-28.7,7.3-31.2,22l0,0c-0.3,1.7-0.4,3.3-0.4,5
	c-20.9,2.9-35.6,22.2-32.7,43.1s22.2,35.6,43.1,32.7c11-1.5,20.8-7.7,26.8-17c11.3,19.8,36.5,26.7,56.3,15.5
	c10.7-6.1,18.2-16.7,20.3-28.8c0-0.3,0.1-0.6,0.1-0.9c15.1,6.4,32.5,0.7,40.9-13.4"/>
<path class="st4" d="M1303.8,316c0,0-46.5-15-63,25.5c-14.4,35.4,6,48,6,48s54,4.5,60-39c0,0,18,25.5,60,31.5
	C1366.8,382,1375.8,301,1303.8,316z"/>
<path class="st2" d="M1420.5,1261.3h124.9c1.5-21-49.5-15-50.6-30c-2-28.6-13.3-254.2-13.3-254.2c-2.1-30.1-12.6-58.9-30.4-83.3
	l-154.7-212.1l-75.2,54.8l143.1,196.1c15.1,20.7,24,45.1,25.8,70.7l12.6,241.1C1403.3,1253.8,1411.1,1261.2,1420.5,1261.3z"/>
<path class="st3" d="M1408.5,1265h124.9c1.5-21-49.5-15-50.6-30c-2-28.6-13.3-254.2-13.3-254.2c-2.1-30.1-12.6-59-30.4-83.3
	l-154.7-212l-75.2,54.8l143.1,196.1c15.1,20.7,24,45.2,25.8,70.7l12.6,241.1C1391.3,1257.6,1399,1265,1408.5,1265z"/>
<path class="st2" d="M783.4,1053.3l26.8,71l17.3,45.8c20.2-6-3.5-51.6,10.1-57.9c26-12,233.1-102.3,233.1-102.3
	c27.4-12.6,50.7-32.7,67.2-57.9l143.6-219.8l-77.9-50.9l-132.8,203.2c-14,21.4-33.8,38.4-57,49.1l-221,97.1
	C784.2,1034.5,780,1044.4,783.4,1053.3z"/>
<path class="st3" d="M774.4,1042.8l26.8,71l17.3,45.8c20.2-6-3.5-51.6,10.1-57.9c26-12,233.1-102.3,233.1-102.3
	c27.4-12.6,50.7-32.7,67.2-57.9l143.6-219.8l-77.8-50.9L1061.9,874c-14,21.4-33.8,38.4-57,49.1l-221,97.1
	C775.2,1024,771,1033.9,774.4,1042.8z"/>
<path class="st2" d="M1435.3,539c3.6-2.6,8.5-2.1,11.6,1l0,0l10.7-7.2c4.1-2.8,9.7-1.7,12.6,2.4l0,0c1.4,2,1.8,4.5,1.3,6.9l0,0
	c3.8-1.2,8,0.2,10.2,3.5l0,0c2,2.9,2.1,6.8,0.2,9.8l0,0c3.7-1,7.7,0.4,9.9,3.6l0,0c2.6,3.8,1.9,9-1.7,12l0,0c2.7,0,5.2,1.3,6.9,3.4
	l0,0c3.1,3.9,2.4,9.6-1.5,12.6l0,0l-130.4,95.8c-20.3,14.9-48.6,12.1-65.7-6.5l-88.2-96.3c-14.3-15.5-13.4-39.7,2.1-54.1
	c15.5-14.3,39.7-13.4,54.1,2.1c0.1,0.1,0.2,0.2,0.3,0.3l72.4,79L1435.3,539z"/>
<path class="st3" d="M1429.1,592.8c0,0,24.7-10,7.1-38l3.1,3.8c3.2,3.8,8.8,4.4,12.7,1.3l0,0l0,0c3.8-3.2,4.4-8.8,1.2-12.7l0,0
	l-6-7.3"/>
<path class="st3" d="M1446.3,561.9c-0.8,2.6-0.4,5.4,1.2,7.7l0,0c2,2.9,5.5,4.4,9,3.8l0,0c-2.4,3.1-2.5,7.3-0.3,10.5l0,0
	c2.6,3.8,7.7,5.1,11.7,2.9l0,0c-1,2.5-0.8,5.4,0.6,7.7l0,0c1.9,3.3,5.7,5.1,9.4,4.4"/>
<line class="st3" x1="1442.1" y1="555" x2="1442.1" y2="555"/>
<path class="st4" d="M1186.4,736.5l84.9,105.9l90.3-73.1c0,0-60.9-99.1-76.5-120.9S1186.4,736.5,1186.4,736.5z"/>
<path class="st2" d="M1228.8,473.6c0,0,12-16.1,51-15c51,1.5,76.5,94.5,45,138l-16.5,66h-135L1228.8,473.6z"/>
<path class="st3" d="M1406.6,585.3c0,0,3,18,21,31.5"/>
<path class="st5" d="M1319.8,616.8l5.1-20.2c55.5-64.5-3-141-54-142.5c-39-1.1-57,37.5-57,37.5l-25.5,120L1319.8,616.8z"/>
<path class="st4" d="M1162.1,664.9l-54,124.5l106.8,45.7c0,0,67.2-95.2,79.2-119.2s15-54,15-54l-132-13.5L1162.1,664.9z"/>
<path class="st2" d="M1259,698.8c2.4,3.7,1.7,8.6-1.6,11.5l0,0l6.6,11.1c2.6,4.3,1.2,9.8-3,12.4l0,0c-2.1,1.3-4.6,1.6-7,1l0,0
	c1,3.9-0.6,7.9-4.1,10l0,0c-3,1.8-6.9,1.7-9.8-0.4l0,0c0.8,3.8-0.8,7.7-4.2,9.7l0,0c-4,2.4-9.1,1.4-11.9-2.4l0,0
	c-0.2,2.7-1.6,5.2-3.8,6.7l0,0c-4.1,2.9-9.7,1.9-12.5-2.1l0,0l-88.5-135.5c-13.8-21.1-9.5-49.2,10-65.2l101-82.8
	c16.3-13.4,40.4-11.1,53.9,5.2c13.4,16.3,11.1,40.4-5.2,53.9l-0.1,0.1l-82.9,68L1259,698.8z"/>
<path class="st3" d="M1483.1,1235c0,0-53.8,12.8-92.9,2.7"/>
<line class="st3" x1="1497.6" y1="1238.3" x2="1486.1" y2="1247"/>
<line class="st3" x1="1508.1" y1="1241.3" x2="1496.6" y2="1250"/>
<path class="st3" d="M1486.5,1238.1c0,0,15.8-22.5,22.2-14.7C1515.1,1231.2,1486.5,1238.1,1486.5,1238.1z"/>
<path class="st3" d="M826.2,1105.8c0,0,23.1,14.9,15.5,21.6S826.2,1105.8,826.2,1105.8z"/>
<path class="st3" d="M793.3,1016c0,0,1.2,19.4,35.7,85.4"/>
<line class="st3" x1="832.2" y1="1127.5" x2="820.7" y2="1118.8"/>
<line class="st3" x1="832.2" y1="1138.4" x2="820.7" y2="1129.7"/>
<path class="st3" d="M1051,985.9c0,0,22.5-36,57-45"/>
<path class="st3" d="M1456.9,975.8c0,0-28.9-31.1-28.6-66.8"/>
<path class="st3" d="M1245.5,697.3c2.4,3.7,1.7,8.6-1.6,11.5l0,0l6.6,11.1c2.6,4.3,1.2,9.8-3,12.4l0,0c-2.1,1.3-4.6,1.6-7,1l0,0
	c1,3.9-0.6,7.9-4.1,10l0,0c-3,1.8-6.9,1.7-9.8-0.4l0,0c0.8,3.8-0.8,7.7-4.2,9.7l0,0c-4,2.4-9.1,1.3-11.8-2.4l0,0
	c-0.2,2.7-1.6,5.2-3.8,6.7l0,0c-4.1,2.9-9.7,1.9-12.5-2.2l-88.5-135.5c-13.8-21.1-9.5-49.2,10-65.2l101-82.8
	c16.2-13.6,40.3-11.5,53.9,4.6s11.5,40.3-4.6,53.9c-0.3,0.2-0.5,0.4-0.8,0.6l-82.9,68L1245.5,697.3z"/>
<path class="st5" d="M1188.3,507.4l42-34.5c16.3-13.4,40.4-11.1,53.9,5.2c13.4,16.3,11.1,40.4-5.2,53.9l-0.1,0.1l-38.8,31.8"/>
<path class="st3" d="M1226.5,562.4l38.8-31.8c16.5-13.2,19.2-37.3,6-53.8s-37.3-19.2-53.8-6c-0.3,0.2-0.5,0.4-0.8,0.6l-42,34.5
	L1226.5,562.4z"/>
<path class="st3" d="M1320.3,616.1c0,0-12.4,108-81.9,185.3"/>
<line class="st3" x1="1234.1" y1="351.3" x2="1244.6" y2="324.3"/>
<path class="st3" d="M1248.1,382c0,0,44.5,0.8,50.5-39.8"/>
<circle class="st2" cx="1246.1" cy="394.8" r="16.5"/>
<path class="st3" d="M1249.4,391c-4.9,0.8-6.4,8.2,0.4,10.5"/>
<path class="st3" d="M1330.1,628.9c0,0,1.5-13.5,10.5-21"/>
<path class="st3" d="M1312.1,324.3c0,0,43.5-4.5,43.5,45"/>
<path class="st6" d="M714.5,339c0,0,11.5,17.2,19.1,17.2s0-20.5,0-20.5L714.5,339z"/>
<circle class="st2" cx="781.7" cy="320.3" r="62.3"/>
<circle cx="782.6" cy="316.2" r="4"/>
<circle cx="818.2" cy="316.2" r="4"/>
<polyline class="st7" points="798.7,308.1 818.2,335.6 798.7,335.6 "/>
<path class="st7" d="M756.7,337.3c0,0,6.5,27.5,42.1,24.3"/>
<path class="st2" d="M911.8,1259.2h134.8c1.6-22.7-53.4-16.2-54.6-32.3c-2.2-30.8-14.3-274.4-14.3-274.4
	c-2.3-32.5-13.6-63.6-32.8-89.9l-167-228.9l-81.1,59.2l154.4,211.7c16.3,22.3,25.9,48.7,27.8,76.3l13.7,260.2
	C893.2,1251.2,901.6,1259.2,911.8,1259.2z"/>
<path class="st7" d="M898.8,1263.2h134.8c1.6-22.7-53.4-16.2-54.6-32.3c-2.2-30.8-14.3-274.3-14.3-274.3
	c-2.3-32.5-13.6-63.6-32.8-89.9l-167-228.9L683.8,697l154.4,211.7c16.3,22.3,25.9,48.7,27.8,76.3l13.6,260.2
	C880.2,1255.3,888.6,1263.2,898.8,1263.2z"/>
<path class="st2" d="M224.1,1034.7l29,76.6l18.7,49.5c21.8-6.5-3.8-55.7,10.9-62.5c28-13,251.5-110.4,251.5-110.4
	c29.6-13.6,54.7-35.3,72.5-62.5l155-237.2l-84-54.9L534.4,852.5c-15.1,23.1-36.4,41.5-61.5,53l-238.5,104.8
	C225,1014.4,220.5,1025.2,224.1,1034.7z"/>
<path class="st7" d="M214.4,1023.4l29,76.6l18.7,49.5c21.8-6.5-3.8-55.7,10.9-62.5c28-13,251.5-110.4,251.5-110.4
	c29.6-13.6,54.7-35.3,72.5-62.5l155.1-237.3l-84-54.9L524.7,841.2c-15.1,23.1-36.4,41.5-61.5,53L224.6,999
	C215.3,1003.1,210.8,1013.8,214.4,1023.4z"/>
<path class="st2" d="M927.8,479.7c3.9-2.8,9.2-2.3,12.5,1.1l0,0l11.6-7.8c4.5-3,10.5-1.9,13.6,2.6l0,0c1.5,2.2,2,4.9,1.5,7.4l0,0
	c4.1-1.3,8.6,0.2,11,3.8l0,0c2.1,3.2,2.2,7.3,0.2,10.6l0,0c4-1.1,8.3,0.4,10.7,3.9l0,0c2.8,4.1,2,9.7-1.8,12.9l0,0
	c2.9,0,5.7,1.4,7.5,3.7l0,0c3.3,4.2,2.6,10.3-1.6,13.6L852.1,634.9c-21.9,16.1-52.5,13.1-70.9-7l-95.2-104
	c-15.2-17-13.7-43.1,3.4-58.3c16.7-14.9,42.2-13.7,57.5,2.5l78.1,85.3L927.8,479.7z"/>
<path class="st7" d="M921.1,537.8c0,0,26.6-10.7,7.7-41l3.3,4.1c3.4,4.1,9.5,4.7,13.7,1.3l0,0c4.1-3.4,4.7-9.5,1.3-13.7l0,0
	l-6.5-7.9"/>
<path class="st7" d="M939.7,504.4c-0.9,2.8-0.4,5.9,1.2,8.3l0,0c2.2,3.2,6,4.8,9.7,4.1l0,0c-2.6,3.3-2.7,7.9-0.3,11.4l0,0
	c2.8,4.1,8.3,5.5,12.7,3.1l0,0c-1.1,2.7-0.8,5.8,0.6,8.3l0,0c2,3.6,6.1,5.5,10.2,4.7"/>
<path class="st8" d="M659.1,692.8l148.9,204l105.1-78.9c0,0-130.6-196.7-147.5-220.2S659.1,692.8,659.1,692.8z"/>
<line class="st7" x1="935.1" y1="496.9" x2="935.1" y2="496.9"/>
<path class="st7" d="M782.2,670.2c0,0-7.6,19.1-68.7,97.3"/>
<path class="st8" d="M632.8,615.5L511.5,826.3l124.8,55.1c0,0,126-184.9,139-210.8c13-25.9,16.2-58.3,16.2-58.3L649,597.7
	L632.8,615.5z"/>
<path class="st7" d="M896.8,529.7c0,0,3.2,19.4,22.7,34"/>
<path class="st4" d="M813.7,669.2l5.8-78.3c12.8-132.2,13.3-187.1-73.1-193.4c-42-3.1-61.5,54.7-61.5,54.7l-86.8,190.3
	c0,0,66.8,19.1,109.9,25.5C753,674.8,813.7,669.2,813.7,669.2z"/>
<path class="st2" d="M737.5,652.1c2.5,4,1.8,9.3-1.8,12.5l0,0l7.2,12c2.8,4.6,1.3,10.6-3.3,13.4l0,0c-2.3,1.3-5,1.7-7.5,1l0,0
	c1.1,4.2-0.7,8.6-4.4,10.8l0,0c-3.3,2-7.4,1.8-10.6-0.4l0,0c0.9,4.1-0.9,8.3-4.5,10.5l0,0c-4.3,2.6-9.8,1.5-12.8-2.6l0,0
	c-0.2,2.9-1.7,5.6-4.1,7.3l0,0c-4.4,3.1-10.4,2.1-13.5-2.3l-95.6-146.2c-14.9-22.8-10.2-53.1,10.8-70.4l109-89.4
	c17.6-14.5,43.7-11.9,58.1,5.8c14.4,17.7,11.9,43.7-5.8,58.1l-89.5,73.3L737.5,652.1z"/>
<path class="st7" d="M979.4,1230.9c0,0-58.1,13.9-100.3,2.9"/>
<line class="st7" x1="995" y1="1234.4" x2="982.6" y2="1243.8"/>
<line class="st7" x1="1006.3" y1="1237.6" x2="993.9" y2="1247"/>
<path class="st7" d="M983,1234.3c0,0,17-24.3,23.9-15.9C1013.8,1226.8,983,1234.3,983,1234.3z"/>
<path class="st7" d="M270.3,1091.4c0,0,24.9,16.1,16.7,23.3C278.8,1121.9,270.3,1091.4,270.3,1091.4z"/>
<line class="st7" x1="276.9" y1="1114.8" x2="264.5" y2="1105.5"/>
<line class="st7" x1="276.8" y1="1126.6" x2="264.4" y2="1117.2"/>
<path class="st7" d="M513,962c0,0,24.3-38.9,61.5-48.6"/>
<path class="st7" d="M951.1,951.1c0,0-31.2-33.6-30.9-72"/>
<path class="st7" d="M722.9,650.5c2.6,4,1.8,9.3-1.8,12.5l0,0l7.2,12c2.8,4.6,1.3,10.6-3.3,13.4l0,0c-2.3,1.3-5,1.7-7.5,1l0,0
	c1.1,4.2-0.7,8.6-4.4,10.8l0,0c-3.3,2-7.4,1.8-10.6-0.4l0,0c0.9,4.1-0.9,8.3-4.5,10.5l0,0c-4.3,2.6-9.8,1.5-12.8-2.5l0,0
	c-0.2,2.9-1.7,5.6-4.1,7.3l0,0c-4.4,3.1-10.4,2-13.5-2.3L572,566.5c-14.9-22.8-10.2-53.1,10.8-70.4l109-89.4
	c17.6-14.5,43.7-11.9,58.1,5.8c14.4,17.7,11.9,43.7-5.8,58.1l0,0l-89.5,73.3L722.9,650.5z"/>
<path class="st5" d="M661.2,445.5l45.3-37.2c17.6-14.5,43.7-11.9,58.1,5.8c14.4,17.7,11.9,43.7-5.8,58.1l0,0l-41.9,34.4"/>
<path class="st7" d="M702.4,504.9l41.9-34.4c17.6-14.5,20.2-40.5,5.8-58.1s-40.5-20.2-58.1-5.8l-45.4,37.2L702.4,504.9z"/>
<path class="st7" d="M230.6,996.6c0,7.6,3.8,40.1,42,89.7"/>
<path class="st8" d="M752.7,285.6c16.3,0.1,40.1,5.7,64.9,3.8c24.8-1.9,24.8-24.8,22.9-30.6c0,0-3.8,3.8-7.6,3.8
	c-11.5,0-22.9-22.9-57.3-22.9c-22.9,0-72.5,22.9-64.9,78.3C717.2,365.3,723.8,285.4,752.7,285.6z"/>
<circle class="st2" cx="717.8" cy="325.9" r="17.8"/>
<path class="st7" d="M721.4,321.9c-5.2,0.8-6.9,8.9,0.4,11.3"/>
</svg>
