<?xml version="1.0" encoding="utf-8"?>
<!-- Generator: Adobe Illustrator 23.1.1, SVG Export Plug-In . SVG Version: 6.00 Build 0)  -->
<svg version="1.1" id="Layer_1" xmlns="http://www.w3.org/2000/svg" xmlns:xlink="http://www.w3.org/1999/xlink" x="0px" y="0px"
	 viewBox="0 0 2154 2475.7" style="enable-background:new 0 0 2154 2475.7;" xml:space="preserve">
<style type="text/css">
	.st0{fill:#C7ECFF;}
	.st1{fill:#FFE80E;}
	.st2{clip-path:url(#SVGID_2_);}
	.st3{fill:#FFFFFF;}
	.st4{fill:none;stroke:#FFE80E;stroke-width:15.0883;stroke-linecap:round;stroke-miterlimit:10;}
	.st5{fill:#F7987C;}
	.st6{fill:none;stroke:#000000;stroke-width:1.123;stroke-miterlimit:10;}
	.st7{fill:#FFE80F;}
	.st8{fill:#6CA6E3;}
	.st9{fill:none;stroke:#FF9292;stroke-width:27.7455;stroke-miterlimit:10;}
	.st10{fill:none;stroke:#6CA6E3;stroke-width:17.1758;stroke-miterlimit:10;}
	.st11{fill:#FF9292;}
	.st12{fill:none;stroke:#C590E0;stroke-width:13.2782;stroke-linecap:round;stroke-miterlimit:10;}
	.st13{enable-background:new    ;}
	.st14{fill:none;}
	.st15{clip-path:url(#SVGID_4_);}
	.st16{fill:none;stroke:#6CA6E3;stroke-width:23.6498;stroke-miterlimit:10;}
	.st17{fill:#3C75BA;}
	.st18{fill:none;stroke:#FF9292;stroke-width:20.7035;stroke-linecap:round;stroke-miterlimit:10;}
	.st19{fill:none;stroke:#94FFBA;stroke-width:11.8909;stroke-linecap:round;stroke-miterlimit:10;}
	.st20{fill:none;stroke:#FFE80E;stroke-width:21.1395;stroke-miterlimit:10;}
	.st21{fill:none;stroke:#FFE80E;stroke-width:33.5721;stroke-linecap:round;stroke-miterlimit:10;}
	.st22{fill:#94FFBA;}
	.st23{fill:none;stroke:#FF9292;stroke-width:27;stroke-linecap:round;stroke-miterlimit:10;}
</style>
<title>run</title>
<path class="st0" d="M1553.2,261.3c-210.3,0.4-707.5,41.8-837.4,354.2c-173.4,417.1-119.4,524.6-459.3,795S-90.4,2425,912.6,2475.3
	c1078.4,1,1121.7-354.6,1187.1-672.4C2222.1,1207.9,2159.7,272.6,1553.2,261.3z"/>
<path class="st1" d="M1389.8,478c-28.1-27.5-61-28.3-104.2,0.8c-43.1,29.1-105.7,28.6-128.5,76.8c-22.8,48.1,24.5,169.3,95.3,166.2
	c80.9-3.6,59.6-99.1,102.4-137.4C1397.6,546,1419.6,507.2,1389.8,478z"/>
<g>
	<defs>
		<rect id="SVGID_1_" x="284.3" y="481.7" width="1585.5" height="829.7"/>
	</defs>
	<clipPath id="SVGID_2_">
		<use xlink:href="#SVGID_1_"  style="overflow:visible;"/>
	</clipPath>
	<g class="st2">
		<rect x="281.6" y="481.7" class="st3" width="1590.7" height="829.7"/>
		<path class="st4" d="M1580.8,1058c0,0,10.6-57.2-27.4-69.6s-65.3,40.3-27.2,59.5s91.8-31.3,91.8-31.3"/>
		<circle class="st5" cx="757.6" cy="614.4" r="43.2"/>
		<circle cx="758.2" cy="611.6" r="2.8"/>
		<circle cx="782.8" cy="611.6" r="2.8"/>
		<polyline class="st6" points="769.4,606 782.8,625 769.4,625 		"/>
		<path class="st6" d="M740.2,626.1c0,0,4.5,19.1,29.1,16.8"/>
		<path class="st1" d="M686.1,547.8c-5.2-0.9-10.6-0.1-15.3,2.3c-5.5-16.1-23-24.7-39.2-19.2c-6.2,2.1-11.6,6.2-15.3,11.6
			c-1.7-0.8-3.5-1.4-5.4-1.8c-11-1.9-21.4,5.5-23.3,16.4c-0.2,1.2-0.3,2.5-0.3,3.7c-15.6,2.1-26.6,16.5-24.5,32.2
			c2.1,15.6,16.5,26.6,32.2,24.5c8.2-1.1,15.6-5.7,20.1-12.7c8.4,14.8,27.2,20,42,11.6c8-4.6,13.6-12.5,15.1-21.6
			c0-0.2,0.1-0.5,0.1-0.7c12.3,5.4,26.7-0.3,32.1-12.6c5.4-12.3-0.3-26.7-12.6-32.1C690,548.7,688,548.1,686.1,547.8z"/>
		<path class="st6" d="M699.6,566.5c-0.4-13.5-11.7-24-25.2-23.6c-3.6,0.1-7.1,1-10.3,2.7c-5.5-16.1-23.1-24.7-39.2-19.2
			c-6.2,2.1-11.6,6.2-15.3,11.6c-1.7-0.9-3.5-1.4-5.4-1.8c-11-1.9-21.4,5.5-23.3,16.4c0,0,0,0,0,0c-0.2,1.2-0.3,2.5-0.3,3.7
			c-15.6,2.2-26.6,16.6-24.4,32.2c2.2,15.6,16.6,26.6,32.2,24.4c8.2-1.1,15.5-5.7,20-12.6c8.4,14.8,27.2,20,42,11.6
			c8-4.6,13.6-12.5,15.1-21.5c0-0.2,0-0.5,0.1-0.7c1.7,0.7,3.5,1.3,5.4,1.6c10,1.7,20-2.9,25.1-11.6"/>
		<path class="st1" d="M756.5,559.4c0,0-34.7-11.2-47.1,19.1c-10.8,26.4,4.5,35.9,4.5,35.9s40.3,3.4,44.8-29.1
			c0,0,13.4,19.1,44.8,23.5C803.5,608.8,810.3,548.2,756.5,559.4z"/>
		<path class="st5" d="M843.6,1265.6H937c1.1-15.7-37-11.2-37.8-22.4c-1.5-21.3-9.9-189.9-9.9-189.9c-1.6-22.5-9.4-44-22.7-62.2
			L750.9,832.6l-56.1,41l106.9,146.5c11.3,15.4,18,33.8,19.3,52.8l9.4,180.1C830.8,1260.1,836.6,1265.6,843.6,1265.6z"/>
		<path class="st6" d="M834.7,1268.4H928c1.1-15.7-37-11.2-37.8-22.4c-1.5-21.3-9.9-189.9-9.9-189.9c-1.6-22.5-9.4-44-22.7-62.2
			L741.9,835.4l-56.1,41l106.9,146.5c11.3,15.5,17.9,33.8,19.3,52.8l9.4,180.1C821.8,1262.9,827.6,1268.4,834.7,1268.4z"/>
		<path class="st5" d="M367.6,1110.2l20.1,53l12.9,34.2c15.1-4.5-2.6-38.6,7.6-43.3c19.4-9,174.1-76.4,174.1-76.4
			c20.5-9.4,37.9-24.4,50.2-43.3l107.3-164.2l-58.1-38l-99.2,151.8c-10.5,16-25.2,28.7-42.6,36.7l-165.2,72.5
			C368.2,1096.2,365.1,1103.6,367.6,1110.2z"/>
		<path class="st6" d="M360.9,1102.4l20.1,53l12.9,34.2c15.1-4.5-2.6-38.6,7.6-43.3c19.4-9,174.1-76.4,174.1-76.4
			c20.5-9.4,37.9-24.4,50.2-43.3l107.3-164.2l-58.1-38l-99.3,151.8c-10.4,16-25.2,28.7-42.6,36.7L368,1085.5
			C361.5,1088.3,358.4,1095.7,360.9,1102.4z"/>
		<path class="st5" d="M854.7,726.1c2.7-1.9,6.4-1.6,8.7,0.7l0,0l8-5.4c3.1-2.1,7.3-1.3,9.4,1.8l0,0c1,1.5,1.4,3.4,1,5.2l0,0
			c2.9-0.9,6,0.2,7.6,2.6l0,0c1.5,2.2,1.5,5.1,0.1,7.3l0,0c2.8-0.8,5.8,0.3,7.4,2.6l0,0c1.9,2.9,1.4,6.7-1.3,8.9l0,0
			c2,0,3.9,1,5.2,2.5l0,0c2.3,2.9,1.8,7.1-1.1,9.4l-97.4,71.6c-15.2,11.1-36.3,9-49-4.8l-65.9-72c-11-11.3-10.8-29.4,0.5-40.4
			s29.4-10.8,40.4,0.5c0.4,0.4,0.8,0.9,1.2,1.3l54.1,59.1L854.7,726.1z"/>
		<path class="st6" d="M850.1,766.2c0,0,18.4-7.4,5.3-28.4l2.3,2.8c2.4,2.9,6.6,3.3,9.5,0.9c0,0,0,0,0,0l0,0
			c2.9-2.4,3.3-6.6,0.9-9.5l-4.5-5.5"/>
		<path class="st6" d="M863,743.1c-0.6,1.9-0.3,4.1,0.9,5.7l0,0c1.5,2.2,4.1,3.3,6.7,2.9l0,0c-1.8,2.3-1.9,5.5-0.2,7.9l0,0
			c1.9,2.9,5.7,3.8,8.8,2.1l0,0c-0.7,1.9-0.6,4,0.4,5.7l0,0c1.4,2.5,4.2,3.8,7.1,3.3"/>
		<line class="st6" x1="859.8" y1="738" x2="859.8" y2="738"/>
		<path class="st1" d="M668.7,873.5l63.4,79.1l67.5-54.6c0,0-45.5-74-57.2-90.3C730.8,791.3,668.7,873.5,668.7,873.5z"/>
		<path class="st5" d="M700.5,677.1c0,0,9-12.1,38.1-11.2c38.1,1.1,57.2,70.6,33.6,103.1l-12.3,49.3H659L700.5,677.1z"/>
		<path class="st6" d="M833.2,760.6c2.2,9.5,7.8,17.8,15.7,23.5"/>
		<path class="st7" d="M768.4,784.2l3.8-15.1c41.5-48.2-2.2-105.4-40.3-106.5c-29.1-0.9-42.6,28-42.6,28l-19.1,89.7L768.4,784.2z"/>
		<path class="st1" d="M650.5,820l-40.3,93l79.8,34.2c0,0,50.2-71.2,59.2-89.1c9-17.9,11.2-40.3,11.2-40.3l-98.6-10.1L650.5,820z"/>
		<path class="st5" d="M723,845.4c1.8,2.8,1.2,6.4-1.2,8.6l0,0l5,8.3c1.9,3.2,0.9,7.3-2.3,9.2l0,0c-1.6,0.9-3.4,1.2-5.2,0.7l0,0
			c0.8,2.9-0.5,6-3,7.5l0,0c-2.3,1.4-5.1,1.2-7.3-0.3l0,0c0.6,2.9-0.6,5.8-3.2,7.3l0,0c-3,1.8-6.8,1-8.9-1.8l0,0
			c-0.1,2-1.2,3.9-2.8,5l0,0c-3,2.1-7.2,1.4-9.4-1.6c0,0,0,0,0,0l-66.1-101.2c-10.3-15.8-7.1-36.8,7.5-48.7l75.5-61.9
			c12.2-10,30.2-8.3,40.3,4c10,12.2,8.3,30.2-4,40.3l0,0l-61.9,50.8L723,845.4z"/>
		<path class="st6" d="M890.4,1246c0,0-40.2,9.6-69.4,2"/>
		<line class="st6" x1="901.2" y1="1248.4" x2="892.7" y2="1254.9"/>
		<line class="st6" x1="909.1" y1="1250.7" x2="900.5" y2="1257.2"/>
		<path class="st6" d="M892.9,1248.3c0,0,11.8-16.8,16.6-11C914.3,1243.2,892.9,1248.3,892.9,1248.3z"/>
		<path class="st6" d="M399.6,1149.4c0,0,17.2,11.2,11.6,16.1C405.6,1170.6,399.6,1149.4,399.6,1149.4z"/>
		<line class="st6" x1="404.1" y1="1165.7" x2="395.6" y2="1159.2"/>
		<line class="st6" x1="404.1" y1="1173.8" x2="395.5" y2="1167.3"/>
		<path class="st6" d="M567.6,1059.9c0,0,16.8-26.9,42.6-33.6"/>
		<path class="st6" d="M870.9,1052.3c0,0-21.6-23.2-21.4-49.9"/>
		<path class="st6" d="M712.9,844.3c1.8,2.8,1.3,6.4-1.2,8.6l0,0l5,8.3c1.9,3.2,0.9,7.3-2.3,9.2l0,0c-1.6,0.9-3.4,1.2-5.2,0.7l0,0
			c0.8,2.9-0.5,6-3.1,7.5l0,0c-2.3,1.4-5.1,1.3-7.3-0.3l0,0c0.6,2.8-0.6,5.7-3.1,7.2l0,0c-3,1.8-6.8,1-8.9-1.8l0,0
			c-0.1,2-1.2,3.9-2.8,5l0,0c-3,2.1-7.2,1.4-9.4-1.6c0,0,0,0,0,0L608.5,786c-10.3-15.8-7.1-36.8,7.5-48.7l75.5-61.9
			c12.2-10,30.2-8.2,40.2,4s8.2,30.2-4,40.2l-61.9,50.8L712.9,844.3z"/>
		<path class="st7" d="M670.1,702.3l31.4-25.7c12.2-10,30.2-8.2,40.2,4c10,12.2,8.2,30.2-4,40.2l-29.1,23.8"/>
		<path class="st6" d="M698.7,743.5l29.1-23.8c12.2-10,14-28,4-40.2s-28-14-40.2-4l-31.4,25.7L698.7,743.5z"/>
		<path class="st6" d="M768.8,783.6c0,0-9.2,80.6-61.2,138.4"/>
		<line class="st6" x1="704.4" y1="585.8" x2="712.2" y2="565.6"/>
		<path class="st6" d="M714.8,608.8c0,0,33.3,0.6,37.7-29.7"/>
		<circle class="st5" cx="713.3" cy="618.3" r="12.3"/>
		<path class="st6" d="M715.8,615.5c-3.6,0.6-4.7,6.2,0.3,7.8"/>
		<path class="st6" d="M776.1,793.1c0,0,1.1-10.1,7.8-15.7"/>
		<path class="st6" d="M762.6,565.6c0,0,32.5-3.4,32.5,33.6"/>
		<path class="st8" d="M1519.9,987.8c-9.6-14.2-33.8-26.8-67-13.9c-44.3,17.2-71.3,24.2-115.9,19.7c-44.6-4.5-102.6,47-36.5,119.7
			C1366.6,1185.9,1588.9,1090.2,1519.9,987.8z"/>
		<path class="st6" d="M1514.6,999.7c-9.6-14.2-33.8-26.8-67-13.9c-44.3,17.2-71.3,24.2-115.9,19.7c-44.6-4.5-102.6,47-36.5,119.7
			C1361.3,1197.8,1583.6,1102.1,1514.6,999.7z"/>
		<path class="st9" d="M1124.6,1082.7c0,0-3.6,50.1,55.6,55.9"/>
		<path class="st10" d="M1573.8,807.6c0,0-10.1-49.2-68.7-38.8"/>
		<path class="st11" d="M1922.3,1127.6c-34.1-30-109.4-42.1-146.7-21.8c-37.3,20.3-79,66.7-85.1,95.6c-6.1,29,24.3,117.6,48.2,127.9
			c23.9,10.4,113.9,23.6,137.5,18.8c23.6-4.8,82.1-75.3,76.9-105.8C1947.9,1212,1949.4,1151.4,1922.3,1127.6z"/>
		<path class="st12" d="M1076.9,910.5c0,0,16.5,13.3,35.2,3.3c18.7-10-16.5-31.2,0-41.7c16.5-10.6,28.7,17.8,43.1,11.1
			c14.4-6.7,0-26.1,0-26.1"/>
		<path class="st6" d="M374.8,1090.1c0,0,1.3,29.1,26.4,63.4"/>
		<path class="st1" d="M1389.8,478c-28.1-27.5-61-28.3-104.2,0.8c-43.1,29.1-105.7,28.6-128.5,76.8
			c-22.8,48.1,24.5,169.3,95.3,166.2c80.9-3.6,59.6-99.1,102.4-137.4C1397.6,546,1419.6,507.2,1389.8,478z"/>
		<path class="st1" d="M1838.6,788.4c23.5,20.1,49.5,19,81.8-6.1s81.5-28.1,97-67.1s-28.2-131.7-83.6-125.5
			c-63.4,7.1-41.6,81-73.2,113.3C1828.8,735.3,1813.6,767,1838.6,788.4z"/>
		<g class="st13">
			<path class="st11" d="M1315.8,631.8h-9.8l-25.9-28.9v28.9h-8v-60.1h8v27.1l25.1-27.1h9.8l-26.5,29.2L1315.8,631.8z"/>
		</g>
		<g class="st13">
			<path class="st11" d="M1344.8,571.7c5.6,0,10.2,1.8,13.9,5.5c3.7,3.7,5.5,8.3,5.5,13.8c0,5.4-1.8,10-5.5,13.7
				c-3.7,3.7-8.3,5.6-13.9,5.6h-13.8v21.5h-8v-60.1H1344.8z M1344.8,602.9c3.3,0,6.1-1.1,8.2-3.4c2.2-2.3,3.3-5.1,3.3-8.5
				c0-3.4-1.1-6.3-3.3-8.5c-2.2-2.2-4.9-3.3-8.2-3.3h-13.8v23.7H1344.8z"/>
		</g>
		<g class="st13">
			<path class="st11" d="M1407.1,631.8l-4.9-13.5h-27.1l-4.9,13.5h-8.5l22.4-60.1h9l22.4,60.1H1407.1z M1377.9,610.9h21.6
				l-10.8-29.6L1377.9,610.9z"/>
		</g>
		<g class="st13">
			<path class="st11" d="M1448.8,632.9c-9.1,0-16.6-3-22.5-9c-5.9-6-8.9-13.4-8.9-22.2s3-16.1,8.9-22.2c5.9-6,13.4-9,22.5-9
				c5.5,0,10.5,1.3,15.2,3.9c4.6,2.6,8.2,6.2,10.8,10.6l-7,4c-1.7-3.3-4.3-6-7.7-7.9c-3.4-2-7.2-3-11.3-3c-6.9,0-12.6,2.2-17,6.7
				c-4.4,4.5-6.6,10-6.6,16.7c0,6.6,2.2,12.2,6.6,16.7c4.4,4.5,10,6.7,17,6.7c4.1,0,7.9-1,11.3-3c3.4-2,6-4.6,7.7-7.9l7,4
				c-2.5,4.5-6.1,8-10.7,10.7C1459.4,631.6,1454.3,632.9,1448.8,632.9z"/>
		</g>
		<g class="st13">
			<path class="st11" d="M1533.6,623.8c-6,6.1-13.4,9.1-22.1,9.1c-8.7,0-16.1-3-22.1-9.1c-6-6.1-9-13.4-9-22.1c0-8.7,3-16.1,9-22.1
				c6-6,13.4-9.1,22.1-9.1c8.7,0,16.1,3,22.1,9.1c6,6,9.1,13.4,9.1,22.1C1542.7,610.4,1539.7,617.8,1533.6,623.8z M1495,618.4
				c4.4,4.5,9.9,6.7,16.5,6.7c6.6,0,12.1-2.2,16.5-6.7c4.4-4.5,6.7-10,6.7-16.6c0-6.6-2.2-12.2-6.7-16.7c-4.4-4.5-9.9-6.7-16.5-6.7
				c-6.6,0-12.1,2.2-16.5,6.7c-4.4,4.5-6.7,10.1-6.7,16.7C1488.3,608.3,1490.6,613.9,1495,618.4z"/>
		</g>
		<g class="st13">
			<path class="st11" d="M1584.5,571.7h8v60.1h-8v-24.2c-4.7,2.2-9.6,3.3-14.8,3.3c-5.8,0-10.6-1.6-14.2-4.9
				c-3.6-3.3-5.4-7.6-5.4-12.8v-21.5h8v21c0,3.3,1,5.9,3.1,7.8c2.1,1.9,4.9,2.9,8.6,2.9c5.2,0,10-1.1,14.7-3.3V571.7z"/>
			<path class="st11" d="M1642.5,571.7h7.9v60.1h-7.9v-27.1h-29.2v27.1h-8v-60.1h8v25.5h29.2V571.7z"/>
			<path class="st11" d="M1663.3,631.8v-60.1h8v21.5h13.8c5.6,0,10.2,1.9,13.9,5.6c3.7,3.7,5.5,8.3,5.5,13.7
				c0,5.5-1.8,10.1-5.5,13.8c-3.7,3.7-8.3,5.5-13.9,5.5H1663.3z M1671.3,624.3h13.8c3.3,0,6.1-1.1,8.2-3.3c2.2-2.2,3.3-5.1,3.3-8.5
				s-1.1-6.3-3.3-8.5c-2.2-2.2-4.9-3.3-8.2-3.3h-13.8V624.3z M1710.6,631.8v-60.1h8v60.1H1710.6z"/>
			<path class="st11" d="M1768.8,631.8V587l-30.9,44.8h-6.4v-60.1h8v44.9l30.9-44.9h6.4v60.1H1768.8z M1742.6,565.3v-6.5h23.2v6.5
				H1742.6z"/>
		</g>
		<g class="st13">
			<path class="st11" d="M1301.3,703.8c3.1,1.3,5.5,3.2,7.2,5.8c1.7,2.5,2.6,5.5,2.6,8.9c0,5.2-1.9,9.4-5.8,12.6
				c-3.9,3.3-9,4.9-15.3,4.9c-5.8,0-10.4-1.3-14-3.9c-3.5-2.6-6-5.9-7.4-10l6.8-3.9c1.8,6.8,6.6,10.1,14.6,10.1
				c4.2,0,7.4-0.9,9.7-2.8c2.3-1.9,3.4-4.3,3.4-7.4c0-3.1-1.1-5.6-3.2-7.5c-2.1-1.9-5.1-2.8-9-2.8h-7v-7.3h5.1
				c3.7,0,6.6-0.9,8.8-2.7c2.2-1.8,3.3-4.2,3.3-7.1c0-2.9-1-5.2-3-7c-2-1.8-4.9-2.7-8.5-2.7c-6.6,0-11.1,2.9-13.3,8.8l-6.7-3.9
				c3.6-8.3,10.3-12.5,20-12.5c5.8,0,10.5,1.6,14,4.8c3.6,3.2,5.4,7.3,5.4,12.2C1308.9,696.4,1306.3,700.7,1301.3,703.8z"/>
			<path class="st11" d="M1360.1,734.9l-4.9-13.5h-27.1l-4.9,13.5h-8.5l22.4-60.1h9l22.4,60.1H1360.1z M1330.9,713.9h21.6
				l-10.8-29.6L1330.9,713.9z"/>
			<path class="st11" d="M1398.4,698.4c5.2,0,9.6,1.8,13.2,5.3c3.6,3.5,5.4,7.8,5.4,12.9c0,5.2-1.8,9.6-5.4,13.1
				c-3.6,3.5-8,5.2-13.3,5.2h-22.6v-60.1h36.1v7.6h-28.1v16.1H1398.4z M1398.4,727.4c3,0,5.5-1,7.6-3.1c2.1-2.1,3.1-4.6,3.1-7.7
				c0-3-1-5.6-3.1-7.6c-2.1-2.1-4.6-3.1-7.6-3.1h-14.6v21.6H1398.4z"/>
			<path class="st11" d="M1434,727.3h27.9v7.6H1426v-60.1h35.5v7.6H1434v18.5h25.3v7.5H1434V727.3z"/>
			<path class="st11" d="M1505.3,674.8v7.6h-25.8v52.6h-8v-60.1H1505.3z"/>
		</g>
		<g class="st13">
			<path class="st11" d="M1283.7,1215.8v18.5h-2.5v-16.2h-8.5v16.2h-2.5v-18.5H1283.7z"/>
		</g>
		<g class="st13">
			<path class="st11" d="M1298.6,1232.6c-1.4,1.3-3,2-4.9,2c-1.9,0-3.6-0.7-4.9-2c-1.3-1.3-2-3-2-4.9c0-2,0.7-3.6,2-4.9
				c1.3-1.3,3-2,4.9-2c1.9,0,3.6,0.7,4.9,2c1.4,1.3,2,3,2,4.9C1300.6,1229.6,1300,1231.3,1298.6,1232.6z M1293.7,1232.4
				c1.3,0,2.4-0.4,3.3-1.3c0.9-0.9,1.3-2,1.3-3.4c0-1.3-0.4-2.5-1.3-3.4c-0.9-0.9-2-1.3-3.3-1.3c-1.3,0-2.4,0.4-3.3,1.3
				c-0.9,0.9-1.3,2-1.3,3.4c0,1.3,0.4,2.5,1.3,3.4C1291.2,1231.9,1292.3,1232.4,1293.7,1232.4z"/>
		</g>
		<g class="st13">
			<path class="st11" d="M1314.2,1232.1h1.8v5.7h-2.3v-3.5h-9.9v3.5h-2.3v-5.7h1.6c0.8-1.2,1.3-2.8,1.3-4.9v-6.1h9.7V1232.1z
				 M1305.8,1232.1h6.1v-8.9h-5.2v4C1306.7,1229.2,1306.4,1230.8,1305.8,1232.1z"/>
			<path class="st11" d="M1325.8,1220.7c1.9,0,3.4,0.7,4.7,2c1.3,1.3,2,3,2,4.9c0,1.9-0.7,3.6-2,4.9c-1.3,1.3-2.9,2-4.7,2
				c-2.2,0-3.8-0.9-5-2.6v7.6h-2.3v-18.5h2.3v2.3C1321.9,1221.6,1323.6,1220.7,1325.8,1220.7z M1325.5,1232.4c1.3,0,2.4-0.5,3.3-1.4
				c0.9-0.9,1.3-2,1.3-3.4c0-1.3-0.5-2.5-1.3-3.4c-0.9-0.9-2-1.4-3.3-1.4c-1.3,0-2.5,0.5-3.4,1.4c-0.9,0.9-1.3,2-1.3,3.4
				c0,1.3,0.4,2.5,1.3,3.4C1323,1232,1324.2,1232.4,1325.5,1232.4z"/>
			<path class="st11" d="M1346.4,1232.6c-1.4,1.3-3,2-4.9,2c-1.9,0-3.6-0.7-4.9-2c-1.3-1.3-2-3-2-4.9c0-2,0.7-3.6,2-4.9
				c1.3-1.3,3-2,4.9-2c1.9,0,3.6,0.7,4.9,2c1.4,1.3,2,3,2,4.9C1348.4,1229.6,1347.7,1231.3,1346.4,1232.6z M1341.4,1232.4
				c1.3,0,2.4-0.4,3.3-1.3c0.9-0.9,1.3-2,1.3-3.4c0-1.3-0.4-2.5-1.3-3.4c-0.9-0.9-2-1.3-3.3-1.3c-1.3,0-2.4,0.4-3.3,1.3
				c-0.9,0.9-1.3,2-1.3,3.4c0,1.3,0.4,2.5,1.3,3.4C1339,1231.9,1340.1,1232.4,1341.4,1232.4z"/>
			<path class="st11" d="M1357.1,1234.6c-2,0-3.6-0.6-4.8-1.9c-1.3-1.3-1.9-2.9-1.9-5c0-2.3,0.3-4,1-5.2s2-2.3,4.1-3.3
				c0.4-0.2,0.9-0.4,1.5-0.7s1.1-0.5,1.4-0.6s0.6-0.4,1-0.6c0.4-0.3,0.6-0.5,0.8-0.8s0.3-0.7,0.4-1.1l1.8,1.1
				c-0.1,0.3-0.1,0.5-0.2,0.8c-0.1,0.2-0.2,0.5-0.4,0.7c-0.2,0.2-0.3,0.4-0.4,0.6c-0.1,0.2-0.3,0.3-0.6,0.5
				c-0.3,0.2-0.5,0.3-0.6,0.4c-0.1,0.1-0.4,0.2-0.8,0.4c-0.4,0.2-0.6,0.3-0.8,0.4s-0.4,0.2-0.9,0.4c-0.5,0.2-0.7,0.3-0.8,0.4
				c-1.2,0.5-2.1,1-2.6,1.6c-0.6,0.5-1,1.2-1.2,2c0.6-0.7,1.3-1.2,2.1-1.6c0.8-0.3,1.7-0.5,2.5-0.5c1.7,0,3.1,0.6,4.2,1.7
				c1.2,1.1,1.7,2.6,1.7,4.4c0,1.8-0.6,3.3-1.8,4.5C1360.6,1234,1359,1234.6,1357.1,1234.6z M1354,1231.2c0.8,0.8,1.9,1.2,3.1,1.2
				c1.2,0,2.3-0.4,3.1-1.1c0.8-0.8,1.2-1.7,1.2-2.9c0-1.2-0.4-2.1-1.2-2.9c-0.8-0.7-1.8-1.1-3-1.1c-1.1,0-2.1,0.4-3.1,1.1
				c-0.9,0.7-1.4,1.7-1.4,2.8C1352.8,1229.5,1353.2,1230.5,1354,1231.2z"/>
			<path class="st11" d="M1375.3,1221.1h2.3v13.2h-2.3v-5.5h-6.8v5.5h-2.3v-13.2h2.3v5.5h6.8V1221.1z"/>
			<path class="st11" d="M1392.2,1232.6c-1.4,1.3-3,2-4.9,2c-1.9,0-3.6-0.7-4.9-2c-1.3-1.3-2-3-2-4.9c0-2,0.7-3.6,2-4.9
				c1.3-1.3,3-2,4.9-2c1.9,0,3.6,0.7,4.9,2c1.4,1.3,2,3,2,4.9C1394.2,1229.6,1393.5,1231.3,1392.2,1232.6z M1387.2,1232.4
				c1.3,0,2.4-0.4,3.3-1.3c0.9-0.9,1.3-2,1.3-3.4c0-1.3-0.4-2.5-1.3-3.4c-0.9-0.9-2-1.3-3.3-1.3c-1.3,0-2.4,0.4-3.3,1.3
				c-0.9,0.9-1.3,2-1.3,3.4c0,1.3,0.4,2.5,1.3,3.4C1384.8,1231.9,1385.9,1232.4,1387.2,1232.4z"/>
		</g>
		<g class="st13">
			<path class="st11" d="M1403.2,1234.6c-2,0-3.6-0.7-5-2c-1.3-1.3-2-3-2-5s0.7-3.6,2-5c1.3-1.3,3-2,5-2c1.3,0,2.5,0.3,3.5,0.9
				c1,0.6,1.8,1.5,2.3,2.5l-1.9,1.1c-0.3-0.7-0.9-1.3-1.5-1.7c-0.7-0.4-1.5-0.6-2.4-0.6c-1.3,0-2.4,0.4-3.3,1.3
				c-0.9,0.9-1.3,2-1.3,3.4c0,1.3,0.4,2.4,1.3,3.3c0.9,0.9,2,1.3,3.3,1.3c0.9,0,1.7-0.2,2.4-0.6c0.7-0.4,1.2-1,1.6-1.7l2,1.1
				c-0.6,1-1.4,1.9-2.4,2.5C1405.6,1234.3,1404.4,1234.6,1403.2,1234.6z"/>
		</g>
		<g class="st13">
			<path class="st11" d="M1421,1221.1v2.2h-4.5v11h-2.3v-11h-4.5v-2.2H1421z"/>
			<path class="st11" d="M1432.6,1221.1h1.8v13.2h-2.3v-9.3l-7.3,9.3h-1.9v-13.2h2.3v9.3L1432.6,1221.1z"/>
			<path class="st11" d="M1453.7,1221.1h2.3v13.2h-2.3v-5.5h-6.8v5.5h-2.3v-13.2h2.3v5.5h6.8V1221.1z"/>
			<path class="st11" d="M1470.4,1221.1h2.3v13.2h-2.3v-2.3c-1.1,1.7-2.8,2.6-5,2.6c-1.8,0-3.4-0.7-4.7-2c-1.3-1.3-2-3-2-4.9
				c0-1.9,0.7-3.6,2-4.9c1.3-1.3,2.9-2,4.7-2c2.2,0,3.8,0.9,5,2.6V1221.1z M1465.7,1232.4c1.3,0,2.5-0.5,3.4-1.4
				c0.9-0.9,1.3-2,1.3-3.4c0-1.3-0.4-2.5-1.3-3.4c-0.9-0.9-2-1.4-3.4-1.4c-1.3,0-2.4,0.5-3.3,1.4c-0.9,0.9-1.3,2-1.3,3.4
				c0,1.3,0.4,2.5,1.3,3.4C1463.3,1232,1464.4,1232.4,1465.7,1232.4z"/>
		</g>
		<g class="st13">
			<path class="st11" d="M1489,1234.6c-2,0-3.6-0.7-5-2c-1.3-1.3-2-3-2-5s0.7-3.6,2-5c1.3-1.3,3-2,5-2c1.3,0,2.5,0.3,3.5,0.9
				c1,0.6,1.8,1.5,2.3,2.5l-1.9,1.1c-0.3-0.7-0.9-1.3-1.5-1.7c-0.7-0.4-1.5-0.6-2.4-0.6c-1.3,0-2.4,0.4-3.3,1.3
				c-0.9,0.9-1.3,2-1.3,3.4c0,1.3,0.4,2.4,1.3,3.3c0.9,0.9,2,1.3,3.3,1.3c0.9,0,1.7-0.2,2.4-0.6c0.7-0.4,1.2-1,1.6-1.7l2,1.1
				c-0.6,1-1.4,1.9-2.4,2.5C1491.5,1234.3,1490.3,1234.6,1489,1234.6z"/>
		</g>
		<g class="st13">
			<path class="st11" d="M1508,1221.1h2.3v13.2h-2.3v-2.3c-1.1,1.7-2.8,2.6-5,2.6c-1.9,0-3.4-0.7-4.7-2c-1.3-1.3-2-3-2-4.9
				c0-1.9,0.7-3.6,2-4.9c1.3-1.3,2.9-2,4.7-2c2.2,0,3.8,0.9,5,2.6V1221.1z M1503.3,1232.4c1.3,0,2.5-0.5,3.4-1.4
				c0.9-0.9,1.3-2,1.3-3.4c0-1.3-0.5-2.5-1.3-3.4c-0.9-0.9-2-1.4-3.4-1.4c-1.3,0-2.4,0.5-3.3,1.4c-0.9,0.9-1.3,2-1.3,3.4
				c0,1.3,0.4,2.5,1.3,3.4C1500.8,1232,1502,1232.4,1503.3,1232.4z"/>
			<path class="st11" d="M1523.4,1221.1h1.9v13.2h-2.3v-9.3l-7.3,9.3h-1.9v-13.2h2.3v9.3L1523.4,1221.1z M1515.9,1219.1v-2h7.1v2
				H1515.9z"/>
		</g>
		<g class="st13">
			<path class="st11" d="M1538.5,1221.1v2.2h-4.5v11h-2.3v-11h-4.5v-2.2H1538.5z"/>
		</g>
		<g class="st13">
			<path class="st11" d="M1541.6,1228.7c0.2,1.2,0.8,2.1,1.6,2.7c0.9,0.7,1.9,1,3.2,1c1.7,0,3-0.6,3.8-1.9l2,1.1c-1.3,2-3.2,3-5.8,3
				c-2.1,0-3.8-0.7-5.1-2c-1.3-1.3-2-3-2-5c0-2,0.6-3.6,1.9-5c1.3-1.3,3-2,5-2c1.9,0,3.5,0.7,4.7,2c1.2,1.4,1.8,3,1.8,4.9
				c0,0.3,0,0.7-0.1,1H1541.6z M1546.2,1222.9c-1.2,0-2.3,0.3-3.1,1c-0.8,0.7-1.3,1.6-1.5,2.8h8.8c-0.2-1.3-0.7-2.2-1.5-2.9
				C1548.2,1223.2,1547.2,1222.9,1546.2,1222.9z"/>
			<path class="st11" d="M1564.3,1223.3c0.8-1.6,2.1-2.5,4.1-2.5v2.4c-1.1-0.1-2.1,0.2-2.9,0.9c-0.8,0.7-1.2,1.7-1.2,3.1v7h-2.3
				v-13.2h2.3V1223.3z"/>
			<path class="st11" d="M1579.8,1221.1h2.3v13.2h-2.3v-1.9c-0.9,1.5-2.4,2.2-4.3,2.2c-1.6,0-2.8-0.5-3.7-1.5c-0.9-1-1.4-2.3-1.4-4
				v-8.1h2.3v8c0,1.1,0.3,1.9,0.9,2.5c0.6,0.6,1.4,0.9,2.4,0.9c1.1,0,2.1-0.4,2.8-1.1s1.1-1.8,1.1-3.3V1221.1z"/>
			<path class="st11" d="M1592.2,1220.7c1.5,0,2.8,0.5,3.7,1.5c0.9,1,1.4,2.3,1.4,4v8.1h-2.3v-8c0-1.1-0.3-1.9-0.9-2.5
				c-0.6-0.6-1.4-0.9-2.4-0.9c-1.1,0-2.1,0.4-2.8,1.1s-1.1,1.8-1.1,3.3v7h-2.3v-13.2h2.3v1.9
				C1588.8,1221.5,1590.2,1220.7,1592.2,1220.7z"/>
		</g>
		<g class="st13">
			<path class="st11" d="M1606.7,1234.6c-2,0-3.6-0.7-5-2c-1.3-1.3-2-3-2-5s0.7-3.6,2-5c1.3-1.3,3-2,5-2c1.3,0,2.5,0.3,3.5,0.9
				c1,0.6,1.8,1.5,2.3,2.5l-1.9,1.1c-0.3-0.7-0.9-1.3-1.5-1.7c-0.7-0.4-1.5-0.6-2.4-0.6c-1.3,0-2.4,0.4-3.3,1.3
				c-0.9,0.9-1.3,2-1.3,3.4c0,1.3,0.4,2.4,1.3,3.3c0.9,0.9,2,1.3,3.3,1.3c0.9,0,1.7-0.2,2.4-0.6c0.7-0.4,1.2-1,1.6-1.7l2,1.1
				c-0.6,1-1.4,1.9-2.4,2.5C1609.2,1234.3,1608,1234.6,1606.7,1234.6z"/>
		</g>
		<g class="st13">
			<path class="st11" d="M1615.6,1234.6c-0.5,0-0.9-0.2-1.2-0.5c-0.3-0.3-0.5-0.7-0.5-1.2s0.2-0.9,0.5-1.2c0.3-0.3,0.7-0.5,1.2-0.5
				c0.5,0,0.9,0.2,1.2,0.5c0.3,0.3,0.5,0.7,0.5,1.2s-0.2,0.9-0.5,1.2C1616.5,1234.4,1616.1,1234.6,1615.6,1234.6z"/>
			<path class="st11" d="M1622.8,1223.3c0.8-1.6,2.1-2.5,4.1-2.5v2.4c-1.1-0.1-2.1,0.2-2.9,0.9s-1.2,1.7-1.2,3.1v7h-2.3v-13.2h2.3
				V1223.3z"/>
			<path class="st11" d="M1638.3,1221.1h2.3v13.2h-2.3v-1.9c-0.9,1.5-2.4,2.2-4.3,2.2c-1.6,0-2.8-0.5-3.7-1.5c-0.9-1-1.4-2.3-1.4-4
				v-8.1h2.3v8c0,1.1,0.3,1.9,0.9,2.5c0.6,0.6,1.4,0.9,2.4,0.9c1.1,0,2.1-0.4,2.8-1.1s1.1-1.8,1.1-3.3V1221.1z"/>
			<path class="st11" d="M1650.7,1220.7c1.5,0,2.8,0.5,3.7,1.5c0.9,1,1.4,2.3,1.4,4v8.1h-2.3v-8c0-1.1-0.3-1.9-0.9-2.5
				c-0.6-0.6-1.4-0.9-2.4-0.9c-1.1,0-2.1,0.4-2.8,1.1s-1.1,1.8-1.1,3.3v7h-2.3v-13.2h2.3v1.9
				C1647.4,1221.5,1648.8,1220.7,1650.7,1220.7z"/>
		</g>
		<g class="st13">
			<path class="st3" d="M1311.6,1065.2h-3.9l-6.3-10.1l-6.3,10.1h-3.8l8.2-13.2l-7.7-12.4h3.8l5.8,9.3l5.8-9.3h3.8l-7.7,12.4
				L1311.6,1065.2z"/>
		</g>
		<g class="st13">
			<path class="st3" d="M1328.8,1062.9c-1.9,1.9-4.2,2.8-6.8,2.8c-2.7,0-5-0.9-6.8-2.8c-1.9-1.9-2.8-4.1-2.8-6.8
				c0-2.7,0.9-5,2.8-6.8c1.9-1.9,4.1-2.8,6.8-2.8c2.7,0,5,0.9,6.8,2.8c1.9,1.9,2.8,4.1,2.8,6.8
				C1331.6,1058.8,1330.7,1061,1328.8,1062.9z M1322,1062.6c1.8,0,3.4-0.6,4.6-1.9c1.2-1.2,1.9-2.8,1.9-4.6c0-1.9-0.6-3.4-1.9-4.6
				c-1.2-1.2-2.8-1.9-4.6-1.9c-1.8,0-3.3,0.6-4.6,1.9c-1.2,1.2-1.9,2.8-1.9,4.6c0,1.9,0.6,3.4,1.9,4.6
				C1318.7,1061.9,1320.2,1062.6,1322,1062.6z"/>
		</g>
		<g class="st13">
			<path class="st3" d="M1346.5,1046.9h3.2v18.3h-3.2v-6.6c-1.5,0.6-3.1,1-4.9,1c-2.3,0-4.1-0.6-5.4-1.7c-1.3-1.1-1.9-2.7-1.9-4.9
				v-6.1h3.2v5.9c0,1.4,0.4,2.3,1.1,2.9c0.7,0.6,1.8,0.9,3.3,0.9c1.7,0,3.3-0.3,4.7-0.9V1046.9z"/>
			<path class="st3" d="M1367.3,1046.9h3.4l-7.5,19.4c-0.8,2.1-1.9,3.7-3.3,4.7c-1.4,1.1-3,1.6-4.8,1.4v-3c2.2,0.2,3.9-1,4.9-3.7
				l0.3-0.7l-7.9-18.3h3.4l6.3,14.3L1367.3,1046.9z"/>
			<path class="st3" d="M1390.8,1065.7c-2.7,0-4.9-0.9-6.7-2.7c-1.8-1.8-2.6-4.1-2.6-6.9c0-3.1,0.5-5.5,1.4-7.2
				c0.9-1.7,2.8-3.2,5.6-4.6c0.5-0.2,1.2-0.6,2.1-1c0.9-0.4,1.5-0.7,2-0.9c0.4-0.2,0.9-0.5,1.4-0.8s0.9-0.7,1.2-1.2
				c0.3-0.4,0.4-0.9,0.6-1.5l2.6,1.5c-0.1,0.4-0.2,0.7-0.3,1.1c-0.1,0.3-0.3,0.6-0.5,1c-0.2,0.3-0.4,0.6-0.6,0.8
				c-0.2,0.2-0.5,0.5-0.9,0.7c-0.4,0.3-0.7,0.4-0.9,0.6c-0.2,0.1-0.5,0.3-1.1,0.5c-0.5,0.2-0.9,0.4-1.1,0.5
				c-0.2,0.1-0.6,0.3-1.2,0.5c-0.6,0.3-1,0.4-1.2,0.5c-1.7,0.7-2.9,1.4-3.6,2.2c-0.8,0.7-1.3,1.7-1.7,2.8c0.8-1,1.8-1.7,2.9-2.2
				c1.2-0.5,2.3-0.7,3.5-0.7c2.3,0,4.2,0.8,5.8,2.3c1.6,1.6,2.4,3.6,2.4,6c0,2.5-0.9,4.5-2.6,6.2
				C1395.6,1064.9,1393.4,1065.7,1390.8,1065.7z M1386.5,1061c1.1,1.1,2.6,1.6,4.3,1.6c1.7,0,3.1-0.5,4.2-1.6c1.1-1,1.7-2.4,1.7-3.9
				c0-1.6-0.5-3-1.6-4c-1.1-1-2.5-1.6-4.2-1.6c-1.6,0-3,0.5-4.2,1.5c-1.3,1-1.9,2.3-1.9,3.9
				C1384.8,1058.5,1385.4,1059.9,1386.5,1061z"/>
		</g>
		<g class="st13">
			<path class="st3" d="M1405.4,1057.5c0.3,1.6,1.1,2.9,2.2,3.8c1.2,0.9,2.6,1.4,4.4,1.4c2.4,0,4.2-0.9,5.3-2.7l2.7,1.5
				c-1.8,2.8-4.5,4.1-8,4.1c-2.9,0-5.3-0.9-7.1-2.7c-1.8-1.8-2.7-4.1-2.7-6.9c0-2.8,0.9-5,2.7-6.9c1.8-1.8,4.1-2.7,6.9-2.7
				c2.7,0,4.9,0.9,6.6,2.8s2.5,4.2,2.5,6.8c0,0.5,0,0.9-0.1,1.4H1405.4z M1411.8,1049.4c-1.7,0-3.1,0.5-4.2,1.4
				c-1.1,1-1.8,2.2-2.1,3.9h12.2c-0.3-1.7-1-3-2-3.9C1414.5,1049.9,1413.2,1049.4,1411.8,1049.4z"/>
		</g>
		<g class="st13">
			<path class="st3" d="M1445.9,1065.2h-3.7l-6.8-8.7v8.7h-3.1v-8.7l-6.8,8.7h-3.7l7.6-9.4l-7.3-8.8h3.7l6.5,8.1v-8.1h3.1v8.1
				l6.5-8.1h3.7l-7.3,8.8L1445.9,1065.2z"/>
		</g>
		<g class="st13">
			<path class="st3" d="M1462.6,1046.9h3.2v18.3h-3.2v-3.1c-1.6,2.4-3.9,3.6-6.9,3.6c-2.6,0-4.7-0.9-6.5-2.8
				c-1.8-1.9-2.7-4.1-2.7-6.8c0-2.7,0.9-5,2.7-6.8c1.8-1.9,4-2.8,6.5-2.8c3,0,5.3,1.2,6.9,3.6V1046.9z M1456.1,1062.6
				c1.9,0,3.4-0.6,4.6-1.9c1.2-1.3,1.9-2.8,1.9-4.7c0-1.9-0.6-3.4-1.9-4.7c-1.2-1.3-2.8-1.9-4.6-1.9c-1.8,0-3.4,0.6-4.6,1.9
				c-1.2,1.3-1.9,2.8-1.9,4.7c0,1.9,0.6,3.4,1.9,4.7C1452.7,1062,1454.2,1062.6,1456.1,1062.6z"/>
			<path class="st3" d="M1484.2,1046.9v3.1h-6.2v15.2h-3.2V1050h-6.3v-3.1H1484.2z"/>
			<path class="st3" d="M1494.7,1053.5c1.8,0,3.3,0.5,4.6,1.6c1.2,1.1,1.8,2.5,1.8,4.2s-0.6,3.1-1.8,4.2c-1.2,1.1-2.7,1.6-4.6,1.6
				h-7.7v-18.3h3.2v6.6H1494.7z M1494.7,1062.2c0.9,0,1.7-0.3,2.3-0.8c0.6-0.5,0.9-1.2,0.9-2.1c0-0.9-0.3-1.6-0.9-2.1
				c-0.6-0.5-1.4-0.8-2.3-0.8h-4.5v5.8H1494.7z"/>
			<path class="st3" d="M1506.5,1065.6c-0.7,0-1.2-0.2-1.7-0.7c-0.5-0.5-0.7-1-0.7-1.7c0-0.7,0.2-1.2,0.7-1.7c0.5-0.5,1-0.7,1.7-0.7
				c0.7,0,1.2,0.2,1.7,0.7c0.5,0.5,0.7,1,0.7,1.7c0,0.7-0.2,1.2-0.7,1.7C1507.7,1065.4,1507.2,1065.6,1506.5,1065.6z M1505.3,1057.7
				l-0.7-10.8v-7.3h3.8v7.3l-0.7,10.8H1505.3z"/>
		</g>
		<g class="st13">
			<path class="st11" d="M1272.4,831.1v-2l6.5-6.7c1.7-1.7,2.6-3.2,2.6-4.5c0-1-0.3-1.9-1-2.4c-0.6-0.6-1.4-0.9-2.3-0.9
				c-1.7,0-3,0.8-3.8,2.5l-2.1-1.2c0.6-1.2,1.4-2.1,2.4-2.7c1-0.6,2.2-0.9,3.4-0.9c1.5,0,2.9,0.5,4,1.5c1.1,1,1.7,2.4,1.7,4.1
				c0,1.9-1.1,3.9-3.3,6.1l-4.7,4.7h8.4v2.4H1272.4z"/>
			<path class="st11" d="M1303.3,817.8h1.8v13.2h-2.3v-9.3l-7.3,9.3h-1.9v-13.2h2.3v9.3L1303.3,817.8z"/>
			<path class="st11" d="M1320.2,817.5c1.9,0,3.6,0.7,4.9,2c1.3,1.3,2,3,2,4.9s-0.7,3.6-2,4.9c-1.3,1.3-3,2-4.9,2
				c-1.7,0-3.3-0.6-4.5-1.7s-2-2.5-2.3-4.2h-2.5v5.5h-2.3v-13.2h2.3v5.5h2.5c0.2-1.7,1-3.1,2.3-4.2S1318.4,817.5,1320.2,817.5z
				 M1320.2,829.1c1.3,0,2.4-0.4,3.3-1.3c0.9-0.9,1.3-2,1.3-3.4c0-1.3-0.4-2.5-1.3-3.4c-0.9-0.9-2-1.3-3.3-1.3
				c-1.3,0-2.4,0.4-3.3,1.3c-0.9,0.9-1.3,2-1.3,3.4c0,1.3,0.4,2.5,1.3,3.4C1317.7,828.7,1318.8,829.1,1320.2,829.1z"/>
			<path class="st11" d="M1339,817.8h2.3v13.2h-2.3v-5.5h-6.8v5.5h-2.3v-13.2h2.3v5.5h6.8V817.8z"/>
			<path class="st11" d="M1354.7,817.8v13.2h-2.3v-4.8h-1.9l-3.7,4.8h-2.8l3.9-4.9c-1-0.2-1.8-0.7-2.4-1.5c-0.6-0.7-0.9-1.6-0.9-2.6
				c0-1.2,0.4-2.2,1.3-3c0.9-0.8,1.9-1.2,3.3-1.2H1354.7z M1349.1,824.2h3.3V820h-3.3c-0.7,0-1.2,0.2-1.7,0.6
				c-0.5,0.4-0.7,0.9-0.7,1.6c0,0.6,0.2,1.1,0.7,1.5C1347.9,824,1348.5,824.2,1349.1,824.2z"/>
		</g>
		<g class="st13">
			<path class="st11" d="M1276.6,844.3h2.1v18.5h-2.4v-15.9l-3.9,1.2l-0.6-2.1L1276.6,844.3z"/>
			<path class="st11" d="M1294.4,860.5c-1.3,1.7-3,2.6-5.3,2.6c-2.3,0-4-0.9-5.3-2.6c-1.3-1.7-1.9-4.1-1.9-7s0.6-5.2,1.9-7
				c1.3-1.7,3-2.6,5.3-2.6c2.3,0,4,0.9,5.3,2.6c1.3,1.7,1.9,4.1,1.9,7S1295.7,858.7,1294.4,860.5z M1285.7,858.8
				c0.8,1.3,2,1.9,3.5,1.9c1.5,0,2.7-0.6,3.5-1.9c0.8-1.3,1.2-3,1.2-5.3c0-2.3-0.4-4.1-1.2-5.3c-0.8-1.3-2-1.9-3.5-1.9
				c-1.5,0-2.7,0.6-3.5,1.9c-0.8,1.3-1.2,3-1.2,5.3C1284.5,855.8,1284.9,857.6,1285.7,858.8z"/>
			<path class="st11" d="M1300.7,852.7c-0.5,0-0.9-0.2-1.2-0.5c-0.3-0.3-0.5-0.7-0.5-1.2c0-0.5,0.2-0.9,0.5-1.2
				c0.3-0.3,0.7-0.5,1.2-0.5c0.5,0,0.9,0.2,1.2,0.5c0.3,0.3,0.5,0.7,0.5,1.2c0,0.5-0.2,0.9-0.5,1.2
				C1301.6,852.5,1301.2,852.7,1300.7,852.7z M1300.7,863.1c-0.5,0-0.9-0.2-1.2-0.5c-0.3-0.3-0.5-0.7-0.5-1.2c0-0.5,0.2-0.9,0.5-1.2
				c0.3-0.3,0.7-0.5,1.2-0.5c0.5,0,0.9,0.2,1.2,0.5c0.3,0.3,0.5,0.7,0.5,1.2c0,0.5-0.2,0.9-0.5,1.2S1301.2,863.1,1300.7,863.1z"/>
			<path class="st11" d="M1317.5,860.5c-1.3,1.7-3,2.6-5.3,2.6c-2.3,0-4-0.9-5.3-2.6c-1.3-1.7-1.9-4.1-1.9-7s0.6-5.2,1.9-7
				c1.3-1.7,3-2.6,5.3-2.6c2.3,0,4,0.9,5.3,2.6c1.3,1.7,1.9,4.1,1.9,7S1318.7,858.7,1317.5,860.5z M1308.8,858.8
				c0.8,1.3,2,1.9,3.5,1.9c1.5,0,2.7-0.6,3.5-1.9c0.8-1.3,1.2-3,1.2-5.3c0-2.3-0.4-4.1-1.2-5.3c-0.8-1.3-2-1.9-3.5-1.9
				c-1.5,0-2.7,0.6-3.5,1.9c-0.8,1.3-1.2,3-1.2,5.3C1307.5,855.8,1307.9,857.6,1308.8,858.8z"/>
			<path class="st11" d="M1334.1,860.5c-1.3,1.7-3,2.6-5.3,2.6c-2.3,0-4-0.9-5.3-2.6c-1.3-1.7-1.9-4.1-1.9-7s0.6-5.2,1.9-7
				c1.3-1.7,3-2.6,5.3-2.6c2.3,0,4,0.9,5.3,2.6c1.3,1.7,1.9,4.1,1.9,7S1335.4,858.7,1334.1,860.5z M1325.4,858.8
				c0.8,1.3,2,1.9,3.5,1.9c1.5,0,2.7-0.6,3.5-1.9c0.8-1.3,1.2-3,1.2-5.3c0-2.3-0.4-4.1-1.2-5.3c-0.8-1.3-2-1.9-3.5-1.9
				c-1.5,0-2.7,0.6-3.5,1.9c-0.8,1.3-1.2,3-1.2,5.3C1324.2,855.8,1324.6,857.6,1325.4,858.8z"/>
		</g>
		<g class="st13">
			<path class="st11" d="M1288.8,892c-1.9,1.9-4.1,2.8-6.8,2.8c-2.7,0-4.9-0.9-6.8-2.8c-1.8-1.9-2.8-4.1-2.8-6.8
				c0-2.7,0.9-4.9,2.8-6.8c1.9-1.9,4.1-2.8,6.8-2.8c2.7,0,4.9,0.9,6.8,2.8c1.9,1.9,2.8,4.1,2.8,6.8
				C1291.6,887.9,1290.7,890.1,1288.8,892z M1276.9,890.3c1.4,1.4,3.1,2.1,5.1,2.1c2,0,3.7-0.7,5.1-2.1c1.4-1.4,2-3.1,2-5.1
				c0-2-0.7-3.8-2-5.1c-1.4-1.4-3.1-2.1-5.1-2.1c-2,0-3.7,0.7-5.1,2.1c-1.4,1.4-2,3.1-2,5.1C1274.9,887.2,1275.5,889,1276.9,890.3z"
				/>
		</g>
		<g class="st13">
			<path class="st11" d="M1304.8,881.3v13.2h-2.3v-11h-5.2v5.4c0,2.2-0.4,3.7-1.3,4.5c-0.9,0.9-2.1,1.2-3.7,1.1v-2.2
				c0.9,0.1,1.6-0.1,2-0.6c0.4-0.5,0.7-1.5,0.7-2.9v-7.6H1304.8z"/>
			<path class="st11" d="M1317.9,881.3h1.8v13.2h-2.3v-9.3l-7.3,9.3h-1.9v-13.2h2.3v9.3L1317.9,881.3z"/>
			<path class="st11" d="M1336.4,881.3v13.2h-2.2v-9.6l-4.2,6.8h-0.3l-4.2-6.8v9.6h-2.3v-13.2h2.5l4.1,6.7l4.1-6.7H1336.4z"/>
			<path class="st11" d="M1351.4,881.3v13.2h-2.3v-11h-6.8v11h-2.3v-13.2H1351.4z"/>
			<path class="st11" d="M1364.5,881.3h1.8v13.2h-2.3v-9.3l-7.3,9.3h-1.9v-13.2h2.3v9.3L1364.5,881.3z"/>
			<path class="st11" d="M1379.4,881.3h1.9v13.2h-2.3v-9.3l-7.3,9.3h-1.9v-13.2h2.3v9.3L1379.4,881.3z M1372,879.3v-2h7.1v2H1372z"
				/>
			<path class="st11" d="M1390.9,894.8c-2,0-3.6-0.7-5-2c-1.3-1.3-2-3-2-5s0.7-3.6,2-5c1.3-1.3,3-2,5-2c1.3,0,2.5,0.3,3.5,0.9
				c1,0.6,1.8,1.5,2.3,2.5l-1.9,1.1c-0.3-0.7-0.8-1.3-1.5-1.7c-0.7-0.4-1.5-0.6-2.4-0.6c-1.3,0-2.4,0.4-3.3,1.3
				c-0.9,0.9-1.3,2-1.3,3.4c0,1.3,0.4,2.4,1.3,3.3c0.9,0.9,2,1.3,3.3,1.3c0.9,0,1.7-0.2,2.4-0.6c0.7-0.4,1.2-1,1.6-1.7l2,1.1
				c-0.6,1-1.4,1.9-2.4,2.5C1393.4,894.5,1392.2,894.8,1390.9,894.8z"/>
			<path class="st11" d="M1410.4,894.5h-2.9l-6-6.3v6.3h-2.3v-13.2h2.3v5.8l5.7-5.8h3l-6.3,6.4L1410.4,894.5z"/>
			<path class="st11" d="M1422.1,881.3h1.8v13.2h-2.3v-9.3l-7.3,9.3h-1.9v-13.2h2.3v9.3L1422.1,881.3z"/>
			<path class="st11" d="M1437,881.3h1.9v13.2h-2.3v-9.3l-7.3,9.3h-1.9v-13.2h2.3v9.3L1437,881.3z M1429.6,879.3v-2h7.1v2H1429.6z"
				/>
		</g>
		<g class="st13">
			<path class="st11" d="M1460.1,894.5h-2.9l-6-6.3v6.3h-2.3v-13.2h2.3v5.8l5.7-5.8h3l-6.3,6.4L1460.1,894.5z"/>
		</g>
		<g class="st13">
			<path class="st11" d="M1472.2,892.8c-1.4,1.3-3,2-4.9,2c-1.9,0-3.6-0.7-4.9-2c-1.3-1.3-2-3-2-4.9s0.7-3.6,2-4.9
				c1.3-1.3,3-2,4.9-2c1.9,0,3.6,0.7,4.9,2c1.4,1.3,2,3,2,4.9S1473.6,891.5,1472.2,892.8z M1467.3,892.6c1.3,0,2.4-0.4,3.3-1.3
				c0.9-0.9,1.3-2,1.3-3.4c0-1.3-0.4-2.5-1.3-3.4c-0.9-0.9-2-1.3-3.3-1.3c-1.3,0-2.4,0.4-3.3,1.3c-0.9,0.9-1.3,2-1.3,3.4
				c0,1.3,0.4,2.5,1.3,3.4C1464.9,892.1,1466,892.6,1467.3,892.6z"/>
			<path class="st11" d="M1490.2,881.3v13.2h-2.2v-9.6l-4.2,6.8h-0.3l-4.2-6.8v9.6h-2.3v-13.2h2.5l4.1,6.7l4.1-6.7H1490.2z"/>
			<path class="st11" d="M1505.1,881.3v13.2h-2.3v-11h-6.8v11h-2.3v-13.2H1505.1z"/>
			<path class="st11" d="M1519.6,881.3v13.2h-2.3v-11h-5.2v5.4c0,2.2-0.4,3.7-1.3,4.5c-0.9,0.9-2.1,1.2-3.7,1.1v-2.2
				c0.9,0.1,1.6-0.1,2-0.6c0.4-0.5,0.7-1.5,0.7-2.9v-7.6H1519.6z"/>
			<path class="st11" d="M1524.7,888.9c0.2,1.2,0.8,2.1,1.6,2.7c0.9,0.7,1.9,1,3.2,1c1.7,0,3-0.6,3.8-1.9l2,1.1c-1.3,2-3.2,3-5.8,3
				c-2.1,0-3.8-0.7-5.1-2c-1.3-1.3-2-3-2-5c0-2,0.6-3.6,1.9-5s3-2,5-2c1.9,0,3.5,0.7,4.7,2c1.2,1.4,1.8,3,1.8,4.9c0,0.3,0,0.7-0.1,1
				H1524.7z M1529.3,883.1c-1.2,0-2.3,0.3-3.1,1c-0.8,0.7-1.3,1.6-1.5,2.8h8.8c-0.2-1.3-0.7-2.2-1.5-2.9
				C1531.3,883.4,1530.4,883.1,1529.3,883.1z"/>
		</g>
		<g class="st13">
			<path class="st11" d="M1549.7,894.5h-2.9l-6-6.3v6.3h-2.3v-13.2h2.3v5.8l5.7-5.8h3l-6.3,6.4L1549.7,894.5z"/>
		</g>
		<g class="st13">
			<path class="st11" d="M1556.9,894.8c-2,0-3.6-0.7-5-2c-1.3-1.3-2-3-2-5s0.7-3.6,2-5c1.3-1.3,3-2,5-2c1.3,0,2.5,0.3,3.5,0.9
				c1,0.6,1.8,1.5,2.3,2.5l-1.9,1.1c-0.3-0.7-0.9-1.3-1.5-1.7c-0.7-0.4-1.5-0.6-2.4-0.6c-1.3,0-2.4,0.4-3.3,1.3
				c-0.9,0.9-1.3,2-1.3,3.4c0,1.3,0.4,2.4,1.3,3.3c0.9,0.9,2,1.3,3.3,1.3c0.9,0,1.7-0.2,2.4-0.6c0.7-0.4,1.2-1,1.6-1.7l2,1.1
				c-0.6,1-1.4,1.9-2.4,2.5C1559.3,894.5,1558.1,894.8,1556.9,894.8z"/>
		</g>
		<g class="st13">
			<path class="st11" d="M1583.8,881.5l-2.9,4.8l2.9,4.8h-2.5l-2.9-4.8l2.9-4.8H1583.8z M1588.2,881.5l-2.9,4.8l2.9,4.8h-2.5
				l-2.9-4.8l2.9-4.8H1588.2z"/>
		</g>
		<g class="st13">
			<path class="st11" d="M1589.4,894.5v-2.2c1.2,0.2,2.1-0.2,2.7-1c0.6-0.9,0.9-2.4,0.9-4.8V876h12.2v18.5h-2.5v-16.2h-7.3v8.2
				c0,1.7-0.2,3-0.5,4.2c-0.3,1.1-0.7,2-1.3,2.5c-0.6,0.6-1.2,0.9-1.9,1.1C1591.1,894.5,1590.3,894.6,1589.4,894.5z"/>
		</g>
		<g class="st13">
			<path class="st11" d="M1618.2,881.3h2.5l-5.4,14c-0.6,1.5-1.4,2.6-2.4,3.4c-1,0.8-2.2,1.1-3.5,1v-2.1c1.6,0.1,2.8-0.8,3.6-2.6
				l0.2-0.5l-5.7-13.2h2.4l4.5,10.4L1618.2,881.3z"/>
		</g>
		<g class="st13">
			<path class="st11" d="M1638.5,894.5h-2.7l-4.9-6.3v6.3h-2.3v-6.3l-4.9,6.3h-2.7l5.5-6.8l-5.3-6.4h2.7l4.7,5.8v-5.8h2.3v5.8
				l4.7-5.8h2.7l-5.3,6.4L1638.5,894.5z"/>
			<path class="st11" d="M1649.8,881.3h2.3v13.2h-2.3v-5.5h-6.8v5.5h-2.3v-13.2h2.3v5.5h6.8V881.3z"/>
			<path class="st11" d="M1665.2,881.3h1.8v13.2h-2.3v-9.3l-7.3,9.3h-1.9v-13.2h2.3v9.3L1665.2,881.3z"/>
			<path class="st11" d="M1681.7,894.5h-2.9l-6-6.3v6.3h-2.3v-13.2h2.3v5.8l5.7-5.8h3l-6.3,6.4L1681.7,894.5z"/>
			<path class="st11" d="M1693.5,881.3h1.8v13.2h-2.3v-9.3l-7.3,9.3h-1.9v-13.2h2.3v9.3L1693.5,881.3z"/>
			<path class="st11" d="M1701.3,881.5l2.9,4.8l-2.9,4.8h-2.5l2.9-4.8l-2.9-4.8H1701.3z M1705.8,881.5l2.9,4.8l-2.9,4.8h-2.5
				l2.9-4.8l-2.9-4.8H1705.8z"/>
		</g>
		<rect x="284.3" y="480.4" class="st14" width="1585.5" height="831"/>
		<rect x="281.6" y="481.7" class="st14" width="1590.7" height="829.7"/>
	</g>
</g>
<g>
	<defs>
		<rect id="SVGID_3_" x="284.3" y="1388.1" width="1585.5" height="829.7"/>
	</defs>
	<clipPath id="SVGID_4_">
		<use xlink:href="#SVGID_3_"  style="overflow:visible;"/>
	</clipPath>
	<g class="st15">
		<path class="st16" d="M989.8,1504.3c-19.8,101.7,103.1,120.2,103.1,120.2"/>
		<rect x="281.6" y="1388.1" class="st3" width="1590.7" height="828.4"/>
		<path class="st17" d="M1278.7,1883.3c-20,0.5-46.7,22.1-51.5,40.2c-4.9,18.1-2.7,45.4,4.7,56.2c7.4,10.8,44,23.2,55.5,23.5
			c14.2,0.4,45.9-24,51.5-33c5.6-9,20.7-53.2,11.2-63C1339.8,1896.6,1292.2,1883,1278.7,1883.3z"/>
		<path class="st11" d="M1520.5,1895.1c-9.6-14.1-33.9-26.6-67.1-13.5c-44.2,17.5-71.2,24.7-115.8,20.5s-102.3,47.7-35.7,119.9
			C1368.6,2094.2,1590.3,1997,1520.5,1895.1z"/>
		<path class="st11" d="M1989.9,2128.3c-9.6-14.1-33.9-26.6-67.1-13.5c-44.2,17.5-71.1,24.7-115.8,20.5
			c-44.6-4.2-102.3,47.7-35.7,119.9C1838,2327.5,2059.6,2230.2,1989.9,2128.3z"/>
		<path class="st6" d="M1515.3,1907c-9.7-14.1-34-26.6-67.1-13.4c-44.2,17.5-71.1,24.7-115.8,20.5c-44.6-4.2-102.3,47.7-35.7,119.9
			S1585,2008.9,1515.3,1907z"/>
		<path class="st18" d="M1586.6,1686.1c0,0-2.4,37.4,41.8,41.4"/>
		<path class="st19" d="M1114.8,1676.6c0,0,33.6,7.3,37.9-28.4"/>
		<path class="st20" d="M1347.7,2169.2c0,0-10.5-49.1-68.9-38.3"/>
		<path class="st21" d="M1748.9,1930c0,0,38.4,39.6,81.4,9.4c43-30.2-38.8-92.7-0.9-124.5c38-31.8,66.8,52.7,99.8,32.5
			s-0.5-78-0.5-78"/>
		<path class="st22" d="M1949,1298.9c-36.6-35.3-79.2-36-134.8,2s-136.4,38-165.5,100.4c-29.1,62.5,33.2,218.7,124.7,214
			c104.6-5.3,76.1-128.6,131.2-178.5S1987.8,1336.4,1949,1298.9z"/>
		<g class="st13">
			<path class="st17" d="M1314,1540.3l-9.8,0.1l-26.2-28.6l0.3,28.9l-8,0.1l-0.6-60.1l8-0.1l0.3,27.1l24.8-27.4l9.8-0.1l-26.2,29.5
				L1314,1540.3z"/>
		</g>
		<g class="st13">
			<path class="st17" d="M1342.3,1479.9c5.6-0.1,10.2,1.7,13.9,5.4c3.7,3.7,5.6,8.2,5.7,13.7c0.1,5.4-1.7,10-5.4,13.8
				c-3.7,3.8-8.3,5.7-13.8,5.7l-13.8,0.1l0.2,21.5l-8,0.1l-0.6-60.1L1342.3,1479.9z M1342.6,1511.1c3.3,0,6.1-1.2,8.2-3.5
				c2.2-2.3,3.2-5.1,3.2-8.5c0-3.4-1.2-6.3-3.3-8.5c-2.2-2.2-5-3.3-8.3-3.3l-13.8,0.1l0.2,23.7L1342.6,1511.1z"/>
		</g>
		<g class="st13">
			<path class="st17" d="M1405.3,1539.4l-5-13.4l-27.1,0.3l-4.8,13.5l-8.5,0.1l21.8-60.3l9-0.1l23,59.9L1405.3,1539.4z
				 M1375.9,1518.7l21.6-0.2l-11.1-29.5L1375.9,1518.7z"/>
		</g>
		<g class="st13">
			<path class="st17" d="M1447,1540.1c-9.1,0.1-16.6-2.8-22.6-8.8c-6-6-9-13.3-9.1-22.1c-0.1-8.8,2.8-16.2,8.7-22.2
				c5.9-6.1,13.3-9.2,22.5-9.2c5.5-0.1,10.6,1.2,15.2,3.8c4.6,2.6,8.3,6.1,10.9,10.5l-6.9,4.1c-1.8-3.3-4.3-5.9-7.8-7.9
				s-7.2-2.9-11.3-2.9c-6.9,0.1-12.6,2.4-16.9,6.9c-4.3,4.5-6.5,10.1-6.4,16.8c0.1,6.6,2.3,12.2,6.7,16.6c4.4,4.4,10.1,6.6,17,6.5
				c4.1,0,7.9-1.1,11.3-3.1c3.4-2,5.9-4.7,7.6-7.9l7,3.9c-2.5,4.5-6,8.1-10.6,10.8C1457.6,1538.7,1452.5,1540.1,1447,1540.1z"/>
		</g>
		<g class="st13">
			<path class="st17" d="M1531.7,1530.2c-6,6.1-13.3,9.2-22,9.3c-8.7,0.1-16.1-2.9-22.2-8.9c-6.1-6-9.2-13.3-9.2-22
				c-0.1-8.7,2.8-16.1,8.8-22.2c6-6.1,13.3-9.2,22-9.3c8.7-0.1,16.1,2.9,22.2,8.8c6.1,6,9.2,13.3,9.3,22
				C1540.7,1516.6,1537.7,1524,1531.7,1530.2z M1493,1525.1c4.5,4.5,10,6.6,16.6,6.6c6.6-0.1,12.1-2.4,16.5-6.9
				c4.4-4.5,6.6-10.1,6.5-16.7c-0.1-6.6-2.3-12.2-6.8-16.6c-4.5-4.4-10-6.6-16.6-6.6c-6.6,0.1-12.1,2.4-16.5,6.9
				c-4.4,4.5-6.6,10.1-6.5,16.8C1486.3,1515.1,1488.5,1520.6,1493,1525.1z"/>
		</g>
		<g class="st13">
			<path class="st17" d="M1582,1477.5l8-0.1l0.6,60.1l-8,0.1l-0.2-24.2c-4.7,2.3-9.6,3.4-14.7,3.5c-5.8,0.1-10.6-1.5-14.2-4.8
				c-3.6-3.3-5.5-7.5-5.5-12.8l-0.2-21.5l8-0.1l0.2,21c0,3.3,1.1,5.9,3.2,7.8c2.1,1.9,5,2.9,8.6,2.8c5.2-0.1,10-1.2,14.7-3.5
				L1582,1477.5z"/>
			<path class="st17" d="M1640.1,1476.9l7.9-0.1l0.6,60.1l-7.9,0.1l-0.3-27.1l-29.2,0.3l0.3,27.1l-8,0.1l-0.6-60.1l8-0.1l0.3,25.5
				l29.2-0.3L1640.1,1476.9z"/>
			<path class="st17" d="M1661.5,1536.8l-0.6-60.1l8-0.1l0.2,21.5l13.8-0.1c5.6-0.1,10.2,1.8,13.9,5.4c3.7,3.7,5.6,8.2,5.7,13.7
				c0.1,5.5-1.7,10.1-5.4,13.8c-3.7,3.7-8.3,5.6-13.8,5.7L1661.5,1536.8z M1669.4,1529.3l13.8-0.1c3.3,0,6.1-1.2,8.2-3.4
				c2.2-2.3,3.2-5.1,3.2-8.5c0-3.4-1.2-6.3-3.3-8.5c-2.2-2.2-5-3.3-8.3-3.3l-13.8,0.1L1669.4,1529.3z M1708.8,1536.4l-0.6-60.1
				l8-0.1l0.6,60.1L1708.8,1536.4z"/>
			<path class="st17" d="M1767,1535.8l-0.4-44.8l-30.5,45.1l-6.4,0.1l-0.6-60.1l8-0.1l0.4,44.9l30.5-45.2l6.4-0.1l0.6,60.1
				L1767,1535.8z M1740,1469.5l-0.1-6.5l23.2-0.2l0.1,6.5L1740,1469.5z"/>
		</g>
		<g class="st13">
			<path class="st17" d="M1300.2,1612.4c3.1,1.3,5.5,3.2,7.3,5.7c1.7,2.5,2.6,5.5,2.7,8.9c0.1,5.2-1.8,9.4-5.7,12.7
				c-3.8,3.3-8.9,5-15.3,5c-5.8,0.1-10.4-1.2-14-3.7c-3.5-2.5-6.1-5.8-7.5-9.9l6.7-3.9c1.8,6.7,6.7,10.1,14.7,10
				c4.2,0,7.4-1,9.7-2.9c2.3-1.9,3.4-4.4,3.4-7.5c0-3.1-1.1-5.6-3.3-7.4c-2.2-1.9-5.2-2.8-9-2.7l-7,0.1l-0.1-7.3l5.1-0.1
				c3.7,0,6.6-1,8.7-2.8c2.2-1.8,3.2-4.2,3.2-7.1c0-2.9-1.1-5.2-3.1-7c-2.1-1.8-4.9-2.7-8.5-2.6c-6.6,0.1-11,3.1-13.2,9l-6.7-3.8
				c3.5-8.3,10.2-12.6,19.9-12.7c5.8-0.1,10.5,1.5,14.1,4.7c3.6,3.2,5.4,7.2,5.5,12.1C1307.7,1604.9,1305.2,1609.3,1300.2,1612.4z"
				/>
			<path class="st17" d="M1359.3,1642.9l-5-13.4l-27.1,0.3l-4.8,13.5l-8.5,0.1l21.8-60.3l9-0.1l23,59.9L1359.3,1642.9z
				 M1329.9,1622.3l21.6-0.2l-11.1-29.5L1329.9,1622.3z"/>
			<path class="st17" d="M1397.2,1606.1c5.2-0.1,9.6,1.7,13.3,5.1c3.6,3.5,5.5,7.8,5.5,12.9c0.1,5.2-1.7,9.6-5.2,13.1
				c-3.5,3.5-7.9,5.3-13.2,5.4l-22.6,0.2l-0.6-60.1l36.1-0.4l0.1,7.6l-28.1,0.3l0.2,16.1L1397.2,1606.1z M1397.5,1635.1
				c3,0,5.5-1.1,7.6-3.2c2.1-2.1,3.1-4.7,3.1-7.8c0-3-1.1-5.6-3.2-7.6c-2.1-2-4.7-3-7.6-3l-14.6,0.1l0.2,21.6L1397.5,1635.1z"/>
			<path class="st17" d="M1433.1,1634.6l27.9-0.3l0.1,7.6l-35.9,0.4l-0.6-60.1l35.5-0.4l0.1,7.6l-27.5,0.3l0.2,18.5l25.3-0.3
				l0.1,7.5l-25.3,0.3L1433.1,1634.6z"/>
			<path class="st17" d="M1503.9,1581.4l0.1,7.6l-25.8,0.3l0.5,52.6l-8,0.1l-0.6-60.1L1503.9,1581.4z"/>
		</g>
		<g class="st13">
			<path class="st17" d="M1285.9,2124.6l0.2,18.5l-2.5,0l-0.2-16.2l-8.5,0.1l0.2,16.2l-2.5,0l-0.2-18.5L1285.9,2124.6z"/>
		</g>
		<g class="st13">
			<path class="st17" d="M1300.9,2141.3c-1.3,1.4-3,2-4.9,2.1s-3.6-0.6-4.9-2c-1.4-1.3-2.1-3-2.1-4.9c0-2,0.6-3.6,2-5
				c1.3-1.4,3-2,4.9-2.1c1.9,0,3.6,0.6,5,2c1.4,1.3,2.1,3,2.1,4.9C1302.9,2138.3,1302.3,2140,1300.9,2141.3z M1296,2141.1
				c1.3,0,2.4-0.5,3.3-1.4c0.9-0.9,1.3-2,1.3-3.4c0-1.3-0.5-2.5-1.4-3.3c-0.9-0.9-2-1.3-3.3-1.3c-1.3,0-2.4,0.5-3.3,1.4
				c-0.9,0.9-1.3,2-1.3,3.4c0,1.3,0.5,2.5,1.4,3.3C1293.6,2140.7,1294.7,2141.1,1296,2141.1z"/>
		</g>
		<g class="st13">
			<path class="st17" d="M1316.5,2140.6l1.8,0l0.1,5.7l-2.3,0l0-3.5l-9.9,0.1l0,3.5l-2.3,0l-0.1-5.7l1.6,0c0.8-1.2,1.2-2.8,1.2-4.9
				l-0.1-6.1l9.8-0.1L1316.5,2140.6z M1308.1,2140.7l6.1-0.1l-0.1-8.9l-5.2,0.1l0,4C1309,2137.8,1308.7,2139.4,1308.1,2140.7z"/>
			<path class="st17" d="M1328,2129.1c1.8,0,3.4,0.6,4.7,2c1.3,1.3,2,3,2,4.9c0,1.9-0.6,3.6-1.9,4.9c-1.3,1.4-2.9,2.1-4.7,2.1
				c-2.2,0-3.9-0.8-5-2.6l0.1,7.6l-2.3,0l-0.2-18.5l2.3,0l0,2.3C1324.1,2130.1,1325.8,2129.2,1328,2129.1z M1327.8,2140.8
				c1.3,0,2.4-0.5,3.3-1.4c0.9-0.9,1.3-2,1.3-3.4c0-1.3-0.5-2.5-1.4-3.4c-0.9-0.9-2-1.3-3.3-1.3c-1.3,0-2.5,0.5-3.3,1.4
				c-0.9,0.9-1.3,2-1.3,3.4c0,1.3,0.5,2.5,1.4,3.4C1325.3,2140.4,1326.5,2140.8,1327.8,2140.8z"/>
			<path class="st17" d="M1348.7,2140.8c-1.3,1.4-3,2-4.9,2.1c-1.9,0-3.6-0.6-4.9-2c-1.4-1.3-2.1-3-2.1-4.9c0-2,0.6-3.6,2-5
				c1.3-1.4,3-2,4.9-2.1s3.6,0.6,5,2c1.4,1.3,2.1,3,2.1,4.9C1350.7,2137.8,1350,2139.5,1348.7,2140.8z M1343.7,2140.6
				c1.3,0,2.4-0.5,3.3-1.4c0.9-0.9,1.3-2,1.3-3.4c0-1.3-0.5-2.5-1.4-3.3c-0.9-0.9-2-1.3-3.3-1.3c-1.3,0-2.4,0.5-3.3,1.4
				c-0.9,0.9-1.3,2-1.3,3.4c0,1.3,0.5,2.5,1.4,3.3C1341.3,2140.2,1342.4,2140.6,1343.7,2140.6z"/>
			<path class="st17" d="M1359.5,2142.7c-2,0-3.6-0.6-4.9-1.9c-1.3-1.3-1.9-2.9-2-4.9c0-2.3,0.3-4,0.9-5.2c0.6-1.2,2-2.3,4-3.3
				c0.4-0.2,0.9-0.4,1.5-0.7c0.6-0.3,1.1-0.5,1.4-0.7c0.3-0.2,0.6-0.4,1-0.6c0.4-0.3,0.6-0.5,0.8-0.9c0.2-0.3,0.3-0.7,0.4-1.1l1.9,1
				c-0.1,0.3-0.1,0.5-0.2,0.8c-0.1,0.2-0.2,0.5-0.4,0.7c-0.2,0.2-0.3,0.4-0.4,0.6c-0.1,0.2-0.3,0.3-0.6,0.5
				c-0.3,0.2-0.5,0.3-0.6,0.4c-0.1,0.1-0.4,0.2-0.8,0.4c-0.4,0.2-0.6,0.3-0.8,0.4c-0.1,0.1-0.4,0.2-0.9,0.4
				c-0.5,0.2-0.7,0.3-0.8,0.4c-1.2,0.5-2.1,1.1-2.6,1.6c-0.5,0.5-0.9,1.2-1.2,2c0.6-0.7,1.3-1.2,2.1-1.6c0.8-0.3,1.7-0.5,2.5-0.5
				c1.7,0,3.1,0.5,4.2,1.6c1.2,1.1,1.8,2.6,1.8,4.3c0,1.8-0.6,3.3-1.8,4.5C1362.9,2142.1,1361.4,2142.7,1359.5,2142.7z
				 M1356.3,2139.4c0.8,0.8,1.9,1.1,3.1,1.1c1.2,0,2.2-0.4,3-1.2c0.8-0.8,1.2-1.7,1.2-2.9c0-1.2-0.4-2.1-1.2-2.9
				c-0.8-0.7-1.8-1.1-3-1.1c-1.1,0-2.1,0.4-3,1.1c-0.9,0.7-1.3,1.7-1.3,2.8C1355.1,2137.6,1355.5,2138.6,1356.3,2139.4z"/>
			<path class="st17" d="M1377.5,2129l2.3,0l0.1,13.2l-2.3,0l-0.1-5.5l-6.8,0.1l0.1,5.5l-2.3,0l-0.1-13.2l2.3,0l0.1,5.5l6.8-0.1
				L1377.5,2129z"/>
			<path class="st17" d="M1394.5,2140.4c-1.3,1.4-3,2-4.9,2.1c-1.9,0-3.6-0.6-4.9-2c-1.4-1.3-2.1-3-2.1-4.9c0-2,0.6-3.6,2-5
				c1.3-1.4,3-2,4.9-2.1s3.6,0.6,5,2c1.4,1.3,2.1,3,2.1,4.9C1396.5,2137.4,1395.9,2139,1394.5,2140.4z M1389.6,2140.2
				c1.3,0,2.4-0.5,3.3-1.4c0.9-0.9,1.3-2,1.3-3.4c0-1.3-0.5-2.5-1.4-3.3c-0.9-0.9-2-1.3-3.3-1.3c-1.3,0-2.4,0.5-3.3,1.4
				c-0.9,0.9-1.3,2-1.3,3.4c0,1.3,0.5,2.5,1.4,3.3C1387.2,2139.8,1388.3,2140.2,1389.6,2140.2z"/>
		</g>
		<g class="st13">
			<path class="st17" d="M1405.5,2142.3c-2,0-3.7-0.6-5-1.9c-1.3-1.3-2-3-2-4.9c0-2,0.6-3.6,1.9-5c1.3-1.3,3-2,4.9-2
				c1.3,0,2.5,0.3,3.5,0.9c1,0.6,1.8,1.4,2.3,2.5l-1.9,1.1c-0.3-0.7-0.9-1.3-1.6-1.7c-0.7-0.4-1.5-0.6-2.4-0.6
				c-1.3,0-2.4,0.5-3.3,1.4c-0.9,0.9-1.3,2-1.3,3.4c0,1.3,0.5,2.4,1.4,3.3c0.9,0.9,2,1.3,3.3,1.3c0.9,0,1.7-0.2,2.4-0.6
				c0.7-0.4,1.2-1,1.6-1.7l2,1.1c-0.6,1-1.4,1.9-2.4,2.5C1408,2141.9,1406.8,2142.3,1405.5,2142.3z"/>
		</g>
		<g class="st13">
			<path class="st17" d="M1423.2,2128.5l0,2.2l-4.5,0l0.1,11l-2.3,0l-0.1-11l-4.5,0l0-2.2L1423.2,2128.5z"/>
			<path class="st17" d="M1434.8,2128.4l1.8,0l0.1,13.2l-2.3,0l-0.1-9.3l-7.2,9.3l-1.8,0l-0.1-13.2l2.3,0l0.1,9.3L1434.8,2128.4z"/>
			<path class="st17" d="M1455.9,2128.2l2.3,0l0.1,13.2l-2.3,0l-0.1-5.5l-6.8,0.1l0.1,5.5l-2.3,0l-0.1-13.2l2.3,0l0.1,5.5l6.8-0.1
				L1455.9,2128.2z"/>
			<path class="st17" d="M1472.6,2128l2.3,0l0.1,13.2l-2.3,0l0-2.3c-1.1,1.8-2.8,2.6-5,2.7c-1.9,0-3.4-0.6-4.8-2c-1.3-1.3-2-3-2-4.9
				c0-1.9,0.6-3.6,1.9-4.9c1.3-1.4,2.9-2.1,4.7-2.1c2.2,0,3.9,0.8,5,2.6L1472.6,2128z M1468,2139.4c1.3,0,2.5-0.5,3.3-1.4
				c0.9-0.9,1.3-2,1.3-3.4c0-1.3-0.5-2.5-1.4-3.4c-0.9-0.9-2-1.3-3.4-1.3c-1.3,0-2.4,0.5-3.3,1.4c-0.9,0.9-1.3,2-1.3,3.4
				c0,1.3,0.5,2.5,1.4,3.4C1465.6,2139,1466.7,2139.4,1468,2139.4z"/>
		</g>
		<g class="st13">
			<path class="st17" d="M1491.3,2141.4c-2,0-3.7-0.6-5-1.9c-1.3-1.3-2-3-2-4.9c0-2,0.6-3.6,1.9-5c1.3-1.3,3-2,4.9-2
				c1.3,0,2.5,0.3,3.5,0.9c1,0.6,1.8,1.4,2.3,2.5l-1.9,1.1c-0.3-0.7-0.9-1.3-1.6-1.7c-0.7-0.4-1.5-0.6-2.4-0.6
				c-1.3,0-2.4,0.5-3.3,1.4c-0.9,0.9-1.3,2-1.3,3.4c0,1.3,0.5,2.4,1.4,3.3c0.9,0.9,2,1.3,3.3,1.3c0.9,0,1.7-0.2,2.4-0.6
				c0.7-0.4,1.2-1,1.6-1.7l2,1.1c-0.6,1-1.4,1.9-2.4,2.5C1493.8,2141.1,1492.6,2141.4,1491.3,2141.4z"/>
		</g>
		<g class="st13">
			<path class="st17" d="M1510.2,2127.7l2.3,0l0.1,13.2l-2.3,0l0-2.3c-1.1,1.8-2.8,2.6-5,2.7c-1.9,0-3.4-0.6-4.8-2
				c-1.3-1.3-2-3-2-4.9c0-1.9,0.6-3.6,1.9-4.9c1.3-1.4,2.9-2.1,4.7-2.1c2.2,0,3.9,0.8,5,2.6L1510.2,2127.7z M1505.6,2139
				c1.3,0,2.5-0.5,3.3-1.4c0.9-0.9,1.3-2,1.3-3.4c0-1.3-0.5-2.5-1.4-3.4c-0.9-0.9-2-1.3-3.4-1.3c-1.3,0-2.4,0.5-3.3,1.4
				c-0.9,0.9-1.3,2-1.3,3.4c0,1.3,0.5,2.5,1.4,3.4C1503.2,2138.6,1504.3,2139.1,1505.6,2139z"/>
			<path class="st17" d="M1525.6,2127.5l1.9,0l0.1,13.2l-2.3,0l-0.1-9.3l-7.2,9.3l-1.8,0l-0.1-13.2l2.3,0l0.1,9.3L1525.6,2127.5z
				 M1518.1,2125.6l0-2l7.1-0.1l0,2L1518.1,2125.6z"/>
		</g>
		<g class="st13">
			<path class="st17" d="M1540.7,2127.4l0,2.2l-4.5,0l0.1,11l-2.3,0l-0.1-11l-4.5,0l0-2.2L1540.7,2127.4z"/>
		</g>
		<g class="st13">
			<path class="st17" d="M1543.9,2135c0.2,1.2,0.8,2.1,1.7,2.7c0.9,0.6,1.9,1,3.2,0.9c1.7,0,3-0.7,3.8-2l2,1.1c-1.3,2-3.2,3-5.8,3
				c-2.1,0-3.8-0.6-5.1-1.9c-1.3-1.3-2-3-2-5c0-2,0.6-3.7,1.9-5c1.3-1.3,2.9-2,5-2c1.9,0,3.5,0.6,4.8,2c1.2,1.4,1.9,3,1.9,4.9
				c0,0.3,0,0.7-0.1,1L1543.9,2135z M1548.4,2129.1c-1.2,0-2.3,0.4-3.1,1.1c-0.8,0.7-1.3,1.6-1.5,2.8l8.8-0.1
				c-0.2-1.2-0.7-2.2-1.5-2.8C1550.4,2129.4,1549.5,2129.1,1548.4,2129.1z"/>
			<path class="st17" d="M1566.5,2129.3c0.7-1.6,2.1-2.5,4.1-2.5l0,2.4c-1.1,0-2.1,0.3-2.9,0.9c-0.8,0.7-1.2,1.7-1.2,3.2l0.1,7
				l-2.3,0l-0.1-13.2l2.3,0L1566.5,2129.3z"/>
			<path class="st17" d="M1582,2126.9l2.3,0l0.1,13.2l-2.3,0l0-1.9c-0.9,1.5-2.3,2.3-4.3,2.3c-1.6,0-2.8-0.5-3.7-1.4
				c-0.9-1-1.4-2.3-1.4-4l-0.1-8.1l2.3,0l0.1,8c0,1.1,0.3,1.9,0.9,2.5c0.6,0.6,1.4,0.9,2.4,0.9c1.1,0,2.1-0.4,2.8-1.1
				c0.7-0.7,1-1.8,1-3.3L1582,2126.9z"/>
			<path class="st17" d="M1594.4,2126.5c1.5,0,2.8,0.5,3.7,1.4c0.9,1,1.4,2.3,1.4,4l0.1,8.1l-2.3,0l-0.1-8c0-1.1-0.3-1.9-0.9-2.5
				c-0.6-0.6-1.4-0.9-2.4-0.9c-1.1,0-2.1,0.4-2.8,1.1c-0.7,0.7-1,1.8-1,3.3l0.1,7l-2.3,0l-0.1-13.2l2.3,0l0,1.9
				C1591,2127.3,1592.4,2126.5,1594.4,2126.5z"/>
		</g>
		<g class="st13">
			<path class="st17" d="M1609,2140.2c-2,0-3.7-0.6-5-1.9c-1.3-1.3-2-3-2-4.9c0-2,0.6-3.6,1.9-5c1.3-1.3,3-2,4.9-2
				c1.3,0,2.5,0.3,3.5,0.9c1,0.6,1.8,1.4,2.3,2.5l-1.9,1.1c-0.3-0.7-0.9-1.3-1.6-1.7c-0.7-0.4-1.5-0.6-2.4-0.6
				c-1.3,0-2.4,0.5-3.3,1.4c-0.9,0.9-1.3,2-1.3,3.4c0,1.3,0.5,2.4,1.4,3.3c0.9,0.9,2,1.3,3.3,1.3c0.9,0,1.7-0.2,2.4-0.6
				c0.7-0.4,1.2-1,1.6-1.7l2,1.1c-0.6,1-1.4,1.9-2.4,2.5C1611.5,2139.9,1610.3,2140.2,1609,2140.2z"/>
		</g>
		<g class="st13">
			<path class="st17" d="M1617.9,2140.1c-0.5,0-0.9-0.2-1.2-0.5c-0.3-0.3-0.5-0.7-0.5-1.2c0-0.5,0.2-0.9,0.5-1.2
				c0.3-0.3,0.7-0.5,1.2-0.5c0.5,0,0.9,0.2,1.2,0.5c0.3,0.3,0.5,0.7,0.5,1.2c0,0.5-0.2,0.9-0.5,1.2
				C1618.8,2139.9,1618.4,2140.1,1617.9,2140.1z"/>
			<path class="st17" d="M1625.1,2128.7c0.7-1.6,2.1-2.5,4.1-2.5l0,2.4c-1.1,0-2.1,0.3-2.9,0.9s-1.2,1.7-1.2,3.2l0.1,7l-2.3,0
				l-0.1-13.2l2.3,0L1625.1,2128.7z"/>
			<path class="st17" d="M1640.5,2126.4l2.3,0l0.1,13.2l-2.3,0l0-1.9c-0.9,1.5-2.3,2.3-4.3,2.3c-1.6,0-2.8-0.5-3.7-1.4
				c-0.9-1-1.4-2.3-1.4-4l-0.1-8.1l2.3,0l0.1,8c0,1.1,0.3,1.9,0.9,2.5c0.6,0.6,1.4,0.9,2.4,0.9c1.1,0,2.1-0.4,2.8-1.1
				c0.7-0.7,1-1.8,1-3.3L1640.5,2126.4z"/>
			<path class="st17" d="M1652.9,2125.9c1.5,0,2.8,0.5,3.7,1.4c0.9,1,1.4,2.3,1.4,4l0.1,8.1l-2.3,0l-0.1-8c0-1.1-0.3-1.9-0.9-2.5
				c-0.6-0.6-1.4-0.9-2.4-0.9c-1.1,0-2.1,0.4-2.8,1.1c-0.7,0.7-1,1.8-1,3.3l0.1,7l-2.3,0l-0.1-13.2l2.3,0l0,1.9
				C1649.6,2126.7,1651,2125.9,1652.9,2125.9z"/>
		</g>
		<g class="st13">
			<path class="st3" d="M1312.8,1973.8l-3.9,0l-6.4-10l-6.2,10.2l-3.8,0l8.1-13.2l-7.9-12.4l3.8,0l5.9,9.3l5.7-9.4l3.8,0l-7.6,12.5
				L1312.8,1973.8z"/>
		</g>
		<g class="st13">
			<path class="st3" d="M1330,1971.3c-1.9,1.9-4.1,2.8-6.8,2.8c-2.7,0-5-0.9-6.8-2.7c-1.9-1.8-2.8-4.1-2.9-6.8s0.9-5,2.7-6.9
				c1.8-1.9,4.1-2.8,6.8-2.8c2.7,0,5,0.9,6.9,2.7c1.9,1.8,2.9,4.1,2.9,6.8S1331.8,1969.5,1330,1971.3z M1323.1,1971.1
				c1.8,0,3.4-0.7,4.6-1.9c1.2-1.3,1.8-2.8,1.8-4.7c0-1.9-0.7-3.4-1.9-4.6c-1.3-1.2-2.8-1.8-4.6-1.8c-1.8,0-3.3,0.7-4.6,1.9
				c-1.2,1.3-1.8,2.8-1.8,4.7c0,1.9,0.7,3.4,1.9,4.6C1319.8,1970.5,1321.3,1971.1,1323.1,1971.1z"/>
		</g>
		<g class="st13">
			<path class="st3" d="M1347.5,1955.2l3.2,0l0.2,18.3l-3.2,0l-0.1-6.6c-1.5,0.6-3.1,1-4.9,1c-2.3,0-4.2-0.5-5.4-1.6
				c-1.3-1.1-1.9-2.7-2-4.9l-0.1-6.1l3.2,0l0.1,5.9c0,1.4,0.4,2.3,1.1,2.9c0.7,0.6,1.8,0.9,3.3,0.8c1.7,0,3.3-0.3,4.7-1
				L1347.5,1955.2z"/>
			<path class="st3" d="M1368.3,1955l3.4,0l-7.3,19.5c-0.8,2.1-1.8,3.7-3.2,4.8c-1.4,1.1-3,1.6-4.8,1.5l0-3c2.2,0.1,3.9-1.1,4.9-3.7
				l0.3-0.7l-8.1-18.2l3.4,0l6.4,14.3L1368.3,1955z"/>
			<path class="st3" d="M1392,1973.5c-2.7,0-4.9-0.8-6.7-2.6c-1.8-1.8-2.7-4-2.7-6.8c0-3.1,0.4-5.5,1.3-7.2c0.9-1.7,2.8-3.2,5.6-4.6
				c0.5-0.2,1.2-0.6,2.1-1c0.9-0.4,1.5-0.7,1.9-0.9c0.4-0.2,0.9-0.5,1.4-0.9c0.5-0.4,0.9-0.8,1.1-1.2c0.3-0.4,0.4-0.9,0.6-1.5
				l2.6,1.4c-0.1,0.4-0.2,0.8-0.3,1.1c-0.1,0.3-0.3,0.6-0.5,1c-0.2,0.3-0.4,0.6-0.6,0.8c-0.2,0.2-0.5,0.5-0.9,0.7
				c-0.4,0.3-0.7,0.5-0.9,0.6c-0.2,0.1-0.5,0.3-1.1,0.6c-0.5,0.2-0.9,0.4-1.1,0.5c-0.2,0.1-0.6,0.3-1.2,0.5c-0.6,0.3-1,0.4-1.2,0.5
				c-1.7,0.7-2.9,1.5-3.6,2.2c-0.8,0.7-1.3,1.7-1.6,2.8c0.8-1,1.7-1.7,2.9-2.2c1.2-0.5,2.3-0.7,3.5-0.7c2.3,0,4.2,0.7,5.9,2.3
				c1.6,1.5,2.4,3.5,2.5,6c0,2.5-0.8,4.5-2.5,6.2C1396.8,1972.6,1394.6,1973.5,1392,1973.5z M1387.6,1968.9c1.2,1.1,2.6,1.6,4.3,1.6
				c1.7,0,3.1-0.6,4.2-1.6c1.1-1.1,1.6-2.4,1.6-4c0-1.6-0.6-3-1.6-4c-1.1-1-2.5-1.5-4.2-1.5c-1.6,0-3,0.5-4.2,1.5
				c-1.2,1-1.9,2.3-1.8,3.9C1385.9,1966.4,1386.5,1967.8,1387.6,1968.9z"/>
		</g>
		<g class="st13">
			<path class="st3" d="M1406.5,1965.2c0.3,1.6,1.1,2.9,2.3,3.8c1.2,0.9,2.7,1.3,4.4,1.3c2.4,0,4.2-0.9,5.2-2.7l2.7,1.5
				c-1.8,2.8-4.4,4.2-8,4.2c-2.9,0-5.3-0.9-7.1-2.7c-1.8-1.8-2.8-4.1-2.8-6.9c0-2.8,0.8-5.1,2.6-6.9c1.8-1.8,4.1-2.8,6.9-2.8
				c2.7,0,4.9,0.9,6.6,2.8c1.7,1.9,2.6,4.1,2.6,6.8c0,0.5,0,0.9-0.1,1.4L1406.5,1965.2z M1412.8,1957.1c-1.7,0-3.1,0.5-4.2,1.5
				c-1.1,1-1.8,2.3-2,3.9l12.2-0.1c-0.3-1.7-1-3-2.1-3.9C1415.5,1957.5,1414.2,1957,1412.8,1957.1z"/>
		</g>
		<g class="st13">
			<path class="st3" d="M1447,1972.5l-3.7,0l-6.9-8.6l0.1,8.7l-3.1,0l-0.1-8.7l-6.8,8.7l-3.7,0l7.5-9.5l-7.4-8.8l3.7,0l6.6,8
				l-0.1-8.1l3.1,0l0.1,8.1l6.4-8.1l3.7,0l-7.2,8.9L1447,1972.5z"/>
		</g>
		<g class="st13">
			<path class="st3" d="M1463.6,1954l3.2,0l0.2,18.3l-3.2,0l0-3.1c-1.6,2.4-3.9,3.7-6.9,3.7c-2.6,0-4.8-0.9-6.6-2.7
				c-1.8-1.8-2.7-4.1-2.8-6.8c0-2.7,0.9-5,2.6-6.8c1.8-1.9,4-2.8,6.5-2.9c3,0,5.3,1.2,6.9,3.5L1463.6,1954z M1457.2,1969.8
				c1.9,0,3.4-0.7,4.6-1.9c1.2-1.3,1.8-2.8,1.8-4.7c0-1.9-0.7-3.4-1.9-4.6c-1.3-1.2-2.8-1.9-4.7-1.8c-1.8,0-3.4,0.7-4.6,1.9
				c-1.2,1.3-1.8,2.8-1.8,4.7c0,1.9,0.7,3.4,1.9,4.6C1453.8,1969.2,1455.4,1969.8,1457.2,1969.8z"/>
			<path class="st3" d="M1485.2,1953.8l0,3.1l-6.2,0.1l0.2,15.2l-3.2,0l-0.2-15.2l-6.3,0.1l0-3.1L1485.2,1953.8z"/>
			<path class="st3" d="M1495.7,1960.3c1.8,0,3.4,0.5,4.6,1.6c1.2,1.1,1.8,2.5,1.9,4.2c0,1.7-0.6,3.1-1.8,4.2
				c-1.2,1.1-2.7,1.7-4.5,1.7l-7.7,0.1l-0.2-18.3l3.2,0l0.1,6.6L1495.7,1960.3z M1495.8,1969c0.9,0,1.7-0.3,2.3-0.8
				c0.6-0.5,0.9-1.2,0.9-2.1c0-0.9-0.3-1.6-1-2.1c-0.6-0.5-1.4-0.8-2.3-0.8l-4.5,0l0.1,5.8L1495.8,1969z"/>
			<path class="st3" d="M1507.7,1972.3c-0.7,0-1.2-0.2-1.7-0.7c-0.5-0.5-0.7-1-0.7-1.7c0-0.7,0.2-1.2,0.7-1.7c0.5-0.5,1-0.7,1.7-0.7
				c0.7,0,1.2,0.2,1.7,0.7c0.5,0.5,0.7,1,0.7,1.7c0,0.7-0.2,1.2-0.7,1.7C1508.9,1972,1508.3,1972.3,1507.7,1972.3z M1506.4,1964.4
				l-0.8-10.8l-0.1-7.3l3.8,0l0.1,7.3l-0.6,10.8L1506.4,1964.4z"/>
		</g>
		<g class="st13">
			<path class="st17" d="M1271.9,1740l0-2l6.5-6.7c1.7-1.8,2.6-3.3,2.6-4.5c0-1-0.3-1.8-1-2.4c-0.6-0.6-1.4-0.9-2.3-0.8
				c-1.7,0-3,0.9-3.8,2.5l-2.1-1.2c0.6-1.2,1.4-2.1,2.4-2.7c1-0.6,2.2-0.9,3.4-1c1.5,0,2.9,0.5,4.1,1.5c1.2,1,1.7,2.4,1.8,4.1
				c0,1.9-1.1,3.9-3.2,6.1l-4.7,4.8l8.4-0.1l0,2.4L1271.9,1740z"/>
			<path class="st17" d="M1302.7,1726.5l1.9,0l0.1,13.2l-2.3,0l-0.1-9.3l-7.2,9.3l-1.8,0l-0.1-13.2l2.3,0l0.1,9.3L1302.7,1726.5z"/>
			<path class="st17" d="M1319.6,1726c1.9,0,3.6,0.6,4.9,2c1.4,1.3,2.1,3,2.1,4.9c0,2-0.6,3.6-2,5s-3,2-4.9,2.1
				c-1.7,0-3.3-0.5-4.5-1.6c-1.3-1.1-2.1-2.5-2.3-4.2l-2.5,0l0.1,5.5l-2.3,0l-0.1-13.2l2.3,0l0.1,5.5l2.5,0c0.2-1.7,1-3.1,2.2-4.2
				C1316.4,1726.6,1317.9,1726,1319.6,1726z M1319.7,1737.6c1.3,0,2.4-0.5,3.3-1.4c0.9-0.9,1.3-2,1.3-3.4c0-1.3-0.5-2.5-1.4-3.3
				c-0.9-0.9-2-1.3-3.3-1.3c-1.3,0-2.4,0.5-3.3,1.4c-0.9,0.9-1.3,2-1.3,3.4c0,1.3,0.5,2.5,1.4,3.3
				C1317.3,1737.2,1318.4,1737.6,1319.7,1737.6z"/>
			<path class="st17" d="M1338.4,1726.1l2.3,0l0.1,13.2l-2.3,0l-0.1-5.5l-6.8,0.1l0.1,5.5l-2.3,0l-0.1-13.2l2.3,0l0.1,5.5l6.8-0.1
				L1338.4,1726.1z"/>
			<path class="st17" d="M1354.1,1726l0.1,13.2l-2.3,0l0-4.8l-1.9,0l-3.7,4.8l-2.8,0l3.8-4.9c-1-0.2-1.8-0.7-2.4-1.5
				c-0.6-0.7-0.9-1.6-1-2.6c0-1.2,0.4-2.2,1.3-3.1c0.9-0.8,1.9-1.2,3.2-1.3L1354.1,1726z M1348.6,1732.4l3.3,0l0-4.3l-3.3,0
				c-0.7,0-1.2,0.2-1.7,0.6c-0.5,0.4-0.7,0.9-0.7,1.6c0,0.6,0.2,1.1,0.7,1.5S1348,1732.4,1348.6,1732.4z"/>
		</g>
		<g class="st13">
			<path class="st17" d="M1276.3,1753.2l2.1,0l0.2,18.5l-2.4,0l-0.2-15.9l-3.9,1.2l-0.6-2.1L1276.3,1753.2z"/>
			<path class="st17" d="M1294.3,1769.2c-1.2,1.8-3,2.6-5.2,2.7c-2.3,0-4-0.8-5.3-2.6c-1.3-1.7-1.9-4.1-1.9-7c0-2.9,0.6-5.2,1.8-7
				s3-2.6,5.2-2.7c2.3,0,4,0.8,5.3,2.6c1.3,1.7,1.9,4.1,1.9,7C1296.1,1765.1,1295.5,1767.5,1294.3,1769.2z M1285.5,1767.7
				c0.8,1.2,2,1.9,3.5,1.8c1.5,0,2.6-0.7,3.5-1.9c0.8-1.3,1.2-3,1.2-5.3c0-2.3-0.4-4.1-1.3-5.3c-0.8-1.3-2-1.9-3.5-1.9
				c-1.5,0-2.6,0.7-3.4,1.9c-0.8,1.3-1.2,3-1.2,5.4C1284.3,1764.6,1284.7,1766.4,1285.5,1767.7z"/>
			<path class="st17" d="M1300.4,1761.3c-0.5,0-0.9-0.2-1.2-0.5c-0.3-0.3-0.5-0.7-0.5-1.2c0-0.5,0.2-0.9,0.5-1.2
				c0.3-0.3,0.7-0.5,1.2-0.5c0.5,0,0.9,0.2,1.2,0.5c0.3,0.3,0.5,0.7,0.5,1.2c0,0.5-0.2,0.9-0.5,1.2
				C1301.3,1761.2,1300.9,1761.3,1300.4,1761.3z M1300.5,1771.7c-0.5,0-0.9-0.2-1.2-0.5c-0.3-0.3-0.5-0.7-0.5-1.2
				c0-0.5,0.2-0.9,0.5-1.2c0.3-0.3,0.7-0.5,1.2-0.5c0.5,0,0.9,0.2,1.2,0.5c0.3,0.3,0.5,0.7,0.5,1.2c0,0.5-0.2,0.9-0.5,1.2
				C1301.4,1771.6,1301,1771.7,1300.5,1771.7z"/>
			<path class="st17" d="M1317.3,1769c-1.2,1.8-3,2.6-5.2,2.7c-2.3,0-4-0.8-5.3-2.6c-1.3-1.7-1.9-4.1-1.9-7c0-2.9,0.6-5.2,1.8-7
				c1.2-1.8,3-2.6,5.2-2.7c2.3,0,4,0.8,5.3,2.6c1.3,1.7,1.9,4.1,1.9,7C1319.2,1764.9,1318.6,1767.2,1317.3,1769z M1308.6,1767.4
				c0.8,1.2,2,1.9,3.5,1.8c1.5,0,2.6-0.7,3.5-1.9c0.8-1.3,1.2-3,1.2-5.3c0-2.3-0.4-4.1-1.3-5.3c-0.8-1.3-2-1.9-3.5-1.9
				c-1.5,0-2.6,0.7-3.4,1.9c-0.8,1.3-1.2,3-1.2,5.4C1307.3,1764.4,1307.8,1766.2,1308.6,1767.4z"/>
			<path class="st17" d="M1334,1768.8c-1.2,1.8-3,2.6-5.2,2.7c-2.3,0-4-0.8-5.3-2.6c-1.3-1.7-1.9-4.1-1.9-7c0-2.9,0.6-5.2,1.8-7
				c1.2-1.8,3-2.6,5.2-2.7c2.3,0,4,0.8,5.3,2.6c1.3,1.7,1.9,4.1,1.9,7C1335.8,1764.7,1335.2,1767.1,1334,1768.8z M1325.2,1767.3
				c0.8,1.2,2,1.9,3.5,1.8c1.5,0,2.6-0.7,3.5-1.9c0.8-1.3,1.2-3,1.2-5.3c0-2.3-0.4-4.1-1.3-5.3c-0.8-1.3-2-1.9-3.5-1.9
				c-1.5,0-2.6,0.7-3.4,1.9c-0.8,1.3-1.2,3-1.2,5.4C1324,1764.2,1324.4,1766,1325.2,1767.3z"/>
		</g>
		<g class="st13">
			<path class="st17" d="M1289,1800.8c-1.8,1.9-4.1,2.8-6.8,2.9c-2.7,0-5-0.9-6.8-2.7c-1.9-1.8-2.8-4.1-2.8-6.8c0-2.7,0.9-5,2.7-6.8
				c1.8-1.9,4.1-2.8,6.8-2.9c2.7,0,5,0.9,6.8,2.7c1.9,1.8,2.8,4.1,2.9,6.8C1291.7,1796.7,1290.8,1798.9,1289,1800.8z M1277,1799.3
				c1.4,1.4,3.1,2,5.1,2c2,0,3.7-0.7,5.1-2.1c1.4-1.4,2-3.1,2-5.1c0-2-0.7-3.8-2.1-5.1c-1.4-1.4-3.1-2-5.1-2c-2,0-3.7,0.7-5.1,2.1
				c-1.4,1.4-2,3.1-2,5.2C1275,1796.2,1275.7,1797.9,1277,1799.3z"/>
		</g>
		<g class="st13">
			<path class="st17" d="M1304.8,1789.9l0.1,13.2l-2.3,0l-0.1-11l-5.2,0.1l0.1,5.4c0,2.2-0.4,3.7-1.3,4.5c-0.9,0.9-2.1,1.2-3.7,1.1
				l0-2.2c0.9,0.1,1.6-0.1,2-0.6c0.4-0.5,0.7-1.5,0.6-2.9l-0.1-7.6L1304.8,1789.9z"/>
			<path class="st17" d="M1317.9,1789.8l1.9,0l0.1,13.2l-2.3,0l-0.1-9.3l-7.2,9.3l-1.8,0l-0.1-13.2l2.3,0l0.1,9.3L1317.9,1789.8z"/>
			<path class="st17" d="M1336.5,1789.6l0.1,13.2l-2.2,0l-0.1-9.6l-4.1,6.8l-0.3,0l-4.3-6.7l0.1,9.6l-2.3,0l-0.1-13.2l2.5,0l4.2,6.6
				l4.1-6.7L1336.5,1789.6z"/>
			<path class="st17" d="M1351.4,1789.4l0.1,13.2l-2.3,0l-0.1-11l-6.8,0.1l0.1,11l-2.3,0l-0.1-13.2L1351.4,1789.4z"/>
			<path class="st17" d="M1364.5,1789.3l1.9,0l0.1,13.2l-2.3,0l-0.1-9.3l-7.2,9.3l-1.8,0l-0.1-13.2l2.3,0l0.1,9.3L1364.5,1789.3z"/>
			<path class="st17" d="M1379.4,1789.1l1.8,0l0.1,13.2l-2.3,0l-0.1-9.3l-7.2,9.3l-1.8,0l-0.1-13.2l2.3,0l0.1,9.3L1379.4,1789.1z
				 M1372,1787.2l0-2l7.1-0.1l0,2L1372,1787.2z"/>
			<path class="st17" d="M1391.1,1802.6c-2,0-3.7-0.6-5-1.9c-1.3-1.3-2-3-2-4.9c0-2,0.6-3.6,1.9-5c1.3-1.3,3-2,4.9-2
				c1.3,0,2.5,0.3,3.5,0.9c1,0.6,1.8,1.4,2.4,2.5l-1.9,1.1c-0.3-0.7-0.9-1.3-1.6-1.7c-0.7-0.4-1.5-0.6-2.4-0.6
				c-1.3,0-2.4,0.5-3.3,1.4c-0.9,0.9-1.3,2-1.3,3.4c0,1.3,0.5,2.4,1.4,3.3c0.9,0.9,2,1.3,3.3,1.3c0.9,0,1.7-0.2,2.4-0.6
				c0.7-0.4,1.2-1,1.6-1.7l2,1.1c-0.6,1-1.4,1.9-2.4,2.5C1393.6,1802.3,1392.4,1802.6,1391.1,1802.6z"/>
			<path class="st17" d="M1410.5,1802.1l-2.9,0l-6.1-6.2l0.1,6.3l-2.3,0l-0.1-13.2l2.3,0l0.1,5.8l5.6-5.9l3,0l-6.2,6.5
				L1410.5,1802.1z"/>
			<path class="st17" d="M1422.1,1788.7l1.9,0l0.1,13.2l-2.3,0l-0.1-9.3l-7.2,9.3l-1.8,0l-0.1-13.2l2.3,0l0.1,9.3L1422.1,1788.7z"/>
			<path class="st17" d="M1437.1,1788.6l1.9,0l0.1,13.2l-2.3,0l-0.1-9.3l-7.2,9.3l-1.8,0l-0.1-13.2l2.3,0l0.1,9.3L1437.1,1788.6z
				 M1429.6,1786.7l0-2l7.1-0.1l0,2L1429.6,1786.7z"/>
		</g>
		<g class="st13">
			<path class="st17" d="M1460.3,1801.6l-2.9,0l-6.1-6.2l0.1,6.3l-2.3,0l-0.1-13.2l2.3,0l0.1,5.8l5.6-5.9l3,0l-6.2,6.5
				L1460.3,1801.6z"/>
		</g>
		<g class="st13">
			<path class="st17" d="M1472.4,1799.8c-1.3,1.4-3,2-4.9,2.1c-1.9,0-3.6-0.6-4.9-2c-1.4-1.3-2.1-3-2.1-4.9c0-2,0.6-3.6,2-5
				c1.3-1.4,3-2,4.9-2.1c1.9,0,3.6,0.6,5,2c1.4,1.3,2.1,3,2.1,4.9C1474.4,1796.8,1473.7,1798.4,1472.4,1799.8z M1467.4,1799.6
				c1.3,0,2.4-0.5,3.3-1.4c0.9-0.9,1.3-2,1.3-3.4c0-1.3-0.5-2.5-1.4-3.3c-0.9-0.9-2-1.3-3.3-1.3c-1.3,0-2.4,0.5-3.3,1.4
				c-0.9,0.9-1.3,2-1.3,3.4c0,1.3,0.5,2.5,1.4,3.3C1465,1799.2,1466.1,1799.6,1467.4,1799.6z"/>
			<path class="st17" d="M1490.2,1788l0.1,13.2l-2.2,0l-0.1-9.6l-4.1,6.8l-0.3,0l-4.3-6.7l0.1,9.6l-2.3,0l-0.1-13.2l2.5,0l4.2,6.6
				l4.1-6.7L1490.2,1788z"/>
			<path class="st17" d="M1505.2,1787.9l0.1,13.2l-2.3,0l-0.1-11l-6.8,0.1l0.1,11l-2.3,0l-0.1-13.2L1505.2,1787.9z"/>
			<path class="st17" d="M1519.7,1787.7l0.1,13.2l-2.3,0l-0.1-11l-5.2,0.1l0.1,5.4c0,2.2-0.4,3.7-1.3,4.5c-0.9,0.9-2.1,1.2-3.7,1.1
				l0-2.2c0.9,0.1,1.6-0.1,2-0.6c0.4-0.5,0.7-1.5,0.6-2.9l-0.1-7.6L1519.7,1787.7z"/>
			<path class="st17" d="M1524.9,1795.4c0.2,1.2,0.8,2.1,1.7,2.7c0.9,0.6,1.9,1,3.2,0.9c1.7,0,3-0.7,3.8-2l2,1.1c-1.3,2-3.2,3-5.8,3
				c-2.1,0-3.8-0.6-5.1-1.9c-1.3-1.3-2-3-2-5c0-2,0.6-3.7,1.9-5c1.3-1.3,2.9-2,5-2c1.9,0,3.5,0.6,4.8,2c1.2,1.4,1.9,3,1.9,4.9
				c0,0.3,0,0.7-0.1,1L1524.9,1795.4z M1529.4,1789.5c-1.2,0-2.3,0.4-3.1,1.1c-0.8,0.7-1.3,1.6-1.5,2.8l8.8-0.1
				c-0.2-1.2-0.7-2.2-1.5-2.8C1531.4,1789.8,1530.4,1789.5,1529.4,1789.5z"/>
		</g>
		<g class="st13">
			<path class="st17" d="M1549.9,1800.7l-2.9,0l-6.1-6.2l0.1,6.3l-2.3,0l-0.1-13.2l2.3,0l0.1,5.8l5.6-5.9l3,0l-6.3,6.5
				L1549.9,1800.7z"/>
		</g>
		<g class="st13">
			<path class="st17" d="M1557,1800.9c-2,0-3.7-0.6-5-1.9c-1.3-1.3-2-3-2-4.9c0-2,0.6-3.6,1.9-5c1.3-1.3,3-2,4.9-2
				c1.3,0,2.5,0.3,3.5,0.9c1,0.6,1.8,1.4,2.3,2.5l-1.9,1.1c-0.3-0.7-0.9-1.3-1.6-1.7c-0.7-0.4-1.5-0.6-2.4-0.6
				c-1.3,0-2.4,0.5-3.3,1.4c-0.9,0.9-1.3,2-1.3,3.4c0,1.3,0.5,2.4,1.4,3.3c0.9,0.9,2,1.3,3.3,1.3c0.9,0,1.7-0.2,2.4-0.6
				c0.7-0.4,1.2-1,1.6-1.7l2,1.1c-0.6,1-1.4,1.9-2.4,2.5C1559.5,1800.6,1558.3,1800.9,1557,1800.9z"/>
		</g>
		<g class="st13">
			<path class="st17" d="M1583.8,1787.3l-2.9,4.9l3,4.8l-2.5,0l-3-4.8l2.9-4.9L1583.8,1787.3z M1588.3,1787.3l-2.9,4.9l3,4.8l-2.5,0
				l-3-4.8l2.9-4.9L1588.3,1787.3z"/>
		</g>
		<g class="st13">
			<path class="st17" d="M1589.5,1800.3l0-2.2c1.2,0.2,2.1-0.2,2.7-1c0.6-0.9,0.9-2.5,0.9-4.8l-0.1-10.5l12.2-0.1l0.2,18.5l-2.5,0
				l-0.2-16.2l-7.3,0.1l0.1,8.2c0,1.7-0.1,3-0.4,4.2c-0.3,1.1-0.7,2-1.3,2.5c-0.6,0.6-1.2,1-1.9,1.2
				C1591.3,1800.3,1590.5,1800.3,1589.5,1800.3z"/>
		</g>
		<g class="st13">
			<path class="st17" d="M1618.2,1786.8l2.5,0l-5.2,14.1c-0.5,1.5-1.3,2.7-2.3,3.4c-1,0.8-2.2,1.2-3.5,1.1l0-2.1
				c1.6,0.1,2.8-0.8,3.5-2.7l0.2-0.5l-5.9-13.2l2.4,0l4.6,10.3L1618.2,1786.8z"/>
		</g>
		<g class="st13">
			<path class="st17" d="M1638.7,1799.8l-2.7,0l-5-6.2l0.1,6.3l-2.3,0l-0.1-6.3l-4.9,6.3l-2.7,0l5.5-6.9l-5.3-6.3l2.7,0l4.7,5.8
				l-0.1-5.8l2.3,0l0.1,5.8l4.6-5.9l2.7,0l-5.2,6.4L1638.7,1799.8z"/>
			<path class="st17" d="M1649.9,1786.4l2.3,0l0.1,13.2l-2.3,0l-0.1-5.5l-6.8,0.1l0.1,5.5l-2.3,0l-0.1-13.2l2.3,0l0.1,5.5l6.8-0.1
				L1649.9,1786.4z"/>
			<path class="st17" d="M1665.3,1786.3l1.9,0l0.1,13.2l-2.3,0l-0.1-9.3l-7.2,9.3l-1.8,0l-0.1-13.2l2.3,0l0.1,9.3L1665.3,1786.3z"/>
			<path class="st17" d="M1681.9,1799.3l-2.9,0l-6.1-6.2l0.1,6.3l-2.3,0l-0.1-13.2l2.3,0l0.1,5.8l5.6-5.9l3,0l-6.3,6.5
				L1681.9,1799.3z"/>
			<path class="st17" d="M1693.5,1786l1.9,0l0.1,13.2l-2.3,0l-0.1-9.3l-7.2,9.3l-1.8,0l-0.1-13.2l2.3,0l0.1,9.3L1693.5,1786z"/>
			<path class="st17" d="M1701.4,1786.1l3,4.8l-2.9,4.8l-2.5,0l2.9-4.8l-3-4.8L1701.4,1786.1z M1705.9,1786.1l3,4.8l-2.9,4.8l-2.5,0
				l2.9-4.8l-3-4.8L1705.9,1786.1z"/>
		</g>
		<path class="st8" d="M705.1,1523.9c0,0,8,11.9,13.3,11.8c5.3-0.1-0.1-14.2-0.1-14.2L705.1,1523.9z"/>
		<circle class="st5" cx="751.6" cy="1510.6" r="43.2"/>
		<circle cx="752.1" cy="1507.8" r="2.8"/>
		<circle cx="776.8" cy="1507.6" r="2.8"/>
		<polyline class="st6" points="763.3,1502.1 776.9,1521.1 763.4,1521.2 		"/>
		<path class="st6" d="M734.3,1522.5c0,0,4.6,19,29.3,16.6"/>
		<path class="st5" d="M846.1,2159.9l56.7-0.4l36.6-0.3c1-15.7-37.1-11-37.9-22.1c-1.7-21.3-11.2-189.8-11.2-189.8
			c-1.7-22.5-9.8-44-23.2-62.1l-116.7-157.6l-55.8,41.3l107.9,145.8c11.3,15.4,18.1,33.6,19.6,52.6l10.7,180
			C833.1,2154.5,839,2160,846.1,2159.9z"/>
		<path class="st6" d="M837.1,2162.8l56.7-0.4l36.6-0.3c1-15.7-37.1-11-37.9-22.1c-1.7-21.3-11.2-189.8-11.2-189.8
			c-1.7-22.5-9.8-44-23.2-62.1l-116.7-157.6l-55.9,41.3l107.9,145.8c11.4,15.4,18.2,33.6,19.6,52.7l10.7,180
			C824.2,2157.3,830.1,2162.8,837.1,2162.8z"/>
		<path class="st5" d="M369,2007.8l20.4,52.8l13.2,34.2c15-4.6-2.9-38.6,7.3-43.3c19.4-9.1,173.6-77.6,173.6-77.6
			c20.4-9.6,37.7-24.7,49.9-43.6l106.2-164.9l-58.4-37.6l-98.2,152.5c-10.3,16.1-25,28.9-42.3,37L376,1990.9
			C369.5,1993.8,366.5,2001.2,369,2007.8z"/>
		<path class="st6" d="M362.2,2000l20.4,52.8l13.2,34.2c15-4.6-2.9-38.5,7.3-43.3c19.4-9.1,173.6-77.7,173.6-77.7
			c20.4-9.5,37.7-24.7,49.9-43.6l106.2-164.9l-58.4-37.6l-98.2,152.5c-10.3,16.1-25,28.9-42.3,37l-164.6,73.7
			C362.8,1986,359.7,1993.4,362.2,2000z"/>
		<path class="st5" d="M853.4,1620.3c2.7-1.9,6.4-1.6,8.7,0.7l0,0l7.9-5.5c3.1-2.1,7.3-1.3,9.4,1.7l0,0c1,1.5,1.4,3.4,1,5.1l0,0
			c2.9-0.9,6,0.2,7.7,2.6l0,0c1.5,2.2,1.6,5.1,0.2,7.3l0,0c2.8-0.8,5.8,0.3,7.4,2.6l0,0c2,2.9,1.4,6.7-1.2,9l0,0
			c2,0,3.9,0.9,5.2,2.5l0,0c2.3,2.9,1.9,7.1-1,9.4c0,0,0,0,0,0l-96.9,72.3c-15.1,11.3-36.3,9.3-49.1-4.5l-66.4-71.5
			c-10.8-11.6-10.1-29.7,1.5-40.5c11.6-10.8,29.7-10.1,40.5,1.5l54.5,58.7L853.4,1620.3z"/>
		<path class="st6" d="M849.1,1660.5c0,0,18.4-7.6,5.1-28.4l2.3,2.8c2.4,2.9,6.6,3.2,9.5,0.9c0,0,0,0,0,0l0,0
			c2.9-2.4,3.2-6.6,0.9-9.5c0,0,0,0,0,0l-4.5-5.4"/>
		<path class="st6" d="M861.7,1637.3c-0.6,2-0.3,4.1,0.9,5.7l0,0c1.5,2.2,4.2,3.3,6.8,2.8l0,0c-1.8,2.3-1.9,5.5-0.2,7.9l0,0
			c2,2.9,5.8,3.8,8.8,2.1l0,0c-0.7,1.9-0.5,4,0.5,5.7l0,0c1.4,2.5,4.3,3.8,7.1,3.2"/>
		<path class="st17" d="M668.5,1769.1l104,140.5l72.4-55.1c0,0-91.3-135.5-103.1-151.7C729.9,1686.5,668.5,1769.1,668.5,1769.1z"/>
		<line class="st6" x1="858.6" y1="1632.2" x2="858.6" y2="1632.2"/>
		<path class="st6" d="M753.6,1752.8c0,0-5.2,13.2-47.1,67.7"/>
		<path class="st17" d="M649.9,1715.7L567,1862.2l86.7,37.5c0,0,86.3-128.6,95.1-146.6c8.8-18,10.9-40.4,10.9-40.4l-98.7-9.4
			L649.9,1715.7z"/>
		<path class="st6" d="M832.2,1655c2.3,9.5,7.9,17.8,15.9,23.4"/>
		<path class="st1" d="M775.4,1752l3.6-54.2c8.2-91.5,8.4-129.5-51.5-133.5c-29.1-1.9-42.3,38.1-42.3,38.1L626,1734.6
			c0,0,46.3,12.9,76.2,17.2C733.4,1756.2,775.4,1752,775.4,1752z"/>
		<path class="st5" d="M722.5,1740.6c1.8,2.8,1.3,6.4-1.1,8.6l0,0l5,8.3c1.9,3.2,0.9,7.3-2.2,9.2l0,0c-1.6,1-3.4,1.2-5.2,0.8l0,0
			c0.8,2.9-0.4,6-3,7.5l0,0c-2.3,1.4-5.1,1.3-7.3-0.2l0,0c0.7,2.8-0.6,5.7-3.1,7.3l0,0c-3,1.8-6.8,1-8.9-1.7l0,0
			c-0.1,2-1.1,3.9-2.8,5l0,0c-3,2.2-7.2,1.5-9.4-1.5c0,0,0,0,0,0L617.7,1683c-10.4-15.7-7.3-36.7,7.2-48.8l75-62.4
			c12.1-10.1,30.2-8.4,40.3,3.7c10.1,12.1,8.4,30.2-3.7,40.3l0,0l-61.6,51.2L722.5,1740.6z"/>
		<path class="st6" d="M892.7,2140c0,0-40.1,9.9-69.4,2.5"/>
		<line class="st6" x1="903.6" y1="2142.3" x2="895" y2="2148.9"/>
		<line class="st6" x1="911.4" y1="2144.5" x2="902.9" y2="2151.1"/>
		<path class="st6" d="M895.3,2142.3c0,0,11.7-16.9,16.5-11.1C916.6,2137,895.3,2142.3,895.3,2142.3z"/>
		<path class="st6" d="M401.3,2046.8c0,0,17.3,11,11.7,16.1S401.3,2046.8,401.3,2046.8z"/>
		<line class="st6" x1="405.9" y1="2063" x2="397.3" y2="2056.6"/>
		<line class="st6" x1="405.9" y1="2071.2" x2="397.3" y2="2064.8"/>
		<path class="st6" d="M568.6,1956.2c0,0,16.6-27,42.4-33.9"/>
		<path class="st6" d="M871.8,1946.5c0,0-21.8-23.1-21.7-49.7"/>
		<path class="st6" d="M712.4,1739.5c1.8,2.8,1.3,6.4-1.1,8.6l0,0l5,8.3c1.9,3.2,0.9,7.3-2.2,9.2l0,0c-1.6,0.9-3.4,1.2-5.2,0.8l0,0
			c0.8,2.9-0.4,5.9-3,7.5l0,0c-2.3,1.4-5.1,1.3-7.3-0.2l0,0c0.7,2.8-0.6,5.7-3.1,7.3l0,0c-3,1.8-6.8,1.1-8.9-1.7l0,0
			c-0.1,2-1.1,3.9-2.8,5l0,0c-3,2.2-7.2,1.5-9.4-1.5L607.7,1682c-10.4-15.7-7.3-36.7,7.2-48.8l75.1-62.3
			c12.1-10.1,30.2-8.4,40.3,3.7c10.1,12.1,8.4,30.2-3.7,40.3l0,0l-61.6,51.2L712.4,1739.5z"/>
		<path class="st7" d="M668.7,1597.9l31.2-26c12.1-10.1,30.2-8.4,40.3,3.7c10.1,12.1,8.4,30.2-3.7,40.3l0,0l-28.8,24"/>
		<path class="st6" d="M697.5,1638.8l28.8-24c11.8-10.4,13-28.5,2.5-40.3c-10-11.3-27.1-12.9-39-3.6l-31.3,25.9L697.5,1638.8z"/>
		<path class="st6" d="M373.3,1981.4c0,5.3,2.8,27.7,29.5,61.9"/>
		<path class="st17" d="M731.3,1486.8c11.2,0,27.7,3.8,44.9,2.3c17.2-1.4,17.1-17.3,15.7-21.2c0,0-2.6,2.6-5.3,2.6
			c-7.9,0-16-15.7-39.8-15.6c-15.9,0.1-50.1,16.2-44.5,54.5C707.1,1542.1,711.3,1486.8,731.3,1486.8z"/>
		<circle class="st5" cx="707.3" cy="1514.9" r="12.3"/>
		<path class="st6" d="M709.8,1512c-3.6,0.6-4.7,6.2,0.4,7.8"/>
		
			<rect x="284.4" y="1390.6" transform="matrix(1 -6.981261e-03 6.981261e-03 1 -12.5829 7.5637)" class="st14" width="1585.5" height="831"/>
		<rect x="281.6" y="1388.1" class="st14" width="1590.7" height="828.4"/>
	</g>
</g>
<path class="st11" d="M1922.3,1127.6c-34.1-30-109.4-42.1-146.7-21.8c-37.3,20.3-79,66.7-85.1,95.6c-6.1,29,24.3,117.6,48.2,127.9
	c23.9,10.4,113.9,23.6,137.5,18.8c23.6-4.8,82.1-75.3,76.9-105.8C1947.9,1212,1949.4,1151.4,1922.3,1127.6z"/>
<path class="st11" d="M1978.4,1006.6c-11.3-0.6-27.9,8.7-32.1,18.5c-4.2,9.8-5.1,25.3-1.8,31.9c3.3,6.6,23,19.3,29.3,17.6
	s26-13,29.8-17.6c3.9-4.6,4.4-27.5-1.4-32.6C1996.5,1019.1,1987.4,1007,1978.4,1006.6z"/>
<path class="st11" d="M1989.9,2128.3c-9.6-14.1-33.9-26.6-67.1-13.5c-44.2,17.5-71.1,24.7-115.8,20.5
	c-44.6-4.2-102.3,47.7-35.7,119.9C1838,2327.5,2059.6,2230.2,1989.9,2128.3z"/>
<path class="st23" d="M105.2,1088c0,0-30.8,90.5,5.7,125.7c34,32.9,96.7-39.8,126.6-10.6c30,29.2-38.6,60.6-18.8,86.7
	s65.5-7.1,65.5-7.1"/>
</svg>
