<?xml version="1.0" encoding="utf-8"?>
<!-- Generator: Adobe Illustrator 23.1.1, SVG Export Plug-In . SVG Version: 6.00 Build 0)  -->
<svg version="1.1" id="Layer_1" xmlns="http://www.w3.org/2000/svg" xmlns:xlink="http://www.w3.org/1999/xlink" x="0px" y="0px"
	 viewBox="0 0 1080 1920" style="enable-background:new 0 0 1080 1920;" xml:space="preserve">
<style type="text/css">
	.st0{fill:url(#SVGID_1_);}
	.st1{opacity:0.3;fill:#652AD8;enable-background:new    ;}
	.st2{fill:none;stroke:#FFFFFF;stroke-width:2.76;stroke-miterlimit:10;}
	.st3{opacity:0.28;fill:none;stroke:#FFFFFF;stroke-width:2.76;stroke-miterlimit:10;enable-background:new    ;}
	.st4{fill:#FFDB45;}
	.st5{fill:#22B573;}
	.st6{fill:#FF6C6C;}
	.st7{fill:#251742;}
	.st8{fill:#A5A5D3;}
	.st9{fill:#FFFFFF;}
	.st10{fill:#CCCCCC;}
	.st11{fill:#B3B3B3;}
	.st12{fill:#F2F2F2;}
	.st13{fill:#EEFEFF;}
	.st14{fill:#E6E6E6;}
	.st15{fill:none;stroke:#FFDB45;stroke-width:7.26;stroke-linecap:round;stroke-miterlimit:10;}
	.st16{fill:url(#SVGID_2_);}
	.st17{fill:url(#SVGID_3_);}
	.st18{fill:none;stroke:#F7931E;stroke-width:4.61;stroke-miterlimit:10;}
	.st19{fill:#F7931E;}
	.st20{fill:none;stroke:#F7931E;stroke-width:4.14;stroke-miterlimit:10;}
	.st21{fill:url(#SVGID_4_);}
	.st22{fill:none;stroke:#F7931E;stroke-width:2.68;stroke-miterlimit:10;}
	.st23{fill:none;stroke:#F7931E;stroke-width:2.4;stroke-miterlimit:10;}
	.st24{fill:url(#SVGID_5_);}
	.st25{fill:none;stroke:#F7931E;stroke-width:3.86;stroke-miterlimit:10;}
	.st26{fill:none;stroke:#F7931E;stroke-width:3.47;stroke-miterlimit:10;}
	.st27{opacity:0.52;enable-background:new    ;}
	.st28{enable-background:new    ;}
	.st29{fill:none;stroke:url(#SVGID_6_);stroke-width:2;stroke-miterlimit:10;}
</style>
<title>shop</title>
<radialGradient id="SVGID_1_" cx="628.3418" cy="805.0149" r="862.9164" fx="-46.7294" fy="1168.4076" gradientTransform="matrix(0.84 0 0 2.67 8.78 -1190.8898)" gradientUnits="userSpaceOnUse">
	<stop  offset="0" style="stop-color:#B925CE"/>
	<stop  offset="0.29" style="stop-color:#9527D2"/>
	<stop  offset="0.56" style="stop-color:#7B29D5"/>
	<stop  offset="0.8" style="stop-color:#6B2AD7"/>
	<stop  offset="0.99" style="stop-color:#652AD8"/>
	<stop  offset="0.99" style="stop-color:#652AD8"/>
</radialGradient>
<rect x="-1" y="-3" class="st0" width="1081" height="1923"/>
<rect x="2" y="-3" class="st1" width="1081" height="1922"/>
<circle class="st2" cx="539.6" cy="1142.8" r="152.4"/>
<circle class="st3" cx="539.6" cy="1119.3" r="230.3"/>
<circle class="st3" cx="539.6" cy="1119.3" r="322"/>
<circle class="st3" cx="539.6" cy="1119.3" r="411.6"/>
<rect x="165.2" y="869.2" class="st4" width="31.8" height="118.4"/>
<rect x="216.2" y="841.3" class="st4" width="31.8" height="146.3"/>
<rect x="267.2" y="834.5" class="st5" width="31.8" height="153.1"/>
<rect x="318.2" y="862.5" class="st5" width="31.8" height="125.2"/>
<rect x="369.2" y="841.3" class="st6" width="31.8" height="146.3"/>
<path class="st7" d="M309.4,939.3h460.5c12.8,0,23.1,10.4,23.1,23.1l0,0v314.7l0,0H286.3l0,0V962.5
	C286.3,949.7,296.6,939.3,309.4,939.3L309.4,939.3z"/>
<rect x="308.1" y="960" class="st8" width="468.9" height="286.2"/>
<rect x="319.6" y="975" class="st9" width="443.6" height="258.6"/>
<path class="st10" d="M208.4,1268h663.1l0,0v16.2c0,7.5-6.1,13.6-13.6,13.6l0,0H222c-7.5,0-13.6-6.1-13.6-13.6l0,0V1268L208.4,1268z
	"/>
<path class="st9" d="M219.5,1297.6l-0.5-0.1L219.5,1297.6z"/>
<path class="st9" d="M218.2,1297.3l-0.5-0.2L218.2,1297.3z"/>
<path class="st9" d="M859.6,1297.8l-0.4,0.1L859.6,1297.8z"/>
<path class="st9" d="M220.7,1297.8l-0.4-0.1L220.7,1297.8z"/>
<path class="st9" d="M213.5,1294.9c-0.2-0.2-0.4-0.4-0.6-0.6C213.1,1294.6,213.3,1294.7,213.5,1294.9z"/>
<path class="st9" d="M212.7,1294.2c-0.2-0.2-0.4-0.4-0.6-0.6C212.2,1293.7,212.4,1294,212.7,1294.2z"/>
<path class="st9" d="M860.9,1297.5l-0.5,0.1L860.9,1297.5z"/>
<path class="st9" d="M215.1,1296c-0.4-0.3-0.8-0.5-1.2-0.8C214.2,1295.5,214.6,1295.7,215.1,1296z"/>
<path class="st9" d="M217.1,1297l-0.5-0.2L217.1,1297z"/>
<path class="st9" d="M216,1296.5c-0.2-0.1-0.4-0.2-0.5-0.3C215.6,1296.3,215.8,1296.4,216,1296.5z"/>
<path class="st9" d="M862.2,1297.2l-0.5,0.2L862.2,1297.2z"/>
<path class="st9" d="M867.2,1294.2c0.2-0.2,0.4-0.4,0.6-0.6C867.6,1293.7,867.4,1294,867.2,1294.2z"/>
<path class="st9" d="M868.6,1292.6c-0.2,0.2-0.4,0.5-0.6,0.7C868.2,1293.1,868.4,1292.9,868.6,1292.6z"/>
<path class="st9" d="M211.3,1292.6c0.2,0.2,0.4,0.5,0.6,0.7C211.7,1293.1,211.5,1292.9,211.3,1292.6z"/>
<path class="st9" d="M601.6,1268c-1.3,4.7-5.6,8-10.5,8H488.7c-4.9,0-9.2-3.3-10.5-8H208.4v16.3c0,3,1,5.9,2.8,8.2
	c-1.1-1.5-1.9-3.2-2.4-5H871c-0.4,1.8-1.3,3.5-2.4,5c1.8-2.4,2.8-5.3,2.8-8.2V1268H601.6z"/>
<path class="st9" d="M864.5,1296.2c-0.2,0.1-0.3,0.2-0.5,0.3C864.1,1296.4,864.3,1296.3,864.5,1296.2z"/>
<path class="st9" d="M863.3,1296.7l-0.5,0.2L863.3,1296.7z"/>
<path class="st9" d="M867,1294.4c-0.2,0.2-0.4,0.4-0.6,0.6C866.6,1294.7,866.8,1294.6,867,1294.4z"/>
<path class="st9" d="M866.1,1295.1c-0.4,0.3-0.8,0.6-1.2,0.8C865.3,1295.7,865.7,1295.4,866.1,1295.1z"/>
<path class="st11" d="M208.8,1287.6c1.5,6.1,6.9,10.3,13.2,10.3h635.9c6.3,0,11.7-4.3,13.2-10.3H208.8z"/>
<path class="st5" d="M652.4,1138.2h82.4c4.2,0,7.6,3.4,7.6,7.6v65.2c0,4.2-3.4,7.6-7.6,7.6h-82.4c-4.2,0-7.6-3.4-7.6-7.6v-65.2
	C644.8,1141.6,648.2,1138.2,652.4,1138.2z"/>
<path class="st12" d="M648.8,1079.6h89.6c2.2,0,4,1.8,4,4v35.6c0,2.2-1.8,4-4,4h-89.6c-2.2,0-4-1.8-4-4v-35.6
	C644.8,1081.3,646.6,1079.6,648.8,1079.6z"/>
<path class="st12" d="M648.8,1023.2h89.6c2.2,0,4,1.8,4,4v33.3c0,2.2-1.8,4-4,4h-89.6c-2.2,0-4-1.8-4-4v-33.3
	C644.8,1025,646.6,1023.2,648.8,1023.2z"/>
<path class="st13" d="M351.2,1039.3h89.6c2.2,0,4,1.8,4,4v32.2c0,2.2-1.8,4-4,4h-89.6c-2.2,0-4-1.8-4-4v-32.2
	C347.2,1041.1,349,1039.3,351.2,1039.3z"/>
<path class="st13" d="M351.2,1103.7h89.6c2.2,0,4,1.8,4,4v106.9c0,2.2-1.8,4-4,4h-89.6c-2.2,0-4-1.8-4-4v-106.9
	C347.2,1105.5,349,1103.7,351.2,1103.7z"/>
<path class="st8" d="M351.2,1023.2h89.6c2.2,0,4,1.8,4,4l0,0c0,2.2-1.8,4-4,4h-89.6c-2.2,0-4-1.8-4-4l0,0
	C347.2,1025,349,1023.2,351.2,1023.2z"/>
<path class="st13" d="M528.2,1039.3h89.6c2.2,0,4,1.8,4,4v171.2c0,2.2-1.8,4-4,4h-89.6c-2.2,0-4-1.8-4-4v-171.2
	C524.1,1041.1,525.9,1039.3,528.2,1039.3z"/>
<path class="st8" d="M528.2,1023.2h89.6c2.2,0,4,1.8,4,4l0,0c0,2.2-1.8,4-4,4h-89.6c-2.2,0-4-1.8-4-4l0,0
	C524.1,1025,525.9,1023.2,528.2,1023.2z"/>
<path class="st8" d="M351.2,1088.7h89.6c2.2,0,4,1.8,4,4l0,0c0,2.2-1.8,4-4,4h-89.6c-2.2,0-4-1.8-4-4l0,0
	C347.2,1090.5,349,1088.7,351.2,1088.7z"/>
<path class="st12" d="M469.6,1023.2h29.9c2.2,0,4,1.8,4,4v187.3c0,2.2-1.8,4-4,4h-29.9c-2.2,0-4-1.8-4-4v-187.3
	C465.5,1025,467.3,1023.2,469.6,1023.2z"/>
<rect x="319.6" y="975" class="st12" width="443.6" height="27.6"/>
<rect x="444.9" y="983" class="st9" width="297.6" height="12.6"/>
<rect x="347.2" y="981.9" class="st14" width="14.9" height="14.9"/>
<rect x="377" y="981.9" class="st14" width="14.9" height="14.9"/>
<circle class="st8" cx="540.2" cy="949.7" r="5.8"/>
<rect x="748.3" y="716.5" class="st4" width="42.5" height="72.6"/>
<path class="st6" d="M740.4,795.3h59.4c4.2,0,7.6,3.4,7.6,7.6v6.5c0,4.2-3.4,7.6-7.6,7.6h-59.4c-4.2,0-7.6-3.4-7.6-7.6V803
	C732.7,798.8,736.1,795.3,740.4,795.3z"/>
<rect x="748.3" y="824.4" class="st6" width="42.5" height="7.3"/>
<rect x="748.3" y="836.8" class="st6" width="42.5" height="7.3"/>
<path class="st15" d="M739,644.9c39.9-16.8,85.8,1.9,102.6,41.7c4.1,9.6,6.1,20,6.2,30.4"/>
<path class="st15" d="M807.4,626c13.5,4.4,25.6,12.5,34.9,23.3"/>
<radialGradient id="SVGID_2_" cx="769.5" cy="-202.3401" r="55.4901" gradientTransform="matrix(1 0 0 1 0 920)" gradientUnits="userSpaceOnUse">
	<stop  offset="0.18" style="stop-color:#F4E91C"/>
	<stop  offset="0.26" style="stop-color:#F6E625"/>
	<stop  offset="0.49" style="stop-color:#FBE037"/>
	<stop  offset="0.73" style="stop-color:#FEDC42"/>
	<stop  offset="1" style="stop-color:#FFDB45"/>
</radialGradient>
<circle class="st16" cx="769.5" cy="717.1" r="55.5"/>
<radialGradient id="SVGID_3_" cx="1004.7" cy="261.4" r="42.7" gradientTransform="matrix(1 0 0 1 0 920)" gradientUnits="userSpaceOnUse">
	<stop  offset="0.18" style="stop-color:#F4E91C"/>
	<stop  offset="0.26" style="stop-color:#F6E625"/>
	<stop  offset="0.49" style="stop-color:#FBE037"/>
	<stop  offset="0.73" style="stop-color:#FEDC42"/>
	<stop  offset="1" style="stop-color:#FFDB45"/>
</radialGradient>
<circle class="st17" cx="1004.7" cy="1181.4" r="42.7"/>
<circle class="st18" cx="1004.7" cy="1181.4" r="33.8"/>
<path class="st19" d="M995.5,1161.2h11.1c8.7,0,14.6,2.9,14.6,11.5c0,8.2-5.9,12-14.4,12h-6.4v15.4h-5L995.5,1161.2z M1006.3,1180.7
	c6.8,0,10-2.5,10-8s-3.5-7.4-10.3-7.4h-5.5v15.4H1006.3z"/>
<line class="st20" x1="992.3" y1="1188.3" x2="1011.6" y2="1188.3"/>
<radialGradient id="SVGID_4_" cx="803.7" cy="223.4" r="24.8349" gradientTransform="matrix(1 0 0 1 0 920)" gradientUnits="userSpaceOnUse">
	<stop  offset="0.18" style="stop-color:#F4E91C"/>
	<stop  offset="0.26" style="stop-color:#F6E625"/>
	<stop  offset="0.49" style="stop-color:#FBE037"/>
	<stop  offset="0.73" style="stop-color:#FEDC42"/>
	<stop  offset="1" style="stop-color:#FFDB45"/>
</radialGradient>
<circle class="st21" cx="803.7" cy="1143.4" r="24.8"/>
<circle class="st22" cx="803.7" cy="1143.4" r="19.6"/>
<path class="st19" d="M798.4,1131.8h6.5c5.1,0,8.5,1.7,8.5,6.7c0,4.8-3.4,7-8.3,7h-3.7v9h-2.9L798.4,1131.8L798.4,1131.8z
	 M804.6,1143.1c4,0,5.8-1.4,5.8-4.7s-2-4.3-6-4.3h-3.2v9H804.6z"/>
<line class="st23" x1="796.5" y1="1147.4" x2="807.7" y2="1147.4"/>
<radialGradient id="SVGID_5_" cx="908.5" cy="187.6" r="35.84" gradientTransform="matrix(1 0 0 1 0 920)" gradientUnits="userSpaceOnUse">
	<stop  offset="0.18" style="stop-color:#F4E91C"/>
	<stop  offset="0.26" style="stop-color:#F6E625"/>
	<stop  offset="0.49" style="stop-color:#FBE037"/>
	<stop  offset="0.73" style="stop-color:#FEDC42"/>
	<stop  offset="1" style="stop-color:#FFDB45"/>
</radialGradient>
<circle class="st24" cx="908.5" cy="1107.6" r="35.8"/>
<circle class="st25" cx="908.5" cy="1107.6" r="28.3"/>
<path class="st19" d="M900.8,1090.7h9.3c7.3,0,12.2,2.5,12.2,9.6c0,6.9-4.9,10.1-12,10.1H905v12.9h-4.2V1090.7z M909.8,1107
	c5.7,0,8.4-2.1,8.4-6.7s-2.9-6.2-8.6-6.2H905v13L909.8,1107z"/>
<line class="st26" x1="898.1" y1="1113.4" x2="914.3" y2="1113.4"/>
<g class="st27">
	<path class="st9" d="M425.3,871.6h-9.1c-2.4,0-4.4-1.9-4.4-4.2s2-4.1,4.4-4.1h9.1v-9.1c0-2.4,1.8-4.4,4.1-4.4
		c2.3,0.1,4.2,2.1,4.2,4.5v9h9.2c2.4,0,4.4,1.8,4.4,4.1s-2,4.2-4.4,4.2h-9.2v9.3c0,2.4-1.9,4.4-4.2,4.3c-2.3,0-4.1-2-4.1-4.4V871.6z
		"/>
</g>
<g class="st28">
	<path class="st9" d="M693.1,1194.5c2.3,0,4.1,1.8,4.1,4.1s-1.8,4-4.1,4s-4-1.7-4-4S690.8,1194.5,693.1,1194.5z M695.7,1188.6
		c0,1.5-1.2,2.6-2.7,2.6c-1.4,0-2.6-1.1-2.6-2.6v-28.9c0-1.4,1.2-2.6,2.6-2.6c1.4,0,2.7,1.2,2.7,2.6V1188.6z"/>
</g>
<g class="st28">
	<path class="st9" d="M128.2,183.6h-10.6v6.7h4c1.3,0,2.4,0.1,3.3,0.4c0.9,0.3,1.7,0.7,2.3,1.2c0.6,0.5,1,1.1,1.3,1.8
		c0.3,0.7,0.4,1.4,0.4,2.2c0,1-0.2,1.8-0.5,2.6c-0.3,0.8-0.8,1.4-1.4,2c-0.6,0.5-1.4,1-2.3,1.2s-1.9,0.4-3.1,0.4h-6.8v-20.7h13.4
		V183.6z M117.6,192.5v7.3h4c0.8,0,1.5-0.1,2.1-0.3c0.6-0.2,1-0.4,1.4-0.8c0.4-0.3,0.6-0.7,0.8-1.2c0.2-0.5,0.3-1,0.3-1.5
		c0-0.6-0.1-1.1-0.3-1.5c-0.2-0.4-0.4-0.8-0.8-1.1c-0.4-0.3-0.8-0.5-1.4-0.7s-1.3-0.2-2.1-0.2H117.6z"/>
</g>
<g class="st28">
	<path class="st9" d="M145.5,181.4v2.3h-10v6.9h8.1v2.2h-8.1v7.1h10l0,2.3h-12.8v-20.7H145.5z"/>
</g>
<g class="st28">
	<path class="st9" d="M163.6,197.8c0.2,0,0.3,0.1,0.4,0.2l1.1,1.2c-0.8,1-1.9,1.7-3.1,2.3c-1.2,0.5-2.7,0.8-4.4,0.8
		c-1.5,0-2.8-0.3-4-0.8c-1.2-0.5-2.3-1.2-3.1-2.2c-0.9-0.9-1.5-2-2-3.3c-0.5-1.3-0.7-2.7-0.7-4.3s0.2-3,0.7-4.3
		c0.5-1.3,1.2-2.4,2.1-3.4c0.9-0.9,2-1.7,3.2-2.2s2.6-0.8,4.1-0.8c1.5,0,2.8,0.2,3.9,0.7c1.1,0.5,2.1,1.1,3,1.9l-0.9,1.3
		c-0.1,0.1-0.1,0.2-0.2,0.2c-0.1,0.1-0.2,0.1-0.4,0.1c-0.2,0-0.4-0.1-0.6-0.3c-0.3-0.2-0.6-0.4-1-0.6s-0.9-0.4-1.5-0.6
		c-0.6-0.2-1.4-0.3-2.2-0.3c-1.1,0-2,0.2-2.9,0.6c-0.9,0.4-1.7,0.9-2.3,1.6c-0.6,0.7-1.1,1.6-1.5,2.6c-0.4,1-0.5,2.2-0.5,3.4
		c0,1.3,0.2,2.4,0.6,3.5c0.4,1,0.9,1.9,1.5,2.6c0.6,0.7,1.4,1.2,2.3,1.6c0.9,0.4,1.8,0.5,2.8,0.5c0.6,0,1.2,0,1.7-0.1s1-0.2,1.4-0.3
		s0.8-0.3,1.2-0.6c0.4-0.2,0.7-0.5,1.1-0.8C163.2,197.9,163.4,197.8,163.6,197.8z"/>
	<path class="st9" d="M184.3,202.1h-2.8v-18.5h-10.4v18.5h-2.8v-20.7h16V202.1z"/>
	<path class="st9" d="M205.3,181.4v20.7h-2.8v-18.5h-6.9c-0.1,2.7-0.3,5-0.5,6.9s-0.5,3.6-0.8,5c-0.3,1.4-0.7,2.5-1.1,3.4
		s-0.9,1.6-1.3,2.1s-1,0.8-1.6,1c-0.6,0.2-1.2,0.3-1.8,0.3c-0.5,0-0.9,0-1.2-0.1c-0.3-0.1-0.4-0.2-0.4-0.4v-1.8h1
		c0.4,0,0.8-0.1,1.1-0.2s0.7-0.5,1.1-0.9c0.3-0.5,0.7-1.1,1-1.9c0.3-0.8,0.6-1.9,0.8-3.3c0.3-1.4,0.5-3.1,0.7-5.1s0.3-4.4,0.4-7.1
		H205.3z"/>
</g>
<g class="st28">
	<path class="st9" d="M227.4,202.1h-2.2c-0.3,0-0.5-0.1-0.6-0.2c-0.2-0.1-0.3-0.3-0.3-0.5l-1.9-5h-9.3l-1.9,5
		c-0.1,0.2-0.2,0.3-0.3,0.5s-0.4,0.2-0.6,0.2H208l8.3-20.7h2.8L227.4,202.1z M213.8,194.4h7.7l-3.3-8.4c-0.1-0.2-0.2-0.5-0.3-0.9
		c-0.1-0.3-0.2-0.7-0.3-1.1c-0.1,0.4-0.2,0.7-0.3,1.1c-0.1,0.3-0.2,0.6-0.3,0.9L213.8,194.4z"/>
</g>
<g class="st28">
	<path class="st9" d="M242.1,181.4v2.4h-6.7v18.4h-2.8v-18.4h-6.7v-2.4H242.1z"/>
	<path class="st9" d="M262,202.1h-2.8v-9.4H248v9.4h-2.8v-20.7h2.8v9.2h11.2v-9.2h2.8V202.1z"/>
	<path class="st9" d="M270.1,181.4v8.9h4c1.3,0,2.4,0.1,3.3,0.4c0.9,0.3,1.7,0.7,2.3,1.2c0.6,0.5,1,1.1,1.3,1.8
		c0.3,0.7,0.4,1.4,0.4,2.2c0,1-0.2,1.8-0.5,2.6c-0.3,0.8-0.8,1.4-1.4,2c-0.6,0.5-1.4,1-2.3,1.2s-1.9,0.4-3.1,0.4h-6.8v-20.7H270.1z
		 M270.1,192.5v7.3h4c0.8,0,1.5-0.1,2.1-0.3c0.6-0.2,1-0.4,1.4-0.8c0.4-0.3,0.6-0.7,0.8-1.2c0.2-0.5,0.3-1,0.3-1.5
		c0-0.6-0.1-1.1-0.3-1.5c-0.2-0.4-0.4-0.8-0.8-1.1c-0.4-0.3-0.8-0.5-1.4-0.7s-1.3-0.2-2.1-0.2H270.1z M288,202.1h-2.8v-20.7h2.8
		V202.1z"/>
	<path class="st9" d="M306.7,182.2c0.1-0.2,0.3-0.4,0.5-0.6c0.2-0.2,0.5-0.3,0.7-0.3h2.1v20.7h-2.8v-14.7c0-0.4,0-0.8,0-1.3
		c0-0.4,0.1-0.9,0.1-1.4c-0.2,0.4-0.3,0.8-0.5,1.2s-0.4,0.7-0.6,1l-9.7,14.4c-0.1,0.2-0.3,0.4-0.5,0.6c-0.2,0.2-0.5,0.3-0.7,0.3
		h-2.1v-20.7h2.8v14.7c0,0.4,0,0.8,0,1.3s-0.1,0.9-0.1,1.4c0.2-0.4,0.3-0.9,0.5-1.2s0.4-0.7,0.6-1L306.7,182.2z M301.7,178.7
		c0.4,0,0.7,0,1-0.1c0.3-0.1,0.5-0.2,0.7-0.4c0.2-0.2,0.3-0.4,0.4-0.8c0.1-0.3,0.1-0.7,0.1-1.2h1.5c0.2,0,0.3,0.1,0.4,0.2
		c0.1,0.2,0.1,0.3,0.1,0.5c0,1-0.4,1.7-1.1,2.2s-1.8,0.8-3.1,0.8c-1.3,0-2.4-0.3-3.1-0.8s-1.1-1.3-1.1-2.2c0-0.2,0-0.4,0.1-0.5
		c0.1-0.2,0.2-0.2,0.4-0.2h1.5c0,0.5,0,0.9,0.1,1.2c0.1,0.3,0.2,0.6,0.4,0.8c0.2,0.2,0.4,0.3,0.7,0.4S301.4,178.7,301.7,178.7z"/>
	<path class="st9" d="M322.8,202.1v-20.7h6.6c1.3,0,2.4,0.1,3.3,0.4c0.9,0.3,1.7,0.6,2.3,1.1c0.6,0.5,1,1,1.3,1.7
		c0.3,0.7,0.4,1.4,0.4,2.3c0,0.5-0.1,1-0.2,1.5c-0.2,0.5-0.4,0.9-0.7,1.3c-0.3,0.4-0.7,0.8-1.2,1.1c-0.5,0.3-1.1,0.6-1.7,0.8
		c1.5,0.3,2.7,0.8,3.4,1.6c0.8,0.8,1.2,1.8,1.2,3.1c0,0.9-0.2,1.7-0.5,2.4c-0.3,0.7-0.8,1.3-1.4,1.9c-0.6,0.5-1.4,0.9-2.3,1.2
		c-0.9,0.3-1.9,0.4-3.1,0.4H322.8z M325.6,190.6h3.7c0.8,0,1.5-0.1,2.1-0.3c0.6-0.2,1.1-0.4,1.4-0.7c0.4-0.3,0.7-0.7,0.8-1.1
		c0.2-0.4,0.3-0.9,0.3-1.4c0-1.2-0.4-2.1-1.1-2.7c-0.7-0.6-1.9-0.8-3.4-0.8h-3.8V190.6z M325.6,192.6v7.2h4.5c0.8,0,1.5-0.1,2.1-0.3
		c0.6-0.2,1.1-0.4,1.4-0.8c0.4-0.3,0.6-0.7,0.8-1.2c0.2-0.5,0.3-1,0.3-1.5c0-1.1-0.4-1.9-1.1-2.5c-0.8-0.6-1.9-0.9-3.4-0.9H325.6z"
		/>
	<path class="st9" d="M354.2,181.4v2.3h-10v6.9h8.1v2.2h-8.1v7.1h10l0,2.3h-12.8v-20.7H354.2z"/>
	<path class="st9" d="M371.6,183.6H361v6.7h4c1.3,0,2.4,0.1,3.3,0.4c0.9,0.3,1.7,0.7,2.3,1.2c0.6,0.5,1,1.1,1.3,1.8
		c0.3,0.7,0.4,1.4,0.4,2.2c0,1-0.2,1.8-0.5,2.6c-0.3,0.8-0.8,1.4-1.4,2c-0.6,0.5-1.4,1-2.3,1.2s-1.9,0.4-3.1,0.4h-6.8v-20.7h13.4
		V183.6z M361,192.5v7.3h4c0.8,0,1.5-0.1,2.1-0.3c0.6-0.2,1-0.4,1.4-0.8c0.4-0.3,0.6-0.7,0.8-1.2c0.2-0.5,0.3-1,0.3-1.5
		c0-0.6-0.1-1.1-0.3-1.5c-0.2-0.4-0.4-0.8-0.8-1.1c-0.4-0.3-0.8-0.5-1.4-0.7s-1.3-0.2-2.1-0.2H361z"/>
	<path class="st9" d="M389.5,182.2c0.1-0.2,0.3-0.4,0.5-0.6c0.2-0.2,0.5-0.3,0.7-0.3h2.1v20.7h-2.8v-14.7c0-0.4,0-0.8,0-1.3
		c0-0.4,0.1-0.9,0.1-1.4c-0.2,0.4-0.3,0.8-0.5,1.2s-0.4,0.7-0.6,1l-9.7,14.4c-0.1,0.2-0.3,0.4-0.5,0.6c-0.2,0.2-0.5,0.3-0.7,0.3
		h-2.1v-20.7h2.8v14.7c0,0.4,0,0.8,0,1.3s-0.1,0.9-0.1,1.4c0.2-0.4,0.3-0.9,0.5-1.2s0.4-0.7,0.6-1L389.5,182.2z"/>
	<path class="st9" d="M415,202.1h-2.8v-9.4H401v9.4h-2.8v-20.7h2.8v9.2h11.2v-9.2h2.8V202.1z"/>
	<path class="st9" d="M437.1,202.1h-2.2c-0.3,0-0.5-0.1-0.6-0.2c-0.2-0.1-0.3-0.3-0.3-0.5l-1.9-5h-9.3l-1.9,5
		c-0.1,0.2-0.2,0.3-0.3,0.5s-0.4,0.2-0.6,0.2h-2.2l8.3-20.7h2.8L437.1,202.1z M423.5,194.4h7.7L428,186c-0.1-0.2-0.2-0.5-0.3-0.9
		c-0.1-0.3-0.2-0.7-0.3-1.1c-0.1,0.4-0.2,0.7-0.3,1.1c-0.1,0.3-0.2,0.6-0.3,0.9L423.5,194.4z"/>
	<path class="st9" d="M442.6,194.3v7.8h-2.8v-20.7h6.1c1.3,0,2.5,0.2,3.4,0.5s1.8,0.7,2.4,1.3c0.6,0.6,1.1,1.2,1.4,2
		c0.3,0.8,0.5,1.7,0.5,2.6c0,1-0.2,1.8-0.5,2.6c-0.3,0.8-0.8,1.5-1.5,2.1s-1.5,1-2.4,1.4c-1,0.3-2.1,0.5-3.3,0.5H442.6z
		 M442.6,192.1h3.3c0.8,0,1.5-0.1,2.1-0.3c0.6-0.2,1.1-0.5,1.5-0.9s0.7-0.8,0.9-1.4c0.2-0.5,0.3-1.1,0.3-1.7c0-1.3-0.4-2.4-1.2-3.1
		s-2.1-1.1-3.7-1.1h-3.3V192.1z"/>
</g>
<g class="st28">
	<path class="st9" d="M136.1,311.4l-9.2-24l-2.9,5.5v18.5h-9.5v-60.2h9.5v26.2l12.4-26.2h9.5L132.6,278l13.2,33.4H136.1z"/>
	<path class="st9" d="M171.1,251.2l9.6,60.2h-9.5l-1.6-10.9h-11.6l-1.6,10.9h-8.7l9.6-60.2H171.1z M163.7,261.9l-4.6,30.4h9.1
		L163.7,261.9z"/>
	<path class="st9" d="M206.7,311.4l-9.2-24l-2.9,5.5v18.5h-9.5v-60.2h9.5v26.2l12.4-26.2h9.5L203.2,278l13.2,33.4H206.7z"/>
	<path class="st9" d="M252.2,269.3V266c0-2.6-0.4-4.4-1.2-5.4c-0.8-1-2.1-1.5-3.7-1.5c-3.3,0-5,2-5,5.9v4.9h-8.7v-4.5
		c0-4.9,1.2-8.6,3.5-11.1c2.4-2.6,5.8-3.8,10.4-3.8c4.6,0,8.1,1.3,10.5,3.9c2.4,2.6,3.6,6.4,3.6,11.2v1.5c0,6.4-2.2,10.5-6.6,12.4
		c4.4,2,6.6,6.2,6.6,12.6v4.7c0,4.9-1.2,8.6-3.6,11.2c-2.4,2.6-5.9,3.9-10.5,3.9c-4.6,0-8.1-1.3-10.5-3.9c-2.4-2.6-3.6-6.3-3.6-11.2
		v-6.6h8.9v7.2c0,4,1.6,5.9,4.9,5.9c1.6,0,2.8-0.5,3.7-1.5c0.8-1,1.2-2.8,1.2-5.3V292c0-2.8-0.5-4.7-1.5-5.9c-1-1.2-2.6-1.8-4.7-1.8
		h-2.3v-8.6h2.8c1.9,0,3.3-0.5,4.3-1.5C251.8,273.3,252.2,271.6,252.2,269.3z"/>
	<path class="st9" d="M289,251.2l9.6,60.2h-9.5l-1.6-10.9h-11.6l-1.6,10.9h-8.7l9.6-60.2H289z M281.7,261.9l-4.6,30.4h9.1
		L281.7,261.9z"/>
	<path class="st9" d="M321.6,289h8.9v8c0,4.9-1.2,8.6-3.6,11.2c-2.4,2.6-5.9,3.9-10.5,3.9c-4.6,0-8.1-1.3-10.5-3.9
		c-2.4-2.6-3.6-6.3-3.6-11.2v-31.3c0-4.9,1.2-8.6,3.6-11.2c2.4-2.6,5.9-3.9,10.5-3.9c4.6,0,8.1,1.3,10.5,3.9
		c2.4,2.6,3.6,6.4,3.6,11.2v5.8h-8.9V265c0-4-1.6-5.9-4.9-5.9s-4.9,2-4.9,5.9v32.5c0,3.9,1.6,5.8,4.9,5.8s4.9-1.9,4.9-5.8V289z"/>
	<path class="st9" d="M333.5,259.8v-8.6h29.2v8.6h-9.9v51.6h-9.5v-51.6H333.5z"/>
	<path class="st9" d="M387.9,251.2l9.6,60.2h-9.5l-1.6-10.9h-11.6l-1.6,10.9h-8.7l9.6-60.2H387.9z M380.5,261.9l-4.6,30.4h9.1
		L380.5,261.9z"/>
	<path class="st9" d="M416.2,251.2c4.9,0,8.4,1.1,10.7,3.4c2.2,2.3,3.4,5.7,3.4,10.4v2.1c0,6.2-2,10.2-6.1,12.1
		c4.7,1.8,7.1,6.1,7.1,12.9v4.9c0,4.6-1.2,8.2-3.7,10.6c-2.4,2.4-6,3.7-10.7,3.7h-14.9v-60.2H416.2z M415.9,259.8h-4.6v15.9h3.7
		c1.9,0,3.3-0.5,4.3-1.5c0.9-1,1.4-2.6,1.4-4.9V266C420.7,261.9,419.1,259.8,415.9,259.8z M415.5,284.3h-4.2v18.5h5.4
		c1.7,0,2.9-0.4,3.7-1.3c0.8-0.9,1.2-2.4,1.2-4.6v-5.2c0-2.8-0.5-4.7-1.4-5.7C419.3,284.8,417.7,284.3,415.5,284.3z"/>
	<path class="st9" d="M454.4,283.8l-7.9,27.6h-9.7v-60.2h8.4v38.1l3.4-13.2l7.7-24.9h10.4v60.2h-8.5V269L454.4,283.8z"/>
	<path class="st9" d="M470.8,259.8v-8.6H500v8.6h-9.9v51.6h-9.5v-51.6H470.8z"/>
	<path class="st9" d="M518.1,311.4h-13.9v-60.2h9.5v22.6h4.5c9.4,0,14.1,5,14.1,14.9v7.8C532.2,306.4,527.5,311.4,518.1,311.4z
		 M513.6,302.8h4.5c1.5,0,2.7-0.4,3.5-1.3c0.8-0.9,1.2-2.3,1.2-4.4v-9c0-2.1-0.4-3.5-1.2-4.4c-0.8-0.9-1.9-1.3-3.5-1.3h-4.5V302.8z"
		/>
</g>
<g class="st28">
	<path class="st9" d="M132.1,387l-7.9,27.6h-9.7v-60.2h8.4v38.1l3.4-13.2l7.7-24.9h10.4v60.2H136v-42.4L132.1,387z"/>
	<path class="st9" d="M160.7,388.8v25.8h-9.5v-60.2h9.5v25.8h10.8v-25.8h9.6v60.2h-9.6v-25.8H160.7z"/>
	<path class="st9" d="M185.2,363v-8.6h29.2v8.6h-9.9v51.6H195V363H185.2z"/>
	<path class="st9" d="M228,363v16.8h13v8.6h-13V406h16.3v8.6h-25.8v-60.2h25.8v8.6H228z"/>
	<path class="st9" d="M264.1,354.4c9.4,0,14.1,5,14.1,14.9v7.8c0,9.9-4.7,14.9-14.1,14.9h-4.5v22.6h-9.5v-60.2H264.1z M264.1,363
		h-4.5v20.4h4.5c1.5,0,2.7-0.4,3.5-1.3c0.8-0.9,1.2-2.3,1.2-4.4v-9c0-2.1-0.4-3.5-1.2-4.4C266.8,363.4,265.7,363,264.1,363z"/>
	<path class="st9" d="M292.1,388.8v25.8h-9.5v-60.2h9.5v25.8h10.8v-25.8h9.6v60.2h-9.6v-25.8H292.1z"/>
	<path class="st9" d="M328.8,363v16.8h13v8.6h-13V406h16.3v8.6h-25.8v-60.2h25.8v8.6H328.8z"/>
	<path class="st9" d="M348.2,363v-8.6h29.2v8.6h-9.9v51.6h-9.5V363H348.2z"/>
	<path class="st9" d="M381.1,388.8v-8.6h17.2v8.6H381.1z"/>
	<path class="st9" d="M417.9,354.4l7,42.7l6.5-42.7h13.2v60.2h-8.9v-43.2l-6.5,43.2H420L413,372v42.6h-8.3v-60.2H417.9z"/>
	<path class="st9" d="M472.3,354.4l9.6,60.2h-9.5l-1.6-10.9h-11.6l-1.6,10.9h-8.7l9.6-60.2H472.3z M464.9,365.1l-4.6,30.4h9.1
		L464.9,365.1z"/>
	<path class="st9" d="M500.3,354.4c9.4,0,14.1,5,14.1,14.9v7.8c0,9.9-4.7,14.9-14.1,14.9h-4.5v22.6h-9.5v-60.2H500.3z M500.3,363
		h-4.5v20.4h4.5c1.5,0,2.7-0.4,3.5-1.3c0.8-0.9,1.2-2.3,1.2-4.4v-9c0-2.1-0.4-3.5-1.2-4.4C503,363.4,501.8,363,500.3,363z"/>
	<path class="st9" d="M540.3,414.6l-9.2-24l-2.9,5.5v18.5h-9.5v-60.2h9.5v26.2l12.4-26.2h9.5l-13.2,26.8l13.2,33.4H540.3z"/>
	<path class="st9" d="M563.8,363v16.8h13v8.6h-13V406h16.3v8.6h-25.8v-60.2h25.8v8.6H563.8z"/>
	<path class="st9" d="M583.2,363v-8.6h29.2v8.6h-9.9v51.6h-9.5V363H583.2z"/>
	<path class="st9" d="M634.2,387l-7.9,27.6h-9.7v-60.2h8.4v38.1l3.4-13.2l7.7-24.9h10.4v60.2h-8.5v-42.4L634.2,387z"/>
	<path class="st9" d="M662.8,388.8v25.8h-9.5v-60.2h9.5v25.8h10.8v-25.8h9.6v60.2h-9.6v-25.8H662.8z"/>
	<path class="st9" d="M699.6,414.6h-9.5v-60.2h24.9v8.6h-15.5V414.6z"/>
</g>
<g class="st28">
	<path class="st9" d="M128.4,457.6c9.4,0,14.1,5,14.1,14.9v7.8c0,9.9-4.7,14.9-14.1,14.9h-4.5v22.6h-9.5v-60.2H128.4z M128.4,466.2
		h-4.5v20.4h4.5c1.5,0,2.7-0.4,3.5-1.3c0.8-0.9,1.2-2.3,1.2-4.4v-9c0-2.1-0.4-3.5-1.2-4.4C131.1,466.6,129.9,466.2,128.4,466.2z"/>
	<path class="st9" d="M167.9,457.6l9.6,60.2H168l-1.6-10.9h-11.6l-1.6,10.9h-8.7l9.6-60.2H167.9z M160.5,468.3l-4.6,30.4h9.1
		L160.5,468.3z"/>
	<path class="st9" d="M196.9,517.8h-15v-60.2h26.5v8.6h-17v15.4h5.5c4.7,0,8.3,1.3,10.7,3.8c2.4,2.6,3.6,6.2,3.6,11.1v6.5
		c0,4.8-1.2,8.5-3.6,11.1C205.2,516.5,201.6,517.8,196.9,517.8z M191.4,509.2h5.5c3.2,0,4.8-1.9,4.8-5.7v-7.7c0-3.8-1.6-5.7-4.8-5.7
		h-5.5V509.2z"/>
	<path class="st9" d="M216.8,503.4V472c0-4.8,1.2-8.5,3.7-11.2c2.5-2.6,6-4,10.7-4s8.2,1.3,10.7,4c2.5,2.6,3.7,6.4,3.7,11.2v31.3
		c0,4.8-1.2,8.5-3.7,11.2c-2.5,2.6-6,4-10.7,4s-8.2-1.3-10.7-4C218,511.9,216.8,508.2,216.8,503.4z M226.3,471.4V504
		c0,4,1.6,5.9,4.9,5.9s4.9-2,4.9-5.9v-32.5c0-4-1.6-5.9-4.9-5.9S226.3,467.5,226.3,471.4z"/>
	<path class="st9" d="M248.9,466.2v-8.6h29.2v8.6h-9.9v51.6h-9.5v-51.6H248.9z"/>
	<path class="st9" d="M303.2,457.6l9.6,60.2h-9.5l-1.6-10.9h-11.6l-1.6,10.9h-8.7l9.6-60.2H303.2z M295.8,468.3l-4.6,30.4h9.1
		L295.8,468.3z"/>
	<path class="st9" d="M314.5,466.2v-8.6h29.2v8.6h-9.9v51.6h-9.5v-51.6H314.5z"/>
	<path class="st9" d="M361.8,517.8h-13.9v-60.2h9.5v22.6h4.5c9.4,0,14.1,5,14.1,14.9v7.8C375.9,512.8,371.2,517.8,361.8,517.8z
		 M357.3,509.2h4.5c1.5,0,2.7-0.4,3.5-1.3c0.8-0.9,1.2-2.3,1.2-4.4v-9c0-2.1-0.4-3.5-1.2-4.4c-0.8-0.9-1.9-1.3-3.5-1.3h-4.5V509.2z"
		/>
	<path class="st9" d="M404.4,492v25.8h-9.5v-60.2h9.5v25.8h10.8v-25.8h9.6v60.2h-9.6V492H404.4z"/>
	<path class="st9" d="M452.6,457.6l9.6,60.2h-9.5l-1.6-10.9h-11.6l-1.6,10.9h-8.7l9.6-60.2H452.6z M445.2,468.3l-4.6,30.4h9.1
		L445.2,468.3z"/>
	<path class="st9" d="M494.2,457.6c4.9,0,8.4,1.1,10.7,3.4c2.2,2.3,3.4,5.7,3.4,10.4v2.1c0,6.2-2,10.2-6.1,12.1
		c4.7,1.8,7.1,6.1,7.1,12.9v4.9c0,4.6-1.2,8.2-3.7,10.6c-2.4,2.4-6,3.7-10.7,3.7H480v-60.2H494.2z M494,466.2h-4.6v15.9h3.7
		c1.9,0,3.3-0.5,4.3-1.5c0.9-1,1.4-2.6,1.4-4.9v-3.4C498.8,468.3,497.2,466.2,494,466.2z M493.6,490.7h-4.2v18.5h5.4
		c1.7,0,2.9-0.4,3.7-1.3c0.8-0.9,1.2-2.4,1.2-4.6V498c0-2.8-0.5-4.7-1.4-5.7C497.4,491.2,495.8,490.7,493.6,490.7z"/>
	<path class="st9" d="M535.9,457.6l9.6,60.2h-9.5l-1.6-10.9h-11.6l-1.6,10.9h-8.7l9.6-60.2H535.9z M528.5,468.3l-4.6,30.4h9.1
		L528.5,468.3z"/>
	<path class="st9" d="M568.4,495.4h8.9v8c0,4.9-1.2,8.6-3.6,11.2c-2.4,2.6-5.9,3.9-10.5,3.9c-4.6,0-8.1-1.3-10.5-3.9
		c-2.4-2.6-3.6-6.3-3.6-11.2V472c0-4.9,1.2-8.6,3.6-11.2c2.4-2.6,5.9-3.9,10.5-3.9c4.6,0,8.1,1.3,10.5,3.9c2.4,2.6,3.6,6.4,3.6,11.2
		v5.8h-8.9v-6.4c0-4-1.6-5.9-4.9-5.9c-3.3,0-4.9,2-4.9,5.9V504c0,3.9,1.6,5.8,4.9,5.8c3.3,0,4.9-1.9,4.9-5.8V495.4z"/>
</g>
<g class="st28">
	<path class="st9" d="M908.6,218.6v-24.8c0-3.8,1-6.8,2.9-8.8s4.8-3.1,8.4-3.1c3.7,0,6.5,1,8.4,3.1c1.9,2.1,2.9,5,2.9,8.8v24.8
		c0,3.8-1,6.8-2.9,8.8c-2,2.1-4.8,3.1-8.4,3.1c-3.7,0-6.5-1-8.4-3.1C909.6,225.4,908.6,222.4,908.6,218.6z M916.1,193.4v25.7
		c0,3.1,1.3,4.7,3.9,4.7s3.9-1.6,3.9-4.7v-25.7c0-3.1-1.3-4.7-3.9-4.7S916.1,190.3,916.1,193.4z"/>
	<path class="st9" d="M958.6,218.6c0,3.8-1,6.8-3,8.8c-2,2.1-4.9,3.1-8.7,3.1s-6.7-1-8.7-3.1c-2-2.1-3-5-3-8.8v-3.7
		c0-4.9,1.5-8.2,4.6-9.9c-3.1-1.7-4.6-4.9-4.6-9.6v-1.5c0-3.8,1-6.8,3-8.8s4.9-3.1,8.7-3.1s6.7,1,8.7,3.1s3,5,3,8.8v1.5
		c0,4.7-1.5,7.9-4.6,9.6c3.1,1.7,4.6,5,4.6,9.9V218.6z M942.7,194.2v2.7c0,3.4,1.4,5,4.2,5s4.2-1.7,4.2-5v-2.7
		c0-3.6-1.4-5.4-4.2-5.4S942.7,190.5,942.7,194.2z M942.7,218.4c0,3.6,1.4,5.4,4.2,5.4c2.8,0,4.2-1.8,4.2-5.4V214
		c0-3.6-1.4-5.4-4.2-5.4s-4.2,1.8-4.2,5.4V218.4z"/>
</g>
<g class="st28">
	<path class="st9" d="M872,260.5c-0.3,0-0.5,0-0.6-0.1c-0.1-0.1-0.2-0.3-0.3-0.5l-0.3-1.4c-0.4,0.4-0.8,0.7-1.2,1
		c-0.4,0.3-0.8,0.5-1.2,0.7c-0.4,0.2-0.9,0.3-1.3,0.4c-0.5,0.1-1,0.2-1.6,0.2c-0.6,0-1.1-0.1-1.7-0.2c-0.5-0.2-1-0.4-1.4-0.7
		s-0.7-0.7-0.9-1.3c-0.2-0.5-0.3-1.1-0.3-1.8c0-0.6,0.2-1.2,0.5-1.7c0.3-0.6,0.9-1,1.6-1.5s1.7-0.8,2.9-1.1c1.2-0.3,2.6-0.4,4.4-0.5
		v-1.2c0-1.2-0.3-2.1-0.8-2.7c-0.5-0.6-1.3-0.9-2.2-0.9c-0.7,0-1.2,0.1-1.7,0.2c-0.4,0.2-0.8,0.4-1.2,0.6c-0.3,0.2-0.6,0.4-0.8,0.6
		c-0.2,0.2-0.5,0.2-0.7,0.2c-0.2,0-0.3,0-0.5-0.1c-0.1-0.1-0.2-0.2-0.3-0.4l-0.5-0.9c0.8-0.8,1.7-1.4,2.7-1.8c1-0.4,2-0.6,3.2-0.6
		c0.8,0,1.6,0.1,2.3,0.4c0.7,0.3,1.2,0.7,1.7,1.2c0.4,0.5,0.8,1.1,1,1.8c0.2,0.7,0.3,1.5,0.3,2.3v9.7H872z M866.3,258.9
		c0.5,0,0.9,0,1.3-0.1c0.4-0.1,0.8-0.2,1.1-0.4c0.3-0.2,0.7-0.4,1-0.6s0.6-0.5,0.9-0.9v-3.1c-1.2,0-2.3,0.1-3.1,0.3
		c-0.9,0.2-1.6,0.4-2.1,0.6c-0.5,0.3-0.9,0.5-1.2,0.9c-0.2,0.3-0.4,0.7-0.4,1.1c0,0.4,0.1,0.7,0.2,1s0.3,0.5,0.5,0.7
		c0.2,0.2,0.5,0.3,0.8,0.4S865.9,258.9,866.3,258.9z"/>
	<path class="st9" d="M877.2,245.3h5.6c0.9,0,1.7,0.1,2.4,0.3c0.7,0.2,1.2,0.4,1.7,0.8c0.4,0.3,0.7,0.7,0.9,1.1
		c0.2,0.4,0.3,0.9,0.3,1.4c0,0.3,0,0.7-0.1,1s-0.2,0.7-0.5,1c-0.2,0.3-0.5,0.6-0.9,0.9c-0.4,0.3-0.9,0.5-1.4,0.6
		c1.2,0.2,2,0.6,2.7,1.2c0.6,0.6,1,1.4,1,2.4c0,0.7-0.1,1.4-0.4,1.9c-0.3,0.5-0.7,1-1.2,1.4s-1.1,0.6-1.8,0.8
		c-0.7,0.2-1.4,0.3-2.2,0.3h-5.8V245.3z M879.8,251.9h2.9c0.4,0,0.8-0.1,1.2-0.2s0.7-0.3,1-0.5c0.3-0.2,0.5-0.5,0.6-0.8
		s0.2-0.7,0.2-1c0-0.3,0-0.6-0.1-0.8c-0.1-0.3-0.3-0.5-0.5-0.7c-0.2-0.2-0.6-0.4-0.9-0.5c-0.4-0.1-0.9-0.2-1.4-0.2h-2.9V251.9z
		 M879.8,253.6v5.1h3.3c1,0,1.8-0.2,2.4-0.7s0.9-1.1,0.9-1.9c0-0.4-0.1-0.7-0.2-1c-0.1-0.3-0.3-0.6-0.5-0.8c-0.2-0.2-0.6-0.4-1-0.5
		s-0.9-0.2-1.5-0.2H879.8z"/>
	<path class="st9" d="M902,245.3v2h-7.2v13.2h-2.7v-15.2H902z"/>
</g>
<g class="st28">
	<path class="st9" d="M909.2,265c-0.1,0.2-0.2,0.4-0.3,0.5s-0.3,0.2-0.6,0.2h-2l2.8-6l-6.3-14.3h2.3c0.2,0,0.4,0.1,0.5,0.2
		c0.1,0.1,0.2,0.2,0.3,0.4l4.1,9.6c0.1,0.2,0.2,0.5,0.2,0.7c0.1,0.2,0.1,0.4,0.2,0.7c0.1-0.4,0.3-0.9,0.5-1.3l3.9-9.6
		c0.1-0.2,0.2-0.3,0.3-0.4c0.1-0.1,0.3-0.2,0.5-0.2h2.1L909.2,265z"/>
</g>
<g class="st28">
	<path class="st9" d="M930.1,248c-0.1,0.1-0.2,0.2-0.2,0.3c-0.1,0.1-0.2,0.1-0.3,0.1c-0.2,0-0.3-0.1-0.5-0.2
		c-0.2-0.1-0.4-0.3-0.7-0.4s-0.6-0.3-1-0.4s-0.9-0.2-1.4-0.2c-0.8,0-1.4,0.1-2,0.4c-0.6,0.3-1,0.6-1.4,1.1s-0.7,1.1-0.9,1.8
		s-0.3,1.5-0.3,2.4c0,0.9,0.1,1.7,0.3,2.5s0.5,1.3,0.9,1.8s0.8,0.9,1.4,1.1s1.2,0.4,1.8,0.4c0.7,0,1.2-0.1,1.6-0.2
		c0.4-0.2,0.8-0.3,1-0.5c0.3-0.2,0.5-0.4,0.7-0.5c0.2-0.2,0.4-0.2,0.5-0.2c0.2,0,0.4,0.1,0.5,0.3l0.8,1c-0.3,0.4-0.7,0.8-1.1,1
		c-0.4,0.3-0.9,0.5-1.4,0.7c-0.5,0.2-1,0.3-1.5,0.4c-0.5,0.1-1.1,0.1-1.6,0.1c-1,0-1.8-0.2-2.6-0.5c-0.8-0.3-1.5-0.9-2.1-1.5
		c-0.6-0.7-1.1-1.5-1.4-2.5s-0.5-2.1-0.5-3.3c0-1.1,0.2-2.2,0.5-3.1c0.3-1,0.8-1.8,1.4-2.5c0.6-0.7,1.3-1.2,2.2-1.6
		c0.9-0.4,1.9-0.6,3.1-0.6c1.1,0,2,0.2,2.8,0.5c0.8,0.3,1.5,0.8,2.2,1.5L930.1,248z"/>
</g>
<g class="st28">
	<path class="st9" d="M932.2,245.3h14.3v2h-5.8v13.2H938v-13.2h-5.8V245.3z"/>
</g>
<g class="st28">
	<path class="st9" d="M958.5,260.5c-0.3,0-0.5,0-0.6-0.1c-0.1-0.1-0.2-0.3-0.3-0.5l-0.3-1.4c-0.4,0.4-0.8,0.7-1.2,1
		c-0.4,0.3-0.8,0.5-1.2,0.7c-0.4,0.2-0.9,0.3-1.3,0.4c-0.5,0.1-1,0.2-1.6,0.2c-0.6,0-1.1-0.1-1.7-0.2c-0.5-0.2-1-0.4-1.4-0.7
		s-0.7-0.7-0.9-1.3c-0.2-0.5-0.3-1.1-0.3-1.8c0-0.6,0.2-1.2,0.5-1.7c0.3-0.6,0.9-1,1.6-1.5s1.7-0.8,2.9-1.1c1.2-0.3,2.6-0.4,4.4-0.5
		v-1.2c0-1.2-0.3-2.1-0.8-2.7c-0.5-0.6-1.3-0.9-2.2-0.9c-0.7,0-1.2,0.1-1.7,0.2c-0.4,0.2-0.8,0.4-1.2,0.6c-0.3,0.2-0.6,0.4-0.8,0.6
		c-0.2,0.2-0.5,0.2-0.7,0.2c-0.2,0-0.3,0-0.5-0.1c-0.1-0.1-0.2-0.2-0.3-0.4l-0.5-0.9c0.8-0.8,1.7-1.4,2.7-1.8c1-0.4,2-0.6,3.2-0.6
		c0.8,0,1.6,0.1,2.3,0.4c0.7,0.3,1.2,0.7,1.7,1.2c0.4,0.5,0.8,1.1,1,1.8c0.2,0.7,0.3,1.5,0.3,2.3v9.7H958.5z M952.8,258.9
		c0.5,0,0.9,0,1.3-0.1c0.4-0.1,0.8-0.2,1.1-0.4c0.3-0.2,0.7-0.4,1-0.6s0.6-0.5,0.9-0.9v-3.1c-1.2,0-2.3,0.1-3.1,0.3
		c-0.9,0.2-1.6,0.4-2.1,0.6c-0.5,0.3-0.9,0.5-1.2,0.9c-0.2,0.3-0.4,0.7-0.4,1.1c0,0.4,0.1,0.7,0.2,1s0.3,0.5,0.5,0.7
		c0.2,0.2,0.5,0.3,0.8,0.4S952.5,258.9,952.8,258.9z"/>
</g>
<g class="st28">
	<path class="st9" d="M851.6,291.9v-5.3c2.6,0,4.4-0.5,5.5-1.5c1.1-1,2-2.5,2.7-4.5h5v47.6h-7.5v-36.3H851.6z"/>
	<path class="st9" d="M873.4,316.8v-24.3c0-8.3,3.8-12.4,11.4-12.4c3.6,0,6.4,1,8.3,3.1c1.9,2.1,2.9,5,2.9,8.9v1.2h-7.1v-1.7
		c0-3.1-1.3-4.7-3.9-4.7c-1.4,0-2.4,0.4-3.1,1.3c-0.7,0.9-1,2.4-1,4.6v8.7c1.3-2.8,3.6-4.2,6.9-4.2c5.5,0,8.3,3.6,8.3,10.9v8.7
		c0,3.8-1,6.8-2.9,8.8c-1.9,2.1-4.8,3.1-8.4,3.1s-6.5-1-8.4-3.1C874.4,323.5,873.4,320.6,873.4,316.8z M884.8,304
		c-2.6,0-3.9,1.6-3.9,4.7v8.6c0,3.1,1.3,4.6,3.9,4.6s3.9-1.5,3.9-4.6v-8.6C888.6,305.5,887.3,304,884.8,304z"/>
	<path class="st9" d="M900.8,295.1h7.2v7.2h-7.2V295.1z M900.8,321h7.2v7.2h-7.2V321z"/>
	<path class="st9" d="M912.8,316.8V292c0-3.8,1-6.8,2.9-8.8c1.9-2.1,4.8-3.1,8.4-3.1s6.5,1,8.4,3.1s2.9,5,2.9,8.8v24.8
		c0,3.8-1,6.8-2.9,8.8c-1.9,2.1-4.8,3.1-8.4,3.1s-6.5-1-8.4-3.1C913.8,323.5,912.8,320.6,912.8,316.8z M920.3,291.5v25.7
		c0,3.1,1.3,4.7,3.9,4.7s3.9-1.6,3.9-4.7v-25.7c0-3.1-1.3-4.7-3.9-4.7S920.3,288.4,920.3,291.5z"/>
	<path class="st9" d="M939.8,316.8V292c0-3.8,1-6.8,2.9-8.8c1.9-2.1,4.8-3.1,8.4-3.1s6.5,1,8.4,3.1s2.9,5,2.9,8.8v24.8
		c0,3.8-1,6.8-2.9,8.8c-1.9,2.1-4.8,3.1-8.4,3.1s-6.5-1-8.4-3.1C940.7,323.5,939.8,320.6,939.8,316.8z M947.2,291.5v25.7
		c0,3.1,1.3,4.7,3.9,4.7s3.9-1.6,3.9-4.7v-25.7c0-3.1-1.3-4.7-3.9-4.7S947.2,288.4,947.2,291.5z"/>
</g>
<radialGradient id="SVGID_6_" cx="540" cy="824.5" r="246.3171" gradientTransform="matrix(1 0 0 1 0 920)" gradientUnits="userSpaceOnUse">
	<stop  offset="0.18" style="stop-color:#F4E91C"/>
	<stop  offset="0.26" style="stop-color:#F6E625"/>
	<stop  offset="0.49" style="stop-color:#FBE037"/>
	<stop  offset="0.73" style="stop-color:#FEDC42"/>
	<stop  offset="1" style="stop-color:#FFDB45"/>
</radialGradient>
<path class="st29" d="M278.5,1667.5h523c42.5,0,77,34.5,77,77l0,0c0,42.5-34.5,77-77,77h-523c-42.5,0-77-34.5-77-77l0,0
	C201.5,1702,236,1667.5,278.5,1667.5z"/>
<g class="st28">
	<path class="st9" d="M332.6,1732.2c0,1.8-0.4,3.4-1.3,4.7c-0.9,1.4-2.1,2.4-3.8,3.2c0.9,0.4,1.7,0.8,2.5,1.4
		c0.7,0.5,1.4,1.2,1.9,1.9c0.5,0.7,1,1.5,1.2,2.3c0.3,0.8,0.4,1.7,0.4,2.6c0,1.6-0.3,3-0.9,4.4c-0.6,1.4-1.4,2.5-2.5,3.6
		s-2.5,1.8-4.1,2.4c-1.6,0.6-3.5,0.9-5.5,0.9c-2.6,0-4.9-0.4-6.9-1.3c-2-0.8-3.8-2-5.3-3.4l1.4-2.3c0.1-0.2,0.3-0.3,0.5-0.5
		c0.2-0.1,0.4-0.2,0.6-0.2c0.3,0,0.8,0.2,1.2,0.6c0.5,0.4,1.1,0.8,1.8,1.2s1.7,0.9,2.7,1.2c1.1,0.4,2.4,0.6,3.9,0.6
		c1.3,0,2.5-0.2,3.5-0.5c1-0.3,1.9-0.8,2.6-1.4c0.7-0.6,1.2-1.3,1.6-2.2c0.4-0.9,0.6-1.8,0.6-2.9c0-0.9-0.2-1.8-0.5-2.6
		c-0.4-0.8-0.9-1.5-1.6-2c-0.7-0.6-1.5-1-2.5-1.3c-1-0.3-2.1-0.5-3.3-0.5h-4.9v-4h4.7c1,0,2-0.1,2.8-0.4c0.9-0.2,1.6-0.6,2.2-1.1
		s1.1-1.1,1.5-1.8c0.4-0.7,0.5-1.5,0.5-2.4c0-0.8-0.2-1.6-0.5-2.2c-0.3-0.7-0.8-1.3-1.4-1.8c-0.6-0.5-1.4-0.9-2.3-1.1
		c-0.9-0.3-2-0.4-3.1-0.4c-1.3,0-2.5,0.1-3.4,0.4c-0.9,0.3-1.7,0.6-2.4,0.9s-1.2,0.7-1.6,0.9c-0.4,0.3-0.8,0.4-1.1,0.4
		c-0.3,0-0.5-0.1-0.6-0.2c-0.2-0.1-0.3-0.3-0.5-0.6l-1.2-2.3c1.3-1.2,2.9-2.1,4.7-2.7c1.8-0.6,3.8-0.9,6.1-0.9c1.8,0,3.5,0.2,5,0.7
		c1.5,0.4,2.7,1.1,3.8,1.9c1,0.8,1.8,1.8,2.4,2.9C332.3,1729.7,332.6,1730.9,332.6,1732.2z"/>
</g>
<g class="st28">
	<path class="st9" d="M355.3,1759.2c-0.4,0-0.8-0.1-1-0.2s-0.4-0.4-0.5-0.8l-0.5-2.4c-0.7,0.6-1.3,1.1-2,1.6c-0.6,0.5-1.3,0.9-2,1.2
		s-1.4,0.6-2.2,0.7c-0.8,0.2-1.7,0.3-2.6,0.3c-1,0-1.9-0.1-2.8-0.4c-0.9-0.3-1.6-0.7-2.3-1.2c-0.6-0.5-1.1-1.2-1.5-2.1
		s-0.6-1.8-0.6-3c0-1,0.3-2,0.8-2.9c0.5-0.9,1.4-1.7,2.7-2.5c1.2-0.7,2.8-1.3,4.8-1.8c2-0.5,4.4-0.7,7.3-0.8v-2c0-2-0.4-3.4-1.3-4.5
		s-2.1-1.5-3.7-1.5c-1.1,0-2,0.1-2.8,0.4s-1.4,0.6-1.9,0.9s-1,0.6-1.4,0.9c-0.4,0.3-0.8,0.4-1.2,0.4c-0.3,0-0.6-0.1-0.8-0.2
		s-0.4-0.4-0.5-0.6l-0.8-1.4c1.4-1.3,2.9-2.4,4.5-3c1.6-0.7,3.4-1,5.4-1c1.4,0,2.7,0.2,3.8,0.7c1.1,0.5,2,1.1,2.8,1.9
		c0.7,0.8,1.3,1.8,1.7,3c0.4,1.2,0.6,2.5,0.6,3.9v16.2H355.3z M345.7,1756.5c0.8,0,1.5-0.1,2.1-0.2s1.3-0.4,1.8-0.7
		c0.6-0.3,1.1-0.6,1.6-1.1c0.5-0.4,1-0.9,1.5-1.4v-5.2c-2,0.1-3.8,0.2-5.2,0.5s-2.6,0.6-3.5,1s-1.6,0.9-2,1.5
		c-0.4,0.6-0.6,1.2-0.6,1.9c0,0.7,0.1,1.2,0.3,1.7c0.2,0.5,0.5,0.9,0.9,1.2c0.4,0.3,0.8,0.5,1.3,0.7
		C344.6,1756.4,345.2,1756.5,345.7,1756.5z"/>
	<path class="st9" d="M364,1767.8v-33.8h2.7c0.6,0,1,0.3,1.2,0.9l0.4,3c1.1-1.3,2.3-2.4,3.7-3.2c1.4-0.8,3-1.2,4.8-1.2
		c1.5,0,2.8,0.3,4,0.8s2.2,1.4,3,2.5s1.5,2.4,1.9,4.1c0.4,1.6,0.7,3.5,0.7,5.6c0,1.9-0.2,3.6-0.7,5.2c-0.5,1.6-1.2,3-2.2,4.2
		c-0.9,1.2-2.1,2.1-3.4,2.8c-1.4,0.7-2.9,1-4.6,1c-1.5,0-2.9-0.3-4-0.8c-1.1-0.5-2.1-1.2-2.9-2.2v11.2H364z M375.3,1737.1
		c-1.4,0-2.7,0.3-3.8,1c-1.1,0.7-2.1,1.6-3,2.8v12.2c0.8,1.1,1.7,1.9,2.7,2.3c1,0.4,2.1,0.7,3.3,0.7c2.4,0,4.2-0.8,5.4-2.5
		c1.3-1.7,1.9-4.1,1.9-7.2c0-1.6-0.1-3.1-0.4-4.2c-0.3-1.2-0.7-2.2-1.3-2.9c-0.5-0.8-1.2-1.3-2-1.7
		C377.2,1737.3,376.3,1737.1,375.3,1737.1z"/>
	<path class="st9" d="M402.3,1733.5c1.5,0,2.9,0.3,4.2,0.8c1.3,0.5,2.4,1.2,3.3,2.2c0.9,1,1.7,2.1,2.2,3.5c0.5,1.4,0.8,3,0.8,4.8
		c0,0.7-0.1,1.2-0.2,1.4c-0.1,0.2-0.4,0.3-0.8,0.3h-16.9c0,1.6,0.2,3,0.6,4.2c0.4,1.2,0.9,2.2,1.6,3c0.7,0.8,1.5,1.4,2.5,1.8
		c1,0.4,2,0.6,3.2,0.6c1.1,0,2.1-0.1,2.9-0.4c0.8-0.3,1.5-0.5,2.1-0.8c0.6-0.3,1.1-0.6,1.5-0.8c0.4-0.3,0.7-0.4,1-0.4
		c0.4,0,0.6,0.1,0.8,0.4l1.2,1.6c-0.5,0.7-1.2,1.2-2,1.7c-0.8,0.5-1.6,0.9-2.5,1.2s-1.8,0.6-2.7,0.7c-0.9,0.2-1.9,0.2-2.8,0.2
		c-1.7,0-3.4-0.3-4.8-0.9c-1.5-0.6-2.7-1.5-3.8-2.6c-1.1-1.1-1.9-2.5-2.5-4.2c-0.6-1.7-0.9-3.6-0.9-5.8c0-1.8,0.3-3.4,0.8-4.9
		c0.5-1.5,1.3-2.9,2.3-4c1-1.1,2.3-2,3.7-2.6C398.8,1733.9,400.5,1733.5,402.3,1733.5z M402.4,1736.8c-2.1,0-3.8,0.6-5.1,1.9
		c-1.2,1.2-2,3-2.3,5.2h13.8c0-1-0.1-2-0.4-2.8c-0.3-0.9-0.7-1.6-1.3-2.2c-0.6-0.6-1.2-1.1-2-1.4
		C404.3,1737,403.4,1736.8,402.4,1736.8z"/>
	<path class="st9" d="M434.7,1733.9v3.4h-11.9v21.9h-4.5v-25.3H434.7z"/>
	<path class="st9" d="M438.9,1759.2V1734h4.5v17.2c0,0.3,0,0.7-0.1,1s-0.1,0.8-0.1,1.1c0.1-0.3,0.3-0.6,0.4-0.9
		c0.2-0.3,0.3-0.5,0.5-0.7c0,0,0.2-0.3,0.6-0.8c0.4-0.5,0.8-1.1,1.4-1.9c0.6-0.8,1.2-1.7,2-2.7c0.7-1,1.5-2,2.2-3
		c1.8-2.4,3.8-5.1,6-8.2c0.2-0.3,0.4-0.5,0.7-0.8c0.3-0.2,0.6-0.4,0.9-0.4h2.7v25.3h-4.4v-17.2c0-0.3,0-0.7,0-1
		c0-0.4,0.1-0.8,0.1-1.1c-0.1,0.3-0.3,0.6-0.5,0.9c-0.2,0.3-0.3,0.5-0.5,0.8c0,0-0.2,0.3-0.6,0.8s-0.8,1.1-1.4,1.9
		c-0.6,0.8-1.2,1.7-2,2.7c-0.7,1-1.5,2-2.2,3c-1.8,2.4-3.8,5.1-6,8.2c-0.2,0.3-0.4,0.5-0.7,0.8s-0.6,0.4-0.9,0.4H438.9z"/>
	<path class="st9" d="M485.2,1738.4c-0.1,0.2-0.3,0.3-0.4,0.4c-0.1,0.1-0.3,0.1-0.5,0.1c-0.2,0-0.5-0.1-0.8-0.3
		c-0.3-0.2-0.7-0.4-1.1-0.7c-0.4-0.2-1-0.5-1.6-0.7c-0.6-0.2-1.4-0.3-2.4-0.3c-1.2,0-2.3,0.2-3.3,0.7c-0.9,0.4-1.7,1.1-2.4,1.9
		c-0.6,0.8-1.1,1.8-1.4,3c-0.3,1.2-0.5,2.5-0.5,4c0,1.5,0.2,2.9,0.5,4.1c0.3,1.2,0.8,2.2,1.5,3c0.6,0.8,1.4,1.4,2.3,1.8
		c0.9,0.4,1.9,0.6,3.1,0.6c1.1,0,2-0.1,2.7-0.4c0.7-0.3,1.3-0.5,1.7-0.9c0.5-0.3,0.8-0.6,1.1-0.9c0.3-0.3,0.6-0.4,0.9-0.4
		c0.4,0,0.6,0.1,0.8,0.4l1.2,1.6c-0.5,0.7-1.2,1.3-1.9,1.7c-0.7,0.5-1.5,0.9-2.3,1.2c-0.8,0.3-1.7,0.6-2.5,0.7
		c-0.9,0.1-1.8,0.2-2.7,0.2c-1.6,0-3-0.3-4.4-0.9c-1.4-0.6-2.5-1.4-3.5-2.5s-1.8-2.5-2.3-4.1c-0.6-1.6-0.8-3.5-0.8-5.5
		c0-1.9,0.3-3.6,0.8-5.2c0.5-1.6,1.3-3,2.3-4.1c1-1.2,2.2-2.1,3.7-2.7c1.5-0.6,3.2-1,5.1-1c1.8,0,3.3,0.3,4.7,0.9
		c1.4,0.6,2.6,1.4,3.6,2.4L485.2,1738.4z"/>
	<path class="st9" d="M488.6,1733.9h23.9v3.4h-9.7v21.9h-4.4v-21.9h-9.7V1733.9z"/>
	<path class="st9" d="M516.7,1767.8v-33.8h2.7c0.6,0,1,0.3,1.2,0.9l0.4,3c1.1-1.3,2.3-2.4,3.7-3.2c1.4-0.8,3-1.2,4.8-1.2
		c1.5,0,2.8,0.3,4,0.8s2.2,1.4,3,2.5s1.5,2.4,1.9,4.1c0.4,1.6,0.7,3.5,0.7,5.6c0,1.9-0.2,3.6-0.7,5.2c-0.5,1.6-1.2,3-2.2,4.2
		c-0.9,1.2-2.1,2.1-3.4,2.8c-1.4,0.7-2.9,1-4.6,1c-1.5,0-2.9-0.3-4-0.8c-1.1-0.5-2.1-1.2-2.9-2.2v11.2H516.7z M528,1737.1
		c-1.4,0-2.7,0.3-3.8,1c-1.1,0.7-2.1,1.6-3,2.8v12.2c0.8,1.1,1.7,1.9,2.7,2.3c1,0.4,2.1,0.7,3.3,0.7c2.4,0,4.2-0.8,5.4-2.5
		c1.3-1.7,1.9-4.1,1.9-7.2c0-1.6-0.1-3.1-0.4-4.2c-0.3-1.2-0.7-2.2-1.3-2.9c-0.5-0.8-1.2-1.3-2-1.7
		C529.9,1737.3,529,1737.1,528,1737.1z"/>
	<path class="st9" d="M544.7,1759.2V1734h4.5v17.2c0,0.3,0,0.7-0.1,1s-0.1,0.8-0.1,1.1c0.1-0.3,0.3-0.6,0.4-0.9
		c0.2-0.3,0.3-0.5,0.5-0.7c0,0,0.2-0.3,0.6-0.8c0.4-0.5,0.8-1.1,1.4-1.9s1.2-1.7,2-2.7c0.7-1,1.5-2,2.2-3c1.8-2.4,3.8-5.1,6-8.2
		c0.2-0.3,0.4-0.5,0.7-0.8c0.3-0.2,0.6-0.4,0.9-0.4h2.7v25.3h-4.4v-17.2c0-0.3,0-0.7,0-1s0.1-0.8,0.1-1.1c-0.1,0.3-0.3,0.6-0.5,0.9
		s-0.3,0.5-0.5,0.8c0,0-0.2,0.3-0.6,0.8c-0.4,0.5-0.8,1.1-1.4,1.9s-1.2,1.7-2,2.7c-0.7,1-1.5,2-2.2,3c-1.8,2.4-3.8,5.1-6,8.2
		c-0.2,0.3-0.4,0.5-0.7,0.8s-0.6,0.4-0.9,0.4H544.7z"/>
	<path class="st9" d="M573.4,1767.8v-33.8h2.7c0.6,0,1,0.3,1.2,0.9l0.4,3c1.1-1.3,2.3-2.4,3.7-3.2c1.4-0.8,3-1.2,4.8-1.2
		c1.5,0,2.8,0.3,4,0.8c1.2,0.6,2.2,1.4,3,2.5s1.5,2.4,1.9,4.1c0.4,1.6,0.7,3.5,0.7,5.6c0,1.9-0.2,3.6-0.7,5.2s-1.2,3-2.2,4.2
		c-0.9,1.2-2.1,2.1-3.4,2.8c-1.4,0.7-2.9,1-4.6,1c-1.5,0-2.9-0.3-4-0.8c-1.1-0.5-2.1-1.2-2.9-2.2v11.2H573.4z M584.7,1737.1
		c-1.4,0-2.7,0.3-3.8,1c-1.1,0.7-2.1,1.6-3,2.8v12.2c0.8,1.1,1.7,1.9,2.7,2.3s2.1,0.7,3.3,0.7c2.4,0,4.2-0.8,5.4-2.5
		c1.3-1.7,1.9-4.1,1.9-7.2c0-1.6-0.1-3.1-0.4-4.2c-0.3-1.2-0.7-2.2-1.3-2.9s-1.2-1.3-2-1.7C586.6,1737.3,585.7,1737.1,584.7,1737.1z
		"/>
	<path class="st9" d="M612,1733.5c1.8,0,3.5,0.3,5,0.9c1.5,0.6,2.7,1.5,3.8,2.6c1,1.1,1.9,2.5,2.4,4.1c0.6,1.6,0.8,3.4,0.8,5.4
		c0,2-0.3,3.8-0.8,5.4c-0.6,1.6-1.4,3-2.4,4.1c-1,1.1-2.3,2-3.8,2.6c-1.5,0.6-3.1,0.9-5,0.9c-1.9,0-3.5-0.3-5-0.9
		c-1.5-0.6-2.8-1.5-3.8-2.6c-1-1.1-1.9-2.5-2.4-4.1c-0.6-1.6-0.8-3.4-0.8-5.4c0-2,0.3-3.8,0.8-5.4c0.6-1.6,1.4-3,2.4-4.1
		c1-1.1,2.3-2,3.8-2.6C608.4,1733.8,610.1,1733.5,612,1733.5z M612,1756.1c2.5,0,4.4-0.8,5.6-2.5c1.2-1.7,1.8-4,1.8-7
		c0-3-0.6-5.4-1.8-7c-1.2-1.7-3.1-2.5-5.6-2.5c-1.3,0-2.4,0.2-3.3,0.6c-0.9,0.4-1.7,1.1-2.3,1.9c-0.6,0.8-1.1,1.8-1.4,3
		c-0.3,1.2-0.5,2.5-0.5,4c0,3,0.6,5.3,1.9,7C607.6,1755.3,609.4,1756.1,612,1756.1z"/>
	<path class="st9" d="M629.6,1733.9h9.3c1.6,0,2.9,0.2,4,0.5c1.1,0.3,2,0.7,2.7,1.3c0.7,0.5,1.2,1.2,1.6,1.9
		c0.3,0.7,0.5,1.5,0.5,2.3c0,0.5-0.1,1.1-0.2,1.7c-0.1,0.6-0.4,1.2-0.8,1.7c-0.4,0.5-0.9,1-1.5,1.5c-0.6,0.4-1.4,0.8-2.4,1
		c1.9,0.3,3.4,1,4.5,2s1.6,2.3,1.6,4c0,1.2-0.2,2.3-0.7,3.2c-0.5,0.9-1.2,1.7-2,2.3c-0.9,0.6-1.9,1.1-3,1.4
		c-1.1,0.3-2.4,0.4-3.7,0.4h-9.7V1733.9z M633.9,1744.9h4.9c0.7,0,1.4-0.1,2-0.3s1.2-0.5,1.6-0.9c0.4-0.4,0.8-0.8,1-1.3
		c0.2-0.5,0.4-1.1,0.4-1.7c0-0.5-0.1-0.9-0.2-1.4c-0.2-0.4-0.4-0.8-0.8-1.2s-0.9-0.6-1.6-0.8c-0.6-0.2-1.4-0.3-2.4-0.3h-4.9V1744.9z
		 M633.9,1747.7v8.4h5.4c1.7,0,3-0.4,3.9-1.2c1-0.8,1.4-1.8,1.4-3.2c0-0.6-0.1-1.1-0.3-1.6c-0.2-0.5-0.5-0.9-0.9-1.3
		c-0.4-0.4-1-0.6-1.7-0.8c-0.7-0.2-1.5-0.3-2.5-0.3H633.9z"/>
</g>
<g class="st28">
	<path class="st9" d="M670.5,1759.2c-0.4,0-0.8-0.1-1-0.2c-0.2-0.1-0.4-0.4-0.5-0.8l-0.5-2.4c-0.7,0.6-1.3,1.1-2,1.6
		c-0.6,0.5-1.3,0.9-2,1.2s-1.4,0.6-2.2,0.7c-0.8,0.2-1.7,0.3-2.6,0.3c-1,0-1.9-0.1-2.8-0.4s-1.6-0.7-2.3-1.2
		c-0.6-0.5-1.1-1.2-1.5-2.1c-0.4-0.8-0.6-1.8-0.6-3c0-1,0.3-2,0.8-2.9c0.5-0.9,1.4-1.7,2.7-2.5c1.2-0.7,2.8-1.3,4.8-1.8
		s4.4-0.7,7.3-0.8v-2c0-2-0.4-3.4-1.3-4.5s-2.1-1.5-3.7-1.5c-1.1,0-2,0.1-2.8,0.4s-1.4,0.6-1.9,0.9c-0.5,0.3-1,0.6-1.4,0.9
		c-0.4,0.3-0.8,0.4-1.2,0.4c-0.3,0-0.6-0.1-0.8-0.2c-0.2-0.2-0.4-0.4-0.5-0.6l-0.8-1.4c1.4-1.3,2.9-2.4,4.5-3c1.6-0.7,3.4-1,5.4-1
		c1.4,0,2.7,0.2,3.8,0.7c1.1,0.5,2,1.1,2.8,1.9s1.3,1.8,1.7,3c0.4,1.2,0.6,2.5,0.6,3.9v16.2H670.5z M661,1756.5
		c0.8,0,1.5-0.1,2.1-0.2c0.6-0.2,1.3-0.4,1.8-0.7s1.1-0.6,1.6-1.1c0.5-0.4,1-0.9,1.5-1.4v-5.2c-2,0.1-3.8,0.2-5.2,0.5
		c-1.4,0.3-2.6,0.6-3.5,1c-0.9,0.4-1.6,0.9-2,1.5c-0.4,0.6-0.6,1.2-0.6,1.9c0,0.7,0.1,1.2,0.3,1.7c0.2,0.5,0.5,0.9,0.9,1.2
		c0.4,0.3,0.8,0.5,1.3,0.7C659.8,1756.4,660.4,1756.5,661,1756.5z"/>
</g>
<g class="st28">
	<path class="st9" d="M675.8,1733.9h23.9v3.4h-9.7v21.9h-4.4v-21.9h-9.7V1733.9z"/>
	<path class="st9" d="M708.1,1733.9v9.9h5.4c1.7,0,3.2,0.2,4.4,0.6s2.1,1,2.9,1.7c0.7,0.7,1.2,1.5,1.6,2.4c0.3,0.9,0.5,1.9,0.5,2.8
		c0,1.1-0.2,2.2-0.6,3.1c-0.4,1-1,1.8-1.8,2.5c-0.8,0.7-1.7,1.2-2.9,1.6c-1.1,0.4-2.5,0.6-4,0.6h-9.7v-25.3H708.1z M708.1,1747.1
		v8.9h5.4c0.9,0,1.7-0.1,2.3-0.3s1.2-0.5,1.6-0.9c0.4-0.4,0.8-0.9,1-1.4c0.2-0.5,0.3-1.1,0.3-1.8c0-0.6-0.1-1.2-0.3-1.7
		c-0.2-0.5-0.5-1-0.9-1.4c-0.4-0.4-1-0.7-1.7-0.9c-0.7-0.2-1.5-0.3-2.5-0.3H708.1z"/>
	<path class="st9" d="M745.3,1738.4c-0.1,0.2-0.3,0.3-0.4,0.4c-0.1,0.1-0.3,0.1-0.5,0.1c-0.2,0-0.5-0.1-0.8-0.3
		c-0.3-0.2-0.7-0.4-1.1-0.7c-0.4-0.2-1-0.5-1.6-0.7c-0.6-0.2-1.4-0.3-2.4-0.3c-1.2,0-2.3,0.2-3.3,0.7c-0.9,0.4-1.7,1.1-2.4,1.9
		s-1.1,1.8-1.4,3c-0.3,1.2-0.5,2.5-0.5,4c0,1.5,0.2,2.9,0.5,4.1s0.8,2.2,1.5,3c0.6,0.8,1.4,1.4,2.3,1.8c0.9,0.4,1.9,0.6,3.1,0.6
		c1.1,0,2-0.1,2.7-0.4c0.7-0.3,1.3-0.5,1.7-0.9c0.5-0.3,0.8-0.6,1.1-0.9s0.6-0.4,0.9-0.4c0.4,0,0.6,0.1,0.8,0.4l1.2,1.6
		c-0.5,0.7-1.2,1.3-1.9,1.7s-1.5,0.9-2.3,1.2c-0.8,0.3-1.7,0.6-2.5,0.7c-0.9,0.1-1.8,0.2-2.7,0.2c-1.6,0-3-0.3-4.4-0.9
		c-1.4-0.6-2.5-1.4-3.5-2.5s-1.8-2.5-2.3-4.1c-0.6-1.6-0.8-3.5-0.8-5.5c0-1.9,0.3-3.6,0.8-5.2c0.5-1.6,1.3-3,2.3-4.1
		c1-1.2,2.2-2.1,3.7-2.7c1.5-0.6,3.2-1,5.1-1c1.8,0,3.3,0.3,4.7,0.9c1.4,0.6,2.6,1.4,3.6,2.4L745.3,1738.4z"/>
	<path class="st9" d="M769.1,1759.2h-4.2v-10.7h-1.9c-0.5,0-0.9,0-1.2,0.1c-0.3,0.1-0.6,0.2-0.8,0.3s-0.4,0.3-0.6,0.5
		c-0.2,0.2-0.3,0.4-0.5,0.7l-5.5,7.5c-0.3,0.5-0.6,0.9-1,1.2c-0.4,0.2-1,0.4-1.8,0.4h-3.1l7.3-9.5c0.6-1,1.4-1.6,2.4-2
		c-1.3-0.2-2.4-0.5-3.2-0.9s-1.6-0.9-2.2-1.5c-0.6-0.6-1-1.3-1.2-2c-0.2-0.7-0.4-1.4-0.4-2.2c0-0.9,0.2-1.7,0.5-2.6s0.9-1.6,1.6-2.3
		s1.7-1.2,2.9-1.6c1.2-0.4,2.6-0.6,4.3-0.6h8.6V1759.2z M755.6,1741.4c0,1.4,0.5,2.4,1.5,3.2c1,0.8,2.4,1.2,4.1,1.2h3.7v-8.8h-4.2
		c-0.9,0-1.7,0.1-2.4,0.4c-0.6,0.3-1.2,0.6-1.6,1c-0.4,0.4-0.7,0.9-0.8,1.4C755.7,1740.3,755.6,1740.9,755.6,1741.4z"/>
</g>
</svg>
