<?xml version="1.0" encoding="utf-8"?>
<!-- Generator: Adobe Illustrator 23.1.1, SVG Export Plug-In . SVG Version: 6.00 Build 0)  -->
<svg version="1.1" id="Layer_1" xmlns="http://www.w3.org/2000/svg" xmlns:xlink="http://www.w3.org/1999/xlink" x="0px" y="0px"
	 viewBox="0 0 1080 1080" style="enable-background:new 0 0 1080 1080;" xml:space="preserve">
<style type="text/css">
	.st0{clip-path:url(#SVGID_2_);fill:none;}
	.st1{clip-path:url(#SVGID_2_);fill:url(#SVGID_3_);}
	.st2{opacity:0.3;clip-path:url(#SVGID_2_);fill:#652AD8;enable-background:new    ;}
	.st3{clip-path:url(#SVGID_2_);fill:none;stroke:#FFFFFF;stroke-width:2.76;stroke-miterlimit:10;}
	
		.st4{opacity:0.28;clip-path:url(#SVGID_2_);fill:none;stroke:#FFFFFF;stroke-width:2.76;stroke-miterlimit:10;enable-background:new    ;}
	.st5{clip-path:url(#SVGID_2_);fill:#FFDB45;}
	.st6{clip-path:url(#SVGID_2_);fill:#22B573;}
	.st7{clip-path:url(#SVGID_2_);fill:#FF6C6C;}
	.st8{clip-path:url(#SVGID_2_);fill:#251742;}
	.st9{clip-path:url(#SVGID_2_);fill:#A5A5D3;}
	.st10{clip-path:url(#SVGID_2_);fill:#FFFFFF;}
	.st11{clip-path:url(#SVGID_2_);fill:#CCCCCC;}
	.st12{clip-path:url(#SVGID_2_);fill:#B3B3B3;}
	.st13{clip-path:url(#SVGID_2_);fill:#F2F2F2;}
	.st14{clip-path:url(#SVGID_2_);fill:#EEFEFF;}
	.st15{clip-path:url(#SVGID_2_);fill:#E6E6E6;}
	.st16{clip-path:url(#SVGID_2_);fill:none;stroke:#FFDB45;stroke-width:7.26;stroke-linecap:round;stroke-miterlimit:10;}
	.st17{clip-path:url(#SVGID_2_);fill:url(#SVGID_4_);}
	.st18{clip-path:url(#SVGID_2_);fill:url(#SVGID_5_);}
	.st19{clip-path:url(#SVGID_2_);fill:none;stroke:#F7931E;stroke-width:4.61;stroke-miterlimit:10;}
	.st20{clip-path:url(#SVGID_2_);fill:#F7931E;}
	.st21{clip-path:url(#SVGID_2_);fill:none;stroke:#F7931E;stroke-width:4.14;stroke-miterlimit:10;}
	.st22{clip-path:url(#SVGID_2_);fill:url(#SVGID_6_);}
	.st23{clip-path:url(#SVGID_2_);fill:none;stroke:#F7931E;stroke-width:2.68;stroke-miterlimit:10;}
	.st24{clip-path:url(#SVGID_2_);fill:none;stroke:#F7931E;stroke-width:2.4;stroke-miterlimit:10;}
	.st25{clip-path:url(#SVGID_2_);fill:url(#SVGID_7_);}
	.st26{clip-path:url(#SVGID_2_);fill:none;stroke:#F7931E;stroke-width:3.86;stroke-miterlimit:10;}
	.st27{clip-path:url(#SVGID_2_);fill:none;stroke:#F7931E;stroke-width:3.47;stroke-miterlimit:10;}
	.st28{opacity:0.52;clip-path:url(#SVGID_2_);enable-background:new    ;}
	.st29{fill:#FFFFFF;}
	.st30{clip-path:url(#SVGID_2_);enable-background:new    ;}
	.st31{enable-background:new    ;}
</style>
<title>shop</title>
<g>
	<defs>
		<rect id="SVGID_1_" x="-4.1" width="1081" height="1081"/>
	</defs>
	<clipPath id="SVGID_2_">
		<use xlink:href="#SVGID_1_"  style="overflow:visible;"/>
	</clipPath>
	<rect x="1" y="-3" class="st0" width="1081" height="1081"/>
	
		<radialGradient id="SVGID_3_" cx="865.9909" cy="119.2567" r="862.71" fx="191.0826" fy="482.5628" gradientTransform="matrix(5.143516e-17 -0.84 -1.5 -9.184851e-17 716.06 1271.89)" gradientUnits="userSpaceOnUse">
		<stop  offset="0" style="stop-color:#B925CE"/>
		<stop  offset="0.1836" style="stop-color:#9527D2"/>
		<stop  offset="0.3001" style="stop-color:#9227D2"/>
		<stop  offset="0.4142" style="stop-color:#9227D2"/>
		<stop  offset="0.5996" style="stop-color:#7B29D5"/>
		<stop  offset="0.8" style="stop-color:#6B2AD7"/>
		<stop  offset="0.99" style="stop-color:#652AD8"/>
		<stop  offset="0.99" style="stop-color:#652AD8"/>
	</radialGradient>
	<rect x="-2" class="st1" width="1081" height="1081"/>
	<rect x="-4.1" class="st2" width="1081" height="1081"/>
	<circle class="st3" cx="282.6" cy="874.8" r="152.4"/>
	<circle class="st4" cx="282.6" cy="851.3" r="230.3"/>
	<circle class="st4" cx="282.6" cy="851.3" r="322"/>
	<circle class="st4" cx="282.6" cy="851.3" r="411.6"/>
	<rect x="10.2" y="566.5" class="st5" width="31.8" height="153.1"/>
	<rect x="61.2" y="594.5" class="st6" width="31.8" height="125.2"/>
	<rect x="112.2" y="573.3" class="st7" width="31.8" height="146.3"/>
	<path class="st8" d="M52.4,671.3h460.5c12.8,0,23.1,10.4,23.1,23.1l0,0v314.7l0,0H29.3l0,0V694.5C29.3,681.7,39.6,671.3,52.4,671.3
		L52.4,671.3z"/>
	<rect x="51.1" y="692" class="st9" width="468.9" height="286.2"/>
	<rect x="62.6" y="707" class="st10" width="443.6" height="258.6"/>
	<path class="st11" d="M-48.6,1000h663.1l0,0v16.2c0,7.5-6.1,13.6-13.6,13.6l0,0H-35c-7.5,0-13.6-6.1-13.6-13.6l0,0L-48.6,1000
		L-48.6,1000z"/>
	<path class="st10" d="M602.6,1029.8l-0.4,0.1L602.6,1029.8z"/>
	<path class="st10" d="M603.9,1029.5l-0.5,0.1L603.9,1029.5z"/>
	<path class="st10" d="M605.2,1029.2l-0.5,0.2L605.2,1029.2z"/>
	<path class="st10" d="M610.2,1026.2c0.2-0.2,0.4-0.4,0.6-0.6C610.6,1025.7,610.4,1026,610.2,1026.2z"/>
	<path class="st10" d="M611.6,1024.6c-0.2,0.2-0.4,0.5-0.6,0.7C611.2,1025.1,611.4,1024.9,611.6,1024.6z"/>
	<path class="st10" d="M344.6,1000c-1.3,4.7-5.6,8-10.5,8H231.7c-4.9,0-9.2-3.3-10.4-8H-48.6v16.3c0,3,1,5.9,2.8,8.2
		c-1.1-1.5-1.9-3.2-2.4-5h662.2c-0.4,1.8-1.3,3.5-2.4,5c1.8-2.4,2.8-5.3,2.8-8.2V1000H344.6z"/>
	<path class="st10" d="M607.5,1028.2c-0.2,0.1-0.3,0.2-0.5,0.3C607.1,1028.4,607.3,1028.3,607.5,1028.2z"/>
	<path class="st10" d="M606.3,1028.7l-0.5,0.2L606.3,1028.7z"/>
	<path class="st10" d="M610,1026.4c-0.2,0.2-0.4,0.4-0.6,0.6C609.6,1026.7,609.8,1026.6,610,1026.4z"/>
	<path class="st10" d="M609.1,1027.1c-0.4,0.3-0.8,0.6-1.2,0.8C608.3,1027.7,608.7,1027.4,609.1,1027.1z"/>
	<path class="st12" d="M-48.2,1019.5c1.5,6.1,6.9,10.3,13.2,10.3h635.9c6.3,0,11.7-4.3,13.2-10.3H-48.2z"/>
	<path class="st6" d="M395.4,870.2h82.4c4.2,0,7.6,3.4,7.6,7.6V943c0,4.2-3.4,7.6-7.6,7.6h-82.4c-4.2,0-7.6-3.4-7.6-7.6v-65.2
		C387.8,873.6,391.2,870.2,395.4,870.2z"/>
	<path class="st13" d="M391.8,811.5h89.6c2.2,0,4,1.8,4,4v35.6c0,2.2-1.8,4-4,4h-89.6c-2.2,0-4-1.8-4-4v-35.6
		C387.8,813.3,389.6,811.5,391.8,811.5z"/>
	<path class="st13" d="M391.8,755.2h89.6c2.2,0,4,1.8,4,4v33.3c0,2.2-1.8,4-4,4h-89.6c-2.2,0-4-1.8-4-4v-33.3
		C387.8,757,389.6,755.2,391.8,755.2z"/>
	<path class="st14" d="M94.2,771.3h89.6c2.2,0,4,1.8,4,4v32.2c0,2.2-1.8,4-4,4H94.2c-2.2,0-4-1.8-4-4v-32.2
		C90.2,773.1,92,771.3,94.2,771.3z"/>
	<path class="st14" d="M94.2,835.7h89.6c2.2,0,4,1.8,4,4v106.9c0,2.2-1.8,4-4,4H94.2c-2.2,0-4-1.8-4-4V839.7
		C90.2,837.5,92,835.7,94.2,835.7z"/>
	<path class="st9" d="M94.2,755.2h89.6c2.2,0,4,1.8,4,4v0c0,2.2-1.8,4-4,4H94.2c-2.2,0-4-1.8-4-4v0C90.2,757,92,755.2,94.2,755.2z"
		/>
	<path class="st14" d="M271.2,771.3h89.6c2.2,0,4,1.8,4,4v171.2c0,2.2-1.8,4-4,4h-89.6c-2.2,0-4-1.8-4-4V775.4
		C267.1,773.1,268.9,771.3,271.2,771.3z"/>
	<path class="st9" d="M271.2,755.2h89.6c2.2,0,4,1.8,4,4v0c0,2.2-1.8,4-4,4h-89.6c-2.2,0-4-1.8-4-4v0
		C267.1,757,268.9,755.2,271.2,755.2z"/>
	<path class="st9" d="M94.2,820.7h89.6c2.2,0,4,1.8,4,4v0c0,2.2-1.8,4-4,4H94.2c-2.2,0-4-1.8-4-4v0C90.2,822.5,92,820.7,94.2,820.7z
		"/>
	<path class="st13" d="M212.6,755.2h29.9c2.2,0,4,1.8,4,4v187.3c0,2.2-1.8,4-4,4h-29.9c-2.2,0-4-1.8-4-4V759.3
		C208.5,757,210.3,755.2,212.6,755.2z"/>
	<rect x="62.6" y="707" class="st13" width="443.6" height="27.6"/>
	<rect x="187.9" y="715" class="st10" width="297.6" height="12.6"/>
	<rect x="90.2" y="713.9" class="st15" width="14.9" height="14.9"/>
	<rect x="120.1" y="713.9" class="st15" width="14.9" height="14.9"/>
	<circle class="st9" cx="283.2" cy="681.7" r="5.8"/>
	<rect x="491.3" y="448.5" class="st5" width="42.5" height="72.6"/>
	<path class="st7" d="M483.4,527.3h59.4c4.2,0,7.6,3.4,7.6,7.6v6.5c0,4.2-3.4,7.6-7.6,7.6h-59.4c-4.2,0-7.6-3.4-7.6-7.6V535
		C475.7,530.8,479.1,527.3,483.4,527.3z"/>
	<rect x="491.3" y="556.4" class="st7" width="42.5" height="7.3"/>
	<rect x="491.3" y="568.8" class="st7" width="42.5" height="7.3"/>
	<path class="st16" d="M482,376.9c39.9-16.8,85.8,1.9,102.6,41.7c4.1,9.6,6.1,20,6.2,30.4"/>
	<path class="st16" d="M550.4,358c13.5,4.4,25.6,12.5,34.9,23.3"/>
	
		<radialGradient id="SVGID_4_" cx="512.52" cy="630.34" r="55.48" gradientTransform="matrix(1 0 0 -1 0 1080)" gradientUnits="userSpaceOnUse">
		<stop  offset="0.18" style="stop-color:#F4E91C"/>
		<stop  offset="0.26" style="stop-color:#F6E625"/>
		<stop  offset="0.49" style="stop-color:#FBE037"/>
		<stop  offset="0.73" style="stop-color:#FEDC42"/>
		<stop  offset="1" style="stop-color:#FFDB45"/>
	</radialGradient>
	<circle class="st17" cx="512.5" cy="449.1" r="55.5"/>
	
		<radialGradient id="SVGID_5_" cx="747.69" cy="156.64" r="42.75" gradientTransform="matrix(1 0 0 -1 0 1080)" gradientUnits="userSpaceOnUse">
		<stop  offset="0.18" style="stop-color:#F4E91C"/>
		<stop  offset="0.26" style="stop-color:#F6E625"/>
		<stop  offset="0.49" style="stop-color:#FBE037"/>
		<stop  offset="0.73" style="stop-color:#FEDC42"/>
		<stop  offset="1" style="stop-color:#FFDB45"/>
	</radialGradient>
	<circle class="st18" cx="747.7" cy="923.4" r="42.8"/>
	<circle class="st19" cx="747.7" cy="923.4" r="33.8"/>
	<path class="st20" d="M738.5,903.2h11.1c8.7,0,14.6,2.9,14.6,11.5c0,8.2-5.9,12-14.4,12h-6.4v15.4h-5L738.5,903.2z M749.3,922.7
		c6.8,0,10-2.5,10-8s-3.5-7.4-10.3-7.4h-5.5v15.4H749.3z"/>
	<line class="st21" x1="735.3" y1="930.3" x2="754.6" y2="930.3"/>
	
		<radialGradient id="SVGID_6_" cx="546.69" cy="204.56" r="24.82" gradientTransform="matrix(1 0 0 -1 0 1080)" gradientUnits="userSpaceOnUse">
		<stop  offset="0.18" style="stop-color:#F4E91C"/>
		<stop  offset="0.26" style="stop-color:#F6E625"/>
		<stop  offset="0.49" style="stop-color:#FBE037"/>
		<stop  offset="0.73" style="stop-color:#FEDC42"/>
		<stop  offset="1" style="stop-color:#FFDB45"/>
	</radialGradient>
	<circle class="st22" cx="546.7" cy="875.4" r="24.8"/>
	<circle class="st23" cx="546.7" cy="875.4" r="19.6"/>
	<path class="st20" d="M541.4,863.8h6.5c5.1,0,8.5,1.7,8.5,6.7c0,4.8-3.4,7-8.3,7h-3.7v9h-2.9V863.8z M547.6,875
		c4,0,5.8-1.4,5.8-4.7s-2-4.3-6-4.3h-3.2v9L547.6,875z"/>
	<line class="st24" x1="539.5" y1="879.5" x2="550.7" y2="879.5"/>
	
		<radialGradient id="SVGID_7_" cx="651.49" cy="240.41" r="35.85" gradientTransform="matrix(1 0 0 -1 0 1080)" gradientUnits="userSpaceOnUse">
		<stop  offset="0.18" style="stop-color:#F4E91C"/>
		<stop  offset="0.26" style="stop-color:#F6E625"/>
		<stop  offset="0.49" style="stop-color:#FBE037"/>
		<stop  offset="0.73" style="stop-color:#FEDC42"/>
		<stop  offset="1" style="stop-color:#FFDB45"/>
	</radialGradient>
	<circle class="st25" cx="651.5" cy="839.6" r="35.8"/>
	<circle class="st26" cx="651.5" cy="839.6" r="28.3"/>
	<path class="st20" d="M643.8,822.7h9.3c7.3,0,12.2,2.5,12.2,9.6c0,6.9-4.9,10.1-12,10.1H648v12.9h-4.2L643.8,822.7z M652.8,839
		c5.7,0,8.4-2.1,8.4-6.7s-2.9-6.2-8.6-6.2H648V839L652.8,839z"/>
	<line class="st27" x1="641.1" y1="845.4" x2="657.3" y2="845.4"/>
	<g class="st28">
		<path class="st29" d="M168.3,603.7h-9.1c-2.4,0-4.4-1.9-4.4-4.2s2-4.1,4.4-4.1h9.1v-9.1c0-2.4,1.8-4.4,4.1-4.4
			c2.3,0.1,4.2,2.1,4.2,4.5v9h9.2c2.4,0,4.4,1.8,4.4,4.1s-2,4.2-4.4,4.2h-9.2v9.3c0,2.4-1.9,4.4-4.2,4.3c-2.3,0-4.1-2-4.1-4.4V603.7
			z"/>
	</g>
	<g class="st30">
		<path class="st29" d="M436.1,926.5c2.3,0,4.1,1.8,4.1,4.1s-1.8,4-4.1,4c-2.3,0-4-1.7-4-4S433.8,926.5,436.1,926.5z M438.7,920.6
			c0,1.5-1.2,2.6-2.7,2.6c-1.4,0-2.6-1.1-2.6-2.6v-28.9c0-1.4,1.2-2.6,2.6-2.6c1.4,0,2.7,1.2,2.7,2.6V920.6z"/>
	</g>
	<g class="st30">
		<path class="st29" d="M409.4,90.5h-9v5.7h3.4c1.1,0,2,0.1,2.8,0.3c0.8,0.2,1.4,0.6,1.9,1c0.5,0.4,0.9,0.9,1.1,1.5
			c0.2,0.6,0.4,1.2,0.4,1.9c0,0.8-0.1,1.5-0.4,2.2c-0.3,0.7-0.7,1.2-1.2,1.7s-1.2,0.8-1.9,1.1s-1.6,0.4-2.6,0.4H398V88.6h11.4V90.5z
			 M400.4,98.1v6.2h3.4c0.7,0,1.3-0.1,1.7-0.2s0.9-0.4,1.2-0.6c0.3-0.3,0.5-0.6,0.7-1c0.1-0.4,0.2-0.8,0.2-1.3
			c0-0.5-0.1-0.9-0.2-1.3c-0.1-0.4-0.4-0.7-0.7-1c-0.3-0.3-0.7-0.5-1.2-0.6c-0.5-0.1-1.1-0.2-1.7-0.2H400.4z"/>
	</g>
	<g class="st31">
		<path class="st29" d="M424.1,88.6v1.9h-8.5v5.8h6.8v1.9h-6.8v6h8.5l0,1.9h-10.8V88.6H424.1z"/>
	</g>
	<g class="st31">
		<path class="st29" d="M439.4,102.6c0.1,0,0.2,0.1,0.3,0.2l0.9,1c-0.7,0.8-1.6,1.5-2.6,2c-1,0.5-2.3,0.7-3.7,0.7
			c-1.3,0-2.4-0.2-3.4-0.7s-1.9-1.1-2.6-1.8c-0.7-0.8-1.3-1.7-1.7-2.8c-0.4-1.1-0.6-2.3-0.6-3.6c0-1.3,0.2-2.5,0.6-3.6
			c0.4-1.1,1-2.1,1.8-2.8s1.7-1.4,2.7-1.8c1.1-0.4,2.2-0.7,3.5-0.7c1.3,0,2.4,0.2,3.3,0.6c1,0.4,1.8,0.9,2.5,1.6l-0.8,1.1
			c0,0.1-0.1,0.1-0.2,0.2c-0.1,0.1-0.2,0.1-0.3,0.1c-0.1,0-0.3-0.1-0.5-0.2c-0.2-0.2-0.5-0.3-0.8-0.5c-0.3-0.2-0.8-0.4-1.3-0.5
			c-0.5-0.2-1.1-0.2-1.9-0.2c-0.9,0-1.7,0.2-2.5,0.5s-1.4,0.8-1.9,1.4c-0.5,0.6-1,1.3-1.3,2.2s-0.5,1.8-0.5,2.9
			c0,1.1,0.2,2.1,0.5,2.9c0.3,0.9,0.7,1.6,1.3,2.2c0.5,0.6,1.2,1,1.9,1.4c0.7,0.3,1.5,0.5,2.4,0.5c0.5,0,1,0,1.4-0.1
			c0.4-0.1,0.8-0.2,1.2-0.3c0.4-0.1,0.7-0.3,1-0.5c0.3-0.2,0.6-0.4,0.9-0.7C439.1,102.6,439.2,102.6,439.4,102.6z"/>
		<path class="st29" d="M457,106.2h-2.4V90.5h-8.8v15.7h-2.4V88.6H457V106.2z"/>
		<path class="st29" d="M474.8,88.6v17.6h-2.4V90.5h-5.8c-0.1,2.3-0.3,4.2-0.5,5.9c-0.2,1.7-0.4,3.1-0.7,4.3
			c-0.3,1.2-0.6,2.1-0.9,2.9c-0.3,0.7-0.7,1.3-1.1,1.7c-0.4,0.4-0.9,0.7-1.3,0.9s-1,0.2-1.5,0.2c-0.4,0-0.8,0-1-0.1
			c-0.2-0.1-0.4-0.2-0.4-0.3v-1.5h0.9c0.3,0,0.7-0.1,1-0.2c0.3-0.1,0.6-0.4,0.9-0.8c0.3-0.4,0.6-0.9,0.8-1.6
			c0.3-0.7,0.5-1.7,0.7-2.8c0.2-1.2,0.4-2.6,0.6-4.3c0.2-1.7,0.3-3.7,0.4-6.1H474.8z"/>
	</g>
	<g class="st31">
		<path class="st29" d="M493.5,106.2h-1.8c-0.2,0-0.4-0.1-0.5-0.2s-0.2-0.2-0.3-0.4l-1.6-4.2h-7.9l-1.6,4.2c0,0.1-0.1,0.3-0.3,0.4
			c-0.1,0.1-0.3,0.2-0.5,0.2h-1.8l7-17.6h2.4L493.5,106.2z M482,99.7h6.6l-2.8-7.2c-0.1-0.2-0.2-0.5-0.3-0.7
			c-0.1-0.3-0.2-0.6-0.3-0.9c-0.1,0.3-0.2,0.6-0.3,0.9s-0.2,0.5-0.3,0.7L482,99.7z"/>
	</g>
	<g class="st31">
		<path class="st29" d="M506,88.6v2h-5.7v15.6H498V90.6h-5.7v-2H506z"/>
		<path class="st29" d="M522.9,106.2h-2.4v-8H511v8h-2.4V88.6h2.4v7.8h9.5v-7.8h2.4V106.2z"/>
		<path class="st29" d="M529.7,88.6v7.6h3.4c1.1,0,2,0.1,2.8,0.3c0.8,0.2,1.4,0.6,1.9,1c0.5,0.4,0.9,0.9,1.1,1.5
			c0.2,0.6,0.4,1.2,0.4,1.9c0,0.8-0.1,1.5-0.4,2.2c-0.3,0.7-0.7,1.2-1.2,1.7s-1.2,0.8-1.9,1.1s-1.6,0.4-2.6,0.4h-5.8V88.6H529.7z
			 M529.7,98.1v6.2h3.4c0.7,0,1.3-0.1,1.7-0.2s0.9-0.4,1.2-0.6c0.3-0.3,0.5-0.6,0.7-1c0.1-0.4,0.2-0.8,0.2-1.3
			c0-0.5-0.1-0.9-0.2-1.3c-0.1-0.4-0.4-0.7-0.7-1c-0.3-0.3-0.7-0.5-1.2-0.6c-0.5-0.1-1.1-0.2-1.7-0.2H529.7z M544.9,106.2h-2.4V88.6
			h2.4V106.2z"/>
		<path class="st29" d="M560.8,89.4c0.1-0.2,0.3-0.4,0.4-0.5c0.2-0.2,0.4-0.2,0.6-0.2h1.8v17.6h-2.4V93.7c0-0.3,0-0.7,0-1.1
			s0.1-0.8,0.1-1.2c-0.1,0.4-0.3,0.7-0.4,1c-0.2,0.3-0.3,0.6-0.5,0.8l-8.2,12.2c-0.1,0.2-0.3,0.4-0.4,0.5c-0.2,0.2-0.4,0.2-0.6,0.2
			h-1.8V88.6h2.4v12.5c0,0.4,0,0.7,0,1.1c0,0.4-0.1,0.8-0.1,1.2c0.1-0.4,0.3-0.7,0.4-1s0.3-0.6,0.5-0.9L560.8,89.4z M556.6,86.4
			c0.3,0,0.6,0,0.8-0.1c0.2-0.1,0.4-0.2,0.6-0.4c0.1-0.2,0.2-0.4,0.3-0.6c0.1-0.3,0.1-0.6,0.1-1h1.3c0.2,0,0.3,0.1,0.4,0.2
			c0.1,0.1,0.1,0.3,0.1,0.5c0,0.8-0.3,1.4-0.9,1.9s-1.5,0.7-2.6,0.7s-2-0.2-2.6-0.7c-0.6-0.4-0.9-1.1-0.9-1.9c0-0.2,0-0.3,0.1-0.5
			c0.1-0.1,0.2-0.2,0.4-0.2h1.3c0,0.4,0,0.7,0.1,1c0.1,0.3,0.2,0.5,0.3,0.6c0.1,0.2,0.3,0.3,0.6,0.4C556,86.3,556.3,86.4,556.6,86.4
			z"/>
		<path class="st29" d="M574.4,106.2V88.6h5.6c1.1,0,2,0.1,2.8,0.3c0.8,0.2,1.4,0.5,1.9,0.9s0.9,0.9,1.1,1.4s0.4,1.2,0.4,1.9
			c0,0.4-0.1,0.9-0.2,1.3c-0.1,0.4-0.3,0.8-0.6,1.1c-0.3,0.3-0.6,0.6-1,0.9c-0.4,0.3-0.9,0.5-1.5,0.7c1.3,0.3,2.3,0.7,2.9,1.4
			c0.7,0.7,1,1.6,1,2.6c0,0.7-0.1,1.4-0.4,2c-0.3,0.6-0.7,1.1-1.2,1.6c-0.5,0.4-1.2,0.8-1.9,1c-0.8,0.2-1.6,0.4-2.6,0.4H574.4z
			 M576.8,96.5h3.1c0.7,0,1.3-0.1,1.7-0.2c0.5-0.1,0.9-0.4,1.2-0.6s0.6-0.6,0.7-1c0.2-0.4,0.2-0.8,0.2-1.2c0-1-0.3-1.8-0.9-2.3
			c-0.6-0.5-1.6-0.7-2.9-0.7h-3.2V96.5z M576.8,98.2v6.1h3.8c0.7,0,1.3-0.1,1.8-0.2c0.5-0.2,0.9-0.4,1.2-0.7c0.3-0.3,0.5-0.6,0.7-1
			c0.1-0.4,0.2-0.8,0.2-1.3c0-0.9-0.3-1.6-1-2.2s-1.6-0.8-2.9-0.8H576.8z"/>
		<path class="st29" d="M601.1,88.6v1.9h-8.5v5.8h6.8v1.9h-6.8v6h8.5l0,1.9h-10.8V88.6H601.1z"/>
		<path class="st29" d="M615.8,90.5h-9v5.7h3.4c1.1,0,2,0.1,2.8,0.3c0.8,0.2,1.4,0.6,1.9,1c0.5,0.4,0.9,0.9,1.1,1.5
			c0.2,0.6,0.4,1.2,0.4,1.9c0,0.8-0.1,1.5-0.4,2.2c-0.3,0.7-0.7,1.2-1.2,1.7s-1.2,0.8-1.9,1.1s-1.6,0.4-2.6,0.4h-5.8V88.6h11.4V90.5
			z M606.8,98.1v6.2h3.4c0.7,0,1.3-0.1,1.7-0.2s0.9-0.4,1.2-0.6c0.3-0.3,0.5-0.6,0.7-1c0.1-0.4,0.2-0.8,0.2-1.3
			c0-0.5-0.1-0.9-0.2-1.3c-0.1-0.4-0.4-0.7-0.7-1c-0.3-0.3-0.7-0.5-1.2-0.6s-1.1-0.2-1.7-0.2H606.8z"/>
		<path class="st29" d="M631.1,89.4c0.1-0.2,0.3-0.4,0.4-0.5c0.2-0.2,0.4-0.2,0.6-0.2h1.8v17.6h-2.4V93.7c0-0.3,0-0.7,0-1.1
			s0.1-0.8,0.1-1.2c-0.1,0.4-0.3,0.7-0.4,1c-0.2,0.3-0.3,0.6-0.5,0.8l-8.2,12.2c-0.1,0.2-0.3,0.4-0.4,0.5c-0.2,0.2-0.4,0.2-0.6,0.2
			h-1.8V88.6h2.4v12.5c0,0.4,0,0.7,0,1.1c0,0.4-0.1,0.8-0.1,1.2c0.1-0.4,0.3-0.7,0.4-1s0.3-0.6,0.5-0.9L631.1,89.4z"/>
		<path class="st29" d="M652.6,106.2h-2.4v-8h-9.5v8h-2.4V88.6h2.4v7.8h9.5v-7.8h2.4V106.2z"/>
		<path class="st29" d="M671.4,106.2h-1.8c-0.2,0-0.4-0.1-0.5-0.2s-0.2-0.2-0.3-0.4l-1.6-4.2h-7.9l-1.6,4.2c0,0.1-0.1,0.3-0.3,0.4
			c-0.1,0.1-0.3,0.2-0.5,0.2h-1.8l7-17.6h2.4L671.4,106.2z M659.9,99.7h6.6l-2.8-7.2c-0.1-0.2-0.2-0.5-0.3-0.7
			c-0.1-0.3-0.2-0.6-0.3-0.9c-0.1,0.3-0.2,0.6-0.3,0.9s-0.2,0.5-0.3,0.7L659.9,99.7z"/>
		<path class="st29" d="M676,99.6v6.6h-2.4V88.6h5.2c1.1,0,2.1,0.1,2.9,0.4c0.8,0.3,1.5,0.6,2,1.1c0.5,0.5,0.9,1,1.2,1.7
			c0.3,0.7,0.4,1.4,0.4,2.2c0,0.8-0.1,1.6-0.4,2.2s-0.7,1.3-1.3,1.8c-0.6,0.5-1.2,0.9-2,1.1c-0.8,0.3-1.8,0.4-2.8,0.4H676z
			 M676,97.7h2.8c0.7,0,1.3-0.1,1.8-0.3s1-0.4,1.3-0.8c0.4-0.3,0.6-0.7,0.8-1.2c0.2-0.4,0.3-0.9,0.3-1.5c0-1.1-0.3-2-1-2.6
			c-0.7-0.6-1.7-0.9-3.1-0.9H676V97.7z"/>
	</g>
	<g class="st30">
		<path class="st29" d="M118.5,199l-7.8-20.4l-2.5,4.7V199h-8v-51.1h8v22.3l10.5-22.3h8l-11.2,22.8l11.2,28.3H118.5z"/>
		<path class="st29" d="M148.2,147.9l8.2,51.1h-8.1l-1.4-9.3H137l-1.4,9.3h-7.4l8.2-51.1H148.2z M141.9,156.9l-3.9,25.8h7.7
			L141.9,156.9z"/>
		<path class="st29" d="M178.4,199l-7.8-20.4l-2.5,4.7V199h-8v-51.1h8v22.3l10.5-22.3h8l-11.2,22.8l11.2,28.3H178.4z"/>
		<path class="st29" d="M217.1,163.3v-2.8c0-2.2-0.4-3.7-1.1-4.6c-0.7-0.9-1.7-1.3-3.1-1.3c-2.8,0-4.2,1.7-4.2,5v4.2h-7.4V160
			c0-4.1,1-7.3,3-9.4c2-2.2,4.9-3.2,8.8-3.2c3.9,0,6.9,1.1,8.9,3.3c2,2.2,3.1,5.4,3.1,9.5v1.3c0,5.4-1.9,8.9-5.6,10.5
			c3.7,1.7,5.6,5.2,5.6,10.7v4c0,4.1-1,7.3-3.1,9.5c-2,2.2-5,3.3-8.9,3.3c-3.9,0-6.9-1.1-8.9-3.3c-2-2.2-3.1-5.4-3.1-9.5v-5.6h7.6
			v6.1c0,3.4,1.4,5,4.2,5c1.4,0,2.4-0.4,3.1-1.3c0.7-0.9,1.1-2.3,1.1-4.5v-4c0-2.3-0.4-4-1.2-5c-0.8-1-2.2-1.5-4-1.5h-2v-7.3h2.4
			c1.6,0,2.8-0.4,3.6-1.2S217.1,165.2,217.1,163.3z"/>
		<path class="st29" d="M248.3,147.9l8.2,51.1h-8.1l-1.4-9.3h-9.8l-1.4,9.3h-7.4l8.2-51.1H248.3z M242,156.9l-3.9,25.8h7.7
			L242,156.9z"/>
		<path class="st29" d="M275.9,179.9h7.6v6.8c0,4.1-1,7.3-3.1,9.5c-2,2.2-5,3.3-8.9,3.3c-3.9,0-6.9-1.1-8.9-3.3
			c-2-2.2-3.1-5.4-3.1-9.5v-26.6c0-4.1,1-7.3,3.1-9.5c2-2.2,5-3.3,8.9-3.3c3.9,0,6.9,1.1,8.9,3.3c2,2.2,3.1,5.4,3.1,9.5v5h-7.6v-5.5
			c0-3.4-1.4-5-4.2-5s-4.2,1.7-4.2,5v27.6c0,3.3,1.4,5,4.2,5s4.2-1.7,4.2-5V179.9z"/>
		<path class="st29" d="M286,155.2v-7.3h24.8v7.3h-8.4V199h-8v-43.8H286z"/>
		<path class="st29" d="M332.1,147.9l8.2,51.1h-8.1l-1.4-9.3H321l-1.4,9.3h-7.4l8.2-51.1H332.1z M325.8,156.9l-3.9,25.8h7.7
			L325.8,156.9z"/>
		<path class="st29" d="M356.1,147.9c4.1,0,7.1,1,9,2.9c1.9,1.9,2.8,4.9,2.8,8.9v1.8c0,5.3-1.7,8.7-5.2,10.3c4,1.6,6,5.2,6,10.9v4.2
			c0,3.9-1,6.9-3.1,9c-2.1,2.1-5.1,3.1-9.1,3.1H344v-51.1H356.1z M355.9,155.2H352v13.5h3.1c1.6,0,2.8-0.4,3.6-1.2
			c0.8-0.8,1.2-2.2,1.2-4.2v-2.8C360,156.9,358.6,155.2,355.9,155.2z M355.6,176H352v15.7h4.6c1.4,0,2.5-0.4,3.1-1.1
			c0.7-0.8,1-2.1,1-3.9v-4.5c0-2.3-0.4-4-1.2-4.9C358.8,176.4,357.5,176,355.6,176z"/>
		<path class="st29" d="M388.6,175.5l-6.7,23.4h-8.2v-51.1h7.1v32.3l2.9-11.2l6.6-21.1h8.8V199h-7.2v-36L388.6,175.5z"/>
		<path class="st29" d="M402.5,155.2v-7.3h24.8v7.3h-8.4V199h-8v-43.8H402.5z"/>
		<path class="st29" d="M442.6,199h-11.8v-51.1h8v19.2h3.8c8,0,12,4.2,12,12.6v6.6C454.5,194.8,450.6,199,442.6,199z M438.8,191.7
			h3.8c1.3,0,2.3-0.4,3-1.1s1-2,1-3.7v-7.7c0-1.8-0.3-3-1-3.7s-1.6-1.1-3-1.1h-3.8V191.7z"/>
		<path class="st29" d="M485.6,175.5l-6.7,23.4h-8.2v-51.1h7.1v32.3l2.9-11.2l6.6-21.1h8.8V199h-7.2v-36L485.6,175.5z"/>
		<path class="st29" d="M509.9,177.1V199h-8v-51.1h8v21.9h9.1v-21.9h8.2V199H519v-21.9H509.9z"/>
		<path class="st29" d="M530.6,155.2v-7.3h24.8v7.3h-8.4V199h-8v-43.8H530.6z"/>
		<path class="st29" d="M567,155.2v14.2h11v7.3h-11v15h13.9v7.3H559v-51.1h21.9v7.3H567z"/>
		<path class="st29" d="M597.6,147.9c8,0,12,4.2,12,12.6v6.6c0,8.4-4,12.6-12,12.6h-3.8V199h-8v-51.1H597.6z M597.6,155.2h-3.8v17.3
			h3.8c1.3,0,2.3-0.4,3-1.1c0.7-0.7,1-2,1-3.7V160c0-1.8-0.3-3-1-3.7C599.9,155.6,598.9,155.2,597.6,155.2z"/>
		<path class="st29" d="M621.3,177.1V199h-8v-51.1h8v21.9h9.1v-21.9h8.2V199h-8.2v-21.9H621.3z"/>
		<path class="st29" d="M652.5,155.2v14.2h11v7.3h-11v15h13.9v7.3h-21.9v-51.1h21.9v7.3H652.5z"/>
		<path class="st29" d="M669,155.2v-7.3h24.8v7.3h-8.4V199h-8v-43.8H669z"/>
		<path class="st29" d="M696.9,177.1v-7.3h14.6v7.3H696.9z"/>
		<path class="st29" d="M728.1,147.9l5.9,36.3l5.5-36.3h11.2V199H743v-36.6l-5.5,36.6h-7.6l-6-36.1V199h-7v-51.1H728.1z"/>
		<path class="st29" d="M774.3,147.9l8.2,51.1h-8.1l-1.4-9.3h-9.8l-1.4,9.3h-7.4l8.2-51.1H774.3z M768,156.9l-3.9,25.8h7.7
			L768,156.9z"/>
		<path class="st29" d="M798,147.9c8,0,12,4.2,12,12.6v6.6c0,8.4-4,12.6-12,12.6h-3.8V199h-8v-51.1H798z M798,155.2h-3.8v17.3h3.8
			c1.3,0,2.3-0.4,3-1.1c0.7-0.7,1-2,1-3.7V160c0-1.8-0.3-3-1-3.7C800.3,155.6,799.3,155.2,798,155.2z"/>
		<path class="st29" d="M832,199l-7.8-20.4l-2.5,4.7V199h-8v-51.1h8v22.3l10.5-22.3h8L829,170.7l11.2,28.3H832z"/>
		<path class="st29" d="M851.9,155.2v14.2h11v7.3h-11v15h13.9v7.3h-21.9v-51.1h21.9v7.3H851.9z"/>
		<path class="st29" d="M868.4,155.2v-7.3h24.8v7.3h-8.4V199h-8v-43.8H868.4z"/>
		<path class="st29" d="M911.6,175.5l-6.7,23.4h-8.2v-51.1h7.2v32.3l2.9-11.2l6.6-21.1h8.8V199h-7.2v-36L911.6,175.5z"/>
		<path class="st29" d="M935.9,177.1V199h-8v-51.1h8v21.9h9.1v-21.9h8.2V199H945v-21.9H935.9z"/>
		<path class="st29" d="M967.1,199h-8v-51.1h21.2v7.3h-13.1V199z"/>
	</g>
	<g class="st31">
		<path class="st29" d="M356,235.5c8,0,12,4.2,12,12.6v6.6c0,8.4-4,12.6-12,12.6h-3.8v19.2h-8v-51.1H356z M356,242.8h-3.8V260h3.8
			c1.3,0,2.3-0.4,3-1.1s1-2,1-3.7v-7.7c0-1.8-0.3-3-1-3.7S357.3,242.8,356,242.8z"/>
		<path class="st29" d="M389.4,235.5l8.2,51.1h-8.1l-1.4-9.3h-9.8l-1.4,9.3h-7.4l8.2-51.1H389.4z M383.2,244.5l-3.9,25.8h7.7
			L383.2,244.5z"/>
		<path class="st29" d="M414.1,286.5h-12.7v-51.1h22.5v7.3h-14.4v13.1h4.7c4,0,7,1.1,9,3.2c2,2.2,3.1,5.3,3.1,9.4v5.5
			c0,4.1-1,7.2-3.1,9.4C421.1,285.4,418.1,286.5,414.1,286.5z M409.4,279.2h4.7c2.7,0,4.1-1.6,4.1-4.8v-6.5c0-3.2-1.4-4.8-4.1-4.8
			h-4.7V279.2z"/>
		<path class="st29" d="M431,274.3v-26.6c0-4.1,1-7.2,3.1-9.5c2.1-2.2,5.1-3.4,9-3.4c3.9,0,7,1.1,9,3.4c2.1,2.2,3.1,5.4,3.1,9.5
			v26.6c0,4.1-1,7.2-3.1,9.5c-2.1,2.2-5.1,3.4-9,3.4c-3.9,0-7-1.1-9-3.4C432,281.5,431,278.4,431,274.3z M439,247.2v27.6
			c0,3.4,1.4,5,4.2,5s4.2-1.7,4.2-5v-27.6c0-3.4-1.4-5-4.2-5S439,243.8,439,247.2z"/>
		<path class="st29" d="M458.2,242.8v-7.3H483v7.3h-8.4v43.8h-8v-43.8H458.2z"/>
		<path class="st29" d="M504.3,235.5l8.2,51.1h-8.1l-1.4-9.3h-9.8l-1.4,9.3h-7.4l8.2-51.1H504.3z M498,244.5l-3.9,25.8h7.7
			L498,244.5z"/>
		<path class="st29" d="M513.8,242.8v-7.3h24.8v7.3h-8.4v43.8h-8v-43.8H513.8z"/>
		<path class="st29" d="M554,286.5h-11.8v-51.1h8v19.2h3.8c8,0,12,4.2,12,12.6v6.6C565.9,282.3,561.9,286.5,554,286.5z M550.2,279.2
			h3.8c1.3,0,2.3-0.4,3-1.1c0.7-0.7,1-2,1-3.7v-7.7c0-1.8-0.3-3-1-3.7c-0.7-0.7-1.6-1.1-3-1.1h-3.8V279.2z"/>
		<path class="st29" d="M590.1,264.6v21.9h-8v-51.1h8v21.9h9.1v-21.9h8.2v51.1h-8.2v-21.9H590.1z"/>
		<path class="st29" d="M631,235.5l8.2,51.1h-8.1l-1.4-9.3h-9.8l-1.4,9.3h-7.4l8.2-51.1H631z M624.7,244.5l-3.9,25.8h7.7
			L624.7,244.5z"/>
		<path class="st29" d="M666.3,235.5c4.1,0,7.2,1,9,2.9c1.9,1.9,2.8,4.9,2.8,8.9v1.8c0,5.3-1.7,8.7-5.2,10.3c4,1.6,6,5.2,6,10.9v4.2
			c0,3.9-1,6.9-3.1,9c-2.1,2.1-5.1,3.1-9.1,3.1h-12.6v-51.1H666.3z M666.1,242.8h-3.9v13.5h3.1c1.6,0,2.8-0.4,3.6-1.2
			s1.2-2.2,1.2-4.2V248C670.2,244.5,668.8,242.8,666.1,242.8z M665.8,263.5h-3.6v15.7h4.6c1.4,0,2.5-0.4,3.1-1.1
			c0.7-0.8,1-2.1,1-3.9v-4.5c0-2.3-0.4-4-1.2-4.9C669,264,667.7,263.5,665.8,263.5z"/>
		<path class="st29" d="M701.6,235.5l8.2,51.1h-8.1l-1.4-9.3h-9.8l-1.4,9.3h-7.4l8.2-51.1H701.6z M695.4,244.5l-3.9,25.8h7.7
			L695.4,244.5z"/>
		<path class="st29" d="M729.2,267.5h7.6v6.8c0,4.1-1,7.3-3.1,9.5c-2,2.2-5,3.3-8.9,3.3s-6.9-1.1-8.9-3.3c-2-2.2-3.1-5.4-3.1-9.5
			v-26.6c0-4.1,1-7.3,3.1-9.5c2-2.2,5-3.3,8.9-3.3s6.9,1.1,8.9,3.3c2,2.2,3.1,5.4,3.1,9.5v5h-7.6v-5.5c0-3.4-1.4-5-4.2-5
			s-4.2,1.7-4.2,5v27.6c0,3.3,1.4,5,4.2,5s4.2-1.7,4.2-5V267.5z"/>
	</g>
	<g class="st30">
		<path class="st29" d="M931.6,865.6v-24.8c0-3.8,1-6.8,2.9-8.8s4.8-3.1,8.4-3.1c3.7,0,6.5,1,8.4,3.1c1.9,2.1,2.9,5,2.9,8.8v24.8
			c0,3.8-1,6.8-2.9,8.8c-2,2.1-4.8,3.1-8.4,3.1c-3.7,0-6.5-1-8.4-3.1C932.6,872.4,931.6,869.4,931.6,865.6z M939.1,840.4v25.7
			c0,3.1,1.3,4.7,3.9,4.7s3.9-1.6,3.9-4.7v-25.7c0-3.1-1.3-4.7-3.9-4.7S939.1,837.3,939.1,840.4z"/>
		<path class="st29" d="M981.6,865.6c0,3.8-1,6.8-3,8.8c-2,2.1-4.9,3.1-8.7,3.1s-6.7-1-8.7-3.1c-2-2.1-3-5-3-8.8v-3.7
			c0-4.9,1.5-8.2,4.6-9.9c-3.1-1.7-4.6-4.9-4.6-9.6v-1.5c0-3.8,1-6.8,3-8.8s4.9-3.1,8.7-3.1s6.7,1,8.7,3.1s3,5,3,8.8v1.5
			c0,4.7-1.5,7.9-4.6,9.6c3.1,1.7,4.6,5,4.6,9.9V865.6z M965.7,841.2v2.7c0,3.4,1.4,5,4.2,5s4.2-1.7,4.2-5v-2.7
			c0-3.6-1.4-5.4-4.2-5.4S965.7,837.5,965.7,841.2z M965.7,865.4c0,3.6,1.4,5.4,4.2,5.4c2.8,0,4.2-1.8,4.2-5.4V861
			c0-3.6-1.4-5.4-4.2-5.4s-4.2,1.8-4.2,5.4V865.4z"/>
	</g>
	<g class="st30">
		<path class="st29" d="M895,907.5c-0.3,0-0.5,0-0.6-0.1c-0.1-0.1-0.2-0.3-0.3-0.5l-0.3-1.4c-0.4,0.4-0.8,0.7-1.2,1
			c-0.4,0.3-0.8,0.5-1.2,0.7c-0.4,0.2-0.9,0.3-1.3,0.4c-0.5,0.1-1,0.2-1.6,0.2c-0.6,0-1.1-0.1-1.7-0.2c-0.5-0.2-1-0.4-1.4-0.7
			s-0.7-0.7-0.9-1.3c-0.2-0.5-0.3-1.1-0.3-1.8c0-0.6,0.2-1.2,0.5-1.7c0.3-0.6,0.9-1,1.6-1.5s1.7-0.8,2.9-1.1
			c1.2-0.3,2.6-0.4,4.4-0.5v-1.2c0-1.2-0.3-2.1-0.8-2.7c-0.5-0.6-1.3-0.9-2.2-0.9c-0.7,0-1.2,0.1-1.7,0.2c-0.4,0.2-0.8,0.4-1.2,0.6
			c-0.3,0.2-0.6,0.4-0.8,0.6c-0.2,0.2-0.5,0.2-0.7,0.2c-0.2,0-0.3,0-0.5-0.1c-0.1-0.1-0.2-0.2-0.3-0.4l-0.5-0.9
			c0.8-0.8,1.7-1.4,2.7-1.8c1-0.4,2-0.6,3.2-0.6c0.8,0,1.6,0.1,2.3,0.4c0.7,0.3,1.2,0.7,1.7,1.2c0.4,0.5,0.8,1.1,1,1.8
			c0.2,0.7,0.3,1.5,0.3,2.3v9.7H895z M889.3,905.9c0.5,0,0.9,0,1.3-0.1c0.4-0.1,0.8-0.2,1.1-0.4c0.3-0.2,0.7-0.4,1-0.6
			s0.6-0.5,0.9-0.9v-3.1c-1.2,0-2.3,0.1-3.1,0.3c-0.9,0.2-1.6,0.4-2.1,0.6c-0.5,0.3-0.9,0.5-1.2,0.9c-0.2,0.3-0.4,0.7-0.4,1.1
			c0,0.4,0.1,0.7,0.2,1s0.3,0.5,0.5,0.7c0.2,0.2,0.5,0.3,0.8,0.4S888.9,905.9,889.3,905.9z"/>
		<path class="st29" d="M900.2,892.3h5.6c0.9,0,1.7,0.1,2.4,0.3c0.7,0.2,1.2,0.4,1.7,0.8c0.4,0.3,0.7,0.7,0.9,1.1
			c0.2,0.4,0.3,0.9,0.3,1.4c0,0.3,0,0.7-0.1,1s-0.2,0.7-0.5,1c-0.2,0.3-0.5,0.6-0.9,0.9c-0.4,0.3-0.9,0.5-1.4,0.6
			c1.2,0.2,2,0.6,2.7,1.2c0.6,0.6,1,1.4,1,2.4c0,0.7-0.1,1.4-0.4,1.9c-0.3,0.5-0.7,1-1.2,1.4s-1.1,0.6-1.8,0.8
			c-0.7,0.2-1.4,0.3-2.2,0.3h-5.8V892.3z M902.8,898.9h2.9c0.4,0,0.8-0.1,1.2-0.2s0.7-0.3,1-0.5c0.3-0.2,0.5-0.5,0.6-0.8
			s0.2-0.7,0.2-1c0-0.3,0-0.6-0.1-0.8c-0.1-0.3-0.3-0.5-0.5-0.7c-0.2-0.2-0.6-0.4-0.9-0.5c-0.4-0.1-0.9-0.2-1.4-0.2h-2.9V898.9z
			 M902.8,900.6v5.1h3.3c1,0,1.8-0.2,2.4-0.7s0.9-1.1,0.9-1.9c0-0.4-0.1-0.7-0.2-1c-0.1-0.3-0.3-0.6-0.5-0.8c-0.2-0.2-0.6-0.4-1-0.5
			s-0.9-0.2-1.5-0.2H902.8z"/>
		<path class="st29" d="M925,892.3v2h-7.2v13.2h-2.7v-15.2H925z"/>
	</g>
	<g class="st31">
		<path class="st29" d="M932.2,912c-0.1,0.2-0.2,0.4-0.3,0.5s-0.3,0.2-0.6,0.2h-2l2.8-6l-6.3-14.3h2.3c0.2,0,0.4,0.1,0.5,0.2
			c0.1,0.1,0.2,0.2,0.3,0.4l4.1,9.6c0.1,0.2,0.2,0.5,0.2,0.7c0.1,0.2,0.1,0.4,0.2,0.7c0.1-0.4,0.3-0.9,0.5-1.3l3.9-9.6
			c0.1-0.2,0.2-0.3,0.3-0.4c0.1-0.1,0.3-0.2,0.5-0.2h2.1L932.2,912z"/>
	</g>
	<g class="st31">
		<path class="st29" d="M953.1,895c-0.1,0.1-0.2,0.2-0.2,0.3c-0.1,0.1-0.2,0.1-0.3,0.1c-0.2,0-0.3-0.1-0.5-0.2
			c-0.2-0.1-0.4-0.3-0.7-0.4s-0.6-0.3-1-0.4s-0.9-0.2-1.4-0.2c-0.8,0-1.4,0.1-2,0.4c-0.6,0.3-1,0.6-1.4,1.1s-0.7,1.1-0.9,1.8
			s-0.3,1.5-0.3,2.4c0,0.9,0.1,1.7,0.3,2.5s0.5,1.3,0.9,1.8s0.8,0.9,1.4,1.1s1.2,0.4,1.8,0.4c0.7,0,1.2-0.1,1.6-0.2
			c0.4-0.2,0.8-0.3,1-0.5c0.3-0.2,0.5-0.4,0.7-0.5c0.2-0.2,0.4-0.2,0.5-0.2c0.2,0,0.4,0.1,0.5,0.3l0.8,1c-0.3,0.4-0.7,0.8-1.1,1
			c-0.4,0.3-0.9,0.5-1.4,0.7c-0.5,0.2-1,0.3-1.5,0.4c-0.5,0.1-1.1,0.1-1.6,0.1c-1,0-1.8-0.2-2.6-0.5c-0.8-0.3-1.5-0.9-2.1-1.5
			c-0.6-0.7-1.1-1.5-1.4-2.5s-0.5-2.1-0.5-3.3c0-1.1,0.2-2.2,0.5-3.1c0.3-1,0.8-1.8,1.4-2.5c0.6-0.7,1.3-1.2,2.2-1.6
			c0.9-0.4,1.9-0.6,3.1-0.6c1.1,0,2,0.2,2.8,0.5c0.8,0.3,1.5,0.8,2.2,1.5L953.1,895z"/>
	</g>
	<g class="st31">
		<path class="st29" d="M955.2,892.3h14.3v2h-5.8v13.2H961v-13.2h-5.8V892.3z"/>
	</g>
	<g class="st31">
		<path class="st29" d="M981.5,907.5c-0.3,0-0.5,0-0.6-0.1c-0.1-0.1-0.2-0.3-0.3-0.5l-0.3-1.4c-0.4,0.4-0.8,0.7-1.2,1
			c-0.4,0.3-0.8,0.5-1.2,0.7c-0.4,0.2-0.9,0.3-1.3,0.4c-0.5,0.1-1,0.2-1.6,0.2c-0.6,0-1.1-0.1-1.7-0.2c-0.5-0.2-1-0.4-1.4-0.7
			s-0.7-0.7-0.9-1.3c-0.2-0.5-0.3-1.1-0.3-1.8c0-0.6,0.2-1.2,0.5-1.7c0.3-0.6,0.9-1,1.6-1.5s1.7-0.8,2.9-1.1
			c1.2-0.3,2.6-0.4,4.4-0.5v-1.2c0-1.2-0.3-2.1-0.8-2.7c-0.5-0.6-1.3-0.9-2.2-0.9c-0.7,0-1.2,0.1-1.7,0.2c-0.4,0.2-0.8,0.4-1.2,0.6
			c-0.3,0.2-0.6,0.4-0.8,0.6c-0.2,0.2-0.5,0.2-0.7,0.2c-0.2,0-0.3,0-0.5-0.1c-0.1-0.1-0.2-0.2-0.3-0.4l-0.5-0.9
			c0.8-0.8,1.7-1.4,2.7-1.8c1-0.4,2-0.6,3.2-0.6c0.8,0,1.6,0.1,2.3,0.4c0.7,0.3,1.2,0.7,1.7,1.2c0.4,0.5,0.8,1.1,1,1.8
			c0.2,0.7,0.3,1.5,0.3,2.3v9.7H981.5z M975.8,905.9c0.5,0,0.9,0,1.3-0.1c0.4-0.1,0.8-0.2,1.1-0.4c0.3-0.2,0.7-0.4,1-0.6
			s0.6-0.5,0.9-0.9v-3.1c-1.2,0-2.3,0.1-3.1,0.3c-0.9,0.2-1.6,0.4-2.1,0.6c-0.5,0.3-0.9,0.5-1.2,0.9c-0.2,0.3-0.4,0.7-0.4,1.1
			c0,0.4,0.1,0.7,0.2,1s0.3,0.5,0.5,0.7c0.2,0.2,0.5,0.3,0.8,0.4S975.5,905.9,975.8,905.9z"/>
	</g>
	<g class="st30">
		<path class="st29" d="M872.6,938.9v-5.3c2.6,0,4.4-0.5,5.5-1.5c1.1-1,2-2.5,2.7-4.5h5v47.6h-7.5v-36.3H872.6z"/>
		<path class="st29" d="M894.4,963.8v-24.3c0-8.3,3.8-12.4,11.4-12.4c3.6,0,6.4,1,8.3,3.1c1.9,2.1,2.9,5,2.9,8.9v1.2h-7.1v-1.7
			c0-3.1-1.3-4.7-3.9-4.7c-1.4,0-2.4,0.4-3.1,1.3c-0.7,0.9-1,2.4-1,4.6v8.7c1.3-2.8,3.6-4.2,6.9-4.2c5.5,0,8.3,3.6,8.3,10.9v8.7
			c0,3.8-1,6.8-2.9,8.8c-1.9,2.1-4.8,3.1-8.4,3.1s-6.5-1-8.4-3.1C895.4,970.5,894.4,967.6,894.4,963.8z M905.8,951
			c-2.6,0-3.9,1.6-3.9,4.7v8.6c0,3.1,1.3,4.6,3.9,4.6s3.9-1.5,3.9-4.6v-8.6C909.6,952.5,908.3,951,905.8,951z"/>
		<path class="st29" d="M921.8,942.1h7.2v7.2h-7.2V942.1z M921.8,968h7.2v7.2h-7.2V968z"/>
		<path class="st29" d="M933.8,963.8V939c0-3.8,1-6.8,2.9-8.8c1.9-2.1,4.8-3.1,8.4-3.1s6.5,1,8.4,3.1s2.9,5,2.9,8.8v24.8
			c0,3.8-1,6.8-2.9,8.8c-1.9,2.1-4.8,3.1-8.4,3.1s-6.5-1-8.4-3.1C934.8,970.5,933.8,967.6,933.8,963.8z M941.3,938.5v25.7
			c0,3.1,1.3,4.7,3.9,4.7s3.9-1.6,3.9-4.7v-25.7c0-3.1-1.3-4.7-3.9-4.7S941.3,935.4,941.3,938.5z"/>
		<path class="st29" d="M960.8,963.8V939c0-3.8,1-6.8,2.9-8.8c1.9-2.1,4.8-3.1,8.4-3.1s6.5,1,8.4,3.1s2.9,5,2.9,8.8v24.8
			c0,3.8-1,6.8-2.9,8.8c-1.9,2.1-4.8,3.1-8.4,3.1s-6.5-1-8.4-3.1C961.7,970.5,960.8,967.6,960.8,963.8z M968.2,938.5v25.7
			c0,3.1,1.3,4.7,3.9,4.7s3.9-1.6,3.9-4.7v-25.7c0-3.1-1.3-4.7-3.9-4.7S968.2,935.4,968.2,938.5z"/>
	</g>
</g>
</svg>
