<?xml version="1.0" encoding="utf-8"?>
<!-- Generator: Adobe Illustrator 24.0.0, SVG Export Plug-In . SVG Version: 6.00 Build 0)  -->
<svg version="1.1" id="Layer_1" xmlns="http://www.w3.org/2000/svg" xmlns:xlink="http://www.w3.org/1999/xlink" x="0px" y="0px"
	 viewBox="0 0 3714.2 1468" style="enable-background:new 0 0 3714.2 1468;" xml:space="preserve">
<style type="text/css">
	.st0{clip-path:url(#SVGID_2_);}
	.st1{fill:#FFE948;}
	.st2{fill:none;stroke:#FFFFFF;stroke-width:38;stroke-linecap:round;stroke-miterlimit:10;stroke-dasharray:100;}
	.st3{fill:#151249;}
	.st4{fill:#81BEE2;}
	.st5{fill:#FFC9AE;}
	.st6{fill:none;stroke:#4D5AA8;stroke-width:32.59;stroke-linecap:round;stroke-miterlimit:10;}
	.st7{fill:none;stroke:#FF4D4D;stroke-width:24;stroke-linecap:round;stroke-miterlimit:10;}
	.st8{fill:none;stroke:#151249;stroke-width:22.22;stroke-linecap:round;stroke-miterlimit:10;}
	.st9{fill:none;stroke:#151249;stroke-width:20.74;stroke-linecap:round;stroke-miterlimit:10;}
	.st10{fill:#FAD34A;}
	.st11{fill:none;stroke:#151249;stroke-width:10.37;stroke-linecap:round;stroke-miterlimit:10;}
	.st12{fill:#FF5555;}
	.st13{fill:none;stroke:#151249;stroke-width:14.81;stroke-linecap:round;stroke-miterlimit:10;}
	.st14{fill:none;stroke:#FF4D4D;stroke-width:20.74;stroke-linecap:round;stroke-miterlimit:10;}
	.st15{fill:none;stroke:#FFFFFF;stroke-width:11.85;stroke-linecap:round;stroke-miterlimit:10;}
	.st16{fill:none;stroke:#151249;stroke-width:26.66;stroke-linecap:round;stroke-miterlimit:10;}
	.st17{fill:none;}
	.st18{fill:none;stroke:#151249;stroke-width:3.34;stroke-linecap:round;stroke-miterlimit:10;}
	.st19{fill:#F52166;}
	.st20{fill:none;stroke:#81BEE2;stroke-width:2.96;stroke-linecap:round;stroke-miterlimit:10;}
	.st21{fill:none;stroke:#F52166;stroke-width:5;stroke-linecap:round;stroke-miterlimit:10;}
	.st22{fill:none;stroke:#FF4D4D;stroke-width:22.22;stroke-linecap:round;stroke-miterlimit:10;}
	.st23{fill:none;stroke:#151249;stroke-width:17.78;stroke-linecap:round;stroke-miterlimit:10;}
	.st24{fill:none;stroke:#151249;stroke-width:13.33;stroke-linecap:round;stroke-miterlimit:10;}
	.st25{fill:#F9CB4B;}
	.st26{fill:#FFB217;}
	.st27{fill:#FFC0C0;}
	.st28{fill:#FFFFFF;}
	.st29{fill:#FF4D4D;}
	.st30{fill:#FFD8C2;}
	.st31{fill:none;stroke:#FF5555;stroke-width:3.34;stroke-linecap:round;stroke-miterlimit:10;}
	.st32{fill:none;stroke:#151249;stroke-width:3.23;stroke-linecap:round;stroke-miterlimit:10;}
	.st33{opacity:0.28;}
	.st34{fill:#FC986D;}
	.st35{fill:none;stroke:#F9CB4B;stroke-width:3.34;stroke-linecap:round;stroke-miterlimit:10;}
	.st36{fill:#4D5AA8;}
	.st37{fill:none;stroke:#4D5AA8;stroke-width:8.35;stroke-linecap:round;stroke-miterlimit:10;}
	.st38{fill:none;stroke:#4D5AA8;stroke-width:3.23;stroke-linecap:round;stroke-miterlimit:10;}
	.st39{fill:none;stroke:#4D5AA8;stroke-width:3.34;stroke-linecap:round;stroke-miterlimit:10;}
	.st40{fill:#FFB0AE;}
	.st41{fill:#FFB8B8;}
	.st42{fill:#FFC7C7;}
	.st43{fill:#FF8D8D;}
	.st44{fill:none;stroke:#000000;stroke-width:2.71;stroke-linecap:round;stroke-miterlimit:10;}
	.st45{fill:none;stroke:#FFFFFF;stroke-width:2.71;stroke-linecap:round;stroke-miterlimit:10;}
	.st46{fill:none;stroke:#FFFFFF;stroke-width:6.4;stroke-miterlimit:10;}
	.st47{fill:none;stroke:#FFFFFF;stroke-width:4;stroke-miterlimit:10;}
	.st48{fill:none;stroke:#151249;stroke-width:5.41;stroke-miterlimit:10;}
	.st49{fill:none;stroke:#151249;stroke-width:5.41;stroke-linecap:round;stroke-miterlimit:10;}
	.st50{fill:none;stroke:#FF4D4D;stroke-width:3.34;stroke-linecap:round;stroke-miterlimit:10;}
	.st51{fill:none;stroke:#FFFFFF;stroke-width:5;stroke-linecap:round;stroke-miterlimit:10;}
	.st52{opacity:0.56;fill:#808080;enable-background:new    ;}
	.st53{fill:#3C6678;}
	.st54{fill:#195B72;}
	.st55{fill:#F2F2F2;}
	.st56{fill:none;stroke:#FFFFFF;stroke-width:3.34;stroke-linecap:round;stroke-miterlimit:10;}
	.st57{fill:#FFCB4A;}
	.st58{opacity:0.53;fill:#FFC0C0;enable-background:new    ;}
	.st59{fill:#FF8C24;}
	.st60{fill:none;stroke:#FF4D4D;stroke-width:5.8;stroke-linecap:round;stroke-miterlimit:10;}
	.st61{fill:none;stroke:#151249;stroke-width:14.53;stroke-linecap:round;stroke-miterlimit:10;}
	.st62{fill:none;stroke:#FAD34A;stroke-width:5;stroke-linecap:round;stroke-miterlimit:10;}
	.st63{fill:none;stroke:#FFFFFF;stroke-width:59;stroke-linecap:round;stroke-miterlimit:10;}
	.st64{fill:none;stroke:#151249;stroke-width:5;stroke-linecap:round;stroke-miterlimit:10;}
	.st65{fill:none;stroke:#FF4D4D;stroke-width:5;stroke-linecap:round;stroke-miterlimit:10;}
</style>
<title>skate</title>
<g>
	<defs>
		<path id="SVGID_1_" d="M2481.4,260.3c-120.5-0.2-239.6,25.1-349.6,74.3c-141.4-167.6-352.9-274-589.3-274
			c-357.4,0-658,243.2-745.2,573.2c-246.6,90.8-422.5,327.9-422.5,606.1c-0.1,77.9,14,155.2,41.5,228.1h2848.5
			c49.2-110.1,74.6-229.3,74.4-349.9C3339.1,644.3,2955.1,260.3,2481.4,260.3z"/>
	</defs>
	<clipPath id="SVGID_2_">
		<use xlink:href="#SVGID_1_"  style="overflow:visible;"/>
	</clipPath>
	<g class="st0">
		<path class="st1" d="M2481.4,260.3c-120.5-0.2-239.6,25.1-349.6,74.3c-141.4-167.6-352.9-274-589.3-274
			c-357.4,0-658,243.2-745.2,573.2c-246.6,90.8-422.5,327.9-422.5,606.1c-0.1,77.9,14,155.2,41.5,228.1h2848.5
			c49.2-110.1,74.6-229.3,74.4-349.9C3339.1,644.3,2955.1,260.3,2481.4,260.3z"/>
		<path class="st2" d="M3202.6,813.4c-79.6-187.6-229-337-416.6-416.6"/>
		<polygon class="st3" points="2444.1,1339.7 2715.1,1391 2737.4,1141.1 2429.3,1141.1 		"/>
		<path class="st4" d="M2737.4,833.9v362.9c0,0-86.2,13.4-154.1,21c-78.5,8.8-169,14-155.6,14l1.5-398"/>
		<path class="st5" d="M2356.7,813.8c0,0,4.4,226.7,84.4,225.2c80-1.5-5.9-238.5-5.9-238.5L2356.7,813.8z"/>
		<path class="st5" d="M2810,813.8c0,0-56.3,213.3-115.2,224.5c-67.5,12.8-10.7-214.1-10.7-214.1L2810,813.8z"/>
		<ellipse class="st6" cx="2777.4" cy="1070" rx="125.9" ry="121.5"/>
		<ellipse class="st7" cx="2777.1" cy="1070" rx="117.2" ry="113.1"/>
		<path class="st4" d="M2429.3,833.8c-57.8-8.1-72-20-72-20c-4.4-60.7,14.8-142.2,48.9-160c49.2-25.7,161.5-19.2,161.5-19.2h32
			c0,0,112.3-6.4,161.5,19.2c34.1,17.8,53.3,99.3,48.9,160c0,0-14.2,12-72.6,20.1"/>
		<line class="st8" x1="2293.1" y1="730.9" x2="2689.3" y2="909.3"/>
		<path class="st9" d="M2773,840.4l-199.9,161.5c-4.8,3.8-11.6,3.7-16.3-0.3l-269-234.5"/>
		<path class="st9" d="M2773.4,1068.6l-202.1-59.1c-1.6-0.5-2.6-2.2-2.1-3.8c0.2-0.6,0.5-1.1,1-1.5l119.2-95.5l88.8,153.9
			c1.1,2,0.5,4.5-1.5,5.7C2775.7,1068.8,2774.5,1068.9,2773.4,1068.6z"/>
		<ellipse class="st6" cx="2206.4" cy="947.8" rx="125.9" ry="121.5"/>
		<circle class="st10" cx="2566.3" cy="1007.1" r="18.5"/>
		<circle class="st11" cx="2566.3" cy="1007.1" r="34.1"/>
		<path class="st11" d="M2557.2,1039.9c18.1,5.1,219.5,54.6,224,29.4c4.2-23.8-187.5-90-205.6-95c-18.1-5.1-36.9,5.5-42,23.7
			C2528.5,1016.1,2539.1,1034.9,2557.2,1039.9L2557.2,1039.9L2557.2,1039.9z"/>
		<path class="st12" d="M2839.7,851.7c-16.4-9.8-36-15.7-48.9-23.1c-41.3-23.4-58.6-36.3-64.3-27.4c-7,11,65.7,73.3,86.5,82.2
			c9.3,4,23.6,2.1,29.9-5.9S2848.4,856.8,2839.7,851.7z"/>
		<path class="st13" d="M2530.8,623.4c0,0-87.3-39.2-118.5-32.6c-24.4,5.2-40,34.1-45.9,45.9c-5.9,11.8-17.1,43.7-54.8,28.1
			s-26.7-43-17.8-66.7c8.9-23.7,20.6-40.8,5.9-53.3c-20-17-82.2-14.1-82.2-14.1"/>
		<path class="st14" d="M2246.4,530.7c-30-1-66.8,3.4-66.8,3.4"/>
		<line class="st15" x1="2251.8" y1="519" x2="2250.7" y2="544.7"/>
		<line class="st16" x1="2310.8" y1="665.6" x2="2316.7" y2="683.4"/>
		<line class="st17" x1="2577.4" y1="564.2" x2="2577.4" y2="564.2"/>
		<path class="st5" d="M2540.4,637.5c0,0,2.4-34.8-4.3-71.4l83.9-90.9c0,0,18.4,106.7,4.9,166.8
			C2624.9,641.9,2583.4,674.5,2540.4,637.5z"/>
		<ellipse class="st7" cx="2206.4" cy="947.8" rx="117.2" ry="113.1"/>
		<path class="st18" d="M2562.9,614.9c0,0-4.1-9.3,0.4-21.6"/>
		<path class="st5" d="M2553.8,395.9c43-0.1,68.1,22.2,74.1,60.8c5.8,37.7-1.1,54.9-20.7,83c-18.5,26.5-48.9,37.4-71.1,34.1
			c-40-5.9-41.5-101.8-38.5-130.4C2500.4,415.2,2525.6,396,2553.8,395.9z"/>
		<path class="st18" d="M2525.3,485.5c0,0-2.6,32.5-1.9,34.2s13.3-5.9,13.3-5.9"/>
		<path class="st18" d="M2538.7,536.5c5.8-1,11-4.3,14.4-9.2c0.4-0.7,1.4-0.9,2-0.4c0.4,0.3,0.6,0.7,0.7,1.2c0.1,4-0.6,9.7-5,13.2
			c-5.1,4.1-10.2,0.4-12.9-2.2c-0.6-0.6-0.6-1.5,0-2.1C2538.1,536.7,2538.4,536.5,2538.7,536.5z"/>
		<path class="st18" d="M2501.1,471.8c2.4-3.6,6.2-6.1,10.5-6.9"/>
		<path class="st18" d="M2542.6,464.8c4.3,0.9,8,3.4,10.3,7.1"/>
		<circle class="st3" cx="2509.3" cy="484.6" r="4.6"/>
		<circle class="st3" cx="2543.3" cy="481.6" r="4.6"/>
		<circle class="st12" cx="2570" cy="489" r="2.9"/>
		<circle class="st12" cx="2580.4" cy="505.3" r="2.9"/>
		<circle class="st12" cx="2561.1" cy="502.4" r="2.9"/>
		<path class="st19" d="M2496,441.9c3-28.2,29.6-45.9,57.8-46c43-0.1,69.6,16.4,75.5,54.9c2.4,15.4,1.1,33.2-0.7,43.9
			c-9-1.1-21.5,3.5-30.4,0.6c-10.1-3.4,0-23.7-1.5-38.5s-16.3-25.2-31.1-23.7s-31.1,16.3-51.9,17.8c-6.1,0.4-13-2-17.8-4.5
			C2496.1,445,2495.9,443.1,2496,441.9z"/>
		<path class="st12" d="M2583.3,555.7c0.6-0.4,1.4-0.3,1.8,0.2c0.3,0.5,0.3,1.1,0,1.5c-9.2,12-28.8,28.6-45.4,36.4
			c-0.5-6.4-1.3-13.2-2.3-20.1C2549.4,573.6,2571.5,564.5,2583.3,555.7z"/>
		<circle class="st5" cx="2623.3" cy="507" r="19.1"/>
		<path class="st12" d="M2626.6,525.9c0.2,1.8,0.4,3.7,0.5,5.5c-1.2-0.3-2.3-0.7-3.4-1.3c-1.3-0.7-2.6-1.5-3.8-2.4
			c-0.4-0.4-0.4-1,0-1.4c0.2-0.2,0.5-0.3,0.8-0.3C2622.6,526.3,2624.6,526.2,2626.6,525.9z"/>
		<path class="st5" d="M2644.4,674.6L2644.4,674.6c3.9,0.2,7.5,2.1,9.8,5.2l0,0c0.5-6.6,5.9-11.8,12.5-12l0,0
			c5.6-0.2,10.6,3.2,12.5,8.5l0,0c1.9-4.7,6.5-7.8,11.5-8l0,0c5.8-0.2,10.9,3.5,12.7,9l0,0c2.3-2.6,5.6-4.1,9.1-4.2
			c7.1-0.1,13.1,5.5,13.3,12.7l0.6,18.5l-0.2,31.5c14.2,1.1,13.4,45.3,13.4,45.3l-4.8,207.8c-0.8,28.3-23.9,50.9-52.3,50.9l0,0
			c-28.9,0-52.3-23.4-52.3-52.3c0,0,0,0,0,0v-194l0.7-106.6C2631.2,679.8,2637.2,674.3,2644.4,674.6
			C2644.4,674.6,2644.4,674.6,2644.4,674.6z"/>
		<path class="st5" d="M2482.3,673.1L2482.3,673.1c-3.9,0.2-7.5,2.1-9.8,5.2l0,0c-0.5-6.6-5.8-11.8-12.5-12l0,0
			c-5.6-0.2-10.6,3.2-12.5,8.5l0,0c-1.9-4.7-6.5-7.8-11.5-8l0,0c-5.8-0.2-10.9,3.5-12.7,9l0,0c-2.3-2.6-5.6-4.1-9.1-4.2
			c-7.2-0.1-13.1,5.5-13.3,12.7l-0.6,18.5l0.2,31.5c-14.2,1.1-13.3,45.3-13.3,45.3l4.8,207.8c0.7,28.3,23.9,50.9,52.3,50.9l0,0
			c28.9,0,52.3-23.4,52.3-52.3V792l-0.7-106.6C2495.5,678.3,2489.5,672.8,2482.3,673.1C2482.4,673.1,2482.3,673.1,2482.3,673.1z"/>
		<line class="st20" x1="2739.9" y1="830" x2="2735.9" y2="938"/>
		<line class="st20" x1="2728.1" y1="727.8" x2="2726.5" y2="753.4"/>
		<line class="st20" x1="2386.3" y1="816.7" x2="2390.8" y2="915.8"/>
		<line class="st20" x1="2399.1" y1="727.8" x2="2400.8" y2="753.4"/>
		<line class="st8" x1="2207.1" y1="947.1" x2="2310.8" y2="686.4"/>
		<path class="st21" d="M2501.2,395.5c-12-37-11-81-26-57s-34-23-37-41"/>
		<path class="st21" d="M2426.2,200.5c2,22,0,55,0,61"/>
		<line class="st21" x1="2426.2" y1="273.5" x2="2426.2" y2="275.5"/>
		<path class="st22" d="M2530.8,623.4c0,0-45.2-20.3-82.2-29.2"/>
		<line class="st23" x1="2505.6" y1="1036.7" x2="2459.7" y2="999.7"/>
		<line class="st24" x1="2567.1" y1="1006.3" x2="2484.1" y2="1018.2"/>
		<line class="st15" x1="2447.1" y1="578.5" x2="2438.2" y2="606.1"/>
		<circle class="st25" cx="768.7" cy="888.5" r="30.3"/>
		<path class="st26" d="M765.1,918.6c1.2,0.2,2.4,0.2,3.6,0.2c16.8,0,30.3-13.6,30.3-30.3c0-6.8-2.3-13.4-6.5-18.8
			C782.1,877,770,895.8,765.1,918.6z"/>
		<rect x="1170.9" y="1415.6" class="st3" width="303.8" height="53.4"/>
		<path class="st27" d="M1466.3,851.4l-64.4-8.2c-11.3-1.4-19.7-11.3-19.3-22.7c2.1-54.2,1.9-122.2,1.9-122.2l-86.9,73.6
			c0.3,16.1-0.5,34.4-1.4,49c-0.7,10.7-8.9,19.3-19.5,20.5l-72.1,8.3c-58.1,1.7-105,48.3-107,106.4c-0.4,12-1.8,26.5-3.2,41.9
			c-6.2,66.4-13.9,149.1,33.5,204.1c24.6,28.5,59.1,44.1,102.5,46.5c36.9,2,77.8-9.2,121.6-33.4c31.1-17.2,64.4-41.3,99-71.5
			c3.7-3.2,7.2-6.4,10.8-9.6v231.6H1572V961.6C1572,902.4,1524.9,853.8,1466.3,851.4z M1461.7,976.7c-25.9,29.8-53.8,57.9-83.4,84
			c-83.1,72.7-127,78.7-142,77.8c-18.6-1-23.4-6.6-25-8.4c-3.4-3.9-9.3-14.5-11-41.1c-1.5-24.7,1.2-53.1,3.7-80.7
			c1.6-17,3.1-33,3.6-48.2l-55.1-2l55.3,1.9c0,0-0.1,0,0,0h3.3l123.4-14.3l120.6,15.4l3.4,0.4h3.3L1461.7,976.7z"/>
		<path class="st28" d="M1479.4,1400.6l-304.8,31.9c-5.4,0.5-10.2-3.4-10.7-8.9c0-0.3,0-0.7,0-1V951.9c0-5.4,4.3-9.9,9.8-9.9
			c0,0,0,0,0,0h304.8c5.4,0,9.8,4.5,9.8,9.9c0,0,0,0,0,0v438.8C1488.2,1395.8,1484.4,1400,1479.4,1400.6z"/>
		<path class="st3" d="M1338.1,560.3c6.6,1.1,14.3-11,33.1-5.5c18.8,5.5,15.4,22.1,29.8,30.9c14.3,8.8,30.3,3.7,36.4,19.8
			c6.6,17.7-6.6,28.7-5.5,38.6s14.3,16.5,9.9,34.2c-3.3,13.2-15.3,12.2-17.7,17.7c-3.3,7.7-0.4,20.5-11,29.8
			c-16.6,14.3-53,9.9-53,9.9"/>
		<path class="st27" d="M1326.2,585.9c29.3,1.5,55.3,23.5,57.2,52.8c2.4,38.8,3.5,69.3-17.7,97.1c-20,26.1-57.7,43.1-78.8,34.2
			c-33.7-14.3-36.7-93.6-29.6-122.1C1268.8,601.6,1296.9,584.3,1326.2,585.9z"/>
		<path class="st18" d="M1278.2,685.9c0,0-6.8,17.3-5.3,34.9c0.2,2.3,12.5-5.5,12.5-5.5"/>
		<path class="st18" d="M1261.5,655.8c0,0,3.3-5.5,14.3-4.4"/>
		<path class="st3" d="M1417.6,647.5c0,0-72.7-87.2-79.4-87.2c-7.2,0-19.2-13.3-33.1-7.7c-16.5,6.6-9.9,22.1-28.7,29.8
			c-19.2,7.9-22.1,14.3-22.6,24.8c0,0,0,24.8,28.7,25.4c27,0.6,22.6-13.9,34.2-13.2c9.4,0.6,8.8,13.2,18.8,16.5
			c9.9,3.3,17.7-5.5,26.5,1.1c8.8,6.6-7,26.8,5,33.7c7.7,4.4,21-14.3,33.1-12.1C1408.8,660.2,1417.6,647.5,1417.6,647.5z"/>
		<circle class="st27" cx="1386.5" cy="680.4" r="21"/>
		<circle class="st3" cx="1294.2" cy="674.5" r="5"/>
		<circle class="st3" cx="1268.5" cy="674.5" r="5"/>
		<path class="st18" d="M1304.1,656.8c0,0-3.3-5.5-14.3-4.4"/>
		<path class="st27" d="M1466.3,851.6l-124.5-16.1l-5.2,41.4c1.1,1,1.7,2.5,1.7,4c-0.1,21.5-4.2,42.8-4.3,64.2
			c9.2-2.7,20.6,0.6,29.4,3.2c6.2,1.8,12.3,4.2,18.8,5c10.4,1.3,20.8,1.8,31.2,2.7c7.7,0.6,15.4,1.9,23.2,2.2
			c6.5,0.1,12.9,0.5,19.3,1.3c4.7,0.7,9.5,2,12.1,6.3c2.8,4.6,3,10.5,2.9,15.7c-0.2,11.8-3.7,23.3-3.9,35.1c0,2.9-2.3,5.4-5.3,5.4
			c0,0,0,0,0,0v447.7H1572V963.5C1572,903.4,1524.9,854.1,1466.3,851.6z"/>
		<path class="st29" d="M1399.8,1107.1c-6.9-16.9-15.8-31.1-26.4-42.3c-19.1-20.2-43.1-30.4-71.5-30.6h-0.5
			c-24.7-0.3-48.4,10.1-64.9,28.5c-17.6,19.1-29.9,47.5-36.9,84.7l47.4,4.9c5.3-25.9,105.2-36.8,109.6-25.4"/>
		<path class="st30" d="M1224.4,1241.2c-3.7,1.2-5.8,5-4.8,8.8c6.1,22.5,26.9,93.7,32.4,105.9c3,6.7-2.9,23.7-9.9,39.6
			c-2.7,6.1,5.1,11.4,9.8,6.7c17.8-18.1,39.4-40.1,46.4-47.8c2.8-3.1,4.1-7.4,3.3-11.6c-2.4-13.2-7.6-42.6-7.6-51.9v-21.5
			c0-3,1.9-5.7,4.7-6.8l34.5-13.2c2.4-0.9,5.2-0.5,7.2,1.2l28.4,23.4c3.1,2.5,3.5,7.1,1,10.2c-0.1,0.1-0.1,0.1-0.2,0.2
			c-7.2,8-20.6,25.7-26.9,34c-2.2,2.9-3,6.5-2.3,10.1c1.4,7.1,6.7,31.6,12.3,57.1c1.5,7.1,12,5.8,11.8-1.4
			c-0.5-17.4-0.3-31.4,1.3-32.6c4.4-3.3,62.9-37.5,66.2-69.5c2.8-26.8-26.9-75.1-36.7-90.2c-1.8-2.8-5.2-4-8.3-3L1224.4,1241.2z"/>
		<path class="st28" d="M1373.1,1346.5l-21.5-40.2c-3.5,4.6-6.8,8.9-9.1,11.9c-2.2,2.9-3,6.5-2.3,10.1c1.4,7.1,6.7,31.6,12.3,57.1
			c1.5,7.1,12,5.8,11.8-1.4c-0.5-17.4-0.3-31.4,1.3-32.6C1366.5,1350.8,1369.3,1349.1,1373.1,1346.5z"/>
		<path class="st4" d="M1294,1290.7v-21.5c0-3,1.9-5.7,4.7-6.8l34.5-13.2c2.4-0.9,5.2-0.5,7.2,1.2l28.4,23.4l57.8-21.9
			c-8.5-23.9-24.6-49.9-31.2-60.2c-1.8-2.8-5.2-4-8.3-3l-162.5,52.5c-3.7,1.2-5.8,5-4.8,8.8c3,11.2,9.8,34.7,16.4,56.8L1294,1290.7z
			"/>
		<path class="st19" d="M1366.6,1350.8l-21.1-36.5l-2.9,3.9c-2.2,2.9-3,6.5-2.3,10.1c1.4,7.1,6.7,31.6,12.3,57.1
			c1.5,7.1,12,5.8,11.8-1.4c-0.5-17.4-0.3-31.4,1.3-32.6L1366.6,1350.8z"/>
		<path class="st28" d="M1252.1,1355.8c3,6.7-2.9,23.7-9.9,39.6c-2.7,6.1,5.1,11.4,9.8,6.7c17.8-18.1,39.4-40.1,46.4-47.8
			c2.8-3.1,4.1-7.4,3.3-11.6c-0.6-3.5-1.5-8.1-2.3-13.1l-49,21.8C1251,1353.2,1251.6,1354.8,1252.1,1355.8z"/>
		<path class="st31" d="M1261.5,1319.9c0,0-3.3,7.7,3.3,12.1"/>
		<path class="st31" d="M1413.7,1276.9c0,0,5.5,3.3,0,14.3"/>
		<line class="st32" x1="1457.8" y1="982.4" x2="1462.1" y2="1070.6"/>
		<path class="st12" d="M1297.6,772.2c0.1,6,0.1,12.2-0.1,18.4c13.8-4.4,38.9-18.3,51.2-34.9c0.4-0.5,0.3-1.3-0.2-1.7
			c-0.4-0.3-1-0.3-1.5,0C1331.2,765.9,1312.4,773.1,1297.6,772.2z"/>
		<path class="st18" d="M1281.4,728.5c4.4,0,8.7-1.7,11.8-4.9c0.8-0.8,1.7-0.2,1.9,0.9c0.8,4,0.8,10.3-2.9,12.3
			c-4.3,2.3-10.5-4.1-11.6-6.6C1280.1,729.5,1280.5,728.5,1281.4,728.5z"/>
		<path class="st28" d="M1466.3,851.4l-64.4-8.2c-2-0.3-4-0.8-5.8-1.6c-10.2,17-32.7,31-57.9,31c-3.3,0-6.7-0.2-10-0.6l-5,92.1
			l131.9-2.8l3.4,0.4h3.3v126l110.3-5.6V961.6C1572,902.4,1524.9,853.8,1466.3,851.4z"/>
		<path class="st27" d="M1554.1,1011.2L1554.1,1011.2c-2.9-2.6-6.7-3.8-10.6-3.2v-0.1c4.3-5.1,4.1-12.6-0.5-17.4l0,0
			c-3.8-4-9.8-5.2-14.9-2.9l-0.1-0.1c1.9-4.7,0.9-10.1-2.6-13.8l0,0c-4-4.2-10.2-5.2-15.4-2.6h-0.1c0.1-3.5-1.2-6.9-3.6-9.4
			c-5-5.2-13.3-5.3-18.5-0.4c0,0-18.8,19.7-48.5,48.2c-1.6,1.5-4.1,1.5-5.7-0.1c-0.5-0.5-0.8-1.1-1-1.7l-5.6-18.8
			c-1.4-4.9-6.3-7.9-11.3-6.8c-5.1,1.2-8.2,6.3-7,11.3c0,0.2,0.1,0.4,0.2,0.6c0,0,4.5,13.9,5.6,18.7c1.6,6.7,2.6,14.9-7.7,26.6
			c-0.4,0.5-0.8,1-1.1,1.6l0,0c-6.8,6.2-13.9,12.7-21.3,19.2c-81.8,72.7-133.2,79.2-148.1,78.4c-18.6-1-23.4-6.6-25-8.4
			c-3.4-3.9-9.3-14.5-11-41.1c-0.1-2.2-0.2-4.3-0.3-6.5c-2.5,0.3-4.7-1.5-5.1-3.9c-5.1-31.6,0.8-63.2,5.3-94.7c-0.3-7,0-14,1-21
			c0.2-1.2,1-2.2,2-2.9c0.1-0.6,0.1-1.3,0.2-1.9c0.6-7,11.5-7.1,11-0.1c38.1-4.1,76.2-7.8,113.7-15.9c-1.8-17.3-2.3-34.7-4.6-52
			c-0.5-3.6,2.2-5.3,5.1-5.2c-0.3-2.1-0.6-4.3-0.8-6.4c-0.4-3.5,2.2-5.3,5-5.3 M1332.9,873l-4.3-37.6c0,0,0,0,0,0l-124,14.3l0,0
			c-58.1,1.7-105,48.3-107,106.4c-0.4,12-1.8,26.5-3.2,41.9c-6.2,66.4-13.9,149.1,33.5,204.1c24.6,28.5,59.1,44.1,102.5,46.5
			c2.8,0.1,5.6,0.2,8.5,0.2c34.6,0,72.6-11.3,113.1-33.7c31.1-17.2,64.4-42.4,99-72.6c57.2-50,104.1-113,104.1-113
			c4.8-5.3,4.3-13.5-1-18.3L1332.9,873z"/>
		<path class="st28" d="M1093.4,1007.4c-0.3,3-0.6,6.1-0.8,9.2v0.3c-0.3,3.1-0.5,6.1-0.8,9.2v0.4c-0.2,3.1-0.5,6.2-0.7,9.3v0.4
			c-0.2,3.1-0.4,6.2-0.6,9.3v0.5c-0.2,3.1-0.3,6.2-0.4,9.4c0,0.2,0,0.4,0,0.5c-0.1,3.1-0.2,6.3-0.3,9.4c0,0.2,0,0.4,0,0.6
			c-0.1,3.1-0.1,6.3-0.1,9.4c0,1.8,0,3.5,0,5.3l110.6,6.5c-1.3-24.2,1.3-51.9,3.8-78.8c1.6-17,3.1-33,3.6-48.2v-0.1h3.3l124.7-14.4
			c0.8-22.7-5.5-44.9-8-67.3c-0.4-3.6,2.3-5.3,5.1-5.2l-0.1-0.7c-24.2-1.6-44.6-14.1-53.3-31.3l-75,8.7
			c-58.1,1.7-105,48.3-107,106.4c-0.4,12-1.8,26.5-3.2,41.9c-0.3,3-0.6,6-0.8,9L1093.4,1007.4z"/>
		<line class="st18" x1="1205" y1="999" x2="1200.8" y2="1087.2"/>
		<g class="st33">
			<path d="M1450.9,1142.6c-34.6,30.3-67.9,55.4-99,72.6c-40.5,22.4-78.5,33.7-113.1,33.7c-2.8,0-5.7-0.1-8.5-0.2
				c-25.3-1.4-47.5-7.2-66.5-17.5v28.6c16.1,6.7,34.3,10.6,54.4,11.7c2.8,0.2,5.6,0.2,8.5,0.2c34.6,0,72.7-11.3,113.1-33.7
				c31.1-17.2,64.4-42.4,99-72.6c8-7,15.6-14.3,22.9-21.6l0,0l3.3-3.3l0.3-0.3c2-2,3.9-4,5.8-6.1l0.2-0.3c1.9-2,3.8-4.1,5.7-6.1
				c0.1-0.1,0.1-0.1,0.2-0.2c1.9-2.1,3.7-4.1,5.5-6.1l0.1-0.1c1.8-2.1,3.6-4.1,5.3-6.1l0,0l0,0c15.1-17.5,29.2-35.8,42.2-54.9
				C1511.2,1083.1,1482.7,1114.8,1450.9,1142.6z"/>
		</g>
		<path class="st18" d="M1376.2,677.8c0,0,8.8,4.4,2.2,11"/>
		<path class="st18" d="M1509.7,971.3c0,0-24.3,28.7-35.3,36.4"/>
		<path class="st18" d="M1527.3,986.8c0,0-24.3,28.7-35.3,36.4"/>
		<path class="st18" d="M1545,1005.5c0,0-24.3,26.5-35.3,34.2"/>
		<path class="st30" d="M1414.9,1166.1c-6.2-44.6-20.2-78.7-41.5-101.2c-19.1-20.2-43.1-30.4-71.6-30.6h-0.5
			c-24.7-0.3-48.4,10.1-64.9,28.5c-23.4,25.5-37.6,67.4-42,124.7c-0.6,8-1.6,23-1.6,23c-0.3,42.8,8.8,64.4,8.8,64.4
			c0.9,2.6,3.2,5.1,6.3,4.7l0,0c1.6-0.2,3.1-1.2,3.9-2.6l0,0c0.5,2.8,3,4.7,5.8,4.5l0,0c2.4-0.2,4.3-1.8,5-4.1l0,0
			c1,1.9,3.1,3,5.2,2.9l0,0c2.4-0.2,4.5-1.9,5-4.3l0,0c1.1,1,2.5,1.5,4,1.4c3.1-0.2,5.4-2.9,5.1-6c0,0-1.3-11.4-2.6-28.8
			c-0.1-0.9,0.6-1.8,1.6-1.8c0.3,0,0.5,0,0.8,0.1l7.6,3.2c2,0.9,4.3,0.1,5.3-1.8c1-2,0.2-4.4-1.8-5.4c-0.1,0-0.1-0.1-0.2-0.1
			c0,0-5.7-2.3-7.6-3.2c-1.9-0.8-3.5-2.2-4.6-3.9c-0.1-11.2,0.2-24.8,1.3-39.2c1-13.2,2.8-26.3,5.5-39.3c-3.1-0.9-5.5-4.3-3.4-7.9
			c8.1-13.5,11-29.2,20.1-42.2c8.2-11.6,18.9-20.9,33.4-22.7c12.5-1.5,27.3,1.8,38.3,7.8c13,7,18.7,21.2,23.8,34.3
			c1.2,3.1-0.5,5.4-3,6.3c8.1,20.6,11.9,44.8,13.5,64.7c-1.1,1.3-2.4,2.3-3.9,3c-1.8,0.9-7.6,3.2-7.6,3.2c-2,0.9-3,3.2-2.1,5.3
			c0,0.1,0.1,0.1,0.1,0.2c1,1.9,3.3,2.7,5.3,1.8l7.6-3.2c0.9-0.4,1.9,0,2.2,0.9c0.1,0.2,0.2,0.5,0.1,0.8
			c-1.3,17.4-2.6,28.8-2.6,28.8c-0.2,3.1,2.1,5.8,5.1,6c1.5,0.1,2.9-0.4,4-1.4l0,0c0.5,2.4,2.6,4.1,5,4.3l0,0c2.2,0.2,4.2-1,5.2-2.9
			l0,0c0.6,2.3,2.6,3.9,5,4.1l0,0c2.8,0.2,5.3-1.8,5.8-4.5l0,0c0.9,1.4,2.3,2.3,3.9,2.6l0,0c3,0.4,5.4-2,6.3-4.7
			c0,0,3.7-7.9,6.5-38.8C1417.1,1184.7,1415,1166.2,1414.9,1166.1z"/>
		<path class="st29" d="M1399.8,1107.1c-6.9-16.9-15.8-31.1-26.4-42.3c-19.1-20.2-43.1-30.4-71.5-30.6h-0.5
			c-24.7-0.3-48.4,10.1-64.9,28.5c-17.6,19.1-29.9,47.5-36.9,84.7l47.4,4.9c5.3-25.9,13.7-45.8,24.4-57.4c8.3-9,17.8-13.2,30-13.2
			h0.3c15.1,0.1,27.3,5.2,37.3,15.7c7.4,7.8,13.2,18.1,17.7,29.5"/>
		<path class="st25" d="M1394.3,935.9c1.1-14.3-9.5-26.7-23.8-27.9c-1.9-0.2-3.8-0.1-5.7,0.2c7.8-16.9,0.4-36.9-16.5-44.7
			c-16.1-7.4-35.1-1.1-43.6,14.4c-10.8-16.6-33-21.3-49.6-10.6c-10.2,6.6-16.3,17.9-16.3,30.1c0,2.5,0.3,5,0.8,7.4
			c-19.7,2.3-33.8,20.1-31.5,39.8c2.1,18.1,17.4,31.7,35.7,31.7c19.8,0,61.2,11.2,61.2,23.7c0,12.5,10.1,22.6,22.6,22.6c0,0,0,0,0,0
			c11,0,20.2-6.8,22.2-17.3c4.1,2.6,9,2.9,14.2,2.9c14.9,0.1,27.1-11.9,27.1-26.9c0.1-9.6-5-18.6-13.4-23.5
			C1387.1,954.4,1393.5,945.8,1394.3,935.9z"/>
		<path class="st30" d="M1344.8,976.3c0,30.8-37.1,55.2-67.8,55.2c-30.8,0-55.7-24.9-55.7-55.7c0,0,0,0,0,0
			c0-30.8,25.5-62.3,56.3-62.3S1344.8,945.5,1344.8,976.3z"/>
		<circle class="st30" cx="1343.7" cy="982.9" r="15.5"/>
		<circle class="st30" cx="1230" cy="971.9" r="15.5"/>
		<path class="st31" d="M1246,971.3c0,0-4.4,6.6-4.4,8.8s5.5,3.3,5.5,3.3"/>
		<path class="st31" d="M1250.4,996.7c0,0,8.8-2.2,13.2-8.8"/>
		<path class="st31" d="M1238.3,941.5c0,0,4.4-3.3,8.8-1.1"/>
		<path class="st31" d="M1269.3,948.2c0,0,5.4-0.8,8.3,3.2"/>
		<circle class="st3" cx="1269.2" cy="960.3" r="3.9"/>
		<circle class="st3" cx="1241.6" cy="951.5" r="3.9"/>
		<circle class="st34" cx="1281.3" cy="981.2" r="7.2"/>
		<circle class="st34" cx="1230.6" cy="973.5" r="7.2"/>
		<path class="st25" d="M1342.6,921.1c-4.3,0-8.5,1.1-12.2,3.3c6-14-0.4-30.2-14.4-36.2c-12.7-5.5-27.5-0.7-34.6,11.2
			c-2.9-13.1-15.8-21.4-28.9-18.5c-1.7,0.4-3.4,1-5,1.7c-1.3,3.7-1.9,7.6-1.9,11.5c0,2.5,0.3,5,0.8,7.4
			c-18.1,2.1-31.7,17.4-31.7,35.6c0,0.3,0,0.6,0,0.9c10.5,6.1,24,2.5,30.1-8c0.7-1.2,1.3-2.5,1.8-3.9c11,5.7,24.6,2.2,31.4-8.2
			c2.5,15,16.7,25.2,31.8,22.6c3.7-0.6,7.2-2,10.3-4c-4.8,12.5,1.4,26.6,13.9,31.4c12.5,4.8,26.6-1.4,31.4-13.9
			c4.8-12.5-1.4-26.6-13.9-31.4C1348.5,921.7,1345.5,921.1,1342.6,921.1L1342.6,921.1z"/>
		<path class="st30" d="M1270.2,1014.7c4.1,14,4.9,28.7,2.3,43c0,0,30.8,28,58,1.5c0,0,2.8-66,0.9-74.1S1270.2,1014.7,1270.2,1014.7
			z"/>
		<path class="st34" d="M1276.9,1031.4c-1.2,0-2.3,0-3.4-0.1c0.4,3.5,0.5,7,0.5,10.5c9.1-1.5,30.6-6.4,41.9-20.1
			c0.3-0.4,0.3-0.9-0.1-1.2c-0.3-0.2-0.7-0.3-1-0.1C1303.1,1027.4,1289.5,1031.4,1276.9,1031.4z"/>
		<path class="st31" d="M1344.2,976.8c0,0,7.1,7.1-2.5,13.5"/>
		<path class="st12" d="M1508.7,1085.2c-13.8,15.2-29.8,31.9-47,47.8v11l3.3-3.3l0.3-0.3c2-2,3.9-4,5.8-6.1l0.2-0.3
			c1.9-2,3.8-4.1,5.7-6.1c0.1-0.1,0.1-0.1,0.2-0.2c1.9-2.1,3.7-4.1,5.5-6.1l0.1-0.1c1.8-2.1,3.6-4.1,5.3-6.1l0,0l0,0
			c9.4-10.9,17.6-21.2,24.5-30.3L1508.7,1085.2z"/>
		<rect x="773.7" y="1122.9" class="st30" width="247.1" height="356.3"/>
		<path class="st30" d="M944.7,925.2L944.7,925.2c0,0,10.3-6.5,8.8-10.8c-2.2-6.6-46-33.3-57.7-40.9c-0.9-0.6-1.8-1.2-2.8-1.8l0,0
			c-0.7-0.4-1.3-0.8-1.9-1.1c-39.4-22.5-77-13-95.4,10.7c-18.3,23.7-15.3,68.6,4.4,88.3c26.1,26,39.1,23.5,72.8,27.6
			c45.2,5.5,83.2,2,90.5-21C967,964.9,958.2,945,944.7,925.2z"/>
		<path class="st25" d="M887.3,868c-3.2-3-11.4-19.1-45.2-16.5c-43,3.3-58.5,32-58.5,32s-12.1,25.4-9.9,53s36.9,79.4,78,59.5
			c0,0-1.9-24.3,3.6-29.8s-5-9.6-8.8-17.7C837.7,929.8,860.2,878.2,887.3,868z"/>
		<path class="st29" d="M1821.1,722.4c0,0,22.9-22.2,43.6-14.7s22.2,31.1,37.2,40.5s52.4-1.1,68.5,16.9c17.3,19.3-1.1,47.8,7.8,68.5
			s47,21.5,47,49.5s-24,34-30,54c-6.1,20.2,15,30,10,55c-3.8,18.7-50.9-6.1-50.9-6.1l-228.6-18.8c0,0-20.5-8.9-19.8-21.1
			c0.6-10.8,8.4-9.6,8.9-20.5c0.6-14.9-25.6-16.6-22.8-40.1c1.7-14.1,14.7-22.2,18-34s-21.7-38.6-13.4-59.8
			c11.4-29.2,41.8-20.5,52.9-37.8s10.1-31.9,30-40.3C1799.7,704.9,1821.1,722.4,1821.1,722.4z"/>
		<path class="st35" d="M842.1,996c0,0-28.7,21-46.3-3.3s-16.5-64-16.5-64"/>
		<circle class="st12" cx="903.9" cy="901.2" r="5.5"/>
		<path class="st31" d="M895.6,886.2c-5.2,4.2-7,11.4-4.4,17.7"/>
		<path class="st31" d="M927.6,956.9c0,0,8.8,0,13.2-7.7"/>
		<circle class="st30" cx="850.9" cy="987.2" r="21"/>
		<path class="st36" d="M1014.1,1242c-1.3-34.1-30-60.7-64-59.4c-18.7,0.7-36,9.8-47.2,24.8c-3.2,4.3-9.3,5.3-13.6,2.1
			c-0.8-0.6-1.5-1.3-2.1-2.1c-20.4-27.3-59.1-33-86.5-12.6c-22.9,17.1-31.1,47.5-19.9,73.8h-0.5v210.7h230.6v-210.8h-1.6
			C1012.8,1260.2,1014.5,1251.1,1014.1,1242z M895,1267.2c0.2,0.4,0.3,0.9,0.5,1.3h-1.1C894.7,1268.1,894.9,1267.6,895,1267.2
			L895,1267.2z"/>
		<path class="st30" d="M1031.6,1095.4l-2.9-1.8l0,0l-81.3-33.4c-5-2.1-8.5-6.6-9.3-12c-6.6-45.2,11-65.3,12-66.5 M950.1,981.6
			l-87-1.1l0,0c4.2,35.2,1.8,55.7-1.2,67c-1.3,4.9-4.9,8.9-9.7,10.8l-88.8,35l0,0l-2.9,1.7c-36.5,21.4-58.9,60.6-59,102.9l-1,272.8
			c0,24.1,19.8,44.4,43.9,43.9c23.4-0.5,42.2-19.6,42.1-43l1-273.7c0-10.8,5.3-21,14.2-27.2l0,0l96.3-38l0,0l91,37.4l0,0
			c8.5,6.3,13.6,16.2,13.6,26.8l-1,280.4c0,24.1,19.8,44.4,43.9,43.9c23.4-0.5,42.2-19.6,42.2-43l1-281.2
			c-0.2-41.5-21.8-79.9-57.2-101.6L950.1,981.6z"/>
		<line class="st37" x1="814.4" y1="1073.3" x2="814.4" y2="1200.1"/>
		<line class="st37" x1="978.8" y1="1073.3" x2="978.8" y2="1200.1"/>
		<polygon class="st3" points="971.7,1212.3 966.8,1207.4 958.7,1207.4 954.1,1212 949.5,1207.3 941.3,1207.3 936.4,1212.2 
			954.1,1229.9 		"/>
		<line class="st38" x1="787.7" y1="1183.1" x2="789.5" y2="1218.6"/>
		<line class="st39" x1="1002.5" y1="1188.6" x2="1000.5" y2="1224.1"/>
		<path class="st32" d="M813.9,1266.9c0,0,18.8,14.3,58.5,0"/>
		<path class="st32" d="M918.8,1265.8c0,0,38.6,16.6,64,0"/>
		<path class="st31" d="M850.9,979.4c0,0-7.2,11.7,6.1,11.7"/>
		<circle class="st40" cx="907.2" cy="933.1" r="14.3"/>
		<path class="st12" d="M892.1,1000.6c13.3,6.2,34.8,7.2,45.9,7.3c0.4,0,0.8-0.3,0.8-0.7c0.8-3.7,1.9-7.3,3.2-10.8
			c0.2-0.4,0-0.9-0.5-1.1c-0.2-0.1-0.4-0.1-0.6,0c-12.6,4-29.5,4.9-48.5,3.8c-0.5,0-0.9,0.4-0.9,0.8
			C891.6,1000.1,891.8,1000.4,892.1,1000.6z"/>
		<path class="st19" d="M1251.9,1402c17.8-18.1,39.4-40.1,46.4-47.8c2.8-3.1,4.1-7.4,3.3-11.6c-0.2-1.1-0.4-2.4-0.7-3.8l-48.1,22.3
			c-0.3,8.3-5.2,21.6-10.7,34.2C1239.4,1401.5,1247.2,1406.8,1251.9,1402z"/>
		<path class="st36" d="M1831,1118.6l-2.5-69.8l-21.4-6.8l28.1-91l211.8,61c26.7,8.6,41.5,37.2,32.9,64c-6.1,19.1-22.9,32.8-42.9,35
			l-1.8,0.2L1831,1118.6z"/>
		<path class="st36" d="M1963.8,1076.6l-148.2-36.1l21.5-6.4l-21.8-95.9c0,0-79.3,15.2-152,60.9c-62.5,39.2-62.4,151.5-62.6,159.7
			c-3.3,118.8-0.5,266-0.5,266l388.2-17.8L1963.8,1076.6z"/>
		<path class="st3" d="M1815.4,938.1c0,0-53.7-7.1-54.8,16.5s36.5,54.4,51.7,53.8c14.9-0.6,50.8-26.7,53.4-42.7
			S1815.4,938.1,1815.4,938.1z"/>
		<circle class="st41" cx="1764.8" cy="839.4" r="17.6"/>
		<path class="st42" d="M1775.6,952c0,0,13.9-29.2,15.3-57.3l71.6-17.4c0,0-6.5,37.1-12.7,82.7C1849.8,960.1,1803,996.1,1775.6,952z
			"/>
		<path class="st42" d="M1831.6,737.9c26.6-0.7,51,23.3,54.8,49.6c5,34.9,3.1,58.1-14.1,84.8c-16.2,25.1-42.8,40.5-62.9,34.9
			c-38.8-10.7-48-81.4-43.6-107.6C1772.8,756.9,1805,738.7,1831.6,737.9z"/>
		<path class="st18" d="M1809.7,829.6c0,0-6.9,27-6.4,28.8s10.7-3.8,10.7-3.8"/>
		<circle class="st43" cx="1851.3" cy="850.2" r="10.1"/>
		<circle class="st43" cx="1782.8" cy="849.8" r="10.1"/>
		<path class="st44" d="M1829.8,818.5c0,0,4.9,11.8,16,2.7"/>
		<path class="st44" d="M1781,821.4c0,0,6.8,10.8,16.2,0"/>
		<path class="st18" d="M1834.5,798.9c0,0,10.8-5.5,17.6,2.6"/>
		<path class="st18" d="M1773.9,799.9c0,0,6.6-9.3,17.3-2.8"/>
		<path class="st18" d="M1819.8,870.3c5.3-1.1,9.3-5.4,10-10.7"/>
		<path class="st29" d="M1896.1,824c0,0,2.4,11.4-4.9,4.7s-26.7-20.9-29.4-37.8c-1.9-12,2-25.6-9.8-31.8c-11.3-6-20,4.9-35.8,0.9
			c-3.9-1-15.2-3.2-20.7,0.7c-6.2,4.5-3.4,10.2-14.7,22.2c-10,10.7-27.3,16-50.2,30s30.2-66.3,30.2-66.3l63.1-16.9l33.1-1.3
			l28.7,25.3L1896.1,824z"/>
		<path class="st12" d="M1809.4,907.3c-7.1-2.1-13.5-6-18.5-11.4c-0.3,4.8-0.9,9.7-1.8,14.4c10,3.4,31.3,8.6,45.7-2.5
			c0.6-0.5,0.7-1.3,0.2-1.9c-0.4-0.5-1-0.6-1.5-0.4C1825.1,908.5,1816.8,909.3,1809.4,907.3z"/>
		<path class="st42" d="M1776.1,952.2c0,0,17.2,45.3,34.5,48.2s38.2-40.3,38.2-40.3L1776.1,952.2z"/>
		<path class="st3" d="M1988.6,1406.9l-197.3-8.6l5.2-118.9c7.9-182.7,39.3-292.5,51-327.7c2.4-7.4,9.5-12.2,17.2-11.9l90.6,3.9
			c7.8,0.3,14.3,5.8,16.1,13.3c8.6,36.1,30.3,148.2,22.4,331L1988.6,1406.9z"/>
		<path class="st45" d="M1825.7,1000.2c0.3,0.3,27.6,29.9,12.3,82.9"/>
		<path class="st45" d="M1794.6,997.7c0,0-26.4,27.2-18.8,72.3"/>
		<circle class="st1" cx="1784.7" cy="822.5" r="18.9"/>
		<circle class="st1" cx="1839.3" cy="825.2" r="18.9"/>
		<line class="st46" x1="1801.5" y1="813.8" x2="1774.4" y2="838.4"/>
		<line class="st46" x1="1828.9" y1="840.3" x2="1856.6" y2="816.6"/>
		<line class="st47" x1="1842.3" y1="843.6" x2="1858" y2="830.6"/>
		<line class="st47" x1="1787.6" y1="841.8" x2="1802.3" y2="828.8"/>
		<circle class="st48" cx="1839.5" cy="824.7" r="18.9"/>
		<circle class="st48" cx="1784.7" cy="822.5" r="18.9"/>
		<line class="st48" x1="1820.1" y1="823.9" x2="1804.1" y2="823.2"/>
		<line class="st49" x1="1893.2" y1="824.9" x2="1858.5" y2="819.1"/>
		
			<ellipse transform="matrix(0.9912 -0.1323 0.1323 0.9912 -94.7583 256.8883)" class="st42" cx="1886.4" cy="841.8" rx="17.6" ry="17.6"/>
		<path class="st50" d="M1883.9,848c0,0-1,8.3-3.2,13.5"/>
		<path class="st42" d="M1854.8,1067L1854.8,1067c-3.7,3-9,2.5-12-1.2c0,0,0,0,0,0l-21.6-26.5c-3-3.7-2.4-9.1,1.2-12.1l0,0
			c3.7-3,9.1-2.4,12.1,1.2c0,0,8.2,10.5,11.2,13.7c4.2,4.6,9.9,9.6,23.9,7.8C1879.3,1048.7,1858.4,1064,1854.8,1067z"/>
		<path class="st42" d="M2082.2,1065.6c2.3-23.9-12.3-46.2-35.2-53.6l-0.4,0.8c3.8,0.9,6.9,4.7,4.9,9.3c-3,6.7-7.4,12.6-10.5,19.3
			c-2.3,4.9-5.1,9.4-10.4,11.3c-5.5,2-11.8,1.5-17.6,1c-6.7-0.6-13.3-0.9-20.1-0.9c-5.2,0-7.8-4.8-7.2-8.7l-184.2,6.1
			c-5.2,0.7-8.8,5.3-8.2,10.5c0.3,2.5,1.7,4.8,3.7,6.3l0,0c-3.8,1.7-6.1,5.7-5.6,9.8l0,0c0.5,3.7,3.1,6.7,6.6,7.8l0,0
			c-3.6,1.7-5.8,5.6-5.3,9.6l0,0c0.6,4.8,4.8,8.3,9.6,8.2l0,0c-2.1,1.9-3.2,4.6-3.1,7.4l0,0c0.3,5.2,4.7,9.2,9.8,8.9
			c0,0,185.5-4.7,228-7.7C2060.9,1109.4,2079.8,1089.3,2082.2,1065.6z"/>
		<path class="st36" d="M1869.8,1117.1c58.1-1.7,140.7-4.2,167.3-6.1c23.8-1.7,42.7-21.7,45.1-45.4c2.3-23.9-12.3-46.2-35.2-53.6
			l-15.8,30.5l-165.4,5.5"/>
		<path class="st36" d="M1799.3,1109.8L1799.3,1109.8"/>
		<path class="st51" d="M1979.1,926c0,0-9.5,21.5,5.5,42.5"/>
		<line class="st17" x1="1661.7" y1="742.3" x2="1661.7" y2="742.3"/>
		<path class="st52" d="M1661.1,739.7c0.6-0.4,0.7-1.3,0.3-1.8c-0.4-0.5-1-0.6-1.5-0.4"/>
		<path class="st27" d="M1977,1393.8c0,0-55.1-195-58.9-329.3c-1.1-39.6,12.3-76.7,47.9-93.9c35.2-17.3,77.6-8.8,103.3,20.8
			l255.7,289.2l-85.1,75.3l-207-227.1c0,0,25.1,148,55.9,245C2097.5,1400.9,1977,1393.8,1977,1393.8z"/>
		<path class="st18" d="M1691.6,1143.5c-6,82-6,251-6,251"/>
		<polygon class="st53" points="2088.5,1012.5 2025,1094.5 2033,1128.8 2243.1,1361.4 2325,1280.8 		"/>
		<path class="st28" d="M2054.1,1237.2h-113.8c1.4,7.1,2.8,14,4.2,20.9c1.5,7.3,3,14.5,4.5,21.4h114.5c-2.2-9.3-4.3-18.6-6.3-27.8
			C2056.1,1246.8,2055.1,1242,2054.1,1237.2z"/>
		<path class="st54" d="M2021.2,1077l11.8,51.9l11.8,13l8.1,9l7.2,8l-37.6-82.3c-0.2-0.3-0.5-0.5-0.9-0.3
			C2021.3,1076.4,2021.1,1076.7,2021.2,1077z"/>
		<path class="st55" d="M2060.2,1264.9c8.4,37,18.2,75.9,28.7,108.9c8.6,27.1-111.9,20-111.9,20s-15.8-56.1-31.1-128.9"/>
		<path class="st29" d="M2057.2,1251.7h-114c0.9,4.5,1.8,8.9,2.7,13.2h114.3C2059.2,1260.5,2058.2,1256.1,2057.2,1251.7z"/>
		<rect x="1374.9" y="1354.8" class="st27" width="890.6" height="113.6"/>
		<rect x="1374.9" y="1354.8" class="st28" width="201.2" height="113.6"/>
		<line class="st50" x1="1575.8" y1="1354.8" x2="1575.8" y2="1468.4"/>
		<line class="st50" x1="1533.5" y1="1468.4" x2="1533.5" y2="1354.8"/>
		<rect x="1548" y="1354.8" class="st29" width="13.2" height="113.6"/>
		<path class="st3" d="M1448.9,1411.6c0-31.4-25.4-56.8-56.8-56.8h0v113.6C1423.5,1468.4,1448.9,1443,1448.9,1411.6z"/>
		<path class="st18" d="M1450.2,1404.9c-0.2,0.2-0.5,0.3-0.7,0.1c-0.2-0.1-0.3-0.3-0.2-0.5c2-11.8,11.9-66.3,26.1-61.6
			S1457.2,1394.9,1450.2,1404.9z"/>
		<path class="st18" d="M1449.6,1406.7c-0.2-0.2-0.2-0.5,0-0.7c0.2-0.1,0.4-0.2,0.6-0.1c10.9,5,60.9,28.8,52.7,41.2
			S1457.4,1416.1,1449.6,1406.7z"/>
		<circle class="st36" cx="1787.2" cy="1391.8" r="23.8"/>
		<path class="st50" d="M1784.6,1394.4c0,0-10.6,15.8,0,35.7"/>
		<rect x="1855.9" y="1354.8" class="st53" width="399" height="113.6"/>
		<path class="st53" d="M2182.4,1272.8c0,0,7.6,38.3-3.2,100.4l72.6,4l3.2-68.7L2182.4,1272.8z"/>
		<line class="st17" x1="2325.1" y1="1280.6" x2="2240" y2="1355.9"/>
		<rect x="1374.9" y="1354.8" class="st55" width="17.2" height="113.6"/>
		<path class="st27" d="M2958.8,1371.5l-97.4-177.9l-76.2,77.9l51.2,93.8l-120.4-1l-121.4-186.2c-2.9-4.5-6.2-8.7-9.8-12.6
			l-153.5-166.9c-21.9-23.9-59.1-25.4-83-3.5c-11.3,10.4-18.1,24.9-18.9,40.2l-6.4,129.5l-4.4,73.6c-0.2,6.8,5.2,12.5,12.1,12.6l0,0
			c3.7,0.1,7.3-1.5,9.7-4.3l0,0c0,6.4,4.8,11.7,11.1,12.3l0,0c5.3,0.5,10.3-2.4,12.5-7.3l0,0c1.5,4.6,5.6,7.9,10.5,8.4l0,0
			c5.5,0.5,10.6-2.6,12.7-7.7l0,0c2.1,2.6,5.1,4.3,8.5,4.6c6.8,0.6,12.9-4.4,13.5-11.2l1.8-17.7l1.1-18.8c6-0.5,27.8,0,27.8,0
			l-10.3-15.3c-2-3-3-6.6-2.8-10.2l1.8-34.2l79,85.9l134.4,206.1c10.7,16.5,29.1,26.5,48.8,26.7l208.9,1.7h0.6
			c36.9,0,66.7-29.9,66.7-66.7C2967,1392.3,2964.1,1381.3,2958.8,1371.5L2958.8,1371.5z"/>
		<path class="st56" d="M2121.5,1452.6c0,0,0-48.9,66.1-48.9"/>
		<path class="st56" d="M2235.6,1204.7c0,0-38.7,29.9,1.8,82.2"/>
		<path class="st28" d="M2958.8,1371.5l-49.1-89.8l-93.6,46.3l20.4,37.3l-120.4-1l-121.4-186.2c-2.9-4.5-6.2-8.7-9.8-12.6
			l-153.5-166.9c-21.9-23.9-59.1-25.4-83-3.5c-11.3,10.4-18.1,24.9-18.9,40.2l-6,117.3l-0.4,9.2H2428l0.2-12.5l55.3,60.1h-225.9
			l-107,259.3h572.1l177,1.5h0.6c36.9,0,66.7-29.9,66.7-66.7C2967,1392.3,2964.2,1381.3,2958.8,1371.5L2958.8,1371.5z"/>
		<path class="st57" d="M2428.1,1094.5l0.2,54.8l9.2,10l2.3,2.6l2.9,3.1l2.5,2.7l6.7,7.4l-21.4-80.8c-0.1-0.6-0.8-1-1.4-0.9
			C2428.5,1093.5,2428.1,1094,2428.1,1094.5z"/>
		<path class="st57" d="M2865.8,1408.4l-29.3-43.1l-14.3-0.1l-8.2-0.1l-12.4-0.1l-9-0.1l-8.7-0.1h-4.5l83.8,46.5
			c1,0.6,2.3,0.2,2.8-0.8C2866.3,1409.9,2866.3,1409,2865.8,1408.4z"/>
		<polygon class="st58" points="2428.6,1150.3 2428.4,1149.7 2428.2,1149.7 2428.1,1159.3 		"/>
		<path class="st27" d="M2330.8,1251.1L2330.8,1251.1c3.7,0.1,7.3-1.5,9.7-4.3l0,0c0,6.4,4.8,11.7,11.1,12.3l0,0
			c5.3,0.5,10.3-2.4,12.5-7.3l0,0c1.5,4.6,5.6,7.9,10.5,8.4l0,0c5.5,0.5,10.6-2.6,12.7-7.7l0,0c2.1,2.6,5.1,4.3,8.5,4.6
			c6.8,0.6,12.9-4.4,13.5-11.2l1.8-17.7l1.1-18.8c6-0.5,27.8,0,27.8,0l-10.3-15.3c-2-3-3-6.6-2.8-10.2l1.2-22.1h-104.6l-0.2,3
			l-4.4,73.6C2318.6,1245.3,2324,1250.9,2330.8,1251.1z"/>
		<path class="st31" d="M2412.5,1208.7c0.1-6.8-5.4-12.4-12.2-12.5c0,0,0,0,0,0l0,0c-3.7,0-7.2,1.6-9.6,4.4l0,0
			c-0.1-6.4-5-11.6-11.3-12.2l0,0c-5.3-0.5-10.3,2.5-12.4,7.4l0,0c-1.6-4.6-5.7-7.9-10.6-8.3l0,0c-5.5-0.5-10.6,2.7-12.6,7.9l0,0
			c-2.1-2.6-5.2-4.2-8.5-4.5c-6.8-0.5-12.8,4.6-13.4,11.4"/>
		<path class="st31" d="M2338.2,1179c0,0,23.8-7.9,52.8,0"/>
		<path class="st31" d="M2864.1,1255c0,0-17.1,18.3-46.5,25.2"/>
		<line class="st17" x1="2716.4" y1="1240.9" x2="2716.4" y2="1240.9"/>
		<path class="st59" d="M2754.4,1263.6c0,0,10.5,27.8,30.4,27.8c13.2,0,14.7-7.5,23.8-10.6c11.9-4,22.5,5.3,31.7-2.6
			c10.7-9.1,4-23.8,2.6-34.4c-0.7-6.7,0.2-13.5,2.6-19.8l-65.6-99.1c0,0-7.3,2.4-25.6,0c-19.8-2.6-40.7,3.2-38.9,30.7L2754.4,1263.6
			z"/>
		<path class="st27" d="M2623.6,1237.2c0,0,42.3-10.6,72.7-33l120.2,35.7c0,0-93.8,58.1-154.6,72.7
			C2661.9,1312.5,2601.1,1303.2,2623.6,1237.2z"/>
		<path class="st31" d="M2668.5,1246.4c0,0,6.6-7.9,19.8-9.2"/>
		<path class="st27" d="M2870.8,1146.9c12.6,26.3-0.5,61.5-25.2,77c-32.7,20.6-56.8,29.1-91.2,23.8c-32.3-5-64-23.7-67.4-46.2
			c-6.6-43.6,84.6-76.6,113.2-82S2858.1,1120.6,2870.8,1146.9z"/>
		<path class="st59" d="M2832.4,1198.9c0,0-18.5,7.9-15.9,22.5c1.2,8.2,7.7,14.7,15.9,15.9l13.2-13.2L2832.4,1198.9z"/>
		<path class="st29" d="M2845.6,1224c24.7-15.6,37.8-50.7,25.2-77s-41.8-32.8-70.5-27.4c-7.4,1.5-14.7,3.5-21.9,5.9L2845.6,1224z"/>
		<path class="st60" d="M2784.4,1129.2c-13-20.3-35.7-58.1-35.7-58.1"/>
		<circle class="st27" cx="2812.6" cy="1243.8" r="17.2"/>
		<path class="st31" d="M2754.4,1164.5c0,0-26.4,6.6-27.8,7.9s6.6,6.6,6.6,6.6"/>
		<path class="st31" d="M2722.7,1189.6c0,0,6.6,7.9,21.1,7.9"/>
		<path class="st31" d="M2787.4,1179c0,0-9.2-6.6-10.6-5.3s2.6,11.9,2.6,11.9"/>
		<path class="st31" d="M2788.8,1164.5c0,0,6.6,5.3,14.5,6.6"/>
		<path class="st31" d="M2765,1134.1c0,0,9.2,2.7,11.9,9.2"/>
		<circle class="st12" cx="2759" cy="1148" r="4.6"/>
		<path class="st43" d="M2689.2,1208.9c-5.5,3.5-11.2,6.7-17.1,9.6c9.6,4.9,27.7,16.7,45.8,20.2c0.7,0.1,1.4-0.3,1.5-1
			c0.1-0.6-0.2-1.1-0.7-1.4C2704.9,1229.3,2693.9,1219.7,2689.2,1208.9z"/>
		<path class="st61" d="M912.6,1390.6c0,0,17.3,17.1,45.8,22c14.6,2.5,171.7-4.6,188.9-5c17.2-0.4,150.5,5.4,163.7,5.1
			c24.3-0.6,36.7-7.1,56.9-19.1"/>
		<circle class="st12" cx="992.4" cy="1444.7" r="23.1"/>
		<circle class="st12" cx="1303.8" cy="1444.9" r="23.1"/>
		<path class="st31" d="M2624.6,1223.9c-4.9,0.1-36.6,30.5-11.5,72.8c21.4,36.1,64.7,30.4,71.1,18.6"/>
		<path class="st31" d="M2806.4,1243.8c0,0,10.8,4.6,6.9-7.3"/>
		<line class="st50" x1="1949" y1="1279.5" x2="2063.5" y2="1279.5"/>
		<line class="st50" x1="2054.1" y1="1237.2" x2="1940.3" y2="1237.2"/>
		<circle class="st10" cx="992.4" cy="1444.7" r="8.7"/>
		<circle class="st10" cx="1303.4" cy="1444.7" r="8.7"/>
		<line class="st62" x1="2343.6" y1="1047.5" x2="2338.6" y2="1134.5"/>
		<path class="st62" d="M2345.6,1032.5c0,0,0-9,8-20"/>
		<path class="st51" d="M2795.6,1132.5c0,0,23-12,50,4"/>
		<path class="st51" d="M1964.1,997.7c3.3-2.4,6.8-4.6,10.4-6.3"/>
		<path class="st51" d="M1936.8,1065.5c-0.6-21.3,4.2-41.8,16.2-57"/>
		<path class="st51" d="M1841.6,725.5c0,0,15-10,25,5"/>
		<path class="st51" d="M1891.6,761.5c0,0,9,11,31,8c16-2.2,23.4,0.4,28,4c5,4,10,13,8,26"/>
		<path class="st51" d="M1956.6,822.5c0,0-3,12,5,22"/>
		<path class="st51" d="M1982.6,864.5c0,0,40,7,10,44"/>
		<path class="st18" d="M1724.6,1166.5c0,0,46,34,88,0"/>
		<path class="st62" d="M1126.6,928.5c0,0,11-43,60-56"/>
		<path class="st63" d="M936,556.7c0,0,84.7-289.2,429.7-371.2"/>
		<path class="st51" d="M1117.6,1136.5c0,0,8,53,53,71"/>
		<path class="st51" d="M810.6,876.5c0,0,25-17,49-7"/>
		<path class="st64" d="M1290.6,541.5c9-5,24-6,40,0s30-5,42-2s16,14,31,29s28,0,39,13s7,30,7,37"/>
		<path class="st64" d="M1450.6,659.5c0,0,18,23-3,39"/>
		<path class="st65" d="M2065.6,669.5c0,0,1.9-48-10-48c-11.9,0-74,119-62.8,129.7c6.3,6,126.5-73,118.8-79.8
			c-7.6-6.8-125.6-21.2-123.1-9.3s88.3,101.9,94.2,96.8s-10.2-108.3-10.2-108.3"/>
		<circle class="st28" cx="1475.1" cy="169" r="27.5"/>
		<path class="st29" d="M1861.4,886.5c0,0-12.2,13.3-14.3,24.5c-5,26,10,44,19,43C1877.4,952.8,1861.4,886.5,1861.4,886.5z"/>
		<path class="st3" d="M1483.1,1464.7c-0.2,0-0.3,0-0.5-0.1c-0.4-0.1-39.2-12.9-35.2-58.7l0.1-0.3c0-0.2,4.3-15.4-4.3-27.1
			c-6.7-9.1-19.4-13.9-37.6-14.2c-0.9,0-1.7-0.8-1.6-1.7c0,0,0,0,0,0c0-0.9,0.8-1.6,1.7-1.6c19.3,0.3,32.9,5.6,40.3,15.6
			c9.2,12.6,5.4,28,4.9,29.8c-1.6,18.1,3.5,32.8,15,43.9c5.1,4.9,11.2,8.8,17.8,11.2c0.9,0.3,1.4,1.2,1.1,2.1
			C1484.5,1464.2,1483.8,1464.7,1483.1,1464.7L1483.1,1464.7z"/>
		<path class="st3" d="M1483.1,1464.7c-0.2,0-0.3,0-0.5-0.1c-0.4-0.1-39.2-12.9-35.2-58.7l0.1-0.3c0-0.2,4.3-15.4-4.3-27.1
			c-6.7-9.1-19.4-13.9-37.6-14.2c-0.9,0-1.7-0.8-1.6-1.7c0,0,0,0,0,0c0-0.9,0.8-1.6,1.7-1.6c19.3,0.3,32.9,5.6,40.3,15.6
			c9.2,12.6,5.4,28,4.9,29.8c-1.6,18.1,3.5,32.8,15,43.9c5.1,4.9,11.2,8.8,17.8,11.2c0.9,0.3,1.4,1.2,1.1,2.1
			C1484.5,1464.2,1483.8,1464.7,1483.1,1464.7L1483.1,1464.7z"/>
		<line class="st31" x1="2343.6" y1="1195.5" x2="2340.6" y2="1245.5"/>
		<line class="st31" x1="2367.1" y1="1196" x2="2364.1" y2="1252"/>
		<line class="st31" x1="2390.6" y1="1198.5" x2="2387.1" y2="1252"/>
		<line class="st20" x1="2423.6" y1="674.5" x2="2423.6" y2="707.5"/>
		<line class="st20" x1="2447.6" y1="672.5" x2="2447.6" y2="705.5"/>
		<line class="st20" x1="2472.6" y1="673.5" x2="2472.6" y2="706.5"/>
		<line class="st20" x1="2654.6" y1="675.5" x2="2654.6" y2="708.5"/>
		<line class="st20" x1="2679.6" y1="673.5" x2="2679.6" y2="706.5"/>
		<line class="st20" x1="2703.6" y1="673.5" x2="2703.6" y2="706.5"/>
		<path class="st56" d="M1009.6,1443.4c0.2,2.6-0.2,5.3-1.2,7.8"/>
		<path class="st56" d="M976.4,1438.2c2.1-5.3,6.8-9.2,12.4-10.4"/>
		<path class="st56" d="M1320.3,1442.2c0.5,3.1,0.2,6.4-1,9.3"/>
		<path class="st56" d="M1309.7,1429.2c1.6,0.6,3.1,1.5,4.4,2.6"/>
		<path class="st56" d="M1288.7,1436c2.9-4.6,7.7-7.5,13.1-8"/>
		<path class="st57" d="M2480.1,1304l-12.9-25c-1.9-3.8-2-8.2-0.1-12l13-26h59v63H2480.1L2480.1,1304z"/>
		<path class="st51" d="M2516.6,420.5c0,0,13-15,44-13"/>
		<path class="st51" d="M1812.6,1266.5c0,0,1-45,8-99"/>
		<line class="st18" x1="1797.6" y1="1084.5" x2="1812.6" y2="1084.5"/>
		<line class="st18" x1="1797.6" y1="1066.5" x2="1812.6" y2="1066.5"/>
		<line class="st18" x1="1802.6" y1="1102.5" x2="1813.1" y2="1102.2"/>
	</g>
</g>
<path class="st21" d="M2426.2,200.5c2,22,0,55,0,61"/>
<path class="st51" d="M2116.1,870c0,0,26.5-32.5,76.5-38.5"/>
</svg>
