<?xml version="1.0" encoding="utf-8"?>
<!-- Generator: Adobe Illustrator 23.1.1, SVG Export Plug-In . SVG Version: 6.00 Build 0)  -->
<svg version="1.1" xmlns="http://www.w3.org/2000/svg" xmlns:xlink="http://www.w3.org/1999/xlink" x="0px" y="0px"
	 viewBox="0 0 1000 1326" style="enable-background:new 0 0 1000 1326;" xml:space="preserve">
<style type="text/css">
	.st0{fill:#8AD8FF;}
	.st1{fill:#FDEC61;}
	.st2{fill:none;stroke:#000000;stroke-width:3;stroke-linecap:round;stroke-miterlimit:10;}
	.st3{fill:none;stroke:#000000;stroke-width:4;stroke-linecap:round;stroke-miterlimit:10;}
	.st4{fill:#62B3D3;}
	.st5{fill:#FFC1C2;}
	.st6{fill:#FFFFFF;stroke:#000000;stroke-width:3;stroke-linecap:round;stroke-miterlimit:10;}
	.st7{fill:none;stroke:#000000;stroke-width:2;stroke-linecap:round;stroke-miterlimit:10;}
	.st8{fill:none;stroke:#000000;stroke-width:3.1889;stroke-linecap:round;stroke-miterlimit:10;}
	.st9{fill:#FFFFFF;stroke:#FFFFFF;stroke-width:2;stroke-miterlimit:10;}
	.st10{fill:#9A9CE7;}
	.st11{fill:#FFFFFF;}
	.st12{fill:#75D379;stroke:#000000;stroke-width:3;stroke-miterlimit:10;}
	.st13{fill:none;stroke:#000000;stroke-width:3.5;stroke-linecap:round;stroke-miterlimit:10;}
	.st14{fill:none;stroke:#000000;stroke-width:3.7237;stroke-linecap:round;stroke-miterlimit:10;}
	.st15{fill:none;stroke:#000000;stroke-width:3.5;stroke-linejoin:round;stroke-miterlimit:10;}
</style>
<g id="Layer_1">
	<g>
		<path class="st0" d="M228.5,258l27-1c0-12,1-51-1-68s-7-53-10-67s-8-17-19,0c0,0-44-14-50,0l9,60c0,0-15,25-21,27s-40,7-41,18
			s3,27,3,27s49,13,62,4s15,0,15,0H228.5z"/>
		<path class="st1" d="M161.5,249c-17.73-0.68-31.01-4.89-38.4-7.9c0.94,7.05,2.4,12.9,2.4,12.9s49,13,62,4s15,0,15,0h26l27-1
			c0-4.03,0.11-11.09,0.19-19.35c-15.31,6.62-36.09,4.35-51.19,4.35C181.5,242,187.5,250,161.5,249z"/>
		<path class="st2" d="M221.5,253l27-1c0-12,1-51-1-68s-7-53-10-67s-8-17-19,0c0,0-44-14-50,0l9,60c0,0-15,25-21,27s-40,7-41,18
			s3,27,3,27s49,13,62,4s15,0,15,0H221.5z"/>
		<circle class="st1" cx="232" cy="190.5" r="10.5"/>
		<path class="st2" d="M92.58,242.55C72.8,223.45,60.5,196.66,60.5,167c0-57.99,47.01-105,105-105s105,47.01,105,105
			c0,31-22,26-59,85"/>
		<path class="st2" d="M154.5,244c-17.73-0.68-31.01-4.89-38.4-7.9c0.94,7.05,2.4,12.9,2.4,12.9s49,13,62,4s15,0,15,0h26l27-1
			c0-4.03,0.11-11.09,0.19-19.35c-15.31,6.62-36.09,4.35-51.19,4.35C174.5,237,180.5,245,154.5,244z"/>
		<g>
			<path class="st2" d="M118.36,248.41c-0.39-1.65-1.49-6.58-2.25-12.31C116.87,241.84,117.97,246.77,118.36,248.41z"/>
			<path class="st2" d="M118.43,248.71c-0.02-0.08-0.04-0.18-0.07-0.29C118.39,248.54,118.41,248.63,118.43,248.71z"/>
			<path class="st2" d="M118.5,249c0,0-0.01-0.03-0.01-0.05C118.5,248.98,118.5,249,118.5,249z"/>
			<path class="st2" d="M154.5,244c26,1,20-7,43-7c12.2,0,28.11,1.48,41.85-1.45c-0.04-0.05-6.92-10.56-33.85-13.55
				c-27-3-32,17-43,5s-17-8-29-10c-3.78-0.63-6.56-2.15-8.61-3.94c-5.22,2.41-9.06,5.36-9.39,8.94c-0.4,4.35-0.01,9.48,0.6,14.1
				C123.49,239.11,136.77,243.32,154.5,244z"/>
			<path class="st2" d="M248.5,250.94c0,0.37,0,0.73,0,1.06C248.5,251.67,248.5,251.31,248.5,250.94z"/>
			<path class="st2" d="M248.52,248.14c0,0.47-0.01,0.92-0.01,1.35C248.51,249.06,248.52,248.61,248.52,248.14z"/>
			<path class="st2" d="M248.51,249.61c0,0.38,0,0.74-0.01,1.08C248.51,250.35,248.51,249.98,248.51,249.61z"/>
			<path class="st2" d="M248.52,247.95c0.02-2.49,0.06-5.47,0.1-8.79l0,0C248.58,242.48,248.55,245.47,248.52,247.95z"/>
			<path class="st2" d="M118.48,248.92c-0.01-0.04-0.02-0.1-0.04-0.16C118.46,248.82,118.47,248.88,118.48,248.92z"/>
		</g>
		<path class="st2" d="M171.56,179.56c17.09,11.2,30.94,20.29,27.38,25.72c-3.56,5.44-17.42-3.65-34.51-14.85"/>
		<path class="st2" d="M169.08,143.24c20.07-3.84,36.34-6.96,37.56-0.58c1.22,6.38-15.05,9.5-35.12,13.34"/>
		<line class="st2" x1="172.5" y1="173" x2="206.5" y2="175"/>
		<path class="st2" d="M243.54,153.97c-2.05-14.42-4.36-29.14-6.04-36.97c-3-14-8-17-19,0c0,0-9.01-2.87-19.44-4.71
			C204.86,124.15,217.45,142,243.54,153.97z"/>
		<circle class="st2" cx="227" cy="187.5" r="10.5"/>
		<circle cx="202" cy="143.5" r="5"/>
		<circle cx="195" cy="202.5" r="5"/>
		<circle cx="207" cy="175.5" r="4"/>
		<polyline class="st3" points="110,259.5 131.34,264.07 248,264.07 		"/>
		<polygon points="126,280.5 138,265.5 127.29,264.07 		"/>
		<polygon points="237,265.5 235,280.5 248,265.5 		"/>
		<polygon points="166,265.5 164,280.5 177,265.5 		"/>
		<polygon points="109.51,259.48 103.01,273.15 119.99,262.85 		"/>
		<polygon points="211,265.5 213,280.5 200,265.5 		"/>
	</g>
</g>
<g id="Layer_2">
	<g>
		<g>
			<path class="st0" d="M909.6,569.74c-0.59-22.19-0.62-43.35-0.88-65.88c0.25-53.44,3.52-118.59,3.52-118.59
				c0-7.6-1.47-15.3-4.99-21.09s-8.38-9.68-13.75-9.68s-10.23,3.89-13.75,9.68s-4.99,13.48-4.99,21.09c0,0-0.25,7.12,0.84,18.49
				c8.13,84.93-0.19,155.27-0.58,192.18C888.3,589.66,900.06,580.69,909.6,569.74z"/>
		</g>
		<path class="st0" d="M825.35,583.85l30.66-0.77c0-1.77,0-11.61,0-11.61l-4.54-0.14c0,0-4.54-37.73-8.61-54.05
			c-3.84-15.38-15.48-61.92-20.9-75.85c0,0-44.12,13.93-54.96,27.86c0,0,10.84,27.86,10.84,42.57c0,15.48-8.51,20.9-18.58,26.32
			c-5.16,2.78-37.93,15.48-36.38,29.41c0.25,2.24,0.65,5.42,0.65,5.42l-4.52,0v10.84c0,0,41.39,7.06,54.96,1.55
			c24.77-10.06,35.83-1.55,35.83-1.55H825.35z"/>
		<path class="st1" d="M835.76,479.65l-59.56,21.37c-2.65,0.95-5.56-0.43-6.51-3.07l-2.83-7.9c-0.95-2.65,0.43-5.56,3.07-6.51
			l59.56-21.37c2.65-0.95,5.56,0.43,6.51,3.07l2.83,7.9C839.78,475.78,838.41,478.7,835.76,479.65z"/>
		<path class="st1" d="M811.77,515.46l-20.6,6.06c-1.48,0.44-3.04-0.41-3.47-1.89l-2.29-7.8c-0.44-1.48,0.41-3.04,1.89-3.47
			l20.6-6.06c1.48-0.44,3.04,0.41,3.47,1.89l2.29,7.8C814.1,513.47,813.25,515.03,811.77,515.46z"/>
		<path class="st1" d="M821.67,554l-19.94-7.96c-1.44-0.57-2.13-2.2-1.56-3.63l3.01-7.55c0.57-1.44,2.2-2.13,3.63-1.56l19.94,7.96
			c1.44,0.57,2.13,2.2,1.56,3.63l-3.01,7.55C824.73,553.87,823.11,554.57,821.67,554z"/>
		<path class="st1" d="M910.21,426.51c-9.61-9.64-21.07-17.42-33.8-22.78c-0.27-0.11-0.55-0.22-0.82-0.33
			c-0.48-11.19-0.83-18.12-0.83-18.12c0-7.6,1.47-15.3,4.99-21.09s8.38-9.68,13.75-9.68s10.23,3.89,13.75,9.68
			s4.99,13.48,4.99,21.09L910.21,426.51z"/>
		<path class="st0" d="M872.07,550.74c4.46,0.25,8,3.94,8,8.46c0,0.58-0.06,1.14-0.17,1.68c-0.98,4.85,2.42,9.55,7.37,9.63
			c0.07,0,0.15,0,0.22,0c0.07,0,0.15,0,0.22,0c4.95-0.08,8.35-4.78,7.37-9.63c-0.11-0.54-0.17-1.11-0.17-1.68
			c0-4.52,3.54-8.21,8-8.46"/>
		<path class="st0" d="M878.48,594.01c-0.34-0.86-0.53-1.85-0.53-2.98v0c0-5.47,4.43-9.9,9.9-9.9l0,0c2.47,0,4.72,0.9,6.45,2.39"/>
		<g>
			<path class="st0" d="M903.68,576.01c-0.57-16.41-0.98-31.53-0.98-40.85c0-6.25,0-25,0-25c0-1.92,0-3.86,0.01-5.82"/>
			<path class="st0" d="M872.28,504.34c0.01,1.96,0.01,3.9,0.01,5.82c0,18.38-1.59,59.26-2.83,88.17"/>
		</g>
		<path class="st1" d="M882.48,594.01c-0.34-0.86-0.53-1.85-0.53-2.98v0c0-5.47,4.43-9.9,9.9-9.9l0,0c2.47,0,4.72,0.9,6.45,2.39"/>
		<path class="st2" d="M819.35,580.85l30.66-0.77c0-1.77,0-11.61,0-11.61l-4.54-0.14c0,0-4.54-37.73-8.61-54.05
			c-3.84-15.38-15.48-61.92-20.9-75.85c0,0-44.12,13.93-54.96,27.86c0,0,10.84,27.86,10.84,42.57c0,15.48-8.51,20.9-18.58,26.32
			c-5.16,2.78-37.93,15.48-36.38,29.41c0.25,2.24,0.65,5.42,0.65,5.42l-4.52,0v10.84c0,0,41.39,7.06,54.96,1.55
			c24.77-10.06,35.83-1.55,35.83-1.55H819.35z"/>
		<line class="st2" x1="754.8" y1="529.76" x2="775.33" y2="549.8"/>
		<circle cx="775.37" cy="549.68" r="3.7"/>
		<line class="st2" x1="747.06" y1="533.63" x2="747.39" y2="557.95"/>
		<circle cx="747.7" cy="558.42" r="3.7"/>
		<path class="st2" d="M829.76,476.65l-59.56,21.37c-2.65,0.95-5.56-0.43-6.51-3.07l-2.83-7.9c-0.95-2.65,0.43-5.56,3.07-6.51
			l59.56-21.37c2.65-0.95,5.56,0.43,6.51,3.07l2.83,7.9C833.78,472.78,832.41,475.7,829.76,476.65z"/>
		<path class="st2" d="M805.77,512.46l-20.6,6.06c-1.48,0.44-3.04-0.41-3.47-1.89l-2.29-7.8c-0.44-1.48,0.41-3.04,1.89-3.47
			l20.6-6.06c1.48-0.44,3.04,0.41,3.47,1.89l2.29,7.8C808.1,510.47,807.25,512.03,805.77,512.46z"/>
		<path class="st2" d="M815.67,551l-19.94-7.96c-1.44-0.57-2.13-2.2-1.56-3.63l3.01-7.55c0.57-1.44,2.2-2.13,3.63-1.56l19.94,7.96
			c1.44,0.57,2.13,2.2,1.56,3.63l-3.01,7.55C818.73,550.87,817.11,551.57,815.67,551z"/>
		<line class="st2" x1="764.86" y1="522.8" x2="795.82" y2="535.18"/>
		<line class="st2" x1="767.18" y1="515.83" x2="780.7" y2="512.74"/>
		<path class="st2" d="M814.35,412.98c1.25,3.62,1.59,24.67,1.59,24.67s-13.44-16.52-14.69-20.14c-1.25-3.62,0.67-7.56,4.28-8.81
			S813.1,409.37,814.35,412.98z"/>
		<path class="st2" d="M761.03,466.28l-6.46-17.5c-0.59-1.6,0.23-3.38,1.83-3.98l0,0c1.6-0.59,3.38,0.23,3.98,1.83l5.5,14.91"/>
		<path class="st2" d="M872.29,510.16c0-54.46-3.54-124.89-3.54-124.89c0-7.6,1.47-15.3,4.99-21.09c3.52-5.79,8.38-9.68,13.75-9.68
			h0l0,0c5.37,0,10.23,3.89,13.75,9.68c3.52,5.79,4.99,13.48,4.99,21.09c0,0-3.54,70.43-3.54,124.89c0,0,0,18.75,0,25"/>
		<path class="st2" d="M878.48,594.01c-0.34-0.86-0.53-1.85-0.53-2.98v0c0-5.47,4.43-9.9,9.9-9.9l0,0c2.47,0,4.72,0.9,6.45,2.39"/>
		<path class="st2" d="M917.83,443.28C928.69,459.87,935,479.7,935,501c0,58.27-47.23,105.5-105.5,105.5
			c-24.83,0-47.66-8.58-65.68-22.94"/>
		<path class="st2" d="M733.62,545.07C727.44,531.66,724,516.73,724,501c0-58.27,47.23-105.5,105.5-105.5
			c6.69,0,13.23,0.62,19.57,1.81c7.42,1.39,14.56,3.56,21.34,6.41c12.73,5.36,24.19,13.15,33.8,22.78"/>
		<line class="st2" x1="850" y1="568.46" x2="815.46" y2="568.33"/>
		<line class="st2" x1="745" y1="572.5" x2="713" y2="570.01"/>
		<path class="st2" d="M733.62,545.07C727.44,531.66,724,516.73,724,501c0-58.27,47.23-105.5,105.5-105.5
			c6.69,0,13.23,0.62,19.57,1.81c7.42,1.39,14.56,3.56,21.34,6.41c12.73,5.36,24.19,13.15,33.8,22.78"/>
		<g>
			<g>
				<path class="st1" d="M893.29,494.43c-5.04,0-10.46,2.91-14.37,7.8c-0.37,17.76-1.13,34.05-1.89,48.52l32.18,0
					c-0.24-15.51-0.31-30.86-0.49-46.89c0-0.07,0-0.14,0-0.21C904.72,497.91,898.81,494.43,893.29,494.43z"/>
				<path class="st1" d="M909.21,550.8c0-0.02,0-0.03,0-0.05l-32.18,0.03c0,0.04,0,0.08-0.01,0.12c4.14,0.76,8.84,4.18,8.84,8.31
					c0,0.58-0.06,1.14-0.17,1.68c-0.98,4.85,2.42,9.55,7.37,9.63c0.07,0,0.15,0,0.22,0s0.15,0,0.22,0c4.95-0.08,8.35-4.78,7.37-9.63
					c-0.11-0.54-0.17-1.11-0.17-1.68C900.72,554.86,904.93,551.29,909.21,550.8z"/>
			</g>
		</g>
		<path class="st2" d="M872.07,550.74c4.46,0.25,8,3.94,8,8.46c0,0.58-0.06,1.14-0.17,1.68c-0.98,4.85,2.42,9.55,7.37,9.63
			c0.07,0,0.15,0,0.22,0c0.07,0,0.15,0,0.22,0c4.95-0.08,8.35-4.78,7.37-9.63c-0.11-0.54-0.17-1.11-0.17-1.68
			c0-4.52,3.54-8.21,8-8.46"/>
		<g>
			<path class="st2" d="M903.68,576.01c-0.57-16.41-0.98-31.53-0.98-40.85c0-6.25,0-25,0-25c0-1.92,0-3.86,0.01-5.82"/>
			<path class="st2" d="M872.28,504.34c0.01,1.96,0.01,3.9,0.01,5.82c0,18.38-1.59,59.26-2.83,88.17"/>
			<path class="st2" d="M887.5,493.43c5.89,0,11.24,3.97,15.22,10.43c0.25-53.44,3.52-118.59,3.52-118.59
				c0-7.6-1.47-15.3-4.99-21.09s-8.38-9.68-13.75-9.68s-10.23,3.89-13.75,9.68s-4.99,13.48-4.99,21.09c0,0,0.36,7.08,0.84,18.49
				c0.99,23.2,2.51,64.28,2.68,100.1C876.26,497.4,881.61,493.43,887.5,493.43z"/>
		</g>
	</g>
</g>
<g id="Layer_3">
	<g>
		<path class="st0" d="M256.39,384.12c-3.28-3.28-7.18-5.93-11.51-7.76s-9.1-2.85-14.1-2.85h0c-5,0-9.77,1.01-14.1,2.85
			s-8.24,4.48-11.51,7.76c-3.28,3.28-5.93,7.18-7.76,11.51s-2.85,9.1-2.85,14.1c0,0,1.98,23.45,1.98,30.27c0,16.75,0,64,0,64
			s0,47.25,0,64c0,6.82-1.98,30.27-1.98,30.27c0,1.5,0.1,2.98,0.28,4.44c32.99-9.71,59.26-35.1,70.17-67.56c0-16.17,0-31.16,0-31.16
			s0-47.25,0-64c0-6.82,1.98-30.27,1.98-30.27c0-5-1.01-9.77-2.85-14.1C262.32,391.3,259.67,387.39,256.39,384.12z"/>
		<g>
			<path class="st5" d="M209.38,603.49c0.07-0.03,0.14-0.05,0.2-0.08C209.51,603.44,209.45,603.46,209.38,603.49z"/>
			<path class="st5" d="M224.73,596.1c0.08-0.05,0.16-0.1,0.24-0.14C224.89,596,224.81,596.05,224.73,596.1z"/>
			<path class="st5" d="M227.1,594.67c0.09-0.06,0.19-0.12,0.28-0.18C227.29,594.55,227.2,594.61,227.1,594.67z"/>
			<path class="st5" d="M222.34,597.46c0.04-0.02,0.07-0.04,0.11-0.06C222.41,597.42,222.38,597.44,222.34,597.46z"/>
			<path class="st5" d="M229.46,593.16c0.08-0.05,0.16-0.11,0.25-0.16C229.63,593.05,229.55,593.1,229.46,593.16z"/>
			<path class="st5" d="M265.02,456.13c0-6.41,0-12.14,0-16.13c0-6.82,1.98-30.27,1.98-30.27c0-5-1.01-9.77-2.85-14.1
				c-1.83-4.33-4.48-8.24-7.76-11.51c-3.28-3.28-7.18-5.93-11.51-7.76s-9.1-2.85-14.1-2.85h0c-5,0-9.77,1.01-14.1,2.85
				s-8.24,4.48-11.51,7.76c-3.28,3.28-5.93,7.18-7.76,11.51c-0.89,2.1-1.58,4.3-2.06,6.58
				C225.65,409.21,250.95,429.27,265.02,456.13z"/>
			<path class="st5" d="M231.85,591.54c0.04-0.03,0.08-0.06,0.12-0.08C231.93,591.48,231.89,591.51,231.85,591.54z"/>
			<path class="st5" d="M244.88,580.79c0.02-0.02,0.04-0.04,0.05-0.05C244.92,580.75,244.9,580.77,244.88,580.79z"/>
			<path class="st5" d="M250.69,574.7c0-0.01,0.01-0.01,0.01-0.02C250.7,574.69,250.7,574.69,250.69,574.7z"/>
			<path class="st5" d="M206.63,604.5c0.12-0.04,0.24-0.08,0.36-0.13C206.86,604.42,206.75,604.46,206.63,604.5z"/>
			<path class="st5" d="M262.25,558.81c0.01-0.01,0.01-0.02,0.02-0.03C262.27,558.79,262.26,558.8,262.25,558.81z"/>
			<path class="st5" d="M246.84,578.84c0.04-0.04,0.07-0.07,0.11-0.11C246.91,578.77,246.87,578.81,246.84,578.84z"/>
			<path class="st5" d="M248.77,576.82c0.03-0.04,0.07-0.07,0.1-0.11C248.83,576.75,248.8,576.79,248.77,576.82z"/>
			<path class="st5" d="M263.65,556.39c0.01-0.02,0.02-0.04,0.03-0.06C263.68,556.35,263.66,556.37,263.65,556.39z"/>
			<path class="st5" d="M203.92,605.42c0.14-0.04,0.27-0.09,0.41-0.13C204.19,605.33,204.06,605.37,203.92,605.42z"/>
			<path class="st5" d="M201.22,606.25c0.13-0.04,0.26-0.08,0.39-0.12C201.48,606.17,201.35,606.21,201.22,606.25z"/>
			<path class="st5" d="M198.52,607c0.09-0.02,0.19-0.05,0.28-0.08C198.71,606.95,198.61,606.98,198.52,607z"/>
		</g>
		<path class="st0" d="M103.59,535.81h18.43c8.39,0,15.19,6.8,15.19,15.19v0h-33.62c-4.19,0-7.6-3.4-7.6-7.6v0
			C96,539.21,99.4,535.81,103.59,535.81z"/>
		<path class="st0" d="M133.56,541.12c2.28,2.66,3.66,6.11,3.66,9.88l0,0h44.37l2.32-6.39L133.56,541.12z"/>
		<g>
			<path class="st0" d="M99.21,549.6l0.16,0.16l0.03-0.03C99.33,549.69,99.27,549.64,99.21,549.6z"/>
			<path class="st0" d="M96,543.4L96,543.4c0-4.19,3.4-7.6,7.6-7.6h4.74l-29.01-22.23l0,0c-4.48,4.42-4.5,11.64-0.05,16.09
				l18.12,18.12C96.52,546.55,96,545.04,96,543.4z"/>
		</g>
		<path class="st5" d="M103.1,531.79c-1.43-9.63-4.9-34.19-4.41-41.3c0.44-6.41,4.98-22.05,7.49-30.31
			c0.89-2.93-0.79-6.02-3.74-6.88l-5.38-1.56l-9.47,33.71l-7.97,28.35L103.1,531.79z"/>
		<path class="st5" d="M158.73,501.25L148,485.35c-0.44-0.66-1.34-0.83-1.99-0.39l-24.2,16.33c-3.48,2.35-5.06,6.44-4.39,10.33
			l5.48,8.14c3.35,2.09,7.75,2.16,11.24-0.2l24.2-16.33C159,502.8,159.17,501.9,158.73,501.25z"/>
		<path class="st5" d="M185.19,518.53l-16.72-8.98c-0.75-0.4-1.67-0.12-2.08,0.62l-5.9,10.97c-2.04,3.8-1.62,8.27,0.71,11.57
			l8.65,4.66c4.05,0.12,8.01-1.98,10.06-5.79l5.9-10.97C186.22,519.86,185.94,518.93,185.19,518.53z"/>
		<g>
			<path class="st0" d="M165.89,544.36l7.74-13.41c1.38-2.39,0.56-5.44-1.83-6.82h0c-2.39-1.38-5.44-0.56-6.82,1.83l-10.18,17.64
				L165.89,544.36z"/>
		</g>
		<path class="st0" d="M142.17,500.77c-1.55-2.28-4.65-2.88-6.93-1.33l-33.52,22.7c0.53,3.82,1.02,7.21,1.38,9.65l1.02,0.78
			l36.72-24.87C143.12,506.16,143.72,503.06,142.17,500.77z"/>
		<path class="st2" d="M259.15,453.85c7.26,14.31,11.35,30.5,11.35,47.65c0,58.27-47.23,105.5-105.5,105.5S59.5,559.77,59.5,501.5
			S106.73,396,165,396"/>
		<g>
			<circle cx="212.38" cy="441.19" r="3.68"/>
			<circle cx="237.18" cy="441.19" r="3.68"/>
			<circle cx="237.18" cy="466" r="3.68"/>
			<circle cx="212.38" cy="453.1" r="3.68"/>
			<circle cx="237.18" cy="453.1" r="3.68"/>
			<circle cx="212.38" cy="466" r="3.68"/>
		</g>
		<g>
			<circle cx="212.28" cy="543.34" r="3.68"/>
			<circle cx="237.09" cy="543.34" r="3.68"/>
			<circle cx="237.09" cy="568.15" r="3.68"/>
			<circle cx="212.28" cy="555.25" r="3.68"/>
			<circle cx="237.09" cy="555.25" r="3.68"/>
			<circle cx="212.28" cy="568.15" r="3.68"/>
		</g>
		<path class="st2" d="M98.59,531.81h18.43c8.39,0,15.19,6.8,15.19,15.19v0H98.59c-4.19,0-7.6-3.4-7.6-7.6v0
			C91,535.21,94.4,531.81,98.59,531.81z"/>
		<path class="st2" d="M128.56,537.12c2.28,2.66,3.66,6.11,3.66,9.88l0,0h44.37l2.32-6.39L128.56,537.12z"/>
		<g>
			<path class="st2" d="M94.21,545.6l0.16,0.16l0.03-0.03C94.33,545.69,94.27,545.64,94.21,545.6z"/>
			<path class="st2" d="M91,539.4L91,539.4c0-4.19,3.4-7.6,7.6-7.6h4.74l-29.01-22.23l0,0c-4.48,4.42-4.5,11.64-0.05,16.09
				l18.12,18.12C91.52,542.55,91,541.04,91,539.4z"/>
		</g>
		<path class="st2" d="M98.1,527.79c-1.43-9.63-4.9-34.19-4.41-41.3c0.44-6.41,4.98-22.05,7.49-30.31c0.89-2.93-0.79-6.02-3.74-6.88
			l-5.38-1.56l-9.47,33.71l-7.97,28.35L98.1,527.79z"/>
		<path class="st2" d="M250.39,379.12c-3.28-3.28-7.18-5.93-11.51-7.76s-9.1-2.85-14.1-2.85h0c-5,0-9.77,1.01-14.1,2.85
			s-8.24,4.48-11.51,7.76c-3.28,3.28-5.93,7.18-7.76,11.51s-2.85,9.1-2.85,14.1c0,0,1.98,23.45,1.98,30.27c0,16.75,0,64,0,64
			s0,47.25,0,64c0,6.82-1.98,30.27-1.98,30.27c0,3.26,0.13,7.73,0.94,10.73c30.1-7.1,55.52-28.4,69.52-55.13
			c0-20.84,0-49.87,0-49.87s0-47.25,0-64c0-6.82,1.98-30.27,1.98-30.27c0-5-1.01-9.77-2.85-14.1
			C256.32,386.3,253.67,382.39,250.39,379.12z"/>
		<g>
			<path class="st2" d="M160.89,539.36l7.74-13.41c1.38-2.39,0.56-5.44-1.83-6.82h0c-2.39-1.38-5.44-0.56-6.82,1.83l-10.18,17.64
				L160.89,539.36z"/>
		</g>
		<path class="st2" d="M137.17,496.77c-1.55-2.28-4.65-2.88-6.93-1.33l-33.52,22.7c0.53,3.82,1.02,7.21,1.38,9.65l1.02,0.78
			l36.72-24.87C138.12,502.16,138.72,499.06,137.17,496.77z"/>
		<path class="st2" d="M153.73,497.25L143,481.35c-0.44-0.66-1.34-0.83-1.99-0.39l-24.2,16.33c-3.45,2.33-5.03,6.37-4.4,10.22
			l17.83-12.08c2.28-1.55,5.39-0.95,6.93,1.33s0.95,5.39-1.33,6.93l-17.86,12.1c3.34,2.05,7.7,2.1,11.17-0.23l24.2-16.33
			C154,498.8,154.17,497.9,153.73,497.25z"/>
		<path class="st2" d="M180.19,514.53l-16.72-8.98c-0.75-0.4-1.67-0.12-2.08,0.62l-5.9,10.97c-1.93,3.59-1.66,7.76,0.34,11
			l4.15-7.19c1.38-2.39,4.43-3.21,6.82-1.83h0c2.39,1.38,3.21,4.43,1.83,6.82l-4.16,7.21l0.4,0.21c4.05,0.12,8.01-1.98,10.06-5.79
			l5.9-10.97C181.22,515.86,180.94,514.93,180.19,514.53z"/>
		<path class="st2" d="M165,396c-58.27,0-105.5,47.23-105.5,105.5"/>
	</g>
</g>
<g id="Layer_4">
	<g>
		<path class="st0" d="M546.89,221.15c-15.91,0-67.64,2.65-80.9-13.26c-6.18-7.42-2.65-22.55,9.28-21.22
			c9.23,1.03,15.91,5.3,26.52-7.96c10.61-13.26,18.57-23.87,33.16-23.87c13.26,0,15.91,7.96,25.2,6.63
			c9.28-1.33,26.52-38.46,42.44-35.81c14.39,2.4,13.26,29.18,22.55,37.13s30.5,2.65,30.5,11.94c0,0,0,5.3,0,6.63
			c0,13.26-39.79,1.33-50.4,14.59C594.64,209.22,605.31,221.15,546.89,221.15z"/>
		<path class="st5" d="M548.22,210.54c0,0-49.07,2.65-49.07-9.28c0-12.01,23.87-35.81,35.81-35.81c11.94,0,11.94,6.63,22.55,6.63
			c19.89,0,31.83-34.48,42.44-34.48c6.63,0,9.28,14.59,9.28,26.52s-4.46,17.7-19.89,23.87C576.07,193.3,582.7,207.89,548.22,210.54z
			"/>
		<path class="st2" d="M543.89,214.15c-15.91,0-67.64,2.65-80.9-13.26c-6.18-7.42-2.65-22.55,9.28-21.22
			c9.23,1.03,15.91,5.3,26.52-7.96s18.57-23.87,33.16-23.87c13.26,0,15.91,7.96,25.2,6.63c9.28-1.33,26.52-38.46,42.44-35.81
			c14.39,2.4,13.26,29.18,22.55,37.13s30.5,2.65,30.5,11.94c0,0,0,5.3,0,6.63c0,13.26-39.79,1.33-50.4,14.59
			C591.64,202.22,602.31,214.15,543.89,214.15z"/>
		<path class="st2" d="M546.22,203.54c0,0-49.07,2.65-49.07-9.28c0-12.01,23.87-35.81,35.81-35.81c11.94,0,11.94,6.63,22.55,6.63
			c19.89,0,31.83-34.48,42.44-34.48c6.63,0,9.28,14.59,9.28,26.52s-4.46,17.7-19.89,23.87C574.07,186.3,580.7,200.89,546.22,203.54z
			"/>
		<path class="st2" d="M543.89,214.15c-15.91,0-67.64,2.65-80.9-13.26c-6.18-7.42-2.65-22.55,9.28-21.22
			c9.23,1.03,15.91,5.3,26.52-7.96s18.57-23.87,33.16-23.87c13.26,0,15.91,7.96,25.2,6.63c9.28-1.33,26.52-38.46,42.44-35.81
			c14.39,2.4,13.26,29.18,22.55,37.13s30.5,2.65,30.5,11.94c0,0,0,5.3,0,6.63c0,13.26-39.79,1.33-50.4,14.59
			C591.64,202.22,602.31,214.15,543.89,214.15z"/>
		<path class="st2" d="M545.22,203.54c0,0-49.07,2.65-49.07-9.28c0-12.01,23.87-35.81,35.81-35.81c11.94,0,11.94,6.63,22.55,6.63
			c19.89,0,31.83-34.48,42.44-34.48c6.63,0,9.28,14.59,9.28,26.52s-4.46,17.7-19.89,23.87C573.07,186.3,579.7,200.89,545.22,203.54z
			"/>
		<path class="st2" d="M543.89,214.15c-15.91,0-67.64,2.65-80.9-13.26c-6.18-7.42-2.65-22.55,9.28-21.22
			c9.23,1.03,15.91,5.3,26.52-7.96s18.57-23.87,33.16-23.87c13.26,0,15.91,7.96,25.2,6.63c9.28-1.33,26.52-38.46,42.44-35.81
			c14.39,2.4,13.26,29.18,22.55,37.13s30.5,2.65,30.5,11.94c0,0,0,5.3,0,6.63c0,13.26-39.79,1.33-50.4,14.59
			C591.64,202.22,602.31,214.15,543.89,214.15z"/>
		<path class="st2" d="M543.89,214.15c-6.72,0-19.84,0.47-33.75-0.18c-6.65,16.02-10.68,33.66-10.68,44.61
			c0,24.17,19.59,43.76,43.76,43.76c24.17,0,43.76-19.59,43.76-43.76c0-11.36-4.33-29.92-11.43-46.4
			C568.23,213.44,558.11,214.15,543.89,214.15z"/>
		<path class="st2" d="M598.78,194.46C587.05,239.64,545.99,273,497.14,273c-32.12,0-59-10-81-38"/>
		<path class="st2" d="M392.36,161.25c0.92-14.5,4.78-28.19,10.99-40.5C420.64,86.49,456.15,63,497.14,63
			c40.97,0,76.45,23.46,93.76,57.68"/>
		<path class="st2" d="M416.14,235c-10-15-12-25.44-12-41c0-35.35,26-63,62-63c17.67,0,33.67,7.16,45.25,18.75
			c1.3,1.3,2.54,2.66,3.73,4.06"/>
		<circle class="st6" cx="520.64" cy="183.5" r="10.5"/>
	</g>
</g>
<g id="Layer_5">
	<g>
		<path class="st0" d="M916.19,898.71c6.46-118.12-41.82-133.84-45.4-133.84c-3.93,0-61.63,18.93-41.88,171.18
			c2.18,0.13,4.38,0.2,6.59,0.2C867.87,936.25,896.84,921.66,916.19,898.71z"/>
		<path class="st2" d="M732.06,851.58c-1.35-6.73-2.06-13.7-2.06-20.83c0-58.27,47.23-105.5,105.5-105.5S941,772.48,941,830.75
			s-47.23,105.5-105.5,105.5c-35.06,0-66.13-17.1-85.31-43.42"/>
		<path class="st5" d="M741.94,900.75c-4.84-2.35-6.55-8.38-3.68-12.93c7.95-12.62,22.17-30.08,33.62-24.51v0
			c11.45,5.57,6.49,27.54,1.46,41.58c-1.81,5.06-7.61,7.44-12.45,5.08L741.94,900.75z"/>
		<path class="st5" d="M870.79,851.77c-21.07,0-38.15,17.08-38.15,38.15c0,7.42,2.33,25.7,6.27,46.26
			c26.54-0.84,50.61-11.48,68.7-28.43c0.87-7.89,1.34-14.18,1.34-17.83C908.94,868.85,891.86,851.77,870.79,851.77z"/>
		<path class="st2" d="M909.36,905.87c10.56-129.22-40.87-146-44.57-146c-3.96,0-62.79,19.28-41.28,175.72
			c3.87,0.43,7.8,0.66,11.78,0.66C864.16,936.25,890.31,924.65,909.36,905.87z"/>
		<path class="st7" d="M844.68,804.39h40.72c0.7,0,0.95,0.92,0.35,1.27l-47.95,28.65c-0.6,0.36-0.34,1.27,0.35,1.27h53.2
			c0.69,0,0.95-0.91,0.35-1.27l-47.38-28.65C843.73,805.31,843.98,804.39,844.68,804.39z"/>
		<circle cx="793.16" cy="807.32" r="3.9"/>
		<path class="st2" d="M737.94,896.75c-4.84-2.35-6.55-8.38-3.68-12.93c7.95-12.62,22.17-30.08,33.62-24.51v0
			c11.45,5.57,6.49,27.54,1.46,41.58c-1.81,5.06-7.61,7.44-12.45,5.08L737.94,896.75z"/>
		<path d="M819.54,759.48c1.29,0.63,1.85,2.05,1.18,3.05c-1.83,2.77-5.2,6.55-8.27,5.06l0,0c-3.06-1.49-2.17-6.47-1.12-9.63
			c0.38-1.14,1.84-1.58,3.13-0.95L819.54,759.48z"/>
		<line class="st2" x1="755.08" y1="885.59" x2="814.48" y2="763.52"/>
		<path class="st2" d="M865.79,846.77c-21.07,0-38.15,17.08-38.15,38.15c0,8.02,2.72,28.73,7.25,51.3c0.41,0.01,0.81,0.01,1.22,0.02
			c24.66-0.14,47.32-8.74,65.22-23.05c1.69-12.74,2.62-23.12,2.62-28.27C903.94,863.85,886.86,846.77,865.79,846.77z"/>
		<line class="st2" x1="865" y1="885.25" x2="865" y2="902.25"/>
		<circle cx="843.38" cy="804.94" r="3.68"/>
		<circle cx="887.38" cy="804.94" r="3.68"/>
		<circle cx="892.38" cy="834.94" r="3.68"/>
		<circle cx="837.38" cy="834.94" r="3.68"/>
	</g>
</g>
<g id="Layer_6">
	<g>
		<path class="st0" d="M878.66,190.76c-11.17,4.64-25.36,9.33-50.87,45.19c-21.43,30.13-29.31-17.05-5.57-57.97
			c12.71-21.92,24.5-29.38,55.33-31.21c35.27-2.1,39.29-39.03,39.29-39.03s31.86,34.18,21.53,57.81
			C928.05,189.16,904.22,180.14,878.66,190.76z"/>
		<path class="st1" d="M830.45,201.84c-8.5,10.91-17.1,20.6-22.67,22.26c-1,19.96,7,30.13,20,11.85
			c25.51-35.86,39.7-40.55,50.87-45.19c4.69-1.95,9.32-3.23,13.82-4.18C870.87,147.05,838.76,191.18,830.45,201.84z"/>
		<path class="st1" d="M867.88,195.62c3.99-2.14,7.51-3.51,10.78-4.87c8.32-3.46,16.45-4.83,24-5.93l34.61-45.02
			c-2.82-7.46-7.08-14.54-10.99-20.14L867.88,195.62z"/>
		<path class="st2" d="M873.66,185.76c-11.17,4.64-25.36,9.33-50.87,45.19c-21.43,30.13-29.31-17.05-5.57-57.97
			c12.71-21.92,24.5-29.38,55.33-31.21c35.27-2.1,39.29-39.03,39.29-39.03s31.86,34.18,21.53,57.81
			C923.05,184.16,899.22,175.14,873.66,185.76z"/>
		<path class="st2" d="M900.13,85.63c4.13,2.72,13.33,19.53,13.33,19.53s-19.07-1.86-23.19-4.59c-4.13-2.72-5.26-8.28-2.54-12.4
			C890.45,84.04,896.01,82.91,900.13,85.63z"/>
		<path class="st2" d="M862.88,190.62c3.99-2.14,7.51-3.51,10.78-4.87c8.32-3.46,16.45-4.83,24-5.93l34.61-45.02
			c-2.82-7.46-7.08-14.54-10.99-20.14L862.88,190.62z"/>
		<path class="st2" d="M870.45,70.07C858.68,65.5,845.88,63,832.5,63c-57.99,0-105,47.01-105,105s47.01,105,105,105
			s105-47.01,105-105c0-10.63-1.58-20.89-4.52-30.56"/>
		<g>
			<path class="st2" d="M882.68,182.72c0.22-0.06,0.44-0.12,0.66-0.17C883.12,182.61,882.9,182.66,882.68,182.72z"/>
			<path class="st2" d="M880.15,183.45c-0.19,0.06-0.39,0.12-0.58,0.18C879.76,183.56,879.96,183.5,880.15,183.45z"/>
			<path class="st2" d="M885.8,181.95c0.21-0.05,0.42-0.09,0.63-0.14C886.21,181.86,886.01,181.9,885.8,181.95z"/>
			<path class="st2" d="M862.88,190.62l15.73-20.46c-20.67-17.22-45.93,17.39-53.15,26.67c-8.5,10.91-17.1,20.6-22.67,22.26
				c-1,19.96,7,30.12,20,11.85C840.85,205.57,853.23,195.81,862.88,190.62C862.88,190.62,862.88,190.62,862.88,190.62z"/>
			<path class="st2" d="M876.52,184.66c0.13-0.05,0.27-0.1,0.4-0.15C876.79,184.56,876.65,184.61,876.52,184.66z"/>
			<path class="st2" d="M873.66,185.76c-0.37,0.16-0.75,0.31-1.14,0.47C872.91,186.07,873.29,185.92,873.66,185.76z"/>
		</g>
	</g>
</g>
<g id="Layer_7">
	<g>
		<path class="st0" d="M431.79,763.06c-90.35,3.19-99.99,111.61-66.97,111.61c17.08,0,53.35,0,66.97,0s49.89,0,66.97,0
			C531.78,874.68,522.15,766.25,431.79,763.06z"/>
		<path class="st0" d="M422.23,773.69c0,0-31.89,89.29-31.89,113.74L351.7,860.7C351.7,860.7,351.01,773.69,422.23,773.69z"/>
		<circle class="st0" cx="390.87" cy="887.96" r="4.78"/>
		<circle class="st0" cx="492.03" cy="827.52" r="4.78"/>
		<path class="st0" d="M489.86,826.14c-7.99-25.13-25.41-52.25-63.38-52.43C440.54,814.21,475.17,823.85,489.86,826.14z"/>
		<path class="st0" d="M428.39,778.67c-1.32-0.13-2.66-0.22-4.04-0.27c-1.32,0.05-2.61,0.14-3.87,0.26
			c-4.16,11.9-14.84,43.08-22.31,69.97c9.49-0.01,20.09,0.09,26.18,0.09c8.58,0,26.12-0.21,36.88,0
			c9.65,0.19,14.71-12.17,12.95-26.59C458.73,816.61,439.16,804.63,428.39,778.67z"/>
		<path class="st0" d="M605.57,832.75c0-17.77-4.42-34.51-12.22-49.18c-2.36-0.44-4.81-0.67-7.35-0.66v-0.01c-0.08,0-0.16,0-0.24,0
			c-0.08,0-0.16,0-0.24,0v0.01c-54.45,1.3-63.73,80.25-55.1,150.53C573.88,920.57,605.57,880.36,605.57,832.75z"/>
		<path class="st1" d="M600.1,799.19c-4.39-2.59-9.32-4.15-14.52-4.15c-18.54,0-33.58,19.81-33.58,35.37s15.53,18.83,34.07,18.83
			c6.89,0,13.23-0.46,18.47-1.82c0.67-4.8,1.03-9.7,1.03-14.68C605.57,821.01,603.65,809.73,600.1,799.19z"/>
		<path class="st2" d="M605.27,840.78c-6.02,3.48-15.01,4.46-25.2,4.46c-18.54,0-34.07-3.27-34.07-18.83
			c0-15.56,15.03-35.37,33.58-35.37c7.82,0,15.02,3.53,20.73,8.77"/>
		<line class="st2" x1="555" y1="841.15" x2="586.22" y2="893.5"/>
		<path class="st2" d="M560.07,855.25c0,3.31-2.69,6-6,6s-6-2.69-6-6c0-3.31,2.69-13,6-13S560.07,851.94,560.07,855.25z"/>
		<path class="st8" d="M424.35,757.75c-90.35,3.19-99.99,111.61-66.97,111.61c17.08,0,53.35,0,66.97,0c13.61,0,49.89,0,66.97,0
			C524.34,869.36,514.71,760.94,424.35,757.75z"/>
		<path class="st5" d="M497.3,831.45c-7.99-25.13-25.41-52.25-63.38-52.43C447.98,819.53,482.61,829.17,497.3,831.45z"/>
		<path class="st1" d="M435.83,783.99c-1.32-0.13-2.66-0.22-4.04-0.27c-1.32,0.05-2.61,0.14-3.87,0.26
			c-4.16,11.9-14.84,43.08-22.31,69.97c9.49-0.01,20.09,0.09,26.18,0.09c8.58,0,26.12-0.21,36.88,0
			c9.65,0.19,14.71-12.17,12.95-26.59C466.17,821.93,446.6,809.95,435.83,783.99z"/>
		<circle cx="492.03" cy="827.52" r="4.78"/>
		<path class="st8" d="M489.86,826.14c-7.99-25.13-25.41-52.25-63.38-52.43C440.54,814.21,475.17,823.85,489.86,826.14z"/>
		<path class="st2" d="M580.01,778.9L580.01,778.9c-0.08-0.01-0.16,0-0.24,0c-0.08,0-0.16,0-0.24,0v0.01
			c-55.85,1.33-64.18,84.38-54.4,155.95c46.14-11.06,80.44-52.57,80.44-102.1c0-18.96-5.03-36.74-13.82-52.09
			C588.08,779.5,584.16,778.9,580.01,778.9z"/>
		<path class="st2" d="M545.07,879.25c-6.47,0-12.57-0.4-17.77-1.58"/>
		<path class="st2" d="M545.07,894.25c-6.47,0-12.57-0.4-17.77-1.58"/>
		<path class="st2" d="M541.42,909.17c-4.73-0.16-9.18-0.61-13.12-1.5"/>
		<path class="st2" d="M556.32,878.71c-1.25,0.14-2.54,0.25-3.86,0.33"/>
		<path class="st2" d="M413.45,891.37c0.75,1.11,1.52,2.21,2.31,3.29c19.1,26.12,49.97,43.08,84.81,43.08c57.99,0,105-47.01,105-105
			c0-57.99-47.01-105-105-105c-28.61,0-54.55,11.44-73.49,30"/>
		<path class="st5" d="M429.67,779.01c0,0-31.89,89.29-31.89,113.74l-38.64-26.73C359.14,866.02,358.45,779.01,429.67,779.01z"/>
		<path class="st8" d="M422.23,773.69c0,0-31.89,89.29-31.89,113.74L351.7,860.7C351.7,860.7,351.01,773.69,422.23,773.69z"/>
		<circle cx="390.87" cy="887.96" r="4.78"/>
		<path class="st8" d="M428.39,778.67c-1.32-0.13-2.66-0.22-4.04-0.27c-1.32,0.05-2.61,0.14-3.87,0.26
			c-4.16,11.9-14.84,43.08-22.31,69.97c9.49-0.01,20.09,0.09,26.18,0.09c8.58,0,26.12-0.21,36.88,0
			c9.65,0.19,14.71-12.17,12.95-26.59C458.73,816.61,439.16,804.63,428.39,778.67z"/>
	</g>
</g>
<g id="Layer_8">
	<g>
		<path class="st0" d="M173.33,840.33c0,0-52.58-3.99-52.58,52.58c0,15.41,0,26.37,0,34.18c14.09,6.98,29.96,10.91,46.75,10.91
			c21.61,0,41.69-6.5,58.42-17.64c0-7.06,0-16.04,0-27.45C225.92,836.33,173.33,840.33,173.33,840.33z"/>
		<path class="st0" d="M224.12,913.9c-15.5,8-32.85,14.04-51.17,14.04c-18.04,0-35.13-5.91-50.45-13.69
			c-3.85-1.96-8.42,0.82-8.42,5.14v4.15c5.63,3.79,11.65,7.05,17.98,9.71c10.79,3.72,22.37,5.75,34.43,5.75
			c24.7,0,47.41-8.49,65.39-22.71C230.47,913.65,227.08,912.37,224.12,913.9z"/>
		<path class="st0" d="M142.96,808.3c0,4.6-15.53,8.05-20.13,8.05c-4.6,0-8.32-3.73-8.32-8.32c0-4.6,3.73-8.32,8.32-8.32
			C127.43,799.71,142.96,803.7,142.96,808.3z"/>
		<path class="st0" d="M179.37,836.33c0.06-0.33,0.1-0.66,0.1-1v-4.6c0-2.86-2.32-5.17-5.17-5.17h-4.6c-2.86,0-5.17,2.32-5.17,5.17
			v4.6c0,0.34,0.04,0.68,0.1,1H179.37z"/>
		<path class="st5" d="M169.23,799.04h5.53c3.43,0,6.22,2.78,6.22,6.22v5.53c0,3.43-2.78,6.22-6.22,6.22h-5.53
			c-3.43,0-6.22-2.78-6.22-6.22v-5.53C163.01,801.83,165.8,799.04,169.23,799.04z"/>
		<line class="st2" x1="167.33" y1="822.56" x2="167.33" y2="814.01"/>
		<path class="st2" d="M89.71,904.81C72.2,885.97,61.5,860.74,61.5,833c0-58.27,47.23-105.5,105.5-105.5S272.5,774.73,272.5,833
			S225.27,938.5,167,938.5c-21.82,0-42.09-6.62-58.91-17.96"/>
		<path class="st0" d="M183.9,791.06h-23.13c-3.1,0-5.09-3.3-3.65-6.04l0.92-1.74c0.71-1.35,2.12-2.2,3.65-2.2h21.3
			c1.53,0,2.93,0.85,3.65,2.2l0.92,1.74C188.99,787.76,187,791.06,183.9,791.06z"/>
		<path class="st2" d="M175.61,866.36c-1.29,0-2.57-0.03-3.85-0.09"/>
		<path class="st2" d="M206.17,859.22c-6.22,5.4-13.54,6.73-22.05,6.77"/>
		<line class="st2" x1="167.33" y1="788.72" x2="167.33" y2="795.56"/>
		<path class="st2" d="M137.96,805.3c0,4.6-15.53,8.05-20.13,8.05c-4.6,0-8.32-3.73-8.32-8.32c0-4.6,3.73-8.32,8.32-8.32
			C122.43,796.71,137.96,800.7,137.96,805.3z"/>
		<line class="st2" x1="158.01" y1="805.03" x2="137.71" y2="805.03"/>
		<path class="st5" d="M186.98,848.98h-29.3c-3.93,0-6.45-4.18-4.62-7.65l1.16-2.21c0.9-1.72,2.68-2.79,4.62-2.79h26.98
			c1.94,0,3.72,1.07,4.62,2.79l1.16,2.21C193.43,844.8,190.91,848.98,186.98,848.98z"/>
		<polygon class="st5" points="199.28,784.73 170,784.73 205.94,767.42 		"/>
		<polygon class="st5" points="135.38,784.73 164.67,784.73 128.73,767.42 		"/>
		<path class="st2" d="M178.9,788.06h-23.13c-3.1,0-5.09-3.3-3.65-6.04l0.92-1.74c0.71-1.35,2.12-2.2,3.65-2.2h21.3
			c1.53,0,2.93,0.85,3.65,2.2l0.92,1.74C183.99,784.76,182,788.06,178.9,788.06z"/>
		<path class="st2" d="M164.23,796.04h5.53c3.43,0,6.22,2.78,6.22,6.22v5.53c0,3.43-2.78,6.22-6.22,6.22h-5.53
			c-3.43,0-6.22-2.78-6.22-6.22v-5.53C158.01,798.83,160.8,796.04,164.23,796.04z"/>
		<path class="st1" d="M189.07,771.5c0.92-1.34,1.43-2.79,1.43-4.3c0-6.9-10.52-12.5-23.5-12.5s-23.5,5.6-23.5,12.5
			c0,1.51,0.5,2.96,1.43,4.3H189.07z"/>
		<path class="st2" d="M108.09,916.38v4.15c16.82,11.34,37.09,17.97,58.91,17.97c22.11,0,42.62-6.8,59.57-18.42v-4.05
			c0-4.34-4.59-7.11-8.45-5.12c-15.5,8-32.85,14.04-51.17,14.04c-18.04,0-35.13-5.91-50.45-13.69
			C112.66,909.28,108.09,912.06,108.09,916.38z"/>
		<path class="st2" d="M181.98,845.98h-29.3c-3.93,0-6.45-4.18-4.62-7.65l1.16-2.21c0.9-1.72,2.68-2.79,4.62-2.79h26.98
			c1.94,0,3.72,1.07,4.62,2.79l1.16,2.21C188.43,841.8,185.91,845.98,181.98,845.98z"/>
		<path class="st2" d="M174.37,833.33c0.06-0.33,0.1-0.66,0.1-1v-4.6c0-2.86-2.32-5.17-5.17-5.17h-4.6c-2.86,0-5.17,2.32-5.17,5.17
			v4.6c0,0.34,0.04,0.68,0.1,1H174.37z"/>
		<path class="st2" d="M187.13,839.93c0.5,3.04-1.81,6.05-5.15,6.05h-29.3c-3.34,0-5.65-3.01-5.15-6.05
			c-14.91,4.6-32.79,16.99-32.79,49.98c0,15.78,0,26.91,0,34.76c15.4,8.8,33.24,13.83,52.25,13.83c19.29,0,37.36-5.18,52.92-14.22
			c0-7.82,0-18.85,0-34.37C219.92,856.92,202.04,844.53,187.13,839.93z"/>
		<path class="st1" d="M189.07,771.5c0.92-1.34,1.43-2.79,1.43-4.3c0-6.9-10.52-12.5-23.5-12.5s-23.5,5.6-23.5,12.5
			c0,1.51,0.5,2.96,1.43,4.3H189.07z"/>
	</g>
</g>
<g id="Layer_10">
	<g>
		<circle class="st0" cx="501" cy="1168.5" r="105.5"/>
		<path class="st2" d="M423.36,1096c19.23-20.32,46.45-33,76.64-33c18.21,0,35.34,4.61,50.29,12.73"/>
		<path class="st2" d="M590.11,1113.6c9.76,15.99,15.39,34.79,15.39,54.9c0,58.27-47.23,105.5-105.5,105.5s-105.5-47.23-105.5-105.5
			c0-7.37,0.76-14.56,2.19-21.5"/>
		
			<rect x="517" y="1032.5" transform="matrix(0.7071 0.7071 -0.7071 0.7071 952.3542 -56.1863)" class="st1" width="54" height="178"/>
		<path class="st9" d="M483.87,1130h-41.39c-4.69,0-8.5-3.81-8.5-8.5s3.81-8.5,8.5-8.5h19.22c4.69,0,8.5-3.81,8.5-8.5
			s-3.81-8.5-8.5-8.5h-37.33c-13.2,13.94-22.63,31.48-26.67,51h86.17c4.69,0,8.5-3.81,8.5-8.5S488.56,1130,483.87,1130z"/>
		<path class="st2" d="M396.7,1147h86.17c4.69,0,8.5-3.81,8.5-8.5s-3.81-8.5-8.5-8.5h-41.39c-4.69,0-8.5-3.81-8.5-8.5
			s3.81-8.5,8.5-8.5h19.22c4.69,0,8.5-3.81,8.5-8.5s-3.81-8.5-8.5-8.5h-37.33"/>
		<line class="st2" x1="426.5" y1="1103" x2="444.5" y2="1103"/>
		<line class="st2" x1="450.5" y1="1103" x2="454.5" y2="1103"/>
		<path class="st10" d="M454.53,1142.83l-48.44,71.78C423.2,1249.77,459.27,1274,501,1274c17.08,0,33.2-4.06,47.47-11.26
			l-80.05-119.87C465.12,1137.92,457.85,1137.9,454.53,1142.83z"/>
		<path class="st2" d="M453.53,1142.83l-48.44,71.78C422.2,1249.77,458.27,1274,500,1274c17.08,0,33.2-4.06,47.47-11.26
			l-80.05-119.87C464.12,1137.92,456.85,1137.9,453.53,1142.83z"/>
		<path class="st10" d="M537.44,1117.49l-90.85,141.41c15.89,9.58,34.51,15.1,54.42,15.1c48.26,0,88.96-32.41,101.51-76.65
			l-50.98-79.84C548.25,1112.37,540.74,1112.36,537.44,1117.49z"/>
		<path class="st11" d="M492.54,1178.98C492.54,1178.98,492.54,1178.98,492.54,1178.98l-27.76-41.57c-1.56-2.34-5-2.35-6.58-0.02
			l-20.04,29.7C450.39,1168.82,475.25,1188,492.54,1178.98z"/>
		<path class="st2" d="M536.44,1117.49l-90.85,141.41c15.89,9.58,34.51,15.1,54.42,15.1c48.26,0,88.96-32.41,101.51-76.65
			l-50.98-79.84C547.25,1112.37,539.74,1112.36,536.44,1117.49z"/>
		<path class="st11" d="M509.5,1164c17,6,28-13,37-13c6.61,0,19.09,9.8,30.9,7.02l-29.57-46.31c-1.55-2.44-5.11-2.44-6.67-0.01
			l-33.18,51.65C508.46,1163.59,508.97,1163.81,509.5,1164z"/>
		<path class="st2" d="M508.5,1164c17,6,28-13,37-13c6.61,0,19.09,9.8,30.9,7.02l-29.57-46.31c-1.55-2.44-5.11-2.44-6.67-0.01
			l-33.18,51.65C507.46,1163.59,507.97,1163.81,508.5,1164z"/>
		<path class="st12" d="M501,1229c-25.34,0-48.06,9.19-63.55,23.72c17.58,13.29,39.45,21.19,63.17,21.28c0.65,0,1.3-0.01,1.95-0.02
			c0.07,0,0.15,0,0.22,0c23.03-0.6,44.21-8.58,61.29-21.66C548.61,1238.02,526.09,1229,501,1229z"/>
		<path class="st2" d="M491.54,1178.98C491.54,1178.98,491.54,1178.98,491.54,1178.98l-27.76-41.57c-1.56-2.34-5-2.35-6.58-0.02
			l-20.04,29.7C449.39,1168.82,474.25,1188,491.54,1178.98z"/>
		<circle class="st11" cx="602.5" cy="1063" r="27"/>
		<circle class="st5" cx="606.5" cy="1059" r="27"/>
	</g>
</g>
<g id="Layer_9">
	<g>
		<path class="st0" d="M482.23,524.5h-27.13h-27.13c-10.97,0-19.87,8.89-19.87,19.87v-0.82c0,15.44,9.4,27.96,22.58,27.96
			c17.7,0,17.7-21.49,24.42-21.49c8.06,0,6.71,21.49,24.42,21.49c13.18,0,22.58-12.52,22.58-27.96v0.82
			C502.09,533.39,493.2,524.5,482.23,524.5z"/>
		<path class="st1" d="M481.4,529.87h-26.3h-26.3c-8.46,0-15.33,6.86-15.33,15.33v-0.63c0,11.91,7.25,21.57,17.42,21.57
			c13.66,0,12.12-21.49,24.21-21.95c12.09,0.46,10.55,21.95,24.21,21.95c10.17,0,17.42-9.66,17.42-21.57v0.63
			C496.72,536.73,489.86,529.87,481.4,529.87z"/>
		<path class="st0" d="M508.05,535.47h-8.08c1.3,2.58,2.05,5.48,2.11,8.55c0-0.16,0.02-0.31,0.02-0.47v0.82
			c0-0.12-0.02-0.23-0.02-0.35c-0.06,5.06-1.14,9.77-3.03,13.83h9c2.64,0,4.79-2.14,4.79-4.79v-12.8
			C512.84,537.61,510.69,535.47,508.05,535.47z"/>
		<path class="st0" d="M402.14,535.47c-0.19,0-0.37,0.03-0.56,0.06c2.27,7.52,5.35,14.68,9.15,21.39c-1.63-3.85-2.57-8.22-2.62-12.9
			c0,0.12-0.02,0.23-0.02,0.35v-0.82c0,0.16,0.02,0.31,0.02,0.47c0.05-3.07,0.81-5.97,2.11-8.55H402.14z"/>
		<path class="st13" d="M479.23,520.5h-27.13h-27.13c-10.97,0-19.87,8.89-19.87,19.87v-0.82c0,15.44,9.4,27.96,22.58,27.96
			c17.7,0,17.7-21.49,24.42-21.49c8.06,0,6.71,21.49,24.42,21.49c13.18,0,22.58-12.52,22.58-27.96v0.82
			C499.09,529.39,490.2,520.5,479.23,520.5z"/>
		<path class="st7" d="M478.4,525.87h-26.3h-26.3c-8.46,0-15.33,6.86-15.33,15.33v-0.63c0,11.91,7.25,21.57,17.42,21.57
			c13.66,0,12.12-21.49,24.21-21.95c12.09,0.46,10.55,21.95,24.21,21.95c10.17,0,17.42-9.66,17.42-21.57v0.63
			C493.72,532.73,486.86,525.87,478.4,525.87z"/>
		<path class="st13" d="M505.05,531.47h-8.08c1.3,2.58,2.05,5.48,2.11,8.55c0-0.16,0.02-0.31,0.02-0.47v0.82
			c0-0.12-0.02-0.23-0.02-0.35c-0.06,5.06-1.14,9.77-3.03,13.83h9c2.64,0,4.79-2.14,4.79-4.79v-12.8
			C509.84,533.61,507.69,531.47,505.05,531.47z"/>
		<path class="st13" d="M399.14,531.47c-0.19,0-0.37,0.03-0.56,0.06c2.27,7.52,5.35,14.68,9.15,21.39
			c-1.63-3.85-2.57-8.22-2.62-12.9c0,0.12-0.02,0.23-0.02,0.35v-0.82c0,0.16,0.02,0.31,0.02,0.47c0.05-3.07,0.81-5.97,2.11-8.55
			H399.14z"/>
		<path class="st0" d="M640.86,489.45c0-40.02-32.44-72.46-72.46-72.46c-36.37,0-71.7,26.8-77.83,61.73l30.91,8.87
			c0,0,14.08,15.93,48.79,14.64c8.57-0.32,23.82,2.58,23.82,24.68c0,13.18,20.03,9.81,33.08,4.95
			C635.78,519.93,640.86,505.28,640.86,489.45z"/>
		<path class="st0" d="M616.59,451.3c-11.28-17.64-31.04-29.34-53.53-29.34c-16.96,0-33.67,6.65-46.39,17.49"/>
		<path class="st0" d="M593.96,523.61c-0.35-4.59-1.42-8.22-2.98-11.09l-36.77,24.46l-5.91-36.43c-4.46-0.92-8.32-2.14-11.6-3.45
			l7.56,46.76l-6.91,14.54c-1.47,3.25-0.02,7.07,3.23,8.54l0,0c3.25,1.47,7.07,0.02,8.54-3.23l7.18-15.15L593.96,523.61z"/>
		<path class="st0" d="M577.86,499.65c6.03,3,11.22,9.35,11.22,22.25c0,13.18,20.03,9.81,33.08,4.95
			c8.62-11.92,13.7-26.57,13.7-42.4c0-3-0.19-5.96-0.54-8.87c-4.82-1.69-9.99-2.61-15.39-2.61
			C601.34,472.97,585.3,483.88,577.86,499.65z"/>
		<path class="st5" d="M521.48,487.58l-30.91-8.87c0,0,0,0,0,0c-7.76-1.35-15.43,3.39-17.57,11.14v0l56.92,3.99
			C524.11,490.56,521.48,487.58,521.48,487.58z"/>
		<circle class="st0" cx="538.22" cy="555.86" r="3.64"/>
		<g>
			<path class="st0" d="M540.58,498.49c0.06,0.02,0.11,0.04,0.17,0.05C540.69,498.53,540.63,498.51,540.58,498.49z"/>
			<path class="st0" d="M539.18,498.02c0.04,0.01,0.08,0.03,0.12,0.04C539.26,498.05,539.22,498.03,539.18,498.02z"/>
			<path class="st0" d="M537.84,497.53c0.09,0.03,0.17,0.06,0.26,0.1C538.01,497.59,537.93,497.56,537.84,497.53z"/>
			<path class="st0" d="M544.99,499.77c0.05,0.01,0.1,0.03,0.15,0.04C545.09,499.8,545.04,499.79,544.99,499.77z"/>
			<path class="st0" d="M548.3,500.54l5.91,36.43l36.77-24.46c0.27,0.51,0.53,1.04,0.78,1.6c-4.6-10.51-14.98-12.14-21.5-11.89
				c-8.56,0.32-15.87-0.41-22.01-1.69C548.27,500.53,548.28,500.54,548.3,500.54z"/>
			<path class="st0" d="M541.96,498.93c0.05,0.02,0.11,0.03,0.16,0.05C542.06,498.96,542.01,498.94,541.96,498.93z"/>
			<path class="st0" d="M542.43,547.7l1.83-3.86l-7.56-46.76c-1.45-0.58-2.78-1.18-4.01-1.78l-2.63,24.82
				C528.91,531.05,533.79,541.51,542.43,547.7z"/>
			<path class="st0" d="M592.91,517.37c-0.05-0.19-0.1-0.37-0.16-0.55C592.8,517,592.86,517.18,592.91,517.37z"/>
			<path class="st0" d="M592.7,516.66c-0.05-0.17-0.11-0.34-0.16-0.51C592.59,516.32,592.65,516.49,592.7,516.66z"/>
			<path class="st0" d="M593.1,518.1c-0.05-0.2-0.1-0.4-0.16-0.6C593,517.69,593.05,517.89,593.1,518.1z"/>
			<path class="st0" d="M592.24,515.31c-0.06-0.16-0.12-0.31-0.18-0.47C592.13,515,592.19,515.16,592.24,515.31z"/>
			<path class="st0" d="M592,514.68c-0.06-0.15-0.13-0.31-0.19-0.46C591.87,514.38,591.94,514.53,592,514.68z"/>
			<path class="st0" d="M592.48,515.97c-0.06-0.16-0.11-0.32-0.17-0.48C592.37,515.65,592.42,515.81,592.48,515.97z"/>
			<path class="st0" d="M594.08,526.9c0-3.33-0.35-6.22-0.97-8.73c0.4,1.65,0.69,3.46,0.84,5.44l-37.65,24.94l-2.02,4.26
				c10.42,2,21.31-1.64,28.42-9.89l11.65-13.52C594.18,528.64,594.08,527.81,594.08,526.9z"/>
		</g>
		<path class="st0" d="M616.59,451.3c-11.28-17.64-31.04-29.34-53.53-29.34c-16.96,0-33.67,6.65-46.39,17.49"/>
		<path class="st5" d="M582.86,504.65c6.03,3,11.22,9.35,11.22,22.25c0,13.18,20.03,9.81,33.08,4.95
			c8.62-11.92,13.7-26.57,13.7-42.4c0-3-0.19-5.96-0.54-8.87c-4.82-1.69-9.99-2.61-15.39-2.61
			C606.34,477.97,590.3,488.88,582.86,504.65z"/>
		<circle class="st0" cx="538.22" cy="555.86" r="3.64"/>
		<path class="st13" d="M407.91,553.22c-8.79-15.4-13.81-33.22-13.81-52.22c0-58.27,47.23-105.5,105.5-105.5
			c20.85,0,40.28,6.05,56.65,16.48"/>
		<path class="st13" d="M600.63,531.47c-13.07,43.41-53.36,75.03-101.03,75.03c-24.2,0-46.5-8.15-64.3-21.85
			c-0.06-0.05-0.13-0.1-0.19-0.15"/>
		<line class="st7" x1="415.35" y1="543.33" x2="422.55" y2="532.01"/>
		<line class="st7" x1="429.68" y1="534.17" x2="431.95" y2="530.67"/>
		<line class="st7" x1="418.52" y1="551.39" x2="427.41" y2="537.67"/>
		<circle class="st1" cx="543.22" cy="560.86" r="3.64"/>
		<line class="st15" x1="497.75" y1="543.33" x2="508.49" y2="543.33"/>
		<path class="st13" d="M635.86,484.45c0-40.02-32.44-72.46-72.46-72.46c-36.37,0-71.7,26.8-77.83,61.73l30.91,8.87
			c0,0,14.08,15.93,48.79,14.64c8.57-0.32,23.82,2.58,23.82,24.68c0,13.18,20.03,9.81,33.08,4.95
			C630.78,514.93,635.86,500.28,635.86,484.45z"/>
		<path class="st13" d="M617.59,452.3c-8.72-13.65-22.52-23.74-38.73-27.61c-2.39-0.57-4.83-1.01-7.32-1.3
			c-1.29-0.15-2.59-0.26-3.91-0.34c-1.18-0.07-2.37-0.1-3.57-0.1c-2.24,0-4.47,0.12-6.69,0.34c-2.03,0.21-4.06,0.51-6.06,0.89
			c-1.19,0.23-2.37,0.49-3.55,0.78c-1.18,0.29-2.35,0.61-3.51,0.96c-9.77,2.95-18.9,7.97-26.58,14.51"/>
		<path class="st13" d="M588.96,518.61c-0.35-4.59-1.42-8.22-2.98-11.09l-36.77,24.46l-5.91-36.43c-4.46-0.92-8.32-2.14-11.6-3.45
			l7.56,46.76l-6.91,14.54c-1.47,3.25-0.02,7.07,3.23,8.54l0,0c3.25,1.47,7.07,0.02,8.54-3.23l7.18-15.15L588.96,518.61z"/>
		<path class="st7" d="M577.86,499.65c6.03,3,11.22,9.35,11.22,22.25c0,13.18,20.03,9.81,33.08,4.95
			c8.62-11.92,13.7-26.57,13.7-42.4c0-3-0.19-5.96-0.54-8.87c-4.82-1.69-9.99-2.61-15.39-2.61
			C601.34,472.97,585.3,483.88,577.86,499.65z"/>
		<path class="st13" d="M516.48,482.58l-30.91-8.87c0,0,0,0,0,0c-7.76-1.35-15.43,3.39-17.57,11.14v0l56.92,3.99
			C519.11,485.56,516.48,482.58,516.48,482.58z"/>
		<circle cx="538.22" cy="555.86" r="3.64"/>
		<g>
			<path class="st13" d="M535.58,493.49c0.06,0.02,0.11,0.04,0.17,0.05C535.69,493.53,535.63,493.51,535.58,493.49z"/>
			<path class="st13" d="M534.18,493.02c0.04,0.01,0.08,0.03,0.12,0.04C534.26,493.05,534.22,493.03,534.18,493.02z"/>
			<path class="st13" d="M532.84,492.53c0.09,0.03,0.17,0.06,0.26,0.1C533.01,492.59,532.93,492.56,532.84,492.53z"/>
			<path class="st13" d="M539.99,494.77c0.05,0.01,0.1,0.03,0.15,0.04C540.09,494.8,540.04,494.79,539.99,494.77z"/>
			<path class="st13" d="M543.3,495.54l5.91,36.43l36.77-24.46c0.27,0.51,0.53,1.04,0.78,1.6c-4.6-10.51-14.98-12.14-21.5-11.89
				c-8.56,0.32-15.87-0.41-22.01-1.69C543.27,495.53,543.28,495.54,543.3,495.54z"/>
			<path class="st13" d="M536.96,493.93c0.05,0.02,0.11,0.03,0.16,0.05C537.06,493.96,537.01,493.94,536.96,493.93z"/>
			<path class="st13" d="M537.43,542.7l1.83-3.86l-7.56-46.76c-1.45-0.58-2.78-1.18-4.01-1.78l-2.63,24.82
				C523.91,526.05,528.79,536.51,537.43,542.7z"/>
			<path class="st13" d="M587.91,512.37c-0.05-0.19-0.1-0.37-0.16-0.55C587.8,512,587.86,512.18,587.91,512.37z"/>
			<path class="st13" d="M587.7,511.66c-0.05-0.17-0.11-0.34-0.16-0.51C587.59,511.32,587.65,511.49,587.7,511.66z"/>
			<path class="st13" d="M588.1,513.1c-0.05-0.2-0.1-0.4-0.16-0.6C588,512.69,588.05,512.89,588.1,513.1z"/>
			<path class="st13" d="M587.24,510.31c-0.06-0.16-0.12-0.31-0.18-0.46C587.13,510,587.19,510.16,587.24,510.31z"/>
			<path class="st13" d="M587,509.68c-0.06-0.15-0.13-0.31-0.19-0.46C586.87,509.38,586.94,509.53,587,509.68z"/>
			<path class="st13" d="M587.48,510.97c-0.06-0.16-0.11-0.32-0.17-0.48C587.37,510.65,587.42,510.81,587.48,510.97z"/>
			<path class="st13" d="M589.08,521.9c0-3.33-0.35-6.22-0.97-8.73c0.4,1.65,0.69,3.46,0.84,5.44l-37.65,24.94l-2.02,4.26
				c10.42,2,21.31-1.64,28.42-9.89l11.65-13.52C589.18,523.64,589.08,522.81,589.08,521.9z"/>
		</g>
		<path class="st13" d="M643.33,470.45c-0.12-4.27-3.67-7.64-7.94-7.52l-2.75,0.08c2.1,6.78,3.23,13.98,3.23,21.44
			c0,5.11-0.54,10.09-1.54,14.89l2.07-0.06c4.27-0.12,7.64-3.67,7.52-7.94L643.33,470.45z"/>
	</g>
</g>
</svg>
