<svg id="Layer_1" data-name="Layer 1" xmlns="http://www.w3.org/2000/svg" xmlns:xlink="http://www.w3.org/1999/xlink" viewBox="0 0 800 800"><defs><style>.cls-1{fill:none;}.cls-14,.cls-2{fill:#fff;}.cls-3{fill:#cffaff;}.cls-4{fill:url(#New_Pattern_2);}.cls-5{fill:#f4f4f4;}.cls-6{fill:#ededed;}.cls-7{fill:gray;}.cls-8{fill:#f2f2f2;}.cls-9{fill:#99ad89;}.cls-10{fill:#1a1a1a;}.cls-11{fill:#ffc0da;}.cls-12{fill:#ffc1dc;}.cls-13{fill:#a59595;}.cls-14{opacity:0.3;}</style><pattern id="New_Pattern_2" data-name="New Pattern 2" width="60" height="90" patternUnits="userSpaceOnUse" viewBox="0 0 60 90"><rect class="cls-1" width="60" height="90"/><circle class="cls-2" cx="60" cy="90" r="14"/><circle class="cls-2" cy="90" r="14"/><circle class="cls-2" cx="30" cy="45" r="14"/><circle class="cls-2" cx="60" r="14"/><circle class="cls-2" r="14"/></pattern></defs><title>stik</title><rect class="cls-2" x="0.43" y="-0.32" width="800" height="800"/><circle class="cls-3" cx="400.43" cy="399.68" r="316.5"/><circle class="cls-4" cx="400.43" cy="399.68" r="316.5"/><circle cx="290.3" cy="280.68" r="59.5"/><circle class="cls-5" cx="290.3" cy="280.68" r="34.18"/><circle class="cls-6" cx="290.3" cy="280.68" r="24.16"/><circle cx="510.57" cy="280.68" r="59.5"/><circle class="cls-2" cx="510.57" cy="280.68" r="34.18"/><circle class="cls-5" cx="510.35" cy="280.68" r="24.16"/><path class="cls-5" d="M400.43,578.18c-183.56,0-205.08-93.68-184.82-183.56,22.28-98.9,83.45-153.19,184.82-153.19Z"/><path class="cls-2" d="M400.43,578.18c183.57,0,205.09-93.68,184.83-183.56C563,295.72,501.81,241.43,400.43,241.43Z"/><path d="M530.33,336.78c15.86,24.71,23,76.16-1.7,92s-71.93-9.87-87.8-34.58a53.17,53.17,0,0,1,89.5-57.44Z"/><rect class="cls-7" x="395.03" y="436.47" width="10.8" height="65.75" rx="5.4"/><circle class="cls-8" cx="486.52" cy="365.5" r="43.04"/><circle class="cls-9" cx="486.52" cy="365.5" r="32.91"/><circle class="cls-10" cx="486.52" cy="365.5" r="20.26"/><circle class="cls-8" cx="314.35" cy="365.5" r="43.04"/><circle class="cls-11" cx="314.35" cy="365.5" r="32.91"/><circle class="cls-10" cx="314.35" cy="365.5" r="20.26"/><circle cx="400.43" cy="436.39" r="15.19"/><rect x="397.9" y="436.39" width="5.06" height="65.83" rx="2.53"/><path d="M269.6,336.78c-15.86,24.71-23,76.16,1.71,92s71.93-9.87,87.79-34.58a53.17,53.17,0,1,0-89.5-57.44Z"/><circle class="cls-8" cx="314.35" cy="365.5" r="43.04"/><circle class="cls-9" cx="314.35" cy="365.5" r="32.91"/><circle class="cls-10" cx="314.35" cy="365.5" r="20.26"/><path class="cls-12" d="M528.6,451.58a74.57,74.57,0,0,1,59.2,29.17c-10.59,43.32-43.91,78.76-117.71,91.92A74.67,74.67,0,0,1,528.6,451.58Z"/><circle class="cls-13" cx="372.58" cy="459.18" r="5.06"/><circle class="cls-13" cx="359.92" cy="479.43" r="5.06"/><circle class="cls-13" cx="428.29" cy="459.18" r="5.06"/><circle class="cls-13" cx="440.95" cy="479.43" r="5.06"/><path class="cls-14" d="M486.84,332.59v65.82a32.91,32.91,0,0,0,0-65.82Z"/><path class="cls-14" d="M314.71,332.59v65.82a32.91,32.91,0,0,0,0-65.82Z"/><path class="cls-12" d="M272.57,451.58a74.55,74.55,0,0,0-59.19,29.17c10.59,43.32,43.9,78.76,117.7,91.92a74.67,74.67,0,0,0-58.51-121.09Z"/><path class="cls-14" d="M307.56,567.36a53.66,53.66,0,1,0-85.09-62C236.43,532.72,262.86,555,307.56,567.36Z"/><path class="cls-14" d="M493.55,567.36a53.66,53.66,0,1,1,85.09-62C564.67,532.72,538.24,555,493.55,567.36Z"/></svg>