<svg id="Layer_1" data-name="Layer 1" xmlns="http://www.w3.org/2000/svg" viewBox="0 0 237 228"><defs><style>.cls-1{fill:#ff8089;}.cls-2{fill:#cffaff;}</style></defs><title>stik</title><path class="cls-1" d="M87,184a5.3,5.3,0,0,1-3.87-8.92l49.79-53.17L89,131.19l62.27-82.44a5.3,5.3,0,0,1,8.45,6.39L114.5,115l49.14-10.39-72.8,77.74A5.25,5.25,0,0,1,87,184Z"/><path class="cls-2" d="M78.65,181.35a5.29,5.29,0,0,1-3.86-8.92l49.79-53.17-43.94,9.29L142.91,46.1a5.3,5.3,0,0,1,8.46,6.39l-45.19,59.83,49.14-10.39-72.8,77.75A5.28,5.28,0,0,1,78.65,181.35Z"/></svg>