<svg id="Layer_1" data-name="Layer 1" xmlns="http://www.w3.org/2000/svg" xmlns:xlink="http://www.w3.org/1999/xlink" viewBox="0 0 802 800"><defs><style>.cls-1{fill:none;}.cls-17,.cls-2{fill:#fff;}.cls-3{fill:#ff8089;}.cls-4{fill:url(#New_Pattern_2);}.cls-5{fill:#bdccd4;}.cls-6{fill:#99ad89;}.cls-7{fill:#9aa7ad;}.cls-8{fill:#efeebf;}.cls-9{fill:#f2f2f2;}.cls-10{fill:#ffc0da;}.cls-11{fill:#1a1a1a;}.cls-12{fill:#e2c3cf;}.cls-13{fill:#fffaa6;}.cls-14{fill:#fff064;}.cls-15{fill:#fffeca;}.cls-16{fill:#e6e6e6;opacity:0.8;}.cls-17{opacity:0.3;}</style><pattern id="New_Pattern_2" data-name="New Pattern 2" width="60" height="90" patternTransform="translate(-49.03 -54.88) scale(1.01 1.01)" patternUnits="userSpaceOnUse" viewBox="0 0 60 90"><rect class="cls-1" width="60" height="90"/><circle class="cls-2" cx="60" cy="90" r="14"/><circle class="cls-2" cy="90" r="14"/><circle class="cls-2" cx="30" cy="45" r="14"/><circle class="cls-2" cx="60" r="14"/><circle class="cls-2" r="14"/></pattern></defs><title>stick-03</title><circle class="cls-3" cx="401" cy="400" r="316.5"/><circle class="cls-4" cx="397" cy="401" r="321"/><circle class="cls-5" cx="320.22" cy="548.56" r="25.17"/><circle class="cls-5" cx="370.55" cy="548.56" r="25.17"/><circle class="cls-5" cx="420.89" cy="548.56" r="25.17"/><circle class="cls-5" cx="471.22" cy="548.56" r="25.17"/><circle class="cls-5" cx="521.55" cy="548.56" r="25.17"/><path class="cls-5" d="M546.72,548.48H295.05V447.71c0-139.63,10.78-212.61,101.13-221C553.62,212.17,546.72,548.48,546.72,548.48Z"/><path class="cls-6" d="M396.18,240.33c-90,7.88-101.05,76.53-101.13,207.81a180.92,180.92,0,0,0,20.5,24.51c32.55,32.54,76,45.78,127.17,52.67,27.31,2.46,67.47,5,103.92,1.91C545.33,460.62,531.11,228.51,396.18,240.33Z"/><path class="cls-7" d="M396.18,226.71c-90,7.89-101.05,76.54-101.13,207.82a180.83,180.83,0,0,0,20.5,24.5c32.55,32.55,76,45.78,127.17,52.68,27.31,2.46,67.47,5,103.92,1.91C545.33,447,531.11,214.89,396.18,226.71Z"/><path class="cls-8" d="M430.88,292.17c12.41,17.89,8.39,43.06-9.9,54.87-23.65,15.28-61.12.5-61.12.5S347.91,299.11,376,282.27C394.68,271.08,418.46,274.29,430.88,292.17Z"/><circle class="cls-9" cx="397.94" cy="315.04" r="34.63"/><circle class="cls-10" cx="397.94" cy="315.04" r="26.48"/><circle class="cls-11" cx="397.94" cy="315.04" r="16.3"/><circle class="cls-12" cx="401.35" cy="413.45" r="20.11"/><path class="cls-13" d="M312.64,394.4A18.53,18.53,0,0,0,287.22,388C270.61,398,260,401.79,260,401.79s28.27,28.81,46.29,18A18.54,18.54,0,0,0,312.64,394.4Z"/><path class="cls-14" d="M312.64,394.4A18.53,18.53,0,0,0,287.22,388C270.61,398,260,401.79,260,401.79s1.57,1.59,4.19,3.88c9.88,1.32,22,2.78,33.89,3.76a25.71,25.71,0,0,0,17.2-4.77A18.42,18.42,0,0,0,312.64,394.4Z"/><path class="cls-15" d="M322.49,377.75a25.85,25.85,0,0,1-27.9,23.63c-26.91-2.22-55.36-6.89-55.36-6.89s30.42-47.06,59.63-44.64A25.85,25.85,0,0,1,322.49,377.75Z"/><circle class="cls-5" cx="276.66" cy="371.51" r="4.6"/><path class="cls-16" d="M295.63,366.91a25.8,25.8,0,0,0,19.75-9.18,25.72,25.72,0,0,0-16.52-7.88c-8-.66-16.07,2.38-23.59,7.14A25.81,25.81,0,0,0,295.63,366.91Z"/><path class="cls-17" d="M430.88,292.17c-7.88-11.34-20.32-16.77-33.13-16.38v78.07c8.07-.42,16.25-2.31,23.23-6.82C439.27,335.23,443.29,310.06,430.88,292.17Z"/><circle class="cls-12" cx="401.35" cy="413.45" r="20.11"/><path class="cls-17" d="M421.46,413.45a20.11,20.11,0,0,0-20.11-20.11h-.2v40.21h.2A20.11,20.11,0,0,0,421.46,413.45Z"/></svg>