<svg id="Layer_1" data-name="Layer 1" xmlns="http://www.w3.org/2000/svg" xmlns:xlink="http://www.w3.org/1999/xlink" viewBox="0 0 798 800"><defs><style>.cls-1{fill:none;}.cls-2{fill:#fff;}.cls-3{fill:url(#New_Pattern_2);}.cls-4{fill:#fffeca;}.cls-5{fill:#99ad89;}.cls-6{fill:#4d4d4d;}.cls-7{fill:#bdccd4;}.cls-8{fill:#ff7bac;}.cls-9{fill:#9aa7ad;}</style><pattern id="New_Pattern_2" data-name="New Pattern 2" width="60" height="90" patternUnits="userSpaceOnUse" viewBox="0 0 60 90"><rect class="cls-1" width="60" height="90"/><circle class="cls-2" cx="60" cy="90" r="14"/><circle class="cls-2" cy="90" r="14"/><circle class="cls-2" cx="30" cy="45" r="14"/><circle class="cls-2" cx="60" r="14"/><circle class="cls-2" r="14"/></pattern></defs><title>stik</title><circle class="cls-3" cx="398.23" cy="400.04" r="316.5"/><rect class="cls-2" x="-1.77" y="0.04" width="800" height="800"/><circle class="cls-4" cx="398.23" cy="400.04" r="316.5"/><path class="cls-5" d="M411.56,410.41H385.61a5.41,5.41,0,0,1,0-10.81h25.94a5.41,5.41,0,0,1,0,10.81Z"/><path class="cls-6" d="M445.58,509.34a5.4,5.4,0,0,1-4.86-3L393.19,409a5.4,5.4,0,0,1,9.71-4.75l47.53,97.31a5.41,5.41,0,0,1-4.85,7.78Z"/><path class="cls-6" d="M221.24,564.93a107.56,107.56,0,1,1,107.6-107.52A107.68,107.68,0,0,1,221.24,564.93Zm.07-202.15a94.59,94.59,0,1,0,94.56,94.63A94.71,94.71,0,0,0,221.31,362.78Z"/><path class="cls-5" d="M221.57,569.8A112.22,112.22,0,1,1,333.83,457.62,112.35,112.35,0,0,1,221.57,569.8Zm.08-213.62A101.41,101.41,0,1,0,323,457.62,101.52,101.52,0,0,0,221.65,356.18Z"/><path class="cls-6" d="M574.2,565.06A107.57,107.57,0,1,1,681.8,457.53,107.69,107.69,0,0,1,574.2,565.06Zm.07-202.15a94.59,94.59,0,1,0,94.55,94.62A94.7,94.7,0,0,0,574.27,362.91Z"/><path class="cls-5" d="M574.52,570.19A112.49,112.49,0,1,1,687.05,457.75,112.61,112.61,0,0,1,574.52,570.19Zm.08-213.62A101.14,101.14,0,1,0,675.7,457.74,101.25,101.25,0,0,0,574.6,356.57Z"/><rect class="cls-7" x="144.31" y="346.36" width="223.19" height="10.81" transform="translate(-157.83 486.1) rotate(-71.95)"/><circle class="cls-8" cx="221.55" cy="457.64" r="12.16"/><path class="cls-7" d="M576.84,464.05s-162.19-6.43-164.43-8.56L267.72,317.89a6.76,6.76,0,0,1,4.66-11.66l192,.06L487,236.88l10.28,3.36-23.05,70.59,106.47,146A4.57,4.57,0,0,1,576.84,464.05Zm-147.23-16.5,134.76,5.2L470.11,323.5ZM282.52,317,418.59,446.45,460.82,317.1Z"/><path class="cls-9" d="M448.78,494.77c-10.14,0-18.31-.18-23.26-.32-22.79-.65-40.82-19.11-40.19-41.16s19.68-39.44,42.47-38.8c12.17.34,51.8,2.56,88.53,8.59,50.29,8.25,74.8,19.94,74.92,35.72,0,4.78-1.94,9.15-5.87,13-11.16,10.94-39.14,18.08-83.14,21.22C482.84,494.41,463.68,494.77,448.78,494.77Zm-22.2-74.36c-19,0-34.78,14.62-35.31,33-.53,18.77,14.91,34.49,34.42,35.05,12.12.34,43.79.89,76.13-1.42,42-3,69.41-9.75,79.4-19.54,2.78-2.71,4.11-5.56,4.09-8.7-.06-6.89-9.21-19.94-69.94-29.9-36.41-6-75.68-8.18-87.74-8.52Z"/><circle class="cls-7" cx="421.54" cy="454.47" r="12.16"/><path class="cls-8" d="M421.53,492.85a38.38,38.38,0,1,1,38.39-38.37A38.43,38.43,0,0,1,421.53,492.85Zm0-68.65a30.27,30.27,0,1,0,30.26,30.28A30.31,30.31,0,0,0,421.55,424.2Z"/><circle class="cls-8" cx="575.59" cy="458.31" r="12.16"/><path class="cls-6" d="M445.58,509.34a5.41,5.41,0,0,1-4.87-3.06l-23.23-48.11a5.41,5.41,0,1,1,9.74-4.7l23.22,48.12a5.4,5.4,0,0,1-2.51,7.21A5.34,5.34,0,0,1,445.58,509.34Z"/><polygon class="cls-9" points="482.94 249.37 494.31 249.37 497.29 240.24 492.15 238.56 486.47 238.56 482.94 249.37"/><path class="cls-8" d="M540.26,240.74l-79.46,0a5.41,5.41,0,0,1,0-10.81l79.45,0a5.41,5.41,0,0,1,0,10.81Z"/><polygon class="cls-9" points="281.32 256.32 292.69 256.33 295.68 247.19 290.54 245.52 284.85 245.51 281.32 256.32"/><path class="cls-8" d="M245.08,291.73a26.63,26.63,0,0,1,0-53.26l71.38-.22h0a5.41,5.41,0,0,1,0,10.81l-71.39.22a15.82,15.82,0,1,0,0,31.64,5.41,5.41,0,0,1,0,10.81Z"/><path class="cls-5" d="M456.92,511.51h-25.4a5.41,5.41,0,0,1,0-10.81h25.41a5.41,5.41,0,0,1,0,10.81Z"/></svg>