<svg id="Layer_1" data-name="Layer 1" xmlns="http://www.w3.org/2000/svg" viewBox="0 0 800 802"><defs><style>.cls-1{fill:#fff;}.cls-2{fill:#bfceef;}.cls-3{fill:#f2f2f2;}.cls-4{fill:#628da0;}.cls-5{fill:#ff7bac;}.cls-6{fill:#bdccd4;}.cls-7{fill:#a59595;}.cls-8{fill:#4e7684;}.cls-9{fill:#8e7575;}.cls-10{fill:#99ad89;}.cls-11{fill:#506043;}.cls-12{fill:#414938;opacity:0.5;}.cls-13{fill:#fac294;}</style></defs><title>stik</title><rect class="cls-1" x="0.17" y="-0.33" width="800" height="800"/><circle class="cls-2" cx="400.17" cy="399.67" r="316.5"/><rect class="cls-3" x="217.17" y="255.91" width="366" height="287.51" rx="30.64"/><circle class="cls-4" cx="496.91" cy="316.98" r="40.92"/><circle class="cls-5" cx="365.33" cy="399.04" r="123.82"/><circle class="cls-6" cx="364.91" cy="399.04" r="112.07"/><circle class="cls-7" cx="365.33" cy="399.04" r="102.83"/><path class="cls-3" d="M435.75,437.7c-16.75,13.26-40,24.1-70.42,24.1S311.66,451,294.91,437.7s-27-29-31.57-38.66h204C462.78,408.74,452.5,424.43,435.75,437.7Z"/><path class="cls-3" d="M435.75,360.38c-16.75-13.27-40-24.11-70.42-24.11s-53.67,10.84-70.42,24.11-27,28.95-31.57,38.66h204C462.78,389.33,452.5,373.64,435.75,360.38Z"/><circle class="cls-6" cx="365.33" cy="399.04" r="55.4"/><circle cx="365.33" cy="399.04" r="47.01"/><rect class="cls-3" x="344.64" y="365.06" width="8.39" height="27.3" rx="4.2" transform="translate(-159.38 296.11) rotate(-38.12)"/><path class="cls-8" d="M516.4,286a5.51,5.51,0,0,0-6.83,3.11l-6.15,5-3.36,24.76,8.16,37.45A40.81,40.81,0,0,0,518.1,352c-.25-1-7.41-30.31-6.29-40.27.58-5.17,7.7-19.33,7.7-19.33A5,5,0,0,0,516.4,286Z"/><circle class="cls-3" cx="365.33" cy="399.04" r="5.04"/><path class="cls-7" d="M473.4,518.87a5,5,0,0,1-4.35-7.55l47.08-81.63L491.48,316.46l7.6-21.91a5,5,0,0,1,9.52,3.31l-6.67,19.22L526.8,431.35l-49,85A5,5,0,0,1,473.4,518.87Z"/><path class="cls-9" d="M505.36,468.52a11.7,11.7,0,0,0-3.44-3.23h0a11.85,11.85,0,0,0-5.33-1.73l-23.53,40.79a11.63,11.63,0,0,0,3.06,2.72h0a11.65,11.65,0,0,0,6,1.75Z"/><circle class="cls-10" cx="249.91" cy="489.28" r="7.56"/><rect class="cls-10" x="541.61" y="404.91" width="19.73" height="124.24" rx="9.86"/><rect class="cls-7" x="470.95" y="472.12" width="23.54" height="49.11" rx="11.77" transform="translate(333.02 -179.56) rotate(31.7)"/><rect class="cls-11" x="548.75" y="404.91" width="5.46" height="124.24" rx="2.73"/><path class="cls-12" d="M550.55,429.26h1.85a6.84,6.84,0,0,1,6.84,6.84v5.82a2.87,2.87,0,0,1-2.87,2.87h-10a2.63,2.63,0,0,1-2.63-2.63V436.1A6.84,6.84,0,0,1,550.55,429.26Z"/><rect class="cls-13" x="543.71" y="438.91" width="15.53" height="15.53" rx="6.84"/><circle class="cls-10" cx="249.91" cy="516.56" r="12.59"/></svg>