<?xml version="1.0" encoding="utf-8"?>
<!-- Generator: Adobe Illustrator 23.1.1, SVG Export Plug-In . SVG Version: 6.00 Build 0)  -->
<svg version="1.1" id="Layer_1" xmlns="http://www.w3.org/2000/svg" xmlns:xlink="http://www.w3.org/1999/xlink" x="0px" y="0px"
	 viewBox="0 0 1280 1024" style="enable-background:new 0 0 1280 1024;" xml:space="preserve">
<style type="text/css">
	.st0{clip-path:url(#SVGID_2_);}
	.st1{fill:#E0DEFF;}
	.st2{fill:#FFD2E4;}
	.st3{fill:#B75858;}
	.st4{clip-path:url(#SVGID_4_);}
	.st5{fill:#FF7DB2;}
	.st6{fill:#562C15;}
	.st7{fill:#EDBED6;}
	.st8{fill:#E5B5CB;}
	.st9{fill:#FFFFFF;}
	.st10{fill:#994A4A;}
	.st11{fill:#9E4A4A;}
	.st12{fill:#42210B;}
	.st13{fill:#FF94BD;}
	.st14{fill:#FFD9E8;}
	.st15{fill:#FFC0D7;}
	.st16{fill:#FFDCE4;}
	.st17{fill:#B74B4B;}
	.st18{opacity:0.5;fill:#FFFFFF;enable-background:new    ;}
	.st19{fill:#FFCAD8;}
	.st20{opacity:0.3;fill:#E6E6E6;enable-background:new    ;}
	.st21{fill:#CE5B5B;}
</style>
<title>what [Recovered]</title>
<g>
	<defs>
		<circle id="SVGID_1_" cx="642.6" cy="498.1" r="435.8"/>
	</defs>
	<clipPath id="SVGID_2_">
		<use xlink:href="#SVGID_1_"  style="overflow:visible;"/>
	</clipPath>
	<g class="st0">
		<rect x="30" y="-5.5" class="st1" width="1280" height="1035.1"/>
		<path class="st2" d="M1040.1,1112.8c0,0,84.4-113.8,173.9-103.6s92.4,57.2,79.2,99.8s-135.7,141-135.7,141l141.5-36.3
			c0,0-9.3-9.7-8.1-13.4c2.9-8.6,90.8-16.3,90.8-12.8c0,3.9-161.5,110.3-212.5,131.1c-46.4,19-118.3,28.9-140.5,0
			s1.3-109.6,72.6-163.4L1040.1,1112.8z"/>
		<path class="st3" d="M1040.1,1112.8c0,0,84.4-113.8,173.9-103.6s92.4,57.2,79.2,99.8s-135.7,141-135.7,141l123.5-31.7l17.1,26.2
			c-47.6,30.3-103.7,64.4-129.8,75.1c-46.4,19-117.3,27.9-139.5-1s2.4-104.4,69.6-166.5L1040.1,1112.8z"/>
	</g>
</g>
<g>
	<defs>
		<circle id="SVGID_3_" cx="642.6" cy="-643.5" r="435.8"/>
	</defs>
	<clipPath id="SVGID_4_">
		<use xlink:href="#SVGID_3_"  style="overflow:visible;"/>
	</clipPath>
	<g class="st4">
		<path class="st2" d="M1040.1-28.7c0,0,84.4-113.8,173.9-103.6s92.4,57.2,79.2,99.8s-135.7,141-135.7,141L1299,72.2
			c0,0-9.3-9.7-8.1-13.5c2.9-8.6,90.8-16.3,90.8-12.8c0,3.9-161.5,110.3-212.5,131.1c-46.4,19-118.3,28.9-140.5,0
			s1.3-109.6,72.6-163.4L1040.1-28.7z"/>
		<path class="st5" d="M824.3,192.7c3.8,2.8,1.4,5.7-1.4,9.5s-4.8,7.1-8.6,4.3s-14.4-15.2-11.7-19.1S820.4,190,824.3,192.7z"/>
		<path class="st2" d="M924.2,95.6c0,0-8.6,19.7-27.3,21.2c-3.2-3.5-6.6-6.8-10.2-9.9c-31.4-27.1-69.9-28.2-89.4-21.7
			s-35.3,53.8-28.8,76.5s81.2,52.8,94.4,50.9c9.4-1.4,21.3-31.5,28.3-42.1c3.9-5.9,7.9-8.9,24.2-14.8s39.6-4.9,39.6-4.9L924.2,95.6z
			"/>
		<path class="st6" d="M827,58.9c2.7,18-7.1,21.7-20.8,24.6s-26.3-1.1-29.1-14S784,47,797.8,44S825.1,45.8,827,58.9z"/>
		<path class="st7" d="M888.7,160.8c-10.4,11.5-23.1,39.9-23.2,50.8c8.9-5.7,19.3-31.4,25.6-41c3.9-5.9,7.9-8.9,24.2-14.8
			s39.6-4.9,39.6-4.9l-16.1-7.9C938.8,143,902.9,145,888.7,160.8z"/>
		<path class="st2" d="M983.5,26.8c-22.6,20.3-88.8,69.8-50.9,120.3s88.4,86.1,94.2,99.9c5.8,13.8-40.4,132.8-40.4,132.8
			s-22.5-2.8-25.7-2c-6.1,1.4-32.3,17.1-30.1,20.8c0.7,1.1,11.9,1.6,25,1.6c5,0,10.3,0,15.4-0.2c5.5-0.1,10.7-0.3,15.2-0.6
			c5.9-0.3,10.3-0.8,12-1.3c7.7-2.3,87.7-136.7,85.3-148.9c-0.8-3.8-9.2-43.6-34.7-72.4c-46.9-52.9,61.1-164.3,61.1-164.3
			l-69.6-41.4C1040.1-28.7,999.5,12.5,983.5,26.8z"/>
		<path class="st8" d="M1083.4,249.3c-0.8-3.8-9.2-43.7-34.7-72.4c-2-2.3-3.8-4.8-5.4-7.4c0.8,4.4-1,7.1,1.2,14.1
			c12.3,37.9,18.1,39.4,26.7,60.8c5.1,12.8-64,124.9-73.1,138.8c-6,9.1-13.8,13-10,16.2c3.4-0.1,6.7-0.5,10-1.2
			C1005.8,395.9,1085.8,261.5,1083.4,249.3z"/>
		<rect x="1090.8" y="7.3" class="st3" width="10.8" height="8.5"/>
		<path class="st3" d="M1040.1-28.7c0,0,84.4-113.8,173.9-103.6s92.4,57.2,79.2,99.8s-135.7,141-135.7,141L1281,76.8l17.1,26.2
			c-47.6,30.3-103.7,64.5-129.8,75.1c-46.4,19-117.3,27.9-139.5-1s2.4-104.4,69.6-166.5L1040.1-28.7z"/>
		<path class="st9" d="M1164-38.6c-0.4-1-1.6-1.5-2.6-1c0,0,0,0-0.1,0c-27.9,12.4-53,34.4-66.7,47.7l-54.5-36.8
			c0,0-29.3,29.7-47.9,47.4c6.9,16.9-31.7,50.8-45.6,68.7c-13,16.7-25,34.1-25,34.4c0.6,4.4,1.9,8.8,3.7,12.9
			c0.1-0.1,15.3-20.2,24.9-30.9c12.2-13.8,44.2-33.6,62.6-21.8c9,5.8,15.2,12,19.4,18.8c10.6-25,28.7-52.4,53.8-78.2
			c0.3-0.1,12.1-12.1,12.1-12.1c13.6-13.2,37.9-34.4,64.9-46.3C1163.9-36.3,1164.4-37.5,1164-38.6C1164-38.5,1164-38.5,1164-38.6z"
			/>
		<path class="st10" d="M1298.1,102.9l-7.1-10.8c-61,35.3-133,80.5-160.3,97.7c12.8-2.9,25.4-6.8,37.5-11.8
			C1194.4,167.4,1250.5,133.2,1298.1,102.9z"/>
		<path class="st11" d="M1293.3-32.5c-23.9,66.6-135.7,141-135.7,141l-40.4,17.3c-1.2-1.3,70.5-67.6,121.9-112.2
			C1268.2-11.7,1293.3-32.5,1293.3-32.5z"/>
		<path class="st6" d="M793.2,78.1c-21.6,11.2-31.2,24.1-33,57.9c-1.9,35.3,9.7,35.3,31,15.5c21.2-19.6,42.1-19,54.7-11.1
			s-13.8-24.3-4.2-28.9s23.4,8,23,14.7c-0.4,6.6,43.5,6.3,33.1-12.1S842.5,52.4,793.2,78.1z"/>
		<path class="st12" d="M827,58.9c-0.1-0.4-0.1-0.7-0.2-1.1C822.6,68.7,801.9,79.7,793,84c4.4,0.6,8.8,0.5,13.2-0.5
			C820,80.6,829.7,76.8,827,58.9z"/>
		<path class="st12" d="M864.9,126.6c0,0.1,0,0.1,0,0.2c0,0,0,0.1,0,0.1c0,0.1,0.1,0.1,0.1,0.2l0.1,0.1c0,0.1,0.1,0.1,0.1,0.2
			l0.1,0.1l0.2,0.2l0.1,0.1c0.1,0.1,0.2,0.1,0.2,0.2l0.1,0.1c0.1,0.1,0.2,0.1,0.3,0.2h0.1l0.3,0.2l0,0l0.4,0.2l0,0l0.5,0.2l0,0
			l0.5,0.2l0,0c1.1,0.3,2.2,0.6,3.3,0.8c0.1-3.9-2.1-8.7-4.8-11.3c-2.7-2.8-6.4-4.4-10.3-4.4c5,3.4,8.8,8.6,8.5,12.1
			c0,0.1,0,0.2,0,0.3L864.9,126.6z"/>
		<path class="st8" d="M856,131.1L856,131.1c-1.5,0.5-3.4-0.3-3.2-2c0.3-3.2-0.6-4.5-3.8-5.8c-1.8-0.7-1.9-2.3-0.8-3.6l0,0
			c1.1-1.3,1.9-1.7,4.2-0.7c4.2,1.8,4.8,4.4,5.5,8.5C858.3,129,857.5,130.5,856,131.1z"/>
	</g>
</g>
<path class="st13" d="M484.9,872c4.4-1.7,5.5,2,7.2,6.4s3.2,7.9-1.2,9.6s-20.7,3.7-22.3-0.8S480.5,873.6,484.9,872z"/>
<path class="st14" d="M493.8,728.2c0,0-23.2,25-32.2,41.5c-4.7,0.7-9.3,1.8-13.9,3.1c-39.9,11.3-62,42.8-67.3,62.7
	s25.5,59.1,48,66.2s88.8-38.7,94.5-50.8c4-8.6-14.6-35.2-19.6-46.8c-2.8-6.5-3-11.5,1-28.4s17.7-35.7,17.7-35.7L493.8,728.2z"/>
<path class="st15" d="M493.7,800.6c3.9,15,20.6,41.2,29.7,47.3c0.1-10.6-15.6-33.4-20.1-44c-2.8-6.5-3-11.5,1-28.4
	s17.7-35.7,17.7-35.7l-15.5,9.2C506.5,749,488.4,780.1,493.7,800.6z"/>
<path class="st6" d="M372.1,834.7c-2.5,24.2,3,39.3,30.2,59.4c28.4,21,34.8,11.4,30-17.4c-4.7-28.5,7.3-45.7,20.9-51.8
	s-27.9-1.8-26.4-12.4s19.5-15.2,24.9-11.2s29.2-32.9,8.1-34.3S377.8,779.5,372.1,834.7z"/>
<path class="st12" d="M452.1,801.6c0.1,0,0.1,0.1,0.2,0.1h0.1h0.2h0.3h0.1l0.3,0h0.1c0.1,0,0.2-0.1,0.3-0.1h0.1l0.3-0.1h0.1l0.4-0.2
	l0,0l0.4-0.2l0,0l0.4-0.3l0,0c0.1-0.1,0.3-0.2,0.4-0.3l0,0c0.9-0.7,1.7-1.5,2.4-2.3c-3.2-2.3-8.4-3-12-2.2c-3.8,0.7-7.2,3-9.3,6.2
	c5.6-2.3,12-2.6,14.8-0.5c0.1,0.1,0.2,0.1,0.3,0.2L452.1,801.6z"/>
<path class="st8" d="M451,811.5L451,811.5c-0.4,1.5-2.1,2.7-3.5,1.5c-2.5-2-4-2-6.9,0c-1.6,1.1-3,0.3-3.5-1.3l0,0
	c-0.5-1.6-0.4-2.5,1.8-3.9c3.9-2.5,6.3-1.6,10.1,0.1C450.4,808.5,451.2,810,451,811.5z"/>
<path class="st6" d="M374.7,796c16.5,7.7,14.2,17.8,9.1,31s-15.4,21.4-27.7,16.5s-15-18.2-9.9-31.3S362.7,790.4,374.7,796z"/>
<path class="st12" d="M353.9,842.5c0.7,0.4,1.4,0.7,2.1,1c12.3,4.8,22.6-3.4,27.7-16.5c3.1-7.9,5.1-14.7,2.7-20.6
	C382,821.3,366.7,837.4,353.9,842.5z"/>
<path class="st16" d="M1017.5,730.3c-24.3-39.7-49.9-57.6-80.9-98.2S865.2,409,769.6,406S731,557.7,731,557.7l11-13.9
	c16.4,42.3,132,130.3,151.3,162.3c10.6,17.5,35.4,35.3,41.9,42.4c17.3,18.9,131.5,180.6,131.5,180.6s-65,25.4-62.2,29
	c2.7,3.4,90.2-1.5,93.2-6.5C1102.3,943.8,1041.8,770,1017.5,730.3z"/>
<path class="st17" d="M936,749.4l0.7,0.8c0.1,0.1,0.1,0.1,0.2,0.2l0.8,1l0.1,0.1c0.3,0.3,0.6,0.7,0.9,1.1l0.1,0.1l1,1.2l0.2,0.2
	l1.1,1.3l0.2,0.2l1.2,1.5l0,0l1.3,1.6l0.2,0.2l1.3,1.7l0.3,0.3c0.4,0.6,0.9,1.2,1.4,1.8l0.2,0.2l1.4,1.8l0.2,0.3
	c0.5,0.6,1,1.3,1.5,1.9l0.3,0.4l1.5,2l0.3,0.4c0.5,0.7,1,1.4,1.6,2.1l0.1,0.1l1.7,2.3l0.3,0.4l1.7,2.3l0.3,0.3l1.8,2.4l0.1,0.2
	c0.6,0.8,1.2,1.6,1.8,2.4l0.2,0.3l1.9,2.5c0.1,0.2,0.2,0.3,0.3,0.4l1.9,2.5l0.3,0.5l1.9,2.6l0.1,0.1l2,2.8l0.3,0.4l2,2.7l0.3,0.5
	l2.1,2.8l0.1,0.2l2.1,2.8l0.2,0.3c0.7,0.9,1.4,1.9,2.1,2.8l0.4,0.5l2.1,2.9l0.2,0.3l4.6,6.3l0.2,0.3l2.2,3.1l0.3,0.5l4.5,6.2
	l0.4,0.5c0.7,1,1.4,2,2.1,3l0.4,0.6l2.2,3l0.3,0.5l2.1,3c0,0.1,0.1,0.2,0.2,0.2l2.3,3.2c0.1,0.1,0.1,0.2,0.2,0.3l2.2,3.1l0.4,0.6
	l2.2,3l0.2,0.2l2.2,3.1l0.2,0.2l2.2,3.1l0.3,0.5c0.7,1,1.5,2,2.2,3l0.2,0.3l2.2,3.1l0,0.1c0.8,1.1,1.5,2.2,2.3,3.2l0.1,0.1
	c0.8,1,1.5,2.1,2.2,3.1l0.2,0.3l4.3,6l0.3,0.5l6.4,9c0,0.1,0.1,0.1,0.1,0.2c1.4,1.9,2.7,3.8,4,5.7l0.3,0.5l5.6,7.9l0.2,0.3l1.7,2.4
	l0.2,0.2l5,7c0.2,0.2,0.3,0.5,0.5,0.7l0.5,0.7l1,1.4l1.2,1.7v0l5.2,7.4l29.9-1.8l-0.1-0.2c-0.2-0.7-0.5-1.5-0.7-2.3
	c0-0.2-0.1-0.3-0.1-0.4c-0.2-0.7-0.4-1.3-0.6-2c-0.1-0.2-0.1-0.4-0.2-0.5c-0.2-0.8-0.5-1.6-0.7-2.4l-0.2-0.5
	c-0.2-0.7-0.4-1.4-0.7-2.1c-0.1-0.2-0.1-0.4-0.2-0.6c-0.3-0.8-0.5-1.7-0.8-2.5l-0.1-0.4l-0.7-2.3c-0.1-0.2-0.1-0.4-0.2-0.6
	c-0.3-0.9-0.6-1.7-0.8-2.6l-0.1-0.4c-0.2-0.8-0.5-1.6-0.8-2.4c-0.1-0.2-0.1-0.4-0.2-0.6c-0.3-0.9-0.6-1.8-0.9-2.7
	c0-0.1-0.1-0.2-0.1-0.3l-0.8-2.5c-0.1-0.2-0.2-0.5-0.2-0.7l-0.9-2.8l-0.1-0.3l-0.9-2.6l-0.2-0.7c-0.3-1-0.7-1.9-1-2.9l-0.1-0.2
	c-0.3-0.9-0.6-1.8-0.9-2.7c-0.1-0.2-0.2-0.5-0.2-0.7c-0.3-1-0.7-2-1-3v-0.1l-1-2.9c-0.1-0.2-0.2-0.5-0.3-0.7c-0.7-2-1.4-4-2.1-6
	c-0.1-0.3-0.2-0.5-0.3-0.8c-0.3-1-0.7-2-1.1-3l0,0l-1.1-3.1c-0.1-0.2-0.2-0.5-0.3-0.7l-1-3v-0.1l-1.1-3.1c-0.1-0.2-0.2-0.5-0.3-0.7
	c-0.3-1-0.7-1.9-1-2.9l-0.1-0.1c-0.4-1-0.7-2-1.1-3.1l-0.3-0.8l-1.1-2.9l-0.1-0.2c-0.4-1-0.8-2.1-1.2-3.1c-0.1-0.2-0.2-0.5-0.3-0.7
	c-0.3-0.9-0.7-1.8-1-2.8l-0.2-0.4c-0.4-1-0.8-2-1.1-3.1l-0.3-0.7c-0.3-0.9-0.7-1.8-1-2.8l-0.1-0.4c-0.4-1-0.8-2-1.2-3.1l-0.3-0.7
	l-1-2.7l-0.2-0.4l-1.1-3c-0.1-0.2-0.2-0.5-0.3-0.7l-1-2.6l-0.2-0.5l-1.1-3c-0.1-0.2-0.2-0.5-0.3-0.7c-0.3-0.9-0.7-1.7-1-2.6
	c-0.1-0.2-0.1-0.3-0.2-0.5l-1.1-2.9c-0.1-0.2-0.2-0.5-0.3-0.7c-0.3-0.8-0.7-1.7-1-2.5c-0.1-0.2-0.1-0.3-0.2-0.5l-1.1-2.9l-0.3-0.7
	l-1-2.4l-0.2-0.6l-1.1-2.8c-0.1-0.2-0.1-0.4-0.2-0.5c-0.3-0.8-0.7-1.6-1-2.4c-0.1-0.2-0.2-0.4-0.2-0.5l-1.1-2.7l-0.2-0.6l-0.9-2.3
	l-0.2-0.6c-0.4-0.9-0.7-1.8-1.1-2.7l-0.2-0.5c-0.3-0.8-0.6-1.5-1-2.3c-0.1-0.2-0.2-0.4-0.2-0.5c-0.4-0.9-0.7-1.7-1.1-2.6
	c-0.1-0.1-0.1-0.3-0.2-0.4l-0.9-2.2c-0.1-0.2-0.2-0.4-0.2-0.6c-0.3-0.8-0.7-1.7-1.1-2.5l-0.2-0.4c-0.3-0.7-0.6-1.4-0.9-2.1l-0.2-0.6
	l-1-2.3l-0.2-0.4l-0.9-2c-0.1-0.2-0.2-0.4-0.2-0.5c-0.3-0.8-0.7-1.5-1-2.2c0-0.1-0.1-0.2-0.2-0.4c-0.3-0.6-0.6-1.2-0.8-1.9l-0.2-0.5
	l-1-2.1l-0.1-0.2c-0.3-0.6-0.6-1.2-0.9-1.8c-0.1-0.2-0.2-0.3-0.2-0.5l-0.9-2l-0.1-0.2c-0.3-0.6-0.6-1.2-0.8-1.7l-0.2-0.5l-0.9-1.8
	l-0.1-0.2c-0.3-0.5-0.5-1.1-0.8-1.6l-0.2-0.4c-0.3-0.6-0.6-1.1-0.9-1.6l0-0.1l-0.8-1.5l-0.2-0.4l-0.8-1.5l0,0l-0.8-1.3l-0.2-0.3
	c-0.3-0.5-0.5-0.9-0.8-1.3c-24.3-39.7-49.9-57.6-80.9-98.2s-71.3-223-166.9-226S731,557.7,731,557.7l11-13.9
	c16.4,42.3,132,130.3,151.3,162.3c10.6,17.5,35.4,35.3,41.9,42.4l0.7,0.8C936,749.3,936,749.4,936,749.4z"/>
<path class="st16" d="M1037.5,739.5c-23.5-40.2-48.6-58.7-78.8-100s-79.8-242.4-175.4-247.4s-114.7,94.2-114.7,94.2
	s-19.9,56.6-44.5,91.1c-15.7,22-65.9,79.1-106.5,109.7c-2.9,2.2-3.9,3.2-6,4.6c-3.2,2.1-15.6,15.8-27.6,32.5l0,0l0,0
	c-7.7,10.8-14.7,23-17.5,34.8c-4.6,19.5-47.1,78.3-66.3,97.7S331.3,904,313,916s-56.8,45.2-70.6,45.8c-8.3,0.4-25.9-10-31.9-7.5
	c-11.6,4.7-25.4,13.4-36.5,23.4c-5.5,5-0.3,6.2,18.4,5.4c24.7-1.1,52.2,0.3,59.7-4.8s135.9-43.9,149.6-56.5s79.3-74.4,87.6-85.5
	s40.9-37.2,52.2-42.6s76.5-0.8,91.2-4.8c7.8-2.2,23.7-6.2,28.5-25.8c9.5-30.5,16.2-28.7,35.9-51.8c11.9-13.9,22.9-22.3,26.3-39.3
	c2.7-13.6,2.5-25.3,7.5-43.8c8.8-32.2,24-67.5,24-67.5l11.3-13.7c15.5,42.7,129.1,133.1,147.8,165.5c10.2,17.7,34.6,36,41,43.3
	c16.9,19.2,127.6,183.4,127.6,183.4s-65.5,24-62.8,27.7c2.6,3.4,90.2,0.5,93.3-4.5C1117.7,954.8,1061,779.7,1037.5,739.5z"/>
<path class="st18" d="M243.4,967.7c9.2-0.7,52.9-30,68.5-41.6c17-12.7,61.6-38.4,74.7-48.3s37.4-37.6,49.8-55.6
	c11.7-17,30.9-42.3,37.4-63.1s24.4-48.7,64.1-79.6c29.8-23.2,54.6-63.7,54.6-63.7l0,0c-21.9,24.3-50.1,52.7-74.7,71.3
	c-2.9,2.2-3.9,3.2-6,4.6c-3.2,2.1-15.6,15.8-27.6,32.5l0,0l0,0c-7.7,10.8-14.7,23-17.5,34.8c-4.6,19.5-47.1,78.3-66.3,97.7
	S331.3,904,313,916s-56.8,45.2-70.6,45.8c-8.3,0.4-25.9-10-31.9-7.5c-11.6,4.7-25.4,13.4-36.5,23.4c0,0,26.6-16.8,39.1-17.4
	S235.5,968.2,243.4,967.7z"/>
<path class="st19" d="M612.4,790.8L612.4,790.8c-14.2,0.2-34.1-11-69.4-3.6c-33.5,7-123.1,117.2-148.9,131.6
	c-20.5,11.4-73.3,29.7-109.9,42.4s-42.7,20.1-42.7,20.1l2.2-0.3c3.7-0.6,6.6-1.4,8.4-2.6c7.5-5.1,135.9-43.9,149.6-56.5
	s79.3-74.4,87.6-85.5s40.9-37.2,52.2-42.6C549.8,790,587.3,791.4,612.4,790.8z"/>
<path class="st19" d="M1066.2,910.4l-10.1,3.6c6.6,9.4,10.7,15,10.7,15s-61.8,24.2-62.2,28.7l0.1,0.3c0,0,71.6-21.9,72.4-26
	C1077.4,929.7,1066.2,910.4,1066.2,910.4z"/>
<path class="st19" d="M1084.8,929.7l-8.6,0.3l6.3,9.3c0,0-65.5,24-62.8,27.7c0,0,71.5-21.2,72-24.1
	C1091.9,941.2,1084.8,929.7,1084.8,929.7z"/>
<path class="st9" d="M676.6,461.9c-3.5,7.9-6.1,16-8,24.4c0,0-19.9,56.6-44.5,91.1c-9.4,13.2-31.1,38.9-55.7,63.9
	c-0.3,0.4-0.6,0.7-1,1c4.3,18.6-14.8,46.9-43.8,58.5c-11.6,4.5-23,9.8-33.9,15.8c-1.8,2.4-3.7,4.9-5.6,7.5l0,0l0,0
	c-2.6,3.6-5.1,7.4-7.4,11.3c10.8-6.4,26.3-14.3,41.6-17.8c27.7-6.2,46.7,0.8,54.2,13.3c5.3,8.8,9.2,39.9-14.8,60.5
	c23.7-1.2,63.8,0.6,74.9-2.4c7.8-2.2,23.7-6.2,28.5-25.8c9.5-30.5,16.2-28.7,35.9-51.8c11.9-13.9,22.9-22.3,26.3-39.3
	c2.7-13.6,2.5-25.3,7.5-43.8c8.8-32.2,24-67.5,24-67.5l4.7-5.7C731.2,518.6,697,478.1,676.6,461.9z"/>
<path class="st20" d="M754.8,560.8l4.7-5.7c-2.2-2.8-4.4-5.7-6.7-8.6c-1.9,2.2-3.4,4.6-4.7,7.1c-6.9,13.8-13.5,34-18.7,62.2
	c-3.2,17.3-3.5,27.1-2.8,32.7c1-6.8,2.4-13.6,4.2-20.2C739.6,596.1,754.8,560.8,754.8,560.8z"/>
<path class="st21" d="M955.7,756.8l0.7,0.9l0.2,0.2c0.3,0.3,0.5,0.7,0.8,1l0.1,0.1l0.9,1.1c0,0,0.1,0.1,0.1,0.1l1,1.2l0.2,0.2l1,1.4
	l0.2,0.2l1.1,1.5l0,0l1.2,1.7l0.2,0.2l1.2,1.7c0.1,0.1,0.2,0.2,0.3,0.3l1.3,1.8l0.2,0.2l1.3,1.8l0.2,0.3l1.4,2
	c0.1,0.2,0.2,0.3,0.3,0.4l1.5,2l0.2,0.4l1.5,2.1l0.1,0.1l1.7,2.3l0.3,0.4c0.5,0.8,1.1,1.5,1.7,2.3l0.2,0.3l1.8,2.5l0.1,0.2l1.8,2.5
	l0.2,0.3l1.8,2.6l0.3,0.4l1.8,2.6l0.3,0.5l1.9,2.7l0.1,0.1c0.7,0.9,1.3,1.9,2,2.8c0.1,0.1,0.2,0.3,0.3,0.4l1.9,2.8l0.3,0.5
	c0.7,1,1.3,1.9,2,2.9l0.1,0.2l2,2.9l0.2,0.4l2,2.9l0.4,0.5l2.1,3l0.2,0.3l4.5,6.4l0.2,0.3l2.2,3.1c0.1,0.2,0.2,0.3,0.3,0.5l4.3,6.3
	l0.3,0.5l2.1,3l0.4,0.6l2.1,3.1l0.3,0.5l2.1,3l0.2,0.2c0.7,1.1,1.5,2.2,2.2,3.3l0.2,0.3l2.2,3.1l0.4,0.6l2.1,3.1l0.2,0.2l2.2,3.2
	l0.2,0.2l2.2,3.2l0.3,0.5l2.1,3.1c0.1,0.1,0.1,0.2,0.2,0.3c0.7,1,1.4,2.1,2.2,3.2l0.1,0.1l2.2,3.3l0.1,0.1l2.2,3.2l0.2,0.3l4.1,6.1
	c0.1,0.2,0.2,0.3,0.3,0.5l6.3,9.2l0.1,0.2l3.9,5.8l0.3,0.5l5.5,8l0.2,0.3l1.6,2.4l0.2,0.2l4.8,7.2l0.5,0.7l0.5,0.7l1,1.4l1.2,1.7
	v0.1c1.9,2.8,3.6,5.3,5.1,7.5l29.9-1.2l-0.1-0.2c-0.2-0.8-0.4-1.5-0.6-2.3l-0.1-0.4c-0.2-0.7-0.4-1.3-0.6-2c0-0.2-0.1-0.4-0.2-0.6
	l-0.7-2.4l-0.2-0.5l-0.6-2.1c-0.1-0.2-0.1-0.4-0.2-0.6c-0.2-0.8-0.5-1.7-0.7-2.5c0-0.1-0.1-0.2-0.1-0.4c-0.2-0.8-0.4-1.5-0.7-2.3
	c-0.1-0.2-0.1-0.4-0.2-0.6c-0.3-0.9-0.5-1.8-0.8-2.6c0-0.1-0.1-0.2-0.1-0.4l-0.7-2.4c-0.1-0.2-0.1-0.4-0.2-0.6
	c-0.3-0.9-0.6-1.8-0.8-2.8c0-0.1-0.1-0.2-0.1-0.3c-0.2-0.8-0.5-1.7-0.8-2.5c-0.1-0.2-0.1-0.5-0.2-0.7c-0.3-0.9-0.6-1.9-0.9-2.8
	l-0.1-0.3c-0.3-0.9-0.5-1.7-0.8-2.6c-0.1-0.2-0.2-0.5-0.2-0.7c-0.3-1-0.6-1.9-0.9-2.9c0-0.1,0-0.1-0.1-0.2c-0.3-0.9-0.6-1.8-0.9-2.7
	c-0.1-0.2-0.2-0.5-0.2-0.7c-0.3-1-0.6-2-1-3v-0.1c-0.3-1-0.6-2-0.9-2.9l-0.2-0.8c-0.7-2-1.3-4-2-6c-0.1-0.3-0.2-0.5-0.3-0.8l-1-3
	l0,0c-0.3-1-0.7-2.1-1-3.1c-0.1-0.2-0.2-0.5-0.2-0.7l-1-3v-0.1c-0.3-1-0.7-2.1-1-3.1c-0.1-0.2-0.2-0.5-0.2-0.7l-1-2.9l-0.1-0.3
	c-0.3-1-0.7-2.1-1-3.1c-0.1-0.2-0.2-0.5-0.3-0.8c-0.3-1-0.7-2-1-3l-0.1-0.2c-0.3-1-0.7-2.1-1.1-3.2c-0.1-0.2-0.2-0.5-0.2-0.7l-1-2.8
	c0-0.1-0.1-0.3-0.1-0.4l-1.1-3.1c-0.1-0.2-0.2-0.5-0.3-0.7l-1-2.8l-0.1-0.4l-1.1-3.1l-0.2-0.7l-1-2.7l-0.2-0.5l-1.1-3
	c-0.1-0.2-0.2-0.5-0.3-0.7c-0.3-0.9-0.6-1.8-1-2.7c0-0.2-0.1-0.3-0.2-0.5c-0.4-1-0.7-2-1.1-3l-0.3-0.7l-0.9-2.6
	c-0.1-0.2-0.1-0.3-0.2-0.5c-0.3-1-0.7-2-1.1-3c-0.1-0.2-0.2-0.5-0.3-0.7l-0.9-2.5l-0.2-0.5c-0.4-1-0.7-1.9-1.1-2.9l-0.3-0.7
	l-0.9-2.4c-0.1-0.2-0.1-0.4-0.2-0.6c-0.3-1-0.7-1.9-1.1-2.9l-0.2-0.5l-0.9-2.5l-0.2-0.5c-0.3-0.9-0.7-1.8-1-2.8l-0.2-0.6
	c-0.3-0.8-0.6-1.5-0.9-2.3c-0.1-0.2-0.2-0.4-0.2-0.6l-1-2.7c-0.1-0.2-0.1-0.3-0.2-0.5l-0.9-2.3l-0.2-0.5c-0.3-0.9-0.7-1.8-1-2.6
	l-0.2-0.4c-0.3-0.7-0.6-1.5-0.9-2.2c-0.1-0.2-0.2-0.4-0.2-0.6c-0.3-0.8-0.7-1.7-1-2.5l-0.2-0.4l-0.9-2.1c-0.1-0.2-0.2-0.4-0.2-0.6
	l-1-2.4l-0.2-0.4c-0.3-0.7-0.6-1.3-0.8-2l-0.2-0.5c-0.3-0.8-0.6-1.5-1-2.2l-0.2-0.4l-0.8-1.9l-0.2-0.5l-0.9-2.1
	c0-0.1-0.1-0.2-0.1-0.2c-0.3-0.6-0.6-1.2-0.8-1.8c-0.1-0.2-0.2-0.3-0.2-0.5l-0.9-2l-0.1-0.2c-0.3-0.6-0.5-1.2-0.8-1.7
	c-0.1-0.2-0.1-0.3-0.2-0.5c-0.3-0.6-0.6-1.2-0.9-1.8c0-0.1-0.1-0.1-0.1-0.2c-0.3-0.5-0.5-1.1-0.8-1.6l-0.2-0.4
	c-0.3-0.6-0.6-1.1-0.8-1.7v-0.1l-0.8-1.5c-0.1-0.1-0.1-0.3-0.2-0.4l-0.8-1.5l0,0c-0.2-0.5-0.5-0.9-0.8-1.4l-0.2-0.3
	c-0.2-0.5-0.5-0.9-0.8-1.3c-23.5-40.2-48.6-58.7-78.8-100s-79.8-242.3-175.3-247.3s-114.7,94.2-114.7,94.2s-3.4,9.6-9.1,23.4
	c9.6,10.7,79.9,66.2,86.9,71.7c2-5.2,3.8-9.8,5.2-13.2c1.8-4.6,3-7.3,3-7.3l11.3-13.7c15.5,42.7,129.1,133.1,147.8,165.5
	c10.2,17.7,34.6,36,41,43.3l0.7,0.8L955.7,756.8z"/>
<path class="st11" d="M776.5,557.7c0.7-10.4-7.6-23-10.4-21.2c-7.3,4.2-13.4,10.1-17.7,17.3c-3.5,5.8-6.3,13.2-9.2,21.8l7.2,5.7
	c2-5.2,3.8-9.8,5.2-13.2c0.9-2.5,2.1-4.9,3.4-7.3l11.3-12.8c1.9,5.3,5,10.3,9.5,16.8C775.9,564.9,776.2,561.9,776.5,557.7z"/>
<path class="st11" d="M955.5,756.7l0.1,0.1l0,0c0.5,0.6,1,1.2,1.6,1.9l0.1,0.1l0.1,0.1l0,0c0.6,0.8,1.3,1.7,2,2.6l0.1,0.1v0l1,1.2
	v0.1l0,0l1.2,1.7v0.1l0,0l0.2,0.2l1.3,1.7l0,0c0.9,1.2,1.8,2.4,2.7,3.7l0.1,0.2l0.1,0.2l2.9,4l0,0l0.1,0.2c1.1,1.5,2.2,3,3.3,4.6
	l0.1,0.2l0.1,0.1l0.1,0.2c1.1,1.6,2.3,3.2,3.5,4.8l0,0l0.2,0.3l0,0l3.7,5.2l0.2,0.2l0.1,0.2l4,5.7l0.1,0.2l0,0
	c1.3,1.8,2.6,3.7,3.9,5.5l0,0l0,0l2.1,3l0.1,0.2l0.1,0.1l2.2,3.2l0,0l0,0l4.7,6.7l0.1,0.1v0.1l1.8,2.6l0.2,0.3l0.2,0.3l0.1,0.2
	c2.3,3.3,4.6,6.7,7,10.1l0,0l0,0l4.5,6.6l0.1,0.2l0.2,0.3l2.1,3l0.2,0.3l0.2,0.3l1.6,2.3l0.3,0.5l0.1,0.2l2,2.9l0.3,0.4l0.2,0.2
	l0.3,0.5l1.6,2.3c0.1,0.1,0.2,0.3,0.3,0.4l0.2,0.3l0.1,0.1l2.3,3.4c0.1,0.1,0.1,0.2,0.2,0.2l0.4,0.6l1.7,2.4v0.1l0.2,0.2l0,0l1.4,2
	l0.8,1.1l0.2,0.2l0.9,1.3l0.6,0.8l0.7,1l0.3,0.5l0.3,0.4l1.8,2.6v0.1c0.1,0.1,0.1,0.2,0.2,0.3l0.8,1.2l0.6,0.9l0.7,1l0.1,0.1
	l0.3,0.4c0.7,1,1.3,1.9,2,2.9l0.1,0.1l2.2,3.2l0.2,0.3l0.5,0.7l3.3,4.8c0.1,0.2,0.3,0.4,0.4,0.6s0.2,0.3,0.3,0.5s0.4,0.6,0.6,0.9
	l1.7,2.4l1.9,2.8c0.5,0.8,1,1.5,1.5,2.3c0.2,0.3,0.4,0.6,0.6,0.8l0.1,0.2l2.7,3.9l0.5,0.8c0.2,0.3,0.5,0.7,0.7,1.1l0.3,0.5
	c0.2,0.2,0.3,0.4,0.4,0.6l1.8,2.6l1.2,1.8l1.7,2.5c0.1,0.2,0.2,0.3,0.3,0.5l0.2,0.3l1.6,2.4l0.2,0.2l0.3,0.4c0.7,1,1.3,1.9,1.9,2.8
	l0.7,1l1.8,2.7l0.1,0.1l0.3,0.5l0.1,0.1l0.1,0.1l0.2,0.4c0.4,0.6,0.8,1.2,1.2,1.7l0,0l1.2,1.7v0.1l0.1,0.2c1.9,2.8,3.5,5.2,5,7.3
	l8.6-0.3c-31.4-47.8-85-129.7-93.5-143.5c-9.5-15.4-26.9-36.6-46.6-58.5c-5.2-5.8-10.5-11.7-16-17.5c-25.2-27.1-49.4-52.4-66.2-68.8
	c-75-73.3-75-73.3-91.6-104.8c-2-3.7-16.4-46.5-16.2-44.9c4.7,47.3,11.3,55.4,11.3,55.4c15.5,42.7,129.1,133.1,147.8,165.5
	c0.5,0.8,1,1.6,1.5,2.4l0.3,0.5c0.5,0.8,1,1.6,1.6,2.3l0.3,0.4c0.5,0.7,1.1,1.5,1.7,2.2l0.2,0.3c0.6,0.8,1.2,1.6,1.9,2.4
	c0.1,0.2,0.3,0.3,0.4,0.5c0.7,0.8,1.3,1.6,2,2.3l0.2,0.2c0.6,0.7,1.2,1.3,1.8,1.9c0.2,0.2,0.4,0.4,0.6,0.6c0.7,0.8,1.4,1.5,2.1,2.2
	l0.4,0.5c0.7,0.8,1.5,1.5,2.2,2.2l0,0c2,2,4,3.9,6,5.8l0,0l0.2,0.2l2,1.8l0.4,0.3c0.6,0.6,1.2,1.2,1.9,1.7l0.7,0.7
	c0.2,0.2,0.3,0.3,0.5,0.5l0.8,0.8l0.1,0.1c1.1,1,2.2,2,3.2,2.9l0.1,0.1l1,0.9l0.2,0.2l1.1,1l0,0l0.9,0.9l0.3,0.3l0.7,0.7l0.2,0.2
	l0.8,0.8l0,0l0.7,0.7l0.2,0.2l0.5,0.5l0.2,0.2c0.2,0.2,0.4,0.4,0.6,0.7l0.7,0.8L955.5,756.7z"/>
<ellipse transform="matrix(0.3828 -0.9238 0.9238 0.3828 -77.9479 634.8713)" class="st9" cx="436.2" cy="375.8" rx="66.6" ry="13.7"/>
<ellipse transform="matrix(0.7715 -0.6362 0.6362 0.7715 -186.9674 393.1015)" class="st9" cx="453.8" cy="456.9" rx="68.3" ry="14"/>
<ellipse transform="matrix(0.9578 -0.2874 0.2874 0.9578 -137.3562 153.5762)" class="st9" cx="454.5" cy="544.7" rx="73.6" ry="15.1"/>
<ellipse transform="matrix(0.8622 -0.5066 0.5066 0.8622 -270.2859 296.843)" class="st9" cx="410.4" cy="645.1" rx="76.5" ry="15.7"/>
<ellipse transform="matrix(1.780136e-02 -0.9998 0.9998 1.780136e-02 -361.7426 969.1643)" class="st9" cx="312.4" cy="668.7" rx="76.5" ry="15.7"/>
<ellipse class="st9" cx="409.8" cy="321" rx="11.4" ry="55.6"/>
<ellipse transform="matrix(0.7715 -0.6362 0.6362 0.7715 -177.6184 325.0696)" class="st9" cx="363.8" cy="409.8" rx="13.7" ry="66.6"/>
<ellipse transform="matrix(0.6341 -0.7733 0.7733 0.6341 -253.6577 444.4477)" class="st9" cx="342.8" cy="490.2" rx="13.7" ry="66.7"/>
<ellipse transform="matrix(0.9477 -0.3192 0.3192 0.9477 -160.033 137.8382)" class="st9" cx="340.5" cy="557.1" rx="16" ry="78.3"/>
<path class="st9" d="M270.4,814.5l0.3,0.3c1.1,0.8,2.7,0.6,3.5-0.5c0,0,0,0,0,0c0.4-0.5,37.5-50,72.8-131.8
	c20.6-47.5,36.6-96.9,47.8-147.5c13.7-61.3,19.5-124,17.3-186.7c0-1.4-1.2-2.5-2.6-2.4s-2.5,1.2-2.4,2.6
	c2.2,62.3-3.6,124.6-17.1,185.4c-11.2,50.2-27.1,99.3-47.5,146.5c-28.1,65-59.5,114-72.2,130.9C269.4,812.2,269.5,813.6,270.4,814.5
	z"/>
<ellipse transform="matrix(0.9238 -0.3828 0.3828 0.9238 -214.757 351.4739)" class="st9" cx="775.7" cy="715.3" rx="8.7" ry="42.3"/>
<ellipse transform="matrix(0.6362 -0.7715 0.7715 0.6362 -313.466 868.7639)" class="st9" cx="764.5" cy="766.8" rx="8.9" ry="43.3"/>
<ellipse transform="matrix(0.2874 -0.9578 0.9578 0.2874 -243.43 1318.1641)" class="st9" cx="764.1" cy="822.7" rx="9.6" ry="46.7"/>
<ellipse transform="matrix(0.5066 -0.8622 0.8622 0.5066 -364.0654 1106.8134)" class="st9" cx="785.1" cy="871.5" rx="10" ry="48.5"/>
<ellipse transform="matrix(0.5791 -0.8152 0.8152 0.5791 -315.2098 1034.5863)" class="st9" cx="844.4" cy="822.6" rx="48.5" ry="10"/>
<ellipse transform="matrix(0.1597 -0.9872 0.9872 0.1597 -147.3744 1570.1254)" class="st9" cx="848.6" cy="871.6" rx="48.5" ry="10"/>
<ellipse class="st9" cx="792.5" cy="674.9" rx="7.3" ry="35.4"/>
<ellipse transform="matrix(0.3939 -0.9191 0.9191 0.3939 -183.229 1193.7622)" class="st9" cx="813.6" cy="735.8" rx="42.3" ry="8.7"/>
<ellipse transform="matrix(0.5791 -0.8152 0.8152 0.5791 -286.3625 1003.0407)" class="st9" cx="828.3" cy="778.9" rx="42.3" ry="8.7"/>
<path class="st9" d="M880.9,993.8c-0.1,0.1-0.1,0.1-0.2,0.2c-0.7,0.5-1.7,0.4-2.2-0.3c0,0,0,0,0,0c-0.2-0.3-23.8-31.7-46.2-83.6
	c-13.1-30.2-23.2-61.5-30.4-93.6c-8.7-38.9-12.4-78.7-11-118.5c0-0.9,0.7-1.6,1.5-1.6s1.6,0.7,1.6,1.5c0,0.1,0,0.1,0,0.2
	c-1.4,39.5,2.3,79.1,10.9,117.7c7.1,31.9,17.2,63,30.2,93C853,950,873,981.1,881,991.8C881.5,992.4,881.5,993.2,880.9,993.8z"/>
<path class="st9" d="M882.8,183.2c-4-0.5-7.2-3.4-8.2-7.2c-0.2,4.4-3.3,8.1-7.6,9c4.1,0.3,7.6,3.2,8.7,7.1
	C875.8,187.9,878.7,184.3,882.8,183.2z"/>
<path class="st9" d="M908.2,211.5c-3-0.4-5.5-2.6-6.3-5.5c-0.1,3.4-2.5,6.2-5.8,6.9c3.2,0.2,5.8,2.4,6.6,5.5
	C902.8,215.1,905,212.3,908.2,211.5z"/>
<circle class="st9" cx="790.5" cy="204.1" r="43.3"/>
<circle class="st18" cx="782.5" cy="214.2" r="43.3"/>
<path class="st9" d="M824.7,674.3c-2.8-0.3-5-2.3-5.7-5c-0.1,3.1-2.3,5.7-5.3,6.3c2.9,0.2,5.3,2.2,6,5
	C819.7,677.6,821.8,675.1,824.7,674.3z"/>
<path class="st9" d="M368.3,238.2c-4,0.3-7.7-1.9-9.4-5.5c0.6,4.3-1.7,8.6-5.8,10.3c4.1-0.5,8.1,1.6,9.9,5.4
	C362.3,244.1,364.5,240,368.3,238.2z"/>
<path class="st9" d="M372.9,293c-1.5,1.2-3.7,1.4-5.4,0.4c1.5,1.6,1.7,4,0.5,5.8c1.5-1.3,3.7-1.6,5.5-0.6
	C372.1,297.1,371.8,294.8,372.9,293z"/>
<path class="st9" d="M316.7,311.6c-3,1.1-6.4,0.1-8.5-2.3c1.4,3.3,0.5,7.1-2.3,9.2c3.1-1.3,6.6-0.4,8.8,2.1
	C313.3,317.6,314.1,313.9,316.7,311.6z"/>
</svg>
