<svg id="Layer_1" data-name="Layer 1" xmlns="http://www.w3.org/2000/svg" xmlns:xlink="http://www.w3.org/1999/xlink" viewBox="0 0 1280 1024"><defs><style>.cls-1{fill:none;}.cls-2{clip-path:url(#clip-path);}.cls-3{fill:#ffd2e4;}.cls-4{fill:#ff7db2;}.cls-5{fill:#562c15;}.cls-6{fill:#edbed6;}.cls-7{fill:#e5b5cb;}.cls-8{fill:#b75858;}.cls-20,.cls-9{fill:#fff;}.cls-10{fill:#994a4a;}.cls-11{fill:#9e4a4a;}.cls-12{fill:#42210b;}.cls-13{fill:#ffdce4;}.cls-14{clip-path:url(#clip-path-2);}.cls-15{fill:#dcffed;}.cls-16{fill:#ff94bd;}.cls-17{fill:#ce5b5b;}.cls-18{fill:#e0adc2;}.cls-19{fill:#ffcad8;}.cls-20{opacity:0.5;}.cls-21{fill:#f2f2f2;}</style><clipPath id="clip-path"><circle class="cls-1" cx="642.61" cy="-641.1" r="435.77"/></clipPath><clipPath id="clip-path-2"><circle class="cls-1" cx="642.61" cy="498.07" r="435.77"/></clipPath></defs><title>what [Recovered]</title><g class="cls-2"><path class="cls-3" d="M1040.13-26.36S1124.55-140.18,1214-129.91s92.43,57.22,79.22,99.76-135.74,141-135.74,141L1299.05,74.5s-9.34-9.72-8.1-13.44c2.88-8.63,90.78-16.34,90.78-12.78,0,3.9-161.49,110.27-212.49,131.12-46.45,19-118.35,28.92-140.54,0s1.35-109.6,72.63-163.4Z"/><path class="cls-4" d="M824.26,195.1c3.81,2.78,1.36,5.72-1.42,9.54s-4.82,7.05-8.64,4.28-14.44-15.24-11.66-19.06S820.44,192.32,824.26,195.1Z"/><path class="cls-3" d="M924.15,98s-8.62,19.7-27.3,21.23a109.74,109.74,0,0,0-10.21-9.87c-31.43-27.1-69.91-28.18-89.42-21.68s-35.29,53.78-28.78,76.54,81.2,52.81,94.42,50.88c9.36-1.37,21.33-31.54,28.31-42.14,3.9-5.92,7.93-8.86,24.19-14.83s39.56-4.87,39.56-4.87Z"/><path class="cls-5" d="M827.05,61.25c2.67,18-7.06,21.7-20.84,24.64s-26.32-1.08-29.07-14S784,49.33,797.8,46.4,825.1,48.15,827.05,61.25Z"/><path class="cls-6" d="M888.7,163.19c-10.36,11.51-23.09,39.87-23.16,50.81,8.87-5.73,19.3-31.44,25.63-41.05,3.9-5.92,7.93-8.86,24.19-14.83s39.56-4.87,39.56-4.87l-16.11-7.88S902.91,147.4,888.7,163.19Z"/><path class="cls-3" d="M983.52,29.18C960.88,49.5,894.73,99,932.62,149.48s88.41,86.11,94.15,99.89-40.44,132.8-40.44,132.8-22.55-2.76-25.66-2c-6.11,1.42-32.35,17.07-30.08,20.77.69,1.13,11.86,1.63,25,1.66,5,0,10.27-.05,15.36-.17,5.47-.13,10.71-.33,15.15-.58,5.87-.34,10.34-.78,12-1.29,7.65-2.31,87.73-136.71,85.29-148.9-.75-3.76-9.25-43.65-34.72-72.37C1001.8,126.38,1109.74,15,1109.74,15l-69.61-41.37S999.45,14.9,983.52,29.18Z"/><path class="cls-7" d="M1083.4,251.62c-.75-3.76-9.25-43.65-34.72-72.37a46.54,46.54,0,0,1-5.39-7.45c.83,4.37-1,7.11,1.24,14.08,12.34,37.9,18.11,39.35,26.67,60.79,5.1,12.78-64,124.89-73.09,138.78-6,9.13-13.84,13-10,16.23a61,61,0,0,0,10-1.16C1005.76,398.21,1085.84,263.81,1083.4,251.62Z"/><rect class="cls-8" x="1090.75" y="9.63" width="10.84" height="8.5"/><path class="cls-8" d="M1040.13-26.36S1124.55-140.18,1214-129.91s92.43,57.22,79.22,99.76-135.74,141-135.74,141L1281,79.13l17.06,26.15c-47.56,30.3-103.71,64.46-129.85,75.14-46.45,19-117.33,27.9-139.52-1S1031.06,75,1098.27,12.94Z"/><path class="cls-9" d="M1164-36.21a2,2,0,0,0-2.69-1c-27.9,12.37-53,34.36-66.68,47.71l-54.46-36.82s-29.28,29.7-47.88,47.42c6.86,16.89-31.67,50.79-45.59,68.67-13,16.74-25,34.1-25,34.36A50.21,50.21,0,0,0,925.28,137c.06-.09,15.34-20.24,24.86-30.89,12.26-13.72,44.28-33.62,62.62-21.75,9,5.83,15.23,12,19.43,18.81,10.64-25,28.68-52.4,53.79-78.24.3-.11,12.06-12.14,12.06-12.14C1111.6-.38,1136-21.57,1162.92-33.52A2,2,0,0,0,1164-36.21Z"/><path class="cls-10" d="M1298.07,105.28,1291,94.46c-61,35.3-133,80.46-160.33,97.71a243.11,243.11,0,0,0,37.54-11.75C1194.36,169.74,1250.51,135.58,1298.07,105.28Z"/><path class="cls-11" d="M1293.26-30.15c-23.86,66.59-135.74,141-135.74,141l-40.4,17.32C1115.91,126.87,1187.59,60.57,1239,16,1268.25-9.35,1293.26-30.15,1293.26-30.15Z"/><path class="cls-5" d="M793.25,80.42c-21.56,11.23-31.16,24.08-33,57.91-1.91,35.28,9.65,35.31,31.05,15.52,21.23-19.64,42.14-19,54.7-11.06s-13.81-24.28-4.18-28.88,23.44,8,23,14.65,43.54,6.28,33.08-12.14S842.45,54.78,793.25,80.42Z"/><path class="cls-12" d="M827.05,61.25c-.06-.36-.12-.71-.19-1.06-4.24,10.87-24.93,21.89-33.81,26.2a36,36,0,0,0,13.16-.5C820,83,829.72,79.2,827.05,61.25Z"/><path class="cls-12" d="M864.9,129a1.6,1.6,0,0,0,.05.21.41.41,0,0,0,0,.09.88.88,0,0,0,.09.2l.06.08a1.27,1.27,0,0,0,.13.19l.07.08.19.19.07.06.24.2.07.05c.09.06.18.13.29.19l.07,0,.34.19,0,0,.41.2h0l.46.19h0l.53.18h0a21,21,0,0,0,3.3.75c.14-3.94-2.13-8.68-4.78-11.29a14.38,14.38,0,0,0-10.33-4.37c5,3.42,8.76,8.59,8.54,12.13,0,.1,0,.21,0,.31Z"/><path class="cls-7" d="M856.05,133.51h0c-1.48.49-3.36-.26-3.19-2,.3-3.22-.56-4.46-3.75-5.75-1.77-.72-1.89-2.35-.83-3.63h0c1.07-1.27,1.89-1.7,4.24-.7,4.24,1.81,4.8,4.4,5.47,8.46A3.31,3.31,0,0,1,856.05,133.51Z"/></g><path class="cls-13" d="M450.34,773.92l88,65.64S715,982.8,764.18,973.47c50-9.49,60.31-6.89,115-10,56.92-3.22,162.3,4.73,162.3,4.73s62,7.22,61.1,3.78c-.7-2.85-53.58-33.48-77.48-44.52-5.73-2.64-4.63,7.38-5.07,16.35,0,0-95-43.1-162.79-47.5-54.74-3.56-92.82,10.24-101.08,10.54-9.6.36-84.85-143.73-136.16-152.53-66.79-11.45-89.95-40.36-136.91-31.72S450.34,773.92,450.34,773.92Z"/><g class="cls-14"><rect class="cls-15" x="30" y="-5.51" width="1280" height="1035.1"/><path class="cls-3" d="M1040.13,1112.81S1124.55,999,1214,1009.26s92.43,57.22,79.22,99.76-135.74,141-135.74,141l141.53-36.32s-9.34-9.72-8.1-13.44c2.88-8.63,90.78-16.34,90.78-12.78,0,3.9-161.49,110.27-212.49,131.12-46.45,19-118.35,28.92-140.54,0s1.35-109.6,72.63-163.4Z"/><path class="cls-8" d="M1040.13,1112.81S1124.55,999,1214,1009.26s92.43,57.22,79.22,99.76-135.74,141-135.74,141L1281,1218.3l17.06,26.16c-47.56,30.29-103.71,64.45-129.85,75.13-46.45,19-117.33,27.9-139.52-1s2.36-104.38,69.57-166.46Z"/></g><path class="cls-16" d="M746.59,338.48c-4.72,0-4.48-3.81-4.49-8.53s-.28-8.54,4.44-8.55,20.65,3.75,20.67,8.47S751.31,338.47,746.59,338.48Z"/><path class="cls-13" d="M723.4,475.86s-4.69-21,9.48-33.26A109.38,109.38,0,0,0,747,444.52c41.36,3.29,73-18.58,84.94-35.35s-3.32-64.24-22-78.76-96.72,5.39-106.24,14.76c-6.74,6.64,1.44,38.05,2.07,50.73.35,7.08-1.17,11.84-10.76,26.25s-29,27.32-29,27.32Z"/><path class="cls-17" d="M450.34,773.92l88,65.64S715,982.8,764.18,973.47c50-9.49,60.71-6.9,115-10,36.49-2.07,92.83-.42,128.65,2.07l1.58.11.46-26.24c-26.29-11.1-98.25-39.57-152.63-43.1-54.74-3.56-92.82,10.24-101.08,10.54-9.6.36-84.85-143.73-136.16-152.53-66.79-11.45-89.95-40.36-136.91-31.72S450.34,773.92,450.34,773.92Z"/><ellipse class="cls-18" cx="774.43" cy="412.18" rx="15.76" ry="18.2"/><path class="cls-5" d="M839.38,412.67c10.75-21.8,10.9-37.83-7.62-66.21-19.31-29.58-28.65-22.77-34.22,5.84C792,380.68,774.78,392.54,760,393.54S785.44,405,780.4,414.37s-23.62,7.44-27.24,1.79-38.83,20.67-19.5,29.34S814.84,462.43,839.38,412.67Z"/><path class="cls-12" d="M831.76,346.46c-4.33-6.63-8.15-11.42-11.55-14.56l-23.75,25.18c-6.08,23.55-20.77,34.28-34.15,36.21L759,396.82c6.62,4,24.93,11,21.43,17.55-5,9.41-23.62,7.44-27.24,1.79s-38.83,20.67-19.5,29.34c6.46,2.9,17.68,5.75,30.66,6.4,3.49-7.67,20.12-43.95,27.87-55.09,8.15-11.71,21.26-29.14,43.24-44.47C834.3,350.43,833.08,348.48,831.76,346.46Z"/><path class="cls-12" d="M752.89,415.86a1.07,1.07,0,0,0-.16-.14l-.09-.05-.19-.1-.1,0-.22-.08-.1,0-.27,0h-.1l-.29,0h-.52l-.39.05h-.05l-.45.08h0l-.48.13h0l-.53.17h0a20.59,20.59,0,0,0-3.1,1.34c2.21,3.26,6.84,5.74,10.52,6.28a14.38,14.38,0,0,0,10.92-2.57c-6.06.2-12.14-1.76-14.06-4.74a1.12,1.12,0,0,0-.19-.24A.24.24,0,0,0,752.89,415.86Z"/><path class="cls-7" d="M757.35,407h0c.9-1.27,2.86-1.78,3.77-.25,1.66,2.77,3.08,3.27,6.43,2.42,1.84-.46,2.91.78,2.8,2.44h0c-.1,1.66-.52,2.49-3,3.07-4.5,1-6.47-.71-9.41-3.59A3.3,3.3,0,0,1,757.35,407Z"/><path class="cls-13" d="M991,199.74c-24.38,4.28-42.88,9.62-52.16,22.49-7.36,10.21-4.49,8.33-11.24,14.33s-129.08,61.08-141.09,75.33-69,84.05-75.78,96.05-21.82,28.67-32.33,35.42-91.54,33.77-104.3,42-30,18.18-24.81,59-47.17,114.34-33,168.5c-43.78-23.6-165.14-85.39-200.78-65.5C271.74,671.75,289,789.76,300.22,843.68s26,107.74,26,107.74-64.65,23.33-61.45,24.66c2.71,1.13,64.55,3.94,91.25,1,6.9-.76-1.21-16.35-3.91-25.11-9.92-32.13,18.59-124.52,15.59-156.29-5.16-54.62-12.45-70.87-12.45-70.87s87.54,86.68,147.28,111.05c62.74,25.59,116.83,20.87,147.25-5.05,28.46-24.24,28.58-52.25,11-91.47-4-9-26.45-50.21-13.5-90s54.79-89.63,58.77-94.61,33.89-41.93,37-72.81c2-19.89,36.58-83.69,53.09-105.45S866,322.55,882.46,308.3s49-50.09,62.63-52.54c8.2-1.48,30.6-3.44,39.29-19.26,4.43-8.07,12.1-16.08,16.21-25.05C1003.7,204.69,1009.32,196.52,991,199.74Z"/><path class="cls-11" d="M681.65,804.75c-17-21.11-34.88-39.26-51.11-46.93l-86,86a43.41,43.41,0,0,1,4.41,4.11c5.83,4.59,13.82,10.82,23.34,18.06C606.45,866.61,664.24,855.36,681.65,804.75Z"/><path class="cls-19" d="M340.85,937.93a42.73,42.73,0,0,0,.92,5.68c3.89,17.34,5.81,29.37,6.16,34.14,3-.18,5.7-.4,8.14-.67,6.9-.76-1.21-16.35-3.91-25.11a56.39,56.39,0,0,1-2.05-14.64Z"/><path class="cls-20" d="M938.8,222.23c-7.36,10.21-4.49,8.33-11.24,14.33s-129.08,61.08-141.09,75.33-69,84.05-75.78,96.05-21.82,28.67-32.33,35.42c-4.46,2.87-21.67,9.4-41,16.59,0,0,32-.42,55.27-17.14,14.89-10.69,56-71.66,61.52-78.05,8.64-10,28.71-37.56,39.1-47.78,14.69-14.46,134.83-73,140.35-75.75,7.88-4,14.19-21.51,28.29-26.85,10.32-3.91,14-8.79,17.76-12.46C960.89,205.94,946.59,211.43,938.8,222.23Z"/><path class="cls-19" d="M767.67,972.81l1.89-.34.83-.16,2-.35.57-.1,2.46-.44.52-.09,1.9-.32.72-.12,1.74-.29.62-.1,4.49-.72.57-.08,1.64-.25.6-.09,1.78-.26.32,0,2.07-.29.39-.06,1.63-.22.55-.07,1.54-.2.44-.05c1.31-.16,2.58-.32,3.84-.46l.47-.05,1.43-.16.49,0,1.66-.17.16,0,1.85-.18.29,0,1.52-.14.44,0,1.46-.12.32,0,3.58-.28.36,0,1.43-.1.38,0,1.72-.11h0l1.83-.11h.22L822,966l.37,0,1.59-.08h.18c1.25-.07,2.5-.13,3.76-.18H828l1.81-.08h.11l5.86-.23.46,0,1.11,0c4.46-.16,9.2-.32,14.39-.52l6-.24h.16l3.08-.13h.29l2.92-.13.34,0,3.15-.15.56,0,3-.14.4,0,3.29-.18.79,0,3.37-.19h.12l3.17-.17h0l.85,0h0l2.62-.11h.35c15.06-.59,32.74-.53,50.67-.13H937c5.46.13,10.94.28,16.37.47h.17l3.85.13h.24c4,.15,8,.3,12,.47h0l3.75.16.4,0,3.5.15.31,0c3.79.17,7.51.35,11.12.53l.4,0,3.14.16.49,0,3.13.16.29,0c3.45.18,6.77.37,9.94.55l.34,0,2.94.17h.06c19.18,1.13,32.06,2.1,32.06,2.1s62,7.22,61.1,3.78l-93.06-12.89c-45.29-4.77-99.11-8.22-149.43-5.91-67.45,3.09-91.36,14.3-99.6,20.67.58,0,1.13-.07,1.68-.12l.4,0c.54-.06,1.07-.14,1.59-.23l2.7-.51Z"/><path class="cls-5" d="M823.45,448.11c-13-12.67-7.14-21.68,2.25-32.19s21.86-14.69,31.73-5.87,7.76,22.25-1.62,32.75S832.12,456.57,823.45,448.11Z"/><path class="cls-11" d="M851.73,964.78c7.89-.3,16.84-.69,27.47-1.29l3.19-.17.85,0,2.69-.11.58,0c37-1.42,89.51,1,122.93,3l.1-7c-45.29-4.77-99.11-8.22-149.43-5.91-67.45,3.09-91.36,14.3-99.6,20.67.58,0,1.13-.07,1.68-.12l.4,0c.54-.06,1.07-.14,1.59-.23,32.22-6.11,48-7.21,69.69-8C839.34,965.22,845.17,965,851.73,964.78Z"/><path class="cls-19" d="M873.73,307.15c-13.16,11-31.86,20.42-54.61,38.07-22,17-30,24.82-48.67,57.68s-27.36,51.44-33.85,74c-6.24,21.64-5.86,21.18-7.49,29.22S690,562.57,665.92,597.24c-10.86,15.63-12.28,26.89-11.23,34.08,17.06-35.48,48-72.38,51.43-76.63,4-5,33.89-41.93,37-72.81,2-19.89,36.58-83.69,53.09-105.45S866,322.55,882.46,308.3s49-50.09,62.63-52.54c8.2-1.48,30.6-3.44,39.29-19.26,0,0-9,6.45-23.53,9.28-9.23,1.8-12.64,1.53-19.05,4.26-11.79,5-21.75,13.86-28.7,20.39C894.55,287.84,888,295.29,873.73,307.15Z"/><path class="cls-12" d="M851.06,447.21c-5.47,0-11.42,0-15.63-.88-5.86-1.19-10.79-5.45-10.42-11.64.61-10.44,8-21.29,11-27a33.52,33.52,0,0,0-7.86,5.65l-.09.08-1,1-.25.25c-.37.39-.74.78-1.1,1.18h0c-9.38,10.51-14.34,22.87-3.79,32.84C828.66,455.05,842.21,454.2,851.06,447.21Z"/><path class="cls-9" d="M705.23,517.15c-24,15.14-44.21,14.91-55.52,5.68-9-7.33-18.15-40.43,8.61-70.78h0c-6.24,2.42-13.42,5.11-20.91,7.9-26.1,9.74-56,20.69-63.35,25.43-12.75,8.26-30,18.18-24.81,59,3.56,27.72-19.53,70.6-30.21,112.23-2.09,8.12,125.42,51.16,124.39,22.35a85.51,85.51,0,0,1,3.92-29.61c6-18.33,18-38.75,29.71-56,.45-14.51,5.38-37.89,28.8-58.53,16.87-14.87,26.63-25.71,32.28-33.13a79.3,79.3,0,0,0,5-19.8c.06-.52.14-1.07.23-1.64C735.93,489.92,721.6,506.81,705.23,517.15Z"/><path class="cls-21" d="M731.76,494.08c-1.42,5.39-2.28,9.72-4.31,13.92A116,116,0,0,1,720,521.73a187.78,187.78,0,0,0,18.14-20.05c.91-2.4,1.73-4.81,2.44-7.21l.09-.31c.16-.57.31-1.14.47-1.7.09-.37.19-.74.29-1.11s.23-1,.34-1.45.22-.93.32-1.4.17-.83.25-1.25.21-1.13.3-1.7c.05-.33.11-.66.16-1,.13-.9.25-1.79.34-2.67v0h0c.06-.52.14-1.07.23-1.64h0C740.46,484,736.49,488.91,731.76,494.08Z"/><path class="cls-21" d="M665.92,597.24c-10.86,15.63-12.28,26.89-11.23,34.08l.33-.65q2.06-4.24,4.35-8.49l.5-.94L661.1,619l.68-1.23,1.2-2.08c.25-.45.51-.9.77-1.35.39-.67.78-1.33,1.18-2l.84-1.42,1.17-1.93c.29-.48.58-1,.88-1.43.38-.63.77-1.26,1.16-1.88l.93-1.47,1.14-1.8,1-1.5c.37-.58.75-1.16,1.13-1.73s.66-1,1-1.52.73-1.11,1.1-1.66.69-1,1-1.55l.77-1.15A77.34,77.34,0,0,1,678.88,579C674.34,585.28,669.94,591.45,665.92,597.24Z"/><path class="cls-9" d="M399.67,222.72a131.28,131.28,0,0,1-51.22.82s18.63-19.45,45.64-25.55,52.18,3.45,52.18,3.45A131.43,131.43,0,0,1,399.67,222.72Z"/><path class="cls-9" d="M427.72,159c-35.39,1.07-64.48-11.48-64.48-11.48s28.11-19.86,63.5-20.93S491.4,143.6,491.4,143.6,463.11,157.88,427.72,159Z"/><path class="cls-9" d="M574.85,138.73c-9.26,34.17-29.73,58.36-29.73,58.36s-10.82-32.67-1.56-66.85,35.12-56.9,35.12-56.9S584.12,104.56,574.85,138.73Z"/><path class="cls-9" d="M466.29,235.64a144,144,0,0,1-16.58,53.7s-13.94-26-11.12-56.29,21.34-53.26,21.34-53.26A144.12,144.12,0,0,1,466.29,235.64Z"/><path class="cls-9" d="M418.62,293.24a124.25,124.25,0,0,1-21.83,43.2s-8.08-24.12-1.32-49.4,25.82-42.14,25.82-42.14A124.06,124.06,0,0,1,418.62,293.24Z"/><path class="cls-9" d="M522.13,188.76c-2.68,35.3-18.23,62.91-18.23,62.91s-16.78-30.06-14.1-65.36,23.79-62.49,23.79-62.49S524.8,153.45,522.13,188.76Z"/><path class="cls-9" d="M497.17,110.05c-35.3,2.76-65-8.39-65-8.39s27.13-21.18,62.43-23.93,65.4,14,65.4,14S532.47,107.29,497.17,110.05Z"/><path class="cls-9" d="M551.66,63.13c-35.29-2.93-62.78-18.69-62.78-18.69s30.18-16.55,65.47-13.62,62.31,24.26,62.31,24.26S586.94,66.07,551.66,63.13Z"/><path class="cls-9" d="M595,64.22c53.6-30.9,97.38-45.16,98-45.35a2.49,2.49,0,1,1,1.52,4.74c-.81.26-82.26,26.81-158.79,86.19-58,45-98.2,96.73-119.43,153.72a2.49,2.49,0,0,1-4.67-1.73c21.57-57.88,62.29-110.34,121-155.93A549.71,549.71,0,0,1,595,64.22Z"/><path class="cls-9" d="M599.23,284.16a106.88,106.88,0,0,1-34.6,23.26s4.09-21.52,19.82-37.66S621.6,249,621.6,249A107,107,0,0,1,599.23,284.16Z"/><path class="cls-9" d="M590.1,228.2A136.7,136.7,0,0,1,541,248.94s10.39-26,34.08-42.43,51.69-17,51.69-17A136.59,136.59,0,0,1,590.1,228.2Z"/><path class="cls-9" d="M676.51,150.21a136.72,136.72,0,0,1-6.94,52.85s-17.19-22.12-19.37-50.86S661.67,99,661.67,99A136.7,136.7,0,0,1,676.51,150.21Z"/><path class="cls-9" d="M703.4,93.13A136.79,136.79,0,0,1,696.46,146s-17.19-22.13-19.38-50.86,11.47-53.21,11.47-53.21A136.61,136.61,0,0,1,703.4,93.13Z"/><path class="cls-9" d="M650.42,263.44a117.26,117.26,0,0,1,12.5,44S641.85,295.86,630.37,274s-9-45.82-9-45.82A117.25,117.25,0,0,1,650.42,263.44Z"/><path class="cls-9" d="M643.42,323.89a101,101,0,0,1,4.25,39.17s-16.21-12.88-22.8-33.13-1.06-40.21-1.06-40.21A101,101,0,0,1,643.42,323.89Z"/><path class="cls-9" d="M667.76,206.69a136.79,136.79,0,0,1,15.45,51s-24.78-13.08-38.61-38.36-11.46-53.2-11.46-53.2A136.64,136.64,0,0,1,667.76,206.69Z"/><path class="cls-9" d="M615.83,164a136.65,136.65,0,0,1-48.06,23.07s9.13-26.49,32-44,50.82-19.46,50.82-19.46A136.74,136.74,0,0,1,615.83,164Z"/><path class="cls-9" d="M632.22,107.85a136.59,136.59,0,0,1-51.13,15.07s13.26-24.68,38.65-38.32S673,73.53,673,73.53A136.68,136.68,0,0,1,632.22,107.85Z"/><path class="cls-9" d="M662.27,89.38c22.89-44.85,46.46-74,46.78-74.39a2,2,0,0,1,3.15,2.56c-.44.54-44.27,54.77-70.19,129.23-19.65,56.44-24.15,109.56-13.37,157.88a2,2,0,0,1-4,.88c-10.94-49.07-6.4-102.93,13.5-160.09A448.06,448.06,0,0,1,662.27,89.38Z"/><path class="cls-9" d="M270.6,534.24a121.08,121.08,0,0,0,1.26,47.24s17.19-17.92,21.75-43.05-5.21-48-5.21-48A121.16,121.16,0,0,0,270.6,534.24Z"/><path class="cls-9" d="M310,478.15a154.86,154.86,0,0,0,21.54,56.45s13.14-28.91,8-61.16-26.62-55.63-26.62-55.63A154.75,154.75,0,0,0,310,478.15Z"/><path class="cls-9" d="M270.76,350.69a154.92,154.92,0,0,0-31.12,51.78S270.49,395,292.69,371s27.36-55.28,27.36-55.28A155,155,0,0,0,270.76,350.69Z"/><path class="cls-9" d="M254.17,482.62a132.82,132.82,0,0,0-33.61,39.47s27.17-2,49.32-19.18,30.92-43,30.92-43A132.92,132.92,0,0,0,254.17,482.62Z"/><path class="cls-9" d="M232.9,548.22a114.57,114.57,0,0,0-22.84,38.37s22.78-5.64,39.11-23.41,20-40.94,20-40.94A114.5,114.5,0,0,0,232.9,548.22Z"/><path class="cls-9" d="M263.05,416a155.09,155.09,0,0,0-40,45.31s31.7-1.81,57.87-21.35,36.89-49.43,36.89-49.43A155,155,0,0,0,263.05,416Z"/><path class="cls-9" d="M336.67,396.47a155.17,155.17,0,0,0,38.66,46.43s3.07-31.61-12.24-60.45-43.21-44-43.21-44A155,155,0,0,0,336.67,396.47Z"/><path class="cls-9" d="M346.25,330.84a154.92,154.92,0,0,0,45.6,39.63s-2-31.68-21.77-57.7-49.7-36.52-49.7-36.52A154.79,154.79,0,0,0,346.25,330.84Z"/><path class="cls-9" d="M276.84,281.81a155.12,155.12,0,0,0-21.66,56.4S284.27,325.47,302,298s17.34-59.19,17.34-59.19A154.88,154.88,0,0,0,276.84,281.81Z"/><path class="cls-9" d="M324,297.65c-2.46-57-13-98.15-13.16-98.71a2.29,2.29,0,1,0-4.44,1.16c.19.76,19.81,77.3,11.43,166.26-6.35,67.42-26.74,124.28-60.62,169a2.3,2.3,0,1,0,3.66,2.78c34.4-45.41,55.1-103.07,61.54-171.35A509.79,509.79,0,0,0,324,297.65Z"/><circle class="cls-9" cx="906.61" cy="689.25" r="12.22"/><circle class="cls-9" cx="951.72" cy="557.5" r="4.89"/><circle class="cls-9" cx="1027.32" cy="623.51" r="7.81"/><circle class="cls-9" cx="776.06" cy="779.51" r="5.61"/><circle class="cls-9" cx="793.42" cy="576.49" r="6.11"/><circle class="cls-9" cx="924.38" cy="791.67" r="8.89"/><circle class="cls-9" cx="1006.89" cy="392.67" r="2.99"/><circle class="cls-9" cx="1035.13" cy="442.9" r="7.81"/><circle class="cls-9" cx="792.81" cy="860.56" r="5.49"/><path class="cls-17" d="M519,656.56c-5,19.6-7.32,38.93-2.78,56.27-43.78-23.6-165.14-85.39-200.78-65.5C271.74,671.75,289,789.76,300.22,843.68c8.06,38.79,18,77.54,22.95,96.22l27-1.09c-1.83-39.25,20.25-115,17.59-143.13-5.16-54.62-12.45-70.87-12.45-70.87s87.54,86.68,147.28,111.05c62.74,25.59,116.83,20.87,147.25-5.05,28.46-24.24,28.58-52.25,11-91.47-3-6.75-16.39-31.62-17.42-60.43Z"/><path class="cls-11" d="M346.55,708s10.31,38.6,7.75,96.29c-1.47,33.1-16.63,106.29-13.32,134.86l9.18-.37c-1.83-39.25,20.25-115,17.59-143.13-2.57-27.17-5.66-44.84-8.12-55.74l-4.33-15.13S351.93,712.82,346.55,708Z"/></svg>