<svg id="Layer_1" data-name="Layer 1" xmlns="http://www.w3.org/2000/svg" xmlns:xlink="http://www.w3.org/1999/xlink" viewBox="0 0 1280 1024"><defs><style>.cls-1{fill:none;}.cls-2{clip-path:url(#clip-path);}.cls-3{fill:#e0deff;}.cls-4{fill:#ffd2e4;}.cls-5{fill:#b75858;}.cls-6{clip-path:url(#clip-path-2);}.cls-7{fill:#ff7db2;}.cls-8{fill:#562c15;}.cls-9{fill:#edbed6;}.cls-10{fill:#e5b5cb;}.cls-11,.cls-20{fill:#fff;}.cls-12{fill:#994a4a;}.cls-13{fill:#9e4a4a;}.cls-14{fill:#42210b;}.cls-15{fill:#ff94bd;}.cls-16{fill:#ffd9e8;}.cls-17{fill:#ffc0d7;}.cls-18{fill:#ffdce4;}.cls-19{fill:#b74b4b;}.cls-20{opacity:0.5;}.cls-21{fill:#ffcad8;}.cls-22{fill:#e6e6e6;opacity:0.3;}.cls-23{fill:#ce5b5b;}</style><clipPath id="clip-path"><circle class="cls-1" cx="642.61" cy="498.07" r="435.77"/></clipPath><clipPath id="clip-path-2"><circle class="cls-1" cx="642.61" cy="-643.46" r="435.77"/></clipPath></defs><title>what [Recovered]</title><g class="cls-2"><rect class="cls-3" x="30" y="-5.51" width="1280" height="1035.1"/><path class="cls-4" d="M1040.13,1112.81S1124.55,999,1214,1009.26s92.43,57.22,79.22,99.76-135.74,141-135.74,141l141.53-36.32s-9.34-9.72-8.1-13.44c2.88-8.63,90.78-16.34,90.78-12.78,0,3.9-161.49,110.27-212.49,131.12-46.45,19-118.35,28.92-140.54,0s1.35-109.6,72.63-163.4Z"/><path class="cls-5" d="M1040.13,1112.81S1124.55,999,1214,1009.26s92.43,57.22,79.22,99.76-135.74,141-135.74,141L1281,1218.3l17.06,26.16c-47.56,30.29-103.71,64.45-129.85,75.13-46.45,19-117.33,27.9-139.52-1s2.36-104.38,69.57-166.46Z"/></g><g class="cls-6"><path class="cls-4" d="M1040.13-28.72S1124.55-142.54,1214-132.27s92.43,57.22,79.22,99.76-135.74,141-135.74,141l141.53-36.31s-9.34-9.72-8.1-13.45c2.88-8.62,90.78-16.33,90.78-12.77,0,3.9-161.49,110.27-212.49,131.12-46.45,19-118.35,28.92-140.54,0s1.35-109.6,72.63-163.4Z"/><path class="cls-7" d="M824.26,192.74c3.81,2.78,1.36,5.72-1.42,9.54s-4.82,7.05-8.64,4.28-14.44-15.24-11.66-19.06S820.44,190,824.26,192.74Z"/><path class="cls-4" d="M924.15,95.63s-8.62,19.7-27.3,21.23A109.74,109.74,0,0,0,886.64,107c-31.43-27.1-69.91-28.18-89.42-21.68s-35.29,53.78-28.78,76.54,81.2,52.81,94.42,50.88c9.36-1.37,21.33-31.54,28.31-42.14,3.9-5.92,7.93-8.86,24.19-14.83s39.56-4.87,39.56-4.87Z"/><path class="cls-8" d="M827.05,58.89c2.67,18-7.06,21.7-20.84,24.64s-26.32-1.08-29.07-14S784,47,797.8,44,825.1,45.79,827.05,58.89Z"/><path class="cls-9" d="M888.7,160.83c-10.36,11.51-23.09,39.87-23.16,50.81,8.87-5.73,19.3-31.44,25.63-41,3.9-5.92,7.93-8.86,24.19-14.83s39.56-4.87,39.56-4.87L938.81,143S902.91,145,888.7,160.83Z"/><path class="cls-4" d="M983.52,26.82c-22.64,20.32-88.79,69.78-50.9,120.3S1021,233.23,1026.77,247s-40.44,132.8-40.44,132.8-22.55-2.76-25.66-2c-6.11,1.42-32.35,17.07-30.08,20.77.69,1.13,11.86,1.63,25,1.65,5,0,10.27,0,15.36-.16,5.47-.13,10.71-.33,15.15-.58,5.87-.34,10.34-.78,12-1.29,7.65-2.31,87.73-136.71,85.29-148.9-.75-3.76-9.25-43.65-34.72-72.37C1001.8,124,1109.74,12.65,1109.74,12.65l-69.61-41.37S999.45,12.54,983.52,26.82Z"/><path class="cls-10" d="M1083.4,249.26c-.75-3.76-9.25-43.65-34.72-72.37a46.54,46.54,0,0,1-5.39-7.45c.83,4.37-1,7.11,1.24,14.08,12.34,37.9,18.11,39.35,26.67,60.79,5.1,12.78-64,124.88-73.09,138.78-6,9.13-13.84,13-10,16.23a61,61,0,0,0,10-1.16C1005.76,395.85,1085.84,261.45,1083.4,249.26Z"/><rect class="cls-5" x="1090.75" y="7.27" width="10.84" height="8.5"/><path class="cls-5" d="M1040.13-28.72S1124.55-142.54,1214-132.27s92.43,57.22,79.22,99.76-135.74,141-135.74,141L1281,76.77l17.06,26.15c-47.56,30.3-103.71,64.46-129.85,75.14-46.45,19-117.33,27.9-139.52-1s2.36-104.38,69.57-166.46Z"/><path class="cls-11" d="M1164-38.57a2,2,0,0,0-2.69-1c-27.9,12.36-53,34.36-66.68,47.7l-54.46-36.81S1010.85,1,992.25,18.7c6.86,16.89-31.67,50.79-45.59,68.67-13,16.74-25,34.1-25,34.36a50.21,50.21,0,0,0,3.66,12.91c.06-.09,15.34-20.24,24.86-30.89C962.4,90,994.42,70.13,1012.76,82c9,5.83,15.23,12,19.43,18.81,10.64-25,28.68-52.4,53.79-78.24.3-.11,12.06-12.14,12.06-12.14,13.56-13.17,37.91-34.36,64.88-46.31A2,2,0,0,0,1164-38.57Z"/><path class="cls-12" d="M1298.07,102.92,1291,92.1c-61,35.3-133,80.46-160.33,97.71a243.11,243.11,0,0,0,37.54-11.75C1194.36,167.38,1250.51,133.22,1298.07,102.92Z"/><path class="cls-13" d="M1293.26-32.51c-23.86,66.59-135.74,141-135.74,141l-40.4,17.33c-1.21-1.27,70.47-67.57,121.91-112.16C1268.25-11.71,1293.26-32.51,1293.26-32.51Z"/><path class="cls-8" d="M793.25,78.06c-21.56,11.23-31.16,24.08-33,57.91-1.91,35.28,9.65,35.3,31.05,15.52,21.23-19.64,42.14-19,54.7-11.06s-13.81-24.28-4.18-28.88,23.44,8,23,14.65,43.54,6.28,33.08-12.14S842.45,52.42,793.25,78.06Z"/><path class="cls-14" d="M827.05,58.89c-.06-.36-.12-.71-.19-1.06C822.62,68.7,801.93,79.72,793.05,84a36,36,0,0,0,13.16-.5C820,80.59,829.72,76.84,827.05,58.89Z"/><path class="cls-14" d="M864.9,126.6a1.6,1.6,0,0,0,.05.21.41.41,0,0,0,0,.09.88.88,0,0,0,.09.2l.06.08a2.14,2.14,0,0,0,.13.19l.07.08.19.19.07.06a2.23,2.23,0,0,0,.24.19l.07.06c.09.06.18.13.29.19l.07,0,.34.19,0,0,.41.2h0l.46.19h0l.53.18h0a21,21,0,0,0,3.3.75c.14-3.94-2.13-8.68-4.78-11.29a14.38,14.38,0,0,0-10.33-4.37c5,3.42,8.76,8.59,8.54,12.13,0,.1,0,.21,0,.31Z"/><path class="cls-10" d="M856.05,131.15h0c-1.48.49-3.36-.26-3.19-2,.3-3.22-.56-4.46-3.75-5.75-1.77-.72-1.89-2.35-.83-3.63h0c1.07-1.28,1.89-1.7,4.24-.7,4.24,1.81,4.8,4.4,5.47,8.46A3.31,3.31,0,0,1,856.05,131.15Z"/></g><path class="cls-15" d="M484.89,872c4.42-1.66,5.52,2,7.18,6.43s3.24,7.91-1.18,9.57-20.67,3.66-22.33-.76S480.47,873.63,484.89,872Z"/><path class="cls-16" d="M493.76,728.15s-23.23,25-32.24,41.45a108.59,108.59,0,0,0-13.86,3.09c-39.93,11.31-62,42.84-67.33,62.7s25.46,59.07,48,66.18,88.8-38.71,94.46-50.81c4-8.57-14.59-35.17-19.59-46.84-2.79-6.52-3-11.5.95-28.36s17.71-35.71,17.71-35.71Z"/><path class="cls-17" d="M493.73,800.61c3.91,15,20.57,41.23,29.66,47.31.1-10.56-15.61-33.42-20.15-44-2.79-6.52-3-11.5.95-28.36s17.71-35.71,17.71-35.71L506.45,749S488.38,780.06,493.73,800.61Z"/><path class="cls-8" d="M372.08,834.71c-2.49,24.18,2.95,39.27,30.19,59.42,28.4,21,34.78,11.38,30.05-17.37-4.7-28.53,7.33-45.65,20.89-51.75s-27.88-1.84-26.42-12.42,19.55-15.19,24.91-11.15,29.22-32.89,8.08-34.29S377.78,779.52,372.08,834.71Z"/><path class="cls-14" d="M452.06,801.63a.68.68,0,0,0,.2.07l.1,0,.21,0h.34l.1,0,.27-.05.09,0a1.61,1.61,0,0,0,.29-.09l.08,0,.32-.13.07,0,.35-.18,0,0,.38-.23,0,0,.41-.28,0,0c.15-.1.29-.22.44-.34h0a21.55,21.55,0,0,0,2.43-2.33c-3.2-2.29-8.41-3-12.05-2.23a14.39,14.39,0,0,0-9.34,6.21c5.61-2.3,12-2.58,14.83-.45a1.2,1.2,0,0,0,.27.16Z"/><path class="cls-10" d="M451,811.52h0c-.41,1.51-2.06,2.66-3.45,1.55-2.52-2-4-2-6.87,0-1.57,1.08-3,.29-3.48-1.3h0c-.48-1.6-.38-2.52,1.75-3.93,3.85-2.54,6.32-1.58,10.07.09A3.32,3.32,0,0,1,451,811.52Z"/><path class="cls-8" d="M374.69,796c16.46,7.65,14.23,17.84,9.09,31s-15.38,21.37-27.71,16.54-15-18.15-9.87-31.27S362.68,790.36,374.69,796Z"/><path class="cls-14" d="M353.93,842.48a22,22,0,0,0,2.14,1c12.33,4.83,22.57-3.42,27.71-16.54,3.09-7.88,5.12-14.71,2.68-20.56C382,821.3,366.74,837.4,353.93,842.48Z"/><path class="cls-18" d="M1017.48,730.3c-24.33-39.73-49.87-57.63-80.93-98.24S865.25,409,769.6,406,731,557.69,731,557.69l11-13.91c16.43,42.35,132,130.29,151.34,162.31,10.57,17.45,35.36,35.28,41.93,42.43,17.33,18.86,131.51,180.59,131.51,180.59s-65,25.43-62.18,29c2.67,3.39,90.22-1.45,93.16-6.5C1102.27,943.79,1041.81,770,1017.48,730.3Z"/><path class="cls-19" d="M936,749.4l.73.85c.06.06.11.13.16.19l.84,1,.08.11c.29.34.59.71.9,1.09l.12.14,1,1.23.2.25,1.06,1.33.19.24,1.17,1.49h0l1.28,1.64.19.25,1.28,1.66.26.33c.44.58.89,1.17,1.36,1.77l.15.2,1.36,1.78.22.3c.47.62,1,1.26,1.45,1.92l.33.43,1.5,2,.27.36c.52.68,1,1.38,1.57,2.09l.1.14,1.7,2.27.28.37,1.72,2.31.26.35,1.81,2.44.14.19c.6.8,1.2,1.62,1.8,2.44l.21.28,1.87,2.53c.11.15.22.29.32.44l1.88,2.54.34.47,1.92,2.61.06.08,2,2.79.3.4,2,2.74.35.49,2.07,2.82.11.16,2.08,2.85.25.35q1,1.41,2.07,2.85l.4.53,2.12,2.93.21.29,4.59,6.33.19.26,2.22,3.08.35.48,4.48,6.19.36.5c.71,1,1.43,2,2.14,3l.42.57,2.18,3,.32.45,2.13,2.95a1.88,1.88,0,0,0,.16.23l2.31,3.21c.07.1.14.21.22.31l2.21,3.08.41.57,2.18,3,.16.21,2.22,3.11.18.24,2.22,3.11.33.46c.73,1,1.46,2,2.18,3l.2.27,2.23,3.11.05.08c.78,1.08,1.55,2.16,2.31,3.23l.1.14c.75,1,1.49,2.08,2.22,3.11l.2.27,4.28,6,.33.47,6.45,9a.91.91,0,0,0,.11.16q2.05,2.9,4,5.66l.33.47,5.64,7.93.23.32,1.69,2.38.17.24,5,7c.17.23.34.46.5.7l.49.69,1,1.41,1.19,1.67,0,.05,5.25,7.4,29.89-1.84-.06-.2c-.23-.74-.46-1.5-.69-2.26,0-.15-.09-.29-.13-.43-.2-.67-.41-1.34-.62-2-.06-.19-.11-.37-.17-.55-.24-.79-.49-1.57-.74-2.37l-.15-.5c-.22-.68-.43-1.37-.65-2.07-.06-.2-.13-.4-.19-.6-.26-.83-.53-1.66-.8-2.51l-.12-.37-.72-2.27c-.07-.2-.13-.41-.2-.61-.28-.87-.56-1.74-.85-2.62l-.12-.37c-.25-.79-.51-1.58-.77-2.37-.07-.21-.13-.42-.2-.62-.3-.91-.59-1.81-.9-2.73,0-.11-.07-.22-.11-.33l-.81-2.46c-.08-.24-.16-.47-.23-.71l-.93-2.78-.09-.27-.87-2.6-.24-.71c-.32-.95-.65-1.9-1-2.86l-.08-.23c-.3-.9-.61-1.8-.92-2.71-.08-.24-.16-.48-.25-.72-.33-1-.67-2-1-2.95l0-.06-1-2.91c-.08-.25-.17-.49-.26-.74q-1-3-2.07-6c-.1-.27-.19-.54-.28-.8-.35-1-.7-2-1.06-3h0l-1.08-3.07c-.09-.24-.17-.49-.26-.73l-1-3,0-.13-1.09-3.07c-.09-.25-.18-.49-.26-.73-.35-1-.69-1.91-1-2.86L1066,846c-.36-1-.73-2-1.1-3.07l-.27-.75-1.07-2.94-.06-.16c-.38-1-.76-2.09-1.15-3.13-.08-.24-.17-.47-.26-.71-.33-.92-.67-1.84-1-2.77l-.15-.4c-.38-1-.76-2.05-1.13-3.07l-.27-.72c-.35-.92-.69-1.84-1-2.76l-.14-.38c-.38-1-.77-2-1.15-3.07l-.27-.72-1-2.69-.17-.44-1.14-3c-.1-.24-.19-.48-.28-.72l-1-2.62-.18-.49-1.14-3c-.1-.25-.19-.5-.29-.74-.33-.86-.65-1.71-1-2.56-.07-.16-.13-.33-.2-.5l-1.13-2.93c-.1-.23-.19-.47-.28-.7-.33-.84-.65-1.67-1-2.5-.07-.18-.14-.35-.2-.53l-1.14-2.88-.27-.68-1-2.4-.23-.57-1.14-2.84c-.07-.18-.14-.37-.22-.55-.32-.81-.65-1.63-1-2.43-.07-.19-.15-.37-.22-.55l-1.11-2.74-.24-.59-.94-2.29-.24-.59q-.56-1.35-1.11-2.67l-.2-.48c-.32-.77-.64-1.53-1-2.29-.08-.18-.16-.36-.23-.54-.37-.87-.73-1.74-1.09-2.6-.07-.14-.13-.29-.19-.44l-.93-2.18c-.08-.19-.16-.38-.25-.57-.35-.83-.7-1.65-1.06-2.47l-.18-.43c-.3-.7-.61-1.39-.91-2.08l-.24-.56-1-2.34-.18-.4-.88-2c-.08-.19-.17-.37-.25-.55-.33-.75-.67-1.49-1-2.22,0-.12-.11-.24-.17-.36-.28-.63-.57-1.25-.85-1.87l-.24-.53-1-2.09-.12-.25c-.29-.62-.57-1.22-.86-1.82-.08-.17-.16-.33-.23-.5l-.95-2-.09-.2c-.28-.58-.57-1.15-.84-1.71l-.23-.46-.9-1.8-.09-.16c-.27-.54-.54-1.07-.81-1.58l-.21-.42c-.29-.56-.58-1.11-.87-1.64l-.05-.1-.79-1.47-.21-.38-.82-1.47,0,0-.77-1.34-.2-.33c-.26-.45-.52-.88-.77-1.29-24.33-39.73-49.87-57.63-80.93-98.24S865.25,409,769.6,406,731,557.69,731,557.69l11-13.91c16.43,42.35,132,130.29,151.34,162.31,10.57,17.45,35.36,35.28,41.93,42.43l.68.75A.69.69,0,0,0,936,749.4Z"/><path class="cls-18" d="M1037.51,739.5c-23.47-40.25-48.62-58.69-78.8-100S878.87,397.12,783.3,392.09s-114.67,94.22-114.67,94.22-19.92,56.57-44.49,91.11c-15.65,22-65.92,79.08-106.45,109.65-2.89,2.19-3.89,3.19-6,4.56-3.24,2.13-15.57,15.77-27.57,32.47l0,0h0c-7.73,10.77-14.7,23-17.48,34.82-4.58,19.46-47.09,78.26-66.27,97.71s-69.11,47.4-87.32,59.41-56.75,45.16-70.57,45.83c-8.32.4-25.9-10-31.91-7.53-11.57,4.71-25.45,13.38-36.51,23.38-5.52,5-.28,6.24,18.35,5.42,24.72-1.1,52.17.28,59.65-4.8s135.89-43.88,149.64-56.46,79.32-74.42,87.57-85.45,40.89-37.24,52.18-42.57,76.5-.79,91.15-4.82c7.85-2.16,23.65-6.2,28.47-25.83,9.47-30.48,16.16-28.68,35.89-51.8,11.91-13.94,22.93-22.32,26.26-39.31,2.67-13.61,2.48-25.34,7.54-43.85,8.83-32.22,24-67.51,24-67.51l11.3-13.67c15.52,42.69,129.13,133.1,147.82,165.52,10.19,17.68,34.6,36,41,43.32,16.92,19.23,127.61,183.38,127.61,183.38s-65.54,24-62.79,27.68c2.59,3.44,90.22.48,93.27-4.5C1117.7,954.75,1061,779.74,1037.51,739.5Z"/><path class="cls-20" d="M243.35,967.67c9.25-.68,52.85-29.95,68.5-41.62,17-12.67,61.59-38.42,74.7-48.31s37.43-37.6,49.78-55.57c11.72-17,30.93-42.31,37.36-63.12s24.4-48.66,64.07-79.58c29.82-23.24,54.64-63.65,54.64-63.65h0c-21.87,24.34-50.08,52.69-74.71,71.26-2.89,2.19-3.89,3.19-6,4.56-3.24,2.13-15.57,15.77-27.57,32.47l0,0h0c-7.73,10.77-14.7,23-17.48,34.82-4.58,19.46-47.09,78.26-66.27,97.71s-69.11,47.4-87.32,59.41-56.75,45.16-70.57,45.83c-8.32.4-25.9-10-31.91-7.53-11.57,4.71-25.45,13.38-36.51,23.38,0,0,26.55-16.82,39.08-17.36S235.49,968.24,243.35,967.67Z"/><path class="cls-21" d="M612.41,790.81h0c-14.16.16-34.11-11-69.39-3.62-33.48,7-123.07,117.25-148.89,131.65-20.48,11.42-73.3,29.66-109.92,42.42s-42.67,20.06-42.67,20.06l2.16-.32c3.69-.6,6.58-1.43,8.35-2.63,7.47-5.08,135.89-43.88,149.64-56.46s79.32-74.42,87.57-85.45,40.89-37.24,52.18-42.57C549.76,790,587.34,791.39,612.41,790.81Z"/><path class="cls-21" d="M1066.21,910.44l-10.13,3.62c6.64,9.37,10.65,15.05,10.65,15.05s-61.77,24.17-62.25,28.71l.07.31s71.6-21.92,72.41-26C1077.45,929.7,1066.21,910.44,1066.21,910.44Z"/><path class="cls-21" d="M1084.77,929.7l-8.55.34,6.27,9.28s-65.54,24-62.79,27.68c0,0,71.48-21.2,72-24.13C1091.91,941.23,1084.77,929.7,1084.77,929.7Z"/><path class="cls-11" d="M676.64,461.89a132.57,132.57,0,0,0-8,24.42s-19.92,56.57-44.49,91.11c-9.36,13.17-31.09,38.86-55.72,63.92a4.77,4.77,0,0,1-1,1c4.34,18.64-14.82,46.92-43.81,58.48a285.37,285.37,0,0,0-33.94,15.78c-1.84,2.41-3.71,4.92-5.57,7.51l0,0h0c-2.6,3.63-5.12,7.43-7.42,11.32C487.48,729,503,721.09,518.3,717.66c27.67-6.2,46.66.82,54.2,13.32,5.32,8.81,9.25,39.94-14.81,60.5,23.71-1.23,63.8.64,74.9-2.41,7.85-2.16,23.65-6.2,28.47-25.83,9.47-30.48,16.16-28.68,35.89-51.8,11.91-13.94,22.93-22.32,26.26-39.31,2.67-13.61,2.48-25.34,7.54-43.85,8.83-32.22,24-67.51,24-67.51l4.71-5.69C731.24,518.57,697,478.11,676.64,461.89Z"/><path class="cls-22" d="M754.75,560.77l4.71-5.69c-2.19-2.84-4.43-5.7-6.68-8.56a35.54,35.54,0,0,0-4.73,7.12c-6.89,13.8-13.53,34-18.73,62.17-3.2,17.33-3.46,27.14-2.75,32.7a166.18,166.18,0,0,1,4.18-20.23C739.58,596.06,754.75,560.77,754.75,560.77Z"/><path class="cls-23" d="M955.65,756.84l.72.87.15.19c.26.32.53.65.81,1l.09.11.87,1.11a.76.76,0,0,1,.11.14l1,1.25.19.25,1,1.36.19.24,1.14,1.52h0l1.24,1.67.19.24,1.24,1.69c.09.11.17.23.26.35l1.31,1.79.15.21,1.32,1.81.22.29,1.41,1.95c.1.15.21.29.32.44l1.46,2,.25.36,1.54,2.13.09.13,1.65,2.31.27.38c.55.77,1.11,1.55,1.67,2.35l.25.35,1.76,2.48.14.2,1.75,2.47.2.28,1.82,2.58.31.44,1.82,2.58.33.48,1.86,2.65.06.08c.65.94,1.32,1.88,2,2.83.1.14.19.28.29.41l1.94,2.78.35.5c.66,1,1.32,1.9,2,2.86l.1.16,2,2.9.25.36,2,2.88.38.55,2.06,3,.21.3,4.45,6.42.18.27,2.16,3.12c.11.16.22.33.34.49l4.34,6.29.35.51,2.08,3,.4.58,2.11,3.07.32.46,2.06,3,.16.23c.74,1.09,1.49,2.17,2.24,3.26l.21.31,2.15,3.13.39.58,2.12,3.09.15.21,2.16,3.16.17.24,2.16,3.16.31.46,2.12,3.1a2.75,2.75,0,0,1,.19.28c.73,1.05,1.44,2.1,2.16,3.15l.06.08,2.24,3.28.09.14,2.16,3.16.19.28,4.14,6.08c.11.16.22.31.32.47l6.26,9.18.11.16,3.9,5.75.33.47,5.47,8,.21.32,1.64,2.42.17.24,4.84,7.15.49.71.47.7,1,1.43,1.15,1.69,0,.06c1.91,2.82,3.62,5.33,5.09,7.51l29.92-1.2-.05-.2c-.21-.75-.43-1.51-.64-2.28l-.13-.43c-.18-.67-.38-1.34-.57-2,0-.19-.11-.37-.16-.56l-.68-2.38-.15-.5-.61-2.09c-.05-.2-.11-.39-.17-.6-.25-.83-.49-1.67-.74-2.53,0-.12-.08-.24-.11-.37-.23-.75-.45-1.52-.68-2.28-.06-.21-.12-.41-.19-.62-.26-.87-.52-1.75-.79-2.64,0-.12-.07-.24-.11-.37l-.72-2.38c-.06-.21-.13-.42-.19-.63-.28-.91-.55-1.82-.84-2.75,0-.11-.06-.22-.1-.33-.25-.82-.5-1.65-.76-2.48-.07-.23-.14-.47-.22-.71-.28-.93-.57-1.86-.87-2.8l-.08-.28c-.27-.86-.54-1.73-.82-2.61-.07-.24-.15-.48-.22-.72-.3-.95-.6-1.91-.91-2.88a1.87,1.87,0,0,0-.07-.22c-.28-.91-.57-1.82-.86-2.73-.08-.25-.15-.49-.23-.73-.32-1-.63-2-1-3l0-.06c-.31-1-.62-2-.94-2.93l-.24-.75q-1-3-2-6c-.08-.26-.17-.53-.26-.8l-1-3h0c-.34-1-.67-2.06-1-3.09-.09-.25-.17-.49-.25-.74l-1-3,0-.13c-.34-1-.68-2.06-1-3.1-.08-.24-.16-.49-.25-.73l-1-2.88-.1-.29c-.34-1-.69-2.06-1-3.09-.08-.25-.17-.51-.26-.76-.33-1-.66-2-1-3l-.06-.16c-.35-1-.71-2.11-1.07-3.16-.08-.24-.17-.48-.25-.71l-1-2.79c0-.14-.1-.27-.14-.41l-1.07-3.09c-.09-.24-.17-.49-.26-.73l-1-2.78-.14-.39-1.08-3.08-.25-.73-1-2.71-.15-.45-1.08-3c-.09-.25-.18-.49-.26-.73-.32-.89-.63-1.77-1-2.65,0-.16-.11-.32-.17-.48-.36-1-.72-2-1.07-3l-.27-.74-.93-2.58c-.07-.17-.13-.33-.19-.5-.35-1-.71-2-1.07-3-.09-.24-.18-.48-.26-.72l-.93-2.52-.19-.52c-.36-1-.72-1.94-1.07-2.91l-.26-.68-.9-2.43c-.07-.19-.14-.38-.22-.57-.35-1-.71-1.92-1.07-2.87l-.21-.55-.93-2.46-.21-.55c-.35-.92-.7-1.85-1-2.76l-.23-.59c-.3-.78-.59-1.55-.89-2.32-.08-.19-.15-.39-.23-.59l-1-2.69c-.06-.16-.12-.33-.19-.49l-.9-2.31-.22-.54c-.34-.88-.69-1.75-1-2.62l-.18-.44c-.3-.74-.59-1.48-.89-2.21-.07-.19-.15-.38-.23-.57-.33-.84-.67-1.67-1-2.49l-.18-.43-.86-2.1c-.08-.19-.16-.38-.23-.57l-1-2.36-.18-.41c-.28-.67-.55-1.33-.83-2l-.24-.55c-.32-.76-.63-1.5-1-2.24l-.16-.37-.81-1.88-.23-.53-.94-2.12a1.89,1.89,0,0,0-.11-.25c-.27-.62-.55-1.24-.82-1.84-.07-.17-.15-.34-.23-.5l-.89-2-.1-.2c-.27-.59-.53-1.17-.8-1.74-.07-.15-.14-.3-.22-.45-.29-.62-.57-1.23-.86-1.82,0-.06-.05-.12-.08-.17-.26-.55-.52-1.08-.78-1.6l-.21-.42c-.27-.57-.55-1.12-.82-1.66l0-.1-.76-1.48c-.07-.13-.14-.26-.2-.39l-.79-1.48,0,0c-.25-.47-.5-.92-.75-1.36l-.18-.33c-.25-.45-.5-.89-.75-1.3-23.47-40.25-48.62-58.69-78.8-100S878.87,397.12,783.3,392.09s-114.67,94.22-114.67,94.22-3.39,9.64-9.1,23.38c9.62,10.68,79.93,66.15,86.94,71.67,2-5.25,3.83-9.79,5.23-13.25,1.78-4.62,3-7.34,3-7.34l11.3-13.67c15.52,42.69,129.13,133.1,147.82,165.52,10.19,17.68,34.6,36,41,43.32l.66.77Z"/><path class="cls-13" d="M776.5,557.74c.67-10.39-7.6-23-10.44-21.25a48.53,48.53,0,0,0-17.67,17.34c-3.48,5.81-6.34,13.15-9.16,21.81l7.24,5.72c2-5.25,3.83-9.79,5.23-13.25a47.7,47.7,0,0,1,3.42-7.27l11.3-12.77c1.91,5.28,5,10.3,9.51,16.83C775.93,564.88,776.23,561.9,776.5,557.74Z"/><path class="cls-13" d="M955.54,756.71l.11.13,0,0c.48.57,1,1.22,1.58,1.94l.06.08.09.11,0,0c.62.79,1.29,1.66,2,2.61l.08.1,0,.05.95,1.25,0,.06,0,0,1.24,1.65,0,.07h0l.15.2,1.26,1.7h0c.86,1.15,1.76,2.38,2.7,3.67l.11.15.14.18,2.93,4,0,0,.11.16q1.62,2.24,3.34,4.64l.12.16.09.13.12.18c1.12,1.56,2.28,3.18,3.46,4.85h0l.25.35h0l3.69,5.22.15.21.13.19,4,5.7.13.19v0c1.28,1.81,2.57,3.66,3.89,5.54h0l0,0,2.08,3,.13.19.08.12,2.24,3.21,0,0,0,0,4.66,6.71.08.11,0,.06,1.83,2.64.19.27.21.3.12.18q3.45,5,7,10.07l0,0,0,0,4.55,6.59.12.17.2.29,2.06,3,.22.32.22.32,1.58,2.3.31.45.13.18,2,2.9.26.38.16.23.35.51,1.61,2.35c.09.13.18.27.28.4l.21.31.06.09,2.31,3.37a2.2,2.2,0,0,1,.17.25l.4.57,1.67,2.44,0,.08.15.21,0,0,1.39,2,.75,1.1.17.24.9,1.32.58.84.68,1,.31.46.3.43,1.77,2.59,0,.08a2.75,2.75,0,0,1,.19.28l.83,1.2.64.94.69,1,.06.08.27.41c.67,1,1.33,1.93,2,2.9l.08.11,2.16,3.16.19.28.46.68,3.27,4.8c.14.19.28.4.41.6s.22.31.32.47.4.57.59.86l1.66,2.43,1.9,2.79c.51.76,1,1.51,1.54,2.26.18.28.38.57.57.84l.11.16,2.66,3.92.52.77c.24.35.49.71.72,1.06l.33.47c.15.22.28.43.43.64l1.77,2.6,1.24,1.83,1.71,2.51c.1.16.21.32.32.47l.21.32,1.64,2.42.17.24.28.41c.65,1,1.3,1.92,1.93,2.85l.71,1.05,1.84,2.71.08.13.35.51.08.12.06.08.25.38c.4.58.79,1.17,1.18,1.73v0l1.15,1.69,0,.06.11.16c1.86,2.75,3.53,5.22,5,7.35l8.55-.34c-31.36-47.81-85-129.66-93.5-143.53-9.49-15.4-26.94-36.57-46.63-58.54-5.2-5.8-10.55-11.65-16-17.48-25.16-27.1-49.42-52.44-66.16-68.81-75-73.34-75-73.34-91.56-104.76-2-3.68-16.36-46.46-16.21-44.89,4.71,47.26,11.3,55.41,11.3,55.41,15.52,42.69,129.13,133.1,147.82,165.52.47.81,1,1.62,1.49,2.43l.32.48c.51.78,1.05,1.57,1.61,2.35l.31.42c.53.74,1.09,1.48,1.66,2.21l.21.27c.61.79,1.25,1.58,1.91,2.36.13.17.27.33.41.49.66.78,1.32,1.56,2,2.33l.21.24c.58.65,1.16,1.31,1.76,1.94.21.21.4.42.6.64.7.75,1.42,1.5,2.14,2.24l.43.45c.74.75,1.48,1.5,2.23,2.24l0,0c2,2,4,3.92,6,5.76v0l.22.2,2,1.81.37.33c.62.58,1.25,1.15,1.86,1.7l.74.67c.17.16.34.32.52.47l.84.76.14.13c1.13,1,2.22,2,3.25,2.93l.14.12,1,.94.17.15,1.11,1,0,0,.94.87.28.26.69.65.25.23.85.82,0,0,.71.7.21.22.5.52.2.2c.21.23.41.44.59.65l.65.76Z"/><ellipse class="cls-11" cx="436.18" cy="375.75" rx="66.65" ry="13.66" transform="translate(-77.92 634.87) rotate(-67.49)"/><ellipse class="cls-11" cx="453.81" cy="456.82" rx="68.3" ry="14" transform="translate(-186.95 393.13) rotate(-39.51)"/><ellipse class="cls-11" cx="454.46" cy="544.74" rx="73.57" ry="15.08" transform="translate(-137.34 153.53) rotate(-16.7)"/><ellipse class="cls-11" cx="410.4" cy="645.11" rx="76.51" ry="15.68" transform="translate(-270.28 296.88) rotate(-30.44)"/><ellipse class="cls-11" cx="312.4" cy="668.65" rx="76.51" ry="15.68" transform="translate(-361.69 969.15) rotate(-88.98)"/><ellipse class="cls-11" cx="409.8" cy="321.03" rx="11.4" ry="55.64"/><ellipse class="cls-11" cx="363.77" cy="409.8" rx="13.66" ry="66.65" transform="translate(-177.61 325.09) rotate(-39.51)"/><ellipse class="cls-11" cx="342.76" cy="490.18" rx="13.67" ry="66.69" transform="translate(-253.62 444.48) rotate(-50.65)"/><ellipse class="cls-11" cx="340.22" cy="554.96" rx="16" ry="78.1" transform="matrix(0.95, -0.32, 0.32, 0.95, -160.31, 138.79)"/><path class="cls-11" d="M270.36,814.5l.29.26a2.49,2.49,0,0,0,3.5-.49c.38-.49,37.45-50,72.76-131.77A818.46,818.46,0,0,0,394.74,535,738.7,738.7,0,0,0,412,348.27a2.5,2.5,0,0,0-5,.18,733.46,733.46,0,0,1-17.14,185.4,813.46,813.46,0,0,1-47.5,146.53c-28.06,65-59.51,114-72.22,130.88A2.5,2.5,0,0,0,270.36,814.5Z"/><ellipse class="cls-11" cx="775.69" cy="715.37" rx="8.67" ry="42.3" transform="translate(-214.76 351.42) rotate(-22.51)"/><ellipse class="cls-11" cx="764.5" cy="766.82" rx="8.88" ry="43.35" transform="translate(-313.5 868.74) rotate(-50.49)"/><ellipse class="cls-11" cx="764.09" cy="822.61" rx="9.57" ry="46.69" transform="translate(-243.36 1318.15) rotate(-73.3)"/><ellipse class="cls-11" cx="785.06" cy="871.57" rx="9.95" ry="48.55" transform="translate(-364.12 1106.79) rotate(-59.56)"/><ellipse class="cls-11" cx="844.43" cy="822.61" rx="48.55" ry="9.95" transform="translate(-315.24 1034.58) rotate(-54.61)"/><ellipse class="cls-11" cx="848.56" cy="871.57" rx="48.55" ry="9.95" transform="translate(-147.31 1570.1) rotate(-80.81)"/><ellipse class="cls-11" cx="790.53" cy="680.64" rx="7.24" ry="35.31" transform="matrix(1, -0.06, 0.06, 1, -37.89, 46.67)"/><ellipse class="cls-11" cx="813.57" cy="735.75" rx="42.3" ry="8.67" transform="translate(-183.15 1193.76) rotate(-66.8)"/><ellipse class="cls-11" cx="828.29" cy="778.89" rx="42.33" ry="8.67" transform="translate(-286.38 1003.03) rotate(-54.61)"/><path class="cls-11" d="M880.93,993.81a1.54,1.54,0,0,1-.19.17,1.58,1.58,0,0,1-2.22-.31c-.23-.31-23.76-31.72-46.17-83.62A519.73,519.73,0,0,1,802,816.45a468.68,468.68,0,0,1-11-118.52,1.59,1.59,0,1,1,3.17.12,466.05,466.05,0,0,0,10.87,117.66,516.25,516.25,0,0,0,30.15,93C853,950,873,981.08,881.05,991.76A1.58,1.58,0,0,1,880.93,993.81Z"/><path class="cls-11" d="M882.83,183.18a9.6,9.6,0,0,1-8.15-7.22,9.62,9.62,0,0,1-7.64,9,9.62,9.62,0,0,1,8.65,7.15A9.6,9.6,0,0,1,882.83,183.18Z"/><path class="cls-11" d="M908.18,211.51a7.38,7.38,0,0,1-6.26-5.54,7.36,7.36,0,0,1-5.85,6.9,7.38,7.38,0,0,1,6.63,5.49A7.37,7.37,0,0,1,908.18,211.51Z"/><circle class="cls-11" cx="790.53" cy="204.09" r="43.27"/><circle class="cls-20" cx="782.49" cy="214.23" r="43.27"/><path class="cls-11" d="M824.65,674.34a6.73,6.73,0,0,1-5.71-5.05,6.71,6.71,0,0,1-5.34,6.29,6.74,6.74,0,0,1,6,5A6.73,6.73,0,0,1,824.65,674.34Z"/><path class="cls-11" d="M368.27,238.18a9.62,9.62,0,0,1-9.38-5.53,9.63,9.63,0,0,1-5.78,10.29,9.62,9.62,0,0,1,9.86,5.37A9.6,9.6,0,0,1,368.27,238.18Z"/><path class="cls-11" d="M372.85,293a4.75,4.75,0,0,1-5.36.36,4.74,4.74,0,0,1,.51,5.8,4.75,4.75,0,0,1,5.51-.56A4.72,4.72,0,0,1,372.85,293Z"/><path class="cls-11" d="M316.72,311.65a7.78,7.78,0,0,1-8.5-2.33,7.77,7.77,0,0,1-2.34,9.25,7.8,7.8,0,0,1,8.83,2.12A7.77,7.77,0,0,1,316.72,311.65Z"/></svg>