<svg id="Layer_1" data-name="Layer 1" xmlns="http://www.w3.org/2000/svg" xmlns:xlink="http://www.w3.org/1999/xlink" viewBox="0 0 1280 1024"><defs><style>.cls-1{fill:none;}.cls-2{clip-path:url(#clip-path);}.cls-3{fill:#d9f1ff;}.cls-4{fill:#fff;}.cls-5{fill:#ffd2e4;}.cls-6{fill:#b75858;}.cls-7{fill:#ffdce4;}.cls-8{fill:#ff94bd;}.cls-9{fill:#562c15;}.cls-10{fill:#ffcad8;}.cls-11{fill:#ce5b5b;}.cls-12{fill:#9e4a4a;}.cls-13{fill:#42210b;}</style><clipPath id="clip-path"><circle class="cls-1" cx="642.61" cy="498.07" r="435.77"/></clipPath></defs><title>what [Recovered]</title><g class="cls-2"><rect class="cls-3" x="30" y="-5.51" width="1280" height="1035.1"/><path class="cls-4" d="M541.16,425.27a155.74,155.74,0,0,1,53.09,29.49s-30.64,8.94-62-.78-51.56-34.43-51.56-34.43A155.61,155.61,0,0,1,541.16,425.27Z"/><path class="cls-4" d="M474.59,474.17c37,19.86,59.44,50,59.44,50s-40.64,3.75-77.62-16.1-56.31-55.81-56.31-55.81S437.61,454.31,474.59,474.17Z"/><path class="cls-4" d="M316.19,413.71c35.84-21.86,73.17-26,73.17-26s-17.32,37-53.16,58.81-76.61,20.35-76.61,20.35S280.35,435.57,316.19,413.71Z"/><path class="cls-4" d="M480.37,372.57c20.81-29.41,48.83-45.36,48.83-45.36s-1.09,35-21.9,64.41-53.46,42.07-53.46,42.07S459.56,402,480.37,372.57Z"/><path class="cls-4" d="M563.44,341.62a147.15,147.15,0,0,1,48-31.45s-6,29.56-27.89,51.52-51.47,28-51.47,28A147.3,147.3,0,0,1,563.44,341.62Z"/><path class="cls-4" d="M395.26,387.66c23.65-34.68,56-53.83,56-53.83s-.56,40.8-24.21,75.49-61.43,50.1-61.43,50.1S371.61,422.34,395.26,387.66Z"/><path class="cls-4" d="M374.31,483.28c37.89,18.07,61.75,47.08,61.75,47.08s-40.41,5.69-78.3-12.38-58.91-53.05-58.91-53.05S336.41,465.21,374.31,483.28Z"/><path class="cls-4" d="M290.56,499.21c34.5,23.91,53.41,56.37,53.41,56.37s-40.8-.86-75.3-24.77S219,469,219,469,256.05,475.3,290.56,499.21Z"/><path class="cls-4" d="M246.71,472.46c-73.35,0-126.77-11.28-127.5-11.44a3,3,0,0,1,1.25-5.77c1,.21,100.36,21.17,214.13,5.49,86.23-11.89,158.13-41.23,213.68-87.2a3,3,0,0,1,3.77,4.55c-56.42,46.68-129.3,76.46-216.64,88.5A652.4,652.4,0,0,1,246.71,472.46Z"/><path class="cls-4" d="M758.94,322.39a2.84,2.84,0,0,1-1-5.19c.7-.45,70.74-45,158.5-92.67,81.1-44.06,194.36-99.9,273.42-115.69a2.84,2.84,0,1,1,1.11,5.58c-78.36,15.66-191.06,71.24-271.81,115.11C831.59,277.12,761.72,321.56,761,322A2.82,2.82,0,0,1,758.94,322.39Z"/><path class="cls-4" d="M699.33,334.49c36.82-16.85,70.34-19.59,70.34-19.59s-27.31,26.14-64.13,43-69.19,18-69.19,18A260.54,260.54,0,0,1,699.33,334.49Z"/><path class="cls-4" d="M769.75,351.51c15.07-37.58,37.48-62.66,37.48-62.66s-1.78,37.77-16.85,75.35-37.73,60.74-37.73,60.74A260.69,260.69,0,0,1,769.75,351.51Z"/><path class="cls-4" d="M831.62,326.36c12.54-41.83,34.18-70.94,34.18-70.94S867.55,296.16,855,338s-34.64,68.9-34.64,68.9A281.08,281.08,0,0,1,831.62,326.36Z"/><path class="cls-4" d="M820.56,192.23c29.5,32.19,43.43,65.69,43.43,65.69s-35.89-19.36-65.39-51.56-41.45-65-41.45-65A281.18,281.18,0,0,1,820.56,192.23Z"/><path class="cls-4" d="M737,258.23c42.1,11.57,71.71,32.52,71.71,32.52s-40.69,2.7-82.79-8.87-69.69-33-69.69-33A281,281,0,0,1,737,258.23Z"/><path class="cls-4" d="M881.39,306.93c6.77-42.2,24-73.23,24-73.23s7,39.29.19,81.49-24.71,71.32-24.71,71.32A275.23,275.23,0,0,1,881.39,306.93Z"/><path class="cls-4" d="M832.6,200.55C797.6,176,777.2,147,777.2,147s38.39,10.91,73.4,35.43S904,235.77,904,235.77A275.22,275.22,0,0,1,832.6,200.55Z"/><path class="cls-4" d="M934.61,271.8c10.94-41.72,31.3-71.19,31.3-71.19s3.12,40.15-7.83,81.86-31.81,69.2-31.81,69.2A277.49,277.49,0,0,1,934.61,271.8Z"/><path class="cls-4" d="M906.08,152.4c36.9,22.31,59.4,50.18,59.4,50.18s-39.38-8.38-76.28-30.69-57.35-50.12-57.35-50.12A277.53,277.53,0,0,1,906.08,152.4Z"/><path class="cls-4" d="M990.63,254.83c7.13-44.46,25.29-77.16,25.29-77.16s7.33,41.4.19,85.86-26,75.14-26,75.14A289.69,289.69,0,0,1,990.63,254.83Z"/><path class="cls-4" d="M947.36,133.73c41.56,17.32,69.11,42.62,69.11,42.62s-42-2.55-83.53-19.88-67-42.86-67-42.86A289.71,289.71,0,0,1,947.36,133.73Z"/><path class="cls-4" d="M1011.39,225.27C1031,184.2,1058,157.69,1058,157.69s-4.74,42.24-24.38,83.32-46.75,65.41-46.75,65.41A293.14,293.14,0,0,1,1011.39,225.27Z"/><path class="cls-4" d="M997.75,102.61c37.23,26.2,58.88,57.2,58.88,57.2s-40.86-11.7-78.1-37.9-56.72-57-56.72-57A293.19,293.19,0,0,1,997.75,102.61Z"/><ellipse class="cls-4" cx="441.03" cy="211.71" rx="66.65" ry="13.66" transform="translate(16.48 454.79) rotate(-55.44)"/><ellipse class="cls-4" cx="363.4" cy="240.98" rx="68.3" ry="14" transform="translate(82.34 574.36) rotate(-83.42)"/><ellipse class="cls-4" cx="289.26" cy="288.23" rx="15.08" ry="73.57" transform="translate(-69.04 92.35) rotate(-16.23)"/><ellipse class="cls-4" cx="228.96" cy="379.78" rx="15.68" ry="76.51" transform="translate(-16.26 10.29) rotate(-2.49)"/><ellipse class="cls-4" cx="262.47" cy="474.83" rx="76.51" ry="15.68" transform="translate(-220.41 227.48) rotate(-33.94)"/><ellipse class="cls-4" cx="499.67" cy="201.59" rx="55.64" ry="11.4" transform="translate(-22.53 334.3) rotate(-36.23)"/><ellipse class="cls-4" cx="451.81" cy="291" rx="13.66" ry="66.65" transform="translate(110.93 706.47) rotate(-83.42)"/><ellipse class="cls-4" cx="395.76" cy="352.33" rx="13.67" ry="66.69" transform="translate(-60.33 622.04) rotate(-72.28)"/><ellipse class="cls-4" cx="342.77" cy="389.68" rx="78.1" ry="16" transform="translate(-85.03 95.86) rotate(-14.18)"/><path class="cls-4" d="M162.91,589.4a2.38,2.38,0,0,1-.38-.11,2.5,2.5,0,0,1-1.5-3.2c.21-.58,21.6-58.6,71.05-132.7a818.77,818.77,0,0,1,97.78-120.31,738.66,738.66,0,0,1,147.37-116,2.5,2.5,0,1,1,2.56,4.3,733.41,733.41,0,0,0-146.3,115.17A814.14,814.14,0,0,0,236.33,456C197,514.94,173,568,165.73,587.8A2.5,2.5,0,0,1,162.91,589.4Z"/><path class="cls-5" d="M1040.13,1112.81S1124.55,999,1214,1009.26s92.43,57.22,79.22,99.76-135.74,141-135.74,141l141.53-36.32s-9.34-9.72-8.1-13.44c2.88-8.63,90.78-16.34,90.78-12.78,0,3.9-161.49,110.27-212.49,131.12-46.45,19-118.35,28.92-140.54,0s1.35-109.6,72.63-163.4Z"/><path class="cls-6" d="M1040.13,1112.81S1124.55,999,1214,1009.26s92.43,57.22,79.22,99.76-135.74,141-135.74,141L1281,1218.3l17.06,26.16c-47.56,30.29-103.71,64.45-129.85,75.13-46.45,19-117.33,27.9-139.52-1s2.36-104.38,69.57-166.46Z"/></g><path class="cls-4" d="M778,860a12.53,12.53,0,0,1-10.72-9.32,12.52,12.52,0,0,1-9.85,11.82,12.52,12.52,0,0,1,11.35,9.24A12.54,12.54,0,0,1,778,860Z"/><path class="cls-4" d="M574.63,903.09a6.93,6.93,0,0,1-5.92-5.15,6.93,6.93,0,0,1-5.44,6.53,6.92,6.92,0,0,1,6.27,5.09A6.9,6.9,0,0,1,574.63,903.09Z"/><path class="cls-4" d="M735.08,902.45a13.53,13.53,0,0,1-11.56-10.05,13.53,13.53,0,0,1-10.62,12.75,13.5,13.5,0,0,1,12.24,10A13.52,13.52,0,0,1,735.08,902.45Z"/><path class="cls-4" d="M632.86,913.8a13.52,13.52,0,0,1-11.56-10,13.53,13.53,0,0,1-10.62,12.75,13.5,13.5,0,0,1,12.24,10A13.53,13.53,0,0,1,632.86,913.8Z"/><path class="cls-4" d="M560.6,854.43a16.2,16.2,0,0,1-17.62-5.1,16.17,16.17,0,0,1-5.12,19.19,16.17,16.17,0,0,1,18.31,4.65A16.16,16.16,0,0,1,560.6,854.43Z"/><path class="cls-7" d="M620.46,552.49s75.42-120,165.44-116.6,96.55,49.95,86.65,93.38S748,680.25,748,680.25l138.33-47.08s-10.06-9-9.11-12.79c2.21-8.81,89.26-23.26,89.53-19.71C967.08,604.56,814.24,723,765,747.73c-44.85,22.51-115.77,37.92-140.12,10.8S617.79,649.14,684.73,590Z"/><path class="cls-8" d="M423.15,788.81c4,2.48,1.8,5.6-.67,9.62s-4.27,7.41-8.29,4.93-15.57-14.08-13.1-18.1S419.14,786.34,423.15,788.81Z"/><path class="cls-7" d="M515.3,684.32s-7.09,20.3-25.6,23.26a110.29,110.29,0,0,0-10.93-9.06c-33.43-24.6-71.87-22.72-90.82-14.74s-31.06,56.33-22.82,78.53,85,46.41,98.05,43.47c9.23-2.09,18.84-33.09,25-44.19,3.43-6.21,7.23-9.45,23-16.64S550.22,737,550.22,737Z"/><path class="cls-9" d="M415.65,655.14c4.05,17.69-5.37,22.19-18.88,26.17s-26.32,1-30.06-11.75,5.13-23,18.65-27S412.7,642.23,415.65,655.14Z"/><path class="cls-10" d="M485,752c-9.45,12.28-20,41.53-19.19,52.44,8.4-6.39,16.82-32.82,22.4-42.89,3.43-6.21,7.23-9.45,23-16.64S550.22,737,550.22,737l-16.67-6.62S497.91,735.22,485,752Z"/><path class="cls-7" d="M568.28,612.22c-21,22-83.17,76.39-41.51,123.85s117.24,84.36,124,97.65S668.38,976.6,668.38,976.6s-22.69-4-25.74-3.06c-6,1.88-30.94,19.5-28.4,23,.78,1.07,11.92,1,25,.73,5.77-.14,9.79,0,15.3-.35s10.65-.15,15.06-.74c5.83-.79,10.25-1.57,11.91-2.21,7.44-2.89,21.74-156.84,18.37-168.82-1-3.68-27.54-41.65-55.14-68.33C594,707.73,693,588.39,693,588.39l-72.58-35.9S583.07,596.76,568.28,612.22Z"/><path class="cls-10" d="M699.91,825.17c-2.25-14-27.54-41.65-55.14-68.33a46.78,46.78,0,0,1-5.94-7c1.17,4.29-7.56,8.86-2.67,14.33,26.52,29.69,39.18,38.45,49.36,59.17,6.07,12.35-3.15,139-8.37,157.64-3,10.52-3.5,7.54-5.44,14.94a61.59,61.59,0,0,0,9.83-1.92C689,991.1,701.87,837.46,699.91,825.17Z"/><path class="cls-10" d="M616.13,732.49l-14.27-16.63s12.27-3.48,19.43,2.23S616.13,732.49,616.13,732.49Z"/><rect class="cls-6" x="678.23" y="584.66" width="10.84" height="8.5" transform="matrix(1, -0.04, 0.04, 1, -25.56, 31.04)"/><path class="cls-11" d="M620.46,552.49s75.42-120,165.44-116.6,96.55,49.95,86.65,93.38S748,680.25,748,680.25l120.7-41.08,19,24.76c-45.09,33.87-98.46,72.23-123.69,84.9-44.86,22.5-114.84,36.82-139.19,9.7s-5.67-104.26,56.57-171.31Z"/><path class="cls-4" d="M743.16,533.16a2,2,0,0,0-2.76-.83c-26.87,14.47-50.2,38.33-62.82,52.69l-57.12-32.53s-26.91,31.86-44.1,51c8.14,16.31-27.68,53.07-40.18,72-11.69,17.68-22.27,35.91-22.33,36.17a50.16,50.16,0,0,0,4.65,12.59c0-.09,13.74-21.36,22.41-32.71,11.17-14.62,41.56-36.91,60.77-26.49,9.43,5.12,16.1,10.83,20.81,17.26,8.69-25.72,24.57-54.44,47.62-82.13.29-.14,11.09-13,11.09-13,12.51-14.17,35.16-37.17,61.13-51.16A2,2,0,0,0,743.16,533.16Z"/><path class="cls-12" d="M887.75,663.93l-7.87-10.24c-58.15,39.88-126.46,90.44-152.35,109.74a245.91,245.91,0,0,0,36.53-14.6C789.29,736.16,842.66,697.8,887.75,663.93Z"/><path class="cls-10" d="M879.88,653.69l6.86,11c43.35-32.53,80.19-62.11,80-64C953.75,600.21,879.88,653.69,879.88,653.69Z"/><path class="cls-12" d="M872.55,529.27C853.87,597.5,748,680.25,748,680.25l-38.94,20.37c-1.3-1.17,65.07-72.78,112.93-121.19C849.21,551.93,872.55,529.27,872.55,529.27Z"/><path class="cls-9" d="M383.43,676.85c-20.63,12.86-29.21,26.4-28.44,60.27.81,35.33,12.34,34.47,32.15,13.09C406.8,729,427.7,728,440.84,735s-15.64-23.15-6.4-28.48,24,6.13,24.09,12.84,43.89,2.91,32-14.65S430.52,647.51,383.43,676.85Z"/><path class="cls-13" d="M415.65,655.14c-.08-.35-.17-.7-.27-1-3.39,11.17-23.17,23.74-31.69,28.72a35.84,35.84,0,0,0,13.08-1.51C410.28,677.33,419.7,672.83,415.65,655.14Z"/><path class="cls-13" d="M458.59,719.75a1.59,1.59,0,0,0,.07.2.41.41,0,0,1,0,.09l.11.19.07.07a.9.9,0,0,0,.15.19l.07.06c.07.06.13.13.2.18l.08.06a2.2,2.2,0,0,0,.25.17l.08,0,.3.17.07,0,.36.17.05,0,.42.16h0c.16,0,.31.11.48.15h0l.54.14h0a21.28,21.28,0,0,0,3.34.5c-.15-3.94-2.78-8.49-5.63-10.89a14.33,14.33,0,0,0-10.63-3.57c5.26,3,9.4,7.89,9.45,11.44a1.63,1.63,0,0,0,0,.31A.32.32,0,0,1,458.59,719.75Z"/><path class="cls-10" d="M450.12,725h0c-1.44.6-3.37,0-3.34-1.78.05-3.23-.89-4.41-4.18-5.45-1.81-.57-2.06-2.19-1.1-3.54h0c1-1.36,1.76-1.85,4.17-1,4.37,1.48,5.13,4,6.1,8A3.31,3.31,0,0,1,450.12,725Z"/></svg>