<svg id="Layer_1" data-name="Layer 1" xmlns="http://www.w3.org/2000/svg" viewBox="0 0 1200 1200"><defs><style>.cls-1{fill:#fff69f;}.cls-2{fill:#f4e67f;}.cls-3{fill:#fff;}.cls-12,.cls-4,.cls-5{fill:none;stroke-miterlimit:10;}.cls-4{stroke:#f4e67f;stroke-width:4.28px;}.cls-5{stroke:#eaacac;stroke-width:47.21px;}.cls-6{fill:#ffcdcd;}.cls-7{fill:#cffffb;}.cls-8{fill:#db9595;}.cls-9{fill:#99ffeb;}.cls-10{fill:#69ccc5;}.cls-11{fill:#b75c5c;}.cls-12{stroke:#db9595;stroke-linecap:round;stroke-width:59.24px;}.cls-13{fill:#994242;}.cls-14{fill:#d37979;}.cls-15{fill:#eaacac;}</style></defs><title>birds-03</title><path class="cls-1" d="M658.07,361.15H991.24c34.85,0,63.11,28,63.11,62.46v494c0,34.49-28.26,62.45-63.11,62.45H658.07c-34.85,0-63.11-28-63.11-62.45v-494C595,389.12,623.22,361.15,658.07,361.15Z"/><path class="cls-2" d="M824.65,980.05H658.16c-34.84.09-63.16-27.79-63.25-62.28V423.63c0-34.51,28.26-62.48,63.12-62.48H824.74Z"/><rect class="cls-3" x="696.07" y="576.29" width="261.81" height="187.35"/><rect class="cls-4" x="722.86" y="595.47" width="208.24" height="149.02"/><path class="cls-5" d="M503.23,908.06c-231.56,0-419.29-185.72-419.32-414.88s187.66-415,419.22-415a421.49,421.49,0,0,1,296.6,121.62q9.79,9.69,18.8,19.84"/><path class="cls-6" d="M921,391.56c0,25.38-43.12,41-96.33,41s-96.34-15.61-96.34-41,43.14-60.7,96.34-60.7S921,366.18,921,391.56Z"/><path class="cls-7" d="M892,378.14s-18.08,12.63-69,12.63c-49.3,0-65.79-12.63-65.79-12.63V279.78H892v98.36Z"/><path class="cls-8" d="M824.65,330.86c-53.2,0-96.34,35.32-96.34,60.7s43.14,41,96.34,41Z"/><path class="cls-9" d="M757.26,329v49.14s16.49,12.63,65.79,12.63h1.6V279.88H757.26Z"/><ellipse class="cls-9" cx="824.65" cy="279.97" rx="67.37" ry="9.05"/><path class="cls-6" d="M851.33,277.52s-8.8,6.42-26.68,6.42c-16.75,0-26.69-6.42-26.69-6.42V194.91c0-7.3.31-18.81,3.07-25,3.74-8.37,16.27-18.19,23.62-18.19h0c7.36,0,19.2,8.95,23.61,18.19,2.94,6.1,3.07,17.71,3.07,25v82.61Z"/><path class="cls-6" d="M698.06,925.82s96.43,125.84,264.81,174.7c16.68,4.85,43.37,13.79,76.57,19.46,79.89,13.63,91.89-116.25,60.92-134.13a356.47,356.47,0,0,0-55.46-26.73C982.44,935.8,882,901.61,698.06,925.82Z"/><path class="cls-10" d="M824.65,270.82c-37.21,0-67.39,4-67.39,9s30.18,9,67.39,9Z"/><path class="cls-8" d="M697.77,926.65s24.11,31.46,69.25,69,111.36,81.26,195.54,105.69c8.35,2.43,19.17,5.86,32.08,9.42q22,6.12,44.51,10c39.94,6.81,62.91-22.25,72-55.27Z"/><ellipse class="cls-11" cx="700.88" cy="935.23" rx="35.87" ry="35.5"/><path class="cls-12" d="M412.81,898.35a419.88,419.88,0,0,1-77.7-25"/><path class="cls-8" d="M824.65,151.72c-7.37,0-19.87,9.82-23.62,18.19-2.76,6.19-3.07,17.7-3.07,25v82.61S807.9,284,824.65,284Z"/><path class="cls-13" d="M736.54,939.17a35.87,35.87,0,0,1-71.45-6.45c0-.47.09-.93.15-1.39l38.22,4.2Z"/><path class="cls-14" d="M582.74,812.77c59.12,7.3,107.19,62.6,99.65,122.46s-62.94,102.41-127,94.51C476.5,1020,389.7,960,397.24,900S503.84,803,582.74,812.77Z"/><path class="cls-11" d="M682.77,933.55c-7.53,59.91-62.92,102.41-127,94.5-78.9-9.74-165.72-69.75-158.17-129.7Z"/><path class="cls-15" d="M887.67,638.52c0,33.12-59.13,92.18-59.13,92.18s-62.1-59-62.1-92.18c0-15.58,6.19-26.37,20.7-27.8,29.56-2.93,41.4,29.26,41.4,29.26s14-29.26,35.47-29.26C881.67,610.72,887.67,622,887.67,638.52Z"/></svg>