<svg id="Layer_1" data-name="Layer 1" xmlns="http://www.w3.org/2000/svg" xmlns:xlink="http://www.w3.org/1999/xlink" viewBox="0 0 1200 1200"><defs><style>.cls-1,.cls-10,.cls-12,.cls-19,.cls-25,.cls-27,.cls-28,.cls-29,.cls-31,.cls-34,.cls-5,.cls-9{fill:none;}.cls-2{fill:#fff;}.cls-3{clip-path:url(#clip-path);}.cls-4{fill:#a9e0ed;}.cls-5{stroke:#fe743b;}.cls-10,.cls-12,.cls-19,.cls-25,.cls-27,.cls-29,.cls-31,.cls-34,.cls-5,.cls-9{stroke-linecap:round;}.cls-10,.cls-12,.cls-19,.cls-25,.cls-27,.cls-28,.cls-29,.cls-31,.cls-34,.cls-5,.cls-9{stroke-miterlimit:10;}.cls-12,.cls-25,.cls-28,.cls-29,.cls-31,.cls-5{stroke-width:0.97px;}.cls-6{fill:#a0291d;}.cls-7{fill:#939a4c;}.cls-8{fill:#838942;}.cls-9{stroke:#000;}.cls-10,.cls-9{stroke-width:1.78px;}.cls-10{stroke:#a9e0ed;}.cls-11{fill:#fe743b;}.cls-12,.cls-27{stroke:#bc3b13;}.cls-13{fill:#e55625;}.cls-14{fill:#d64c1d;}.cls-15{fill:#53141d;}.cls-16{fill:#ffe1c9;}.cls-17{fill:#6bb9c1;}.cls-18{fill:#ffc547;}.cls-19,.cls-34{stroke:#339daf;}.cls-19{stroke-width:1.23px;}.cls-20{fill:#edb035;}.cls-21{fill:#b23520;}.cls-22{fill:#21070c;}.cls-23{fill:#5db3c1;}.cls-24{fill:#339daf;}.cls-25{stroke:#821712;}.cls-26{fill:#821712;}.cls-27,.cls-34{stroke-width:0.97px;}.cls-28,.cls-29{stroke:#53141d;}.cls-30{fill:#ffb32c;}.cls-31{stroke:#a0291d;}.cls-32{fill:#6d7a36;}.cls-33{fill:#4e561c;}</style><clipPath id="clip-path"><rect class="cls-1" x="-0.23" y="-2309.61" width="1200" height="2133.33"/></clipPath></defs><title>logos</title><rect class="cls-2" width="1200" height="1200"/><g class="cls-3"><image width="711" height="583" transform="translate(-857.45 -1454.61) scale(2.55)" xlink:href="../%D0%98%D0%BB%D0%BB%D1%8E%D1%81%D1%82%D1%80%D0%B0%D1%86%D0%B8%D0%B8/%D0%91%D0%B0%D0%BD%D0%BD%D0%B5%D1%80%D1%8B/%D0%9C%D0%BE%D0%BF%D0%B5%D0%B4%201.png"/></g><path class="cls-4" d="M470.85,779.71S6.94,937.41,160.77,531.55s403-110.86,453.75-240.9c48.94-125.53,165.1-169.41,289.76-87.07,167.32,110.51,246.12,370.14,171.46,537C997.73,914.91,470.85,779.71,470.85,779.71Z"/><path class="cls-5" d="M728.86,355.08s-34.14,31.1,20.18,73.6"/><ellipse class="cls-6" cx="721.6" cy="566.95" rx="2.9" ry="3.87"/><ellipse class="cls-6" cx="724.5" cy="534.06" rx="2.9" ry="3.87"/><path class="cls-7" d="M122.33,900.16s-39.66-48.25-21.63-118.7,82.83-82.65,113.15-77.1c57.94,10.62,59.62,52.79,105.93,37.26s7-158.46,96.81-189.24,131.46,105.67,171.12,99,139.81-92.56,218-41.92c54.45,35.26,15.95,121.83,51.73,132.24,40.17,11.69,45.3-26,87.14-27.69,57.44-2.33,158.45,64.35,63.88,183.33Z"/><path class="cls-8" d="M1041,774.28c-36.25,7.09-43.62,37.34-132,45.91-99.65,9.68-169.79-126.25-263.16-106.9S573.82,818.74,402.57,828.42,247.78,797,162.64,796c-30.42-.35-51.76,9.06-66.63,21.3-.29,50.45,26.32,82.85,26.32,82.85l886.13-2.81C1049.09,846.23,1053.62,804.76,1041,774.28Z"/><path class="cls-9" d="M350.19,727.62s186.11,7.1,476-96.08"/><path class="cls-10" d="M347.2,728s-2.92-5.72.95-7.18,14.42,7.62,7.7,11.31"/><path class="cls-10" d="M289.2,778.42s-6.82,2.79-8.35,7.6"/><path class="cls-9" d="M868.33,679.81c0,10.44-6.13,18.9-15.34,18.9s-16.68-8.46-16.68-18.9-2.23-51.86,10.23-53.15C859.44,625.33,868.33,669.37,868.33,679.81Z"/><path class="cls-9" d="M846.54,626.66s19.57-4,25.35,19.13"/><path class="cls-11" d="M770.83,330.37s40.39-31.48,60,0-26.73,63-27.91,61.18-33.86,43.37-33.86,43.37-33.27,3-32.67-26.73c0,0-25.55-22-7.73-52.87,0,0-13.06-35.05,23.76-36.83s50.5,17.82,50.5,17.82Z"/><path class="cls-12" d="M796.37,324.29s39.57,7.06,13.12,63.18"/><path class="cls-12" d="M758,417.34s-38-13-3.27-64.44"/><path class="cls-12" d="M767.18,417.34s-38-13-3.27-64.44"/><path class="cls-11" d="M517.53,790.29s20.45-6.1,32.92-.16,16.63,27.33,23.17,28.52,12.47-4.16,16.63,0,1.78,23.16-20.2,23.16-25.93-31.18-30.89-38.61C534.41,796.07,517.53,790.29,517.53,790.29Z"/><path class="cls-13" d="M334.83,820.43,312.25,872.7s-5.34,8.91,0,17.23S329.59,915.83,336,919c8.32,4.15,25.42-3,11.29-10.1a8.74,8.74,0,0,0-4.16-.6S328.89,888.15,330.07,884s24.36-25,24.36-25Z"/><path class="cls-14" d="M431.05,854.88s8.32,23.76,20.2,34.45,33.27,15.45,28.51,24.95-13.66,22-13.66,22-14.85,1.78-14.85,11.88H472.8a6.13,6.13,0,0,0,4.66-2.14c6.76-7.9,29.63-35.43,29.63-46.57,0-11.88-8.91-24.95-8.91-24.95l-11.29-27.91H443.53Z"/><path class="cls-11" d="M292.06,778.25c10.35,22.27,45.74,76,49.3,85s10.1,51.08,17.23,66.53c0,0-19,9.76-8.32,11.88,4.1.81,14.07.51,19.9.24a4.14,4.14,0,0,0,3.92-4.62c-1.72-15-6.43-64.34,4.1-79.38,0,0,48.71,9.51,89.1,2.38,0,0,27.32,43.36,88.51,44.55,8.77.17,18.41,26.73,17.82,30.89,0,0-10.69,5.94-8.32,10.69h19.76c3.58,0,3.48-10.54,2.81-12.47-6.53-19-1.78-34.46-10.69-39.21-18.61-9.93-26.36-49.52-29.7-67.72C541,791.32,515.4,768.75,453.63,761,377.45,751.51,335,721.48,333,718.26c-3.56-5.94-8.91-13.66-12.47-17.23-3.28-3.28-7.13-8.31-7.13-14.85s-4.16-38-13.07-27.32-10.1,27.92-10.1,27.92S263,700.44,257.6,707s-5.94,10.1-5.94,10.1-35,13.66-34.45,18.42S232,762,248.69,759.25C273.64,755.09,280.18,752.71,292.06,778.25Z"/><path class="cls-14" d="M263.94,708.69l5.54,1.84s-1.81-.27-5.54-.61c-6.77-.62-6.59-2.74-5.75-3.52Z"/><path class="cls-15" d="M520.64,783.07c-14.91-10.82-36.56-18.23-67-22a326.6,326.6,0,0,1-69-16.09c.17,24.12-1.62,79.89,25.6,83.21,24.36,3,24.95-21.38,39.21-19.6C464,810.37,510.06,816.87,520.64,783.07Z"/><path class="cls-16" d="M842.11,617.28s-5.33,18.86,3.56,19.6c7.13.59,7.73-2.38,7.73-2.38s3.56,11.88,5.34,11.29-6.53-28.51-6.53-28.51Z"/><path class="cls-6" d="M727.47,573.32s-20.79,118.21-54.06,149.1c0,0,13.66,17.82,65.94,17.82s24.35-54.06,24.35-54.06Z"/><path class="cls-13" d="M335.09,745l-40.88,37.67c.88,1.73,1.87,3.59,2.93,5.54,0,0,43.27-24.83,57.3-53.85Z"/><path class="cls-16" d="M791.62,358.88s22.57,42.77,25,55.25l-26.14,16s-14.85-41-22.57-45.73S791.62,358.88,791.62,358.88Z"/><path class="cls-16" d="M739.35,693.91s-17.82,61.77-17.23,130.68S721.53,925,721.53,925,696,929.73,696,932.7s33.86,10.56,33.86,10.56a2.25,2.25,0,0,0,2.86-1.71C736.51,922.53,761.82,798,775,786c14.25-13.07,3.56-95.64,3.56-95.64Z"/><path class="cls-17" d="M739.35,693.91s-17.82,61.77-17.23,130.68c.37,42.36.06,70.57-.23,86l16.62,2.91C747.73,870.26,764.92,795.21,775,786c14.25-13.07,3.56-95.64,3.56-95.64Z"/><path class="cls-16" d="M768.82,601a1.91,1.91,0,0,0-2.57,1.79c0,20.84.47,154.54,6.53,195.66,7.61,51.66,35.14,118.74,39.74,129.73a1.9,1.9,0,0,1-.8,2.38c-4.63,2.68-18.73,11-19.34,13.42s35,0,35,0a2,2,0,0,0,2-2.36c-2.85-16.21-18.86-111.9-10.27-169.9,2.26-15.23,6.18-34.93,10.49-54.74,8.23-37.82-49.17-61.88-47.05-70.21.24-.95,21.72-15.14,20.8-15.48Z"/><path class="cls-4" d="M825,913.92c-5.27-36.86-12.2-99.66-5.9-142.2,2.26-15.23,6.18-34.93,10.49-54.74,8.23-37.79-28.37-62.81-26.25-71.18.24-.95.93-14.17,0-14.51l-37.1-31.24s0,153.76,6.53,198.4c6.31,42.79,26.27,96.15,35.56,119.46A129,129,0,0,0,825,913.92Z"/><path class="cls-18" d="M789,419.8s-96.88,3.9-137.59,103.5-135.19,57-135.19,57-2.44,54.43,21.36,63.73c0,0,79.25,28.87,135.18-63.91,49.68-82.42,62.43-130.44,130.46-134"/><path class="cls-17" d="M767.9,718.56c.33,11.21.72,22.21,1.2,32.49,6.32,1.67,22.12,3.65,54.22-3.59,1.47-7.65,3.12-15.71,4.86-23.88Z"/><path class="cls-12" d="M729.21,918.61s4.49-2.69,1.8-7.18"/><path class="cls-19" d="M768.57,741.72c0,12.57,3.37,50.16,3.37,50.16"/><path class="cls-20" d="M763.68,432.48c-54.17,41.6-74,118.51-117.54,168.34S545.5,640.26,526.8,634.73A23.32,23.32,0,0,0,537.56,644s79.25,28.87,135.18-63.91c38.11-63.22,54.49-106.2,90.76-124.41C759.88,453.61,769,428.42,763.68,432.48Z"/><path class="cls-21" d="M816.57,394.52S713.21,405.81,722.12,606l11.29,140.19s65.93,4.16,97.41-8.91C830.82,737.27,866.46,438.48,816.57,394.52Z"/><path class="cls-6" d="M801.27,492.1S826.65,633.8,839.43,641c1.56-23.4,2.87-49.16,3.43-75Z"/><path class="cls-12" d="M818.83,920.57s2.9-4.36-1.45-7.26"/><path class="cls-16" d="M752.12,324.73s-13.66.59-13.66,18.41,6.53,51.09,21.38,50.49,26.14-17.82,24.95-27.92,4.75-17.82-1.78-27.32S763.4,321.76,752.12,324.73Z"/><path class="cls-15" d="M292.65,746.18c3.56-15.45-10.1-14.26-22-13.66-6.49.32-13.87-7.87-19.23-15.36-2.94,1.16-34.8,13.79-34.23,18.33.6,4.75,14.82,26.53,31.48,23.76s25.26-4.8,32.62,2C286.26,757.84,291.1,752.92,292.65,746.18Z"/><path class="cls-21" d="M835.58,437.89c-5.94-8.32-39.21-17.23-39.21,21.38,0,43,43.36,161.57,43.36,161.57h14.85S863.68,477.24,835.58,437.89Z"/><path class="cls-22" d="M265.9,716.4c0,1.81-.47,3.42-1.78,3.27-1-.11-1.78-1.46-1.78-3.27s.67-3.19,1.78-3.27C265.43,713,265.9,714.6,265.9,716.4Z"/><path class="cls-16" d="M798.75,353.24c0,6.4-7.23,11.58-12.48,11.58s-6.53-5.18-6.53-11.58,4.25-11.58,9.5-11.58S798.75,346.84,798.75,353.24Z"/><path class="cls-11" d="M797.56,317.3s-7.13-19.6-28.51-18.41-30.89,25.54-22,40.39,37.42,16,42.17-1.19S800.53,316.11,797.56,317.3Z"/><path class="cls-21" d="M287.49,780.09c-1.83-3.67-3.75-6,1.54-8.18h0c.32-.16,32.46-16.19,56.41-45.61,3.64-4.48,5.42-3.88,8.39-1.51,3.21,2.57,5.35,4.76,1.19,9.51-28,32.05-57.92,47.84-59.35,48.52C290.27,785.38,288.8,782.69,287.49,780.09Z"/><path class="cls-18" d="M810.8,929.73S793.1,941.1,792.38,944c-.59,2.38,35,0,35,0a2.1,2.1,0,0,0,2-2.36c-.17-4.17-.76-10.11-1.36-19.61H809C810.2,926.76,810.8,929.73,810.8,929.73Z"/><path class="cls-18" d="M719.23,924.57s-23.25,4-24.49,7.88c-.74,2.34,35.38,12.29,35.38,12.29a2.1,2.1,0,0,0,2.66-1.56c1.23-4,3.25-9.79,5.86-18.94l-17.91-6.35C720.26,922.76,719.23,924.57,719.23,924.57Z"/><path class="cls-23" d="M808.34,917.91a129,129,0,0,0,16.67-4c-.26-1.86-.54-3.8-.81-5.79L806.41,913C807.09,914.78,807.74,916.41,808.34,917.91Z"/><path class="cls-24" d="M722,905.31c0,1.91-.06,3.68-.09,5.3l16.62,2.91,1.11-5.2Z"/><path class="cls-20" d="M798.75,407.59s27.08,20.43,33.74,17.64-.48-21.8-6.42-24.17S798.75,407.59,798.75,407.59Z"/><path d="M217.21,735.49c.17,1.34,1.42,4,3.5,7.14a26.53,26.53,0,0,0,5.21-7,10.76,10.76,0,0,0,.71-7.45C221.15,731.08,217,733.82,217.21,735.49Z"/><ellipse class="cls-18" cx="283.81" cy="789.48" rx="5.32" ry="6.29"/><path class="cls-10" d="M292,778.35c-1.45,4.84-8.23,7.74-8.23,7.74"/><path class="cls-14" d="M301.71,679.18c.74-5.64,1.34-15.73-.24-21.45a9.94,9.94,0,0,0-1.1,1.13c-7,8.42-9.24,20.89-9.87,25.81C293.51,685.93,300.58,687.9,301.71,679.18Z"/><path class="cls-14" d="M587.36,835.4c-2.71.47-6.65,1-11.85,1.48-11.13,1-36.35-33.68-36.35-33.68,5,7.43,8.92,38.61,30.89,38.61C578.43,841.81,584,839.05,587.36,835.4Z"/><path class="cls-25" d="M746.27,359.91s-2.42,7.26-1,8.23,3.87,0,3.87,0"/><ellipse class="cls-26" cx="751.83" cy="355.08" rx="1.21" ry="1.93"/><ellipse class="cls-26" cx="741.67" cy="357.01" rx="1.21" ry="1.93"/><path class="cls-25" d="M747.46,379.22a5,5,0,0,0,5.84-.88"/><path class="cls-12" d="M772.05,389.21s10.76-7.36,11.6-15.42"/><path class="cls-12" d="M782.07,362.33s6.19,4.24,12.29-.54"/><path class="cls-27" d="M468.12,861.55s-9.68-10.64-9.68-31.92"/><path class="cls-12" d="M527,788.29s13.23,10.41,19,32.16"/><path class="cls-12" d="M327,838.46s16.06,23.92,16.17,31"/><path class="cls-12" d="M281.56,795.17c3.71,1.08,9.51-1.34,6.37-9.69"/><circle class="cls-14" cx="240.28" cy="734.33" r="0.97"/><circle class="cls-14" cx="239.55" cy="743.76" r="1.21"/><circle class="cls-14" cx="246.57" cy="737.71" r="0.97"/><circle class="cls-28" cx="223.83" cy="738.68" r="1.93"/><path class="cls-12" d="M321.55,738.68s11.61-11.12,11.61-20.31"/><path class="cls-15" d="M573.62,818.65c-2.66-.49-4.92-4.3-7.51-9.06a15,15,0,0,0-4,6.8c-2.18,8.08,1.21,18.35,13.48,23,1.16.44,2.27.82,3.34,1.15,13.64-4.32,14.78-18.4,11.27-21.9C586.09,814.49,580.15,819.84,573.62,818.65Z"/><path class="cls-29" d="M258.18,706.27s.22,0,11.56,4"/><path class="cls-30" d="M827.39,944a2.1,2.1,0,0,0,2-2.36c0-.36,0-.73,0-1.12l-35.66,1.75a5.08,5.08,0,0,0-1.29,1.73C791.79,946.36,827.39,944,827.39,944Z"/><path class="cls-30" d="M733.07,942.25l-36.2-11.68c-1.15.62-1.93,1.25-2.13,1.88-.74,2.34,35.38,12.29,35.38,12.29a2.1,2.1,0,0,0,2.66-1.56C732.87,942.88,733,942.57,733.07,942.25Z"/><path class="cls-26" d="M840.22,621.33a.51.51,0,0,1-.46-.32c-.43-1.19-43.39-119.18-43.39-161.74,0-12.76,3.73-21.81,10.8-26.17,7.74-4.78,17.52-3,23.54.06a19.82,19.82,0,0,1,4.21,2.77.48.48,0,0,1,0,.68.49.49,0,0,1-.69,0,19,19,0,0,0-4-2.63c-5.79-2.9-15.19-4.67-22.6-.1-6.76,4.18-10.33,12.94-10.33,25.35,0,42.4,42.9,160.22,43.33,161.41a.48.48,0,0,1-.29.62A.45.45,0,0,1,840.22,621.33Z"/><path class="cls-12" d="M843,632.26s4.84,2.9,9.19,0"/><path class="cls-12" d="M786.73,347.8s2.59.5,2.59,2.92"/><path class="cls-12" d="M782.55,357s4.35-2.9,0-5.32c0,0,3.57-7.24,10-2.65"/><path class="cls-26" d="M731.82,727a.49.49,0,0,1-.48-.45l-9.63-125.89a.48.48,0,0,1,.45-.52.49.49,0,0,1,.52.45l9.62,125.89a.48.48,0,0,1-.44.51Z"/><path class="cls-31" d="M756.43,437.31a19,19,0,0,1-3.35-9.51"/><path class="cls-5" d="M756.43,310.09s28.08-30.7,45,6.66"/><path class="cls-5" d="M821.3,321.08s43.8,25.62-5.7,61"/><path class="cls-18" d="M802.91,379.08s-19.15,7.3-33.39,17.49c-6,4.26-11.06,9-13.54,14-5.94,11.88-1.19,26.66.59,26.67,15.6,0,33.9-24.6,53.46-27.86,10.7-1.78,14.41,0,17.82-4.15C833.76,398,816.57,371.36,802.91,379.08Z"/><path class="cls-31" d="M807.59,409.89c10.76-2.57,20.59.31,21.24-6.69"/><path class="cls-32" d="M923.3,1029.63c7.2-62-22.24-164.08-65.64-132.35-32.33,23.64.45,89.89,26.57,132.35Z"/><path class="cls-33" d="M906.12,1029.63h2c-16.5-71.5-38.81-117-39.06-117.5a1,1,0,0,0-1.3-.43,1,1,0,0,0-.43,1.29C867.56,913.5,889.68,958.62,906.12,1029.63Z"/><path class="cls-31" d="M756.43,437.31a19,19,0,0,1-3.35-9.51"/><path class="cls-7" d="M948.9,1029.63c38-39.86,87.4-103.43,70.74-150.51-26.11-73.81-98-30.66-110.13,38.22-6.9,39.24-5.94,82.4-3.83,112.29Z"/><path class="cls-18" d="M467,439.12s-49.63-2.34-63.42-27.89a21.77,21.77,0,0,1,8.82-29.49c10.58-5.71,22.59-1,29.49,8.82C451.44,404.11,467,439.12,467,439.12Z"/><path class="cls-11" d="M347.39,530.83s-28.06,15.72-44.38,6.42A14.08,14.08,0,0,1,297.74,518c3.85-6.77,12.05-8.31,19.22-5.27C326.83,517,347.39,530.83,347.39,530.83Z"/><path class="cls-18" d="M380.43,405.19S364,403.33,360,394.55a7.24,7.24,0,0,1,3.57-9.59c3.64-1.66,7.52.15,9.59,3.57C376,393.24,380.43,405.19,380.43,405.19Z"/><path class="cls-18" d="M918.54,1034.55s-34.57,10.64-50.31-3.44a15.85,15.85,0,0,1-1.25-22.37c5.84-6.52,15.22-6.28,22.37-1.24C899.21,1014.43,918.54,1034.55,918.54,1034.55Z"/><path class="cls-25" d="M749.66,350.72c2.9-3.38,7.25,0,7.25,0"/><path class="cls-25" d="M743.37,351.21a3,3,0,0,0-4.36.48"/><path class="cls-34" d="M779.81,814s0,14.16,4.31,18.47"/><path class="cls-34" d="M726.25,814s-3.07,12.93,0,18.47"/><path class="cls-12" d="M295.28,685.79s5,.12,5.72-3.75"/><path class="cls-12" d="M384.6,841.65s-3.08,11.08-6.16,16"/><path class="cls-32" d="M924.29,1029.63c4.36-33.92,16.85-69.93,27.34-95.69a602.08,602.08,0,0,1,26.23-56.22,1,1,0,1,0-1.69-.94,605.45,605.45,0,0,0-26.32,56.41c-17.38,42.68-24.69,74.48-27.5,96.44Z"/><path class="cls-25" d="M791.76,616s-36.94,1.24-37.22-35"/></svg>