<svg id="Layer_1" data-name="Layer 1" xmlns="http://www.w3.org/2000/svg" xmlns:xlink="http://www.w3.org/1999/xlink" viewBox="0 0 1200 841"><defs><style>.cls-1,.cls-14,.cls-17,.cls-18,.cls-22{fill:none;}.cls-2{clip-path:url(#clip-path);}.cls-3{fill:url(#linear-gradient);}.cls-12,.cls-19,.cls-4,.cls-7{fill:#fff;}.cls-4{opacity:0.05;}.cls-15,.cls-21,.cls-5{fill:#341c7f;}.cls-6{fill:#ffb901;}.cls-8{fill:url(#linear-gradient-2);}.cls-9{fill:url(#linear-gradient-3);}.cls-10{fill:url(#linear-gradient-4);}.cls-11{fill:url(#linear-gradient-5);}.cls-12{stroke:#fff;stroke-width:1.03px;}.cls-12,.cls-14,.cls-17,.cls-18,.cls-21,.cls-22{stroke-miterlimit:10;}.cls-13{fill:#ffb8b6;}.cls-14,.cls-21,.cls-22{stroke:#341c7f;}.cls-14,.cls-17,.cls-18,.cls-22{stroke-linecap:round;}.cls-14,.cls-21{stroke-width:2.06px;}.cls-15,.cls-21{opacity:0.3;}.cls-16{fill:#ff8585;}.cls-17{stroke:#f2f2f2;}.cls-17,.cls-18{stroke-width:2.66px;}.cls-18{stroke:#333;}.cls-19{font-size:109.38px;font-family:Lato-Regular, Lato;}.cls-20{font-size:51.6px;}.cls-22{stroke-width:2.41px;}</style><clipPath id="clip-path"><rect class="cls-1" width="1200" height="841"/></clipPath><linearGradient id="linear-gradient" x1="690.09" y1="-321.53" x2="690.09" y2="1030.33" gradientUnits="userSpaceOnUse"><stop offset="0" stop-color="#7536e9"/><stop offset="1" stop-color="#4a0ca5"/></linearGradient><linearGradient id="linear-gradient-2" x1="548.96" y1="646.72" x2="743.14" y2="646.72" xlink:href="#linear-gradient"/><linearGradient id="linear-gradient-3" x1="548.96" y1="712.99" x2="681.5" y2="712.99" xlink:href="#linear-gradient"/><linearGradient id="linear-gradient-4" x1="695.37" y1="712.99" x2="743.14" y2="712.99" xlink:href="#linear-gradient"/><linearGradient id="linear-gradient-5" x1="548.96" y1="605.11" x2="564.37" y2="605.11" xlink:href="#linear-gradient"/></defs><title>logos</title><g class="cls-2"><rect class="cls-3" x="-341.81" y="-369.31" width="2063.81" height="1444.67"/><path class="cls-4" d="M-38.43,134.26A501.31,501.31,0,0,0-341.81,235.9v803.86A501.31,501.31,0,0,0-38.43,1141.4c278.11,0,503.57-225.46,503.57-503.57S239.68,134.26-38.43,134.26Z"/><rect class="cls-5" x="-341.81" y="641.96" width="2063.81" height="433.4"/><rect class="cls-6" x="504.65" y="575.06" width="283.57" height="175.69" rx="11.63"/><rect class="cls-7" x="517.75" y="590.47" width="257.37" height="144.87"/><rect class="cls-8" x="548.96" y="622.06" width="194.18" height="49.32" rx="7.84"/><path class="cls-6" d="M511.5,750H780.61a10.94,10.94,0,0,1,10.06,6.66l52.34,123A10.93,10.93,0,0,1,833,894.84H459.16a10.93,10.93,0,0,1-10.06-15.21l52.34-123A10.92,10.92,0,0,1,511.5,750Z"/><path class="cls-9" d="M556.74,691.41h117a7.78,7.78,0,0,1,7.78,7.78v35.38a0,0,0,0,1,0,0H549a0,0,0,0,1,0,0V699.19A7.78,7.78,0,0,1,556.74,691.41Z"/><path class="cls-10" d="M703.12,691.41h32.26a7.76,7.76,0,0,1,7.76,7.76v35.4a0,0,0,0,1,0,0H695.37a0,0,0,0,1,0,0v-35.4A7.76,7.76,0,0,1,703.12,691.41Z"/><circle class="cls-11" cx="556.67" cy="605.11" r="7.71"/><path class="cls-12" d="M761.64,454.08s15.61,65,44.69,118.66c40.07,74,72.43,81.68,72.43,81.68l280.49,15.42s-64.73-121.75-70.89-215.76Z"/><path class="cls-6" d="M855.2,613.06A32.87,32.87,0,0,0,836.36,619c25,31.27,42.4,35.44,42.4,35.44l8.24.46a32.94,32.94,0,0,0-31.8-41.82Z"/><path class="cls-13" d="M1448.27,387l-549.77-.69a44.56,44.56,0,0,0-29.37,13.4,44.57,44.57,0,0,0-31.78-13.48l61.15.08c.86-.05,1.73-.08,2.61-.08H835.33L290.05,387C197,387,121.3,462.74,121.3,555.79S197,724.55,290.05,724.55h.1l173.8-.77h47.13v0a13.08,13.08,0,0,0,8.36-22.44,13.08,13.08,0,0,0,.84-20.68,13.07,13.07,0,0,0,0-20h46.28v0c.25,0,.51,0,.77,0a13.1,13.1,0,0,0,0-26.2c-.26,0-.52,0-.77,0v0H456.49v0L290,635.16a79.37,79.37,0,0,1,.15-158.74l479.08-.67c-.47-5.48,2.84-11.34,9.92-11.33,100.44.06,200.81,4.84,301.26,4.9a9.42,9.42,0,0,1,9.38,6.65l358.46.45a79.37,79.37,0,0,1,0,158.74l-613.55-.76H724.65v0c-.26,0-.51,0-.77,0a13.1,13.1,0,1,0,0,26.2c.26,0,.51,0,.77,0v0h46.28a13.07,13.07,0,0,0,0,20,13.08,13.08,0,0,0,.83,20.68,13.08,13.08,0,0,0,8.37,22.44v0h51.81l616.27.77c93,0,168.75-75.71,168.75-168.76S1541.26,387,1448.27,387Z"/><path class="cls-7" d="M1172.29,476.07l-331.35-.42c-.67,0-1.29,0-1.86,0s-1.24,0-1.86,0l-150,.21c-11.94-42.17,0-89.38,0-89.38l148.06-.21h65.78c-.88,0-1.75,0-2.61.08l-61.15-.08a44.57,44.57,0,0,1,31.78,13.48,44.56,44.56,0,0,1,29.37-13.4l254.79.32S1147.58,444.9,1172.29,476.07Z"/><path class="cls-14" d="M761.64,454.08s.55,2.28,1.63,6.35c4.7,17.62,19.43,68.69,43.06,112.31,15.79,29.16,30.39,48,42.28,60.18"/><path class="cls-13" d="M869.52,432.17s-4.63,48.11,64.72,48.11,69.35-74,69.35-74l-56.4-7.51Z"/><path class="cls-15" d="M955.29,409.78S917,444.27,891.76,434.25,950,394.6,950,394.6Z"/><path class="cls-5" d="M908,229.07s18-18.5,50.86-9.24c30.05,8.47,29.28,37,29.28,37s40.07-7.7,53.94,23.12-5.39,51.63-5.39,51.63,25.56,17.32,10.79,52.4c-12.33,29.28-44.7,21.57-44.7,21.57s-7.7,12.33-35.44,12.33-30.83-24.66-30.83-24.66l-87.84,13.1s-48.26,4.26-50.86-34.67c-1.54-23.12,15.41-33.91,15.41-33.91s-21.77-21.64-10.78-52.4c7.7-21.57,33.9-23.11,33.9-23.11s-4.74-34.31,26.2-43.15C894.94,209.81,908,229.07,908,229.07Z"/><path class="cls-14" d="M920.37,464.87s-18.49-6.17-28.61-30.62"/><path class="cls-13" d="M902.65,276.08c-17.63-2.83-64-17.73-62.42,34.67S835.61,431,878.76,434s67.81-29.28,80.14-55.48S982.63,288.9,902.65,276.08Z"/><path class="cls-5" d="M891.77,322.72c-.17-1.53.84-6.3,11.91-4.45s10.06,6.61,7.17,8.49S892.49,329,891.77,322.72Z"/><path class="cls-16" d="M868,352.36c-1.54,0-6.38,13.73-9.24,18.5-4.63,7.7,7.94,12.92,10.79,1.54C871.06,366.23,869.52,352.36,868,352.36Z"/><circle class="cls-5" cx="902.65" cy="342.35" r="5.39"/><path class="cls-5" d="M857.27,322.72c.17-1.53-.84-6.3-11.9-4.45s-10.06,6.61-7.17,8.49S856.55,329,857.27,322.72Z"/><circle class="cls-5" cx="850.25" cy="342.35" r="5.39"/><path class="cls-16" d="M874.14,399.37c0,3.83-2.07,6.93-4.62,6.93s-4.63-3.1-4.63-6.93C864.89,398.6,874.14,398.6,874.14,399.37Z"/><path class="cls-14" d="M877.22,397.06c-7.7,3.08-15.41,0-15.41,0"/><circle class="cls-16" cx="908.81" cy="371.63" r="11.56"/><path class="cls-5" d="M829.45,309.21s41.61,13.87,77-20c0,0,4.63,15.41,18.5,20s20,3.08,20,3.08-4.62,32.37,27.74,32.37,43.15-27.74,43.15-27.74l-146.4-84.76Z"/><path class="cls-17" d="M850.86,250.91s3.31-28.94,36.33-18.62"/><path class="cls-14" d="M814,554.25s6.17,43.15,49.32,41.61"/><path class="cls-13" d="M962,343.12s14.26-6.83,21.58,1.54c10.79,12.33,0,33.9-24.66,29.28Z"/><path class="cls-18" d="M970.46,351.59a5.4,5.4,0,0,1,0,10.79"/><path class="cls-14" d="M870.54,432.52a35.91,35.91,0,0,0,8.22,1.52c29.14,2.08,49.84-12,64-29.42"/><polygon class="cls-15" points="767.47 475.75 761.3 455.18 327.88 476.37 767.47 475.75"/><path class="cls-14" d="M142.61,515.53s-18.56,14.27-6.46,34.06"/><path class="cls-6" d="M687.27,386.48a200.56,200.56,0,0,0-4.36,27.67,33,33,0,0,0,46.27-27.73Z"/><circle class="cls-6" cx="830.43" cy="493.36" r="33.02"/><circle class="cls-6" cx="1028.56" cy="590.36" r="33.02"/><path class="cls-14" d="M978.94,540.38s6.16,43.15,49.31,41.61"/><path class="cls-6" d="M1010.36,454.08H988.71c-8,11.46-20.37,21.37-39.34,24.84a33,33,0,0,0,61-24.84Z"/><path class="cls-6" d="M997.51,437.1C992,452,981.27,468.17,960.84,475.81l49.15.06a32.91,32.91,0,0,0-12.48-38.77Z"/><path class="cls-6" d="M1140.48,386.65l-58.77-.07a33,33,0,0,0,58.77.07Z"/><text class="cls-19" transform="translate(-175.36 902.15)">12<tspan class="cls-20"><tspan x="0" y="61.91">июня </tspan><tspan class="cls-6" x="137.76" y="61.91">19:00</tspan></tspan></text><path class="cls-21" d="M511.5,750H780.61a10.94,10.94,0,0,1,10.06,6.66l28.41,65.91L501.44,756.63A10.92,10.92,0,0,1,511.5,750Z"/><rect class="cls-6" x="641.26" y="107.57" width="10.3" height="10.3" rx="5.15"/><rect class="cls-6" x="641.26" y="126.19" width="10.3" height="30.9" rx="5.15"/><rect class="cls-6" x="670.1" y="97.11" width="10.3" height="30.9" rx="5.15" transform="translate(562.68 787.81) rotate(-90)"/><rect class="cls-6" x="641.26" y="68.35" width="10.3" height="30.9" rx="5.15" transform="translate(1292.81 167.61) rotate(-180)"/><rect class="cls-6" x="612.5" y="97.11" width="10.3" height="30.9" rx="5.15" transform="translate(730.21 -505.09) rotate(90)"/><rect class="cls-6" x="663.2" y="634.48" width="5.85" height="5.85" rx="2.92"/><rect class="cls-6" x="663.2" y="645.05" width="5.85" height="17.54" rx="2.92"/><rect class="cls-6" x="679.57" y="628.54" width="5.85" height="17.54" rx="2.92" transform="translate(45.18 1319.81) rotate(-90)"/><rect class="cls-6" x="663.2" y="612.21" width="5.85" height="17.54" rx="2.92" transform="translate(1332.25 1241.97) rotate(-180)"/><rect class="cls-6" x="646.87" y="628.54" width="5.85" height="17.54" rx="2.92" transform="translate(1287.11 -12.48) rotate(90)"/><path class="cls-22" d="M460.55,714.69a22.55,22.55,0,0,1-21.08,0"/><path class="cls-22" d="M848.55,714.69a22.56,22.56,0,0,1-21.09,0"/><path class="cls-17" d="M829.4,273.57s-18.57,2.06-16.51,22.7"/><rect class="cls-1" x="-341.81" y="-369.31" width="2063.81" height="1444.67"/></g></svg>