<svg id="Layer_1" data-name="Layer 1" xmlns="http://www.w3.org/2000/svg" viewBox="0 0 1200 2084"><defs><style>.cls-1{fill:#8ad8ff;}.cls-2{fill:#fdec61;}.cls-3,.cls-4,.cls-6,.cls-7{fill:none;stroke:#000;}.cls-3,.cls-4,.cls-7{stroke-linecap:round;stroke-miterlimit:10;}.cls-3,.cls-6{stroke-width:8.44px;}.cls-4{stroke-width:4.82px;}.cls-5{fill:#ffc1c2;}.cls-6{stroke-linejoin:round;}.cls-7{stroke-width:7.23px;}</style></defs><title>logo</title><path class="cls-1" d="M553.1,1098.75H422.23a47.91,47.91,0,0,0-47.91,47.91v-2c0,37.23,22.67,67.41,54.47,67.41,42.69,0,42.69-51.81,58.88-51.81,19.43,0,16.19,51.81,58.88,51.81,31.79,0,54.46-30.18,54.46-67.41v2A47.91,47.91,0,0,0,553.1,1098.75Z"/><path class="cls-2" d="M551.1,1111.7H424.24a37,37,0,0,0-37,37v-1.53c0,28.72,17.48,52,42,52,32.93,0,29.23-51.82,58.38-52.93,29.14,1.11,25.44,52.93,58.37,52.93,24.53,0,42-23.29,42-52v1.53A37,37,0,0,0,551.1,1111.7Z"/><path class="cls-1" d="M615.37,1125.2H595.89a47.56,47.56,0,0,1,5.08,20.61c0-.38,0-.75,0-1.13v2c0-.29,0-.57,0-.85a81.82,81.82,0,0,1-7.3,33.36h21.7a11.55,11.55,0,0,0,11.55-11.55v-30.88A11.55,11.55,0,0,0,615.37,1125.2Z"/><path class="cls-1" d="M360,1125.2a11.92,11.92,0,0,0-1.34.13,253.33,253.33,0,0,0,22.07,51.58,82.53,82.53,0,0,1-6.32-31.1c0,.28-.05.56-.05.85v-2c0,.38,0,.75.05,1.13a47.69,47.69,0,0,1,5.07-20.61Z"/><path class="cls-3" d="M545.87,1089.1H415A47.91,47.91,0,0,0,367.09,1137v-2c0,37.23,22.67,67.42,54.46,67.42,42.69,0,42.69-51.82,58.88-51.82,19.43,0,16.19,51.82,58.88,51.82,31.8,0,54.47-30.19,54.47-67.42v2A47.91,47.91,0,0,0,545.87,1089.1Z"/><path class="cls-4" d="M543.86,1102.06H417a37,37,0,0,0-37,37v-1.52c0,28.72,17.49,52,42,52,32.93,0,29.23-51.81,58.37-52.92,29.15,1.11,25.45,52.92,58.38,52.92,24.53,0,42-23.28,42-52V1139A37,37,0,0,0,543.86,1102.06Z"/><path class="cls-3" d="M608.14,1115.55H588.66a47.69,47.69,0,0,1,5.07,20.61c0-.38,0-.75,0-1.13v2c0-.29,0-.56,0-.85a81.78,81.78,0,0,1-7.29,33.36h21.7A11.54,11.54,0,0,0,619.68,1158V1127.1A11.55,11.55,0,0,0,608.14,1115.55Z"/><path class="cls-3" d="M352.73,1115.55a11.7,11.7,0,0,0-1.34.13,253.09,253.09,0,0,0,22.07,51.59,82.44,82.44,0,0,1-6.33-31.11c0,.29,0,.56,0,.85v-2c0,.38,0,.75,0,1.13a47.56,47.56,0,0,1,5.08-20.61Z"/><path class="cls-1" d="M935.65,1014.22A174.74,174.74,0,0,0,760.91,839.47c-87.72,0-172.9,64.63-187.71,148.86l74.55,21.39s34,38.42,117.65,35.29c20.67-.77,57.45,6.23,57.45,59.52,0,31.78,48.3,23.66,79.77,11.94A174,174,0,0,0,935.65,1014.22Z"/><path class="cls-1" d="M877.13,922.22a152.94,152.94,0,0,0-129.08-70.77c-40.91,0-81.19,16-111.87,42.19"/><path class="cls-1" d="M822.55,1096.59c-.84-11.06-3.44-19.83-7.18-26.75l-88.68,59L712.44,1041a165.22,165.22,0,0,1-28-8.34l18.22,112.77L686,1180.47a15.58,15.58,0,0,0,7.8,20.6h0a15.57,15.57,0,0,0,20.59-7.8l17.33-36.54Z"/><path class="cls-1" d="M783.73,1038.82c14.54,7.23,27.06,22.56,27.06,53.65,0,31.78,48.31,23.66,79.77,11.94a175.07,175.07,0,0,0,31.73-123.64,112.21,112.21,0,0,0-138.56,58Z"/><path class="cls-5" d="M647.75,1009.72,573.2,988.33h0a37.36,37.36,0,0,0-42.36,26.86h0l137.26,9.62C654.11,1016.91,647.75,1009.72,647.75,1009.72Z"/><circle class="cls-1" cx="688.14" cy="1174.37" r="8.78"/><path class="cls-1" d="M693.82,1036l.4.13Z"/><path class="cls-1" d="M690.45,1034.88l.28.1Z"/><path class="cls-1" d="M687.22,1033.7l.62.24Z"/><path class="cls-1" d="M704.45,1039.12l.37.09Z"/><path class="cls-1" d="M712.44,1041l14.25,87.85,88.68-59c.66,1.22,1.29,2.51,1.87,3.85-11.09-25.35-36.12-29.27-51.84-28.68a220,220,0,0,1-53.08-4.07Z"/><path class="cls-1" d="M697.14,1037.08l.39.11Z"/><path class="cls-1" d="M698.27,1154.71l4.42-9.31-18.22-112.77c-3.49-1.39-6.71-2.84-9.68-4.29l-6.33,59.86A72.48,72.48,0,0,0,698.27,1154.71Z"/><path class="cls-1" d="M820,1081.55l-.39-1.33Z"/><path class="cls-1" d="M819.52,1079.84c-.13-.41-.26-.83-.4-1.23C819.26,1079,819.39,1079.43,819.52,1079.84Z"/><path class="cls-1" d="M820.48,1083.31c-.12-.49-.25-1-.38-1.45C820.23,1082.34,820.36,1082.82,820.48,1083.31Z"/><path class="cls-1" d="M818.42,1076.6c-.14-.38-.29-.75-.43-1.12C818.13,1075.85,818.28,1076.22,818.42,1076.6Z"/><path class="cls-1" d="M817.83,1075.08c-.15-.38-.31-.75-.46-1.11C817.52,1074.33,817.68,1074.7,817.83,1075.08Z"/><path class="cls-1" d="M819,1078.19c-.13-.39-.27-.78-.41-1.17C818.71,1077.41,818.85,1077.8,819,1078.19Z"/><path class="cls-1" d="M822.85,1104.53a88.12,88.12,0,0,0-2.33-21.06,80.68,80.68,0,0,1,2,13.12l-90.8,60.14L726.88,1167a72.5,72.5,0,0,0,68.54-23.86l28.1-32.6A25.68,25.68,0,0,1,822.85,1104.53Z"/><path class="cls-1" d="M877.13,922.22a152.94,152.94,0,0,0-129.08-70.77c-40.91,0-81.19,16-111.87,42.19"/><path class="cls-5" d="M795.79,1050.88c14.54,7.23,27.06,22.56,27.06,53.65,0,31.78,48.3,23.66,79.77,11.94a174,174,0,0,0,33-102.25,177.53,177.53,0,0,0-1.3-21.39,112.21,112.21,0,0,0-138.56,58.05Z"/><circle class="cls-1" cx="688.14" cy="1174.37" r="8.78"/><path class="cls-3" d="M373.87,1168a253.25,253.25,0,0,1-33.31-125.94c0-140.52,113.91-254.43,254.42-254.43A253.24,253.24,0,0,1,731.6,827.41"/><path class="cls-3" d="M838.63,1115.55c-31.52,104.69-128.68,181-243.65,181a253.3,253.3,0,0,1-155.06-52.7l-.46-.35"/><line class="cls-4" x1="391.82" y1="1144.16" x2="409.19" y2="1116.86"/><line class="cls-4" x1="426.38" y1="1122.07" x2="431.86" y2="1113.62"/><line class="cls-4" x1="399.47" y1="1163.59" x2="420.91" y2="1130.51"/><circle class="cls-2" cx="700.2" cy="1186.43" r="8.78"/><line class="cls-6" x1="590.54" y1="1144.15" x2="616.45" y2="1144.15"/><path class="cls-3" d="M923.59,1002.16A174.74,174.74,0,0,0,748.85,827.41c-87.71,0-172.9,64.63-187.7,148.86l74.55,21.39s33.95,38.43,117.65,35.29c20.66-.77,57.44,6.23,57.44,59.52,0,31.78,48.31,23.66,79.77,11.94A174,174,0,0,0,923.59,1002.16Z"/><path class="cls-3" d="M879.55,924.63A153.36,153.36,0,0,0,786.13,858a155,155,0,0,0-17.65-3.13q-4.66-.54-9.41-.81-4.27-.24-8.61-.24a157.48,157.48,0,0,0-16.12.83q-7.37.75-14.63,2.15c-2.87.56-5.73,1.19-8.56,1.89s-5.66,1.47-8.46,2.32a179.31,179.31,0,0,0-64.1,35"/><path class="cls-3" d="M810.49,1084.54c-.84-11.06-3.43-19.83-7.18-26.76l-88.68,59-14.25-87.85a165.54,165.54,0,0,1-28-8.33l18.23,112.76L674,1168.42a15.57,15.57,0,0,0,7.8,20.59h0a15.57,15.57,0,0,0,20.59-7.8l17.33-36.54Z"/><path class="cls-4" d="M783.73,1038.82c14.54,7.23,27.06,22.56,27.06,53.65,0,31.78,48.31,23.66,79.77,11.94a175.07,175.07,0,0,0,31.73-123.64,112.21,112.21,0,0,0-138.56,58Z"/><path class="cls-3" d="M635.7,997.66l-74.55-21.39h0a37.38,37.38,0,0,0-42.37,26.87h0L656,1012.76C642.06,1004.85,635.7,997.66,635.7,997.66Z"/><circle cx="688.14" cy="1174.37" r="8.78"/><path class="cls-3" d="M681.76,1024l.41.13Z"/><path class="cls-3" d="M678.39,1022.83l.29.1Z"/><path class="cls-3" d="M675.16,1021.64l.62.24Z"/><path class="cls-3" d="M692.39,1027.06l.37.09Z"/><path class="cls-3" d="M700.38,1028.91l14.25,87.85,88.68-59c.67,1.23,1.29,2.51,1.88,3.85-11.09-25.35-36.13-29.26-51.84-28.68a219.09,219.09,0,0,1-53.09-4.07Z"/><path class="cls-3" d="M685.08,1025l.39.12Z"/><path class="cls-3" d="M686.21,1142.65l4.43-9.31-18.23-112.76c-3.49-1.4-6.71-2.85-9.68-4.3l-6.33,59.86A72.48,72.48,0,0,0,686.21,1142.65Z"/><path class="cls-3" d="M808,1069.49c-.13-.45-.25-.89-.39-1.32C807.71,1068.6,807.83,1069,808,1069.49Z"/><path class="cls-3" d="M807.46,1067.78l-.39-1.23Z"/><path class="cls-3" d="M808.42,1071.25c-.12-.49-.25-1-.38-1.45C808.17,1070.28,808.3,1070.76,808.42,1071.25Z"/><path class="cls-3" d="M806.36,1064.54c-.14-.38-.28-.75-.43-1.12C806.08,1063.79,806.22,1064.16,806.36,1064.54Z"/><path class="cls-3" d="M805.77,1063c-.15-.37-.3-.75-.46-1.11C805.47,1062.27,805.62,1062.65,805.77,1063Z"/><path class="cls-3" d="M806.92,1066.13c-.13-.39-.26-.78-.4-1.16C806.66,1065.35,806.79,1065.74,806.92,1066.13Z"/><path class="cls-3" d="M810.79,1092.47a88.12,88.12,0,0,0-2.33-21.06,80.64,80.64,0,0,1,2,13.13l-90.8,60.13L714.82,1155a72.49,72.49,0,0,0,68.54-23.86l28.11-32.6A25.61,25.61,0,0,1,810.79,1092.47Z"/><path class="cls-3" d="M941.61,968.4a18.65,18.65,0,0,0-19.15-18.13l-6.64.18a175.83,175.83,0,0,1,4.06,87.62l5-.13A18.65,18.65,0,0,0,943,1018.78Z"/><path class="cls-1" d="M787.33,550.27c-1.43-53.5-1.5-104.55-2.11-158.88.6-128.87,8.49-286,8.49-286,0-18.34-3.55-36.89-12-50.86s-20.21-23.34-33.16-23.34-24.68,9.38-33.17,23.34-12,32.52-12,50.86c0,0-.59,17.18,2,44.59,19.62,204.8-.47,374.44-1.41,463.45A255.28,255.28,0,0,0,787.33,550.27Z"/><path class="cls-1" d="M584.15,584.3l73.92-1.87v-28l-11-.33s-10.94-91-20.78-130.33c-9.27-37.08-37.33-149.33-50.4-182.93,0,0-106.39,33.6-132.53,67.2,0,0,26.14,67.2,26.14,102.66,0,37.34-20.54,50.4-44.8,63.47-12.44,6.69-91.47,37.33-87.74,70.93.6,5.39,1.56,13.07,1.56,13.07H327.68V584.3s99.82,17,132.53,3.73c59.73-24.26,86.41-3.73,86.41-3.73Z"/><rect class="cls-2" x="441.29" y="315.3" width="177.17" height="44.8" rx="12.28" transform="translate(-82.92 198.81) rotate(-19.74)"/><rect class="cls-2" x="489.26" y="394.27" width="65.28" height="33.09" rx="6.75" transform="translate(-94.72 163.97) rotate(-16.39)"/><rect class="cls-2" x="524.73" y="470.81" width="65.28" height="33.09" rx="6.75" transform="translate(220.24 -171.83) rotate(21.75)"/><path class="cls-2" d="M788.8,204.86a254.8,254.8,0,0,0-81.52-55l-2-.8c-1.15-27-2-43.7-2-43.7,0-18.34,3.55-36.89,12-50.86s20.21-23.34,33.17-23.34,24.68,9.38,33.16,23.34,12,32.52,12,50.86Z"/><path class="cls-1" d="M696.82,504.47a20.45,20.45,0,0,1,19.31,20.41,20.19,20.19,0,0,1-.41,4.06c-2.36,11.7,5.84,23,17.78,23.22h1.07c11.94-.2,20.14-11.52,17.78-23.22a20.94,20.94,0,0,1-.4-4.06,20.44,20.44,0,0,1,19.3-20.41"/><path class="cls-1" d="M712.29,608.81a19.24,19.24,0,0,1-1.28-7.18h0a23.88,23.88,0,0,1,23.88-23.88h0a23.8,23.8,0,0,1,15.56,5.77"/><path class="cls-1" d="M773.06,565.4c-1.36-39.57-2.35-76-2.35-98.52V406.59c0-4.63,0-9.32,0-14"/><path class="cls-1" d="M697.33,392.56c0,4.71,0,9.4,0,14,0,44.32-3.84,142.92-6.82,212.62"/><path class="cls-2" d="M721.94,608.81a19.24,19.24,0,0,1-1.29-7.18h0a23.89,23.89,0,0,1,23.89-23.88h0a23.82,23.82,0,0,1,15.56,5.77"/><path class="cls-7" d="M569.68,577.07l73.93-1.87v-28l-11-.33s-10.94-91-20.78-130.34c-9.27-37.08-37.33-149.33-50.4-182.92,0,0-106.39,33.59-132.53,67.19,0,0,26.14,67.2,26.14,102.67,0,37.33-20.54,50.4-44.8,63.46-12.44,6.7-91.47,37.34-87.74,70.94.6,5.39,1.56,13.06,1.56,13.06H313.21v26.14s99.82,17,132.53,3.73c59.73-24.27,86.41-3.73,86.41-3.73Z"/><line class="cls-7" x1="414.01" y1="453.87" x2="463.52" y2="502.19"/><circle cx="463.63" cy="501.9" r="8.93"/><line class="cls-7" x1="395.34" y1="463.2" x2="396.14" y2="521.85"/><circle cx="396.89" cy="522.97" r="8.93"/><rect class="cls-7" x="426.82" y="308.07" width="177.17" height="44.8" rx="12.28" transform="translate(-81.33 193.5) rotate(-19.74)"/><rect class="cls-7" x="474.79" y="387.04" width="65.28" height="33.09" rx="6.75" transform="translate(-93.26 159.59) rotate(-16.39)"/><rect class="cls-7" x="510.26" y="463.57" width="65.28" height="33.09" rx="6.75" transform="translate(216.53 -166.98) rotate(21.75)"/><line class="cls-7" x1="438.28" y1="437.07" x2="512.94" y2="466.93"/><line class="cls-7" x1="443.88" y1="420.27" x2="476.48" y2="412.82"/><path class="cls-7" d="M557.64,172.25c3,8.72,3.83,59.49,3.83,59.49s-32.4-39.85-35.42-48.57a16.71,16.71,0,1,1,31.59-10.92Z"/><path class="cls-7" d="M429,300.77l-15.57-42.2a7.46,7.46,0,0,1,4.42-9.59h0a7.46,7.46,0,0,1,9.59,4.42l13.26,36"/><path class="cls-7" d="M697.36,406.59c0-131.34-8.53-301.18-8.53-301.18,0-18.34,3.55-36.89,12-50.86S721.08,31.21,734,31.21h0c13,0,24.68,9.38,33.17,23.34s12,32.52,12,50.86c0,0-8.53,169.84-8.53,301.18v60.29"/><path class="cls-7" d="M712.29,608.81a19.24,19.24,0,0,1-1.28-7.18h0a23.88,23.88,0,0,1,23.88-23.88h0a23.8,23.8,0,0,1,15.56,5.77"/><path class="cls-7" d="M807.17,245.31A253.25,253.25,0,0,1,848.59,384.5c0,140.52-113.91,254.43-254.43,254.43a253.33,253.33,0,0,1-158.4-55.32"/><path class="cls-7" d="M362.93,490.77A253.42,253.42,0,0,1,339.74,384.5c0-140.51,113.91-254.42,254.42-254.42a255.78,255.78,0,0,1,47.2,4.37,253.58,253.58,0,0,1,133,70.41"/><line class="cls-7" x1="643.61" y1="547.2" x2="560.3" y2="546.87"/><line class="cls-7" x1="390.39" y1="556.93" x2="313.21" y2="550.93"/><path class="cls-7" d="M362.93,490.77A253.42,253.42,0,0,1,339.74,384.5c0-140.51,113.91-254.42,254.42-254.42a255.78,255.78,0,0,1,47.2,4.37,253.58,253.58,0,0,1,133,70.41"/><path class="cls-2" d="M748,368.65c-12.15,0-25.22,7-34.65,18.8-.88,42.84-2.73,82.11-4.57,117h77.6c-.57-37.41-.74-74.42-1.17-113.08v-.5C775.57,377,761.3,368.65,748,368.65Z"/><path class="cls-2" d="M786.39,504.6v-.13l-77.6.07,0,.29c10,1.82,21.33,10.08,21.33,20.05a20.19,20.19,0,0,1-.41,4.06c-2.36,11.7,5.84,23,17.78,23.22h1.07c11.94-.2,20.14-11.52,17.78-23.22a20.94,20.94,0,0,1-.4-4.06C765.92,514.38,776.06,505.78,786.39,504.6Z"/><path class="cls-7" d="M696.82,504.47a20.45,20.45,0,0,1,19.31,20.41,20.19,20.19,0,0,1-.41,4.06c-2.36,11.7,5.84,23,17.78,23.22h1.07c11.94-.2,20.14-11.52,17.78-23.22a20.94,20.94,0,0,1-.4-4.06,20.44,20.44,0,0,1,19.3-20.41"/><path class="cls-7" d="M773.06,565.4c-1.36-39.57-2.35-76-2.35-98.52V406.59c0-4.63,0-9.32,0-14"/><path class="cls-7" d="M697.33,392.56c0,4.71,0,9.4,0,14,0,44.32-3.84,142.92-6.82,212.62"/><path class="cls-7" d="M734,366.24c14.2,0,27.1,9.57,36.71,25.15.6-128.87,8.49-286,8.49-286,0-18.34-3.55-36.89-12-50.86S747,31.21,734,31.21s-24.68,9.38-33.17,23.34-12,32.52-12,50.86c0,0,.86,17.07,2,44.59,2.38,55.93,6.06,155,6.46,241.39C706.93,375.81,719.83,366.24,734,366.24Z"/><path class="cls-1" d="M705.83,1751.09c-26.94,11.2-61.16,22.49-122.68,109-51.69,72.66-70.67-41.11-13.43-139.81,30.66-52.87,59.08-70.85,133.43-75.28,85.06-5,94.74-94.11,94.74-94.11s76.83,82.43,51.93,139.4S767.47,1725.47,705.83,1751.09Z"/><path class="cls-2" d="M589.57,1777.8c-20.5,26.31-41.25,49.68-54.66,53.69-2.42,48.13,16.89,72.65,48.24,28.58,61.52-86.49,95.74-97.78,122.68-109A186,186,0,0,1,739.15,1741C687,1645.67,609.59,1752.1,589.57,1777.8Z"/><path class="cls-2" d="M679.83,1762.82c9.62-5.16,18.12-8.46,26-11.73,20.06-8.34,39.68-11.65,57.88-14.3l83.47-108.58c-6.79-18-17.08-35.07-26.52-48.58Z"/><path class="cls-7" d="M693.77,1739c-26.94,11.2-61.15,22.49-122.68,109-51.68,72.66-70.67-41.11-13.43-139.81,30.66-52.87,59.09-70.85,133.44-75.27,85-5.06,94.74-94.12,94.74-94.12s76.82,82.43,51.92,139.4S755.41,1713.41,693.77,1739Z"/><path class="cls-7" d="M757.61,1497.56c9.95,6.57,32.14,47.1,32.14,47.1s-46-4.49-55.93-11.06a21.59,21.59,0,0,1,23.79-36Z"/><path class="cls-7" d="M667.77,1750.76c9.62-5.16,18.13-8.46,26-11.73,20.07-8.34,39.68-11.65,57.88-14.3l83.47-108.57c-6.79-18-17.08-35.08-26.52-48.59Z"/><path class="cls-7" d="M686,1460a252.47,252.47,0,0,0-91.51-17c-139.85,0-253.22,113.36-253.22,253.21s113.37,253.22,253.22,253.22,253.21-113.37,253.21-253.22a253.27,253.27,0,0,0-10.89-73.69"/><path class="cls-7" d="M715.51,1731.71l1.6-.42Z"/><path class="cls-7" d="M709.42,1733.45l-1.4.43Z"/><path class="cls-7" d="M723,1729.84l1.52-.33Z"/><path class="cls-7" d="M667.77,1750.76l37.93-49.33c-49.86-41.52-110.76,42-128.19,64.31-20.49,26.32-41.24,49.68-54.66,53.69-2.42,48.13,16.89,72.65,48.24,28.58,43.55-61.21,73.4-84.74,96.69-97.25Z"/><path class="cls-7" d="M700.66,1736.37l1-.36Z"/><path class="cls-7" d="M693.77,1739l-2.74,1.13Z"/></svg>