<svg id="Layer_1" data-name="Layer 1" xmlns="http://www.w3.org/2000/svg" xmlns:xlink="http://www.w3.org/1999/xlink" viewBox="0 0 1200 1200"><defs><style>.cls-1{fill:none;}.cls-2{fill:#e9ebff;}.cls-3{clip-path:url(#clip-path);}.cls-4{fill:#fff;}.cls-5{fill:#e07f6c;}.cls-6{fill:#ce695b;}.cls-7{fill:#fbac91;}.cls-8{fill:#3d6a84;}.cls-9{fill:#ff99c3;}</style><clipPath id="clip-path"><circle class="cls-1" cx="599.65" cy="600.44" r="441.35"/></clipPath></defs><title>logo</title><rect class="cls-2" y="1" width="1199" height="1199"/><g class="cls-3"><rect class="cls-4" x="-84.63" y="-147.83" width="1368.57" height="1496.54"/><path class="cls-5" d="M385.71,803.68H463.4a35.88,35.88,0,0,0,35.88-35.85V613.06a35.87,35.87,0,0,0-35.88-35.85H385.71a41.54,41.54,0,0,0-40.53,35.85c-4.47,38.43-5.21,116.42,0,154.77A41.9,41.9,0,0,0,385.71,803.68Z"/><path class="cls-6" d="M486.87,648.37l12.45-35.31a35.87,35.87,0,0,0-35.87-35.85H385.71a41.54,41.54,0,0,0-40.53,35.85c-1.35,11.43-2.32,26.37-2.95,42.73C375.84,668,486.87,665.33,486.87,648.37Z"/><path class="cls-5" d="M813.48,803.68H735.77a35.87,35.87,0,0,1-35.87-35.85V613.06a35.87,35.87,0,0,1,35.87-35.85h77.71A41.56,41.56,0,0,1,854,613.06c4.47,38.43,5.2,116.42,0,154.77A41.9,41.9,0,0,1,813.48,803.68Z"/><path class="cls-6" d="M700.61,613.06l12.45,35.31c0,16.83,109.49,19.52,143.89,7.65-.61-16.44-1.61-31.47-3-43a41.56,41.56,0,0,0-40.52-35.85h-77A35.86,35.86,0,0,0,700.61,613Z"/><rect class="cls-7" x="398.99" y="273.58" width="400.68" height="662.01" rx="105.93"/><rect class="cls-8" x="658.56" y="256.17" width="69.69" height="104.52" rx="14.31"/><rect class="cls-8" x="476.87" y="256.17" width="69.69" height="104.52" rx="14.31"/><rect class="cls-5" x="490.19" y="567.25" width="218.28" height="216.52" rx="38.24"/><rect class="cls-6" x="399.72" y="822.36" width="400.68" height="12.45"/><path class="cls-8" d="M730.41,350.73h27.38v521.4a13.69,13.69,0,0,1-13.69,13.69h0a13.69,13.69,0,0,1-13.69-13.69V350.73Z"/><path class="cls-8" d="M441.32,350.73h27.37v521.4A13.68,13.68,0,0,1,455,885.82h0a13.69,13.69,0,0,1-13.69-13.69V350.73Z"/><path class="cls-6" d="M727.44,460.24c-31.55-10.52-56.39-42.32-126.14-42.32-82.11,0-97.06,30.11-128.61,42.32-37.59,14.53-73-32.67-73-73v-8.94A104.75,104.75,0,0,1,504.44,273.58H695.65A104.73,104.73,0,0,1,800.4,378.3v9C800.4,427.57,765.68,473,727.44,460.24Z"/><path class="cls-4" d="M462.88,797.46H446.05a17.74,17.74,0,0,1-17.72-17.72V762.91a17.76,17.76,0,0,1,17.72-17.72h16.83a17.74,17.74,0,0,1,17.72,17.72v16.83a17.72,17.72,0,0,1-17.72,17.72Zm-16.83-44.79a10.27,10.27,0,0,0-10.24,10.24v16.83A10.26,10.26,0,0,0,446.05,790h16.83a10.26,10.26,0,0,0,10.26-10.26h0V762.91a10.26,10.26,0,0,0-10.26-10.24Z"/><path class="cls-4" d="M463.51,538.62H446.68A17.72,17.72,0,0,1,429,520.92V504.09a17.72,17.72,0,0,1,17.72-17.72h16.83a17.75,17.75,0,0,1,17.72,17.72v16.83A17.74,17.74,0,0,1,463.51,538.62Zm-16.83-44.79a10.26,10.26,0,0,0-10.26,10.26v16.83a10.26,10.26,0,0,0,10.26,10.24h16.83a10.28,10.28,0,0,0,10.26-10.24V504.09a10.29,10.29,0,0,0-10.26-10.26Z"/><path class="cls-4" d="M752.52,538.62H735.69A17.73,17.73,0,0,1,718,520.92V504.09a17.74,17.74,0,0,1,17.72-17.72h16.83a17.75,17.75,0,0,1,17.72,17.72v16.83A17.74,17.74,0,0,1,752.52,538.62Zm-16.83-44.79a10.26,10.26,0,0,0-10.26,10.26h0v16.83a10.26,10.26,0,0,0,10.26,10.24h16.83a10.26,10.26,0,0,0,10.25-10.24V504.09a10.26,10.26,0,0,0-10.25-10.26H735.69Z"/><path class="cls-4" d="M752.52,797.46H735.69A17.73,17.73,0,0,1,718,779.74V762.91a17.75,17.75,0,0,1,17.72-17.72h16.83a17.77,17.77,0,0,1,17.72,17.72v16.83A17.75,17.75,0,0,1,752.52,797.46Zm-16.83-44.79a10.26,10.26,0,0,0-10.26,10.24v16.83A10.26,10.26,0,0,0,735.68,790h16.84a10.26,10.26,0,0,0,10.25-10.26h0V762.91a10.26,10.26,0,0,0-10.25-10.24Z"/><rect class="cls-4" x="554.02" y="467.7" width="89.6" height="67.19" rx="13.75"/><path class="cls-9" d="M625.2,490.26c0,13.88-24.53,38.65-24.53,38.65s-25.77-24.77-25.77-38.65c0-6.51,2.59-11.07,8.68-11.67,12.28-1.22,17.18,12.27,17.18,12.27s5.79-12.27,14.73-12.27C622.75,478.59,625.2,483.32,625.2,490.26Z"/><path class="cls-6" d="M734.43,927.48c-28-22-78.28-36.69-135.6-36.69S491.68,905.34,463.55,927.2a105.35,105.35,0,0,0,41.36,8.39H693.74A105.67,105.67,0,0,0,734.43,927.48Z"/><rect class="cls-8" x="659.04" y="624.49" width="23.9" height="59.73" rx="9.96"/><path class="cls-6" d="M490.62,600c0,1-.15,2-.15,3l-.28,14.7v15.86c8.13,18.21,210.14,18.21,218.28,0v-28.2a38.22,38.22,0,0,0-38.22-38.22H528.4A38.2,38.2,0,0,0,490.62,600Z"/></g></svg>