<svg id="Layer_1" data-name="Layer 1" xmlns="http://www.w3.org/2000/svg" viewBox="0 0 1088.51 1350.93"><defs><style>.cls-1{fill:#fff8f8;}.cls-2,.cls-3,.cls-7{fill:none;stroke-miterlimit:10;}.cls-2{stroke:#8e3f3f;}.cls-2,.cls-3{stroke-width:3.93px;}.cls-3{stroke:#773131;stroke-linecap:round;}.cls-4{fill:#f7931e;}.cls-5{fill:#d8c8b6;}.cls-6{fill:#fff;}.cls-7{stroke:#f7931e;stroke-width:10.49px;}.cls-8{fill:#fff0a6;}.cls-9{fill:#f2f2f2;}.cls-10{fill:#c69c6d;}.cls-11{fill:gray;opacity:0.2;isolation:isolate;}.cls-12{fill:#cae8ff;}.cls-13{fill:#c7b299;}.cls-14{fill:#471010;}.cls-15{fill:#9fbfd3;}.cls-16{fill:#534741;}.cls-17{fill:#3f3530;}.cls-18{fill:#231b17;}</style></defs><title>logos-02</title><rect class="cls-1" x="-1.46" width="1089.97" height="1350.93"/><path class="cls-2" d="M25.47,443.92s-112.17,604.76,360.89,453"/><path class="cls-3" d="M45.43,485.6s-82.27,412.75,308.22,383"/><path class="cls-3" d="M849.79,1193.31s-555.57,317.08-609-423.44"/><path class="cls-3" d="M283.86,803s64.88,323,436.17,322.59"/><path class="cls-3" d="M240.8,769.87s91.58,509.45,546.05,391.76"/><path class="cls-3" d="M-1.46,372.35s140,553.61,1072,917.25c0,0,202.18,73,321.62,94.74"/><path class="cls-4" d="M248.86,812.4c5.09,12.82,8,50.56-4.78,55.65s-36.57-24.4-41.63-37.22-19-78.24-6.19-83.33S243.77,799.58,248.86,812.4Z"/><path class="cls-4" d="M117.83,836.49c.06,13.81-11,50-24.75,50.08s-25.15-36.05-25.21-49.81S78.68,757,92.47,756.92,117.76,822.7,117.83,836.49Z"/><path class="cls-5" d="M460.31,576.89S507,664,533.4,715.29s98,45.1,135.28,113.52,38.11,118.63,38.11,118.63-234.47,65-389.75-32.93S97.42,638.09,179.3,439.06s93.32-192.63,93.32-192.63Z"/><path class="cls-6" d="M232.91,866.2,205.07,797a2,2,0,0,0-3.71,1.31l.07.16,25.69,63.81A42.17,42.17,0,0,0,232.91,866.2Z"/><line class="cls-7" x1="184.56" y1="597.78" x2="87.74" y2="769.87"/><path class="cls-8" d="M184.24,666.76c-10.49,9.7-38.92,24.27-48.61,13.85s5.4-39.33,15.82-49.07c16.31-15.19,29.59-14.11,39.33-3.69S199.51,652.54,184.24,666.76Z"/><path class="cls-9" d="M685.27,924.8c0-55-39.18-99.63-87.52-99.63s-87.52,44.57-87.52,99.63a110.58,110.58,0,0,0,8.82,43.58c68.61,1.91,129.79-8.21,162.57-15A112.52,112.52,0,0,0,685.27,924.8Z"/><path class="cls-8" d="M533.4,715.29C507,664,460.31,576.89,460.31,576.89L287.56,272.74a277.31,277.31,0,0,0-32.33-2.05c-13.33,24.18-36.43,72.39-75.93,168.38C97.42,638.09,161.81,816.48,317,914.51c32.43,20.47,68.31,33.81,104.78,42.14,66.07-47.84,116-123,138.09-212C549.13,737,539.9,727.91,533.4,715.29Z"/><circle class="cls-10" cx="238.54" cy="652.13" r="21.05"/><path class="cls-11" d="M373.33,738.55c11.32-36.81-2-89.15-2-89.15l-125.08-6.68s13.31,136.34,85.67,131c10.73-.78,19.07-4.28,25.53-9.62h0s32.29,39.78,86.18,73.19c49.82,30.9,118.8,55.77,183.45,52.72C753.8,884,413.52,753.73,373.33,738.55Z"/><path class="cls-12" d="M390.75,784.74c108.92,99.19,232.52,110.78,304.93,106.93a351.79,351.79,0,0,0-27-62.92c-37.31-68.42-108.81-62.21-135.28-113.52s-73.09-138.4-73.09-138.4L272.62,246.43s-5.79,46.35-6.45,113.26C264.91,486,281.94,685.64,390.75,784.74Z"/><circle class="cls-10" cx="245.94" cy="536.92" r="20.16"/><path class="cls-8" d="M691.34,878.87c-14.86,2.51-26.11,14.06-26.11,27.87,0,15.73,14.49,28.41,32.34,28.41a36.67,36.67,0,0,0,7.95-.87A276.57,276.57,0,0,0,691.34,878.87Z"/><path d="M703.55,922.36c-.08,0-16.14,2.86-24.25-6.07s-1.63-25.36-10.58-41.38c-5.08-9.1-15.33-14.74-38.17-22S517.43,757,493,726.77c-25.43-31.47-51.69,39.84-37,62.61s98,65.9,155,90.72,54.26,66.36,54.26,66.36l2.83,2.28,13.43,4.62c14.8-3.1,24-2.91,25.27-3.27a22.9,22.9,0,0,0,0-2.62A160.9,160.9,0,0,0,703.55,922.36Z"/><circle class="cls-13" cx="644.65" cy="892.64" r="17.74"/><circle cx="644.65" cy="892.64" r="14.09"/><circle class="cls-14" cx="644.65" cy="892.64" r="12.55"/><circle cx="644.65" cy="892.64" r="8.09"/><circle class="cls-6" cx="650.34" cy="887.13" r="3.81"/><circle class="cls-10" cx="178.11" cy="551.95" r="17.02" transform="translate(-385.08 690.48) rotate(-85.93)"/><circle class="cls-10" cx="213.33" cy="718.87" r="18.22"/><circle class="cls-10" cx="266.1" cy="405.36" r="18.22"/><path class="cls-10" d="M156.19,599.52a29.56,29.56,0,0,0-12.52,2.75,368.66,368.66,0,0,0,3.09,55.27,29.77,29.77,0,1,0,9.43-58Z"/><circle class="cls-10" cx="221.29" cy="472.7" r="14.33"/><circle class="cls-10" cx="213.33" cy="419.9" r="8.74"/><path class="cls-10" d="M216,374.44a12.36,12.36,0,0,0,1.32-24.65q-4.47,10.11-9.44,21.57A12.37,12.37,0,0,0,216,374.44Z"/><path class="cls-15" d="M351.75,718.82,355,744.36q4.51,6.28,9.36,12.23a50.38,50.38,0,0,0,10.08-28.06C375.5,705.63,351.75,718.82,351.75,718.82Z"/><path class="cls-10" d="M166.33,485.6a10.14,10.14,0,0,0,2.84-19.88q-3.39,9.66-6.31,19.25A10.29,10.29,0,0,0,166.33,485.6Z"/><path class="cls-12" d="M244.91,630.85c-3.84-43.7,5.18-287.1,48.9-291s95.06,234.34,98.91,278.06c6,68.43-17.93,142.22-61.62,146.06S250.55,695,244.91,630.85Z"/><ellipse class="cls-4" cx="91.92" cy="753.86" rx="5.86" ry="16.51" transform="translate(-72.48 12.42) rotate(-5.55)"/><path class="cls-6" d="M81.08,877.75l5-70.12a2,2,0,1,0-3.93-.29l-4.61,64.35A56.13,56.13,0,0,0,81.08,877.75Z"/><path class="cls-6" d="M108.72,871l-6.62-63.6a2,2,0,0,0-3.94.41l7.28,69.2A56.31,56.31,0,0,0,108.72,871Z"/><path class="cls-11" d="M680.78,952a676.54,676.54,0,0,1-188,6.65C203.2,928,146.29,683.83,143.9,623.81c4.72,121.34,68.17,224.41,173.14,290.7C441.59,993.17,617,966.83,681.6,953.33,682.92,953.05,682.27,951.72,680.78,952Z"/><path class="cls-16" d="M665.23,946.46s17,8.95,41.53,1c0,0,49.41,41.5,59.91,65,0,0-60.39-13.74-97.65-56.59A14.54,14.54,0,0,1,665.23,946.46Z"/><path class="cls-17" d="M706.79,947.44c-24.44,8-41.53-1-41.53-1s84,57.61,101.44,66C756.2,988.88,706.79,947.44,706.79,947.44Z"/><path class="cls-15" d="M268.62,341.48,266.35,347q-.12,6.06-.18,12.38c6.17,3.93,15.18,11.71,21.27,4.37S268.62,341.48,268.62,341.48Z"/><path class="cls-12" d="M254.63,262c8.53,13.41,46.24,93.21,32.77,101.74s-69.64-59.5-78.17-72.91c-13.35-21-18-48.73-4.54-57.25S242.14,242.36,254.63,262Z"/><path class="cls-15" d="M254.63,262a84.94,84.94,0,0,0-12.23-15l-28.57-15.64a15.16,15.16,0,0,0-9.1,2.19,16.86,16.86,0,0,0-7,10.28c11.27,15.93,53.64,76,76.84,72.35.35,0,4.15-.4,5.07-3,1.66-4.65,3.71-11.1,4.23-11.29C275,278.49,259.06,269,254.63,262Z"/><path class="cls-12" d="M243.89,171.13c10.4,19.18,54.42,132,35.24,142.41s-89.68-88.08-100.08-107.32c-16.27-30-20-68.4-.77-78.8S228.67,143,243.89,171.13Z"/><path class="cls-18" d="M709.31,962.89c-1.41,1.53-7.24-1.51-8.78-2.9a3.75,3.75,0,1,1,5-5.56h0C707.1,955.82,710.69,961.35,709.31,962.89Z"/></svg>