<svg id="Layer_1" data-name="Layer 1" xmlns="http://www.w3.org/2000/svg" xmlns:xlink="http://www.w3.org/1999/xlink" viewBox="0 0 1200 1200"><defs><style>.cls-1{fill:none;}.cls-2{clip-path:url(#clip-path);}.cls-3{fill:#e0deff;}.cls-4{fill:#ffd2e4;}.cls-5{fill:#b75858;}.cls-6{fill:#ff94bd;}.cls-7{fill:#ffd9e8;}.cls-8{fill:#ffc0d7;}.cls-9{fill:#562c15;}.cls-10{fill:#42210b;}.cls-11{fill:#e5b5cb;}.cls-12{fill:#ffdce4;}.cls-13{fill:#b74b4b;}.cls-14,.cls-16{fill:#fff;}.cls-14{opacity:0.5;}.cls-14,.cls-17{isolation:isolate;}.cls-15{fill:#ffcad8;}.cls-17{fill:#e6e6e6;opacity:0.3;}.cls-18{fill:#ce5b5b;}.cls-19{fill:#9e4a4a;}.cls-20{clip-path:url(#clip-path-2);}.cls-21{fill:url(#linear-gradient);}.cls-22{font-size:51.6px;fill:#ffb901;font-family:Lato-Regular, Lato;}.cls-23{letter-spacing:-0.01em;}</style><clipPath id="clip-path"><circle class="cls-1" cx="600" cy="567.38" r="470.2"/></clipPath><clipPath id="clip-path-2"><rect class="cls-1" x="67" y="1324" width="1200" height="841"/></clipPath><linearGradient id="linear-gradient" x1="757.09" y1="1002.47" x2="757.09" y2="2354.33" gradientUnits="userSpaceOnUse"><stop offset="0" stop-color="#7536e9"/><stop offset="1" stop-color="#4a0ca5"/></linearGradient></defs><title>logos</title><g class="cls-2"><rect class="cls-3" x="-61.01" y="24.02" width="1381.12" height="1116.87"/><path class="cls-4" d="M1028.92,1230.68S1120,1107.88,1216.53,1119s99.73,61.74,85.47,107.65-146.46,152.13-146.46,152.13l152.71-39.18s-10.08-10.49-8.74-14.51c3.11-9.31,98-17.63,98-13.79,0,4.21-174.24,119-229.27,141.48-50.12,20.5-127.7,31.21-151.65,0s1.46-118.26,78.37-176.31Z"/><path class="cls-5" d="M1028.92,1230.68S1120,1107.88,1216.53,1119s99.73,61.74,85.47,107.65-146.46,152.13-146.46,152.13l133.28-34.22,18.41,28.23c-51.32,32.68-111.91,69.54-140.11,81.06-50.12,20.5-126.6,30.1-150.54-1.08s2.54-112.62,75.06-179.61Z"/></g><path class="cls-6" d="M429.82,970.85c4.77-1.79,5.95,2.16,7.74,6.94s3.5,8.53-1.27,10.32-22.3,3.95-24.09-.82S425.05,972.61,429.82,970.85Z"/><path class="cls-7" d="M439.39,815.64s-25.07,27-34.79,44.72a117.38,117.38,0,0,0-15,3.34c-43.09,12.2-66.9,46.22-72.65,67.65s27.47,63.74,51.79,71.41S464.6,961,470.71,947.93C475,938.69,455,910,449.57,897.39c-3-7-3.23-12.41,1-30.6s19.11-38.53,19.11-38.53Z"/><path class="cls-8" d="M439.35,893.82c4.22,16.19,22.2,44.49,32,51,.11-11.4-16.85-36.06-21.74-47.48-3-7-3.24-12.41,1-30.6s19.11-38.53,19.11-38.53l-16.67,9.87S433.58,871.65,439.35,893.82Z"/><path class="cls-9" d="M308.09,930.62c-2.68,26.09,3.19,42.37,32.58,64.11,30.64,22.66,37.53,12.28,32.42-18.74C368,945.2,381,926.73,395.63,920.15s-30.08-2-28.5-13.4,21.09-16.39,26.87-12,31.53-35.49,8.72-37S314.24,871.07,308.09,930.62Z"/><path class="cls-10" d="M394.39,894.92a.83.83,0,0,0,.22.08h.81l.29-.06h.1a1.81,1.81,0,0,0,.31-.09h.09l.34-.14h.08l.37-.2h0l.41-.25h0l.45-.3h0c.16-.11.31-.24.47-.37h0a21.43,21.43,0,0,0,2.62-2.51c-3.45-2.47-9.07-3.24-13-2.41a15.56,15.56,0,0,0-10.08,6.7c6.06-2.48,12.95-2.78,16-.48a1.11,1.11,0,0,0,.3.17Z"/><path class="cls-11" d="M393.25,905.59h0c-.44,1.63-2.22,2.87-3.72,1.68-2.72-2.16-4.32-2.16-7.42,0-1.69,1.16-3.23.31-3.75-1.41h0c-.52-1.72-.41-2.72,1.89-4.24,4.15-2.74,6.82-1.7,10.86.1A3.58,3.58,0,0,1,393.25,905.59Z"/><path class="cls-9" d="M310.91,888.85c17.76,8.25,15.35,19.25,9.81,33.45s-16.6,23.05-29.9,17.84-16.19-19.58-10.65-33.74S298,882.76,310.91,888.85Z"/><path class="cls-10" d="M288.51,939a24.26,24.26,0,0,0,2.31,1.08c13.3,5.21,24.35-3.69,29.9-17.85,3.33-8.5,5.52-15.87,2.89-22.18C318.8,916.15,302.33,933.52,288.51,939Z"/><path class="cls-12" d="M1004.48,818c-26.25-42.87-53.81-62.19-87.32-106S840.22,471.27,737,468s-41.65,163.67-41.65,163.67l11.87-15C725,662.4,849.67,757.28,870.53,791.83c11.41,18.83,38.16,38.07,45.25,45.79,18.7,20.35,141.9,194.85,141.9,194.85s-70.14,27.44-67.1,31.29c2.88,3.66,97.35-1.56,100.52-7C1096,1048.31,1030.73,860.79,1004.48,818Z"/><path class="cls-13" d="M916.56,838.57l.79.91a1.57,1.57,0,0,1,.17.21l.91,1.08.09.12c.31.36.63.76,1,1.17l.13.15,1.08,1.33.21.27,1.15,1.43.2.26,1.26,1.61h0l1.38,1.77.21.27,1.38,1.79.28.36c.48.62,1,1.26,1.47,1.91l.16.21,1.47,1.92.24.33c.5.67,1.07,1.36,1.56,2.07l.36.46,1.61,2.16.3.39c.56.73,1.07,1.49,1.69,2.26l.11.15,1.83,2.45.3.39,1.86,2.5.28.37,2,2.64.15.2,1.95,2.64.22.3,2,2.73c.12.16.24.31.35.47l2,2.74.37.51,2.07,2.82.07.08,2.16,3,.32.43,2.16,3,.38.53,2.23,3,.12.17,2.24,3.08.27.38c.72,1,1.47,2,2.24,3.07l.43.57,2.28,3.17.23.31,5,6.83.21.28,2.39,3.32.38.52,4.84,6.68.38.54c.77,1.08,1.55,2.16,2.31,3.24l.46.61,2.35,3.24.34.48,2.3,3.19.17.25,2.5,3.46a3.88,3.88,0,0,0,.23.33l2.39,3.33.44.61,2.35,3.24.18.23,2.39,3.35.2.26,2.39,3.36.36.49,2.35,3.24.22.29,2.4,3.36.06.08c.84,1.17,1.67,2.33,2.49,3.49l.11.15c.8,1.08,1.6,2.24,2.39,3.35l.22.3,4.61,6.47.36.51,7,9.71a.66.66,0,0,0,.12.17c1.47,2.09,2.91,4.12,4.32,6.11l.35.5,6.09,8.56.24.35,1.83,2.56.18.26,5.4,7.56q.27.36.54.75l.53.75,1.07,1.52,1.29,1.8v.05l5.66,8,32.25-2-.06-.21c-.25-.8-.5-1.62-.75-2.44a1.68,1.68,0,0,0-.14-.47c-.21-.72-.44-1.44-.66-2.15-.07-.21-.12-.4-.19-.6-.26-.85-.53-1.69-.8-2.55l-.16-.54c-.24-.74-.46-1.48-.7-2.24-.06-.21-.14-.43-.2-.64l-.87-2.71-.13-.4-.77-2.45c-.08-.22-.14-.44-.22-.66-.3-.94-.6-1.88-.92-2.83l-.13-.4c-.27-.85-.55-1.7-.83-2.55-.07-.23-.14-.46-.21-.67-.33-1-.64-2-1-3a1.12,1.12,0,0,0-.12-.35l-.88-2.66c-.08-.26-.17-.51-.25-.76l-1-3-.1-.3-.93-2.8-.26-.77c-.35-1-.7-2.05-1.08-3.08l-.09-.25c-.32-1-.66-1.94-1-2.93-.09-.25-.17-.51-.27-.77-.36-1.08-.72-2.16-1.08-3.19v-.06l-1.08-3.14c-.09-.27-.18-.53-.28-.8-.72-2.16-1.46-4.31-2.23-6.47-.11-.29-.21-.58-.31-.87-.37-1.07-.75-2.15-1.14-3.23h0l-1.16-3.31c-.1-.26-.19-.53-.28-.79l-1.08-3.24v-.14l-1.18-3.31c-.1-.27-.19-.53-.28-.79-.38-1.08-.75-2.06-1.08-3.09l-.1-.09c-.38-1.08-.78-2.16-1.18-3.32l-.29-.8-1.16-3.18-.06-.17c-.41-1.08-.82-2.25-1.24-3.38-.09-.26-.19-.5-.29-.76-.35-1-.72-2-1.07-3l-.17-.43c-.41-1.08-.82-2.22-1.22-3.32l-.29-.77c-.37-1-.74-2-1.08-3l-.15-.41c-.41-1.08-.83-2.16-1.24-3.31l-.29-.78-1.08-2.9-.18-.48-1.23-3.23q-.16-.39-.3-.78l-1.08-2.83-.2-.53-1.23-3.23c-.11-.27-.2-.54-.31-.8-.36-.93-.7-1.85-1.08-2.76l-.21-.54L1039,895c-.11-.24-.21-.5-.31-.75-.35-.91-.7-1.8-1.08-2.7-.07-.19-.15-.38-.21-.57l-1.23-3.11-.29-.73-1.08-2.59-.25-.62-1.23-3.06c-.08-.2-.15-.4-.24-.59-.34-.88-.7-1.76-1.08-2.63-.07-.2-.16-.4-.23-.59l-1.2-3-.26-.63-1-2.47-.26-.64q-.62-1.45-1.2-2.88l-.22-.52c-.34-.83-.69-1.65-1.08-2.47-.08-.19-.17-.39-.24-.58-.4-.94-.79-1.88-1.18-2.81a3.9,3.9,0,0,1-.2-.47l-1-2.35c-.08-.21-.17-.41-.27-.62-.38-.9-.75-1.78-1.14-2.67l-.2-.46c-.32-.75-.65-1.5-1-2.24l-.26-.61-1.08-2.52-.19-.43-.95-2.16-.27-.6-1.08-2.39c0-.13-.12-.26-.18-.39-.3-.68-.62-1.35-.92-2l-.26-.57L1015,838.3l-.13-.27c-.31-.67-.61-1.32-.92-2a5.29,5.29,0,0,1-.25-.54l-1-2.16-.09-.21c-.31-.63-.62-1.24-.91-1.85l-.25-.49-1-1.94-.1-.18c-.29-.58-.58-1.15-.87-1.7l-.23-.46c-.31-.6-.62-1.19-.94-1.76l-.05-.11-.85-1.59-.23-.41-.88-1.58h0l-.84-1.45-.21-.36c-.28-.48-.56-.95-.83-1.39-26.25-42.87-53.81-62.18-87.33-106S840.22,471.27,737,468s-41.65,163.67-41.65,163.67l11.87-15C725,662.4,849.67,757.28,870.53,791.83c11.41,18.83,38.16,38.07,45.25,45.79l.73.81A1.21,1.21,0,0,0,916.56,838.57Z"/><path class="cls-12" d="M1026.09,827.88c-25.32-43.43-52.46-63.32-85-107.9S854.92,458.46,751.8,453,628.07,554.69,628.07,554.69s-21.49,61-48,98.31c-16.89,23.74-71.13,85.33-114.86,118.31-3.12,2.36-4.2,3.44-6.48,4.92-3.49,2.3-16.8,17-29.74,35h0c-8.35,11.62-15.87,24.81-18.87,37.57-4.94,21-50.81,84.44-71.5,105.43s-74.57,51.14-94.22,64.1-61.23,48.73-76.14,49.45c-9,.43-27.95-10.79-34.43-8.12-12.49,5.08-27.47,14.43-39.4,25.22-6,5.4-.3,6.74,19.8,5.85,26.67-1.19,56.29.3,64.36-5.18s146.63-47.34,161.46-60.92,85.59-80.3,94.49-92.2,44.12-40.18,56.3-45.93,82.55-.85,98.36-5.2c8.47-2.33,25.51-6.69,30.71-27.87,10.22-32.89,17.44-31,38.73-55.9,12.85-15,24.74-24.08,28.33-42.41,2.89-14.69,2.68-27.34,8.14-47.32C704.64,673.08,721,635,721,635l12.19-14.75c16.74,46.06,139.33,143.62,159.5,178.6,11,19.07,37.33,38.84,44.24,46.74,18.25,20.75,137.69,197.87,137.69,197.87s-70.72,25.89-67.75,29.86c2.79,3.72,97.34.52,100.63-4.85C1112.62,1060.14,1051.44,871.3,1026.09,827.88Z"/><path class="cls-14" d="M169.19,1074.08c10-.73,57-32.32,73.92-44.91,18.34-13.67,66.45-41.45,80.6-52.13s40.38-40.57,53.71-60c12.65-18.34,33.37-45.65,40.31-68.1s26.33-52.51,69.13-85.87c32.18-25.07,59-68.68,59-68.68h0c-23.6,26.27-54,56.86-80.61,76.89-3.12,2.37-4.2,3.44-6.48,4.92-3.49,2.3-16.8,17-29.74,35h0c-8.35,11.62-15.87,24.81-18.87,37.57-4.94,21-50.81,84.44-71.5,105.43s-74.57,51.14-94.22,64.1-61.23,48.73-76.14,49.45c-9,.43-27.95-10.79-34.43-8.12-12.49,5.08-27.47,14.43-39.4,25.22,0,0,28.65-18.15,42.17-18.73S160.71,1074.69,169.19,1074.08Z"/><path class="cls-15" d="M567.41,883.25h0c-15.28.17-36.8-11.87-74.87-3.91-36.13,7.55-132.79,126.51-160.65,142-22.1,12.32-79.09,32-118.61,45.77s-46,21.65-46,21.65l2.33-.35c4-.65,7.1-1.54,9-2.84,8.06-5.48,146.63-47.34,161.46-60.92s85.59-80.3,94.49-92.2,44.12-40.18,56.3-45.93C499.81,882.37,540.36,883.87,567.41,883.25Z"/><path class="cls-15" d="M1057.06,1012.33l-10.93,3.9,11.49,16.24s-66.65,26.08-67.17,31l.08.34s77.26-23.66,78.13-28.06C1069.19,1033.11,1057.06,1012.33,1057.06,1012.33Z"/><path class="cls-15" d="M1077.09,1033.11l-9.23.37,6.77,10s-70.72,25.9-67.75,29.87c0,0,77.12-22.88,77.68-26C1084.79,1045.55,1077.09,1033.11,1077.09,1033.11Z"/><path class="cls-16" d="M636.71,528.34a143.76,143.76,0,0,0-8.63,26.35s-21.49,61-48,98.31C570,667.21,546.53,694.93,520,722a5.52,5.52,0,0,1-1.08,1.08c4.68,20.11-16,50.62-47.27,63.1a308.82,308.82,0,0,0-36.63,17c-2,2.6-4,5.31-6,8.11h0c-2.8,3.91-5.52,8-8,12.21,11.64-6.94,28.39-15.47,44.9-19.17,29.85-6.69,50.34.88,58.48,14.37,5.74,9.51,10,43.1-16,65.28,25.58-1.33,68.84.69,80.81-2.6,8.47-2.33,25.52-6.69,30.72-27.87,10.22-32.89,17.44-31,38.73-55.89,12.85-15,24.74-24.09,28.33-42.42,2.88-14.68,2.68-27.34,8.14-47.31C704.63,673.11,721,635,721,635l5.08-6.14C695.63,589.5,658.68,545.84,636.71,528.34Z"/><path class="cls-17" d="M721,635l5.08-6.14c-2.37-3.06-4.78-6.15-7.21-9.23a38,38,0,0,0-5.1,7.68c-7.44,14.89-14.6,36.69-20.21,67.08-3.46,18.7-3.74,29.29-3,35.29a178,178,0,0,1,4.51-21.83C704.63,673.11,721,635,721,635Z"/><path class="cls-18" d="M937.77,846.59l.77.94.16.21c.29.34.58.7.88,1.08l.1.11.93,1.2a.79.79,0,0,1,.12.15l1.08,1.35.21.27,1.08,1.47.2.26,1.23,1.64h0l1.34,1.8.2.26,1.34,1.82c.1.12.19.25.28.38l1.42,1.93.16.23,1.42,1.95.24.31,1.52,2.11c.11.16.23.31.35.47l1.57,2.16.27.39,1.66,2.3.1.14,1.78,2.49.29.41c.6.83,1.2,1.67,1.8,2.54l.27.37,1.9,2.68.15.22,1.89,2.66.22.3,2,2.79.34.47,2,2.79.36.51,2,2.86.07.09c.7,1,1.42,2,2.16,3,.1.15.2.3.31.44l2.09,3,.38.54c.71,1.08,1.42,2,2.16,3.09l.11.17,2.15,3.13.27.39,2.16,3.11.41.59,2.22,3.24.23.32,4.8,6.93.2.29,2.33,3.37c.12.17.23.35.36.53l4.69,6.78.37.55,2.25,3.24.43.63,2.28,3.31.34.49,2.22,3.24.18.25c.8,1.18,1.61,2.34,2.41,3.52l.23.33,2.32,3.38.42.62,2.29,3.34.16.23,2.33,3.41.19.25,2.33,3.41.33.5,2.29,3.34a3.28,3.28,0,0,1,.2.31c.79,1.13,1.56,2.26,2.33,3.4l.07.08,2.42,3.54.09.15,2.33,3.41.21.3,4.47,6.56c.11.18.23.34.34.51l6.75,9.91.12.17,4.21,6.2.36.51,5.9,8.63.23.35,1.77,2.61.18.26,5.22,7.71.53.77.51.75,1.08,1.55,1.24,1.82v.07l5.49,8.1,32.28-1.3,0-.21q-.35-1.21-.69-2.46l-.14-.47c-.2-.72-.41-1.44-.62-2.15a2.78,2.78,0,0,0-.17-.61l-.73-2.57-.16-.54-.66-2.25c-.06-.22-.12-.42-.19-.65-.27-.89-.53-1.8-.8-2.73a2.19,2.19,0,0,0-.11-.4c-.25-.81-.49-1.64-.74-2.46-.06-.22-.13-.44-.2-.67l-.85-2.84a1.64,1.64,0,0,0-.12-.4l-.78-2.57-.21-.68c-.3-1-.59-2-.9-3a1.24,1.24,0,0,0-.11-.36c-.27-.88-.54-1.78-.82-2.67-.08-.25-.15-.51-.24-.77-.3-1-.61-2-.94-3l-.08-.3c-.29-.93-.58-1.87-.89-2.82-.07-.26-.16-.51-.23-.77-.33-1-.65-2.06-1-3.11a2.17,2.17,0,0,0-.07-.24c-.3-1-.62-2-.93-2.94-.09-.27-.16-.53-.25-.79-.34-1.08-.68-2.16-1.08-3.24v-.06c-.33-1.08-.67-2.16-1-3.16l-.26-.81-2.16-6.48c-.08-.28-.18-.57-.28-.86l-1.08-3.24h0c-.36-1.08-.72-2.22-1.08-3.33l-.27-.8-1.07-3.24v-.14c-.37-1.08-.74-2.22-1.08-3.34l-.27-.79-1.08-3.11-.11-.31c-.37-1.08-.75-2.22-1.08-3.34-.09-.27-.18-.55-.28-.82-.36-1.07-.71-2.15-1.08-3.23l-.06-.17c-.38-1.08-.77-2.28-1.16-3.41-.08-.26-.18-.52-.27-.77l-1.08-3c0-.15-.11-.29-.15-.44l-1.15-3.34c-.1-.26-.19-.53-.28-.79l-1.08-3-.15-.43-1.17-3.32-.27-.79-1.08-2.92-.16-.49-1.16-3.23c-.1-.27-.2-.53-.29-.79-.34-1-.67-1.91-1.07-2.86a1.56,1.56,0,0,0-.19-.52c-.39-1.08-.77-2.16-1.15-3.24l-.29-.79-1-2.79c-.07-.18-.14-.35-.2-.54-.38-1.08-.77-2.16-1.16-3.23l-.28-.78-1-2.72-.21-.56c-.38-1.08-.77-2.09-1.15-3.14l-.28-.73-1-2.63c-.08-.2-.15-.41-.24-.61-.38-1.08-.76-2.07-1.15-3.1l-.23-.59-1-2.66-.23-.59c-.38-1-.76-2-1.08-3l-.25-.63c-.32-.85-.63-1.68-1-2.51-.08-.2-.16-.42-.25-.63l-1.07-2.91c-.07-.17-.13-.35-.21-.53l-1-2.49-.24-.58c-.36-1-.74-1.89-1.08-2.83l-.19-.47-1-2.39c-.08-.2-.16-.41-.25-.61-.36-.91-.72-1.8-1.08-2.69l-.19-.46-.93-2.27c-.09-.2-.17-.41-.25-.61l-1.08-2.55-.19-.44-.9-2.16-.26-.59c-.34-.82-.68-1.62-1.08-2.42l-.17-.4-.87-2-.25-.57-1-2.29-.12-.27c-.29-.67-.6-1.34-.89-2a4.45,4.45,0,0,0-.25-.54l-1-2.16-.1-.22c-.3-.63-.58-1.26-.87-1.87a4.44,4.44,0,0,0-.24-.49c-.31-.67-.61-1.33-.92-2,0-.07-.06-.13-.09-.19-.28-.59-.56-1.16-.84-1.72l-.23-.46c-.29-.61-.59-1.2-.88-1.79v-.1l-.82-1.6c-.08-.14-.15-.28-.22-.42l-.85-1.6h0c-.27-.51-.54-1-.81-1.47l-.19-.35q-.4-.74-.81-1.41c-25.33-43.43-52.46-63.32-85-107.9S854.92,458.46,751.8,453,628.07,554.69,628.07,554.69s-3.66,10.4-9.82,25.23c10.38,11.52,86.25,71.37,93.81,77.33,2.16-5.66,4.13-10.56,5.64-14.3,1.92-5,3.24-7.92,3.24-7.92l12.19-14.75c16.75,46.07,139.33,143.62,159.5,178.6,11,19.08,37.33,38.84,44.24,46.74l.71.83Z"/><path class="cls-19" d="M744.46,631.76c.73-11.21-8.2-24.81-11.26-22.92a52.31,52.31,0,0,0-19.07,18.71c-3.75,6.26-6.84,14.18-9.88,23.53l7.81,6.17c2.16-5.66,4.13-10.56,5.64-14.3a52.86,52.86,0,0,1,3.69-7.84l12.2-13.78c2.06,5.7,5.39,11.11,10.26,18.16C743.85,639.47,744.17,636.25,744.46,631.76Z"/><path class="cls-19" d="M937.65,846.45l.12.14h0l1.7,2.1.07.08.09.12h0q1,1.27,2.16,2.82l.09.11v0l1,1.35v.06h0l1.34,1.78v.08h0l.16.21,1.36,1.84h0c.93,1.24,1.9,2.57,2.91,4l.12.16.15.2,3.17,4.31h0l.11.17,3.61,5,.13.17.1.14.12.2c1.21,1.68,2.46,3.43,3.74,5.23h0l.27.38h0l4,5.63.16.23.14.2,4.32,6.15.14.21h0c1.38,2,2.77,4,4.2,6h0l2.24,3.23.14.21.09.13,2.41,3.46h0l5,7.24.09.12V910l2,2.85.21.29.22.33.13.19q3.72,5.4,7.56,10.87h0l4.91,7.11.12.18.22.31,2.22,3.24.24.35.24.34,1.7,2.48.34.49.14.19,2.16,3.13.28.41.17.25.38.55,1.73,2.54c.1.14.2.29.31.43l.22.33.07.1,2.49,3.64a1.27,1.27,0,0,1,.18.27l.43.61,1.81,2.63v.09l.16.23h0l1.5,2.15.81,1.19.18.26,1,1.42.63.91.73,1.08.34.5.32.46,1.91,2.79v.09l.2.3.9,1.3.69,1,.75,1.08.06.09.29.44c.72,1.08,1.44,2.08,2.16,3.13l.09.12,2.33,3.41.2.3.5.73,3.53,5.18c.15.21.3.43.44.65s.24.33.34.51.44.61.64.92l1.79,2.63,2,3c.55.82,1.08,1.63,1.66,2.44.2.3.41.61.62.9l.12.17,2.87,4.23.56.84c.26.37.53.76.78,1.14l.35.51c.16.23.3.46.47.69l1.91,2.8,1.33,2,1.85,2.7c.11.18.22.35.34.51l.23.35,1.77,2.61.18.26.31.44c.7,1.08,1.4,2.07,2.08,3.07l.76,1.14,2,2.92.09.14.37.55.09.13.06.09.27.41c.44.62.86,1.26,1.28,1.87h0l1.24,1.82v.06l.12.18c2,3,3.81,5.63,5.39,7.93l9.23-.37C1042.57,981,984.69,892.67,975.52,877.7c-10.24-16.62-29.07-39.46-50.31-63.16-5.61-6.26-11.39-12.57-17.27-18.86-27.14-29.25-53.32-56.59-71.38-74.25-80.93-79.13-80.93-79.13-98.8-113-2.16-4-17.65-50.13-17.49-48.43,5.08,51,12.2,59.78,12.2,59.78C749.21,665.81,871.8,763.36,892,798.34c.51.87,1.08,1.75,1.61,2.62l.35.52c.55.84,1.13,1.69,1.73,2.54l.34.45c.57.8,1.17,1.6,1.79,2.38l.23.3c.65.85,1.34,1.7,2.06,2.54.14.18.29.36.44.53.71.84,1.42,1.68,2.16,2.51l.22.26c.63.7,1.25,1.42,1.9,2.1.23.22.43.45.65.69.75.81,1.53,1.62,2.31,2.41l.46.49c.8.81,1.6,1.62,2.41,2.42h0c2.16,2.15,4.31,4.23,6.47,6.21h0l.24.22,2.16,2,.4.36,2,1.83.8.72c.19.18.37.35.56.51l.91.82.15.14c1.22,1.08,2.4,2.16,3.51,3.16l.15.13,1.08,1,.18.16,1.2,1.08h0l1,.94.31.28.74.7.27.25.92.88h0l.76.76.23.23.54.56.21.22c.23.25.45.48.64.7l.7.82Z"/><ellipse class="cls-16" cx="377.27" cy="435.42" rx="71.92" ry="14.74" transform="translate(-169.42 617.25) rotate(-67.49)"/><ellipse class="cls-16" cx="396.28" cy="522.91" rx="73.7" ry="15.11" transform="translate(-242.14 371.59) rotate(-39.51)"/><ellipse class="cls-16" cx="397.01" cy="617.69" rx="79.38" ry="16.27" transform="translate(-160.76 140.14) rotate(-16.7)"/><ellipse class="cls-16" cx="349.43" cy="726.07" rx="82.55" ry="16.92" transform="translate(-319.69 277.11) rotate(-30.44)"/><ellipse class="cls-16" cx="243.72" cy="751.49" rx="82.55" ry="16.92" transform="matrix(0.02, -1, 1, 0.02, -512, 981.79)"/><ellipse class="cls-16" cx="348.79" cy="376.35" rx="12.3" ry="60.04"/><ellipse class="cls-16" cx="299.12" cy="472.16" rx="14.74" ry="71.92" transform="translate(-232.05 298.19) rotate(-39.51)"/><ellipse class="cls-16" cx="276.46" cy="558.92" rx="14.75" ry="71.96" transform="translate(-331.04 418.31) rotate(-50.65)"/><ellipse class="cls-16" cx="274" cy="631.11" rx="17.31" ry="84.48" transform="translate(-187.13 120.49) rotate(-18.62)"/><path class="cls-16" d="M198.34,908.81l.31.28a2.69,2.69,0,0,0,3.77-.51v0c.41-.53,40.41-53.95,78.51-142.18a882.71,882.71,0,0,0,51.6-159.15,797,797,0,0,0,18.63-201.48,2.7,2.7,0,0,0-5.4.19A791.26,791.26,0,0,1,327.28,606,878.67,878.67,0,0,1,276,764.09c-30.28,70.14-64.21,123-77.93,141.22A2.7,2.7,0,0,0,198.34,908.81Z"/><ellipse class="cls-16" cx="743.61" cy="801.79" rx="9.35" ry="45.64" transform="translate(-250.31 345.77) rotate(-22.51)"/><ellipse class="cls-16" cx="731.51" cy="857.32" rx="9.58" ry="46.77" transform="translate(-395.32 876.25) rotate(-50.49)"/><ellipse class="cls-16" cx="731.11" cy="917.63" rx="10.33" ry="50.38" transform="translate(-357.91 1354.21) rotate(-73.3)"/><ellipse class="cls-16" cx="753.69" cy="970.32" rx="10.74" ry="52.39" transform="translate(-464.73 1128.53) rotate(-59.56)"/><ellipse class="cls-16" cx="817.75" cy="917.53" rx="52.39" ry="10.74" transform="translate(-403.84 1052.8) rotate(-54.61)"/><ellipse class="cls-16" cx="822.25" cy="970.45" rx="52.39" ry="10.74" transform="translate(-267.06 1627.16) rotate(-80.81)"/><ellipse class="cls-16" cx="759.55" cy="762.47" rx="7.83" ry="38.17" transform="translate(-44.3 46.86) rotate(-3.43)"/><ellipse class="cls-16" cx="784.5" cy="823.91" rx="45.64" ry="9.35" transform="translate(-281.84 1220.4) rotate(-66.8)"/><ellipse class="cls-16" cx="800.34" cy="870.36" rx="45.67" ry="9.35" transform="translate(-372.71 1018.76) rotate(-54.61)"/><path class="cls-16" d="M857.14,1102.28a1.8,1.8,0,0,1-.2.19,1.71,1.71,0,0,1-2.39-.33h0c-.25-.33-25.63-34.22-49.81-90.22a560.72,560.72,0,0,1-32.75-101A505.22,505.22,0,0,1,760.11,783a1.72,1.72,0,1,1,3.43-.11,1.93,1.93,0,0,1,0,.24,503,503,0,0,0,11.73,127,556.65,556.65,0,0,0,32.53,100.35c19.22,44.55,40.8,78.09,49.48,89.61A1.7,1.7,0,0,1,857.14,1102.28Z"/><path class="cls-16" d="M859.19,227.61a10.35,10.35,0,0,1-8.79-7.79,10.4,10.4,0,0,1-8.24,9.72,10.37,10.37,0,0,1,9.33,7.71A10.36,10.36,0,0,1,859.19,227.61Z"/><path class="cls-16" d="M886.55,258.18a8,8,0,0,1-6.76-6,7.94,7.94,0,0,1-6.31,7.45,8,8,0,0,1,7.15,5.92A8,8,0,0,1,886.55,258.18Z"/><circle class="cls-16" cx="759.6" cy="250.18" r="46.69"/><circle class="cls-14" cx="750.93" cy="261.12" r="46.69"/><path class="cls-16" d="M796.42,757.58a7.26,7.26,0,0,1-6.16-5.45,7.24,7.24,0,0,1-5.77,6.78,7.29,7.29,0,0,1,6.48,5.4A7.24,7.24,0,0,1,796.42,757.58Z"/><path class="cls-16" d="M304,287a10.38,10.38,0,0,1-10.12-6,10.41,10.41,0,0,1-6.23,11.11,10.35,10.35,0,0,1,10.63,5.79A10.37,10.37,0,0,1,304,287Z"/><path class="cls-16" d="M308.93,346.11a5.14,5.14,0,0,1-5.79.39,5.11,5.11,0,0,1,.55,6.26,5.13,5.13,0,0,1,5.95-.61A5.07,5.07,0,0,1,308.93,346.11Z"/><path class="cls-16" d="M248.36,366.23a8.37,8.37,0,0,1-9.17-2.51,8.38,8.38,0,0,1-2.53,10,8.4,8.4,0,0,1,9.53,2.29A8.4,8.4,0,0,1,248.36,366.23Z"/><g class="cls-20"><rect class="cls-21" x="-274.81" y="954.69" width="2063.81" height="1444.67"/><text class="cls-22" transform="translate(-110.42 1152.97)"><tspan class="cls-23">В</tspan><tspan x="32.97" y="0">ебинар</tspan></text><rect class="cls-1" x="-274.81" y="954.69" width="2063.81" height="1444.67"/></g></svg>