<svg id="Layer_1" data-name="Layer 1" xmlns="http://www.w3.org/2000/svg" xmlns:xlink="http://www.w3.org/1999/xlink" viewBox="0 0 1200 1200"><defs><style>.cls-1{fill:none;}.cls-2{fill:#fff;}.cls-3{clip-path:url(#clip-path);}.cls-4{fill:#ffffe5;}.cls-5{fill:#99ad89;}.cls-6{fill:#4d4d4d;}.cls-7{fill:#bdccd4;}.cls-8{fill:#ff7bac;}.cls-9{fill:#9aa7ad;}</style><clipPath id="clip-path"><circle class="cls-1" cx="600.03" cy="599.98" r="517.02"/></clipPath></defs><title>logo</title><circle class="cls-2" cx="600.03" cy="599.98" r="442.97"/><g class="cls-3"><circle class="cls-4" cx="602.9" cy="617.57" r="544.99"/><path class="cls-5" d="M620.73,634.21H580.66a8.36,8.36,0,0,1,0-16.69h40.05a8.36,8.36,0,0,1,0,16.69Z"/><path class="cls-6" d="M673.48,786.81a8.31,8.31,0,0,1-7.62-4.65L592.17,632.05a8.34,8.34,0,0,1,15-7.34h0l73.68,150.08A8.36,8.36,0,0,1,677,786,8.18,8.18,0,0,1,673.48,786.81Z"/><path class="cls-6" d="M327.35,873.19A166,166,0,1,1,493.16,706.92v0A166.24,166.24,0,0,1,327.35,873.19Zm-.4-312A146,146,0,1,0,473.14,707v0A146.14,146.14,0,0,0,327,561.16Z"/><path class="cls-5" d="M327.86,880.69A173.23,173.23,0,1,1,500.94,707.25,173.24,173.24,0,0,1,327.86,880.69ZM327.45,551A156.54,156.54,0,1,0,484.17,707.31v0A156.71,156.71,0,0,0,327.45,551Z"/><path class="cls-6" d="M872.16,872.5A166,166,0,1,1,1038,706.24v0A166.21,166.21,0,0,1,872.16,872.5Zm-.28-312a146,146,0,1,0,146.2,145.84A146,146,0,0,0,871.88,560.45Z"/><path class="cls-5" d="M872.67,880.43A173.64,173.64,0,1,1,1046.1,706.59v.11A173.81,173.81,0,0,1,872.67,880.43Zm-.4-329.76a156.13,156.13,0,1,0,156.3,156,156.14,156.14,0,0,0-156.3-156Z"/><rect class="cls-7" x="208.08" y="535.76" width="344.5" height="16.69" transform="translate(-254.54 738.13) rotate(-72.04)"/><circle class="cls-8" cx="327.56" cy="707.59" r="18.78"/><path class="cls-7" d="M876,716.58s-250.39-9.53-253.85-12.7l-223.58-212a10.45,10.45,0,0,1,7.16-18l296.33-.35,34.71-107.22,15.88,5.08-35.42,109L882.05,705.37a7.07,7.07,0,0,1-6,11.21ZM648.68,691.45l208,7.62L710.8,499.83ZM421.31,490.35,631.68,689.77l64.89-199.72Z"/><path class="cls-9" d="M678.38,764.32c-15.65,0-28.25-.23-35.87-.43-35.19-.94-63.09-29.4-62.18-63.52s30.29-61,65.48-60a1185.67,1185.67,0,0,1,136.67,13.06c77.67,12.7,115.52,30.49,115.75,55a27.29,27.29,0,0,1-9,20.07c-17.2,16.93-60.37,27.95-128.29,33C731,763.68,701.4,764.29,678.38,764.32ZM644,649.61c-29.42,0-53.66,22.63-54.44,51.09-.77,29,23.12,53.2,53.23,54,18.69.48,67.58,1.27,117.5-2.39C825,747.6,867.36,737.08,882.76,722A18.24,18.24,0,0,0,889,708.53c0-10.62-14.25-30.75-108-46a1173.19,1173.19,0,0,0-135.44-12.91Z"/><circle class="cls-7" cx="636.26" cy="702.17" r="18.78"/><path class="cls-8" d="M636.31,761.42a59.25,59.25,0,1,1,59.17-59.32A59.24,59.24,0,0,1,636.31,761.42Zm0-106a46.82,46.82,0,1,1-.1,0h.1Z"/><circle class="cls-8" cx="874.04" cy="707.71" r="18.78"/><path class="cls-6" d="M673.48,786.81a8.32,8.32,0,0,1-7.62-4.7l-36-74.22a8.34,8.34,0,0,1,15-7.27l36,74.22a8.31,8.31,0,0,1-3.8,11.12,8.42,8.42,0,0,1-3.69.85Z"/><polygon class="cls-9" points="730.52 385.42 748.05 385.39 752.65 371.29 744.7 368.73 735.93 368.73 730.52 385.42"/><path class="cls-8" d="M819,372l-122.64.15a8.36,8.36,0,1,1-.92-16.69,7.06,7.06,0,0,1,.92,0L819,355.29A8.36,8.36,0,0,1,819,372Z"/><polygon class="cls-9" points="419.33 396.68 436.86 396.65 441.46 382.55 433.5 379.96 424.74 379.98 419.33 396.68"/><path class="cls-8" d="M363.46,451.43a41.11,41.11,0,0,1,0-82.22l110.16-.53h0a8.36,8.36,0,0,1,0,16.69l-110.19.53a24.42,24.42,0,0,0,0,48.84,8.36,8.36,0,0,1,0,16.69Z"/><path class="cls-5" d="M691,790.13H651.78a8.36,8.36,0,0,1,0-16.69H691a8.36,8.36,0,0,1,0,16.69Z"/><rect class="cls-7" x="78.23" y="880.76" width="1033.04" height="298.05"/></g></svg>