<?xml version="1.0" encoding="utf-8"?>
<!-- Generator: Adobe Illustrator 23.1.1, SVG Export Plug-In . SVG Version: 6.00 Build 0)  -->
<svg version="1.1" id="Layer_1" xmlns="http://www.w3.org/2000/svg" xmlns:xlink="http://www.w3.org/1999/xlink" x="0px" y="0px"
	 viewBox="0 0 1200 1335.1" style="enable-background:new 0 0 1200 1335.1;" xml:space="preserve">
<style type="text/css">
	.st0{fill:#FF9292;stroke:#FF9292;stroke-width:1.68;stroke-miterlimit:10;}
	.st1{fill:#C7ECFF;stroke:#C7ECFF;stroke-width:1.68;stroke-miterlimit:10;}
	.st2{fill:#F7987C;}
	.st3{fill:none;stroke:#000000;stroke-width:1.26;stroke-miterlimit:10;}
	.st4{fill:#FFE80E;}
	.st5{fill:#FFE80F;}
	.st6{fill:#6CA6E3;}
	.st7{fill:none;stroke:#000000;stroke-width:1.36;stroke-miterlimit:10;}
	.st8{fill:#3C75BA;}
</style>
<title>logo</title>
<path class="st0" d="M-3.8,750.1h1226c83.6,0,151.4,67.8,151.4,151.4l0,0c0,83.6-67.8,151.3-151.4,151.4H-3.8
	c-83.6,0-151.3-67.8-151.4-151.4l0,0C-155.1,817.9-87.4,750.1-3.8,750.1z"/>
<path class="st0" d="M526.3,1161.3H1464c61.5,0,111.4,49.9,111.4,111.4c0,0,0,0,0,0l0,0c0,61.5-49.9,111.4-111.4,111.4c0,0,0,0,0,0
	H526.3c-61.5,0-111.4-49.9-111.4-111.4c0,0,0,0,0,0l0,0C414.8,1211.2,464.7,1161.3,526.3,1161.3
	C526.2,1161.3,526.2,1161.3,526.3,1161.3z"/>
<path class="st0" d="M938.9,1107.1c0-29.8,24.1-54.1,53.9-54.2H600.4c29.5,0.7,53,24.8,53,54.2l0,0c0,29.5-23.5,53.5-53,54.2h392.4
	C963,1161.1,938.9,1136.9,938.9,1107.1z"/>
<path class="st1" d="M1353.4,876.2c0-83.6-67.8-151.4-151.4-151.4h-1226c-83.6,0-151.4,67.8-151.4,151.3c0,0,0,0,0,0
	c0,83.6,67.8,151.3,151.4,151.4h1226C1285.7,1027.6,1353.4,959.8,1353.4,876.2z"/>
<path class="st1" d="M1443.8,1136.1H506.1c-61.5-0.6-111.9,48.8-112.5,110.4s48.8,111.9,110.4,112.5c0.7,0,1.4,0,2.1,0h937.8
	c61.5,0.6,111.9-48.8,112.5-110.4s-48.8-111.9-110.4-112.5C1445.3,1136.1,1444.5,1136.1,1443.8,1136.1z"/>
<path class="st1" d="M580.2,1136h392.4c-29.9-0.4-53.9-25-53.5-54.9c0.4-29.4,24.1-53.1,53.5-53.5H580.2
	c29.9,0.7,53.6,25.5,52.9,55.5C632.5,1112,609.2,1135.3,580.2,1136z"/>
<circle class="st2" cx="920.2" cy="163.8" r="48.6"/>
<circle cx="920.9" cy="160.6" r="3.2"/>
<circle cx="948.6" cy="160.6" r="3.2"/>
<polyline class="st3" points="933.5,154.3 948.6,175.8 933.5,175.8 "/>
<path class="st3" d="M900.7,177c0,0,5,21.4,32.8,18.9"/>
<path class="st4" d="M839.7,88.7c-5.8-1-11.9-0.1-17.2,2.6c-6.2-18.1-25.9-27.8-44.1-21.6c-7,2.4-13.1,7-17.3,13.1
	c-11.3-5.5-24.8-0.8-30.3,10.4c-0.9,1.9-1.6,4-1.9,6.1c-0.2,1.4-0.3,2.8-0.3,4.2c-17.6,2.4-29.9,18.6-27.5,36.2
	c2.4,17.6,18.6,29.9,36.2,27.5c9.2-1.3,17.5-6.5,22.6-14.3c9.5,16.7,30.7,22.5,47.4,13c9-5.1,15.2-14,17-24.2c0-0.3,0.1-0.5,0.1-0.8
	c1.9,0.8,3.9,1.4,6,1.8c15,2.6,29.2-7.5,31.7-22.4C864.7,105.5,854.6,91.3,839.7,88.7L839.7,88.7z"/>
<path class="st3" d="M855,109.9c-0.5-15.2-13.2-27-28.3-26.6c-4,0.1-8,1.2-11.6,3c-6.2-18.1-25.9-27.7-44-21.5c0,0,0,0-0.1,0
	c-7,2.4-13,7-17.2,13c-2-0.9-4-1.6-6.1-2c-12.3-2.1-24.1,6.1-26.2,18.5c0,0,0,0,0,0l0,0c-0.2,1.4-0.4,2.8-0.3,4.2
	c-17.6,2.4-29.9,18.6-27.6,36.2s18.6,29.9,36.2,27.6c9.3-1.3,17.5-6.5,22.6-14.3c9.5,16.7,30.7,22.5,47.4,13c9-5.1,15.2-14,17-24.1
	c0-0.2,0.1-0.5,0.1-0.8c12.7,5.4,27.4,0.6,34.4-11.3"/>
<path class="st4" d="M919,101.9c0,0-39.1-12.6-53,21.5c-12.1,29.8,5,40.4,5,40.4s45.4,3.8,50.5-32.8c0,0,15.1,21.5,50.5,26.5
	C971.9,157.4,979.5,89.3,919,101.9z"/>
<path class="st2" d="M1017.1,896.8h105c1.3-17.7-41.6-12.6-42.6-25.2c-1.7-24-11.2-213.8-11.2-213.8c-1.7-25.3-10.6-49.6-25.6-70
	L912.7,409.5l-63.2,46.1l120.3,164.9c12.7,17.4,20.2,38,21.7,59.5l10.6,202.7C1002.6,890.5,1009.2,896.7,1017.1,896.8z"/>
<path class="st3" d="M1007,899.9h105c1.3-17.7-41.6-12.6-42.6-25.2c-1.7-24-11.2-213.8-11.2-213.8c-1.7-25.3-10.6-49.6-25.6-70
	L902.6,412.6l-63.2,46.1l120.3,164.9c12.7,17.4,20.2,38,21.7,59.5L992,885.8C992.5,893.8,999,900,1007,899.9z"/>
<path class="st2" d="M481.4,721.9l22.5,59.7l14.5,38.5c17-5-2.9-43.4,8.5-48.7c21.9-10.1,196-86,196-86c23-10.6,42.6-27.5,56.5-48.7
	l120.8-184.8l-65.5-42.8L723,580c-11.8,18-28.4,32.3-47.9,41.3l-185.8,81.7C482,706.2,478.5,714.5,481.4,721.9z"/>
<path class="st3" d="M473.8,713.1l22.5,59.7l14.5,38.5c17-5-2.9-43.4,8.5-48.7c21.9-10.1,196-86,196-86c23-10.6,42.6-27.5,56.5-48.7
	l120.8-184.8l-65.4-42.8L715.5,571.1c-11.8,18-28.4,32.3-47.9,41.3l-185.8,81.7C474.5,697.3,470.9,705.7,473.8,713.1z"/>
<path class="st2" d="M1029.5,289.5c3-2.1,7.2-1.8,9.8,0.8l0,0l9-6c3.5-2.3,8.2-1.4,10.6,2l0,0c1.2,1.7,1.6,3.8,1.1,5.8l0,0
	c3.2-1,6.7,0.2,8.6,2.9l0,0c1.7,2.5,1.8,5.7,0.2,8.2l0,0c3.1-0.9,6.5,0.3,8.3,3l0,0c2.2,3.2,1.6,7.6-1.4,10.1l0,0
	c2.3,0,4.4,1.1,5.8,2.9l0,0c2.6,3.3,2,8-1.2,10.6c0,0,0,0,0,0l0,0l-109.7,80.5c-17.1,12.5-40.9,10.2-55.2-5.5l-74.2-81
	c-12.1-13.1-11.3-33.4,1.8-45.5s33.4-11.3,45.5,1.8l0,0l0.2,0.3l60.9,66.4L1029.5,289.5z"/>
<path class="st3" d="M1024.3,334.7c0,0,20.8-8.4,6-32l2.6,3.2c2.7,3.2,7.4,3.7,10.7,1.1l0,0c3.2-2.7,3.7-7.5,1-10.7l0,0l-5-6.1"/>
<path class="st3" d="M1038.8,308.7c-0.7,2.2-0.3,4.6,1,6.5l0,0c1.7,2.4,4.6,3.7,7.6,3.2l0,0c-2,2.6-2.1,6.1-0.2,8.8l0,0
	c2.2,3.2,6.4,4.3,9.8,2.4l0,0c-0.9,2.1-0.7,4.5,0.5,6.5l0,0c1.6,2.8,4.8,4.3,7.9,3.7"/>
<path class="st4" d="M820.2,455.5l71.4,89l75.9-61.4c0,0-51.2-83.3-64.3-101.7S820.2,455.5,820.2,455.5z"/>
<path class="st2" d="M855.9,234.5c0,0,10.1-13.5,42.9-12.6c42.9,1.3,64.3,79.5,37.8,116l-13.9,55.5H809.2L855.9,234.5z"/>
<path class="st3" d="M1005.4,328.4c0,0,2.5,15.1,17.7,26.5"/>
<path class="st5" d="M932.4,354.9l4.3-17c46.7-54.2-2.5-118.6-45.4-119.8c-32.8-0.9-47.9,31.5-47.9,31.5l-21.4,100.9L932.4,354.9z"
	/>
<path class="st4" d="M799.8,395.3L754.4,500l89.8,38.4c0,0,56.5-80,66.6-100.2s12.6-45.4,12.6-45.4l-111-11.3L799.8,395.3z"/>
<path class="st2" d="M881.3,423.8c2,3.1,1.4,7.2-1.3,9.7l0,0l5.5,9.3c2.2,3.6,1.1,8.2-2.5,10.4l0,0c-1.8,1.1-3.9,1.4-5.9,0.8l0,0
	c0.9,3.3-0.5,6.7-3.5,8.4l0,0c-2.6,1.5-5.8,1.4-8.2-0.3l0,0c0.7,3.2-0.7,6.5-3.5,8.2l0,0c-3.3,2-7.7,1.2-10-2l0,0
	c-0.2,2.3-1.3,4.3-3.2,5.6l0,0c-3.4,2.4-8.1,1.6-10.5-1.8c0,0,0,0,0,0l0,0l-74.5-114c-11.6-17.7-8-41.4,8.4-54.8l84.9-69.6
	c13.6-11.4,33.9-9.7,45.4,3.9c11.4,13.6,9.7,33.9-3.9,45.4c-0.2,0.1-0.3,0.3-0.5,0.4l-0.1,0.1l-69.7,57.2L881.3,423.8z"/>
<path class="st3" d="M1069.7,874.7c0,0-45.2,10.8-78.1,2.3"/>
<line class="st3" x1="1081.9" y1="877.5" x2="1072.2" y2="884.8"/>
<line class="st3" x1="1090.8" y1="880" x2="1081.1" y2="887.3"/>
<path class="st3" d="M1072.6,877.3c0,0,13.3-18.9,18.7-12.4S1072.6,877.3,1072.6,877.3z"/>
<path class="st3" d="M517.3,766.1c0,0,19.4,12.5,13,18.2S517.3,766.1,517.3,766.1z"/>
<path class="st3" d="M489.7,690.6c0,0,1,16.3,30,71.8"/>
<line class="st3" x1="522.4" y1="784.3" x2="512.7" y2="777"/>
<line class="st3" x1="522.4" y1="793.5" x2="512.7" y2="786.2"/>
<path class="st3" d="M706.4,665.3c0,0,18.9-30.3,47.9-37.8"/>
<path class="st3" d="M1047.7,656.8c0,0-24.3-26.2-24-56.2"/>
<path class="st3" d="M869.9,422.6c2,3.1,1.4,7.2-1.3,9.7l0,0l5.5,9.3c2.2,3.6,1,8.2-2.5,10.4l0,0c-1.8,1.1-3.9,1.4-5.9,0.8l0,0
	c0.9,3.3-0.5,6.7-3.5,8.4l0,0c-2.6,1.5-5.8,1.4-8.2-0.3l0,0c0.7,3.2-0.7,6.5-3.5,8.2l0,0c-3.3,2-7.6,1.1-9.9-2l0,0
	c-0.2,2.3-1.3,4.3-3.2,5.6l0,0c-3.3,2.4-8,1.6-10.4-1.7c0,0-0.1-0.1-0.1-0.1l-74.4-114c-11.6-17.7-8-41.4,8.4-54.8l84.9-69.6
	c13.6-11.4,33.9-9.7,45.3,3.9s9.7,33.9-3.9,45.3l0,0c-0.2,0.2-0.4,0.3-0.7,0.5l-69.7,57.2L869.9,422.6z"/>
<path class="st5" d="M821.8,262.9l35.3-29c13.7-11.3,34-9.4,45.4,4.3c11.3,13.7,9.4,34-4.4,45.4l0,0l-0.1,0.1l-32.6,26.7"/>
<path class="st3" d="M854,309.1l32.6-26.7c14-11,16.4-31.2,5.4-45.2c-11-14-31.2-16.4-45.2-5.4c-0.1,0.1-0.3,0.2-0.4,0.3
	c-0.2,0.2-0.4,0.3-0.7,0.5l-35.3,29L854,309.1z"/>
<path class="st3" d="M932.8,354.3c0,0-10.4,90.8-68.8,155.8"/>
<line class="st3" x1="860.3" y1="131.6" x2="869.2" y2="108.9"/>
<path class="st3" d="M872.1,157.4c0,0,37.4,0.7,42.5-33.5"/>
<circle class="st2" cx="870.4" cy="168.2" r="13.9"/>
<path class="st3" d="M873.2,165c-4.1,0.7-5.4,6.9,0.3,8.8"/>
<path class="st3" d="M941.1,365.1c0,0,1.3-11.3,8.8-17.7"/>
<path class="st3" d="M925.9,108.9c0,0,36.6-3.8,36.6,37.8"/>
<path class="st6" d="M423.4,121.3c0,0,9.7,14.5,16.1,14.5s0-17.2,0-17.2L423.4,121.3z"/>
<circle class="st2" cx="479.9" cy="105.6" r="52.4"/>
<circle cx="480.7" cy="102.1" r="3.4"/>
<circle cx="510.6" cy="102.1" r="3.4"/>
<polyline class="st7" points="494.2,95.3 510.6,118.4 494.2,118.4 "/>
<path class="st7" d="M458.9,119.8c0,0,5.5,23.1,35.4,20.4"/>
<path class="st2" d="M589.3,895.1h113.3c1.3-19.1-44.9-13.6-45.9-27.2c-1.8-25.9-12-230.7-12-230.7c-1.9-27.3-11.5-53.5-27.6-75.6
	L476.7,369.1l-68.2,49.8l129.8,178c13.7,18.8,21.8,41,23.4,64.2l11.5,218.8C573.7,888.4,580.8,895.1,589.3,895.1z"/>
<path class="st7" d="M578.4,898.4h113.4c1.3-19.1-44.9-13.6-45.9-27.2c-1.8-25.9-12-230.7-12-230.7c-1.9-27.3-11.5-53.5-27.6-75.6
	L465.8,372.5l-68.2,49.8l129.8,178c13.7,18.7,21.8,41,23.4,64.2l11.4,218.8C562.8,891.8,569.8,898.5,578.4,898.4z"/>
<path class="st2" d="M11,706.3l24.4,64.4l15.7,41.6c18.3-5.5-3.2-46.8,9.2-52.6c23.6-10.9,211.5-92.8,211.5-92.8
	c24.9-11.4,46-29.7,61-52.6l130.3-199.5l-70.6-46.2L272,553.1c-12.7,19.4-30.6,34.9-51.7,44.6L19.7,685.8
	C11.8,689.2,8,698.2,11,706.3z"/>
<path class="st7" d="M2.9,696.8l24.4,64.4L43,802.8c18.3-5.5-3.2-46.8,9.2-52.6c23.5-10.9,211.5-92.8,211.5-92.8
	c24.9-11.4,46-29.7,61-52.6L455,405.3l-70.6-46.2L263.8,543.6c-12.7,19.4-30.6,34.9-51.7,44.6L11.5,676.3
	C3.6,679.7-0.1,688.8,2.9,696.8z"/>
<path class="st2" d="M602.8,239.6c3.2-2.3,7.7-2,10.5,0.9l0,0l9.8-6.6c3.8-2.5,8.9-1.6,11.4,2.2l0,0c1.2,1.8,1.7,4.1,1.3,6.2l0,0
	c3.5-1.1,7.2,0.2,9.2,3.2l0,0c1.8,2.7,1.8,6.2,0.2,8.9l0,0c3.4-0.9,7,0.4,9,3.3l0,0c2.3,3.5,1.7,8.1-1.5,10.8l0,0
	c2.5,0,4.8,1.2,6.3,3.1l0,0c2.8,3.5,2.2,8.6-1.3,11.4l-118.5,87c-18.5,13.5-44.2,11-59.6-5.9l-80-87.5c-13-14.1-12-36.1,2.1-49.1
	c14.1-13,36.1-12,49.1,2.1l65.7,71.7L602.8,239.6z"/>
<path class="st7" d="M597.2,288.4c0,0,22.4-9,6.5-34.5l2.8,3.4c2.9,3.5,8,4,11.5,1.1l0,0c3.5-2.9,3.9-8,1.1-11.5l0,0l-5.5-6.7"/>
<path class="st7" d="M612.8,260.4c-0.7,2.4-0.4,4.9,1,7l0,0c1.8,2.7,5,4,8.2,3.5l0,0c-2.2,2.8-2.3,6.7-0.2,9.6l0,0
	c2.4,3.5,7,4.6,10.7,2.6l0,0c-0.9,2.3-0.7,4.9,0.5,7l0,0c1.7,3,5.2,4.6,8.6,4"/>
<path class="st8" d="M376.8,418.8L502,590.3l88.4-66.3c0,0-109.8-165.4-124-185.2S376.8,418.8,376.8,418.8z"/>
<path class="st7" d="M480.4,399.8c0,0-6.4,16.1-57.8,81.8"/>
<path class="st8" d="M354.7,353.8L252.7,531l104.9,46.3c0,0,105.9-155.5,116.9-177.3s13.6-49,13.6-49l-119.8-12.3L354.7,353.8z"/>
<path class="st7" d="M576.7,281.6c0,0,2.7,16.3,19.1,28.6"/>
<path class="st4" d="M506.8,398.9l4.9-65.8c10.8-111.2,11.2-157.3-61.5-162.6c-35.3-2.6-51.7,46-51.7,46l-73,160
	c0,0,56.2,16,92.5,21.4C455.8,403.7,506.8,398.9,506.8,398.9z"/>
<path class="st2" d="M442.8,384.6c2.1,3.4,1.5,7.8-1.5,10.5l0,0l6.1,10.1c2.3,3.9,1.1,8.9-2.8,11.3l0,0c-1.9,1.1-4.2,1.4-6.3,0.8
	l0,0c0.9,3.5-0.6,7.2-3.7,9.1l0,0c-2.8,1.7-6.3,1.5-8.9-0.3l0,0c0.8,3.4-0.8,7-3.8,8.8l0,0c-3.6,2.2-8.3,1.2-10.8-2.2l0,0
	c-0.2,2.5-1.4,4.7-3.5,6.1l0,0c-3.6,2.6-8.7,1.8-11.3-1.9c0,0,0,0,0-0.1l-80.4-122.9c-12.5-19.2-8.6-44.7,9.1-59.2l91.7-75.2
	c14.8-12.2,36.7-10,48.9,4.9s10,36.7-4.9,48.9l-75.3,61.6L442.8,384.6z"/>
<path class="st7" d="M646.2,871.3c0,0-48.9,11.7-84.3,2.4"/>
<line class="st7" x1="659.3" y1="874.2" x2="648.9" y2="882.1"/>
<line class="st7" x1="668.8" y1="876.9" x2="658.4" y2="884.8"/>
<path class="st7" d="M649.2,874.1c0,0,14.3-20.4,20.1-13.4S649.2,874.1,649.2,874.1z"/>
<path class="st7" d="M49.9,754c0,0,20.9,13.5,14,19.6S49.9,754,49.9,754z"/>
<line class="st7" x1="55.4" y1="773.6" x2="45" y2="765.8"/>
<line class="st7" x1="55.4" y1="783.6" x2="44.9" y2="775.7"/>
<path class="st7" d="M254,645.1c0,0,20.4-32.7,51.7-40.9"/>
<path class="st7" d="M622.4,636c0,0-26.2-28.3-26-60.5"/>
<path class="st7" d="M430.5,383.2c2.2,3.4,1.5,7.9-1.5,10.5l0,0l6,10.1c2.4,3.9,1.2,8.9-2.7,11.3c0,0,0,0,0,0l0,0
	c-1.9,1.1-4.2,1.4-6.3,0.8l0,0c0.9,3.5-0.6,7.2-3.7,9.1l0,0c-2.8,1.7-6.3,1.5-8.9-0.3l0,0c0.8,3.5-0.8,7-3.8,8.8l0,0
	c-3.6,2.2-8.3,1.3-10.8-2.1l0,0c-0.2,2.5-1.4,4.7-3.5,6.1l0,0c-3.7,2.6-8.7,1.7-11.3-2l-80.4-123c-12.5-19.2-8.6-44.7,9.1-59.2
	l91.7-75.2c14.8-12.2,36.7-10,48.9,4.9s10,36.7-4.9,48.9l0,0l0,0l-75.3,61.6L430.5,383.2z"/>
<path class="st5" d="M378.6,210.8l38.1-31.3c14.8-12.2,36.7-10,48.9,4.9c12.2,14.8,10,36.7-4.9,48.9l0,0l-35.2,28.9"/>
<path class="st7" d="M413.2,260.8l35.2-28.9c14.8-12.2,17-34,4.9-48.9c-12.2-14.8-34-17-48.9-4.9l0,0l-38.2,31.3L413.2,260.8z"/>
<path class="st7" d="M16.5,674.3c0,6.4,3.2,33.7,35.3,75.4"/>
<path class="st8" d="M455.5,76.4c13.7,0.1,33.7,4.8,54.6,3.2s20.9-20.9,19.3-25.7c0,0-3.2,3.2-6.4,3.2c-9.7,0-19.3-19.3-48.2-19.3
	c-19.3,0-61,19.3-54.6,65.9C425.7,143.4,431.2,76.2,455.5,76.4z"/>
<circle class="st2" cx="426.2" cy="110.3" r="15"/>
<path class="st7" d="M429.2,106.9c-4.4,0.7-5.8,7.5,0.3,9.5"/>
</svg>
