<?xml version="1.0" encoding="utf-8"?>
<!-- Generator: Adobe Illustrator 23.1.1, SVG Export Plug-In . SVG Version: 6.00 Build 0)  -->
<svg version="1.1" id="Layer_1" xmlns="http://www.w3.org/2000/svg" xmlns:xlink="http://www.w3.org/1999/xlink" x="0px" y="0px"
	 viewBox="0 0 1200 1200" style="enable-background:new 0 0 1200 1200;" xml:space="preserve">
<style type="text/css">
	.st0{clip-path:url(#SVGID_2_);}
	.st1{fill:#E0DEFF;}
	.st2{fill:#FFD2E4;}
	.st3{fill:#B75858;}
	.st4{fill:#FF94BD;}
	.st5{fill:#FFD9E8;}
	.st6{fill:#FFC0D7;}
	.st7{fill:#562C15;}
	.st8{fill:#42210B;}
	.st9{fill:#E5B5CB;}
	.st10{fill:#FFDCE4;}
	.st11{fill:#B74B4B;}
	.st12{opacity:0.5;fill:#FFFFFF;enable-background:new    ;}
	.st13{fill:#FFCAD8;}
	.st14{fill:#FFFFFF;}
	.st15{opacity:0.3;fill:#E6E6E6;enable-background:new    ;}
	.st16{fill:#CE5B5B;}
	.st17{fill:#9E4A4A;}
</style>
<title>logos</title>
<g>
	<defs>
		<circle id="SVGID_1_" cx="600" cy="567.4" r="470.2"/>
	</defs>
	<clipPath id="SVGID_2_">
		<use xlink:href="#SVGID_1_"  style="overflow:visible;"/>
	</clipPath>
	<g class="st0">
		<rect x="-61" y="24" class="st1" width="1381.1" height="1116.9"/>
		<path class="st2" d="M1028.9,1230.7c0,0,91.1-122.8,187.6-111.7s99.7,61.7,85.5,107.7s-146.5,152.1-146.5,152.1l152.7-39.2
			c0,0-10.1-10.5-8.7-14.5c3.1-9.3,98-17.6,98-13.8c0,4.2-174.2,119-229.3,141.5c-50.1,20.5-127.7,31.2-151.7,0
			s1.5-118.3,78.4-176.3L1028.9,1230.7z"/>
		<path class="st3" d="M1028.9,1230.7c0,0,91.1-122.8,187.6-111.7s99.7,61.7,85.5,107.7s-146.5,152.1-146.5,152.1l133.3-34.2
			l18.4,28.2c-51.3,32.7-111.9,69.5-140.1,81.1c-50.1,20.5-126.6,30.1-150.5-1.1s2.5-112.6,75.1-179.6L1028.9,1230.7z"/>
	</g>
</g>
<path class="st4" d="M429.8,970.8c4.8-1.8,6,2.2,7.7,6.9s3.5,8.5-1.3,10.3s-22.3,4-24.1-0.8S425,972.6,429.8,970.8z"/>
<path class="st5" d="M439.4,815.6c0,0-25.1,27-34.8,44.7c-5.1,0.8-10.1,1.9-15,3.3c-43.1,12.2-66.9,46.2-72.6,67.7
	s27.5,63.7,51.8,71.4s95.9-41.8,102-54.8c4.3-9.2-15.7-37.9-21.1-50.5c-3-7-3.2-12.4,1-30.6s19.1-38.5,19.1-38.5L439.4,815.6z"/>
<path class="st6" d="M439.4,893.8c4.2,16.2,22.2,44.5,32,51c0.1-11.4-16.9-36.1-21.7-47.5c-3-7-3.2-12.4,1-30.6s19.1-38.5,19.1-38.5
	l-16.7,9.9C453.1,838.1,433.6,871.7,439.4,893.8z"/>
<path class="st7" d="M308.1,930.6c-2.7,26.1,3.2,42.4,32.6,64.1c30.6,22.7,37.5,12.3,32.4-18.7c-5.1-30.8,7.9-49.3,22.5-55.8
	s-30.1-2-28.5-13.4s21.1-16.4,26.9-12s31.5-35.5,8.7-37S314.2,871.1,308.1,930.6z"/>
<path class="st8" d="M394.4,894.9c0.1,0,0.1,0.1,0.2,0.1h0.8l0.3-0.1h0.1c0.1,0,0.2-0.1,0.3-0.1h0.1l0.3-0.1h0.1l0.4-0.2l0,0
	l0.4-0.2l0,0l0.5-0.3l0,0c0.2-0.1,0.3-0.2,0.5-0.4l0,0c0.9-0.8,1.8-1.6,2.6-2.5c-3.5-2.5-9.1-3.2-13-2.4c-4.1,0.8-7.8,3.2-10.1,6.7
	c6.1-2.5,13-2.8,16-0.5c0.1,0.1,0.2,0.1,0.3,0.2L394.4,894.9z"/>
<path class="st9" d="M393.2,905.6L393.2,905.6c-0.4,1.6-2.2,2.9-3.7,1.7c-2.7-2.2-4.3-2.2-7.4,0c-1.7,1.2-3.2,0.3-3.8-1.4l0,0
	c-0.5-1.7-0.4-2.7,1.9-4.2c4.1-2.7,6.8-1.7,10.9,0.1C392.6,902.4,393.5,904,393.2,905.6z"/>
<path class="st7" d="M310.9,888.8c17.8,8.2,15.4,19.2,9.8,33.5s-16.6,23-29.9,17.8s-16.2-19.6-10.6-33.7S298,882.8,310.9,888.8z"/>
<path class="st8" d="M288.5,939c0.8,0.4,1.5,0.8,2.3,1.1c13.3,5.2,24.4-3.7,29.9-17.8c3.3-8.5,5.5-15.9,2.9-22.2
	C318.8,916.2,302.3,933.5,288.5,939z"/>
<path class="st10" d="M1004.5,818c-26.2-42.9-53.8-62.2-87.3-106S840.2,471.3,737,468s-41.7,163.7-41.7,163.7l11.9-15
	c17.8,45.7,142.5,140.6,163.3,175.2c11.4,18.8,38.2,38.1,45.2,45.8c18.7,20.3,141.9,194.8,141.9,194.8s-70.1,27.4-67.1,31.3
	c2.9,3.7,97.3-1.6,100.5-7C1096,1048.3,1030.7,860.8,1004.5,818z"/>
<path class="st11" d="M916.6,838.6l0.8,0.9c0.1,0.1,0.1,0.1,0.2,0.2l0.9,1.1l0.1,0.1c0.3,0.4,0.6,0.8,1,1.2l0.1,0.2l1.1,1.3l0.2,0.3
	l1.2,1.4l0.2,0.3l1.3,1.6l0,0l1.4,1.8l0.2,0.3l1.4,1.8l0.3,0.4c0.5,0.6,1,1.3,1.5,1.9l0.2,0.2l1.5,1.9l0.2,0.3
	c0.5,0.7,1.1,1.4,1.6,2.1l0.4,0.5l1.6,2.2l0.3,0.4c0.6,0.7,1.1,1.5,1.7,2.3l0.1,0.2l1.8,2.5l0.3,0.4l1.9,2.5l0.3,0.4l2,2.6l0.2,0.2
	l2,2.6l0.2,0.3l2,2.7c0.1,0.2,0.2,0.3,0.3,0.5l2,2.7l0.4,0.5l2.1,2.8l0.1,0.1l2.2,3l0.3,0.4l2.2,3l0.4,0.5l2.2,3l0.1,0.2l2.2,3.1
	l0.3,0.4c0.7,1,1.5,2,2.2,3.1l0.4,0.6l2.3,3.2l0.2,0.3l5,6.8l0.2,0.3l2.4,3.3l0.4,0.5l4.8,6.7l0.4,0.5c0.8,1.1,1.5,2.2,2.3,3.2
	l0.5,0.6l2.3,3.2l0.3,0.5l2.3,3.2l0.2,0.2l2.5,3.5c0.1,0.1,0.1,0.2,0.2,0.3l2.4,3.3l0.4,0.6l2.3,3.2l0.2,0.2l2.4,3.3l0.2,0.3
	l2.4,3.4l0.4,0.5l2.3,3.2l0.2,0.3l2.4,3.4l0.1,0.1c0.8,1.2,1.7,2.3,2.5,3.5l0.1,0.2c0.8,1.1,1.6,2.2,2.4,3.3l0.2,0.3l4.6,6.5
	l0.4,0.5l7,9.7c0,0.1,0.1,0.1,0.1,0.2c1.5,2.1,2.9,4.1,4.3,6.1l0.3,0.5l6.1,8.6l0.2,0.3l1.8,2.6l0.2,0.3l5.4,7.6
	c0.2,0.2,0.4,0.5,0.5,0.8l0.5,0.8l1.1,1.5l1.3,1.8v0l5.7,8l32.2-2l-0.1-0.2c-0.2-0.8-0.5-1.6-0.8-2.4c0-0.2-0.1-0.3-0.1-0.5
	c-0.2-0.7-0.4-1.4-0.7-2.2c-0.1-0.2-0.1-0.4-0.2-0.6c-0.3-0.8-0.5-1.7-0.8-2.5l-0.2-0.5c-0.2-0.7-0.5-1.5-0.7-2.2
	c-0.1-0.2-0.1-0.4-0.2-0.6l-0.9-2.7l-0.1-0.4l-0.8-2.5c-0.1-0.2-0.1-0.4-0.2-0.7c-0.3-0.9-0.6-1.9-0.9-2.8l-0.1-0.4
	c-0.3-0.8-0.6-1.7-0.8-2.5c-0.1-0.2-0.1-0.5-0.2-0.7c-0.3-1-0.6-2-1-3c0-0.1-0.1-0.2-0.1-0.3l-0.9-2.7c-0.1-0.3-0.2-0.5-0.2-0.8
	l-1-3l-0.1-0.3l-0.9-2.8l-0.3-0.8c-0.3-1-0.7-2-1.1-3.1l-0.1-0.2c-0.3-1-0.7-1.9-1-2.9c-0.1-0.2-0.2-0.5-0.3-0.8
	c-0.4-1.1-0.7-2.2-1.1-3.2V972l-1.1-3.1c-0.1-0.3-0.2-0.5-0.3-0.8c-0.7-2.2-1.5-4.3-2.2-6.5c-0.1-0.3-0.2-0.6-0.3-0.9
	c-0.4-1.1-0.8-2.2-1.1-3.2l0,0l-1.2-3.3c-0.1-0.3-0.2-0.5-0.3-0.8l-1.1-3.2V950l-1.2-3.3c-0.1-0.3-0.2-0.5-0.3-0.8
	c-0.4-1.1-0.8-2.1-1.1-3.1l-0.1-0.1c-0.4-1.1-0.8-2.2-1.2-3.3l-0.3-0.8l-1.2-3.2l-0.1-0.2c-0.4-1.1-0.8-2.2-1.2-3.4
	c-0.1-0.3-0.2-0.5-0.3-0.8c-0.3-1-0.7-2-1.1-3l-0.2-0.4c-0.4-1.1-0.8-2.2-1.2-3.3l-0.3-0.8c-0.4-1-0.7-2-1.1-3l-0.2-0.4
	c-0.4-1.1-0.8-2.2-1.2-3.3l-0.3-0.8l-1.1-2.9l-0.2-0.5l-1.2-3.2c-0.1-0.3-0.2-0.5-0.3-0.8l-1.1-2.8l-0.2-0.5l-1.2-3.2
	c-0.1-0.3-0.2-0.5-0.3-0.8c-0.4-0.9-0.7-1.8-1.1-2.8l-0.2-0.5l-1.3-3c-0.1-0.2-0.2-0.5-0.3-0.8c-0.3-0.9-0.7-1.8-1.1-2.7
	c-0.1-0.2-0.2-0.4-0.2-0.6l-1.2-3.1l-0.3-0.7l-1.1-2.6l-0.2-0.6l-1.2-3.1c-0.1-0.2-0.2-0.4-0.2-0.6c-0.3-0.9-0.7-1.8-1.1-2.6
	c-0.1-0.2-0.2-0.4-0.2-0.6l-1.2-3l-0.3-0.6l-1-2.5l-0.3-0.6c-0.4-1-0.8-1.9-1.2-2.9l-0.2-0.5c-0.3-0.8-0.7-1.7-1.1-2.5
	c-0.1-0.2-0.2-0.4-0.2-0.6c-0.4-0.9-0.8-1.9-1.2-2.8c-0.1-0.2-0.1-0.3-0.2-0.5l-1-2.3c-0.1-0.2-0.2-0.4-0.3-0.6
	c-0.4-0.9-0.8-1.8-1.1-2.7l-0.2-0.5c-0.3-0.8-0.7-1.5-1-2.2l-0.3-0.6l-1.1-2.5l-0.2-0.4l-1-2.2l-0.3-0.6l-1.1-2.4
	c0-0.1-0.1-0.3-0.2-0.4c-0.3-0.7-0.6-1.3-0.9-2l-0.3-0.6l-1.1-2.3l-0.1-0.3c-0.3-0.7-0.6-1.3-0.9-2c-0.1-0.2-0.2-0.4-0.2-0.5l-1-2.2
	l-0.1-0.2c-0.3-0.6-0.6-1.2-0.9-1.8l-0.2-0.5l-1-1.9l-0.1-0.2c-0.3-0.6-0.6-1.2-0.9-1.7l-0.2-0.5c-0.3-0.6-0.6-1.2-0.9-1.8l0-0.1
	l-0.8-1.6l-0.2-0.4l-0.9-1.6l0,0l-0.8-1.5l-0.2-0.4c-0.3-0.5-0.6-1-0.8-1.4c-26.2-42.9-53.8-62.2-87.3-106S840.2,471.3,737,468
	s-41.7,163.7-41.7,163.7l11.9-15c17.8,45.7,142.5,140.6,163.3,175.2c11.4,18.8,38.2,38.1,45.2,45.8l0.7,0.8
	C916.5,838.5,916.5,838.5,916.6,838.6z"/>
<path class="st10" d="M1026.1,827.9c-25.3-43.4-52.5-63.3-85-107.9s-86.2-261.5-189.3-267S628.1,554.7,628.1,554.7s-21.5,61-48,98.3
	c-16.9,23.7-71.1,85.3-114.9,118.3c-3.1,2.4-4.2,3.4-6.5,4.9c-3.5,2.3-16.8,17-29.7,35l0,0c-8.4,11.6-15.9,24.8-18.9,37.6
	c-4.9,21-50.8,84.4-71.5,105.4s-74.6,51.1-94.2,64.1s-61.2,48.7-76.1,49.4c-9,0.4-27.9-10.8-34.4-8.1c-12.5,5.1-27.5,14.4-39.4,25.2
	c-6,5.4-0.3,6.7,19.8,5.8c26.7-1.2,56.3,0.3,64.4-5.2s146.6-47.3,161.5-60.9s85.6-80.3,94.5-92.2s44.1-40.2,56.3-45.9
	s82.6-0.8,98.4-5.2c8.5-2.3,25.5-6.7,30.7-27.9c10.2-32.9,17.4-31,38.7-55.9c12.8-15,24.7-24.1,28.3-42.4
	c2.9-14.7,2.7-27.3,8.1-47.3C704.6,673.1,721,635,721,635l12.2-14.8c16.7,46.1,139.3,143.6,159.5,178.6c11,19.1,37.3,38.8,44.2,46.7
	c18.2,20.8,137.7,197.9,137.7,197.9s-70.7,25.9-67.8,29.9c2.8,3.7,97.3,0.5,100.6-4.8C1112.6,1060.1,1051.4,871.3,1026.1,827.9z"/>
<path class="st12" d="M169.2,1074.1c10-0.7,57-32.3,73.9-44.9c18.3-13.7,66.4-41.5,80.6-52.1s40.4-40.6,53.7-60
	c12.6-18.3,33.4-45.7,40.3-68.1s26.3-52.5,69.1-85.9c32.2-25.1,59-68.7,59-68.7l0,0c-23.6,26.3-54,56.9-80.6,76.9
	c-3.1,2.4-4.2,3.4-6.5,4.9c-3.5,2.3-16.8,17-29.7,35l0,0c-8.4,11.6-15.9,24.8-18.9,37.6c-4.9,21-50.8,84.4-71.5,105.4
	s-74.6,51.1-94.2,64.1s-61.2,48.7-76.1,49.4c-9,0.4-27.9-10.8-34.4-8.1c-12.5,5.1-27.5,14.4-39.4,25.2c0,0,28.7-18.2,42.2-18.7
	S160.7,1074.7,169.2,1074.1z"/>
<path class="st13" d="M567.4,883.2L567.4,883.2c-15.3,0.2-36.8-11.9-74.9-3.9c-36.1,7.5-132.8,126.5-160.6,142
	c-22.1,12.3-79.1,32-118.6,45.8s-46,21.7-46,21.7l2.3-0.3c4-0.7,7.1-1.5,9-2.8c8.1-5.5,146.6-47.3,161.5-60.9s85.6-80.3,94.5-92.2
	s44.1-40.2,56.3-45.9C499.8,882.4,540.4,883.9,567.4,883.2z"/>
<path class="st13" d="M1057.1,1012.3l-10.9,3.9l11.5,16.2c0,0-66.7,26.1-67.2,31l0.1,0.3c0,0,77.3-23.7,78.1-28.1
	C1069.2,1033.1,1057.1,1012.3,1057.1,1012.3z"/>
<path class="st13" d="M1077.1,1033.1l-9.2,0.4l6.8,10c0,0-70.7,25.9-67.8,29.9c0,0,77.1-22.9,77.7-26
	C1084.8,1045.6,1077.1,1033.1,1077.1,1033.1z"/>
<path class="st14" d="M636.7,528.3c-3.7,8.5-6.6,17.3-8.6,26.3c0,0-21.5,61-48,98.3c-10.1,14.2-33.5,41.9-60.1,69
	c-0.3,0.4-0.7,0.8-1.1,1.1c4.7,20.1-16,50.6-47.3,63.1c-12.6,4.9-24.8,10.5-36.6,17c-2,2.6-4,5.3-6,8.1l0,0c-2.8,3.9-5.5,8-8,12.2
	c11.6-6.9,28.4-15.5,44.9-19.2c29.9-6.7,50.3,0.9,58.5,14.4c5.7,9.5,10,43.1-16,65.3c25.6-1.3,68.8,0.7,80.8-2.6
	c8.5-2.3,25.5-6.7,30.7-27.9c10.2-32.9,17.4-31,38.7-55.9c12.8-15,24.7-24.1,28.3-42.4c2.9-14.7,2.7-27.3,8.1-47.3
	C704.6,673.1,721,635,721,635l5.1-6.1C695.6,589.5,658.7,545.8,636.7,528.3z"/>
<path class="st15" d="M721,635l5.1-6.1c-2.4-3.1-4.8-6.2-7.2-9.2c-2,2.3-3.7,4.9-5.1,7.7c-7.4,14.9-14.6,36.7-20.2,67.1
	c-3.5,18.7-3.7,29.3-3,35.3c1-7.4,2.6-14.7,4.5-21.8C704.6,673.1,721,635,721,635z"/>
<path class="st16" d="M937.8,846.6l0.8,0.9l0.2,0.2c0.3,0.3,0.6,0.7,0.9,1.1l0.1,0.1l0.9,1.2c0,0,0.1,0.1,0.1,0.2l1.1,1.3l0.2,0.3
	l1.1,1.5l0.2,0.3l1.2,1.6l0,0l1.3,1.8l0.2,0.3l1.3,1.8c0.1,0.1,0.2,0.2,0.3,0.4l1.4,1.9l0.2,0.2l1.4,2l0.2,0.3l1.5,2.1
	c0.1,0.2,0.2,0.3,0.3,0.5l1.6,2.2l0.3,0.4l1.7,2.3l0.1,0.1l1.8,2.5l0.3,0.4c0.6,0.8,1.2,1.7,1.8,2.5l0.3,0.4l1.9,2.7l0.2,0.2
	l1.9,2.7l0.2,0.3l2,2.8l0.3,0.5l2,2.8l0.4,0.5l2,2.9l0.1,0.1c0.7,1,1.4,2,2.2,3c0.1,0.2,0.2,0.3,0.3,0.4l2.1,3l0.4,0.5
	c0.7,1.1,1.4,2,2.2,3.1l0.1,0.2l2.2,3.1l0.3,0.4l2.2,3.1l0.4,0.6l2.2,3.2l0.2,0.3l4.8,6.9l0.2,0.3l2.3,3.4c0.1,0.2,0.2,0.3,0.4,0.5
	l4.7,6.8l0.4,0.5l2.2,3.2l0.4,0.6l2.3,3.3l0.3,0.5l2.2,3.2l0.2,0.2c0.8,1.2,1.6,2.3,2.4,3.5l0.2,0.3l2.3,3.4l0.4,0.6l2.3,3.3
	l0.2,0.2l2.3,3.4l0.2,0.2l2.3,3.4l0.3,0.5l2.3,3.3c0.1,0.1,0.1,0.2,0.2,0.3c0.8,1.1,1.6,2.3,2.3,3.4l0.1,0.1l2.4,3.5l0.1,0.2
	l2.3,3.4l0.2,0.3l4.5,6.6c0.1,0.2,0.2,0.3,0.3,0.5l6.8,9.9l0.1,0.2l4.2,6.2l0.4,0.5l5.9,8.6l0.2,0.3l1.8,2.6l0.2,0.3l5.2,7.7
	l0.5,0.8l0.5,0.8l1.1,1.5l1.2,1.8v0.1l5.5,8.1l32.3-1.3v-0.2c-0.2-0.8-0.5-1.6-0.7-2.5l-0.1-0.5c-0.2-0.7-0.4-1.4-0.6-2.2
	c0-0.2-0.1-0.4-0.2-0.6l-0.7-2.6l-0.2-0.5l-0.7-2.2c-0.1-0.2-0.1-0.4-0.2-0.7c-0.3-0.9-0.5-1.8-0.8-2.7c0-0.1-0.1-0.3-0.1-0.4
	c-0.2-0.8-0.5-1.6-0.7-2.5c-0.1-0.2-0.1-0.4-0.2-0.7l-0.8-2.8c0-0.1-0.1-0.3-0.1-0.4l-0.8-2.6l-0.2-0.7c-0.3-1-0.6-2-0.9-3
	c0-0.1-0.1-0.2-0.1-0.4c-0.3-0.9-0.5-1.8-0.8-2.7c-0.1-0.2-0.2-0.5-0.2-0.8c-0.3-1-0.6-2-0.9-3l-0.1-0.3c-0.3-0.9-0.6-1.9-0.9-2.8
	c-0.1-0.3-0.2-0.5-0.2-0.8c-0.3-1-0.7-2.1-1-3.1c0-0.1,0-0.2-0.1-0.2c-0.3-1-0.6-2-0.9-2.9c-0.1-0.3-0.2-0.5-0.2-0.8
	c-0.3-1.1-0.7-2.2-1.1-3.2v-0.1c-0.3-1.1-0.7-2.2-1-3.2l-0.3-0.8l-2.2-6.5c-0.1-0.3-0.2-0.6-0.3-0.9l-1.1-3.2l0,0
	c-0.4-1.1-0.7-2.2-1.1-3.3l-0.3-0.8l-1.1-3.2v-0.1c-0.4-1.1-0.7-2.2-1.1-3.3l-0.3-0.8l-1.1-3.1l-0.1-0.3c-0.4-1.1-0.8-2.2-1.1-3.3
	c-0.1-0.3-0.2-0.5-0.3-0.8c-0.4-1.1-0.7-2.2-1.1-3.2l-0.1-0.2c-0.4-1.1-0.8-2.3-1.2-3.4c-0.1-0.3-0.2-0.5-0.3-0.8l-1.1-3
	c0-0.2-0.1-0.3-0.2-0.4l-1.2-3.3c-0.1-0.3-0.2-0.5-0.3-0.8l-1.1-3l-0.2-0.4l-1.2-3.3l-0.3-0.8l-1.1-2.9l-0.2-0.5l-1.2-3.2
	c-0.1-0.3-0.2-0.5-0.3-0.8c-0.3-1-0.7-1.9-1.1-2.9c0-0.2-0.1-0.4-0.2-0.5c-0.4-1.1-0.8-2.2-1.2-3.2l-0.3-0.8l-1-2.8
	c-0.1-0.2-0.1-0.3-0.2-0.5c-0.4-1.1-0.8-2.2-1.2-3.2l-0.3-0.8l-1-2.7l-0.2-0.6c-0.4-1.1-0.8-2.1-1.2-3.1l-0.3-0.7l-1-2.6
	c-0.1-0.2-0.2-0.4-0.2-0.6c-0.4-1.1-0.8-2.1-1.2-3.1l-0.2-0.6l-1-2.7l-0.2-0.6c-0.4-1-0.8-2-1.1-3l-0.2-0.6c-0.3-0.8-0.6-1.7-1-2.5
	c-0.1-0.2-0.2-0.4-0.2-0.6l-1.1-2.9c-0.1-0.2-0.1-0.3-0.2-0.5l-1-2.5l-0.2-0.6c-0.4-1-0.7-1.9-1.1-2.8l-0.2-0.5l-1-2.4
	c-0.1-0.2-0.2-0.4-0.2-0.6c-0.4-0.9-0.7-1.8-1.1-2.7l-0.2-0.5l-0.9-2.3c-0.1-0.2-0.2-0.4-0.2-0.6l-1.1-2.5l-0.2-0.4l-0.9-2.2
	l-0.3-0.6c-0.3-0.8-0.7-1.6-1.1-2.4l-0.2-0.4l-0.9-2l-0.2-0.6l-1-2.3l-0.1-0.3c-0.3-0.7-0.6-1.3-0.9-2c-0.1-0.2-0.2-0.4-0.2-0.5
	l-1-2.2l-0.1-0.2c-0.3-0.6-0.6-1.3-0.9-1.9c-0.1-0.2-0.2-0.3-0.2-0.5c-0.3-0.7-0.6-1.3-0.9-2c0-0.1-0.1-0.1-0.1-0.2
	c-0.3-0.6-0.6-1.2-0.8-1.7l-0.2-0.5c-0.3-0.6-0.6-1.2-0.9-1.8v-0.1l-0.8-1.6c-0.1-0.1-0.2-0.3-0.2-0.4l-0.8-1.6l0,0
	c-0.3-0.5-0.5-1-0.8-1.5l-0.2-0.3c-0.3-0.5-0.5-1-0.8-1.4c-25.3-43.4-52.5-63.3-85-107.9S854.9,458.5,751.8,453
	S628.1,554.7,628.1,554.7s-3.7,10.4-9.8,25.2c10.4,11.5,86.2,71.4,93.8,77.3c2.2-5.7,4.1-10.6,5.6-14.3c1.9-5,3.2-7.9,3.2-7.9
	l12.2-14.8c16.8,46.1,139.3,143.6,159.5,178.6c11,19.1,37.3,38.8,44.2,46.7l0.7,0.8L937.8,846.6z"/>
<path class="st17" d="M744.5,631.8c0.7-11.2-8.2-24.8-11.3-22.9c-7.9,4.5-14.4,10.9-19.1,18.7c-3.8,6.3-6.8,14.2-9.9,23.5l7.8,6.2
	c2.2-5.7,4.1-10.6,5.6-14.3c1-2.7,2.2-5.3,3.7-7.8l12.2-13.8c2.1,5.7,5.4,11.1,10.3,18.2C743.8,639.5,744.2,636.2,744.5,631.8z"/>
<path class="st17" d="M937.7,846.5l0.1,0.1l0,0l1.7,2.1l0.1,0.1l0.1,0.1l0,0c0.7,0.8,1.4,1.8,2.2,2.8l0.1,0.1l0,0l1,1.3v0.1l0,0
	l1.3,1.8v0.1l0,0l0.2,0.2l1.4,1.8l0,0c0.9,1.2,1.9,2.6,2.9,4l0.1,0.2l0.2,0.2l3.2,4.3l0,0l0.1,0.2l3.6,5l0.1,0.2l0.1,0.1l0.1,0.2
	c1.2,1.7,2.5,3.4,3.7,5.2l0,0l0.3,0.4l0,0l4,5.6l0.2,0.2l0.1,0.2l4.3,6.2l0.1,0.2l0,0c1.4,2,2.8,4,4.2,6l0,0l2.2,3.2l0.1,0.2
	l0.1,0.1l2.4,3.5l0,0l5,7.2l0.1,0.1v0.1l2,2.8l0.2,0.3l0.2,0.3l0.1,0.2c2.5,3.6,5,7.2,7.6,10.9l0,0l4.9,7.1l0.1,0.2l0.2,0.3l2.2,3.2
	l0.2,0.3l0.2,0.3l1.7,2.5l0.3,0.5l0.1,0.2l2.2,3.1l0.3,0.4l0.2,0.2l0.4,0.5l1.7,2.5c0.1,0.1,0.2,0.3,0.3,0.4l0.2,0.3l0.1,0.1
	l2.5,3.6c0.1,0.1,0.1,0.2,0.2,0.3l0.4,0.6l1.8,2.6v0.1l0.2,0.2l0,0l1.5,2.2l0.8,1.2l0.2,0.3l1,1.4l0.6,0.9l0.7,1.1l0.3,0.5l0.3,0.5
	l1.9,2.8v0.1l0.2,0.3l0.9,1.3l0.7,1l0.8,1.1l0.1,0.1l0.3,0.4c0.7,1.1,1.4,2.1,2.2,3.1l0.1,0.1l2.3,3.4l0.2,0.3l0.5,0.7l3.5,5.2
	c0.2,0.2,0.3,0.4,0.4,0.7s0.2,0.3,0.3,0.5s0.4,0.6,0.6,0.9l1.8,2.6l2,3c0.6,0.8,1.1,1.6,1.7,2.4c0.2,0.3,0.4,0.6,0.6,0.9l0.1,0.2
	l2.9,4.2l0.6,0.8c0.3,0.4,0.5,0.8,0.8,1.1l0.3,0.5c0.2,0.2,0.3,0.5,0.5,0.7l1.9,2.8l1.3,2l1.8,2.7c0.1,0.2,0.2,0.3,0.3,0.5l0.2,0.3
	l1.8,2.6l0.2,0.3l0.3,0.4c0.7,1.1,1.4,2.1,2.1,3.1l0.8,1.1l2,2.9l0.1,0.1l0.4,0.5l0.1,0.1l0.1,0.1l0.3,0.4c0.4,0.6,0.9,1.3,1.3,1.9
	l0,0l1.2,1.8v0.1l0.1,0.2c2,3,3.8,5.6,5.4,7.9l9.2-0.4c-33.8-51.6-91.7-139.9-100.9-154.9c-10.2-16.6-29.1-39.5-50.3-63.2
	c-5.6-6.3-11.4-12.6-17.3-18.9c-27.1-29.2-53.3-56.6-71.4-74.2c-80.9-79.1-80.9-79.1-98.8-113c-2.2-4-17.7-50.1-17.5-48.4
	c5.1,51,12.2,59.8,12.2,59.8c16.7,46,139.3,143.6,159.5,178.6c0.5,0.9,1.1,1.8,1.6,2.6l0.3,0.5c0.5,0.8,1.1,1.7,1.7,2.5l0.3,0.5
	c0.6,0.8,1.2,1.6,1.8,2.4l0.2,0.3c0.7,0.8,1.3,1.7,2.1,2.5c0.1,0.2,0.3,0.4,0.4,0.5c0.7,0.8,1.4,1.7,2.2,2.5l0.2,0.3
	c0.6,0.7,1.2,1.4,1.9,2.1c0.2,0.2,0.4,0.5,0.7,0.7c0.8,0.8,1.5,1.6,2.3,2.4l0.5,0.5c0.8,0.8,1.6,1.6,2.4,2.4l0,0
	c2.2,2.2,4.3,4.2,6.5,6.2l0,0l0.2,0.2l2.2,2l0.4,0.4l2,1.8l0.8,0.7c0.2,0.2,0.4,0.3,0.6,0.5l0.9,0.8l0.2,0.1
	c1.2,1.1,2.4,2.2,3.5,3.2l0.2,0.1l1.1,1l0.2,0.2l1.2,1.1l0,0l1,0.9l0.3,0.3l0.7,0.7l0.3,0.2l0.9,0.9l0,0l0.8,0.8l0.2,0.2l0.5,0.6
	l0.2,0.2c0.2,0.2,0.5,0.5,0.6,0.7l0.7,0.8L937.7,846.5z"/>
<ellipse transform="matrix(0.3828 -0.9238 0.9238 0.3828 -169.4184 617.2424)" class="st14" cx="377.3" cy="435.4" rx="71.9" ry="14.7"/>
<ellipse transform="matrix(0.7715 -0.6362 0.6362 0.7715 -242.134 371.5932)" class="st14" cx="396.3" cy="522.9" rx="73.7" ry="15.1"/>
<ellipse transform="matrix(0.9578 -0.2874 0.2874 0.9578 -160.7557 140.1362)" class="st14" cx="397" cy="617.7" rx="79.4" ry="16.3"/>
<ellipse transform="matrix(0.8622 -0.5066 0.5066 0.8622 -319.6854 277.1132)" class="st14" cx="349.4" cy="726.1" rx="82.5" ry="16.9"/>
<ellipse transform="matrix(1.999601e-02 -0.9998 0.9998 1.999601e-02 -513.4711 982.3563)" class="st14" cx="244.4" cy="753.1" rx="82.6" ry="16.9"/>
<ellipse class="st14" cx="348.8" cy="376.4" rx="12.3" ry="60"/>
<ellipse transform="matrix(0.7715 -0.6362 0.6362 0.7715 -232.052 298.1866)" class="st14" cx="299.1" cy="472.2" rx="14.7" ry="71.9"/>
<ellipse transform="matrix(0.6341 -0.7733 0.7733 0.6341 -331.033 418.3116)" class="st14" cx="276.5" cy="558.9" rx="14.8" ry="72"/>
<ellipse transform="matrix(0.9477 -0.3193 0.3193 0.9477 -187.1539 120.5294)" class="st14" cx="274" cy="631.1" rx="17.3" ry="84.5"/>
<path class="st14" d="M198.3,908.8l0.3,0.3c1.2,0.9,2.9,0.7,3.8-0.5c0,0,0,0,0,0l0,0c0.4-0.5,40.4-54,78.5-142.2
	c22.2-51.3,39.5-104.6,51.6-159.2c14.7-66.1,21-133.8,18.6-201.5c-0.1-1.5-1.3-2.7-2.8-2.6c-1.5,0.1-2.7,1.3-2.6,2.8l0,0
	c2.4,67.2-3.8,134.4-18.5,200C315.2,660.2,298,713.1,276,764.1c-30.3,70.1-64.2,123-77.9,141.2C197.3,906.4,197.4,907.9,198.3,908.8
	z"/>
<ellipse transform="matrix(0.9238 -0.3828 0.3828 0.9238 -250.3063 345.7721)" class="st14" cx="743.6" cy="801.8" rx="9.3" ry="45.6"/>
<ellipse transform="matrix(0.6362 -0.7715 0.7715 0.6362 -395.3186 876.2513)" class="st14" cx="731.5" cy="857.3" rx="9.6" ry="46.8"/>
<ellipse transform="matrix(0.2874 -0.9578 0.9578 0.2874 -357.9067 1354.2097)" class="st14" cx="731.1" cy="917.6" rx="10.3" ry="50.4"/>
<ellipse transform="matrix(0.5066 -0.8622 0.8622 0.5066 -464.7351 1128.5243)" class="st14" cx="753.7" cy="970.3" rx="10.7" ry="52.4"/>
<ellipse transform="matrix(0.5791 -0.8152 0.8152 0.5791 -403.8338 1052.8018)" class="st14" cx="817.7" cy="917.5" rx="52.4" ry="10.7"/>
<ellipse transform="matrix(0.1597 -0.9872 0.9872 0.1597 -267.0645 1627.1635)" class="st14" cx="822.3" cy="970.5" rx="52.4" ry="10.7"/>
<ellipse transform="matrix(0.9982 -5.982905e-02 5.982905e-02 0.9982 -44.2603 46.8065)" class="st14" cx="759.5" cy="762.5" rx="7.8" ry="38.2"/>
<ellipse transform="matrix(0.3939 -0.9191 0.9191 0.3939 -281.8379 1220.3925)" class="st14" cx="784.5" cy="823.9" rx="45.6" ry="9.3"/>
<ellipse transform="matrix(0.5791 -0.8152 0.8152 0.5791 -372.7096 1018.761)" class="st14" cx="800.3" cy="870.4" rx="45.7" ry="9.3"/>
<path class="st14" d="M857.1,1102.3c-0.1,0.1-0.1,0.1-0.2,0.2c-0.8,0.6-1.8,0.4-2.4-0.3l0,0c-0.2-0.3-25.6-34.2-49.8-90.2
	c-14.1-32.6-25.1-66.4-32.8-101c-9.4-42-13.4-84.9-11.9-127.9c-0.1-0.9,0.6-1.8,1.5-1.9s1.8,0.6,1.9,1.5c0,0.1,0,0.2,0,0.2
	c0,0.1,0,0.2,0,0.2c-1.5,42.7,2.4,85.3,11.7,127c7.6,34.4,18.5,68,32.5,100.3c19.2,44.6,40.8,78.1,49.5,89.6
	C857.8,1100.8,857.7,1101.7,857.1,1102.3z"/>
<path class="st14" d="M859.2,227.6c-4.3-0.5-7.8-3.6-8.8-7.8c-0.2,4.7-3.6,8.7-8.2,9.7c4.4,0.3,8.2,3.4,9.3,7.7
	C851.7,232.7,854.8,228.8,859.2,227.6z"/>
<path class="st14" d="M886.5,258.2c-3.3-0.4-6-2.8-6.8-6c-0.1,3.6-2.7,6.7-6.3,7.5c3.4,0.2,6.3,2.6,7.2,5.9
	C880.8,262.1,883.2,259.1,886.5,258.2z"/>
<circle class="st14" cx="759.6" cy="250.2" r="46.7"/>
<circle class="st12" cx="750.9" cy="261.1" r="46.7"/>
<path class="st14" d="M796.4,757.6c-3-0.4-5.4-2.5-6.2-5.5c-0.1,3.3-2.5,6.1-5.8,6.8c3.1,0.2,5.7,2.4,6.5,5.4
	C791.1,761.1,793.3,758.4,796.4,757.6z"/>
<path class="st14" d="M304,287c-4.3,0.3-8.3-2.1-10.1-6c0.7,4.7-1.9,9.3-6.2,11.1c4.4-0.6,8.7,1.8,10.6,5.8
	C297.6,293.4,299.9,289,304,287z"/>
<path class="st14" d="M308.9,346.1c-1.7,1.3-4,1.5-5.8,0.4c1.6,1.7,1.8,4.3,0.5,6.3c1.6-1.5,4-1.7,6-0.6
	C308.1,350.5,307.8,348.1,308.9,346.1z"/>
<path class="st14" d="M248.4,366.2c-3.3,1.1-6.9,0.1-9.2-2.5c1.6,3.5,0.5,7.6-2.5,10c3.3-1.4,7.2-0.4,9.5,2.3
	C244.7,372.6,245.6,368.7,248.4,366.2z"/>
</svg>
