<svg id="Layer_1" data-name="Layer 1" xmlns="http://www.w3.org/2000/svg" xmlns:xlink="http://www.w3.org/1999/xlink" viewBox="0 0 1200 841"><defs><style>.cls-1,.cls-16,.cls-19,.cls-20,.cls-37,.cls-38{fill:none;}.cls-2{clip-path:url(#clip-path);}.cls-3{fill:url(#linear-gradient);}.cls-14,.cls-22,.cls-32,.cls-39,.cls-4,.cls-7{fill:#fff;}.cls-4{opacity:0.05;}.cls-17,.cls-36,.cls-5{fill:#341c7f;}.cls-34,.cls-6{fill:#ffb901;}.cls-8{fill:url(#linear-gradient-2);}.cls-9{fill:url(#linear-gradient-3);}.cls-10{fill:url(#linear-gradient-4);}.cls-11{fill:url(#linear-gradient-5);}.cls-12{fill:url(#linear-gradient-6);}.cls-13{fill:url(#linear-gradient-7);}.cls-14{stroke:#fff;stroke-width:0.6px;}.cls-14,.cls-16,.cls-19,.cls-20,.cls-36,.cls-37,.cls-38{stroke-miterlimit:10;}.cls-15{fill:#ffb8b6;}.cls-16,.cls-36,.cls-37{stroke:#341c7f;}.cls-16,.cls-19,.cls-20,.cls-37{stroke-linecap:round;}.cls-16,.cls-36,.cls-38{stroke-width:1.2px;}.cls-17,.cls-21,.cls-36{opacity:0.3;}.cls-18{fill:#ff8585;}.cls-19{stroke:#f2f2f2;}.cls-19,.cls-20{stroke-width:1.55px;}.cls-20{stroke:#333;}.cls-22{font-size:48.03px;font-family:Lato-Bold, Lato;font-weight:700;}.cls-23{letter-spacing:-0.01em;}.cls-24{letter-spacing:0em;}.cls-25{letter-spacing:-0.01em;}.cls-26{letter-spacing:-0.01em;}.cls-27{letter-spacing:-0.01em;}.cls-28{letter-spacing:0em;}.cls-29{letter-spacing:-0.1em;}.cls-30{letter-spacing:-0.01em;}.cls-31{letter-spacing:-0.03em;}.cls-32{font-size:63.64px;}.cls-32,.cls-34,.cls-39{font-family:Lato-Regular, Lato;}.cls-33,.cls-34,.cls-39{font-size:30.02px;}.cls-35{letter-spacing:-0.01em;}.cls-37{stroke-width:1.4px;}.cls-38{stroke:#ffb901;}.cls-40{letter-spacing:-0.03em;}</style><clipPath id="clip-path"><rect class="cls-1" x="-0.79" y="-4.14" width="1200.79" height="840.55"/></clipPath><linearGradient id="linear-gradient" x1="599.61" y1="23.66" x2="599.61" y2="810.22" gradientUnits="userSpaceOnUse"><stop offset="0" stop-color="#7536e9"/><stop offset="1" stop-color="#4a0ca5"/></linearGradient><linearGradient id="linear-gradient-2" x1="517.49" y1="587.02" x2="630.47" y2="587.02" xlink:href="#linear-gradient"/><linearGradient id="linear-gradient-3" x1="460.1" y1="732.73" x2="687.86" y2="732.73" xlink:href="#linear-gradient"/><linearGradient id="linear-gradient-4" x1="517.49" y1="625.58" x2="594.6" y2="625.58" xlink:href="#linear-gradient"/><linearGradient id="linear-gradient-5" x1="602.67" y1="625.58" x2="630.47" y2="625.58" xlink:href="#linear-gradient"/><linearGradient id="linear-gradient-6" x1="517.49" y1="562.81" x2="526.46" y2="562.81" xlink:href="#linear-gradient"/><linearGradient id="linear-gradient-7" x1="544.59" y1="711.66" x2="603.37" y2="711.66" xlink:href="#linear-gradient"/></defs><title>logo</title><g class="cls-2"><rect class="cls-3" x="-0.79" y="-4.14" width="1200.79" height="840.55"/><path class="cls-4" d="M175.73,288.85A291.73,291.73,0,0,0-.79,348V815.7a291.67,291.67,0,0,0,176.52,59.14c161.81,0,293-131.18,293-293S337.54,288.85,175.73,288.85Z"/><rect class="cls-5" x="-0.79" y="584.25" width="1200.79" height="252.17"/><rect class="cls-6" x="491.71" y="545.32" width="164.99" height="102.22" rx="6.77"/><path class="cls-4" d="M1182.22,296.76A135.35,135.35,0,0,0,1263.35,267l-6.11-217a136,136,0,1,0-75,246.77Z"/><rect class="cls-7" x="499.33" y="554.29" width="149.74" height="84.29"/><rect class="cls-8" x="517.49" y="572.67" width="112.98" height="28.69" rx="4.56"/><path class="cls-9" d="M681.38,740.35H466.58a6.48,6.48,0,0,1-6.48-6.48v-8.76H687.86v8.76A6.48,6.48,0,0,1,681.38,740.35Z"/><path class="cls-6" d="M495.69,647.1H652.27a6.35,6.35,0,0,1,5.85,3.87l30.46,71.56a6.36,6.36,0,0,1-5.86,8.85H465.24a6.36,6.36,0,0,1-5.85-8.85L489.84,651A6.35,6.35,0,0,1,495.69,647.1Z"/><path class="cls-10" d="M522,613h68.07a4.52,4.52,0,0,1,4.52,4.52v20.58a0,0,0,0,1,0,0H517.49a0,0,0,0,1,0,0V617.55A4.52,4.52,0,0,1,522,613Z"/><path class="cls-11" d="M607.19,613H626a4.51,4.51,0,0,1,4.51,4.51v20.59a0,0,0,0,1,0,0h-27.8a0,0,0,0,1,0,0V617.54A4.51,4.51,0,0,1,607.19,613Z"/><circle class="cls-12" cx="521.97" cy="562.81" r="4.48"/><path class="cls-13" d="M554,700.9h40a1.61,1.61,0,0,1,1.49,1l7.78,18.27a1.62,1.62,0,0,1-1.49,2.26H546.22a1.63,1.63,0,0,1-1.5-2.26l7.78-18.27A1.61,1.61,0,0,1,554,700.9Z"/><path class="cls-14" d="M641.23,474.93s9.08,37.81,26,69.05c23.31,43,42.14,47.52,42.14,47.52l163.19,9s-37.66-70.84-41.24-125.54Z"/><path class="cls-6" d="M695.67,567.44a19.14,19.14,0,0,0-11,3.44c14.56,18.2,24.67,20.62,24.67,20.62l4.79.27a19.16,19.16,0,0,0-18.5-24.33Z"/><path class="cls-15" d="M1040.74,435.93l-319.88-.4a25.89,25.89,0,0,0-17.08,7.8,26,26,0,0,0-18.5-7.85l35.58,0c.51,0,1,0,1.52,0H684.11l-317.26.45a98.19,98.19,0,1,0,0,196.37h.06L468,631.86h27.42v0a7.61,7.61,0,0,0,4.87-13.05,7.61,7.61,0,0,0,.48-12,7.61,7.61,0,0,0,0-11.66h26.93v0l.45,0a7.62,7.62,0,1,0,0-15.24l-.45,0v0h-64v0l-96.9.42a46.18,46.18,0,0,1,.1-92.35l278.73-.4c-.27-3.18,1.66-6.59,5.78-6.59,58.44,0,116.84,2.82,175.28,2.85a5.49,5.49,0,0,1,5.46,3.87l208.56.27a46.18,46.18,0,0,1,0,92.35l-357-.44h-64v0l-.45,0a7.62,7.62,0,0,0,0,15.24l.45,0v0h26.93a7.61,7.61,0,0,0,0,11.66,7.61,7.61,0,0,0,.48,12A7.61,7.61,0,0,0,652,631.83v0h30.14l358.57.44a98.19,98.19,0,0,0,0-196.37Z"/><path class="cls-7" d="M880.16,487.73l-192.79-.24c-.39,0-.74,0-1.08,0l-1.08,0-87.24.12c-7-24.53,0-52,0-52l86.14-.12h38.27c-.51,0-1,0-1.52,0l-35.58,0a26,26,0,0,1,18.5,7.85,25.89,25.89,0,0,1,17.08-7.8l148.25.18S865.79,469.6,880.16,487.73Z"/><path class="cls-16" d="M641.23,474.93s.32,1.33.95,3.7c2.73,10.26,11.31,40,25.06,65.35,9.18,17,17.68,27.94,24.59,35"/><path class="cls-15" d="M704,462.19s-2.69,28,37.66,28,40.35-43,40.35-43l-32.82-4.37Z"/><path class="cls-17" d="M753.91,449.16s-22.3,20.07-37,14.24,33.9-23.07,33.9-23.07Z"/><path class="cls-5" d="M726.42,344s10.48-10.77,29.59-5.38c17.48,4.93,17,21.52,17,21.52s23.32-4.48,31.39,13.45-3.14,30-3.14,30,14.87,10.08,6.27,30.49c-7.17,17-26,12.55-26,12.55s-4.48,7.17-20.62,7.17S743,439.52,743,439.52l-51.11,7.62S663.81,449.61,662.3,427a22,22,0,0,1,9-19.72s-12.67-12.6-6.28-30.49c4.49-12.55,19.73-13.45,19.73-13.45s-2.76-20,15.24-25.11C718.79,332.81,726.42,344,726.42,344Z"/><path class="cls-16" d="M733.59,481.21s-10.76-3.59-16.65-17.81"/><path class="cls-15" d="M723.28,371.37C713,369.73,686.07,361.06,687,391.54s-2.69,69.94,22.42,71.74,39.45-17,46.63-32.28S769.81,378.83,723.28,371.37Z"/><path class="cls-5" d="M717,398.51c-.1-.89.49-3.67,6.92-2.59s5.86,3.84,4.18,4.94S717.37,402.18,717,398.51Z"/><path class="cls-18" d="M703.1,415.75c-.89,0-3.71,8-5.38,10.76-2.69,4.49,4.62,7.53,6.28.9C704.9,423.82,704,415.75,703.1,415.75Z"/><circle class="cls-5" cx="723.28" cy="409.93" r="3.14"/><path class="cls-5" d="M696.87,398.51c.1-.89-.48-3.67-6.92-2.59s-5.85,3.84-4.17,4.94S696.46,402.18,696.87,398.51Z"/><circle class="cls-5" cx="692.79" cy="409.93" r="3.14"/><path class="cls-18" d="M706.69,443.1c0,2.23-1.21,4-2.69,4s-2.69-1.81-2.69-4C701.31,442.65,706.69,442.65,706.69,443.1Z"/><path class="cls-16" d="M708.48,441.76a13.29,13.29,0,0,1-9,0"/><circle class="cls-18" cx="726.86" cy="426.96" r="6.73"/><path class="cls-5" d="M680.69,390.65A46.62,46.62,0,0,0,725.52,379s2.69,9,10.76,11.66,11.66,1.79,11.66,1.79-2.69,18.83,16.14,18.83,25.1-16.14,25.1-16.14L704,345.81Z"/><path class="cls-19" d="M693.14,356.72s1.93-16.83,21.14-10.83"/><path class="cls-16" d="M671.72,533.22s3.59,25.11,28.69,24.21"/><path class="cls-15" d="M757.8,410.37s8.3-4,12.55.9c6.28,7.17,0,19.73-14.34,17Z"/><path class="cls-20" d="M762.73,415.31a3.14,3.14,0,1,1,0,6.27"/><path class="cls-16" d="M704.6,462.39a21.13,21.13,0,0,0,4.78.89c17,1.21,29-7,37.24-17.12"/><polygon class="cls-17" points="644.62 487.55 641.03 475.58 388.86 487.91 644.62 487.55"/><path class="cls-16" d="M281.06,510.69s-10.8,8.3-3.75,19.81"/><path class="cls-16" d="M1126.56,514s10.8,8.31,3.76,19.82"/><g class="cls-21"><path class="cls-5" d="M1113,600.47c-.21.07-23.46,16.2-60.69,22.2-38.23,6.17-86.14,6.72-150.38,9.46l138.78.17A97.93,97.93,0,0,0,1113,600.47Z"/></g><path class="cls-6" d="M598,435.6a116.62,116.62,0,0,0-2.55,16.11,19.2,19.2,0,0,0,26.93-16.14Z"/><circle class="cls-6" cx="681.26" cy="497.79" r="19.21"/><circle class="cls-6" cx="796.54" cy="554.23" r="19.21"/><path class="cls-16" d="M767.66,525.15s3.59,25.11,28.7,24.21"/><path class="cls-6" d="M785.94,474.93H773.35a34.47,34.47,0,0,1-22.89,14.46,19.2,19.2,0,0,0,35.48-14.46Z"/><path class="cls-6" d="M778.47,465.06c-3.24,8.64-9.45,18.07-21.34,22.52l28.6,0a19.13,19.13,0,0,0-7.26-22.55Z"/><path class="cls-6" d="M861.65,435.71l-34.19,0a19.19,19.19,0,0,0,34.19,0Z"/><text class="cls-22" transform="translate(93.66 190.48)"><tspan class="cls-23">К</tspan><tspan class="cls-24" x="33.07" y="0">ак </tspan><tspan class="cls-25" x="95.2" y="0">с</tspan><tspan class="cls-26" x="117.92" y="0">о</tspan><tspan class="cls-24" x="145.06" y="0">зд</tspan><tspan class="cls-25" x="197.12" y="0">а</tspan><tspan x="221.06" y="0">ть пр</tspan><tspan class="cls-27" x="335.28" y="0">о</tspan><tspan class="cls-28" x="362.18" y="0">дающий лендинг на </tspan><tspan class="cls-29" x="828.29" y="0">Т</tspan><tspan x="852.28" y="0">иль</tspan><tspan class="cls-30" x="932.3" y="0">д</tspan><tspan class="cls-31" x="962.32" y="0">е</tspan><tspan x="986.75" y="0">?</tspan></text><text class="cls-32" transform="translate(96.06 735.64)">12<tspan class="cls-33"><tspan x="0" y="36.02">июня </tspan><tspan class="cls-6" x="80.15" y="36.02">19:00</tspan></tspan></text><text class="cls-34" transform="translate(94.86 111.23)"><tspan class="cls-35">В</tspan><tspan x="19.18" y="0">ебинар</tspan></text><path class="cls-36" d="M495.69,647.1H652.27a6.35,6.35,0,0,1,5.85,3.87l16.54,38.35L489.84,651A6.35,6.35,0,0,1,495.69,647.1Z"/><path class="cls-6" d="M917.83,309.28h.59l-.59,0Z"/><rect class="cls-6" x="966.43" y="306.87" width="5.99" height="5.99" rx="3"/><rect class="cls-6" x="966.43" y="317.71" width="5.99" height="17.98" rx="3"/><rect class="cls-6" x="983.21" y="300.78" width="5.99" height="17.98" rx="3" transform="translate(676.43 1295.98) rotate(-90)"/><rect class="cls-6" x="966.43" y="284.05" width="5.99" height="17.98" rx="3" transform="translate(1938.85 586.08) rotate(-180)"/><rect class="cls-6" x="949.7" y="300.78" width="5.99" height="17.98" rx="3" transform="translate(1262.47 -642.92) rotate(90)"/><rect class="cls-6" x="571.19" y="273.33" width="5.99" height="5.99" rx="3"/><rect class="cls-6" x="571.19" y="284.16" width="5.99" height="17.98" rx="3"/><rect class="cls-6" x="587.97" y="267.24" width="5.99" height="17.98" rx="3" transform="translate(314.74 867.2) rotate(-90)"/><rect class="cls-6" x="571.19" y="250.51" width="5.99" height="17.98" rx="3" transform="translate(1148.38 519) rotate(180)"/><rect class="cls-6" x="554.46" y="267.24" width="5.99" height="17.98" rx="3" transform="translate(833.69 -281.22) rotate(90)"/><rect class="cls-6" x="1007.82" y="255.6" width="3.92" height="3.92" rx="1.96"/><rect class="cls-6" x="1007.82" y="262.68" width="3.92" height="11.76" rx="1.96"/><rect class="cls-6" x="1018.8" y="251.61" width="3.92" height="11.76" rx="1.96" transform="translate(763.26 1278.25) rotate(-90)"/><rect class="cls-6" x="1007.82" y="240.67" width="3.92" height="11.76" rx="1.96" transform="matrix(-1, 0, 0, -1, 2019.57, 493.1)"/><rect class="cls-6" x="996.88" y="251.61" width="3.92" height="11.76" rx="1.96" transform="translate(1256.33 -741.34) rotate(90)"/><rect class="cls-6" x="583.96" y="579.9" width="3.4" height="3.4" rx="1.7"/><rect class="cls-6" x="583.96" y="586.05" width="3.4" height="10.21" rx="1.7"/><rect class="cls-6" x="593.48" y="576.44" width="3.4" height="10.21" rx="1.7" transform="translate(13.64 1176.73) rotate(-90)"/><rect class="cls-6" x="583.96" y="566.94" width="3.4" height="10.21" rx="1.7" transform="translate(1171.32 1144.09) rotate(-180)"/><rect class="cls-6" x="574.46" y="576.44" width="3.4" height="10.21" rx="1.7" transform="translate(1157.71 5.39) rotate(90)"/><path class="cls-37" d="M466.05,626.57a13.14,13.14,0,0,1-12.27,0"/><path class="cls-37" d="M691.8,626.57a13.14,13.14,0,0,1-12.27,0"/><path class="cls-19" d="M680.66,369.91s-10.81,1.2-9.61,13.21"/><rect class="cls-38" x="870.49" y="694.89" width="232.59" height="88.09" rx="44.04"/><text class="cls-39" transform="translate(899.23 749.25)"><tspan class="cls-40">Р</tspan><tspan x="17.23" y="0">егистрация</tspan></text></g></svg>