<?xml version="1.0" encoding="utf-8"?>
<!-- Generator: Adobe Illustrator 24.0.0, SVG Export Plug-In . SVG Version: 6.00 Build 0)  -->
<svg version="1.1" id="Layer_1" xmlns="http://www.w3.org/2000/svg" xmlns:xlink="http://www.w3.org/1999/xlink" x="0px" y="0px"
	 viewBox="0 0 1125 1370" style="enable-background:new 0 0 1125 1370;" xml:space="preserve">
<style type="text/css">
	.st0{clip-path:url(#SVGID_2_);}
	.st1{fill:#FFFFFF;}
	.st2{fill:#930F32;}
	.st3{fill:#85C6AB;}
	.st4{fill:#567C69;}
	.st5{fill:#EFDF4B;}
	.st6{fill:#ADD9C6;}
	.st7{enable-background:new    ;}
</style>
<title>logos-31</title>
<g>
	<defs>
		<rect id="SVGID_1_" y="-218.9" width="1125" height="2436"/>
	</defs>
	<clipPath id="SVGID_2_">
		<use xlink:href="#SVGID_1_"  style="overflow:visible;"/>
	</clipPath>
	<g class="st0">
		<rect y="-218.9" class="st1" width="1125" height="2436"/>
		<path class="st2" d="M483.6,177.8c0,0,27.6,11.6,52.4,11.8c17.9,0.2,31-5.5,38-9.6c8.4-5,13-10.5,11.8-18.4
			c-1.3-7.9-8.7-13.3-16.6-12.1c0,0,0,0,0,0c-16.1,2.5-19,16.6-35.9,22.3C509.6,179.8,483.6,177.8,483.6,177.8z"/>
		<ellipse class="st2" cx="746.7" cy="240.7" rx="46.9" ry="24"/>
		<path class="st2" d="M651.9,312.1c0,0-29.9-1.2-52.5-11.4c-16.3-7.4-25.8-18-30.3-24.7c-5.5-8.1-7.4-15-2.9-21.7
			c4.5-6.6,13.5-8.4,20.1-3.9c13.5,9.1,10.2,23.1,23.2,35.4C627.5,302.9,651.9,312.1,651.9,312.1z"/>
		<path class="st3" d="M896.6,493.8c0,0-31.8,5.2-43.3-0.4c-33.6-16.5-56.6-135.6-56.6-135.6s-21.2,4.7-7.2,53.3L752,383.2
			c0,0-12.8,14.5,23.2,45.4l-40.3,1.1c0,0-6.7,17.5,45.8,22.4c0,0,8,60.6,29.8,89.5c35.9,47.6,117.2,43.1,117.2,43.1L896.6,493.8z"
			/>
		<path class="st4" d="M896.6,493.8c0,0,1,1.8-11.7,1.7c-4.8,16.8-15.2,57.9-9.9,83.9c16.5,3.8,33.4,5.7,50.4,5.4l1.7-1.9
			L896.6,493.8z"/>
		<path class="st3" d="M1127.7,584.5c0,0-64.9-12-64.9-96.2V322.5c0,0,9.6-194.7-221.2-250c0,0-127.4-24-168.3,14.4
			c-12.4,11.6-24,52.9-24,52.9h-81.8c0,0-9.6,0-9.6,14.4v48.1h194.7c0,0-7.2,38.5-43.3,38.5H550.8v21.6c0,0-2.4,14.4,14.4,14.4
			h230.8c0,0,24,2.4,24-12c0,0,64.9,12,64.9,96.1v165.9c0,0-9.6,194.7,221.1,250c0,0,127.4,24,168.3-14.4
			C1286.7,750.7,1127.7,570.1,1127.7,584.5z"/>
		<circle class="st2" cx="709.4" cy="113.3" r="26.4"/>
		<circle class="st5" cx="709.4" cy="113.3" r="21.2"/>
		<circle cx="709.4" cy="113.3" r="11.9"/>
		<circle class="st1" cx="718" cy="121.9" r="6"/>
		<path class="st2" d="M738.2,69.7c0,4.4-23.5,12.8-44.5,14.2c-17.4,1.2-26.4-1.4-30.9-2.6c-7.2-2-13.5-6.1-13.5-13.5
			c0-7.5,6.1-13.5,13.5-13.5c0,0,0,0,0,0c7.1,0,16.3,6.3,30.9,8.1C714.7,65,738.2,65.3,738.2,69.7z"/>
		<path class="st2" d="M666,178.1c0,0-27.7,11.5-52.4,11.5c-17.9,0.1-31-5.6-37.9-9.8c-8.4-5-13-10.5-11.7-18.5
			c1.3-7.9,8.7-13.3,16.6-12c0,0,0,0,0,0c16.1,2.6,18.9,16.7,35.8,22.5C639.9,179.9,666,178.1,666,178.1z"/>
		<path class="st4" d="M1042.7,755.9c5.2-13.3,13-40.8,8-77.6l-45.7,58.1C1017.2,743.7,1029.7,750.2,1042.7,755.9z"/>
		<path class="st3" d="M956.2,694.5c0,0,0.3,32.2-7,42.8c-21.4,30.7-142.7,35.1-142.7,35.1s1.4,21.7,51.5,15.3l-33.2,32.8
			c0,0,12.4,14.9,48.4-15.9l-5.1,40c0,0,16.3,9.3,29.2-41.8c0,0,61.1,1.4,93-15.7c52.6-28.2,60.6-109.2,60.6-109.2L956.2,694.5z"/>
		<path class="st6" d="M1175,628.8c-26.2-28.9-47.3-49.6-47.3-44.3c0,0-64.9-12-64.9-96.2V322.5c0,0,8.6-174-185.5-239.7
			c14.3,28.3,24.8,56.5,50.9,73.9c57.7,38.5,93.7,84.1,96.2,173.1c2.3,84.1-21.5,179,16.8,240.4
			C1077.2,627.7,1120.8,631.5,1175,628.8z"/>
		<path class="st2" d="M820,264.8c7.7,17.9,38.5,38.4,43.3,64.9c0,0,52.9-72.1-7.2-125c0,0,50.5-4.8,69.7,19.2
			c0,0,2.4-52.9-55.3-84.1c0,0,72.1-16.8,96.2,14.4c0,0-12-98.5-117.2-79.8C848.7,74.6,820,264.8,820,264.8z"/>
		<path class="st6" d="M843.1,111.8c-11.6,10.7-27.3,22.9-37.7,21.4c-7.9-1.1-15-9.7-15.2-17.7c-0.3-10.2,14-23.2,25.3-33.6
			c31.9-29.5,56-37.3,61.5-31.4S875,82.4,843.1,111.8z"/>
		<path class="st3" d="M813.6,124.8c-5.8,5.3-13.6,11.3-18.7,10.6c-3.9-0.6-7.5-4.8-7.6-8.8c-0.1-5.1,7-11.5,12.6-16.7
			c15.8-14.6,27.8-18.5,30.5-15.6S829.4,110.1,813.6,124.8z"/>
		<path class="st3" d="M225.7,1721.4c0,0-31.8,5.2-43.3-0.4c-33.6-16.4-56.6-135.6-56.6-135.6s-21.2,4.7-7.2,53.3l-37.5-27.8
			c0,0-12.8,14.6,23.2,45.4l-40.3,1.1c0,0-6.7,17.5,45.8,22.4c0,0,8,60.6,29.8,89.5c35.9,47.6,117.2,43.1,117.2,43.1L225.7,1721.4z"
			/>
		<path class="st4" d="M223.6,1771.2c0,0-8.6-28.6-17.8-47.8c-7.1,0.3-14.8,0.2-20.2-1.3c-5.5,44.7,10.7,75,16.6,84.4
			c11.7,2.9,23.6,4.7,35.6,5.4L223.6,1771.2z"/>
		<path class="st3" d="M-16.7,1434.7c7.6-1.3,181.7,0.2,190.6,0.2c124.2,0,116.7,140.8,114.2,180c-1.9,30-1.8,87.2-2,110.7
			c-0.1,7.9,0,24,19.2,25.2s21-17,21.6-25.2c2.2-30.3,4.8-85.3,4.8-121.4s16.8-69.7,60.1-76.9s54.1,27.6,54.1,27.6
			s-38.5-14.4-43.3,43.3s40.9,240.4-103.4,240.4c-124.2,0-116.7-140.8-114.2-180c1.9-30,1.8-44,2-67.4c0.1-7.9-2-32.7-21.2-33.9
			c-9.6-0.6-180.2,5.6-182.7,7.2L-16.7,1434.7z"/>
		<path class="st4" d="M273.2,1836.1c8.6,1.6,17.4,2.4,26.1,2.3c2.4,0,4.8-0.1,7.1-0.2c2.9-8.5,5.8-25.4,1.3-55.1L273.2,1836.1z"/>
		<path class="st3" d="M213.2,1799.5c0,0,0.3,32.2-7.1,42.8c-21.4,30.7-142.7,35.1-142.7,35.1s1.4,21.7,51.5,15.3l-33.2,32.8
			c0,0,12.4,14.9,48.4-15.9l-5.1,40c0,0,16.3,9.3,29.2-41.8c0,0,61.1,1.4,93-15.7c52.6-28.2,60.6-109.2,60.6-109.2L213.2,1799.5z"/>
		<path class="st6" d="M391.9,1527.2c-43.3,7.2-60.1,40.9-60.1,76.9s-2.6,91.1-4.8,121.4c-0.6,8.3-2.4,26.4-21.6,25.2
			s-19.3-17.3-19.2-25.2c0.2-23.4,0.1-80.7,2-110.7c2.4-39.2,10-180-114.2-180c-9,0-183.1-1.6-190.6-0.2v26.5h158.6
			c74.5,0,117.8,12,120.2,117.8s0.8,110.2,4.8,146.6c2.4,21.6,12,40.9,38.5,40.9c33.6,0,34.9-28.7,36-43.3
			c2.4-31.2,2.4-113,7.2-144.2c5.1-33.3,59.6-69.4,95.7-24.5c1,0.3,1.6,0.5,1.6,0.5S435.2,1520,391.9,1527.2z"/>
		<g class="st7">
			<path class="st2" d="M467.6,1289.9c0.9-0.8,2-1.2,3.2-1.2c2.7,0,4.8,2.1,4.8,4.8c0,1.7-0.6,3-1.8,4c-7.9,6.6-16.8,10.4-28.4,10.4
				c-24.4,0-44.2-20.5-44.2-45.8c0-25.4,19.8-45.9,44.2-45.9c11.7,0,20.5,3.8,28.4,10.4c1.2,1.1,1.8,2.4,1.8,4
				c0,2.7-2.1,4.8-4.8,4.8c-1.2,0-2.2-0.4-3.2-1.2c-8.1-5.9-13.7-8.4-22.2-8.4c-18.9,0-34.3,16-34.3,36.2
				c0,19.9,15.5,36.5,34.3,36.5C453.9,1298.7,460.8,1296.1,467.6,1289.9z"/>
			<path class="st2" d="M545.4,1222.8v78.7c0,2.9-2.4,5.2-5.1,5.2c-2.9,0-5.3-2.2-5.3-5.2V1267h-34.5v34.5c0,2.9-2.5,5.2-5.3,5.2
				c-2.8,0-5.2-2.2-5.2-5.2v-78.7c0-2.8,2.4-5.2,5.2-5.2c2.8,0,5.3,2.4,5.3,5.2v34.5h34.5v-34.5c0-2.8,2.4-5.2,5.3-5.2
				C543.1,1217.6,545.4,1220,545.4,1222.8z"/>
			<path class="st2" d="M573.1,1301.5c0,2.9-2.5,5.2-5.3,5.2s-5.2-2.2-5.2-5.2v-78.7c0-2.8,2.4-5.2,5.2-5.2s5.3,2.4,5.3,5.2V1301.5z
				"/>
			<path class="st2" d="M636.1,1222.8c0-3,2.5-5.2,5.3-5.2s5.2,2.2,5.2,5.2v78.7c0,2.7-2.5,5.2-5.4,5.2c-1.8,0-3.2-0.8-4.2-2.4
				L600,1242v59.5c0,2.9-2.5,5.2-5.3,5.2s-5.2-2.2-5.2-5.2v-78.7c0-2.7,2.5-5.2,5.4-5.2c1.8,0,3.2,0.8,4.2,2.4l36.9,62.3V1222.8z"/>
			<path class="st2" d="M701,1281.1h-26.2l-6,21c-1.1,3.1-2.9,4.6-5.4,4.6c-2.9,0-5.5-2-5.5-5c0-0.6,0.1-1.3,0.4-1.9l22.8-77.6
				c0.9-3.2,4-4.6,7-4.6c3,0,6,1.4,7,4.6l22.8,77.6c0.2,0.6,0.4,1.3,0.4,1.9c0,3-2.6,5-5.5,5c-2.6,0-4.4-1.5-5.4-4.6L701,1281.1z
				 M677.6,1271.3h20.5l-10.3-35.9L677.6,1271.3z"/>
		</g>
		<path class="st2" d="M812,1177.1H308c0-139.2,112.8-252,252-252S812,1038,812,1177.1z"/>
		<circle class="st2" cx="563.5" cy="915.6" r="21.5"/>
		<g class="st7">
			<path class="st1" d="M452.8,1124.9c0.7-0.6,1.5-0.9,2.4-0.9c2.1,0,3.7,1.6,3.7,3.7c0,1.3-0.4,2.2-1.3,3.1c-6,5-12.8,7.9-21.7,7.9
				c-18.6,0-33.7-15.7-33.7-34.9c0-19.3,15.1-35,33.7-35c8.9,0,15.7,2.9,21.7,7.9c0.9,0.8,1.3,1.8,1.3,3.1c0,2.1-1.6,3.7-3.7,3.7
				c-0.9,0-1.7-0.3-2.4-0.9c-6.2-4.5-10.4-6.4-16.9-6.4c-14.4,0-26.2,12.2-26.2,27.6c0,15.2,11.8,27.8,26.2,27.8
				C442.3,1131.6,447.6,1129.6,452.8,1124.9z"/>
			<path class="st1" d="M512.2,1073.7v60c0,2.2-1.8,4-3.9,4c-2.2,0-4-1.7-4-4v-26.3H478v26.3c0,2.2-1.9,4-4,4c-2.2,0-4-1.7-4-4v-60
				c0-2.2,1.8-4,4-4c2.2,0,4,1.8,4,4v26.3h26.3v-26.3c0-2.2,1.8-4,4-4C510.4,1069.7,512.2,1071.5,512.2,1073.7z"/>
			<path class="st1" d="M533.2,1133.7c0,2.2-1.9,4-4,4c-2.2,0-4-1.7-4-4v-60c0-2.2,1.8-4,4-4c2.2,0,4,1.8,4,4V1133.7z"/>
			<path class="st1" d="M573.1,1100c2.2,0,4,1.6,4,3.7s-1.8,3.8-4,3.8H549c-2.2,0-4-1.7-4-3.8s1.8-3.7,4-3.7H573.1z"/>
			<path class="st1" d="M637.2,1124.9c0.7-0.6,1.5-0.9,2.4-0.9c2.1,0,3.7,1.6,3.7,3.7c0,1.3-0.4,2.2-1.3,3.1c-6,5-12.8,7.9-21.7,7.9
				c-18.6,0-33.7-15.7-33.7-34.9c0-19.3,15.1-35,33.7-35c8.9,0,15.7,2.9,21.7,7.9c0.9,0.8,1.3,1.8,1.3,3.1c0,2.1-1.6,3.7-3.7,3.7
				c-0.9,0-1.7-0.3-2.4-0.9c-6.2-4.5-10.4-6.4-16.9-6.4c-14.4,0-26.2,12.2-26.2,27.6c0,15.2,11.8,27.8,26.2,27.8
				C626.7,1131.6,632,1129.6,637.2,1124.9z"/>
			<path class="st1" d="M696.6,1073.7v60c0,2.2-1.8,4-3.9,4c-2.2,0-4-1.7-4-4v-26.3h-26.3v26.3c0,2.2-1.9,4-4,4c-2.2,0-4-1.7-4-4
				v-60c0-2.2,1.8-4,4-4c2.2,0,4,1.8,4,4v26.3h26.3v-26.3c0-2.2,1.8-4,4-4C694.8,1069.7,696.6,1071.5,696.6,1073.7z"/>
			<path class="st1" d="M717.6,1133.7c0,2.2-1.9,4-4,4s-4-1.7-4-4v-60c0-2.2,1.8-4,4-4s4,1.8,4,4V1133.7z"/>
		</g>
	</g>
</g>
</svg>
