<svg id="Layer_1" data-name="Layer 1" xmlns="http://www.w3.org/2000/svg" xmlns:xlink="http://www.w3.org/1999/xlink" viewBox="0 0 1200 718"><defs><style>.cls-1,.cls-16,.cls-17,.cls-19,.cls-20,.cls-22,.cls-24,.cls-25,.cls-27,.cls-29,.cls-30,.cls-31,.cls-32{fill:none;}.cls-2{clip-path:url(#clip-path);}.cls-3{fill:#fff;}.cls-4{clip-path:url(#clip-path-2);}.cls-5{fill:#c6daf5;}.cls-6{fill:#628fe8;}.cls-7{fill:#c69555;}.cls-8{fill:#d39b50;}.cls-9{fill:#fd716a;}.cls-10{fill:#fffc97;}.cls-11{fill:#ffc6a6;}.cls-12{fill:#e0ab5f;}.cls-13{fill:#f5d2d6;}.cls-14{fill:#ef5f5b;}.cls-15{fill:#e2a88a;}.cls-16,.cls-19,.cls-22,.cls-25{stroke:#e2a88a;}.cls-16,.cls-17,.cls-19,.cls-20,.cls-22,.cls-24,.cls-25,.cls-27,.cls-30{stroke-linecap:round;}.cls-16,.cls-17,.cls-19,.cls-20,.cls-22,.cls-24,.cls-25,.cls-27,.cls-29,.cls-30,.cls-31,.cls-32{stroke-miterlimit:10;}.cls-16{stroke-width:0.46px;}.cls-17,.cls-24{stroke:#fff;}.cls-17{stroke-width:0.92px;}.cls-18{fill:#74afd6;}.cls-19{stroke-width:0.51px;}.cls-20{stroke:#fd716a;stroke-width:5.12px;}.cls-21{fill:#7284db;}.cls-22{stroke-width:0.49px;}.cls-23{fill:#ffb7a9;}.cls-24{stroke-width:0.64px;}.cls-25{stroke-width:0.46px;}.cls-26{fill:#d19da5;}.cls-27,.cls-32{stroke:#fffc97;}.cls-27,.cls-29,.cls-30{stroke-width:2.56px;}.cls-28{fill:#bc8892;}.cls-29{stroke:#628fe8;}.cls-30{stroke:#f5d2d6;}.cls-31{stroke:#c2d5ef;stroke-width:0.62px;}.cls-32{stroke-width:1.24px;}</style><clipPath id="clip-path"><circle class="cls-1" cx="644.65" cy="1457.44" r="441.35"/></clipPath><clipPath id="clip-path-2"><rect class="cls-1" y="0.15" width="1200" height="717.7"/></clipPath></defs><title>logos</title><g class="cls-2"><rect class="cls-3" x="-39.63" y="709.17" width="1368.57" height="1496.54"/></g><g class="cls-4"><rect class="cls-5" x="-20.41" width="1239.72" height="714.15"/><path class="cls-6" d="M-20.33,365s150-149.44,235.55-149.44c110.34,0,296.3,265.82,433.91,265.82,179.76,0,344.28-199.7,448.78-199.7,91.73,0,121.49,80.67,121.49,80.67V716.79H-20.33Z"/><path class="cls-3" d="M350.59,404.65a219,219,0,0,1-2.47,33.1,275,275,0,0,1-6.87,31.92q-4.39,17.58-8,34.86T327,540q-.56,6.45-6.59,9.95a30,30,0,0,1-11,3.52,108.88,108.88,0,0,1-11.53.58h-6a14.21,14.21,0,0,1-7.41-3.8,35.33,35.33,0,0,1-6.32-7.62,43.34,43.34,0,0,1-4.39-9.37c-1.1-3.31-2-6.15-2.74-8.5q-3.3-15.81-5.77-29.28t-4.39-26.66q-1.94-13.17-2.75-27.24t-.82-29.87A5.81,5.81,0,0,0,252.3,407H178.16a18.11,18.11,0,0,0-5.49.59q-4.39,0-4.39,4.1a28.62,28.62,0,0,0-.55,5.27v5.27q-.55,17-.55,33.1v46q-.56,10-6.31,12.3a37.09,37.09,0,0,1-14,2.35h-2.19a65.51,65.51,0,0,1-10.16-.59c-2.39-.38-4-1.17-4.94-2.34s-1.29-3-1.1-5.57.45-5.75.82-9.66q1.65-17,1.65-33.39.54-38.67.27-76.45t-1.92-76.44q-.56-11.11-.55-22v-22l-3.29-80.84V168a30.05,30.05,0,0,1,2.2-11.71c1.45-3.12,3.29-4.69,5.49-4.69a17.11,17.11,0,0,1,4.39,1.17c2.2,1.17,4.3,2.25,6.31,3.22a28.09,28.09,0,0,1,5.77,3.81,27.76,27.76,0,0,0,14.28,5.27c4.75.4,7.14,3.33,7.14,8.79q.54,12.3,0,23.43-1.65,17-1.93,33.1t-.27,33.09q-.56,25.78-.55,51.26V366c0,5.47.36,9,1.1,10.54s2.74,2.34,6,2.34h5.49q15.92,0,32.12.59t32.13,1.76h4.94q4.4,0,6-2.05c1.1-1.37,1.65-4.78,1.65-10.25q0-25.18.55-50.09t.55-50.08Q260,247.08,260,225.4V182.05a37.11,37.11,0,0,1,3.85-17q3.82-7.6,8.23-14.64c2.2-2.34,4.21-3.52,6-3.52a7.75,7.75,0,0,1,4.95,1.76q8.77,4.69,17.29,9.37t17.3,9.38a17.3,17.3,0,0,0,6.59,2.05c2.2.2,4.39.29,6.59.29q8.24,0,11.81,3.22t5.21,11.42q1.1,5.87,1.65,11.13a109.57,109.57,0,0,1,.55,11.13q.54,25.78.55,51.26t.55,51.26q-.56,24-.55,47.74Z"/><path class="cls-3" d="M492.26,395.28a55,55,0,0,1-10.71,2.34,87.09,87.09,0,0,1-9.61.59,81.62,81.62,0,0,1-39-9.67q-18.12-9.66-25.26-31.93a103.72,103.72,0,0,1-4.39-39.24,280.8,280.8,0,0,1,5.76-35.74,238.61,238.61,0,0,1,11-35.44,185.77,185.77,0,0,1,16.74-32.51,141.63,141.63,0,0,1,22.52-26.94q12.07-11.13,27.45-11.13a34.34,34.34,0,0,1,4.4.29,5.42,5.42,0,0,1,3.29,1.46,83.41,83.41,0,0,0,20.32,10.26,39.89,39.89,0,0,1,18.67,13.76,3,3,0,0,0,2.2,1.17c1.45,0,2.55-1,3.29-2.93a86.31,86.31,0,0,1,2.47-9.07c1.28-4.11,2.75-8.3,4.4-12.6A91.16,91.16,0,0,1,551,166.53c1.83-3.32,3.85-5,6-5a16.45,16.45,0,0,1,4.94,1.17q4.39,2.35,8.52,4.39a82.87,82.87,0,0,1,8.51,5,76.23,76.23,0,0,0,9.88,5,28.15,28.15,0,0,0,11,2.05q7.7.6,10.44,10a150.87,150.87,0,0,1,4.11,20.5q1.37,10.54,1.93,21.09,0,59.18-3,116.87t-9.06,116.27Q603.17,475,601,486.07t-4.39,22.26c-.37,2-.82,4.1-1.37,6.45a53,53,0,0,1-1.93,6.44,15.31,15.31,0,0,1-6,7,40.63,40.63,0,0,1-9.61,4.69,50.24,50.24,0,0,1-10.7,2.34,90.4,90.4,0,0,1-9.34.58c-1.83,0-4.12-.09-6.86-.29a51.16,51.16,0,0,1-8-1.17,17.43,17.43,0,0,1-6.86-3.22,11.65,11.65,0,0,1-4.12-5.86,97.91,97.91,0,0,1-3.29-14.06,232.41,232.41,0,0,1-3.57-36.9q-.28-18.15-1.37-36.32v-7.62a46.35,46.35,0,0,0-.55-7,2.28,2.28,0,0,0-1.65-2.34,3,3,0,0,0-2.2.59,64.82,64.82,0,0,0-7.69,10L458.76,516q-5.49,9.38-11,18.45t-11,19a11.27,11.27,0,0,0-1.92,2.93A11.44,11.44,0,0,1,433,559.3c-1.47,2.72-3.21,4.29-5.22,4.68a36.24,36.24,0,0,1-6.86.59c-1.84-.4-3.57-.69-5.22-.88a19.23,19.23,0,0,1-5.21-1.47c-4-1.56-6.32-3.13-6.87-4.68s.09-4.29,1.92-8.2c1.83-4.3,3.66-8.29,5.5-12s3.65-7.52,5.49-11.42q13.71-26.94,27.45-52.72a508.78,508.78,0,0,1,30.75-50.38c2.2-3.52,4.48-6.93,6.87-10.25s4.67-6.74,6.86-10.25a7.93,7.93,0,0,0,1.65-2.64A35.64,35.64,0,0,1,492.26,395.28Zm36.24-115.4a125.27,125.27,0,0,0-3.3-37.2A146.34,146.34,0,0,0,512,208.41q-5.49-10.54-10.43-10.54c-3.29,0-7,2.15-11,6.44a119.07,119.07,0,0,0-21.14,26.07,196.63,196.63,0,0,0-15.38,31.34,233,233,0,0,0-10.16,34,300.36,300.36,0,0,0-5.49,34q-1.65,19.92,4.39,35.73,2.75,8.79,5.77,12.6a9.65,9.65,0,0,0,8,3.8q3.84,0,12.08-2.93a190.25,190.25,0,0,0,25.26-12.3q12.08-7,24.71-14.64,4.95-2.93,6-11.13,1.1-15.23,1.93-30.46T528.5,279.88Z"/><path class="cls-3" d="M664.68,399.38q1.1-21.09,4.39-52.43t9.34-64.14a617.12,617.12,0,0,1,14.82-62.68q8.78-29.88,20.32-47.45a32.73,32.73,0,0,1,2.47-4.39,28.9,28.9,0,0,1,3-3.81q3.3-4.09,7.14-4.1a14.45,14.45,0,0,1,4.12,1.17,60,60,0,0,1,6.31,2.93q3.3,1.76,6,3.51c1.83,1.17,3.11,2,3.85,2.35a44.31,44.31,0,0,0,9.06,4.68,28.57,28.57,0,0,0,10.16,1.76,13.75,13.75,0,0,1,8.23,3.81,26.89,26.89,0,0,1,5.5,7.91,46.1,46.1,0,0,1,3.29,9.95,46.86,46.86,0,0,1,1.1,9.38,165.79,165.79,0,0,1-1.37,21.08q-1.38,10.54-3,21.09-3.3,18.75-6.87,37.49T765.72,325q-5.51,34-7.69,67.66a424.84,424.84,0,0,0,1.1,68.24q1.1,8.22,1.92,16.41a74.72,74.72,0,0,0,3.57,16.4c2.56-.39,4.2-1.47,4.94-3.22s1.46-3.42,2.2-5q9.33-19.9,17-40.13t14.83-41.3q11-33.39,20.86-67.36t20.32-67.95q5.49-17.58,11.26-35.15A341.44,341.44,0,0,1,869.5,199a188,188,0,0,1,9.89-19.33c1.45-2.73,3.29-4.1,5.49-4.1a16.58,16.58,0,0,1,4.94,1.17q4.38,1.75,8.24,3.51a45.85,45.85,0,0,0,8.78,2.93q7.13.6,8.24,10a75.55,75.55,0,0,1-.55,20.5q-4.95,31.06-9.34,59.75t-7.68,57.41q-3.3,28.71-5,57.7t-1.64,60.63c0,2.34.08,6.25.27,11.71s.55,11.13,1.1,17,1.28,11.42,2.2,16.7,2.1,8.88,3.57,10.83a8.57,8.57,0,0,0,4.94-5.56c.73-2.54,1.46-4.78,2.19-6.74q2.74-10.55,5.5-21.09t5.49-21.08q12.06-52.14,24.43-103.39t25-102.81q4.38-17,9.33-33.1t10.44-32.51a53.83,53.83,0,0,1,3.57-8.2,50.85,50.85,0,0,1,4.66-7,6.22,6.22,0,0,1,4.4-2.34,5.94,5.94,0,0,1,2.74.58,59.16,59.16,0,0,0,6.59,4.1l6.59,3.52a37.06,37.06,0,0,0,5.49,2.93,27.29,27.29,0,0,0,6,1.76q8.77,1.17,13.45,7a45.74,45.74,0,0,1,7.42,14.05,54.2,54.2,0,0,1,2.74,12.89q.54,6.45,1.65,12.89a486.34,486.34,0,0,1,1.65,69.12q-1.65,34-6,68.54-2.21,20.51-4.39,40.12t-3.85,40.13a300.11,300.11,0,0,0,6,86.11q1.1,4.11,2.2,7.32c.73,2.15,2.74,3.43,6,3.81,1.83.39,2.38,2,1.65,4.69a8,8,0,0,1-3.57,5.56,24.38,24.38,0,0,1-7.14,3.22,39.64,39.64,0,0,1-8.24,1.47c-2.74.2-5,.29-6.86.29-2.57,0-4.94-.09-7.14-.29s-4.58-.49-7.14-.88a13.31,13.31,0,0,1-6-3.52A116.11,116.11,0,0,1,990,527.08a101.65,101.65,0,0,1-11.25-21.38,141.57,141.57,0,0,1-6.87-24.31q-2.48-12.88-4.66-27.54a298.53,298.53,0,0,1-3.3-35.73q-.56-17.56-.55-35.73a52.48,52.48,0,0,0-.55-8.79l-1.65-1.75a1.52,1.52,0,0,1-1.09.58,19.5,19.5,0,0,0-2.2,5.57c-.37,1.75-.74,3.61-1.1,5.56l-16.47,75.57q-2.76,10.55-5.49,21.09t-5.5,21.08q-1.64,4.69-3.29,9.08a70.73,70.73,0,0,1-3.84,8.5q-6.6,14.64-20.87,14.64H882.13a14.33,14.33,0,0,1-6.31-2.34,35,35,0,0,1-5.22-4.69,52.05,52.05,0,0,1-6.31-14.64,171.48,171.48,0,0,1-4.12-18.75q-1.65-9.94-2.47-19.33T856.87,458q-1.11-24,0-47.45t3.3-47.45q2.19-25.18,4.94-49.79t7.14-49.21a12.31,12.31,0,0,0,.27-4.39,32.09,32.09,0,0,1-.27-4.4q-2.21,0-3.3,2.93-2.21,6.45-4.39,12t-4.39,11.42Q848.64,316.79,839,352.81t-20,71.76q-6,21.68-12.35,43.05t-12.36,42.47q-2.21,7-4.94,13.77T783.84,537q-5,10.55-15.38,13.76A68.63,68.63,0,0,1,748.15,554H733.59q-6.87,0-14.55-.58a32.6,32.6,0,0,1-18.94-5.86,58.05,58.05,0,0,1-14.83-14.94A85.29,85.29,0,0,1,675.11,513a118.59,118.59,0,0,1-5.49-19.92A532.52,532.52,0,0,1,664.68,399.38ZM872.25,253.52a1.76,1.76,0,0,1,.55,1.17C873.52,253.91,873.34,253.52,872.25,253.52Z"/><path class="cls-5" d="M276.37,476q-7.31,0-14.44.23,1.49,9.56,3.27,19.26,2.48,13.47,5.77,29.28c.73,2.35,1.64,5.19,2.74,8.5a43.34,43.34,0,0,0,4.39,9.37,35.33,35.33,0,0,0,6.32,7.62,14.21,14.21,0,0,0,7.41,3.8h6a108.88,108.88,0,0,0,11.53-.58,30,30,0,0,0,11-3.52q6-3.51,6.59-9.95,2.73-18.15,6.31-35.44,2.47-12,5.35-24.11A425.31,425.31,0,0,0,276.37,476Z"/><path class="cls-5" d="M134.51,515.36a65.51,65.51,0,0,0,10.16.59h2.19a37.09,37.09,0,0,0,14-2.35q5.76-2.33,6.31-12.3V490.88c-15.13,4.72-28.23,10.38-38.72,16.78-.15,2.43.21,4.22,1.11,5.36S132.12,515,134.51,515.36Z"/><path class="cls-7" d="M984.37,517.84l.56,1h57.89a305,305,0,0,1-5.6-58.17H984.37Z"/><path class="cls-8" d="M342.93,402.17s-10.67,106.17-10.18,113.06c.11,1.69.64,4-.45,5-3.57,3.35-15.55,3.13-16.43,2.17-1-1.12,11.34-3.29,11.85-6.64.41-2.76-4.08-46.92-4.59-52.5s-2-62.55-2-62.55Z"/><path class="cls-9" d="M346.94,406.92s24.07-.47,25-10.46-.89-66.09-9.8-76.55-39.22,13.31-39.22,13.31Z"/><path class="cls-9" d="M344.27,327s20,0,20.9-3.32-7.08-26.63-22.24-27.58-18.27,33.28-18.27,33.28Z"/><path class="cls-10" d="M332.75,515.23c.11,1.69.83,5.71-.51,6.28-4.08,1.73-16.58,2.84-16.37.92.32-2.82,11.34-3.29,11.85-6.64"/><path class="cls-11" d="M273.4,433.07s6.22,87.8,5.8,93.67c-.11,1.44-.95,3.41,0,4.28,3.12,2.85,8.15,5.09,8.91,4.28s-4.46-5.23-4.9-8.09c-.37-2.34,3.56-39.94,4-44.69S289,429.27,289,429.27Z"/><path class="cls-11" d="M290.34,428.32s7.13,90.81,7.13,93.19c0,1.19-.24,3.5.89,3.8,3.57,1,9.81,1.43,9.81.48,0-1.43-6.69-3.81-6.69-5.23,0-2.38,2.23-38,2.68-42.8s1.78-53.25,1.78-53.25Z"/><path class="cls-12" d="M357.2,399.31S346.53,505.49,347,512.38c.12,1.69.64,4-.45,5-3.56,3.35-10.2,10.27-11.08,9.31-1-1.12,6-10.42,6.5-13.78.42-2.75-4.08-46.91-4.59-52.49s-2-62.55-2-62.55Z"/><path class="cls-10" d="M347,512.38c.12,1.69.64,4-.45,5-3.56,3.35-10.07,10.11-11.08,9.31-2.35-1.87,6-10.42,6.5-13.78"/><path class="cls-5" d="M271,406.68s-2.23,27.58.45,29.48c0,0,15.15.48,18.72-1.42v-.48s13.37.95,16.93-.95c0,0,1.34-21.4.45-26.63Z"/><path class="cls-13" d="M359.42,399.31s-11.58,4.28-20.05,5.23-18.28-3.8-18.28-3.8l-5.34-47.07,28.52-20.45,12.93,10Z"/><path class="cls-6" d="M283.65,341.31l10.26,3.33s19.16,16.64,14.26,62.28a83.54,83.54,0,0,1-37.44,0s-3.47-53.83,3.84-58.06S283.65,341.31,283.65,341.31Z"/><path class="cls-14" d="M340.15,392.72a87.28,87.28,0,0,1-17.62-1.55l1.14-6.06c14.95,3.19,37.59,0,37.82,0l.77,6.12A172.3,172.3,0,0,1,340.15,392.72Z"/><path class="cls-6" d="M293,343.21s11.15,5.7,15.16,8.56,14.71,6.65,14.71,6.65L321.09,367l-33.87-18.07Z"/><path class="cls-11" d="M289.09,380.63s1.25-4.61,2.59-5.09,1.33,2.38,1.33,2.38Z"/><path class="cls-10" d="M292.79,307.31s-6.68-4.28-10.7,0-3.11,10.46-4.9,12.84-9.36,12.36-1.78,17.59,12.92-.95,12.92-.95L291,342s7.58,1,10.25-2.38,2.67-7.13,2.23-13.31,2.23-12.84-1.34-16.64S295.47,306.36,292.79,307.31Z"/><path class="cls-11" d="M283.43,326.33v15.22s3.12,6.18,10.25,3.32v-7.6Z"/><path class="cls-15" d="M283.43,329.16c1.32,5.92,5.41,10.48,9.81,10.48a2.25,2.25,0,0,0,.44,0v-2.33l-10.25-10.94Z"/><path class="cls-11" d="M302.15,324.43c-1.34,8.08-5.79,13.31-8.47,13.31-5.35,0-10.25-6.75-10.25-14.5s5.9-13.55,10.7-13.55S303.41,316.8,302.15,324.43Z"/><path class="cls-15" d="M291.73,310.14c-3.86,1.38-7.68,5.87-8.23,11.68,1.54,0,8.62-1,11.74-6.66,0,0,4,5.7,7.12,6.66a14.51,14.51,0,0,0-3.61-9.88Z"/><path class="cls-10" d="M280.31,320.62s12.48.48,14.26-9c0,0,3.57,6.18,8,8.08l-.89-8.08-12.71-4-5.57,6.89Z"/><ellipse class="cls-11" cx="282.32" cy="323.72" rx="3.34" ry="3.57"/><path class="cls-16" d="M283.43,322.5s-2,1,0,2.53"/><path class="cls-6" d="M279.2,526.74c-.11,1.44-.95,3.41,0,4.28,3.12,2.85,8.15,5.09,8.91,4.28s-4.46-5.23-4.9-8.09"/><path class="cls-6" d="M297.47,521.51c0,1.19-.24,3.5.89,3.8,3.57,1,9.81,1.43,9.81.48,0-1.43-6.69-3.81-6.69-5.23"/><line class="cls-17" x1="290.34" y1="434.5" x2="291.23" y2="417.86"/><path class="cls-11" d="M361.34,399.88s.9,6.9.38,9.38-1.23,5.77-3.18,3.82-1.44-8.1-1.44-8.1l2.38-5.63Z"/><path class="cls-11" d="M357.2,399.31s-1.34,6.66-1.79,8.56.33,3.81,2.62-1.19,1.39-7.37,1.39-7.37Z"/><path class="cls-13" d="M315.86,353.67s-2.93-33.5,21.28-34.23c15.6-.48,20.95,7.13,25.85,26.15s0,56.58,0,56.58-4.46-1.43-7.13,0c0,0-5.8-52.3-6.69-56.11S315.86,353.67,315.86,353.67Z"/><path class="cls-11" d="M341.89,303.85v16.79s-3.44,6.82-11.31,3.67v-8.39Z"/><path class="cls-15" d="M341.89,307c-1.45,6.54-6,11.57-10.82,11.57a2.81,2.81,0,0,1-.49-.05v-2.57l11.31-12.07Z"/><path class="cls-11" d="M321.34,302.88c2.18,8.76,7.53,14.07,10.48,13.8,5.88-.53,10.68-8.44,10-17s-7.66-14.32-12.94-13.84S319.29,294.62,321.34,302.88Z"/><path class="cls-18" d="M336,285c-7-2.34-15.71-1.91-15.19,10.68a53.42,53.42,0,0,1,7.16-.46c5.87,0,10.91.86,13.19,2.09.95-.54,1.52-.9,1.52-.9S343.16,287.34,336,285Z"/><path class="cls-6" d="M340.7,297.13s-6.9-7.89-14.93-8.36-12.92,1-12,4.28,7.24,3.14,7.24,3.14S334.68,294.09,340.7,297.13Z"/><path class="cls-14" d="M331.09,370.55,325.81,368c.92-2.15,2.2-8.5.48-26.8-.72-7.66-1.73-14.74-2.25-18.19a2.25,2.25,0,0,1,1.72-2.58l1.55-.29a2.12,2.12,0,0,1,2.45,1.85C331.15,331,335.29,360.69,331.09,370.55Z"/><ellipse class="cls-11" cx="343.09" cy="300.13" rx="3.69" ry="3.94"/><path class="cls-19" d="M341.76,298.91s2.29.89.22,2.78"/><path class="cls-14" d="M357.35,380.51a2.06,2.06,0,0,1-3.24.54c-5.93-5.48-9.63-17.41-11-35.55a232.1,232.1,0,0,1-.4-25.74,2.16,2.16,0,0,1,2.25-2.15l1.56.11a2.2,2.2,0,0,1,2,2.34,228.24,228.24,0,0,0,.39,25c1.2,15.87,4.31,26.78,8.81,31.12a2.39,2.39,0,0,1,.45,2.86Z"/><path class="cls-13" d="M355.76,327.28c3,4.22,5.15,10.23,7.23,18.31,4.9,19,0,56.58,0,56.58s-4.46-1.43-7.13,0c0,0-5.8-52.3-6.69-56.11"/><rect class="cls-3" x="291.77" y="357" width="48.58" height="43.74"/><path class="cls-11" d="M289.67,382.43s4.46-1.9,5.8-3.32,3.12-3.33,1.33-4.28-5.35,1.9-5.35,1.9L288.78,381Z"/><path class="cls-11" d="M343.38,375.54c-.48.63-1.7,1.19-3-.24S337.22,372,339,371s4.9.48,5.35,1.91C344.56,373.59,343.8,375,343.38,375.54Z"/><line class="cls-20" x1="596.5" y1="395.42" x2="560.55" y2="402.04"/><path class="cls-11" d="M575,386.51s-83.56-58.43-89.63-61.38c-1.49-.73-3.94-.92-4.25-2.51-1-5.2-.29-12.19,1-12.58,1.46-.45,2.58,8.1,5.15,10.27C489.38,322.1,529,339.67,534,342s53.93,29.16,53.93,29.16Z"/><path class="cls-21" d="M485.39,325.13c-1.49-.73-3.94-.92-4.25-2.51-1-5.2-.29-12.19,1-12.58,1.46-.45,2.58,8.1,5.15,10.27"/><path class="cls-11" d="M584.91,393.22a88.29,88.29,0,0,1-22.28,4.47c-12.76.71-29.15.34-29.15.34-15.13,15.82-33.82,28.89-36.71,31.33-1.29,1.09-2.54,3.4-3.75,2.43-4-3.17-7.8-8.92-7.1-10.1.81-1.37,6,2.94,9.26,2.75,2.69-.16,31.14-36.26,36.28-38.09S585,372.56,585,372.56Z"/><path class="cls-21" d="M496.77,429.36c-1.35,1.78-2.48,3.32-3.75,2.43-4.37-3.07-8.2-9.81-7.5-11,.82-1.38,6.38,3.83,9.66,3.64"/><path class="cls-5" d="M597.23,363.31s7,8.07,0,23.65c-5.76,12.9-37.16,12.07-37.16,12.07s1.07-32.06,2-47.43Z"/><path class="cls-5" d="M587.05,318.17c-9.49,2.11-14.52,11.82-16.25,35.37,0,0-7.25,32.11,28.73,26.46C599.53,380,609.55,313.17,587.05,318.17Z"/><path class="cls-9" d="M579.2,292.46S578,280,592.5,281.76s16.26,19.6,2.42,28.2S579.2,292.46,579.2,292.46Z"/><path class="cls-11" d="M596.81,304.77l-3.46,15.81s-4.64,5.61-11.4.8l1.73-7.9Z"/><path class="cls-15" d="M596.17,307.71c-2.72,5.81-8,9.49-12.57,8.36a2.75,2.75,0,0,1-.45-.17l.53-2.42,13.13-8.71Z"/><path class="cls-11" d="M578,296.89c-1.12,8.68,1.79,15.54,4.51,16.48,5.43,1.87,12.48-3.27,14.86-11.14s-1.82-15.82-6.69-17.5S579.08,288.7,578,296.89Z"/><ellipse class="cls-11" cx="598.37" cy="303.1" rx="3.57" ry="3.8"/><path class="cls-22" d="M597.61,301.48s1.73,1.71-.78,2.57"/><path class="cls-11" d="M590.65,327.44c1.45-1.11,3.74-2.52,7.12.14,2,1.55,20,20.87,21.13,27.59.74,4.31-4.92,7.8-26,10.25l-.13-4.38s18.94-5.74,18.32-6.64S580.08,335.52,590.65,327.44Z"/><path class="cls-6" d="M607.35,335.29s-9.26,6.44-9.34,12.07c0,0-15-12.51-9.28-18.65S599.69,326.07,607.35,335.29Z"/><path class="cls-9" d="M585.91,287.56a11.14,11.14,0,0,0,6.45,8.15c5.66,2.41,6.45,5.59,6.45,5.59s4.64-16.13-4.86-17.75-14.91,1.79-14.7,8.82C579.25,292.37,580.86,287.07,585.91,287.56Z"/><path class="cls-9" d="M599.6,285.89s.65-12.68,10.33-9.8,6.91,7.71,14,7.88,12-8.85,19.66-6.93,20.39,12,9.43,24.72-10.34-7.72-19.72-3.49-15.63,6.3-20.51.83-7.43-14-11.82-11S599.6,285.89,599.6,285.89Z"/><ellipse class="cls-5" cx="987.92" cy="270.29" rx="1.02" ry="2.77"/><path class="cls-6" d="M995.21,273l-6.53.57a.73.73,0,0,1-.7-.75v-5.06a.73.73,0,0,1,.7-.75l6.53.57a.73.73,0,0,1,.7.75v3.92A.73.73,0,0,1,995.21,273Z"/><rect class="cls-6" x="993.55" y="268.15" width="6.95" height="4.28" rx="0.85"/><path class="cls-23" d="M1002.33,269.11s-2.49,4.81-1.69,5.67,4,0,4,0Z"/><path class="cls-6" d="M1003.92,255.41s-3.76,5.27-2.28,10.37,6.22-6.33,6.22-6.33Z"/><path class="cls-10" d="M1012.43,286.68c-3.35,2.69-10.88,11.1-14,31.36-.87,5.63-1.66,14.37,1.39,17.23,7.88,7.4,13.59,12.53,29.31,1.68a5.45,5.45,0,0,0,2-3.7C1033.72,319.24,1033.55,269.7,1012.43,286.68Z"/><path class="cls-6" d="M978.7,386.72c-1.73,3.36,16.23,10.59,19.07,6.72S984.67,375.14,978.7,386.72Z"/><path class="cls-11" d="M1029.13,393.61s-.94,5.21-1.1,8.07-4.89,65.23-4.89,69.77c0,4.09.63,6.39-2.83,6.89s-19.39.67-19.23-.67,16.07-5.88,16.07-5.88L1011,385.54Z"/><path class="cls-11" d="M1001.08,384.36S992.41,396,993,400s7.41,32.44,10.09,43.54c.24,1,2,6.22-1,6.56-3.81.43-22.06,1.51-21.59,0s16.55-5.72,16.55-5.72-18.91-42.2-16.55-50.6,6.94-20,6.94-20Z"/><path class="cls-5" d="M1029.13,337s5.36,6.73,4.57,20-3,39.34-3,39.34a60.4,60.4,0,0,1-20.17,0l-2.84-15.81s-8.2,10.09-9.93,12.95c0,0-6.46-12.44-19.07-6.72,0,0,10.36-19.78,19.23-35.48,2-3.46,3.25-10.29,5-13.11C1003,338.13,1019.68,341.83,1029.13,337Z"/><path class="cls-24" d="M1003.05,341.07S999,352,1007.7,380.49"/><path class="cls-11" d="M1018.14,269.64l4.4,14.3s-1.48,5.6-9,5.26l-1.86-5.91Z"/><path class="cls-15" d="M1019,272.3c.47,6-2.06,11.63-6.18,13.08a2,2,0,0,1-.44.1l-.67-2.19,6.47-13.65Z"/><path class="cls-11" d="M1001.79,270.23c1.2,8,4.43,13.39,7.07,13.44,5.29.09,10.25-6.5,10.37-14.16s-5.62-13.51-10.37-13.6S1000.67,262.67,1001.79,270.23Z"/><path class="cls-6" d="M1019.62,274.61s4.59-5.34,1.79-14c-3-9.24-14.7-5.63-14.79-7.84s-6.43,2.55-5.37,8.33c.85,4.57,16.16,2.26,17.18,8A42,42,0,0,0,1019.62,274.61Z"/><path class="cls-3" d="M1011.8,310.22c-1.88.42-8-14.79-4.89-15.8S1015.58,309.38,1011.8,310.22Z"/><ellipse class="cls-11" cx="1018.44" cy="270.19" rx="3.31" ry="3.53"/><path class="cls-25" d="M1017.36,269s2,1,0,2.5"/><path class="cls-11" d="M1025.64,301.69c-.13,2-.66,3-5,4.16-2.54.67-32.2,8.09-35.62,1.76-1.41-2.6-.63-13,7.41-32.86l3.78,2.18s-3.78,20.51-2.58,23.08C994.11,301.07,1026.61,286.9,1025.64,301.69Z"/><path class="cls-26" d="M934.16,447.32s-10.3,3-9.4,4.63,11.33-1,14.51-2S934.16,447.32,934.16,447.32Z"/><path class="cls-5" d="M1011.75,310.28s-.19-12.6-4.92-15.89c0,0,19.12-7.31,21.1,1.67S1023.92,308.14,1011.75,310.28Z"/><path class="cls-11" d="M995.09,278.44s3-1.17,4.1-9.24c.55-4-9.46-6.56-9.46,0,0,2.46,2.07,8.13,2.07,8.13Z"/><path class="cls-24" d="M1012.26,343.18s1,8.65,11,9.32"/><path class="cls-6" d="M1007.86,263.31s4.88,3.87,5.2,5.72,6.14-3.36,6.14-3.36Z"/><path class="cls-12" d="M1000.86,461.3c0-6.16-4.66-11.17-10.44-11.13l-23.66.15c.17,1.18.31,2.35.49,3.53q2.18,14.65,4.66,27.54a141.57,141.57,0,0,0,6.87,24.31A101.65,101.65,0,0,0,990,527.08a116,116,0,0,0,17.42,19.52h43.12a8,8,0,0,0,3.44-5.46c.73-2.73.18-4.3-1.65-4.69-3.3-.38-5.31-1.66-6-3.81s-1.47-4.58-2.2-7.32a312.26,312.26,0,0,1-6.47-48.22l-36.89.06Z"/><path class="cls-12" d="M917.06,526.9a29.7,29.7,0,0,0,5.16-8,70.73,70.73,0,0,0,3.84-8.5q1.65-4.39,3.29-9.08,2.74-10.55,5.5-21.08t5.49-21.09l1.88-8.65-26,.17-.06.28q-2.76,10.54-5.49,21.08t-5.5,21.09c-.73,2-1.46,4.2-2.19,6.74a8.57,8.57,0,0,1-4.94,5.56q-2.2-2.92-3.57-10.83t-2.2-16.7c-.55-5.86-.92-11.51-1.1-17-.15-4.35-.23-7.69-.26-10.07l-18.92.13h0C872,481.89,891.2,509.41,917.06,526.9Z"/><path class="cls-9" d="M1020.31,478.34c3.08-.45,2.92-2.31,2.85-5.59l-6-1s-15.91,4.53-16.07,5.88S1016.84,478.85,1020.31,478.34Z"/><path class="cls-9" d="M1002.18,450.1c2-.23,1.86-2.68,1.46-4.56l-6.5-1.16s-16.08,4.2-16.55,5.72S998.37,450.53,1002.18,450.1Z"/><path class="cls-10" d="M144,29.09s-49.59,1.33-39.67,21.16S144,29.09,144,29.09Z"/><path class="cls-10" d="M282.36,66.79S232.77,68.11,242.68,88,282.36,66.79,282.36,66.79Z"/><path class="cls-10" d="M234.5,15.87s-49.59-5.29-43.39,13.22S234.5,15.87,234.5,15.87Z"/><path class="cls-10" d="M386.09,66.25s-49.83.87-41.66,18.5S386.09,66.25,386.09,66.25Z"/><path class="cls-10" d="M30.23,213.18s-49.83.87-41.66,18.49S30.23,213.18,30.23,213.18Z"/><path class="cls-10" d="M20.62,84.14S-29.21,85-21,102.64,20.62,84.14,20.62,84.14Z"/><path class="cls-10" d="M202.27,80.67s-32.24-4-29.76,10.58S202.27,80.67,202.27,80.67Z"/><path class="cls-10" d="M66.31,21.89s-32.23-4-29.76,10.58S66.31,21.89,66.31,21.89Z"/><path class="cls-10" d="M331,21.89s-32.23-4-29.75,10.58S331,21.89,331,21.89Z"/><path class="cls-10" d="M227.42,147.12s-32.23-4-29.75,10.58S227.42,147.12,227.42,147.12Z"/><path class="cls-10" d="M78.77,157.65s-32.23-4-29.75,10.58S78.77,157.65,78.77,157.65Z"/><path class="cls-10" d="M100.46,225.68s-32.23-4-29.75,10.58S100.46,225.68,100.46,225.68Z"/><path class="cls-10" d="M103.19,100.53s-37.2-5.29-36,9.26S103.19,100.53,103.19,100.53Z"/><path class="cls-13" d="M-20.41,492.33s57-5.74,90.5,56.41,70.13,72.66,106.62,82c62,15.87,62,86,62,86H-20.41Z"/><path class="cls-27" d="M578.9,399s21.36-62.94,37.46-126.51"/><path class="cls-5" d="M860.19,493.25a174,174,0,0,0,4.1,18.6,52.05,52.05,0,0,0,6.31,14.64,35,35,0,0,0,5.22,4.69,14.33,14.33,0,0,0,6.31,2.34h19.22q14.28,0,20.87-14.64a71.41,71.41,0,0,0,3.8-8.4c-10.91,1.32-17.29-3.91-24-8.37a8.86,8.86,0,0,1-3.91,3.29c-1.21-1.59-2.22-4.33-3-8.16-4.27-3.05-9.65-7.92-16.34-8.79C872.88,487.7,866.76,488,860.19,493.25Z"/><path class="cls-5" d="M978.78,505.7A101.65,101.65,0,0,0,990,527.08,116.11,116.11,0,0,0,1007.88,547a13.31,13.31,0,0,0,6,3.52c2.56.39,4.94.69,7.14.88s4.57.29,7.14.29c1.82,0,4.12-.09,6.86-.29a39.64,39.64,0,0,0,8.24-1.47,24.38,24.38,0,0,0,7.14-3.22,8,8,0,0,0,3.57-5.56c.73-2.73.18-4.3-1.65-4.69-3.3-.38-5.31-1.66-6-3.81s-1.47-4.58-2.2-7.32q-.69-3.24-1.3-6.46h0C1023,522.38,1015.53,492,992,489.32c-3.94-.44-10,1.58-17.13,4.49Q976.57,499.93,978.78,505.7Z"/><path class="cls-13" d="M943.82,438.65s4.26,7.07,11.6,1.5c0,0-2.26,6-5.79,5.81S944.21,443,943.82,438.65Z"/><path class="cls-13" d="M912,435.94c-2.79-5.63-4.83-6.76-6.2-7.2-1-.32-12.9-2-10.72-10.37a.27.27,0,0,1,.28-.21l7.86.7a.24.24,0,0,0,.23-.11c.34-.47,1.92-3,7.2-1.66,1.23.31-.78.4.5.62a12.05,12.05,0,0,1,1.84.46c1.76.44,2.63,3,4.06,4.86,2.32,3,26.11,15,26.11,15a5.63,5.63,0,0,1,2.71,3.39c.56,2.31-.08,12.54-15.2,8.38C921.13,447.15,916.83,445.63,912,435.94Z"/><path class="cls-26" d="M924,447.72c-.29-8.08-2.78-9.36-2.78-9.36l-.63,7.78A23.82,23.82,0,0,0,924,447.72Z"/><ellipse cx="906.54" cy="419.75" rx="0.78" ry="0.84"/><path class="cls-28" d="M896.71,418.28l-1.31-.12a.27.27,0,0,0-.28.21,8.31,8.31,0,0,0-.22,1.13l.11.05a1.27,1.27,0,0,0,1.67-.75A1.15,1.15,0,0,0,896.71,418.28Z"/><path class="cls-13" d="M931.69,441.32c-.21.63-.84,3.74,2.06,8.61a10.67,10.67,0,0,0,7.39,5.33s-3,10.94-1.21,11,5.15-10.8,6-14.26,2.87-10.63-3.86-13.54S932.26,439.56,931.69,441.32Z"/><path class="cls-26" d="M943.36,443.47a6,6,0,0,0-.81-4.79l-.53-.25c-6.61-2.86-9.76,1.13-10.33,2.89a8.41,8.41,0,0,0,.35,4.9,4.6,4.6,0,0,0,1.44,1.09C938.62,449.89,942.87,445.52,943.36,443.47Z"/><path class="cls-13" d="M920.3,425.48a7.28,7.28,0,0,0,.26,8.71c4,5.49,12,2.68,12-1.2,0-.17,0-.34,0-.5C928.2,430.13,923.42,427.48,920.3,425.48Z"/><path class="cls-26" d="M913.19,420.78a5.42,5.42,0,0,0-.68-2.75,6.49,6.49,0,0,0-1.32-.32c-1.28-.22.73-.31-.5-.62-5.28-1.33-6.86,1.19-7.2,1.66a.24.24,0,0,1-.23.11h-.11a11.17,11.17,0,0,0,0,1.8c.29,2.93,1.89,6,4.94,5.4C910.85,425.53,913.16,423.73,913.19,420.78Z"/><ellipse class="cls-6" cx="906.34" cy="419.75" rx="0.78" ry="0.84"/><path class="cls-28" d="M911,422.33l4.64-2.89a.89.89,0,0,0,0-1.51l-4.14-2.3a.74.74,0,0,0-1.08.64l-.4,5.38A.68.68,0,0,0,911,422.33Z"/><path class="cls-13" d="M918.89,437.08s-2.56,1-2.39,2.89,2.12,6.07,1.71,7.95c-.19.84-2,2.69-1,3.75s3.35-1.21,4-3.71,1-7.7.66-9A3,3,0,0,0,918.89,437.08Z"/><path class="cls-6" d="M283.65,341.31s-11.36,5.47-17.38,15.69c-5,8.53-7.8,32.57.67,38.27,11,7.4,24.51-12.84,24.51-12.84l-2.67-3.32s-9,8.7-14.71,6.65c-4-1.42,0-19.49,0-19.49"/><path class="cls-29" d="M596.5,452.29c-11.16,17.19-18.6,68.77-18.6,68.77"/><path class="cls-5" d="M592.78,452.29s-3,6.78-.87,9.34,7.07-6.69,7.07-6.69Z"/><path class="cls-9" d="M592.09,457.63s-17.77-16.92-4.43-37.61S597,438.46,597,438.46s11-30.19,18.86-25.06-9.4,32.52-9.4,32.52,22.71-13.82,26.62-7.3S605.71,467.32,592.09,457.63Z"/><path class="cls-13" d="M522.73,464s-11.74-12.13-5.19-16.43c8.29-5.45,11.05,12.32,11.05,12.32s.39-13.39,7.7-13.39c4,0,6,8.92-1.51,17.67,0,0,11.47-.8,13,4.91s-5.44,10.63-15.65.63c0,0,8.44,13.07,1.76,15.44-5,1.79-9.62-8.83-8.12-14.91,0,0-9.12,8.13-13.72,5.36C504.65,471.17,515,464,522.73,464Z"/><ellipse class="cls-10" cx="528.84" cy="466.05" rx="3.52" ry="3.75"/><path class="cls-5" d="M572.82,523.07s-13.31,1.72-11.72,21.84S572.82,523.07,572.82,523.07Z"/><path class="cls-6" d="M582.86,485.35s3.71-18.33-6.2-23.05S573,481.39,582.86,485.35Z"/><path class="cls-30" d="M608,426.31s-9,16.72-10.29,22"/><path class="cls-30" d="M590.3,424.52s-3.72,15.87,2.48,23.8"/><path class="cls-30" d="M623.77,443s-2.48,9.26-21.07,11.91"/><path class="cls-13" d="M567,483.16s-9.66-2.81-13.62,4.22a11.69,11.69,0,0,0,.44,12.65s-4.39,2.35-3.95,11.25,12.3,9.38,12.3,9.38,1.32,10.78,9.67,12.18S585.45,523,585.45,523s13.18,4.69,18-6.09-4.53-14.45-4.53-14.45,5.85-12.27,1.45-17.89-13.62-2.35-13.62-2.35-3.11-8.68-11-7.62A10.1,10.1,0,0,0,567,483.16Z"/><path class="cls-3" d="M570.51,496.28s9.22-5.15,11.86-4.21-4.39-5.63-8.35-3.75S570.51,496.28,570.51,496.28Z"/><path class="cls-3" d="M564.8,506.13s6.15,8.9,11.86,7c0,0-4.39,5.15-10.11,2.34S564.8,506.13,564.8,506.13Z"/><path class="cls-3" d="M585,497.69s1.75,8.91-2.64,13.59c0,0,6.59.47,7.47-5.15S588.52,499.1,585,497.69Z"/><ellipse class="cls-6" cx="437.61" cy="234.38" rx="18.91" ry="3.7" transform="translate(61.27 558.12) rotate(-68.88)"/><ellipse class="cls-6" cx="442.34" cy="257.58" rx="18.83" ry="3.9" transform="translate(-59.63 357.79) rotate(-41.5)"/><ellipse class="cls-6" cx="442.51" cy="282.75" rx="19.85" ry="4.29" transform="translate(-65.35 149.19) rotate(-17.84)"/><ellipse class="cls-6" cx="430.69" cy="311.48" rx="20.89" ry="4.41" transform="translate(-99.76 277.75) rotate(-32.24)"/><ellipse class="cls-6" cx="404.39" cy="318.22" rx="21.9" ry="4.21" transform="translate(79.54 717.29) rotate(-89.05)"/><ellipse class="cls-6" cx="430.53" cy="218.72" rx="3.06" ry="15.93"/><ellipse class="cls-6" cx="418.18" cy="244.12" rx="3.76" ry="18.6" transform="translate(-62.14 305.46) rotate(-37.55)"/><ellipse class="cls-6" cx="412.54" cy="267.13" rx="3.81" ry="18.39" transform="translate(-60.5 400.46) rotate(-48.67)"/><ellipse class="cls-6" cx="411.86" cy="285.67" rx="4.32" ry="22.21" transform="translate(-67 137.57) rotate(-17.56)"/><path class="cls-6" d="M393.11,360l.08.08a.65.65,0,0,0,.94-.14c.1-.14,10.05-14.31,19.52-37.72A246.38,246.38,0,0,0,426.49,280a225.22,225.22,0,0,0,4.63-53.46.69.69,0,0,0-.69-.69.71.71,0,0,0-.65.74,223.51,223.51,0,0,1-4.6,53.07,244.33,244.33,0,0,1-12.74,41.94c-7.53,18.62-16,32.65-19.38,37.46A.76.76,0,0,0,393.11,360Z"/><path class="cls-11" d="M593.55,360.38s-2.6-2.61-4.36-1.15-2.68,7.53,1,7,4.28-1.68,4.28-1.68Z"/><path class="cls-31" d="M536.91,489.69s-4.2,0-3,6.39,6,3.2,6,0S539.9,489.69,536.91,489.69Z"/><path class="cls-31" d="M578.23,446.89s-4.19,0-3,6.39,6,3.19,6,0S581.23,446.89,578.23,446.89Z"/><path class="cls-31" d="M547.4,500.84s-3-3.17-6.35,2.25,2.12,6.78,4.23,4.52S549.52,503.09,547.4,500.84Z"/><path class="cls-31" d="M547,527.72s4-1.23,1.23-7-6.58-1.31-5.76,1.76S544.1,528.6,547,527.72Z"/><path class="cls-31" d="M537,508.45s-4-1.23-4.52,5.26,4.93,4.83,5.75,1.76S539.88,509.33,537,508.45Z"/><path class="cls-5" d="M669.87,494.4A119,119,0,0,0,675.11,513a85.29,85.29,0,0,0,10.16,19.62,58.05,58.05,0,0,0,14.83,14.94A32.6,32.6,0,0,0,719,553.44q7.68.59,14.55.58h14.56a68.63,68.63,0,0,0,20.31-3.22q10.42-3.21,15.38-13.76,2.74-6.45,5.49-13.18c1-2.59,2-5.22,3-7.87a156.1,156.1,0,0,1-73.62-19.59C706.06,489.3,685.14,485.54,669.87,494.4Z"/><path class="cls-6" d="M740.34,487.77s-12.64-42.29-25.29-29.12S740.34,487.77,740.34,487.77Z"/><path class="cls-6" d="M745.36,456s9.76-13.54,4-14.87-4,14.87-4,14.87"/><path class="cls-6" d="M697.87,465.5s-4.76-28.59-15.13-23S697.87,465.5,697.87,465.5Z"/><path class="cls-6" d="M673.91,390.74s-4.76-28.59-15.12-23S673.91,390.74,673.91,390.74Z"/><path class="cls-6" d="M870.74,478.29s-3.39-20.37-10.77-16.36S870.74,478.29,870.74,478.29Z"/><path class="cls-6" d="M141.11,430.68c3.21,6.64,1.79,15.78.52,16.48s-7.91-4.11-11.12-10.74-1.79-12.57-.52-13.28S137.9,424.05,141.11,430.68Z"/><path class="cls-6" d="M134.75,462.82c4.66,6.73,5.58,14.93,4.29,15.95s-9.11-3.62-13.76-10.35-1.92-10.06-.63-11.08S130.1,456.09,134.75,462.82Z"/><path class="cls-6" d="M150.1,481.58c-2.95,7.74-8.35,11.58-9.84,10.93s-2.09-7.44.86-15.19,6.57-9.91,8.06-9.27S153.06,473.83,150.1,481.58Z"/><path class="cls-6" d="M156.9,409.83c-2.24,5.59-5.53,8.45-6.6,8s-1.92-5.42.32-11,5.43-6.22,6.51-5.73S159.15,404.24,156.9,409.83Z"/><path class="cls-6" d="M156.9,432.35c-6.07,3.35-11.51,2.43-12.15,1.1s2.56-7,8.62-10.37,8.62-1.14,9.26.18S163,429,156.9,432.35Z"/><path class="cls-6" d="M153.24,459c-6.56,2-12.19,0-12.58-1.47s2.81-6.8,9.37-8.84,11.14.56,11.53,2S159.81,456.93,153.24,459Z"/><path class="cls-6" d="M142.14,508.3l-.07,0a.46.46,0,0,1-.56-.36,148.44,148.44,0,0,1-2.79-29.64,171.65,171.65,0,0,1,2.6-30.55A152.64,152.64,0,0,1,152,412.45a.44.44,0,0,1,.61-.24.51.51,0,0,1,.22.66,152.65,152.65,0,0,0-10.6,35.06,171.38,171.38,0,0,0-2.59,30.36,150.41,150.41,0,0,0,2.77,29.43A.51.51,0,0,1,142.14,508.3Z"/><path class="cls-10" d="M990,73.43c-7.87,9.18-10.78,23.64,12.58,47.92s53.31-8.3,37.74-31.94S1006.52,54.2,990,73.43Z"/><path class="cls-32" d="M1109.79,156.49c-7.87,9.18-10.78,23.64,12.58,47.92s53.31-8.3,37.73-31.94S1126.3,137.26,1109.79,156.49Z"/><path class="cls-10" d="M1114,113.05c-7.87,9.17-10.78,23.64,12.58,47.92s53.31-8.31,37.74-31.95S1130.5,93.82,1114,113.05Z"/><path class="cls-32" d="M1079.85,11.46c-7.88,9.17-10.79,23.64,12.57,47.92s53.31-8.31,37.74-31.95S1096.36-7.77,1079.85,11.46Z"/><path class="cls-32" d="M1193,60c-7.87,9.18-10.78,23.65,12.58,47.92s53.31-8.3,37.74-31.94S1209.56,40.78,1193,60Z"/><path class="cls-10" d="M1124.17-39.66c-7.88,9.18-10.78,23.64,12.57,47.92s53.31-8.3,37.74-31.94S1140.68-58.89,1124.17-39.66Z"/><path class="cls-32" d="M868.42,138.6c-7.88,9.18-10.78,23.64,12.58,47.92s53.3-8.3,37.73-31.94S884.93,119.37,868.42,138.6Z"/><path class="cls-32" d="M985.21-17.93C977.34-8.76,974.43,5.71,997.79,30S1051.1,21.68,1035.52-2,1001.73-37.17,985.21-17.93Z"/><path class="cls-5" d="M956,716.7s-3.75-89.32,59.14-87.4,119.3,87.49,119.3,87.49Z"/><path class="cls-5" d="M1214.82,589.31s-45.73-15-46.33,15.07,46.33,47.15,46.33,47.15Z"/><path class="cls-5" d="M1082.84,559c-2.42,4.64-1.2,10.22,12,23.64s22.76-7.67,9.58-20.45S1084.66,555.53,1082.84,559Z"/><path class="cls-5" d="M933.76,679.9c2.07-3.13,1.6-7.24-6.88-18s-16.89,3.61-8.36,13.88S932.19,682.25,933.76,679.9Z"/><path class="cls-5" d="M936.13,516.93c-1.87,3.59-.92,7.92,9.28,18.31s17.63-5.94,7.42-15.83S937.55,514.23,936.13,516.93Z"/><path class="cls-5" d="M832.69,546.3c-3.78,2.88,6.36,19.26,13.71,26.75s7.63-8.55,1.34-16.76C841.72,548.44,837.37,542.73,832.69,546.3Z"/><path class="cls-5" d="M1139.35,672.81c-3.78,2.88,6.35,19.26,13.71,26.75s7.63-8.56,1.34-16.76C1148.38,675,1144,669.24,1139.35,672.81Z"/><path class="cls-5" d="M1007.69,583.41c4.88-5.43,7.06-15.53-9.16-27-13.49-9.56-25.2,4.27-13.16,20S1004.92,586.49,1007.69,583.41Z"/><path class="cls-5" d="M932.21,608.7c1.71-1.91,4.81-7.94-.9-12-4.75-3.37-11.21,4-7,9.51S931.23,609.78,932.21,608.7Z"/><path class="cls-5" d="M1099.91,648.31c1.72-1.91,4.82-7.93-.9-12-4.75-3.37-11.21,4-7,9.51S1098.93,649.4,1099.91,648.31Z"/><path class="cls-5" d="M1099.91,520.53c1.72-1.92,4.82-7.94-.9-12-4.75-3.36-11.21,4-7,9.51S1098.93,521.61,1099.91,520.53Z"/><path class="cls-5" d="M1153.59,638c-.84-.64-3.36-1.63-4.57,1.13-1,2.29,2.22,4.69,4.1,2.48S1154.07,638.36,1153.59,638Z"/><path class="cls-3" d="M558.1,105l6,8.94,6-8.94h3.83l-7.76,11.73,8.38,12.71h-3.86l-6.58-9.74-6.54,9.74h-3.76l8.34-12.57L554.33,105Z"/><path class="cls-3" d="M575.93,117.24c0-7.16,5.17-12.5,12.2-12.5s12.14,5.31,12.14,12.5-5.17,12.5-12.14,12.5S575.93,124.4,575.93,117.24Zm21.07,0c0-5.41-3.79-9.39-8.87-9.39s-8.93,4-8.93,9.39,3.8,9.39,8.93,9.39S597,122.65,597,117.24Z"/><path class="cls-3" d="M603.71,117.24c0-7.23,5.17-12.5,12.14-12.5a11,11,0,0,1,8.7,3.81l-2.12,2.2a8.25,8.25,0,0,0-6.45-2.9c-5.17,0-9,4-9,9.39s3.83,9.39,9,9.39a8.28,8.28,0,0,0,6.45-2.93l2.12,2.2a11,11,0,0,1-8.73,3.84C608.88,129.74,603.71,124.47,603.71,117.24Z"/><path class="cls-3" d="M644.54,108.06h-7.85v21.4h-3.2v-21.4h-7.82v-3h18.87Z"/><path class="cls-3" d="M665.16,126.42v3H648.54V105H664.7v3H651.81v7.5h11.48v3H651.81v7.89Z"/><path class="cls-3" d="M689,105v24.44h-3.2v-21.4H675.67l-.23,7.15c-.3,9.71-1.7,14.53-6.22,14.53a7.62,7.62,0,0,1-2.06-.28l.23-3.11a3.58,3.58,0,0,0,1.05.14c2.84,0,3.82-3.59,4.09-11.17l.36-10.3Z"/><path class="cls-3" d="M523.45,618.8c0-7.23,5.16-12.5,12.13-12.5a11,11,0,0,1,8.71,3.81l-2.13,2.2a8.25,8.25,0,0,0-6.45-2.9c-5.17,0-9,4-9,9.39s3.82,9.39,9,9.39a8.28,8.28,0,0,0,6.45-2.93l2.13,2.2a11,11,0,0,1-8.74,3.84C528.61,631.3,523.45,626,523.45,618.8Z"/><path class="cls-3" d="M565.42,628v3H548.8V606.58H565v3H552.08v7.5h11.48v3H552.08V628Z"/><path class="cls-3" d="M586.1,624.18c0,4.5-4.41,7.12-9.39,7.12a14.09,14.09,0,0,1-8.67-2.93l1.15-2.59a11.31,11.31,0,0,0,7.13,2.51c3.5,0,6.48-1.64,6.48-4.64,0-2.51-2-3.84-5.37-3.84h-5.1V617h4.88c2.91,0,4.64-1.36,4.64-3.63,0-2.65-2.52-4.15-5.66-4.15a11.89,11.89,0,0,0-6.38,1.95l-1-2.86a14.68,14.68,0,0,1,7.52-2.09c4.78,0,8.87,2.47,8.87,6.73a5.55,5.55,0,0,1-3.64,5.35A5.94,5.94,0,0,1,586.1,624.18Z"/><path class="cls-3" d="M589.67,618.8c0-7.16,5.17-12.5,12.21-12.5S614,611.61,614,618.8s-5.16,12.5-12.13,12.5S589.67,626,589.67,618.8Zm21.07,0c0-5.41-3.79-9.39-8.86-9.39s-8.93,4-8.93,9.39,3.79,9.39,8.93,9.39S610.74,624.21,610.74,618.8Z"/><path class="cls-3" d="M639,606.58V631h-3.28V620.13H622.59V631h-3.27V606.58h3.27v10.51h13.15V606.58Z"/><path class="cls-3" d="M669.05,628v3H652.6v-2.38l9.32-9.6c2.42-2.51,2.88-4,2.88-5.58,0-2.52-1.67-4.05-4.87-4.05a7,7,0,0,0-5.86,2.65L651.85,610a10.24,10.24,0,0,1,8.37-3.7c4.78,0,7.85,2.62,7.85,6.81,0,2.37-.65,4.5-3.76,7.68l-7,7.19Z"/><path class="cls-3" d="M671.64,618.8c0-8,4-12.5,9.36-12.5s9.32,4.54,9.32,12.5-4,12.5-9.32,12.5S671.64,626.76,671.64,618.8Zm15.41,0c0-6.25-2.48-9.39-6-9.39s-6.08,3.14-6.08,9.39,2.48,9.39,6.08,9.39S687.05,625.05,687.05,618.8Z"/><path class="cls-3" d="M700.47,606.58V631h-3.24v-21.4h-5.17v-3Z"/><path class="cls-3" d="M722.52,618.49c0,8.34-4.41,12.81-10.83,12.81a10.55,10.55,0,0,1-5.69-1.43l1.25-2.73a7.62,7.62,0,0,0,4.41,1.15c4.65,0,7.59-3.1,7.59-9.21v-.87a7.46,7.46,0,0,1-6.61,3.21c-4.54,0-7.82-2.9-7.82-7.4,0-4.72,3.54-7.72,8.08-7.72C719.05,606.3,722.52,610.7,722.52,618.49Zm-4-4.65c0-2.51-1.9-4.71-5.46-4.71-3,0-5,1.85-5,4.75s2,4.71,5.2,4.71S718.5,616.53,718.5,613.84Z"/><rect class="cls-1" x="-20.41" width="1239.72" height="716.84"/></g></svg>