<svg id="Layer_1" data-name="Layer 1" xmlns="http://www.w3.org/2000/svg" xmlns:xlink="http://www.w3.org/1999/xlink" viewBox="0 0 1200 1200"><defs><style>.cls-1,.cls-12,.cls-13,.cls-4,.cls-8{fill:none;}.cls-2{clip-path:url(#clip-path);}.cls-3{fill:#fffff3;}.cls-4{stroke:#cc4387;stroke-width:2.06px;}.cls-12,.cls-4,.cls-8{stroke-linecap:round;}.cls-12,.cls-13,.cls-4,.cls-8{stroke-miterlimit:10;}.cls-5{fill:#b7d7f1;}.cls-6{fill:#190c35;}.cls-7{fill:#94bbd6;}.cls-8{stroke:#93bcd8;}.cls-12,.cls-8{stroke-width:1.37px;}.cls-9{fill:#e29e6f;}.cls-10{fill:#efe8df;}.cls-11{fill:#d18959;}.cls-12,.cls-13{stroke:#b7d7f1;}.cls-13{stroke-width:1.02px;}.cls-14{fill:#cc4387;}.cls-15{clip-path:url(#clip-path-2);}.cls-16{clip-path:url(#clip-path-3);}.cls-17{clip-path:url(#clip-path-4);}</style><clipPath id="clip-path"><rect class="cls-1" x="1.34" y="-0.02" width="600.01" height="600.01"/></clipPath><clipPath id="clip-path-2"><rect class="cls-1" x="601.35" y="-0.02" width="600.01" height="600.01"/></clipPath><clipPath id="clip-path-3"><rect class="cls-1" x="1.34" y="599.99" width="600.01" height="600.01"/></clipPath><clipPath id="clip-path-4"><rect class="cls-1" x="601.35" y="599.99" width="600.01" height="600.01"/></clipPath></defs><title>logo</title><g class="cls-2"><rect class="cls-3" x="1.34" y="-0.02" width="600.01" height="600.01"/><polyline class="cls-4" points="16.33 345.35 22.5 378.93 41 378.93"/><path class="cls-5" d="M-81.67,316.56S-83.07,349-5.6,357c69.56,7.19,95.33.94,104.17-40.44,10.63-49.69-5.48-91.83-29.47-93.89S33.81,240.83,36.55,271c0,0-139.56,29.89-135.7,47.29C-97.78,324.44-81.67,316.56-81.67,316.56Z"/><circle class="cls-6" cx="50.6" cy="235.01" r="2.74"/><circle class="cls-6" cx="63.62" cy="242.55" r="2.74"/><path class="cls-7" d="M49.34,252.7c1.45-6-7.36-4.9-11.91-3.94a68.66,68.66,0,0,0-1.28,13.43C39.43,261.51,47.78,259.18,49.34,252.7Z"/><path class="cls-7" d="M-81.67,316.56S-83.07,349-5.6,357c62,6.41,89.22,2.14,100.66-28.18C90.2,339.76,58.6,353.41-6.28,348.77-73.45,344-75.5,313.14-75.5,313.14L-85,306c-9.35,4.4-15,8.64-14.15,12.33C-97.78,324.44-81.67,316.56-81.67,316.56Z"/><path class="cls-7" d="M95.48,327.67c.08-.22.16-.44.23-.66A6.28,6.28,0,0,0,95.48,327.67Z"/><path class="cls-8" d="M70.82,250.07s-6,.85-7.1,5.29a6.82,6.82,0,0,0,2,6.92"/><path class="cls-9" d="M24.39,250.08a15.38,15.38,0,0,0,10.25,6.18c6.79.89,12.5-.44,13.53-3.07S24.39,250.08,24.39,250.08Z"/><polyline class="cls-4" points="-0.8 345.35 12.22 385.1 30.04 385.1"/><path class="cls-10" d="M36.45,269.65c0,.45.06.89.1,1.34,0,0-64.09,13.73-104.21,28,6.17,16.16,23.62,44.11,68.91,32.66C39.7,321.92,41.42,291.9,36.45,269.65Z"/><path class="cls-5" d="M62,214.88c-5.5.5,8,15.46,8,15.46l7.14-1.87S67.5,214.39,62,214.88"/><path class="cls-5" d="M57.9,216.94c-5.5.5,8,15.46,8,15.46l7.14-1.87s-9.66-14.08-15.15-13.59"/><path class="cls-8" d="M65.68,224a10.54,10.54,0,0,1-4.12-5.48"/><path class="cls-8" d="M62.94,228.84a10.54,10.54,0,0,1-4.12-5.48"/><path class="cls-11" d="M24.39,250.08a14.74,14.74,0,0,0,3.46,3.43l.6,0c4.33.2,9.4,2,13.36,2.82,3.33-.42,5.73-1.54,6.36-3.16C49.21,250.56,24.39,250.08,24.39,250.08Z"/><path class="cls-9" d="M49.8,251.33c.18-1.36-.22-4.73-6-7-5.25-2.08-18.25-3.09-23.67,6.57-2,3.59,3.53-.4,9.69-.11C38.07,251.18,49,257.41,49.8,251.33Z"/><path class="cls-12" d="M10.42,314.5s6.75,2.05,12.29-4.77"/><path class="cls-12" d="M15.66,280.35s6.22,3.32,13-2.27"/><polyline class="cls-4" points="616.34 345.35 622.51 378.93 641.01 378.93"/><path class="cls-5" d="M518.34,316.56S516.94,349,594.41,357c69.56,7.19,95.33.94,104.17-40.44,10.63-49.69-5.48-91.83-29.47-93.89S633.82,240.83,636.56,271c0,0-139.56,29.89-135.7,47.29C502.23,324.44,518.34,316.56,518.34,316.56Z"/><circle class="cls-6" cx="650.61" cy="235.01" r="2.74"/><circle class="cls-6" cx="663.63" cy="242.55" r="2.74"/><path class="cls-7" d="M649.35,252.7c1.45-6-7.36-4.9-11.91-3.94a68.66,68.66,0,0,0-1.28,13.43C639.44,261.51,647.79,259.18,649.35,252.7Z"/><path class="cls-7" d="M518.34,316.56S516.94,349,594.41,357c62,6.41,89.22,2.14,100.66-28.18-4.86,10.94-36.46,24.59-101.34,19.95-67.17-4.79-69.22-35.63-69.22-35.63L515,306c-9.35,4.4-15,8.64-14.15,12.33C502.23,324.44,518.34,316.56,518.34,316.56Z"/><path class="cls-7" d="M695.49,327.67c.08-.22.16-.44.23-.66A6.28,6.28,0,0,0,695.49,327.67Z"/><path class="cls-8" d="M670.83,250.07s-6,.85-7.1,5.29a6.82,6.82,0,0,0,1.95,6.92"/><path class="cls-9" d="M624.4,250.08a15.38,15.38,0,0,0,10.25,6.18c6.79.89,12.5-.44,13.53-3.07S624.4,250.08,624.4,250.08Z"/><polyline class="cls-4" points="599.21 345.35 612.23 385.1 630.05 385.1"/><path class="cls-6" d="M582.45,286.06c-5.35.65-10.26,1.16-15.36,3a32.19,32.19,0,0,0-6.43,3.55,23.66,23.66,0,0,1-7,2.74,72.14,72.14,0,0,0-15.44,5.9,3.34,3.34,0,0,1-4.42-1.06,3,3,0,0,1-1.2-1.3c-19.18,6.81-32.94,13.74-31.69,19.37,1.37,6.16,17.48-1.72,17.48-1.72,22.49,19.28,55.13-11.56,74.23-34A25,25,0,0,1,582.45,286.06Z"/><path class="cls-10" d="M636.46,269.65c0,.45.06.89.1,1.34,0,0-64.09,13.73-104.21,28,6.17,16.16,23.62,44.11,68.91,32.66C639.71,321.92,641.43,291.9,636.46,269.65Z"/><path class="cls-5" d="M662,214.88c-5.5.5,8,15.46,8,15.46l7.14-1.87s-9.66-14.08-15.15-13.59"/><path class="cls-5" d="M657.91,216.94c-5.5.5,8,15.46,8,15.46l7.14-1.87s-9.66-14.08-15.15-13.59"/><path class="cls-8" d="M665.69,224a10.54,10.54,0,0,1-4.12-5.48"/><path class="cls-8" d="M663,228.84a10.54,10.54,0,0,1-4.12-5.48"/><path class="cls-11" d="M624.4,250.08a14.74,14.74,0,0,0,3.46,3.43l.6,0c4.33.2,9.4,2,13.36,2.82,3.33-.42,5.73-1.54,6.36-3.16C649.22,250.56,624.4,250.08,624.4,250.08Z"/><path class="cls-9" d="M649.81,251.33c.18-1.36-.22-4.73-6-7-5.25-2.08-18.25-3.09-23.67,6.57-2,3.59,3.53-.4,9.69-.11C638.08,251.18,649,257.41,649.81,251.33Z"/><path class="cls-12" d="M610.43,314.5s6.75,2.05,12.29-4.77"/><path class="cls-12" d="M585.56,323.92s6.41,2.94,12.82-3.06"/><path class="cls-12" d="M555.49,310s6.62,2.47,12.57-4"/><path class="cls-12" d="M615.67,280.35s6.22,3.32,13-2.27"/><path class="cls-4" d="M364.78,67.28s16.73,13.77,34.14,11.1c0,0,3.64,14.06,8.14,17.88"/><path class="cls-10" d="M284.18-9c-22.49-9.32-68-39-83.56-44.63-22-8-44.59-12.44-51.35-11.27-4.91.86-5.05,4.26-4.08,12.54,1.43,12.27,15.31,41.85,39.43,50.89C206.2,6.6,221.17,4.7,231.12,9.93,241.56,15.42,295.58-4.29,284.18-9Z"/><path class="cls-5" d="M224.15,29.92c-3.37-15.41,1.37-32.23,22.51-38.68,29.76-9.08,35,1.57,89.28-10.62,9.74-2.19,20.44-8.37,26.16-3.16C394.82,7.27,413.16-4.46,420.65-4.17c9.81.39,21.17-2.28,22.58,5.82C444.87,11.11,424.84,16,424.84,16c1.05,22.08-10.27,56.77-45.11,60.69C334,81.81,296.86,49.93,271,47.52,237.09,44.37,227,42.8,224.15,29.92Z"/><path class="cls-7" d="M442.92,4.93c-7.87,2.45-19.72,1.59-19.72,1.59S419.25,60.2,374.92,65c-42.34,4.56-54.34-17.92-104.15-23-17.7-1.79-21.4.93-40.63-5.64-2.06-.71-6-6.32-6-6.32C227,42.8,237.2,44.38,271,47.52c25.83,2.41,63,34.29,108.7,29.14,34.84-3.92,46.16-38.61,45.11-60.69C424.84,16,440.24,12.23,442.92,4.93Z"/><path class="cls-6" d="M443.23,1.65c-1.41-8.1-12.77-5.43-22.58-5.82-9.13-.36-28-13.22-84.71-15.21-10.67-.38-19,3.83-26.34,4.79,0,0,1.55,7.66,3.11,9.67C328.85,15.93,399.17,52.42,424.84,16,424.84,16,444.87,11.11,443.23,1.65Z"/><path class="cls-7" d="M236.54,28.69c-1-6.29-10.11-.24-12.8,1a18.05,18.05,0,0,0,1.5,3.85l1,1.53A20.54,20.54,0,0,0,232.43,40C234.24,38.26,237.2,32.93,236.54,28.69Z"/><path class="cls-7" d="M294.57-13.19S311,13.46,344.35,9.07,457.79-62.78,458-85.77c.18-22.1-75.32-9.19-114.68,36.59C315.13-16.42,294.57-13.19,294.57-13.19Z"/><path class="cls-4" d="M372.26,60.82s25.15,9.11,41.32,2.13c0,0,7.07,12.68,12.39,15.24"/><path class="cls-9" d="M211.89,34.82s3.79,2.44,11.69,2.55c8.55.11,11.69-4.44,11.83-7.27S211.89,34.82,211.89,34.82Z"/><path class="cls-11" d="M217.19,36.69c4-1.95,10.15-1.95,15.56-1.95a6.68,6.68,0,0,0,2.66-4.64.44.44,0,0,0-.06-.23c-1.27-2.13-23.46,4.95-23.46,4.95A17.42,17.42,0,0,0,217.19,36.69Z"/><path class="cls-9" d="M236.34,27.82c-.26-1.35-1.73-4.41-7.93-4.7-5.64-.27-18.28,3-20.29,13.85-.74,4.05,3.22-1.52,9.14-3.23C225.19,31.45,237.55,33.83,236.34,27.82Z"/><circle class="cls-6" cx="229.04" cy="15.32" r="2.74"/><circle class="cls-6" cx="242.67" cy="17.59" r="2.74"/><path class="cls-8" d="M252.86,22.19s-5.73,1.85-6.1,6.42a6.82,6.82,0,0,0,3.11,6.49"/><path class="cls-5" d="M243.75-13.92C249.26-14.21,238,2.52,238,2.52l-7.34-.83s7.55-15.31,13.06-15.61"/><path class="cls-5" d="M248.11-12.47C253.62-12.76,242.39,4,242.39,4l-7.33-.83s7.54-15.32,13.05-15.61"/><path class="cls-4" d="M364.78,667.29s16.73,13.77,34.14,11.1c0,0,3.64,14.06,8.14,17.88"/><path class="cls-10" d="M284.18,591c-22.49-9.32-68-39-83.56-44.63-22-8-44.59-12.44-51.35-11.27-4.91.86-5.05,4.26-4.08,12.54,1.43,12.27,15.31,41.85,39.43,50.89,21.58,8.08,36.55,6.18,46.5,11.41C241.56,615.43,295.58,595.72,284.18,591Z"/><path class="cls-5" d="M224.15,629.93c-3.37-15.41,1.37-32.23,22.51-38.68,29.76-9.08,35,1.57,89.28-10.62,9.74-2.19,20.44-8.37,26.16-3.16,32.72,29.81,51.06,18.08,58.55,18.37,9.81.39,21.17-2.28,22.58,5.82,1.64,9.46-18.39,14.32-18.39,14.32,1.05,22.08-10.27,56.77-45.11,60.69C334,681.82,296.86,649.94,271,647.53,237.09,644.38,227,642.81,224.15,629.93Z"/><path class="cls-7" d="M442.92,604.94c-7.87,2.45-19.72,1.59-19.72,1.59s-3.95,53.68-48.28,58.46c-42.34,4.56-54.34-17.92-104.15-23-17.7-1.79-21.4.94-40.63-5.64-2.06-.71-6-6.32-6-6.32,2.85,12.76,13,14.34,46.85,17.48,25.83,2.41,63,34.29,108.7,29.14,34.84-3.92,46.16-38.61,45.11-60.69C424.84,616,440.24,612.24,442.92,604.94Z"/><path class="cls-6" d="M443.23,601.66c-1.41-8.1-12.77-5.43-22.58-5.82-9.13-.36-28-13.22-84.71-15.21-10.67-.38-19,3.83-26.34,4.79,0,0,1.55,7.66,3.11,9.67,16.14,20.85,86.46,57.34,112.13,20.89C424.84,616,444.87,611.12,443.23,601.66Z"/><path class="cls-7" d="M236.54,628.7c-1-6.29-10.11-.24-12.8,1a18.05,18.05,0,0,0,1.5,3.85l1,1.53a20.54,20.54,0,0,0,6.23,4.91C234.24,638.27,237.2,632.94,236.54,628.7Z"/><path class="cls-7" d="M294.57,586.82s16.46,26.65,49.78,22.26S457.79,537.23,458,514.24c.18-22.1-75.32-9.19-114.68,36.59C315.13,583.59,294.57,586.82,294.57,586.82Z"/><path class="cls-10" d="M343.29,550.83c-28.16,32.76-48.72,36-48.72,36l.43.64c1.88,1.74,12.25,4,27.9-1.79,17.65-6.54,44.49-36.24,64.69-48.09S439,509.19,458,514.24C458.15,492.14,382.65,505.05,343.29,550.83Z"/><path class="cls-4" d="M372.26,660.83s25.15,9.11,41.32,2.13c0,0,7.07,12.68,12.39,15.24"/><path class="cls-9" d="M211.89,634.83s3.79,2.44,11.69,2.55c8.55.11,11.69-4.44,11.83-7.27S211.89,634.83,211.89,634.83Z"/><path class="cls-11" d="M217.19,636.7c4-2,10.15-2,15.56-2a6.68,6.68,0,0,0,2.66-4.64.44.44,0,0,0-.06-.23c-1.27-2.13-23.46,5-23.46,5A17.42,17.42,0,0,0,217.19,636.7Z"/><path class="cls-9" d="M236.34,627.83c-.26-1.35-1.73-4.41-7.93-4.7-5.64-.27-18.28,3-20.29,13.85-.74,4,3.22-1.52,9.14-3.23C225.19,631.46,237.55,633.84,236.34,627.83Z"/><circle class="cls-6" cx="229.04" cy="615.33" r="2.74"/><circle class="cls-6" cx="242.67" cy="617.6" r="2.74"/><path class="cls-8" d="M252.86,622.2s-5.73,1.85-6.1,6.42a6.82,6.82,0,0,0,3.11,6.49"/><path class="cls-5" d="M243.75,586.09c5.51-.29-5.72,16.44-5.72,16.44l-7.34-.83s7.55-15.31,13.06-15.61"/><path class="cls-5" d="M248.11,587.54c5.51-.29-5.72,16.44-5.72,16.44l-7.33-.83s7.54-15.32,13.05-15.61"/><path class="cls-8" d="M241.43,595.68s2.32-1.74,3.28-6"/><path class="cls-8" d="M247,597.44a16.64,16.64,0,0,0,2.63-6.47"/><path class="cls-12" d="M155,540s1.68,6.86,10.36,8.15"/><path class="cls-12" d="M176.28,583.21s1.68,6.85,10.36,8.15"/><path class="cls-12" d="M192.22,589.14s3.84,5.92,12.47,4.3"/><path class="cls-12" d="M208.31,557.66s3.17,6.31,11.92,5.64"/><path class="cls-12" d="M327.78,572.75s7.05,0,10.37-8.14"/><path class="cls-12" d="M429.49,509s6,3.76,13.12-1.33"/><path class="cls-12" d="M409.53,517.73s7,1.07,11.49-6.46"/><path class="cls-12" d="M224.76,583s3.17,6.3,11.92,5.63"/><path class="cls-10" d="M359.2,225.6c-3.81-2.72-45.56,14.87-83.57,59.61-31.39,37-39,76.81-35.12,80.11s48.12-20.51,77-54.55C356.38,265.06,363.37,228.58,359.2,225.6Z"/><path class="cls-13" d="M251.74,343.89s-26.29,21.75-7.17,38c22.37,19,43.75-29.35,59.13-26.24,13.8,2.8,2.1,25.79-9.58,15.87-9.4-8,1.62-32.12,29.1-35.56s33.26-21.42,33.26-21.42"/><path class="cls-9" d="M264.19,337.44s-14.55-4.55-25.44,6.3c-6,6-5.91,8.93-5.59,9.2,1,.83,7.36-5.42,11-5.72,4.79-.39,8.73,3.51,8.73,3.51Z"/><rect class="cls-9" x="352.62" y="311.1" width="8.08" height="3.83" rx="1.38" transform="matrix(0.96, 0.27, -0.27, 0.96, 98.72, -85.3)"/><path class="cls-14" d="M293.71,266.07q-5.13,4.88-10.3,10.41L292,304.7l27.53,3.69q5-6,9.26-11.76L301.92,293Z"/><path class="cls-14" d="M312.08,250.24c-3.51,2.72-7.11,5.68-10.76,8.88l7.76,25.48,25.82,3.46c2.82-4.13,5.35-8.13,7.63-12L319,272.93Z"/><path class="cls-14" d="M300.57,328.24c4-3.63,7.88-7.46,11.61-11.45l-27.33-3.66-8.69-28.53-.53.61c-3.32,3.91-6.37,7.85-9.17,11.77l8.47,27.82Z"/><path class="cls-9" d="M240.12,364.79a1.49,1.49,0,0,0,.39.53,1.31,1.31,0,0,0,.62.26L359.62,226.09a1.47,1.47,0,0,0-.42-.49,1.59,1.59,0,0,0-.65-.23Z"/><rect class="cls-1" x="1.34" y="-0.02" width="600.01" height="600.01"/></g><g class="cls-15"><rect class="cls-3" x="601.35" y="-0.02" width="600.01" height="600.01"/><polyline class="cls-4" points="616.34 345.35 622.51 378.93 641.01 378.93"/><path class="cls-5" d="M518.34,316.56S516.94,349,594.41,357c69.56,7.19,95.33.94,104.17-40.44,10.63-49.69-5.48-91.83-29.47-93.89S633.82,240.83,636.56,271c0,0-139.56,29.89-135.7,47.29C502.23,324.44,518.34,316.56,518.34,316.56Z"/><circle class="cls-6" cx="650.61" cy="235.01" r="2.74"/><circle class="cls-6" cx="663.63" cy="242.55" r="2.74"/><path class="cls-7" d="M649.35,252.7c1.45-6-7.36-4.9-11.91-3.94a68.66,68.66,0,0,0-1.28,13.43C639.44,261.51,647.79,259.18,649.35,252.7Z"/><path class="cls-7" d="M518.34,316.56S516.94,349,594.41,357c62,6.41,89.22,2.14,100.66-28.18-4.86,10.94-36.46,24.59-101.34,19.95-67.17-4.79-69.22-35.63-69.22-35.63L515,306c-9.35,4.4-15,8.64-14.15,12.33C502.23,324.44,518.34,316.56,518.34,316.56Z"/><path class="cls-7" d="M695.49,327.67c.08-.22.16-.44.23-.66A6.28,6.28,0,0,0,695.49,327.67Z"/><path class="cls-8" d="M670.83,250.07s-6,.85-7.1,5.29a6.82,6.82,0,0,0,1.95,6.92"/><path class="cls-9" d="M624.4,250.08a15.38,15.38,0,0,0,10.25,6.18c6.79.89,12.5-.44,13.53-3.07S624.4,250.08,624.4,250.08Z"/><polyline class="cls-4" points="599.21 345.35 612.23 385.1 630.05 385.1"/><path class="cls-6" d="M582.45,286.06c-5.35.65-10.26,1.16-15.36,3a32.19,32.19,0,0,0-6.43,3.55,23.66,23.66,0,0,1-7,2.74,72.14,72.14,0,0,0-15.44,5.9,3.34,3.34,0,0,1-4.42-1.06,3,3,0,0,1-1.2-1.3c-19.18,6.81-32.94,13.74-31.69,19.37,1.37,6.16,17.48-1.72,17.48-1.72,22.49,19.28,55.13-11.56,74.23-34A25,25,0,0,1,582.45,286.06Z"/><path class="cls-10" d="M636.46,269.65c0,.45.06.89.1,1.34,0,0-64.09,13.73-104.21,28,6.17,16.16,23.62,44.11,68.91,32.66C639.71,321.92,641.43,291.9,636.46,269.65Z"/><path class="cls-5" d="M662,214.88c-5.5.5,8,15.46,8,15.46l7.14-1.87s-9.66-14.08-15.15-13.59"/><path class="cls-5" d="M657.91,216.94c-5.5.5,8,15.46,8,15.46l7.14-1.87s-9.66-14.08-15.15-13.59"/><path class="cls-8" d="M665.69,224a10.54,10.54,0,0,1-4.12-5.48"/><path class="cls-8" d="M663,228.84a10.54,10.54,0,0,1-4.12-5.48"/><path class="cls-11" d="M624.4,250.08a14.74,14.74,0,0,0,3.46,3.43l.6,0c4.33.2,9.4,2,13.36,2.82,3.33-.42,5.73-1.54,6.36-3.16C649.22,250.56,624.4,250.08,624.4,250.08Z"/><path class="cls-9" d="M649.81,251.33c.18-1.36-.22-4.73-6-7-5.25-2.08-18.25-3.09-23.67,6.57-2,3.59,3.53-.4,9.69-.11C638.08,251.18,649,257.41,649.81,251.33Z"/><path class="cls-12" d="M610.43,314.5s6.75,2.05,12.29-4.77"/><path class="cls-12" d="M585.56,323.92s6.41,2.94,12.82-3.06"/><path class="cls-12" d="M555.49,310s6.62,2.47,12.57-4"/><path class="cls-12" d="M615.67,280.35s6.22,3.32,13-2.27"/><path class="cls-5" d="M1118.35,316.56S1117,349,1194.42,357c69.56,7.19,95.33.94,104.17-40.44,10.63-49.69-5.48-91.83-29.47-93.89s-35.29,18.16-32.55,48.32c0,0-139.56,29.89-135.7,47.29C1102.24,324.44,1118.35,316.56,1118.35,316.56Z"/><path class="cls-7" d="M1118.35,316.56S1117,349,1194.42,357c62,6.41,89.22,2.14,100.66-28.18-4.86,10.94-36.46,24.59-101.34,19.95-67.17-4.79-69.22-35.63-69.22-35.63L1115,306c-9.35,4.4-15,8.64-14.15,12.33C1102.24,324.44,1118.35,316.56,1118.35,316.56Z"/><polyline class="cls-4" points="1199.22 345.35 1212.24 385.1 1230.06 385.1"/><path class="cls-6" d="M1182.46,286.06c-5.35.65-10.26,1.16-15.36,3a32.19,32.19,0,0,0-6.43,3.55,23.66,23.66,0,0,1-7.05,2.74,72.14,72.14,0,0,0-15.44,5.9,3.34,3.34,0,0,1-4.42-1.06,3,3,0,0,1-1.2-1.3c-19.18,6.81-32.94,13.74-31.69,19.37,1.37,6.16,17.48-1.72,17.48-1.72,22.49,19.28,55.13-11.56,74.23-34A25,25,0,0,1,1182.46,286.06Z"/><path class="cls-10" d="M1236.47,269.65c0,.45.06.89.1,1.34,0,0-64.09,13.73-104.21,28,6.17,16.16,23.62,44.11,68.91,32.66C1239.72,321.92,1241.44,291.9,1236.47,269.65Z"/><path class="cls-12" d="M1185.57,323.92s6.41,2.94,12.82-3.06"/><path class="cls-12" d="M1155.51,310s6.61,2.47,12.56-4"/><path class="cls-4" d="M964.79,67.28s16.73,13.77,34.14,11.1c0,0,3.64,14.06,8.14,17.88"/><path class="cls-10" d="M884.19-9c-22.49-9.32-68-39-83.56-44.63-22-8-44.59-12.44-51.34-11.27-4.92.86-5.06,4.26-4.09,12.54,1.43,12.27,15.31,41.85,39.43,50.89,21.58,8.08,36.55,6.18,46.5,11.41C841.57,15.42,895.59-4.29,884.19-9Z"/><path class="cls-5" d="M824.16,29.92c-3.37-15.41,1.37-32.23,22.51-38.68,29.76-9.08,35.05,1.57,89.28-10.62,9.74-2.19,20.44-8.37,26.16-3.16,32.72,29.81,51.06,18.08,58.55,18.37,9.81.39,21.17-2.28,22.58,5.82,1.64,9.46-18.39,14.32-18.39,14.32,1.05,22.08-10.27,56.77-45.11,60.69C934,81.81,896.87,49.93,871,47.52,837.1,44.37,827,42.8,824.16,29.92Z"/><path class="cls-7" d="M1042.93,4.93c-7.87,2.45-19.72,1.59-19.72,1.59s-4,53.68-48.28,58.46c-42.34,4.56-54.34-17.92-104.15-23-17.7-1.79-21.4.93-40.63-5.64-2-.71-6-6.32-6-6.32C827,42.8,837.21,44.38,871,47.52c25.83,2.41,63,34.29,108.7,29.14,34.84-3.92,46.16-38.61,45.11-60.69C1024.85,16,1040.25,12.23,1042.93,4.93Z"/><path class="cls-6" d="M1043.24,1.65c-1.41-8.1-12.77-5.43-22.58-5.82-9.13-.36-28-13.22-84.71-15.21-10.67-.38-19,3.83-26.34,4.79,0,0,1.56,7.66,3.11,9.67C928.86,15.93,999.18,52.42,1024.85,16,1024.85,16,1044.88,11.11,1043.24,1.65Z"/><path class="cls-7" d="M836.55,28.69c-1-6.29-10.11-.24-12.8,1a18.05,18.05,0,0,0,1.5,3.85l1,1.53A20.54,20.54,0,0,0,832.44,40C834.25,38.26,837.21,32.93,836.55,28.69Z"/><path class="cls-7" d="M894.58-13.19S911,13.46,944.36,9.07,1057.8-62.78,1058-85.77c.18-22.1-75.32-9.19-114.68,36.59C915.14-16.42,894.58-13.19,894.58-13.19Z"/><path class="cls-4" d="M972.27,60.82s25.15,9.11,41.32,2.13c0,0,7.07,12.68,12.39,15.24"/><path class="cls-9" d="M811.9,34.82s3.79,2.44,11.69,2.55c8.55.11,11.69-4.44,11.83-7.27S811.9,34.82,811.9,34.82Z"/><path class="cls-11" d="M817.2,36.69c4-1.95,10.15-1.95,15.56-1.95a6.68,6.68,0,0,0,2.66-4.64.44.44,0,0,0-.06-.23c-1.27-2.13-23.46,4.95-23.46,4.95A17.42,17.42,0,0,0,817.2,36.69Z"/><path class="cls-9" d="M836.35,27.82c-.26-1.35-1.73-4.41-7.93-4.7-5.64-.27-18.28,3-20.29,13.85-.74,4.05,3.22-1.52,9.14-3.23C825.2,31.45,837.56,33.83,836.35,27.82Z"/><circle class="cls-6" cx="829.05" cy="15.32" r="2.74"/><circle class="cls-6" cx="842.68" cy="17.59" r="2.74"/><path class="cls-8" d="M852.87,22.19s-5.73,1.85-6.09,6.42a6.8,6.8,0,0,0,3.1,6.49"/><path class="cls-5" d="M843.76-13.92C849.27-14.21,838,2.52,838,2.52l-7.33-.83s7.54-15.31,13-15.61"/><path class="cls-5" d="M848.12-12.47C853.63-12.76,842.4,4,842.4,4l-7.33-.83s7.54-15.32,13-15.61"/><path class="cls-4" d="M964.79,667.29s16.73,13.77,34.14,11.1c0,0,3.64,14.06,8.14,17.88"/><path class="cls-10" d="M884.19,591c-22.49-9.32-68-39-83.56-44.63-22-8-44.59-12.44-51.34-11.27-4.92.86-5.06,4.26-4.09,12.54,1.43,12.27,15.31,41.85,39.43,50.89,21.58,8.08,36.55,6.18,46.5,11.41C841.57,615.43,895.59,595.72,884.19,591Z"/><path class="cls-5" d="M824.16,629.93c-3.37-15.41,1.37-32.23,22.51-38.68,29.76-9.08,35.05,1.57,89.28-10.62,9.74-2.19,20.44-8.37,26.16-3.16,32.72,29.81,51.06,18.08,58.55,18.37,9.81.39,21.17-2.28,22.58,5.82,1.64,9.46-18.39,14.32-18.39,14.32,1.05,22.08-10.27,56.77-45.11,60.69C934,681.82,896.87,649.94,871,647.53,837.1,644.38,827,642.81,824.16,629.93Z"/><path class="cls-7" d="M1042.93,604.94c-7.87,2.45-19.72,1.59-19.72,1.59s-4,53.68-48.28,58.46c-42.34,4.56-54.34-17.92-104.15-23-17.7-1.79-21.4.94-40.63-5.64-2-.71-6-6.32-6-6.32,2.85,12.76,13,14.34,46.85,17.48,25.83,2.41,63,34.29,108.7,29.14,34.84-3.92,46.16-38.61,45.11-60.69C1024.85,616,1040.25,612.24,1042.93,604.94Z"/><path class="cls-6" d="M1043.24,601.66c-1.41-8.1-12.77-5.43-22.58-5.82-9.13-.36-28-13.22-84.71-15.21-10.67-.38-19,3.83-26.34,4.79,0,0,1.56,7.66,3.11,9.67,16.14,20.85,86.46,57.34,112.13,20.89C1024.85,616,1044.88,611.12,1043.24,601.66Z"/><path class="cls-7" d="M836.55,628.7c-1-6.29-10.11-.24-12.8,1a18.05,18.05,0,0,0,1.5,3.85l1,1.53a20.54,20.54,0,0,0,6.23,4.91C834.25,638.27,837.21,632.94,836.55,628.7Z"/><path class="cls-7" d="M894.58,586.82s16.46,26.65,49.78,22.26S1057.8,537.23,1058,514.24c.18-22.1-75.32-9.19-114.68,36.59C915.14,583.59,894.58,586.82,894.58,586.82Z"/><path class="cls-10" d="M943.3,550.83c-28.16,32.76-48.72,36-48.72,36l.43.64c1.88,1.74,12.25,4,27.9-1.79,17.65-6.54,44.49-36.24,64.69-48.09S1039,509.19,1058,514.24C1058.16,492.14,982.66,505.05,943.3,550.83Z"/><path class="cls-4" d="M972.27,660.83s25.15,9.11,41.32,2.13c0,0,7.07,12.68,12.39,15.24"/><path class="cls-9" d="M811.9,634.83s3.79,2.44,11.69,2.55c8.55.11,11.69-4.44,11.83-7.27S811.9,634.83,811.9,634.83Z"/><path class="cls-11" d="M817.2,636.7c4-2,10.15-2,15.56-2a6.68,6.68,0,0,0,2.66-4.64.44.44,0,0,0-.06-.23c-1.27-2.13-23.46,5-23.46,5A17.42,17.42,0,0,0,817.2,636.7Z"/><path class="cls-9" d="M836.35,627.83c-.26-1.35-1.73-4.41-7.93-4.7-5.64-.27-18.28,3-20.29,13.85-.74,4,3.22-1.52,9.14-3.23C825.2,631.46,837.56,633.84,836.35,627.83Z"/><circle class="cls-6" cx="829.05" cy="615.33" r="2.74"/><circle class="cls-6" cx="842.68" cy="617.6" r="2.74"/><path class="cls-8" d="M852.87,622.2s-5.73,1.85-6.09,6.42a6.8,6.8,0,0,0,3.1,6.49"/><path class="cls-5" d="M843.76,586.09c5.51-.29-5.72,16.44-5.72,16.44l-7.33-.83s7.54-15.31,13-15.61"/><path class="cls-5" d="M848.12,587.54c5.51-.29-5.72,16.44-5.72,16.44l-7.33-.83s7.54-15.32,13-15.61"/><path class="cls-8" d="M841.44,595.68s2.32-1.74,3.28-6"/><path class="cls-8" d="M847.05,597.44a16.64,16.64,0,0,0,2.63-6.47"/><path class="cls-12" d="M755.05,540s1.68,6.86,10.36,8.15"/><path class="cls-12" d="M776.29,583.21s1.68,6.85,10.36,8.15"/><path class="cls-12" d="M792.23,589.14s3.84,5.92,12.47,4.3"/><path class="cls-12" d="M808.32,557.66s3.17,6.31,11.92,5.64"/><path class="cls-12" d="M927.79,572.75s7.05,0,10.37-8.14"/><path class="cls-12" d="M1029.5,509s6,3.76,13.12-1.33"/><path class="cls-12" d="M1009.54,517.73s7,1.07,11.49-6.46"/><path class="cls-12" d="M824.77,583s3.17,6.3,11.92,5.63"/><path class="cls-10" d="M959.21,225.6c-3.81-2.72-45.56,14.87-83.57,59.61-31.39,37-39,76.81-35.12,80.11s48.12-20.51,77-54.55C956.39,265.06,963.38,228.58,959.21,225.6Z"/><path class="cls-13" d="M851.75,343.89s-26.29,21.75-7.17,38c22.37,19,43.75-29.35,59.13-26.24,13.8,2.8,2.1,25.79-9.57,15.87-9.41-8,1.61-32.12,29.09-35.56s33.26-21.42,33.26-21.42"/><path class="cls-9" d="M864.2,337.44s-14.55-4.55-25.44,6.3c-6,6-5.91,8.93-5.59,9.2,1,.83,7.36-5.42,11-5.72,4.79-.39,8.73,3.51,8.73,3.51Z"/><rect class="cls-9" x="952.63" y="311.1" width="8.08" height="3.83" rx="1.38" transform="translate(121.4 -248.69) rotate(15.8)"/><path class="cls-14" d="M893.72,266.07q-5.13,4.88-10.3,10.41L892,304.7l27.53,3.69q5-6,9.26-11.76L901.93,293Z"/><path class="cls-14" d="M912.09,250.24c-3.51,2.72-7.11,5.68-10.76,8.88l7.76,25.48,25.83,3.46q4.22-6.19,7.62-12L919,272.93Z"/><path class="cls-14" d="M900.58,328.24c4-3.63,7.88-7.46,11.61-11.45l-27.33-3.66-8.69-28.53-.53.61c-3.32,3.91-6.37,7.85-9.17,11.77l8.47,27.82Z"/><path class="cls-9" d="M840.13,364.79a1.62,1.62,0,0,0,.39.53,1.31,1.31,0,0,0,.62.26L959.63,226.09a1.47,1.47,0,0,0-.42-.49,1.59,1.59,0,0,0-.65-.23Z"/><rect class="cls-1" x="601.35" y="-0.02" width="600.01" height="600.01"/></g><g class="cls-16"><rect class="cls-3" x="1.34" y="599.99" width="600.01" height="600.01"/><polyline class="cls-4" points="16.33 945.36 22.5 978.94 41 978.94"/><path class="cls-5" d="M-81.67,916.57S-83.07,949-5.6,957C64,964.2,89.73,958,98.57,916.57c10.63-49.68-5.48-91.83-29.47-93.89S33.81,840.84,36.55,871c0,0-139.56,29.89-135.7,47.29C-97.78,924.45-81.67,916.57-81.67,916.57Z"/><circle class="cls-6" cx="50.6" cy="835.02" r="2.74"/><circle class="cls-6" cx="63.62" cy="842.56" r="2.74"/><path class="cls-7" d="M49.34,852.71c1.45-6.05-7.36-4.9-11.91-3.93a68.48,68.48,0,0,0-1.28,13.42C39.43,861.52,47.78,859.19,49.34,852.71Z"/><path class="cls-7" d="M-81.67,916.57S-83.07,949-5.6,957c62,6.41,89.22,2.14,100.66-28.18C90.2,939.77,58.6,953.42-6.28,948.78-73.45,944-75.5,913.15-75.5,913.15L-85,906c-9.35,4.4-15,8.64-14.15,12.33C-97.78,924.45-81.67,916.57-81.67,916.57Z"/><path class="cls-7" d="M95.48,927.68c.08-.22.16-.44.23-.66A6.28,6.28,0,0,0,95.48,927.68Z"/><path class="cls-8" d="M70.82,850.09s-6,.84-7.1,5.28a6.82,6.82,0,0,0,2,6.92"/><path class="cls-9" d="M24.39,850.09a15.38,15.38,0,0,0,10.25,6.18c6.79.89,12.5-.44,13.53-3.07S24.39,850.09,24.39,850.09Z"/><polyline class="cls-4" points="-0.8 945.36 12.22 985.11 30.04 985.11"/><path class="cls-10" d="M36.45,869.66c0,.45.06.89.1,1.34,0,0-64.09,13.73-104.21,28C-61.49,915.15-44,943.1,1.25,931.65,39.7,921.93,41.42,891.91,36.45,869.66Z"/><path class="cls-5" d="M62,814.9c-5.5.49,8,15.45,8,15.45l7.14-1.87S67.5,814.4,62,814.9"/><path class="cls-5" d="M57.9,817c-5.5.5,8,15.46,8,15.46l7.14-1.87S63.39,816.46,57.9,817"/><path class="cls-8" d="M65.68,824.05a10.54,10.54,0,0,1-4.12-5.48"/><path class="cls-8" d="M62.94,828.85a10.54,10.54,0,0,1-4.12-5.48"/><path class="cls-11" d="M24.39,850.09a14.74,14.74,0,0,0,3.46,3.43l.6,0c4.33.2,9.4,2,13.36,2.82,3.33-.42,5.73-1.54,6.36-3.16C49.21,850.57,24.39,850.09,24.39,850.09Z"/><path class="cls-9" d="M49.8,851.34c.18-1.36-.22-4.73-6-7-5.25-2.08-18.25-3.09-23.67,6.57-2,3.59,3.53-.4,9.69-.11C38.07,851.19,49,857.42,49.8,851.34Z"/><path class="cls-12" d="M10.42,914.51s6.75,2,12.29-4.76"/><path class="cls-12" d="M15.66,880.36s6.22,3.32,13-2.27"/><polyline class="cls-4" points="616.34 945.36 622.51 978.94 641.01 978.94"/><path class="cls-5" d="M518.34,916.57S516.94,949,594.41,957c69.56,7.19,95.33.94,104.17-40.44,10.63-49.68-5.48-91.83-29.47-93.89S633.82,840.84,636.56,871c0,0-139.56,29.89-135.7,47.29C502.23,924.45,518.34,916.57,518.34,916.57Z"/><circle class="cls-6" cx="650.61" cy="835.02" r="2.74"/><circle class="cls-6" cx="663.63" cy="842.56" r="2.74"/><path class="cls-7" d="M649.35,852.71c1.45-6.05-7.36-4.9-11.91-3.93a68.48,68.48,0,0,0-1.28,13.42C639.44,861.52,647.79,859.19,649.35,852.71Z"/><path class="cls-7" d="M518.34,916.57S516.94,949,594.41,957c62,6.41,89.22,2.14,100.66-28.18-4.86,10.94-36.46,24.59-101.34,19.95-67.17-4.79-69.22-35.63-69.22-35.63L515,906c-9.35,4.4-15,8.64-14.15,12.33C502.23,924.45,518.34,916.57,518.34,916.57Z"/><path class="cls-7" d="M695.49,927.68c.08-.22.16-.44.23-.66A6.28,6.28,0,0,0,695.49,927.68Z"/><path class="cls-8" d="M670.83,850.09s-6,.84-7.1,5.28a6.82,6.82,0,0,0,1.95,6.92"/><path class="cls-9" d="M624.4,850.09a15.38,15.38,0,0,0,10.25,6.18c6.79.89,12.5-.44,13.53-3.07S624.4,850.09,624.4,850.09Z"/><polyline class="cls-4" points="599.21 945.36 612.23 985.11 630.05 985.11"/><path class="cls-6" d="M582.45,886.07c-5.35.65-10.26,1.16-15.36,3a32.19,32.19,0,0,0-6.43,3.55,23.66,23.66,0,0,1-7,2.74,72.14,72.14,0,0,0-15.44,5.9,3.34,3.34,0,0,1-4.42-1.06,3,3,0,0,1-1.2-1.3c-19.18,6.81-32.94,13.74-31.69,19.37,1.37,6.16,17.48-1.72,17.48-1.72,22.49,19.28,55.13-11.56,74.23-34A25,25,0,0,1,582.45,886.07Z"/><path class="cls-10" d="M636.46,869.66c0,.45.06.89.1,1.34,0,0-64.09,13.73-104.21,28,6.17,16.16,23.62,44.11,68.91,32.66C639.71,921.93,641.43,891.91,636.46,869.66Z"/><path class="cls-5" d="M662,814.9c-5.5.49,8,15.45,8,15.45l7.14-1.87S667.51,814.4,662,814.9"/><path class="cls-5" d="M657.91,817c-5.5.5,8,15.46,8,15.46l7.14-1.87S663.4,816.46,657.91,817"/><path class="cls-8" d="M665.69,824.05a10.54,10.54,0,0,1-4.12-5.48"/><path class="cls-8" d="M663,828.85a10.54,10.54,0,0,1-4.12-5.48"/><path class="cls-11" d="M624.4,850.09a14.74,14.74,0,0,0,3.46,3.43l.6,0c4.33.2,9.4,2,13.36,2.82,3.33-.42,5.73-1.54,6.36-3.16C649.22,850.57,624.4,850.09,624.4,850.09Z"/><path class="cls-9" d="M649.81,851.34c.18-1.36-.22-4.73-6-7-5.25-2.08-18.25-3.09-23.67,6.57-2,3.59,3.53-.4,9.69-.11C638.08,851.19,649,857.42,649.81,851.34Z"/><path class="cls-12" d="M610.43,914.51s6.75,2,12.29-4.76"/><path class="cls-12" d="M585.56,923.93s6.41,2.94,12.82-3.06"/><path class="cls-12" d="M555.49,910s6.62,2.46,12.57-4"/><path class="cls-12" d="M615.67,880.36s6.22,3.32,13-2.27"/><path class="cls-4" d="M364.78,667.29s16.73,13.77,34.14,11.1c0,0,3.64,14.06,8.14,17.88"/><path class="cls-10" d="M284.18,591c-22.49-9.32-68-39-83.56-44.63-22-8-44.59-12.44-51.35-11.27-4.91.86-5.05,4.26-4.08,12.54,1.43,12.27,15.31,41.85,39.43,50.89,21.58,8.08,36.55,6.18,46.5,11.41C241.56,615.43,295.58,595.72,284.18,591Z"/><path class="cls-5" d="M224.15,629.93c-3.37-15.41,1.37-32.23,22.51-38.68,29.76-9.08,35,1.57,89.28-10.62,9.74-2.19,20.44-8.37,26.16-3.16,32.72,29.81,51.06,18.08,58.55,18.37,9.81.39,21.17-2.28,22.58,5.82,1.64,9.46-18.39,14.32-18.39,14.32,1.05,22.08-10.27,56.77-45.11,60.69C334,681.82,296.86,649.94,271,647.53,237.09,644.38,227,642.81,224.15,629.93Z"/><path class="cls-7" d="M442.92,604.94c-7.87,2.45-19.72,1.59-19.72,1.59s-3.95,53.68-48.28,58.46c-42.34,4.56-54.34-17.92-104.15-23-17.7-1.79-21.4.94-40.63-5.64-2.06-.71-6-6.32-6-6.32,2.85,12.76,13,14.34,46.85,17.48,25.83,2.41,63,34.29,108.7,29.14,34.84-3.92,46.16-38.61,45.11-60.69C424.84,616,440.24,612.24,442.92,604.94Z"/><path class="cls-6" d="M443.23,601.66c-1.41-8.1-12.77-5.43-22.58-5.82-9.13-.36-28-13.22-84.71-15.21-10.67-.38-19,3.83-26.34,4.79,0,0,1.55,7.66,3.11,9.67,16.14,20.85,86.46,57.34,112.13,20.89C424.84,616,444.87,611.12,443.23,601.66Z"/><path class="cls-7" d="M236.54,628.7c-1-6.29-10.11-.24-12.8,1a18.05,18.05,0,0,0,1.5,3.85l1,1.53a20.54,20.54,0,0,0,6.23,4.91C234.24,638.27,237.2,632.94,236.54,628.7Z"/><path class="cls-7" d="M294.57,586.82s16.46,26.65,49.78,22.26S457.79,537.23,458,514.24c.18-22.1-75.32-9.19-114.68,36.59C315.13,583.59,294.57,586.82,294.57,586.82Z"/><path class="cls-10" d="M343.29,550.83c-28.16,32.76-48.72,36-48.72,36l.43.64c1.88,1.74,12.25,4,27.9-1.79,17.65-6.54,44.49-36.24,64.69-48.09S439,509.19,458,514.24C458.15,492.14,382.65,505.05,343.29,550.83Z"/><path class="cls-4" d="M372.26,660.83s25.15,9.11,41.32,2.13c0,0,7.07,12.68,12.39,15.24"/><path class="cls-9" d="M211.89,634.83s3.79,2.44,11.69,2.55c8.55.11,11.69-4.44,11.83-7.27S211.89,634.83,211.89,634.83Z"/><path class="cls-11" d="M217.19,636.7c4-2,10.15-2,15.56-2a6.68,6.68,0,0,0,2.66-4.64.44.44,0,0,0-.06-.23c-1.27-2.13-23.46,5-23.46,5A17.42,17.42,0,0,0,217.19,636.7Z"/><path class="cls-9" d="M236.34,627.83c-.26-1.35-1.73-4.41-7.93-4.7-5.64-.27-18.28,3-20.29,13.85-.74,4,3.22-1.52,9.14-3.23C225.19,631.46,237.55,633.84,236.34,627.83Z"/><circle class="cls-6" cx="229.04" cy="615.33" r="2.74"/><circle class="cls-6" cx="242.67" cy="617.6" r="2.74"/><path class="cls-8" d="M252.86,622.2s-5.73,1.85-6.1,6.42a6.82,6.82,0,0,0,3.11,6.49"/><path class="cls-5" d="M243.75,586.09c5.51-.29-5.72,16.44-5.72,16.44l-7.34-.83s7.55-15.31,13.06-15.61"/><path class="cls-5" d="M248.11,587.54c5.51-.29-5.72,16.44-5.72,16.44l-7.33-.83s7.54-15.32,13.05-15.61"/><path class="cls-8" d="M241.43,595.68s2.32-1.74,3.28-6"/><path class="cls-8" d="M247,597.44a16.64,16.64,0,0,0,2.63-6.47"/><path class="cls-12" d="M155,540s1.68,6.86,10.36,8.15"/><path class="cls-12" d="M176.28,583.21s1.68,6.85,10.36,8.15"/><path class="cls-12" d="M192.22,589.14s3.84,5.92,12.47,4.3"/><path class="cls-12" d="M208.31,557.66s3.17,6.31,11.92,5.64"/><path class="cls-12" d="M327.78,572.75s7.05,0,10.37-8.14"/><path class="cls-12" d="M429.49,509s6,3.76,13.12-1.33"/><path class="cls-12" d="M409.53,517.73s7,1.07,11.49-6.46"/><path class="cls-12" d="M224.76,583s3.17,6.3,11.92,5.63"/><path class="cls-10" d="M284.18,1191c-22.49-9.32-68-39-83.56-44.63-22-8-44.59-12.44-51.35-11.27-4.91.86-5.05,4.26-4.08,12.54,1.43,12.27,15.31,41.85,39.43,50.89,21.58,8.08,36.55,6.18,46.5,11.41C241.56,1215.44,295.58,1195.73,284.18,1191Z"/><path class="cls-5" d="M224.15,1229.94c-3.37-15.41,1.37-32.23,22.51-38.68,29.76-9.08,35,1.57,89.28-10.62,9.74-2.19,20.44-8.37,26.16-3.16,32.72,29.81,51.06,18.08,58.55,18.37,9.81.39,21.17-2.28,22.58,5.82,1.64,9.46-18.39,14.32-18.39,14.32,1.05,22.08-10.27,56.77-45.11,60.69C334,1281.83,296.86,1250,271,1247.54,237.09,1244.39,227,1242.82,224.15,1229.94Z"/><path class="cls-6" d="M443.23,1201.67c-1.41-8.1-12.77-5.43-22.58-5.82-9.13-.36-28-13.22-84.71-15.21-10.67-.38-19,3.83-26.34,4.79,0,0,1.55,7.66,3.11,9.67,16.14,20.85,86.46,57.34,112.13,20.89C424.84,1216,444.87,1211.13,443.23,1201.67Z"/><path class="cls-7" d="M294.57,1186.83s16.46,26.65,49.78,22.26,113.44-71.85,113.62-94.84c.18-22.1-75.32-9.19-114.68,36.59C315.13,1183.6,294.57,1186.83,294.57,1186.83Z"/><path class="cls-10" d="M343.29,1150.84c-28.16,32.76-48.72,36-48.72,36l.43.64c1.88,1.74,12.25,4,27.9-1.79,17.65-6.54,44.49-36.24,64.69-48.09S439,1109.2,458,1114.25C458.15,1092.15,382.65,1105.06,343.29,1150.84Z"/><path class="cls-5" d="M243.75,1186.1c5.51-.29-5.72,16.45-5.72,16.45l-7.34-.84s7.55-15.31,13.06-15.61"/><path class="cls-5" d="M248.11,1187.55c5.51-.29-5.72,16.44-5.72,16.44l-7.33-.83s7.54-15.32,13.05-15.61"/><path class="cls-8" d="M241.43,1195.69s2.32-1.74,3.28-6"/><path class="cls-8" d="M247,1197.45a16.64,16.64,0,0,0,2.63-6.47"/><path class="cls-12" d="M155,1140s1.68,6.86,10.36,8.15"/><path class="cls-12" d="M176.28,1183.22s1.68,6.85,10.36,8.15"/><path class="cls-12" d="M192.22,1189.15s3.84,5.92,12.47,4.3"/><path class="cls-12" d="M208.31,1157.67s3.17,6.31,11.92,5.64"/><path class="cls-12" d="M327.78,1172.76s7.05,0,10.37-8.14"/><path class="cls-12" d="M429.49,1109s6,3.76,13.12-1.33"/><path class="cls-12" d="M409.53,1117.74s7,1.07,11.49-6.46"/><path class="cls-12" d="M224.76,1183s3.17,6.31,11.92,5.63"/><path class="cls-10" d="M359.2,825.61c-3.81-2.72-45.56,14.87-83.57,59.61-31.39,37-39,76.81-35.12,80.11s48.12-20.51,77-54.55C356.38,865.07,363.37,828.59,359.2,825.61Z"/><path class="cls-13" d="M251.74,943.9s-26.29,21.75-7.17,38c22.37,19,43.75-29.35,59.13-26.24,13.8,2.8,2.1,25.79-9.58,15.87-9.4-8,1.62-32.12,29.1-35.56s33.26-21.42,33.26-21.42"/><path class="cls-9" d="M264.19,937.45s-14.55-4.55-25.44,6.3c-6,6-5.91,8.93-5.59,9.21,1,.82,7.36-5.43,11-5.73,4.79-.39,8.73,3.52,8.73,3.52Z"/><rect class="cls-9" x="352.62" y="911.11" width="8.08" height="3.83" rx="1.38" transform="translate(262.12 -62.62) rotate(15.8)"/><path class="cls-14" d="M293.71,866.08q-5.13,4.88-10.3,10.41l8.6,28.22,27.53,3.69q5-6,9.26-11.76L301.92,893Z"/><path class="cls-14" d="M312.08,850.25c-3.51,2.72-7.11,5.68-10.76,8.88l7.76,25.48,25.82,3.46c2.82-4.13,5.35-8.13,7.63-12L319,872.94Z"/><path class="cls-14" d="M300.57,928.25c4-3.63,7.88-7.46,11.61-11.45l-27.33-3.66-8.69-28.53-.53.61c-3.32,3.91-6.37,7.85-9.17,11.77l8.47,27.82Z"/><path class="cls-9" d="M240.12,964.8a1.49,1.49,0,0,0,.39.53,1.31,1.31,0,0,0,.62.26L359.62,826.1a1.47,1.47,0,0,0-.42-.49,1.59,1.59,0,0,0-.65-.23Z"/><rect class="cls-1" x="1.34" y="599.99" width="600.01" height="600.01"/></g><g class="cls-17"><rect class="cls-3" x="601.35" y="599.99" width="600.01" height="600.01"/><polyline class="cls-4" points="616.34 945.36 622.51 978.94 641.01 978.94"/><path class="cls-5" d="M518.34,916.57S516.94,949,594.41,957c69.56,7.19,95.33.94,104.17-40.44,10.63-49.68-5.48-91.83-29.47-93.89S633.82,840.84,636.56,871c0,0-139.56,29.89-135.7,47.29C502.23,924.45,518.34,916.57,518.34,916.57Z"/><circle class="cls-6" cx="650.61" cy="835.02" r="2.74"/><circle class="cls-6" cx="663.63" cy="842.56" r="2.74"/><path class="cls-7" d="M649.35,852.71c1.45-6.05-7.36-4.9-11.91-3.93a68.48,68.48,0,0,0-1.28,13.42C639.44,861.52,647.79,859.19,649.35,852.71Z"/><path class="cls-7" d="M518.34,916.57S516.94,949,594.41,957c62,6.41,89.22,2.14,100.66-28.18-4.86,10.94-36.46,24.59-101.34,19.95-67.17-4.79-69.22-35.63-69.22-35.63L515,906c-9.35,4.4-15,8.64-14.15,12.33C502.23,924.45,518.34,916.57,518.34,916.57Z"/><path class="cls-7" d="M695.49,927.68c.08-.22.16-.44.23-.66A6.28,6.28,0,0,0,695.49,927.68Z"/><path class="cls-8" d="M670.83,850.09s-6,.84-7.1,5.28a6.82,6.82,0,0,0,1.95,6.92"/><path class="cls-9" d="M624.4,850.09a15.38,15.38,0,0,0,10.25,6.18c6.79.89,12.5-.44,13.53-3.07S624.4,850.09,624.4,850.09Z"/><polyline class="cls-4" points="599.21 945.36 612.23 985.11 630.05 985.11"/><path class="cls-6" d="M582.45,886.07c-5.35.65-10.26,1.16-15.36,3a32.19,32.19,0,0,0-6.43,3.55,23.66,23.66,0,0,1-7,2.74,72.14,72.14,0,0,0-15.44,5.9,3.34,3.34,0,0,1-4.42-1.06,3,3,0,0,1-1.2-1.3c-19.18,6.81-32.94,13.74-31.69,19.37,1.37,6.16,17.48-1.72,17.48-1.72,22.49,19.28,55.13-11.56,74.23-34A25,25,0,0,1,582.45,886.07Z"/><path class="cls-10" d="M636.46,869.66c0,.45.06.89.1,1.34,0,0-64.09,13.73-104.21,28,6.17,16.16,23.62,44.11,68.91,32.66C639.71,921.93,641.43,891.91,636.46,869.66Z"/><path class="cls-5" d="M662,814.9c-5.5.49,8,15.45,8,15.45l7.14-1.87S667.51,814.4,662,814.9"/><path class="cls-5" d="M657.91,817c-5.5.5,8,15.46,8,15.46l7.14-1.87S663.4,816.46,657.91,817"/><path class="cls-8" d="M665.69,824.05a10.54,10.54,0,0,1-4.12-5.48"/><path class="cls-8" d="M663,828.85a10.54,10.54,0,0,1-4.12-5.48"/><path class="cls-11" d="M624.4,850.09a14.74,14.74,0,0,0,3.46,3.43l.6,0c4.33.2,9.4,2,13.36,2.82,3.33-.42,5.73-1.54,6.36-3.16C649.22,850.57,624.4,850.09,624.4,850.09Z"/><path class="cls-9" d="M649.81,851.34c.18-1.36-.22-4.73-6-7-5.25-2.08-18.25-3.09-23.67,6.57-2,3.59,3.53-.4,9.69-.11C638.08,851.19,649,857.42,649.81,851.34Z"/><path class="cls-12" d="M610.43,914.51s6.75,2,12.29-4.76"/><path class="cls-12" d="M585.56,923.93s6.41,2.94,12.82-3.06"/><path class="cls-12" d="M555.49,910s6.62,2.46,12.57-4"/><path class="cls-12" d="M615.67,880.36s6.22,3.32,13-2.27"/><path class="cls-5" d="M1118.35,916.57S1117,949,1194.42,957c69.56,7.19,95.33.94,104.17-40.44,10.63-49.68-5.48-91.83-29.47-93.89s-35.29,18.16-32.55,48.32c0,0-139.56,29.89-135.7,47.29C1102.24,924.45,1118.35,916.57,1118.35,916.57Z"/><path class="cls-7" d="M1118.35,916.57S1117,949,1194.42,957c62,6.41,89.22,2.14,100.66-28.18-4.86,10.94-36.46,24.59-101.34,19.95-67.17-4.79-69.22-35.63-69.22-35.63L1115,906c-9.35,4.4-15,8.64-14.15,12.33C1102.24,924.45,1118.35,916.57,1118.35,916.57Z"/><polyline class="cls-4" points="1199.22 945.36 1212.24 985.11 1230.06 985.11"/><path class="cls-6" d="M1182.46,886.07c-5.35.65-10.26,1.16-15.36,3a32.19,32.19,0,0,0-6.43,3.55,23.66,23.66,0,0,1-7.05,2.74,72.14,72.14,0,0,0-15.44,5.9,3.34,3.34,0,0,1-4.42-1.06,3,3,0,0,1-1.2-1.3c-19.18,6.81-32.94,13.74-31.69,19.37,1.37,6.16,17.48-1.72,17.48-1.72,22.49,19.28,55.13-11.56,74.23-34A25,25,0,0,1,1182.46,886.07Z"/><path class="cls-10" d="M1236.47,869.66c0,.45.06.89.1,1.34,0,0-64.09,13.73-104.21,28,6.17,16.16,23.62,44.11,68.91,32.66C1239.72,921.93,1241.44,891.91,1236.47,869.66Z"/><path class="cls-12" d="M1185.57,923.93s6.41,2.94,12.82-3.06"/><path class="cls-12" d="M1155.51,910s6.61,2.46,12.56-4"/><path class="cls-4" d="M964.79,667.29s16.73,13.77,34.14,11.1c0,0,3.64,14.06,8.14,17.88"/><path class="cls-10" d="M884.19,591c-22.49-9.32-68-39-83.56-44.63-22-8-44.59-12.44-51.34-11.27-4.92.86-5.06,4.26-4.09,12.54,1.43,12.27,15.31,41.85,39.43,50.89,21.58,8.08,36.55,6.18,46.5,11.41C841.57,615.43,895.59,595.72,884.19,591Z"/><path class="cls-5" d="M824.16,629.93c-3.37-15.41,1.37-32.23,22.51-38.68,29.76-9.08,35.05,1.57,89.28-10.62,9.74-2.19,20.44-8.37,26.16-3.16,32.72,29.81,51.06,18.08,58.55,18.37,9.81.39,21.17-2.28,22.58,5.82,1.64,9.46-18.39,14.32-18.39,14.32,1.05,22.08-10.27,56.77-45.11,60.69C934,681.82,896.87,649.94,871,647.53,837.1,644.38,827,642.81,824.16,629.93Z"/><path class="cls-7" d="M1042.93,604.94c-7.87,2.45-19.72,1.59-19.72,1.59s-4,53.68-48.28,58.46c-42.34,4.56-54.34-17.92-104.15-23-17.7-1.79-21.4.94-40.63-5.64-2-.71-6-6.32-6-6.32,2.85,12.76,13,14.34,46.85,17.48,25.83,2.41,63,34.29,108.7,29.14,34.84-3.92,46.16-38.61,45.11-60.69C1024.85,616,1040.25,612.24,1042.93,604.94Z"/><path class="cls-6" d="M1043.24,601.66c-1.41-8.1-12.77-5.43-22.58-5.82-9.13-.36-28-13.22-84.71-15.21-10.67-.38-19,3.83-26.34,4.79,0,0,1.56,7.66,3.11,9.67,16.14,20.85,86.46,57.34,112.13,20.89C1024.85,616,1044.88,611.12,1043.24,601.66Z"/><path class="cls-7" d="M836.55,628.7c-1-6.29-10.11-.24-12.8,1a18.05,18.05,0,0,0,1.5,3.85l1,1.53a20.54,20.54,0,0,0,6.23,4.91C834.25,638.27,837.21,632.94,836.55,628.7Z"/><path class="cls-7" d="M894.58,586.82s16.46,26.65,49.78,22.26S1057.8,537.23,1058,514.24c.18-22.1-75.32-9.19-114.68,36.59C915.14,583.59,894.58,586.82,894.58,586.82Z"/><path class="cls-10" d="M943.3,550.83c-28.16,32.76-48.72,36-48.72,36l.43.64c1.88,1.74,12.25,4,27.9-1.79,17.65-6.54,44.49-36.24,64.69-48.09S1039,509.19,1058,514.24C1058.16,492.14,982.66,505.05,943.3,550.83Z"/><path class="cls-4" d="M972.27,660.83s25.15,9.11,41.32,2.13c0,0,7.07,12.68,12.39,15.24"/><path class="cls-9" d="M811.9,634.83s3.79,2.44,11.69,2.55c8.55.11,11.69-4.44,11.83-7.27S811.9,634.83,811.9,634.83Z"/><path class="cls-11" d="M817.2,636.7c4-2,10.15-2,15.56-2a6.68,6.68,0,0,0,2.66-4.64.44.44,0,0,0-.06-.23c-1.27-2.13-23.46,5-23.46,5A17.42,17.42,0,0,0,817.2,636.7Z"/><path class="cls-9" d="M836.35,627.83c-.26-1.35-1.73-4.41-7.93-4.7-5.64-.27-18.28,3-20.29,13.85-.74,4,3.22-1.52,9.14-3.23C825.2,631.46,837.56,633.84,836.35,627.83Z"/><circle class="cls-6" cx="829.05" cy="615.33" r="2.74"/><circle class="cls-6" cx="842.68" cy="617.6" r="2.74"/><path class="cls-8" d="M852.87,622.2s-5.73,1.85-6.09,6.42a6.8,6.8,0,0,0,3.1,6.49"/><path class="cls-5" d="M843.76,586.09c5.51-.29-5.72,16.44-5.72,16.44l-7.33-.83s7.54-15.31,13-15.61"/><path class="cls-5" d="M848.12,587.54c5.51-.29-5.72,16.44-5.72,16.44l-7.33-.83s7.54-15.32,13-15.61"/><path class="cls-8" d="M841.44,595.68s2.32-1.74,3.28-6"/><path class="cls-8" d="M847.05,597.44a16.64,16.64,0,0,0,2.63-6.47"/><path class="cls-12" d="M755.05,540s1.68,6.86,10.36,8.15"/><path class="cls-12" d="M776.29,583.21s1.68,6.85,10.36,8.15"/><path class="cls-12" d="M792.23,589.14s3.84,5.92,12.47,4.3"/><path class="cls-12" d="M808.32,557.66s3.17,6.31,11.92,5.64"/><path class="cls-12" d="M927.79,572.75s7.05,0,10.37-8.14"/><path class="cls-12" d="M1029.5,509s6,3.76,13.12-1.33"/><path class="cls-12" d="M1009.54,517.73s7,1.07,11.49-6.46"/><path class="cls-12" d="M824.77,583s3.17,6.3,11.92,5.63"/><path class="cls-10" d="M884.19,1191c-22.49-9.32-68-39-83.56-44.63-22-8-44.59-12.44-51.34-11.27-4.92.86-5.06,4.26-4.09,12.54,1.43,12.27,15.31,41.85,39.43,50.89,21.58,8.08,36.55,6.18,46.5,11.41C841.57,1215.44,895.59,1195.73,884.19,1191Z"/><path class="cls-5" d="M824.16,1229.94c-3.37-15.41,1.37-32.23,22.51-38.68,29.76-9.08,35.05,1.57,89.28-10.62,9.74-2.19,20.44-8.37,26.16-3.16,32.72,29.81,51.06,18.08,58.55,18.37,9.81.39,21.17-2.28,22.58,5.82,1.64,9.46-18.39,14.32-18.39,14.32,1.05,22.08-10.27,56.77-45.11,60.69C934,1281.83,896.87,1250,871,1247.54,837.1,1244.39,827,1242.82,824.16,1229.94Z"/><path class="cls-6" d="M1043.24,1201.67c-1.41-8.1-12.77-5.43-22.58-5.82-9.13-.36-28-13.22-84.71-15.21-10.67-.38-19,3.83-26.34,4.79,0,0,1.56,7.66,3.11,9.67,16.14,20.85,86.46,57.34,112.13,20.89C1024.85,1216,1044.88,1211.13,1043.24,1201.67Z"/><path class="cls-7" d="M894.58,1186.83s16.46,26.65,49.78,22.26,113.44-71.85,113.62-94.84c.18-22.1-75.32-9.19-114.68,36.59C915.14,1183.6,894.58,1186.83,894.58,1186.83Z"/><path class="cls-10" d="M943.3,1150.84c-28.16,32.76-48.72,36-48.72,36l.43.64c1.88,1.74,12.25,4,27.9-1.79,17.65-6.54,44.49-36.24,64.69-48.09s51.42-28.39,70.38-23.34C1058.16,1092.15,982.66,1105.06,943.3,1150.84Z"/><path class="cls-5" d="M843.76,1186.1c5.51-.29-5.72,16.45-5.72,16.45l-7.33-.84s7.54-15.31,13-15.61"/><path class="cls-5" d="M848.12,1187.55c5.51-.29-5.72,16.44-5.72,16.44l-7.33-.83s7.54-15.32,13-15.61"/><path class="cls-8" d="M841.44,1195.69s2.32-1.74,3.28-6"/><path class="cls-8" d="M847.05,1197.45a16.64,16.64,0,0,0,2.63-6.47"/><path class="cls-12" d="M755.05,1140s1.68,6.86,10.36,8.15"/><path class="cls-12" d="M776.29,1183.22s1.68,6.85,10.36,8.15"/><path class="cls-12" d="M792.23,1189.15s3.84,5.92,12.47,4.3"/><path class="cls-12" d="M808.32,1157.67s3.17,6.31,11.92,5.64"/><path class="cls-12" d="M927.79,1172.76s7.05,0,10.37-8.14"/><path class="cls-12" d="M1029.5,1109s6,3.76,13.12-1.33"/><path class="cls-12" d="M1009.54,1117.74s7,1.07,11.49-6.46"/><path class="cls-12" d="M824.77,1183s3.17,6.31,11.92,5.63"/><path class="cls-10" d="M959.21,825.61c-3.81-2.72-45.56,14.87-83.57,59.61-31.39,37-39,76.81-35.12,80.11s48.12-20.51,77-54.55C956.39,865.07,963.38,828.59,959.21,825.61Z"/><path class="cls-13" d="M851.75,943.9s-26.29,21.75-7.17,38c22.37,19,43.75-29.35,59.13-26.24,13.8,2.8,2.1,25.79-9.57,15.87-9.41-8,1.61-32.12,29.09-35.56s33.26-21.42,33.26-21.42"/><path class="cls-9" d="M864.2,937.45s-14.55-4.55-25.44,6.3c-6,6-5.91,8.93-5.59,9.21,1,.82,7.36-5.43,11-5.73,4.79-.39,8.73,3.52,8.73,3.52Z"/><rect class="cls-9" x="952.63" y="911.11" width="8.08" height="3.83" rx="1.38" transform="translate(284.79 -226.01) rotate(15.8)"/><path class="cls-14" d="M893.72,866.08q-5.13,4.88-10.3,10.41l8.6,28.22,27.53,3.69q5-6,9.26-11.76L901.93,893Z"/><path class="cls-14" d="M912.09,850.25c-3.51,2.72-7.11,5.68-10.76,8.88l7.76,25.48,25.83,3.46q4.22-6.2,7.62-12L919,872.94Z"/><path class="cls-14" d="M900.58,928.25c4-3.63,7.88-7.46,11.61-11.45l-27.33-3.66-8.69-28.53-.53.61c-3.32,3.91-6.37,7.85-9.17,11.77l8.47,27.82Z"/><path class="cls-9" d="M840.13,964.8a1.62,1.62,0,0,0,.39.53,1.31,1.31,0,0,0,.62.26L959.63,826.1a1.47,1.47,0,0,0-.42-.49,1.59,1.59,0,0,0-.65-.23Z"/><rect class="cls-1" x="601.35" y="599.99" width="600.01" height="600.01"/></g></svg>