<?xml version="1.0" encoding="utf-8"?>
<!-- Generator: Adobe Illustrator 24.0.0, SVG Export Plug-In . SVG Version: 6.00 Build 0)  -->
<svg version="1.1" id="Layer_1" xmlns="http://www.w3.org/2000/svg" xmlns:xlink="http://www.w3.org/1999/xlink" x="0px" y="0px"
	 viewBox="0 0 2964.4 1468" style="enable-background:new 0 0 2964.4 1468;" xml:space="preserve">
<style type="text/css">
	.st0{clip-path:url(#SVGID_2_);}
	.st1{fill:#FFE948;}
	.st2{fill:none;stroke:#FFFFFF;stroke-width:38;stroke-linecap:round;stroke-miterlimit:10;stroke-dasharray:100;}
	.st3{fill:#151249;}
	.st4{fill:#81BEE2;}
	.st5{fill:#FFC9AE;}
	.st6{fill:none;stroke:#4D5AA8;stroke-width:32.59;stroke-linecap:round;stroke-miterlimit:10;}
	.st7{fill:none;stroke:#FF4D4D;stroke-width:24;stroke-linecap:round;stroke-miterlimit:10;}
	.st8{fill:none;stroke:#151249;stroke-width:22.22;stroke-linecap:round;stroke-miterlimit:10;}
	.st9{fill:none;stroke:#151249;stroke-width:20.74;stroke-linecap:round;stroke-miterlimit:10;}
	.st10{fill:#FAD34A;}
	.st11{fill:none;stroke:#151249;stroke-width:10.37;stroke-linecap:round;stroke-miterlimit:10;}
	.st12{fill:#FF5555;}
	.st13{fill:none;stroke:#151249;stroke-width:14.81;stroke-linecap:round;stroke-miterlimit:10;}
	.st14{fill:none;stroke:#FF4D4D;stroke-width:20.74;stroke-linecap:round;stroke-miterlimit:10;}
	.st15{fill:none;stroke:#FFFFFF;stroke-width:11.85;stroke-linecap:round;stroke-miterlimit:10;}
	.st16{fill:none;stroke:#151249;stroke-width:26.66;stroke-linecap:round;stroke-miterlimit:10;}
	.st17{fill:none;}
	.st18{fill:none;stroke:#151249;stroke-width:3.34;stroke-linecap:round;stroke-miterlimit:10;}
	.st19{fill:#F52166;}
	.st20{fill:none;stroke:#81BEE2;stroke-width:2.96;stroke-linecap:round;stroke-miterlimit:10;}
	.st21{fill:none;stroke:#F52166;stroke-width:5;stroke-linecap:round;stroke-miterlimit:10;}
	.st22{fill:none;stroke:#FF4D4D;stroke-width:22.22;stroke-linecap:round;stroke-miterlimit:10;}
	.st23{fill:none;stroke:#151249;stroke-width:17.78;stroke-linecap:round;stroke-miterlimit:10;}
	.st24{fill:none;stroke:#151249;stroke-width:13.33;stroke-linecap:round;stroke-miterlimit:10;}
	.st25{fill:#F9CB4B;}
	.st26{fill:#FFB217;}
	.st27{fill:#FFC0C0;}
	.st28{fill:#FFFFFF;}
	.st29{fill:#FF4D4D;}
	.st30{fill:#FFD8C2;}
	.st31{fill:none;stroke:#FF5555;stroke-width:3.34;stroke-linecap:round;stroke-miterlimit:10;}
	.st32{fill:none;stroke:#151249;stroke-width:3.23;stroke-linecap:round;stroke-miterlimit:10;}
	.st33{opacity:0.28;}
	.st34{fill:#FC986D;}
	.st35{fill:none;stroke:#F9CB4B;stroke-width:3.34;stroke-linecap:round;stroke-miterlimit:10;}
	.st36{fill:#4D5AA8;}
	.st37{fill:none;stroke:#4D5AA8;stroke-width:8.35;stroke-linecap:round;stroke-miterlimit:10;}
	.st38{fill:none;stroke:#4D5AA8;stroke-width:3.23;stroke-linecap:round;stroke-miterlimit:10;}
	.st39{fill:none;stroke:#4D5AA8;stroke-width:3.34;stroke-linecap:round;stroke-miterlimit:10;}
	.st40{fill:#FFB0AE;}
	.st41{fill:#FFB8B8;}
	.st42{fill:#FFC7C7;}
	.st43{fill:#FF8D8D;}
	.st44{fill:none;stroke:#000000;stroke-width:2.71;stroke-linecap:round;stroke-miterlimit:10;}
	.st45{fill:none;stroke:#FFFFFF;stroke-width:2.71;stroke-linecap:round;stroke-miterlimit:10;}
	.st46{fill:none;stroke:#FFFFFF;stroke-width:6.4;stroke-miterlimit:10;}
	.st47{fill:none;stroke:#FFFFFF;stroke-width:4;stroke-miterlimit:10;}
	.st48{fill:none;stroke:#151249;stroke-width:5.41;stroke-miterlimit:10;}
	.st49{fill:none;stroke:#151249;stroke-width:5.41;stroke-linecap:round;stroke-miterlimit:10;}
	.st50{fill:none;stroke:#FF4D4D;stroke-width:3.34;stroke-linecap:round;stroke-miterlimit:10;}
	.st51{fill:none;stroke:#FFFFFF;stroke-width:5;stroke-linecap:round;stroke-miterlimit:10;}
	.st52{opacity:0.56;fill:#808080;enable-background:new    ;}
	.st53{fill:#3C6678;}
	.st54{fill:#195B72;}
	.st55{fill:#F2F2F2;}
	.st56{fill:none;stroke:#FFFFFF;stroke-width:3.34;stroke-linecap:round;stroke-miterlimit:10;}
	.st57{fill:#FFCB4A;}
	.st58{opacity:0.53;fill:#FFC0C0;enable-background:new    ;}
	.st59{fill:#FF8C24;}
	.st60{fill:none;stroke:#FF4D4D;stroke-width:5.8;stroke-linecap:round;stroke-miterlimit:10;}
	.st61{fill:none;stroke:#151249;stroke-width:14.53;stroke-linecap:round;stroke-miterlimit:10;}
	.st62{fill:none;stroke:#FAD34A;stroke-width:5;stroke-linecap:round;stroke-miterlimit:10;}
	.st63{fill:none;stroke:#FFFFFF;stroke-width:59;stroke-linecap:round;stroke-miterlimit:10;}
	.st64{fill:none;stroke:#151249;stroke-width:5;stroke-linecap:round;stroke-miterlimit:10;}
	.st65{fill:none;stroke:#FF4D4D;stroke-width:5;stroke-linecap:round;stroke-miterlimit:10;}
</style>
<g>
	<g>
		<defs>
			<path id="SVGID_1_" d="M2106.6,260.3c-120.5-0.2-239.6,25.1-349.6,74.3c-141.4-167.6-352.9-274-589.3-274
				c-357.4,0-658,243.2-745.2,573.2C175.9,724.6,0,961.7,0,1239.9c-0.1,77.9,14,155.2,41.5,228.1H2890
				c49.2-110.1,74.6-229.3,74.4-349.9C2964.3,644.3,2580.3,260.3,2106.6,260.3z"/>
		</defs>
		<clipPath id="SVGID_2_">
			<use xlink:href="#SVGID_1_"  style="overflow:visible;"/>
		</clipPath>
		<g class="st0">
			<path class="st1" d="M2106.6,260.3c-120.5-0.2-239.6,25.1-349.6,74.3c-141.4-167.6-352.9-274-589.3-274
				c-357.4,0-658,243.2-745.2,573.2C175.9,724.6,0,961.7,0,1239.9c-0.1,77.9,14,155.2,41.5,228.1H2890
				c49.2-110.1,74.6-229.3,74.4-349.9C2964.3,644.3,2580.3,260.3,2106.6,260.3z"/>
			<path class="st2" d="M2827.8,813.4c-79.6-187.6-229-337-416.6-416.6"/>
			<polygon class="st3" points="2069.3,1339.7 2340.3,1391 2362.6,1141.1 2054.5,1141.1 			"/>
			<path class="st4" d="M2362.6,833.9v362.9c0,0-86.2,13.4-154.1,21c-78.5,8.8-169,14-155.6,14l1.5-398"/>
			<path class="st5" d="M1981.9,813.8c0,0,4.4,226.7,84.4,225.2c80-1.5-5.9-238.5-5.9-238.5L1981.9,813.8z"/>
			<path class="st5" d="M2435.2,813.8c0,0-56.3,213.3-115.2,224.5c-67.5,12.8-10.7-214.1-10.7-214.1L2435.2,813.8z"/>
			<ellipse class="st6" cx="2402.6" cy="1070" rx="125.9" ry="121.5"/>
			<ellipse class="st7" cx="2402.3" cy="1070" rx="117.2" ry="113.1"/>
			<path class="st4" d="M2054.5,833.8c-57.8-8.1-72-20-72-20c-4.4-60.7,14.8-142.2,48.9-160c49.2-25.7,161.5-19.2,161.5-19.2h32
				c0,0,112.3-6.4,161.5,19.2c34.1,17.8,53.3,99.3,48.9,160c0,0-14.2,12-72.6,20.1"/>
			<line class="st8" x1="1918.3" y1="730.9" x2="2314.5" y2="909.3"/>
			<path class="st9" d="M2398.2,840.4l-199.9,161.5c-4.8,3.8-11.6,3.7-16.3-0.3l-269-234.5"/>
			<path class="st9" d="M2398.6,1068.6l-202.1-59.1c-1.6-0.5-2.6-2.2-2.1-3.8c0.2-0.6,0.5-1.1,1-1.5l119.2-95.5l88.8,153.9
				c1.1,2,0.5,4.5-1.5,5.7C2400.9,1068.8,2399.7,1068.9,2398.6,1068.6z"/>
			<ellipse class="st6" cx="1831.6" cy="947.8" rx="125.9" ry="121.5"/>
			<circle class="st10" cx="2191.5" cy="1007.1" r="18.5"/>
			<circle class="st11" cx="2191.5" cy="1007.1" r="34.1"/>
			<path class="st11" d="M2182.4,1039.9c18.1,5.1,219.5,54.6,224,29.4c4.2-23.8-187.5-90-205.6-95c-18.1-5.1-36.9,5.5-42,23.7
				C2153.7,1016.1,2164.3,1034.9,2182.4,1039.9L2182.4,1039.9L2182.4,1039.9z"/>
			<path class="st12" d="M2464.9,851.7c-16.4-9.8-36-15.7-48.9-23.1c-41.3-23.4-58.6-36.3-64.3-27.4c-7,11,65.7,73.3,86.5,82.2
				c9.3,4,23.6,2.1,29.9-5.9S2473.6,856.8,2464.9,851.7z"/>
			<path class="st13" d="M2156,623.4c0,0-87.3-39.2-118.5-32.6c-24.4,5.2-40,34.1-45.9,45.9c-5.9,11.8-17.1,43.7-54.8,28.1
				s-26.7-43-17.8-66.7s20.6-40.8,5.9-53.3c-20-17-82.2-14.1-82.2-14.1"/>
			<path class="st14" d="M1871.6,530.7c-30-1-66.8,3.4-66.8,3.4"/>
			<line class="st15" x1="1877" y1="519" x2="1875.9" y2="544.7"/>
			<line class="st16" x1="1936" y1="665.6" x2="1941.9" y2="683.4"/>
			<line class="st17" x1="2202.6" y1="564.2" x2="2202.6" y2="564.2"/>
			<path class="st5" d="M2165.6,637.5c0,0,2.4-34.8-4.3-71.4l83.9-90.9c0,0,18.4,106.7,4.9,166.8
				C2250.1,641.9,2208.6,674.5,2165.6,637.5z"/>
			<ellipse class="st7" cx="1831.6" cy="947.8" rx="117.2" ry="113.1"/>
			<path class="st18" d="M2188.1,614.9c0,0-4.1-9.3,0.4-21.6"/>
			<path class="st5" d="M2179,395.9c43-0.1,68.1,22.2,74.1,60.8c5.8,37.7-1.1,54.9-20.7,83c-18.5,26.5-48.9,37.4-71.1,34.1
				c-40-5.9-41.5-101.8-38.5-130.4C2125.6,415.2,2150.8,396,2179,395.9z"/>
			<path class="st18" d="M2150.5,485.5c0,0-2.6,32.5-1.9,34.2s13.3-5.9,13.3-5.9"/>
			<path class="st18" d="M2163.9,536.5c5.8-1,11-4.3,14.4-9.2c0.4-0.7,1.4-0.9,2-0.4c0.4,0.3,0.6,0.7,0.7,1.2c0.1,4-0.6,9.7-5,13.2
				c-5.1,4.1-10.2,0.4-12.9-2.2c-0.6-0.6-0.6-1.5,0-2.1C2163.3,536.7,2163.6,536.5,2163.9,536.5z"/>
			<path class="st18" d="M2126.3,471.8c2.4-3.6,6.2-6.1,10.5-6.9"/>
			<path class="st18" d="M2167.8,464.8c4.3,0.9,8,3.4,10.3,7.1"/>
			<circle class="st3" cx="2134.5" cy="484.6" r="4.6"/>
			<circle class="st3" cx="2168.5" cy="481.6" r="4.6"/>
			<circle class="st12" cx="2195.2" cy="489" r="2.9"/>
			<circle class="st12" cx="2205.6" cy="505.3" r="2.9"/>
			<circle class="st12" cx="2186.3" cy="502.4" r="2.9"/>
			<path class="st19" d="M2121.2,441.9c3-28.2,29.6-45.9,57.8-46c43-0.1,69.6,16.4,75.5,54.9c2.4,15.4,1.1,33.2-0.7,43.9
				c-9-1.1-21.5,3.5-30.4,0.6c-10.1-3.4,0-23.7-1.5-38.5s-16.3-25.2-31.1-23.7s-31.1,16.3-51.9,17.8c-6.1,0.4-13-2-17.8-4.5
				C2121.3,445,2121.1,443.1,2121.2,441.9z"/>
			<path class="st12" d="M2208.5,555.7c0.6-0.4,1.4-0.3,1.8,0.2c0.3,0.5,0.3,1.1,0,1.5c-9.2,12-28.8,28.6-45.4,36.4
				c-0.5-6.4-1.3-13.2-2.3-20.1C2174.6,573.6,2196.7,564.5,2208.5,555.7z"/>
			<circle class="st5" cx="2248.5" cy="507" r="19.1"/>
			<path class="st12" d="M2251.8,525.9c0.2,1.8,0.4,3.7,0.5,5.5c-1.2-0.3-2.3-0.7-3.4-1.3c-1.3-0.7-2.6-1.5-3.8-2.4
				c-0.4-0.4-0.4-1,0-1.4c0.2-0.2,0.5-0.3,0.8-0.3C2247.8,526.3,2249.8,526.2,2251.8,525.9z"/>
			<path class="st5" d="M2269.6,674.6L2269.6,674.6c3.9,0.2,7.5,2.1,9.8,5.2l0,0c0.5-6.6,5.9-11.8,12.5-12l0,0
				c5.6-0.2,10.6,3.2,12.5,8.5l0,0c1.9-4.7,6.5-7.8,11.5-8l0,0c5.8-0.2,10.9,3.5,12.7,9l0,0c2.3-2.6,5.6-4.1,9.1-4.2
				c7.1-0.1,13.1,5.5,13.3,12.7l0.6,18.5l-0.2,31.5c14.2,1.1,13.4,45.3,13.4,45.3l-4.8,207.8c-0.8,28.3-23.9,50.9-52.3,50.9l0,0
				c-28.9,0-52.3-23.4-52.3-52.3l0,0v-194l0.7-106.6C2256.4,679.8,2262.4,674.3,2269.6,674.6L2269.6,674.6z"/>
			<path class="st5" d="M2107.5,673.1L2107.5,673.1c-3.9,0.2-7.5,2.1-9.8,5.2l0,0c-0.5-6.6-5.8-11.8-12.5-12l0,0
				c-5.6-0.2-10.6,3.2-12.5,8.5l0,0c-1.9-4.7-6.5-7.8-11.5-8l0,0c-5.8-0.2-10.9,3.5-12.7,9l0,0c-2.3-2.6-5.6-4.1-9.1-4.2
				c-7.2-0.1-13.1,5.5-13.3,12.7l-0.6,18.5l0.2,31.5c-14.2,1.1-13.3,45.3-13.3,45.3l4.8,207.8c0.7,28.3,23.9,50.9,52.3,50.9l0,0
				c28.9,0,52.3-23.4,52.3-52.3V792l-0.7-106.6C2120.7,678.3,2114.7,672.8,2107.5,673.1C2107.6,673.1,2107.5,673.1,2107.5,673.1z"/>
			<line class="st20" x1="2365.1" y1="830" x2="2361.1" y2="938"/>
			<line class="st20" x1="2353.3" y1="727.8" x2="2351.7" y2="753.4"/>
			<line class="st20" x1="2011.5" y1="816.7" x2="2016" y2="915.8"/>
			<line class="st20" x1="2024.3" y1="727.8" x2="2026" y2="753.4"/>
			<line class="st8" x1="1832.3" y1="947.1" x2="1936" y2="686.4"/>
			<path class="st21" d="M2126.4,395.5c-12-37-11-81-26-57s-34-23-37-41"/>
			<path class="st21" d="M2051.4,200.5c2,22,0,55,0,61"/>
			<line class="st21" x1="2051.4" y1="273.5" x2="2051.4" y2="275.5"/>
			<path class="st22" d="M2156,623.4c0,0-45.2-20.3-82.2-29.2"/>
			<line class="st23" x1="2130.8" y1="1036.7" x2="2084.9" y2="999.7"/>
			<line class="st24" x1="2192.3" y1="1006.3" x2="2109.3" y2="1018.2"/>
			<line class="st15" x1="2072.3" y1="578.5" x2="2063.4" y2="606.1"/>
			<circle class="st25" cx="393.9" cy="888.5" r="30.3"/>
			<path class="st26" d="M390.3,918.6c1.2,0.2,2.4,0.2,3.6,0.2c16.8,0,30.3-13.6,30.3-30.3c0-6.8-2.3-13.4-6.5-18.8
				C407.3,877,395.2,895.8,390.3,918.6z"/>
			<rect x="796.1" y="1415.6" class="st3" width="303.8" height="53.4"/>
			<path class="st27" d="M1091.5,851.4l-64.4-8.2c-11.3-1.4-19.7-11.3-19.3-22.7c2.1-54.2,1.9-122.2,1.9-122.2l-86.9,73.6
				c0.3,16.1-0.5,34.4-1.4,49c-0.7,10.7-8.9,19.3-19.5,20.5l-72.1,8.3c-58.1,1.7-105,48.3-107,106.4c-0.4,12-1.8,26.5-3.2,41.9
				c-6.2,66.4-13.9,149.1,33.5,204.1c24.6,28.5,59.1,44.1,102.5,46.5c36.9,2,77.8-9.2,121.6-33.4c31.1-17.2,64.4-41.3,99-71.5
				c3.7-3.2,7.2-6.4,10.8-9.6v231.6h110.2V961.6C1197.2,902.4,1150.1,853.8,1091.5,851.4z M1086.9,976.7
				c-25.9,29.8-53.8,57.9-83.4,84c-83.1,72.7-127,78.7-142,77.8c-18.6-1-23.4-6.6-25-8.4c-3.4-3.9-9.3-14.5-11-41.1
				c-1.5-24.7,1.2-53.1,3.7-80.7c1.6-17,3.1-33,3.6-48.2l-55.1-2L833,960c0,0-0.1,0,0,0h3.3l123.4-14.3l120.6,15.4l3.4,0.4h3.3
				L1086.9,976.7z"/>
			<path class="st28" d="M1104.6,1400.6l-304.8,31.9c-5.4,0.5-10.2-3.4-10.7-8.9c0-0.3,0-0.7,0-1V951.9c0-5.4,4.3-9.9,9.8-9.9l0,0
				h304.8c5.4,0,9.8,4.5,9.8,9.9l0,0v438.8C1113.4,1395.8,1109.6,1400,1104.6,1400.6z"/>
			<path class="st3" d="M963.3,560.3c6.6,1.1,14.3-11,33.1-5.5c18.8,5.5,15.4,22.1,29.8,30.9c14.3,8.8,30.3,3.7,36.4,19.8
				c6.6,17.7-6.6,28.7-5.5,38.6s14.3,16.5,9.9,34.2c-3.3,13.2-15.3,12.2-17.7,17.7c-3.3,7.7-0.4,20.5-11,29.8
				c-16.6,14.3-53,9.9-53,9.9"/>
			<path class="st27" d="M951.4,585.9c29.3,1.5,55.3,23.5,57.2,52.8c2.4,38.8,3.5,69.3-17.7,97.1c-20,26.1-57.7,43.1-78.8,34.2
				c-33.7-14.3-36.7-93.6-29.6-122.1C894,601.6,922.1,584.3,951.4,585.9z"/>
			<path class="st18" d="M903.4,685.9c0,0-6.8,17.3-5.3,34.9c0.2,2.3,12.5-5.5,12.5-5.5"/>
			<path class="st18" d="M886.7,655.8c0,0,3.3-5.5,14.3-4.4"/>
			<path class="st3" d="M1042.8,647.5c0,0-72.7-87.2-79.4-87.2c-7.2,0-19.2-13.3-33.1-7.7c-16.5,6.6-9.9,22.1-28.7,29.8
				c-19.2,7.9-22.1,14.3-22.6,24.8c0,0,0,24.8,28.7,25.4c27,0.6,22.6-13.9,34.2-13.2c9.4,0.6,8.8,13.2,18.8,16.5
				c9.9,3.3,17.7-5.5,26.5,1.1s-7,26.8,5,33.7c7.7,4.4,21-14.3,33.1-12.1C1034,660.2,1042.8,647.5,1042.8,647.5z"/>
			<circle class="st27" cx="1011.7" cy="680.4" r="21"/>
			<circle class="st3" cx="919.4" cy="674.5" r="5"/>
			<circle class="st3" cx="893.7" cy="674.5" r="5"/>
			<path class="st18" d="M929.3,656.8c0,0-3.3-5.5-14.3-4.4"/>
			<path class="st27" d="M1091.5,851.6L967,835.5l-5.2,41.4c1.1,1,1.7,2.5,1.7,4c-0.1,21.5-4.2,42.8-4.3,64.2
				c9.2-2.7,20.6,0.6,29.4,3.2c6.2,1.8,12.3,4.2,18.8,5c10.4,1.3,20.8,1.8,31.2,2.7c7.7,0.6,15.4,1.9,23.2,2.2
				c6.5,0.1,12.9,0.5,19.3,1.3c4.7,0.7,9.5,2,12.1,6.3c2.8,4.6,3,10.5,2.9,15.7c-0.2,11.8-3.7,23.3-3.9,35.1c0,2.9-2.3,5.4-5.3,5.4
				l0,0v447.7h110.3V963.5C1197.2,903.4,1150.1,854.1,1091.5,851.6z"/>
			<path class="st29" d="M1025,1107.1c-6.9-16.9-15.8-31.1-26.4-42.3c-19.1-20.2-43.1-30.4-71.5-30.6h-0.5
				c-24.7-0.3-48.4,10.1-64.9,28.5c-17.6,19.1-29.9,47.5-36.9,84.7l47.4,4.9c5.3-25.9,105.2-36.8,109.6-25.4"/>
			<path class="st30" d="M849.6,1241.2c-3.7,1.2-5.8,5-4.8,8.8c6.1,22.5,26.9,93.7,32.4,105.9c3,6.7-2.9,23.7-9.9,39.6
				c-2.7,6.1,5.1,11.4,9.8,6.7c17.8-18.1,39.4-40.1,46.4-47.8c2.8-3.1,4.1-7.4,3.3-11.6c-2.4-13.2-7.6-42.6-7.6-51.9v-21.5
				c0-3,1.9-5.7,4.7-6.8l34.5-13.2c2.4-0.9,5.2-0.5,7.2,1.2L994,1274c3.1,2.5,3.5,7.1,1,10.2c-0.1,0.1-0.1,0.1-0.2,0.2
				c-7.2,8-20.6,25.7-26.9,34c-2.2,2.9-3,6.5-2.3,10.1c1.4,7.1,6.7,31.6,12.3,57.1c1.5,7.1,12,5.8,11.8-1.4
				c-0.5-17.4-0.3-31.4,1.3-32.6c4.4-3.3,62.9-37.5,66.2-69.5c2.8-26.8-26.9-75.1-36.7-90.2c-1.8-2.8-5.2-4-8.3-3L849.6,1241.2z"/>
			<path class="st28" d="M998.3,1346.5l-21.5-40.2c-3.5,4.6-6.8,8.9-9.1,11.9c-2.2,2.9-3,6.5-2.3,10.1c1.4,7.1,6.7,31.6,12.3,57.1
				c1.5,7.1,12,5.8,11.8-1.4c-0.5-17.4-0.3-31.4,1.3-32.6C991.7,1350.8,994.5,1349.1,998.3,1346.5z"/>
			<path class="st4" d="M919.2,1290.7v-21.5c0-3,1.9-5.7,4.7-6.8l34.5-13.2c2.4-0.9,5.2-0.5,7.2,1.2l28.4,23.4l57.8-21.9
				c-8.5-23.9-24.6-49.9-31.2-60.2c-1.8-2.8-5.2-4-8.3-3l-162.5,52.5c-3.7,1.2-5.8,5-4.8,8.8c3,11.2,9.8,34.7,16.4,56.8
				L919.2,1290.7z"/>
			<path class="st19" d="M991.8,1350.8l-21.1-36.5l-2.9,3.9c-2.2,2.9-3,6.5-2.3,10.1c1.4,7.1,6.7,31.6,12.3,57.1
				c1.5,7.1,12,5.8,11.8-1.4c-0.5-17.4-0.3-31.4,1.3-32.6L991.8,1350.8z"/>
			<path class="st28" d="M877.3,1355.8c3,6.7-2.9,23.7-9.9,39.6c-2.7,6.1,5.1,11.4,9.8,6.7c17.8-18.1,39.4-40.1,46.4-47.8
				c2.8-3.1,4.1-7.4,3.3-11.6c-0.6-3.5-1.5-8.1-2.3-13.1l-49,21.8C876.2,1353.2,876.8,1354.8,877.3,1355.8z"/>
			<path class="st31" d="M886.7,1319.9c0,0-3.3,7.7,3.3,12.1"/>
			<path class="st31" d="M1038.9,1276.9c0,0,5.5,3.3,0,14.3"/>
			<line class="st32" x1="1083" y1="982.4" x2="1087.3" y2="1070.6"/>
			<path class="st12" d="M922.8,772.2c0.1,6,0.1,12.2-0.1,18.4c13.8-4.4,38.9-18.3,51.2-34.9c0.4-0.5,0.3-1.3-0.2-1.7
				c-0.4-0.3-1-0.3-1.5,0C956.4,765.9,937.6,773.1,922.8,772.2z"/>
			<path class="st18" d="M906.6,728.5c4.4,0,8.7-1.7,11.8-4.9c0.8-0.8,1.7-0.2,1.9,0.9c0.8,4,0.8,10.3-2.9,12.3
				c-4.3,2.3-10.5-4.1-11.6-6.6C905.3,729.5,905.7,728.5,906.6,728.5z"/>
			<path class="st28" d="M1091.5,851.4l-64.4-8.2c-2-0.3-4-0.8-5.8-1.6c-10.2,17-32.7,31-57.9,31c-3.3,0-6.7-0.2-10-0.6l-5,92.1
				l131.9-2.8l3.4,0.4h3.3v126l110.3-5.6V961.6C1197.2,902.4,1150.1,853.8,1091.5,851.4z"/>
			<path class="st27" d="M1179.3,1011.2L1179.3,1011.2c-2.9-2.6-6.7-3.8-10.6-3.2v-0.1c4.3-5.1,4.1-12.6-0.5-17.4l0,0
				c-3.8-4-9.8-5.2-14.9-2.9l-0.1-0.1c1.9-4.7,0.9-10.1-2.6-13.8l0,0c-4-4.2-10.2-5.2-15.4-2.6h-0.1c0.1-3.5-1.2-6.9-3.6-9.4
				c-5-5.2-13.3-5.3-18.5-0.4c0,0-18.8,19.7-48.5,48.2c-1.6,1.5-4.1,1.5-5.7-0.1c-0.5-0.5-0.8-1.1-1-1.7l-5.6-18.8
				c-1.4-4.9-6.3-7.9-11.3-6.8c-5.1,1.2-8.2,6.3-7,11.3c0,0.2,0.1,0.4,0.2,0.6c0,0,4.5,13.9,5.6,18.7c1.6,6.7,2.6,14.9-7.7,26.6
				c-0.4,0.5-0.8,1-1.1,1.6l0,0c-6.8,6.2-13.9,12.7-21.3,19.2c-81.8,72.7-133.2,79.2-148.1,78.4c-18.6-1-23.4-6.6-25-8.4
				c-3.4-3.9-9.3-14.5-11-41.1c-0.1-2.2-0.2-4.3-0.3-6.5c-2.5,0.3-4.7-1.5-5.1-3.9c-5.1-31.6,0.8-63.2,5.3-94.7c-0.3-7,0-14,1-21
				c0.2-1.2,1-2.2,2-2.9c0.1-0.6,0.1-1.3,0.2-1.9c0.6-7,11.5-7.1,11-0.1c38.1-4.1,76.2-7.8,113.7-15.9c-1.8-17.3-2.3-34.7-4.6-52
				c-0.5-3.6,2.2-5.3,5.1-5.2c-0.3-2.1-0.6-4.3-0.8-6.4c-0.4-3.5,2.2-5.3,5-5.3 M958.1,873l-4.3-37.6l0,0l-124,14.3l0,0
				c-58.1,1.7-105,48.3-107,106.4c-0.4,12-1.8,26.5-3.2,41.9c-6.2,66.4-13.9,149.1,33.5,204.1c24.6,28.5,59.1,44.1,102.5,46.5
				c2.8,0.1,5.6,0.2,8.5,0.2c34.6,0,72.6-11.3,113.1-33.7c31.1-17.2,64.4-42.4,99-72.6c57.2-50,104.1-113,104.1-113
				c4.8-5.3,4.3-13.5-1-18.3L958.1,873z"/>
			<path class="st28" d="M718.6,1007.4c-0.3,3-0.6,6.1-0.8,9.2v0.3c-0.3,3.1-0.5,6.1-0.8,9.2v0.4c-0.2,3.1-0.5,6.2-0.7,9.3v0.4
				c-0.2,3.1-0.4,6.2-0.6,9.3v0.5c-0.2,3.1-0.3,6.2-0.4,9.4c0,0.2,0,0.4,0,0.5c-0.1,3.1-0.2,6.3-0.3,9.4c0,0.2,0,0.4,0,0.6
				c-0.1,3.1-0.1,6.3-0.1,9.4c0,1.8,0,3.5,0,5.3l110.6,6.5c-1.3-24.2,1.3-51.9,3.8-78.8c1.6-17,3.1-33,3.6-48.2V960h3.3l124.7-14.4
				c0.8-22.7-5.5-44.9-8-67.3c-0.4-3.6,2.3-5.3,5.1-5.2l-0.1-0.7c-24.2-1.6-44.6-14.1-53.3-31.3l-75,8.7
				c-58.1,1.7-105,48.3-107,106.4c-0.4,12-1.8,26.5-3.2,41.9c-0.3,3-0.6,6-0.8,9L718.6,1007.4z"/>
			<line class="st18" x1="830.2" y1="999" x2="826" y2="1087.2"/>
			<g class="st33">
				<path d="M1076.1,1142.6c-34.6,30.3-67.9,55.4-99,72.6c-40.5,22.4-78.5,33.7-113.1,33.7c-2.8,0-5.7-0.1-8.5-0.2
					c-25.3-1.4-47.5-7.2-66.5-17.5v28.6c16.1,6.7,34.3,10.6,54.4,11.7c2.8,0.2,5.6,0.2,8.5,0.2c34.6,0,72.7-11.3,113.1-33.7
					c31.1-17.2,64.4-42.4,99-72.6c8-7,15.6-14.3,22.9-21.6l0,0l3.3-3.3l0.3-0.3c2-2,3.9-4,5.8-6.1l0.2-0.3c1.9-2,3.8-4.1,5.7-6.1
					c0.1-0.1,0.1-0.1,0.2-0.2c1.9-2.1,3.7-4.1,5.5-6.1l0.1-0.1c1.8-2.1,3.6-4.1,5.3-6.1l0,0l0,0c15.1-17.5,29.2-35.8,42.2-54.9
					C1136.4,1083.1,1107.9,1114.8,1076.1,1142.6z"/>
			</g>
			<path class="st18" d="M1001.4,677.8c0,0,8.8,4.4,2.2,11"/>
			<path class="st18" d="M1134.9,971.3c0,0-24.3,28.7-35.3,36.4"/>
			<path class="st18" d="M1152.5,986.8c0,0-24.3,28.7-35.3,36.4"/>
			<path class="st18" d="M1170.2,1005.5c0,0-24.3,26.5-35.3,34.2"/>
			<path class="st30" d="M1040.1,1166.1c-6.2-44.6-20.2-78.7-41.5-101.2c-19.1-20.2-43.1-30.4-71.6-30.6h-0.5
				c-24.7-0.3-48.4,10.1-64.9,28.5c-23.4,25.5-37.6,67.4-42,124.7c-0.6,8-1.6,23-1.6,23c-0.3,42.8,8.8,64.4,8.8,64.4
				c0.9,2.6,3.2,5.1,6.3,4.7l0,0c1.6-0.2,3.1-1.2,3.9-2.6l0,0c0.5,2.8,3,4.7,5.8,4.5l0,0c2.4-0.2,4.3-1.8,5-4.1l0,0
				c1,1.9,3.1,3,5.2,2.9l0,0c2.4-0.2,4.5-1.9,5-4.3l0,0c1.1,1,2.5,1.5,4,1.4c3.1-0.2,5.4-2.9,5.1-6c0,0-1.3-11.4-2.6-28.8
				c-0.1-0.9,0.6-1.8,1.6-1.8c0.3,0,0.5,0,0.8,0.1l7.6,3.2c2,0.9,4.3,0.1,5.3-1.8c1-2,0.2-4.4-1.8-5.4c-0.1,0-0.1-0.1-0.2-0.1
				c0,0-5.7-2.3-7.6-3.2c-1.9-0.8-3.5-2.2-4.6-3.9c-0.1-11.2,0.2-24.8,1.3-39.2c1-13.2,2.8-26.3,5.5-39.3c-3.1-0.9-5.5-4.3-3.4-7.9
				c8.1-13.5,11-29.2,20.1-42.2c8.2-11.6,18.9-20.9,33.4-22.7c12.5-1.5,27.3,1.8,38.3,7.8c13,7,18.7,21.2,23.8,34.3
				c1.2,3.1-0.5,5.4-3,6.3c8.1,20.6,11.9,44.8,13.5,64.7c-1.1,1.3-2.4,2.3-3.9,3c-1.8,0.9-7.6,3.2-7.6,3.2c-2,0.9-3,3.2-2.1,5.3
				c0,0.1,0.1,0.1,0.1,0.2c1,1.9,3.3,2.7,5.3,1.8l7.6-3.2c0.9-0.4,1.9,0,2.2,0.9c0.1,0.2,0.2,0.5,0.1,0.8
				c-1.3,17.4-2.6,28.8-2.6,28.8c-0.2,3.1,2.1,5.8,5.1,6c1.5,0.1,2.9-0.4,4-1.4l0,0c0.5,2.4,2.6,4.1,5,4.3l0,0
				c2.2,0.2,4.2-1,5.2-2.9l0,0c0.6,2.3,2.6,3.9,5,4.1l0,0c2.8,0.2,5.3-1.8,5.8-4.5l0,0c0.9,1.4,2.3,2.3,3.9,2.6l0,0
				c3,0.4,5.4-2,6.3-4.7c0,0,3.7-7.9,6.5-38.8C1042.3,1184.7,1040.2,1166.2,1040.1,1166.1z"/>
			<path class="st29" d="M1025,1107.1c-6.9-16.9-15.8-31.1-26.4-42.3c-19.1-20.2-43.1-30.4-71.5-30.6h-0.5
				c-24.7-0.3-48.4,10.1-64.9,28.5c-17.6,19.1-29.9,47.5-36.9,84.7l47.4,4.9c5.3-25.9,13.7-45.8,24.4-57.4c8.3-9,17.8-13.2,30-13.2
				h0.3c15.1,0.1,27.3,5.2,37.3,15.7c7.4,7.8,13.2,18.1,17.7,29.5"/>
			<path class="st25" d="M1019.5,935.9c1.1-14.3-9.5-26.7-23.8-27.9c-1.9-0.2-3.8-0.1-5.7,0.2c7.8-16.9,0.4-36.9-16.5-44.7
				c-16.1-7.4-35.1-1.1-43.6,14.4c-10.8-16.6-33-21.3-49.6-10.6c-10.2,6.6-16.3,17.9-16.3,30.1c0,2.5,0.3,5,0.8,7.4
				c-19.7,2.3-33.8,20.1-31.5,39.8c2.1,18.1,17.4,31.7,35.7,31.7c19.8,0,61.2,11.2,61.2,23.7s10.1,22.6,22.6,22.6l0,0
				c11,0,20.2-6.8,22.2-17.3c4.1,2.6,9,2.9,14.2,2.9c14.9,0.1,27.1-11.9,27.1-26.9c0.1-9.6-5-18.6-13.4-23.5
				C1012.3,954.4,1018.7,945.8,1019.5,935.9z"/>
			<path class="st30" d="M970,976.3c0,30.8-37.1,55.2-67.8,55.2c-30.8,0-55.7-24.9-55.7-55.7l0,0c0-30.8,25.5-62.3,56.3-62.3
				S970,945.5,970,976.3z"/>
			<circle class="st30" cx="968.9" cy="982.9" r="15.5"/>
			<circle class="st30" cx="855.2" cy="971.9" r="15.5"/>
			<path class="st31" d="M871.2,971.3c0,0-4.4,6.6-4.4,8.8s5.5,3.3,5.5,3.3"/>
			<path class="st31" d="M875.6,996.7c0,0,8.8-2.2,13.2-8.8"/>
			<path class="st31" d="M863.5,941.5c0,0,4.4-3.3,8.8-1.1"/>
			<path class="st31" d="M894.5,948.2c0,0,5.4-0.8,8.3,3.2"/>
			<circle class="st3" cx="894.4" cy="960.3" r="3.9"/>
			<circle class="st3" cx="866.8" cy="951.5" r="3.9"/>
			<circle class="st34" cx="906.5" cy="981.2" r="7.2"/>
			<circle class="st34" cx="855.8" cy="973.5" r="7.2"/>
			<path class="st25" d="M967.8,921.1c-4.3,0-8.5,1.1-12.2,3.3c6-14-0.4-30.2-14.4-36.2c-12.7-5.5-27.5-0.7-34.6,11.2
				c-2.9-13.1-15.8-21.4-28.9-18.5c-1.7,0.4-3.4,1-5,1.7c-1.3,3.7-1.9,7.6-1.9,11.5c0,2.5,0.3,5,0.8,7.4
				c-18.1,2.1-31.7,17.4-31.7,35.6c0,0.3,0,0.6,0,0.9c10.5,6.1,24,2.5,30.1-8c0.7-1.2,1.3-2.5,1.8-3.9c11,5.7,24.6,2.2,31.4-8.2
				c2.5,15,16.7,25.2,31.8,22.6c3.7-0.6,7.2-2,10.3-4c-4.8,12.5,1.4,26.6,13.9,31.4c12.5,4.8,26.6-1.4,31.4-13.9
				s-1.4-26.6-13.9-31.4C973.7,921.7,970.7,921.1,967.8,921.1L967.8,921.1z"/>
			<path class="st30" d="M895.4,1014.7c4.1,14,4.9,28.7,2.3,43c0,0,30.8,28,58,1.5c0,0,2.8-66,0.9-74.1S895.4,1014.7,895.4,1014.7z"
				/>
			<path class="st34" d="M902.1,1031.4c-1.2,0-2.3,0-3.4-0.1c0.4,3.5,0.5,7,0.5,10.5c9.1-1.5,30.6-6.4,41.9-20.1
				c0.3-0.4,0.3-0.9-0.1-1.2c-0.3-0.2-0.7-0.3-1-0.1C928.3,1027.4,914.7,1031.4,902.1,1031.4z"/>
			<path class="st31" d="M969.4,976.8c0,0,7.1,7.1-2.5,13.5"/>
			<path class="st12" d="M1133.9,1085.2c-13.8,15.2-29.8,31.9-47,47.8v11l3.3-3.3l0.3-0.3c2-2,3.9-4,5.8-6.1l0.2-0.3
				c1.9-2,3.8-4.1,5.7-6.1c0.1-0.1,0.1-0.1,0.2-0.2c1.9-2.1,3.7-4.1,5.5-6.1l0.1-0.1c1.8-2.1,3.6-4.1,5.3-6.1l0,0l0,0
				c9.4-10.9,17.6-21.2,24.5-30.3L1133.9,1085.2z"/>
			<rect x="398.9" y="1122.9" class="st30" width="247.1" height="356.3"/>
			<path class="st30" d="M569.9,925.2L569.9,925.2c0,0,10.3-6.5,8.8-10.8c-2.2-6.6-46-33.3-57.7-40.9c-0.9-0.6-1.8-1.2-2.8-1.8l0,0
				c-0.7-0.4-1.3-0.8-1.9-1.1c-39.4-22.5-77-13-95.4,10.7c-18.3,23.7-15.3,68.6,4.4,88.3c26.1,26,39.1,23.5,72.8,27.6
				c45.2,5.5,83.2,2,90.5-21C592.2,964.9,583.4,945,569.9,925.2z"/>
			<path class="st25" d="M512.5,868c-3.2-3-11.4-19.1-45.2-16.5c-43,3.3-58.5,32-58.5,32s-12.1,25.4-9.9,53s36.9,79.4,78,59.5
				c0,0-1.9-24.3,3.6-29.8s-5-9.6-8.8-17.7C462.9,929.8,485.4,878.2,512.5,868z"/>
			<path class="st29" d="M1446.3,722.4c0,0,22.9-22.2,43.6-14.7s22.2,31.1,37.2,40.5s52.4-1.1,68.5,16.9
				c17.3,19.3-1.1,47.8,7.8,68.5s47,21.5,47,49.5s-24,34-30,54c-6.1,20.2,15,30,10,55c-3.8,18.7-50.9-6.1-50.9-6.1l-228.6-18.8
				c0,0-20.5-8.9-19.8-21.1c0.6-10.8,8.4-9.6,8.9-20.5c0.6-14.9-25.6-16.6-22.8-40.1c1.7-14.1,14.7-22.2,18-34s-21.7-38.6-13.4-59.8
				c11.4-29.2,41.8-20.5,52.9-37.8s10.1-31.9,30-40.3C1424.9,704.9,1446.3,722.4,1446.3,722.4z"/>
			<path class="st35" d="M467.3,996c0,0-28.7,21-46.3-3.3s-16.5-64-16.5-64"/>
			<circle class="st12" cx="529.1" cy="901.2" r="5.5"/>
			<path class="st31" d="M520.8,886.2c-5.2,4.2-7,11.4-4.4,17.7"/>
			<path class="st31" d="M552.8,956.9c0,0,8.8,0,13.2-7.7"/>
			<circle class="st30" cx="476.1" cy="987.2" r="21"/>
			<path class="st36" d="M639.3,1242c-1.3-34.1-30-60.7-64-59.4c-18.7,0.7-36,9.8-47.2,24.8c-3.2,4.3-9.3,5.3-13.6,2.1
				c-0.8-0.6-1.5-1.3-2.1-2.1c-20.4-27.3-59.1-33-86.5-12.6c-22.9,17.1-31.1,47.5-19.9,73.8h-0.5v210.7h230.6v-210.8h-1.6
				C638,1260.2,639.7,1251.1,639.3,1242z M520.2,1267.2c0.2,0.4,0.3,0.9,0.5,1.3h-1.1C519.9,1268.1,520.1,1267.6,520.2,1267.2
				L520.2,1267.2z"/>
			<path class="st30" d="M656.8,1095.4l-2.9-1.8l0,0l-81.3-33.4c-5-2.1-8.5-6.6-9.3-12c-6.6-45.2,11-65.3,12-66.5 M575.3,981.6
				l-87-1.1l0,0c4.2,35.2,1.8,55.7-1.2,67c-1.3,4.9-4.9,8.9-9.7,10.8l-88.8,35l0,0l-2.9,1.7c-36.5,21.4-58.9,60.6-59,102.9l-1,272.8
				c0,24.1,19.8,44.4,43.9,43.9c23.4-0.5,42.2-19.6,42.1-43l1-273.7c0-10.8,5.3-21,14.2-27.2l0,0l96.3-38l0,0l91,37.4l0,0
				c8.5,6.3,13.6,16.2,13.6,26.8l-1,280.4c0,24.1,19.8,44.4,43.9,43.9c23.4-0.5,42.2-19.6,42.2-43l1-281.2
				c-0.2-41.5-21.8-79.9-57.2-101.6L575.3,981.6z"/>
			<line class="st37" x1="439.6" y1="1073.3" x2="439.6" y2="1200.1"/>
			<line class="st37" x1="604" y1="1073.3" x2="604" y2="1200.1"/>
			<polygon class="st3" points="596.9,1212.3 592,1207.4 583.9,1207.4 579.3,1212 574.7,1207.3 566.5,1207.3 561.6,1212.2 
				579.3,1229.9 			"/>
			<line class="st38" x1="412.9" y1="1183.1" x2="414.7" y2="1218.6"/>
			<line class="st39" x1="627.7" y1="1188.6" x2="625.7" y2="1224.1"/>
			<path class="st32" d="M439.1,1266.9c0,0,18.8,14.3,58.5,0"/>
			<path class="st32" d="M544,1265.8c0,0,38.6,16.6,64,0"/>
			<path class="st31" d="M476.1,979.4c0,0-7.2,11.7,6.1,11.7"/>
			<circle class="st40" cx="532.4" cy="933.1" r="14.3"/>
			<path class="st12" d="M517.3,1000.6c13.3,6.2,34.8,7.2,45.9,7.3c0.4,0,0.8-0.3,0.8-0.7c0.8-3.7,1.9-7.3,3.2-10.8
				c0.2-0.4,0-0.9-0.5-1.1c-0.2-0.1-0.4-0.1-0.6,0c-12.6,4-29.5,4.9-48.5,3.8c-0.5,0-0.9,0.4-0.9,0.8
				C516.8,1000.1,517,1000.4,517.3,1000.6z"/>
			<path class="st19" d="M877.1,1402c17.8-18.1,39.4-40.1,46.4-47.8c2.8-3.1,4.1-7.4,3.3-11.6c-0.2-1.1-0.4-2.4-0.7-3.8l-48.1,22.3
				c-0.3,8.3-5.2,21.6-10.7,34.2C864.6,1401.5,872.4,1406.8,877.1,1402z"/>
			<path class="st36" d="M1456.2,1118.6l-2.5-69.8l-21.4-6.8l28.1-91l211.8,61c26.7,8.6,41.5,37.2,32.9,64
				c-6.1,19.1-22.9,32.8-42.9,35l-1.8,0.2L1456.2,1118.6z"/>
			<path class="st36" d="M1589,1076.6l-148.2-36.1l21.5-6.4l-21.8-95.9c0,0-79.3,15.2-152,60.9c-62.5,39.2-62.4,151.5-62.6,159.7
				c-3.3,118.8-0.5,266-0.5,266l388.2-17.8L1589,1076.6z"/>
			<path class="st3" d="M1440.6,938.1c0,0-53.7-7.1-54.8,16.5s36.5,54.4,51.7,53.8c14.9-0.6,50.8-26.7,53.4-42.7
				S1440.6,938.1,1440.6,938.1z"/>
			<circle class="st41" cx="1390" cy="839.4" r="17.6"/>
			<path class="st42" d="M1400.8,952c0,0,13.9-29.2,15.3-57.3l71.6-17.4c0,0-6.5,37.1-12.7,82.7C1475,960.1,1428.2,996.1,1400.8,952
				z"/>
			<path class="st42" d="M1456.8,737.9c26.6-0.7,51,23.3,54.8,49.6c5,34.9,3.1,58.1-14.1,84.8c-16.2,25.1-42.8,40.5-62.9,34.9
				c-38.8-10.7-48-81.4-43.6-107.6C1398,756.9,1430.2,738.7,1456.8,737.9z"/>
			<path class="st18" d="M1434.9,829.6c0,0-6.9,27-6.4,28.8s10.7-3.8,10.7-3.8"/>
			<circle class="st43" cx="1476.5" cy="850.2" r="10.1"/>
			<circle class="st43" cx="1408" cy="849.8" r="10.1"/>
			<path class="st44" d="M1455,818.5c0,0,4.9,11.8,16,2.7"/>
			<path class="st44" d="M1406.2,821.4c0,0,6.8,10.8,16.2,0"/>
			<path class="st18" d="M1459.7,798.9c0,0,10.8-5.5,17.6,2.6"/>
			<path class="st18" d="M1399.1,799.9c0,0,6.6-9.3,17.3-2.8"/>
			<path class="st18" d="M1445,870.3c5.3-1.1,9.3-5.4,10-10.7"/>
			<path class="st29" d="M1521.3,824c0,0,2.4,11.4-4.9,4.7s-26.7-20.9-29.4-37.8c-1.9-12,2-25.6-9.8-31.8c-11.3-6-20,4.9-35.8,0.9
				c-3.9-1-15.2-3.2-20.7,0.7c-6.2,4.5-3.4,10.2-14.7,22.2c-10,10.7-27.3,16-50.2,30s30.2-66.3,30.2-66.3l63.1-16.9l33.1-1.3
				l28.7,25.3L1521.3,824z"/>
			<path class="st12" d="M1434.6,907.3c-7.1-2.1-13.5-6-18.5-11.4c-0.3,4.8-0.9,9.7-1.8,14.4c10,3.4,31.3,8.6,45.7-2.5
				c0.6-0.5,0.7-1.3,0.2-1.9c-0.4-0.5-1-0.6-1.5-0.4C1450.3,908.5,1442,909.3,1434.6,907.3z"/>
			<path class="st42" d="M1401.3,952.2c0,0,17.2,45.3,34.5,48.2s38.2-40.3,38.2-40.3L1401.3,952.2z"/>
			<path class="st3" d="M1613.8,1406.9l-197.3-8.6l5.2-118.9c7.9-182.7,39.3-292.5,51-327.7c2.4-7.4,9.5-12.2,17.2-11.9l90.6,3.9
				c7.8,0.3,14.3,5.8,16.1,13.3c8.6,36.1,30.3,148.2,22.4,331L1613.8,1406.9z"/>
			<path class="st45" d="M1450.9,1000.2c0.3,0.3,27.6,29.9,12.3,82.9"/>
			<path class="st45" d="M1419.8,997.7c0,0-26.4,27.2-18.8,72.3"/>
			<circle class="st1" cx="1409.9" cy="822.5" r="18.9"/>
			<circle class="st1" cx="1464.5" cy="825.2" r="18.9"/>
			<line class="st46" x1="1426.7" y1="813.8" x2="1399.6" y2="838.4"/>
			<line class="st46" x1="1454.1" y1="840.3" x2="1481.8" y2="816.6"/>
			<line class="st47" x1="1467.5" y1="843.6" x2="1483.2" y2="830.6"/>
			<line class="st47" x1="1412.8" y1="841.8" x2="1427.5" y2="828.8"/>
			<circle class="st48" cx="1464.7" cy="824.7" r="18.9"/>
			<circle class="st48" cx="1409.9" cy="822.5" r="18.9"/>
			<line class="st48" x1="1445.3" y1="823.9" x2="1429.3" y2="823.2"/>
			<line class="st49" x1="1518.4" y1="824.9" x2="1483.7" y2="819.1"/>
			<ellipse class="st42" cx="1511.6" cy="841.7" rx="17.6" ry="17.6"/>
			<path class="st50" d="M1509.1,848c0,0-1,8.3-3.2,13.5"/>
			<path class="st42" d="M1480,1067L1480,1067c-3.7,3-9,2.5-12-1.2l0,0l-21.6-26.5c-3-3.7-2.4-9.1,1.2-12.1l0,0
				c3.7-3,9.1-2.4,12.1,1.2c0,0,8.2,10.5,11.2,13.7c4.2,4.6,9.9,9.6,23.9,7.8C1504.5,1048.7,1483.6,1064,1480,1067z"/>
			<path class="st42" d="M1707.4,1065.6c2.3-23.9-12.3-46.2-35.2-53.6l-0.4,0.8c3.8,0.9,6.9,4.7,4.9,9.3c-3,6.7-7.4,12.6-10.5,19.3
				c-2.3,4.9-5.1,9.4-10.4,11.3c-5.5,2-11.8,1.5-17.6,1c-6.7-0.6-13.3-0.9-20.1-0.9c-5.2,0-7.8-4.8-7.2-8.7l-184.2,6.1
				c-5.2,0.7-8.8,5.3-8.2,10.5c0.3,2.5,1.7,4.8,3.7,6.3l0,0c-3.8,1.7-6.1,5.7-5.6,9.8l0,0c0.5,3.7,3.1,6.7,6.6,7.8l0,0
				c-3.6,1.7-5.8,5.6-5.3,9.6l0,0c0.6,4.8,4.8,8.3,9.6,8.2l0,0c-2.1,1.9-3.2,4.6-3.1,7.4l0,0c0.3,5.2,4.7,9.2,9.8,8.9
				c0,0,185.5-4.7,228-7.7C1686.1,1109.4,1705,1089.3,1707.4,1065.6z"/>
			<path class="st36" d="M1495,1117.1c58.1-1.7,140.7-4.2,167.3-6.1c23.8-1.7,42.7-21.7,45.1-45.4c2.3-23.9-12.3-46.2-35.2-53.6
				l-15.8,30.5L1491,1048"/>
			<path class="st36" d="M1424.5,1109.8L1424.5,1109.8"/>
			<path class="st51" d="M1604.3,926c0,0-9.5,21.5,5.5,42.5"/>
			<line class="st17" x1="1286.9" y1="742.3" x2="1286.9" y2="742.3"/>
			<path class="st52" d="M1286.3,739.7c0.6-0.4,0.7-1.3,0.3-1.8c-0.4-0.5-1-0.6-1.5-0.4"/>
			<path class="st27" d="M1602.2,1393.8c0,0-55.1-195-58.9-329.3c-1.1-39.6,12.3-76.7,47.9-93.9c35.2-17.3,77.6-8.8,103.3,20.8
				l255.7,289.2l-85.1,75.3l-207-227.1c0,0,25.1,148,55.9,245C1722.7,1400.9,1602.2,1393.8,1602.2,1393.8z"/>
			<path class="st18" d="M1316.8,1143.5c-6,82-6,251-6,251"/>
			<polygon class="st53" points="1713.7,1012.5 1650.2,1094.5 1658.2,1128.8 1868.3,1361.4 1950.2,1280.8 			"/>
			<path class="st28" d="M1679.3,1237.2h-113.8c1.4,7.1,2.8,14,4.2,20.9c1.5,7.3,3,14.5,4.5,21.4h114.5c-2.2-9.3-4.3-18.6-6.3-27.8
				C1681.3,1246.8,1680.3,1242,1679.3,1237.2z"/>
			<path class="st54" d="M1646.4,1077l11.8,51.9l11.8,13l8.1,9l7.2,8l-37.6-82.3c-0.2-0.3-0.5-0.5-0.9-0.3
				C1646.5,1076.4,1646.3,1076.7,1646.4,1077z"/>
			<path class="st55" d="M1685.4,1264.9c8.4,37,18.2,75.9,28.7,108.9c8.6,27.1-111.9,20-111.9,20s-15.8-56.1-31.1-128.9"/>
			<path class="st29" d="M1682.4,1251.7h-114c0.9,4.5,1.8,8.9,2.7,13.2h114.3C1684.4,1260.5,1683.4,1256.1,1682.4,1251.7z"/>
			<rect x="1000.1" y="1354.8" class="st27" width="890.6" height="113.6"/>
			<rect x="1000.1" y="1354.8" class="st28" width="201.2" height="113.6"/>
			<line class="st50" x1="1201" y1="1354.8" x2="1201" y2="1468.4"/>
			<line class="st50" x1="1158.7" y1="1468.4" x2="1158.7" y2="1354.8"/>
			<rect x="1173.2" y="1354.8" class="st29" width="13.2" height="113.6"/>
			<path class="st3" d="M1074.1,1411.6c0-31.4-25.4-56.8-56.8-56.8l0,0v113.6C1048.7,1468.4,1074.1,1443,1074.1,1411.6z"/>
			<path class="st18" d="M1075.4,1404.9c-0.2,0.2-0.5,0.3-0.7,0.1c-0.2-0.1-0.3-0.3-0.2-0.5c2-11.8,11.9-66.3,26.1-61.6
				S1082.4,1394.9,1075.4,1404.9z"/>
			<path class="st18" d="M1074.8,1406.7c-0.2-0.2-0.2-0.5,0-0.7c0.2-0.1,0.4-0.2,0.6-0.1c10.9,5,60.9,28.8,52.7,41.2
				S1082.6,1416.1,1074.8,1406.7z"/>
			<circle class="st36" cx="1412.4" cy="1391.8" r="23.8"/>
			<path class="st50" d="M1409.8,1394.4c0,0-10.6,15.8,0,35.7"/>
			<rect x="1481.1" y="1354.8" class="st53" width="399" height="113.6"/>
			<path class="st53" d="M1807.6,1272.8c0,0,7.6,38.3-3.2,100.4l72.6,4l3.2-68.7L1807.6,1272.8z"/>
			<line class="st17" x1="1950.3" y1="1280.6" x2="1865.2" y2="1355.9"/>
			<rect x="1000.1" y="1354.8" class="st55" width="17.2" height="113.6"/>
			<path class="st27" d="M2584,1371.5l-97.4-177.9l-76.2,77.9l51.2,93.8l-120.4-1l-121.4-186.2c-2.9-4.5-6.2-8.7-9.8-12.6
				l-153.5-166.9c-21.9-23.9-59.1-25.4-83-3.5c-11.3,10.4-18.1,24.9-18.9,40.2l-6.4,129.5l-4.4,73.6c-0.2,6.8,5.2,12.5,12.1,12.6
				l0,0c3.7,0.1,7.3-1.5,9.7-4.3l0,0c0,6.4,4.8,11.7,11.1,12.3l0,0c5.3,0.5,10.3-2.4,12.5-7.3l0,0c1.5,4.6,5.6,7.9,10.5,8.4l0,0
				c5.5,0.5,10.6-2.6,12.7-7.7l0,0c2.1,2.6,5.1,4.3,8.5,4.6c6.8,0.6,12.9-4.4,13.5-11.2l1.8-17.7l1.1-18.8c6-0.5,27.8,0,27.8,0
				l-10.3-15.3c-2-3-3-6.6-2.8-10.2l1.8-34.2l79,85.9l134.4,206.1c10.7,16.5,29.1,26.5,48.8,26.7l208.9,1.7h0.6
				c36.9,0,66.7-29.9,66.7-66.7C2592.2,1392.3,2589.3,1381.3,2584,1371.5L2584,1371.5z"/>
			<path class="st56" d="M1746.7,1452.6c0,0,0-48.9,66.1-48.9"/>
			<path class="st56" d="M1860.8,1204.7c0,0-38.7,29.9,1.8,82.2"/>
			<path class="st28" d="M2584,1371.5l-49.1-89.8l-93.6,46.3l20.4,37.3l-120.4-1l-121.4-186.2c-2.9-4.5-6.2-8.7-9.8-12.6
				l-153.5-166.9c-21.9-23.9-59.1-25.4-83-3.5c-11.3,10.4-18.1,24.9-18.9,40.2l-6,117.3l-0.4,9.2h104.9l0.2-12.5l55.3,60.1h-225.9
				l-107,259.3h572.1l177,1.5h0.6c36.9,0,66.7-29.9,66.7-66.7C2592.2,1392.3,2589.4,1381.3,2584,1371.5L2584,1371.5z"/>
			<path class="st57" d="M2053.3,1094.5l0.2,54.8l9.2,10l2.3,2.6l2.9,3.1l2.5,2.7l6.7,7.4l-21.4-80.8c-0.1-0.6-0.8-1-1.4-0.9
				C2053.7,1093.5,2053.3,1094,2053.3,1094.5z"/>
			<path class="st57" d="M2491,1408.4l-29.3-43.1l-14.3-0.1l-8.2-0.1l-12.4-0.1l-9-0.1l-8.7-0.1h-4.5l83.8,46.5
				c1,0.6,2.3,0.2,2.8-0.8C2491.5,1409.9,2491.5,1409,2491,1408.4z"/>
			<polygon class="st58" points="2053.8,1150.3 2053.6,1149.7 2053.4,1149.7 2053.3,1159.3 			"/>
			<path class="st27" d="M1956,1251.1L1956,1251.1c3.7,0.1,7.3-1.5,9.7-4.3l0,0c0,6.4,4.8,11.7,11.1,12.3l0,0
				c5.3,0.5,10.3-2.4,12.5-7.3l0,0c1.5,4.6,5.6,7.9,10.5,8.4l0,0c5.5,0.5,10.6-2.6,12.7-7.7l0,0c2.1,2.6,5.1,4.3,8.5,4.6
				c6.8,0.6,12.9-4.4,13.5-11.2l1.8-17.7l1.1-18.8c6-0.5,27.8,0,27.8,0l-10.3-15.3c-2-3-3-6.6-2.8-10.2l1.2-22.1h-104.6l-0.2,3
				l-4.4,73.6C1943.8,1245.3,1949.2,1250.9,1956,1251.1z"/>
			<path class="st31" d="M2037.7,1208.7c0.1-6.8-5.4-12.4-12.2-12.5l0,0l0,0c-3.7,0-7.2,1.6-9.6,4.4l0,0c-0.1-6.4-5-11.6-11.3-12.2
				l0,0c-5.3-0.5-10.3,2.5-12.4,7.4l0,0c-1.6-4.6-5.7-7.9-10.6-8.3l0,0c-5.5-0.5-10.6,2.7-12.6,7.9l0,0c-2.1-2.6-5.2-4.2-8.5-4.5
				c-6.8-0.5-12.8,4.6-13.4,11.4"/>
			<path class="st31" d="M1963.4,1179c0,0,23.8-7.9,52.8,0"/>
			<path class="st31" d="M2489.3,1255c0,0-17.1,18.3-46.5,25.2"/>
			<line class="st17" x1="2341.6" y1="1240.9" x2="2341.6" y2="1240.9"/>
			<path class="st59" d="M2379.6,1263.6c0,0,10.5,27.8,30.4,27.8c13.2,0,14.7-7.5,23.8-10.6c11.9-4,22.5,5.3,31.7-2.6
				c10.7-9.1,4-23.8,2.6-34.4c-0.7-6.7,0.2-13.5,2.6-19.8l-65.6-99.1c0,0-7.3,2.4-25.6,0c-19.8-2.6-40.7,3.2-38.9,30.7
				L2379.6,1263.6z"/>
			<path class="st27" d="M2248.8,1237.2c0,0,42.3-10.6,72.7-33l120.2,35.7c0,0-93.8,58.1-154.6,72.7
				C2287.1,1312.5,2226.3,1303.2,2248.8,1237.2z"/>
			<path class="st31" d="M2293.7,1246.4c0,0,6.6-7.9,19.8-9.2"/>
			<path class="st27" d="M2496,1146.9c12.6,26.3-0.5,61.5-25.2,77c-32.7,20.6-56.8,29.1-91.2,23.8c-32.3-5-64-23.7-67.4-46.2
				c-6.6-43.6,84.6-76.6,113.2-82S2483.3,1120.6,2496,1146.9z"/>
			<path class="st59" d="M2457.6,1198.9c0,0-18.5,7.9-15.9,22.5c1.2,8.2,7.7,14.7,15.9,15.9l13.2-13.2L2457.6,1198.9z"/>
			<path class="st29" d="M2470.8,1224c24.7-15.6,37.8-50.7,25.2-77s-41.8-32.8-70.5-27.4c-7.4,1.5-14.7,3.5-21.9,5.9L2470.8,1224z"
				/>
			<path class="st60" d="M2409.6,1129.2c-13-20.3-35.7-58.1-35.7-58.1"/>
			<circle class="st27" cx="2437.8" cy="1243.8" r="17.2"/>
			<path class="st31" d="M2379.6,1164.5c0,0-26.4,6.6-27.8,7.9s6.6,6.6,6.6,6.6"/>
			<path class="st31" d="M2347.9,1189.6c0,0,6.6,7.9,21.1,7.9"/>
			<path class="st31" d="M2412.6,1179c0,0-9.2-6.6-10.6-5.3s2.6,11.9,2.6,11.9"/>
			<path class="st31" d="M2414,1164.5c0,0,6.6,5.3,14.5,6.6"/>
			<path class="st31" d="M2390.2,1134.1c0,0,9.2,2.7,11.9,9.2"/>
			<circle class="st12" cx="2384.2" cy="1148" r="4.6"/>
			<path class="st43" d="M2314.4,1208.9c-5.5,3.5-11.2,6.7-17.1,9.6c9.6,4.9,27.7,16.7,45.8,20.2c0.7,0.1,1.4-0.3,1.5-1
				c0.1-0.6-0.2-1.1-0.7-1.4C2330.1,1229.3,2319.1,1219.7,2314.4,1208.9z"/>
			<path class="st61" d="M537.8,1390.6c0,0,17.3,17.1,45.8,22c14.6,2.5,171.7-4.6,188.9-5s150.5,5.4,163.7,5.1
				c24.3-0.6,36.7-7.1,56.9-19.1"/>
			<circle class="st12" cx="617.6" cy="1444.7" r="23.1"/>
			<circle class="st12" cx="929" cy="1444.9" r="23.1"/>
			<path class="st31" d="M2249.8,1223.9c-4.9,0.1-36.6,30.5-11.5,72.8c21.4,36.1,64.7,30.4,71.1,18.6"/>
			<path class="st31" d="M2431.6,1243.8c0,0,10.8,4.6,6.9-7.3"/>
			<line class="st50" x1="1574.2" y1="1279.5" x2="1688.7" y2="1279.5"/>
			<line class="st50" x1="1679.3" y1="1237.2" x2="1565.5" y2="1237.2"/>
			<circle class="st10" cx="617.6" cy="1444.7" r="8.7"/>
			<circle class="st10" cx="928.6" cy="1444.7" r="8.7"/>
			<line class="st62" x1="1968.8" y1="1047.5" x2="1963.8" y2="1134.5"/>
			<path class="st62" d="M1970.8,1032.5c0,0,0-9,8-20"/>
			<path class="st51" d="M2420.8,1132.5c0,0,23-12,50,4"/>
			<path class="st51" d="M1589.3,997.7c3.3-2.4,6.8-4.6,10.4-6.3"/>
			<path class="st51" d="M1562,1065.5c-0.6-21.3,4.2-41.8,16.2-57"/>
			<path class="st51" d="M1466.8,725.5c0,0,15-10,25,5"/>
			<path class="st51" d="M1516.8,761.5c0,0,9,11,31,8c16-2.2,23.4,0.4,28,4c5,4,10,13,8,26"/>
			<path class="st51" d="M1581.8,822.5c0,0-3,12,5,22"/>
			<path class="st51" d="M1607.8,864.5c0,0,40,7,10,44"/>
			<path class="st18" d="M1349.8,1166.5c0,0,46,34,88,0"/>
			<path class="st62" d="M751.8,928.5c0,0,11-43,60-56"/>
			<path class="st63" d="M561.2,556.7c0,0,84.7-289.2,429.7-371.2"/>
			<path class="st51" d="M742.8,1136.5c0,0,8,53,53,71"/>
			<path class="st51" d="M435.8,876.5c0,0,25-17,49-7"/>
			<path class="st64" d="M915.8,541.5c9-5,24-6,40,0s30-5,42-2s16,14,31,29s28,0,39,13s7,30,7,37"/>
			<path class="st64" d="M1075.8,659.5c0,0,18,23-3,39"/>
			<path class="st65" d="M1690.8,669.5c0,0,1.9-48-10-48c-11.9,0-74,119-62.8,129.7c6.3,6,126.5-73,118.8-79.8
				c-7.6-6.8-125.6-21.2-123.1-9.3s88.3,101.9,94.2,96.8s-10.2-108.3-10.2-108.3"/>
			<circle class="st28" cx="1100.3" cy="169" r="27.5"/>
			<path class="st29" d="M1486.6,886.5c0,0-12.2,13.3-14.3,24.5c-5,26,10,44,19,43C1502.6,952.8,1486.6,886.5,1486.6,886.5z"/>
			<path class="st3" d="M1108.3,1464.7c-0.2,0-0.3,0-0.5-0.1c-0.4-0.1-39.2-12.9-35.2-58.7l0.1-0.3c0-0.2,4.3-15.4-4.3-27.1
				c-6.7-9.1-19.4-13.9-37.6-14.2c-0.9,0-1.7-0.8-1.6-1.7l0,0c0-0.9,0.8-1.6,1.7-1.6c19.3,0.3,32.9,5.6,40.3,15.6
				c9.2,12.6,5.4,28,4.9,29.8c-1.6,18.1,3.5,32.8,15,43.9c5.1,4.9,11.2,8.8,17.8,11.2c0.9,0.3,1.4,1.2,1.1,2.1
				C1109.7,1464.2,1109,1464.7,1108.3,1464.7L1108.3,1464.7z"/>
			<path class="st3" d="M1108.3,1464.7c-0.2,0-0.3,0-0.5-0.1c-0.4-0.1-39.2-12.9-35.2-58.7l0.1-0.3c0-0.2,4.3-15.4-4.3-27.1
				c-6.7-9.1-19.4-13.9-37.6-14.2c-0.9,0-1.7-0.8-1.6-1.7l0,0c0-0.9,0.8-1.6,1.7-1.6c19.3,0.3,32.9,5.6,40.3,15.6
				c9.2,12.6,5.4,28,4.9,29.8c-1.6,18.1,3.5,32.8,15,43.9c5.1,4.9,11.2,8.8,17.8,11.2c0.9,0.3,1.4,1.2,1.1,2.1
				C1109.7,1464.2,1109,1464.7,1108.3,1464.7L1108.3,1464.7z"/>
			<line class="st31" x1="1968.8" y1="1195.5" x2="1965.8" y2="1245.5"/>
			<line class="st31" x1="1992.3" y1="1196" x2="1989.3" y2="1252"/>
			<line class="st31" x1="2015.8" y1="1198.5" x2="2012.3" y2="1252"/>
			<line class="st20" x1="2048.8" y1="674.5" x2="2048.8" y2="707.5"/>
			<line class="st20" x1="2072.8" y1="672.5" x2="2072.8" y2="705.5"/>
			<line class="st20" x1="2097.8" y1="673.5" x2="2097.8" y2="706.5"/>
			<line class="st20" x1="2279.8" y1="675.5" x2="2279.8" y2="708.5"/>
			<line class="st20" x1="2304.8" y1="673.5" x2="2304.8" y2="706.5"/>
			<line class="st20" x1="2328.8" y1="673.5" x2="2328.8" y2="706.5"/>
			<path class="st56" d="M634.8,1443.4c0.2,2.6-0.2,5.3-1.2,7.8"/>
			<path class="st56" d="M601.6,1438.2c2.1-5.3,6.8-9.2,12.4-10.4"/>
			<path class="st56" d="M945.5,1442.2c0.5,3.1,0.2,6.4-1,9.3"/>
			<path class="st56" d="M934.9,1429.2c1.6,0.6,3.1,1.5,4.4,2.6"/>
			<path class="st56" d="M913.9,1436c2.9-4.6,7.7-7.5,13.1-8"/>
			<path class="st57" d="M2105.3,1304l-12.9-25c-1.9-3.8-2-8.2-0.1-12l13-26h59v63H2105.3L2105.3,1304z"/>
			<path class="st51" d="M2141.8,420.5c0,0,13-15,44-13"/>
			<path class="st51" d="M1437.8,1266.5c0,0,1-45,8-99"/>
			<line class="st18" x1="1422.8" y1="1084.5" x2="1437.8" y2="1084.5"/>
			<line class="st18" x1="1422.8" y1="1066.5" x2="1437.8" y2="1066.5"/>
			<line class="st18" x1="1427.8" y1="1102.5" x2="1438.3" y2="1102.2"/>
		</g>
	</g>
</g>
<path class="st21" d="M2051.4,200.5c2,22,0,55,0,61"/>
<path class="st51" d="M1741.3,870c0,0,26.5-32.5,76.5-38.5"/>
</svg>
