<svg id="Layer_1" data-name="Layer 1" xmlns="http://www.w3.org/2000/svg" viewBox="0 0 1200 1200"><defs><style>.cls-1{fill:#8ad8ff;}.cls-2{fill:#fdec61;}.cls-3{fill:none;stroke:#000;stroke-linecap:round;stroke-miterlimit:10;stroke-width:8.53px;}</style></defs><title>logo</title><path class="cls-1" d="M823.53,813.88c-1.69-63.12-1.77-123.34-2.49-187.44.71-152,10-337.37,10-337.37,0-21.63-4.18-43.52-14.19-60S793,201.53,777.73,201.53s-29.12,11.07-39.13,27.55-14.2,38.36-14.2,60c0,0-.7,20.26,2.4,52.6,23.13,241.61-.56,441.74-1.67,546.74A301.12,301.12,0,0,0,823.53,813.88Z"/><path class="cls-1" d="M583.83,854l87.22-2.2v-33l-12.93-.39s-12.9-107.33-24.51-153.76c-10.94-43.74-44-176.16-59.46-215.8,0,0-125.52,39.64-156.35,79.27,0,0,30.83,79.28,30.83,121.12,0,44-24.22,59.46-52.85,74.87-14.67,7.9-107.9,44-103.49,83.68.7,6.36,1.83,15.41,1.83,15.41H281.28V854S399,874.11,437.62,858.43C508.09,829.8,539.56,854,539.56,854Z"/><rect class="cls-2" x="415.3" y="536.68" width="209.01" height="52.85" rx="14.49" transform="translate(-159.65 208.66) rotate(-19.74)"/><rect class="cls-2" x="471.9" y="629.85" width="77.01" height="39.04" rx="7.96" transform="translate(-162.5 170.42) rotate(-16.39)"/><rect class="cls-2" x="513.74" y="720.13" width="77.01" height="39.04" rx="7.96" transform="translate(313.36 -151.97) rotate(21.75)"/><path class="cls-2" d="M825.26,406.39a300.75,300.75,0,0,0-96.16-64.82l-2.35-.95c-1.36-31.83-2.35-51.55-2.35-51.55,0-21.63,4.18-43.52,14.2-60s23.85-27.55,39.13-27.55,29.11,11.07,39.13,27.55,14.19,38.36,14.19,60Z"/><path class="cls-1" d="M716.76,759.84a24.13,24.13,0,0,1,22.77,24.08,24.39,24.39,0,0,1-.48,4.79c-2.79,13.81,6.89,27.16,21,27.4h1.26c14.08-.24,23.76-13.59,21-27.4a24.39,24.39,0,0,1-.47-4.79,24.13,24.13,0,0,1,22.77-24.08"/><path class="cls-1" d="M735,882.94a22.66,22.66,0,0,1-1.51-8.47h0a28.18,28.18,0,0,1,28.17-28.17h0A28.08,28.08,0,0,1,780,853.11"/><path class="cls-1" d="M806.7,831.73c-1.61-46.69-2.78-89.7-2.78-116.23V644.38q0-8.21,0-16.56"/><path class="cls-1" d="M717.36,627.82q0,8.35,0,16.56c0,52.28-4.53,168.6-8,250.83"/><path class="cls-2" d="M746.38,882.94a22.66,22.66,0,0,1-1.51-8.47h0A28.18,28.18,0,0,1,773,846.3h0a28.1,28.1,0,0,1,18.37,6.81"/><path class="cls-3" d="M566.76,845.49l87.22-2.2v-33l-12.93-.39s-12.9-107.34-24.51-153.76c-10.94-43.75-44-176.17-59.46-215.81,0,0-125.52,39.64-156.35,79.28,0,0,30.83,79.27,30.83,121.11,0,44-24.22,59.46-52.85,74.88-14.67,7.9-107.9,44-103.49,83.68.7,6.36,1.83,15.41,1.83,15.41H264.21v30.83s117.75,20.08,156.34,4.4c70.47-28.62,101.94-4.4,101.94-4.4Z"/><line class="cls-3" x1="383.12" y1="700.15" x2="441.53" y2="757.15"/><circle cx="441.66" cy="756.81" r="10.54"/><line class="cls-3" x1="361.1" y1="711.16" x2="362.04" y2="780.35"/><circle cx="362.92" cy="781.67" r="10.54"/><rect class="cls-3" x="398.23" y="528.15" width="209.01" height="52.85" rx="14.49" transform="translate(-157.77 202.39) rotate(-19.74)"/><rect class="cls-3" x="454.83" y="621.31" width="77.01" height="39.04" rx="7.96" transform="translate(-160.78 165.25) rotate(-16.39)"/><rect class="cls-3" x="496.67" y="711.6" width="77.01" height="39.04" rx="7.96" transform="translate(308.98 -146.25) rotate(21.75)"/><line class="cls-3" x1="411.75" y1="680.33" x2="499.83" y2="715.57"/><line class="cls-3" x1="418.35" y1="660.51" x2="456.82" y2="651.73"/><path class="cls-3" d="M552.56,367.92c3.56,10.29,4.52,70.18,4.52,70.18s-38.23-47-41.79-57.3a19.72,19.72,0,0,1,37.27-12.88Z"/><path class="cls-3" d="M400.84,519.54l-18.36-49.79a8.8,8.8,0,0,1,5.21-11.31h0A8.82,8.82,0,0,1,399,463.66l15.65,42.42"/><path class="cls-3" d="M717.39,644.38c0-154.95-10.06-355.31-10.06-355.31,0-21.63,4.18-43.52,14.2-60s23.85-27.55,39.13-27.55h0c15.28,0,29.11,11.07,39.13,27.55s14.19,38.36,14.19,60c0,0-10.06,200.36-10.06,355.31V715.5"/><path class="cls-3" d="M735,882.94a22.66,22.66,0,0,1-1.51-8.47h0a28.18,28.18,0,0,1,28.17-28.17h0A28.08,28.08,0,0,1,780,853.11"/><path class="cls-3" d="M846.93,454.11a298.73,298.73,0,0,1,48.86,164.21c0,165.77-134.37,300.15-300.14,300.15a298.91,298.91,0,0,1-186.87-65.25"/><path class="cls-3" d="M322.86,743.69A299.08,299.08,0,0,1,295.5,618.32c0-165.76,134.38-300.14,300.15-300.14a302.11,302.11,0,0,1,55.67,5.15,299.11,299.11,0,0,1,156.87,83.06"/><line class="cls-3" x1="653.98" y1="810.26" x2="555.7" y2="809.87"/><line class="cls-3" x1="355.25" y1="821.74" x2="264.21" y2="814.66"/><path class="cls-3" d="M322.86,743.69A299.08,299.08,0,0,1,295.5,618.32c0-165.76,134.38-300.14,300.15-300.14a302.11,302.11,0,0,1,55.67,5.15,299.11,299.11,0,0,1,156.87,83.06"/><path class="cls-2" d="M777.14,599.62c-14.34,0-29.75,8.29-40.88,22.18-1,50.54-3.22,96.86-5.39,138h91.55c-.67-44.13-.87-87.78-1.38-133.4v-.58C809.66,609.52,792.83,599.62,777.14,599.62Z"/><path class="cls-2" d="M822.43,760a.76.76,0,0,0,0-.15l-91.55.08,0,.35c11.79,2.15,25.16,11.89,25.16,23.64a24.39,24.39,0,0,1-.48,4.79c-2.79,13.81,6.89,27.16,21,27.4h1.26c14.08-.24,23.76-13.59,21-27.4a24.39,24.39,0,0,1-.47-4.79C798.27,771.54,810.23,761.4,822.43,760Z"/><path class="cls-3" d="M716.76,759.84a24.13,24.13,0,0,1,22.77,24.08,24.39,24.39,0,0,1-.48,4.79c-2.79,13.81,6.89,27.16,21,27.4h1.26c14.08-.24,23.76-13.59,21-27.4a24.39,24.39,0,0,1-.47-4.79,24.13,24.13,0,0,1,22.77-24.08"/><path class="cls-3" d="M806.7,831.73c-1.61-46.69-2.78-89.7-2.78-116.23V644.38q0-8.21,0-16.56"/><path class="cls-3" d="M717.36,627.82q0,8.35,0,16.56c0,52.28-4.53,168.6-8,250.83"/><path class="cls-3" d="M760.66,596.78c16.76,0,32,11.29,43.31,29.66.71-152,10-337.37,10-337.37,0-21.63-4.18-43.52-14.19-60s-23.85-27.55-39.13-27.55-29.12,11.07-39.13,27.55-14.2,38.36-14.2,60c0,0,1,20.14,2.4,52.6,2.8,66,7.14,182.87,7.62,284.77C728.68,608.07,743.9,596.78,760.66,596.78Z"/></svg>