<?xml version="1.0" encoding="utf-8"?>
<!-- Generator: Adobe Illustrator 23.1.1, SVG Export Plug-In . SVG Version: 6.00 Build 0)  -->
<svg version="1.1" id="Layer_1" xmlns="http://www.w3.org/2000/svg" xmlns:xlink="http://www.w3.org/1999/xlink" x="0px" y="0px"
	 viewBox="0 0 1200 1200" style="enable-background:new 0 0 1200 1200;" xml:space="preserve">
<style type="text/css">
	.st0{fill:#E08532;}
	.st1{fill:#FFFFFF;}
	.st2{fill:#FFF69F;}
	.st3{fill:#F4E67F;}
	.st4{fill:none;stroke:#F4E67F;stroke-width:2.3529;stroke-miterlimit:10;}
	.st5{fill:none;stroke:#EAACAC;stroke-width:25.9533;stroke-miterlimit:10;}
	.st6{fill:#FFCDCD;}
	.st7{fill:#CFFFFB;}
	.st8{fill:#DB9595;}
	.st9{fill:#99FFEB;}
	.st10{fill:#69CCC5;}
	.st11{fill:#B75C5C;}
	.st12{fill:none;stroke:#DB9595;stroke-width:32.5667;stroke-linecap:round;stroke-miterlimit:10;}
	.st13{fill:#994242;}
	.st14{fill:#D37979;}
	.st15{fill:#EAACAC;}
	.st16{clip-path:url(#SVGID_2_);}
	.st17{fill:none;stroke:#8452AF;stroke-width:17.7707;stroke-linecap:round;stroke-miterlimit:10;}
	.st18{fill:#ADF2EE;}
	.st19{fill:#CC6C15;}
	.st20{fill:#D7FFFD;}
	.st21{fill:#3A6D52;}
	.st22{fill:#3D8762;}
	.st23{fill:#8452AF;}
	.st24{fill:#D38E44;}
	.st25{font-family:'DINCondensed-Bold';}
	.st26{font-size:110.0092px;}
	.st27{letter-spacing:-2;}
	.st28{fill:none;stroke:#CC6C15;stroke-width:8.4622;stroke-miterlimit:10;}
</style>
<rect class="st0" width="1200" height="1200"/>
<circle class="st1" cx="163.4" cy="405.2" r="351.2"/>
<circle class="st1" cx="903.4" cy="897.1" r="425.9"/>
<title>logos-27</title>
<g>
	<path class="st2" d="M1003.7,824.6h183.2c19.2,0,34.7,15.4,34.7,34.3v271.6c0,19-15.5,34.3-34.7,34.3h-183.2
		c-19.2,0-34.7-15.4-34.7-34.3V858.9C969,839.9,984.5,824.6,1003.7,824.6z"/>
	<path class="st3" d="M1095.3,1164.8h-91.5c-19.2,0-34.7-15.3-34.8-34.2V858.9c0-19,15.5-34.3,34.7-34.3h91.6L1095.3,1164.8z"/>
	<rect x="1024.6" y="942.8" class="st1" width="143.9" height="103"/>
	<rect x="1039.3" y="953.4" class="st4" width="114.5" height="81.9"/>
	<path class="st5" d="M918.6,1125.2c-127.3,0-230.5-102.1-230.5-228.1S791.2,669,918.5,669c61-0.1,119.6,24,163.1,66.9
		c3.6,3.6,7,7.2,10.3,10.9"/>
	<path class="st6" d="M1148.2,841.3c0,14-23.7,22.5-53,22.5c-29.3,0-53-8.6-53-22.5c0-14,23.7-33.4,53-33.4
		S1148.2,827.3,1148.2,841.3z"/>
	<path class="st7" d="M1132.3,833.9c0,0-9.9,6.9-37.9,6.9c-27.1,0-36.2-6.9-36.2-6.9v-54.1h74.1V833.9z"/>
	<path class="st8" d="M1095.3,807.9c-29.2,0-53,19.4-53,33.4c0,14,23.7,22.5,53,22.5V807.9z"/>
	<path class="st9" d="M1058.2,806.9v27c0,0,9.1,6.9,36.2,6.9h0.9v-61h-37V806.9z"/>
	<ellipse class="st9" cx="1095.3" cy="779.9" rx="37" ry="5"/>
	<path class="st6" d="M1109.9,778.6c0,0-4.8,3.5-14.7,3.5c-9.2,0-14.7-3.5-14.7-3.5v-45.4c0-4,0.2-10.3,1.7-13.7
		c2.1-4.6,8.9-10,13-10l0,0c4,0,10.6,4.9,13,10c1.6,3.4,1.7,9.7,1.7,13.7V778.6L1109.9,778.6z"/>
	<path class="st6" d="M1025.7,1135c0,0,53,69.2,145.6,96c9.2,2.7,23.8,7.6,42.1,10.7c43.9,7.5,50.5-63.9,33.5-73.7
		c-9.7-5.8-19.9-10.7-30.5-14.7C1182,1140.5,1126.8,1121.7,1025.7,1135z"/>
	<path class="st10" d="M1095.3,774.9c-20.5,0-37,2.2-37,4.9s16.6,4.9,37,4.9V774.9z"/>
	<path class="st8" d="M1025.5,1135.4c0,0,13.3,17.3,38.1,37.9c24.8,20.6,61.2,44.7,107.5,58.1c4.6,1.3,10.5,3.2,17.6,5.2
		c8.1,2.2,16.2,4.1,24.5,5.5c22,3.7,34.6-12.2,39.6-30.4L1025.5,1135.4z"/>
	<ellipse class="st11" cx="1027.2" cy="1140.1" rx="19.7" ry="19.5"/>
	<path class="st12" d="M868.9,1119.9c-14.7-3.2-29-7.8-42.7-13.7"/>
	<path class="st8" d="M1095.3,709.4c-4.1,0-10.9,5.4-13,10c-1.5,3.4-1.7,9.7-1.7,13.7v45.4c0,0,5.5,3.6,14.7,3.6V709.4z"/>
	<path class="st13" d="M1046.8,1142.3c-1,10.8-10.6,18.8-21.4,17.9c-10.8-1-18.8-10.6-17.9-21.4l0,0c0-0.3,0-0.5,0.1-0.8l21,2.3
		L1046.8,1142.3z"/>
	<path class="st14" d="M962.3,1072.8c32.5,4,58.9,34.4,54.8,67.3c-4.1,32.9-34.6,56.3-69.8,52c-43.4-5.4-91.1-38.3-86.9-71.3
		C864.5,1087.8,918.9,1067.5,962.3,1072.8z"/>
	<path class="st11" d="M1017.3,1139.2c-4.1,32.9-34.6,56.3-69.8,52c-43.4-5.4-91.1-38.3-87-71.3L1017.3,1139.2z"/>
	<path class="st15" d="M1129.9,977c0,18.2-32.5,50.7-32.5,50.7s-34.1-32.4-34.1-50.7c0-8.6,3.4-14.5,11.4-15.3
		c16.3-1.6,22.8,16.1,22.8,16.1s7.7-16.1,19.5-16.1C1126.6,961.7,1129.9,968,1129.9,977z"/>
</g>
<g>
	<g>
		<defs>
			<circle id="SVGID_1_" cx="163.4" cy="405.2" r="322"/>
		</defs>
		<clipPath id="SVGID_2_">
			<use xlink:href="#SVGID_1_"  style="overflow:visible;"/>
		</clipPath>
		<g class="st16">
			<path class="st17" d="M198,256.4c0-23.5-19-42.6-42.6-42.6s-42.6,19-42.6,42.6c0,23.5,19,42.6,42.6,42.6l0,0v42.4
				c0,0-183.9,74.9-184.7,133.5c-0.8,58.6,183.5-8.3,183.5-8.3"/>
			<rect x="54.8" y="374.7" class="st18" width="109.4" height="330.1"/>
			<path class="st19" d="M-76.6,746c0,0-3.3-166.5,0-238c2-44,14.5-82.1,27.7-88.4c24-11.5,102.6,70.8,102.6,70.8L90.7,746H-76.6z"
				/>
			<polygon class="st0" points="164.8,746 90.8,746 -15.5,746 -14.8,582.5 -48.9,419.5 90.8,361.4 110.7,361.4 164.8,655.3 			"/>
			<polygon class="st19" points="54.8,374.7 164.8,655.3 114.6,382.5 			"/>
			<path class="st20" d="M124.3,427.5l-67.8-49.9c-5.4-4-7.3-11.2-4.6-17.3l13.5-30.1l98.8,44.5l-21.6,48c-2.8,6.2-10,8.9-16.2,6.1
				C125.7,428.4,125,428,124.3,427.5z"/>
			<path class="st21" d="M87.8,521.8c-2.5,16.8-15.4,24.4-25.6,22.8s-20.3-11.8-17.8-28.6c3.6-24.2,27.2-33.8,27.2-33.8
				S91.3,498,87.8,521.8z"/>
			<path class="st22" d="M62.2,544.7c-10.2-1.5-20.3-11.8-17.8-28.6c3.6-24.2,27.2-33.8,27.2-33.8L62.2,544.7z"/>
			<path class="st21" d="M50.1,512.1c6.9,14,1.1,26.6-7.4,30.7s-21.6,1.6-28.5-12.4c-9.9-20.3,2.9-39.9,2.9-39.9
				S40.4,492.2,50.1,512.1z"/>
			<path class="st22" d="M42.9,542.9c-8.5,4.1-21.6,1.6-28.5-12.4c-9.9-20.3,2.9-39.9,2.9-39.9L42.9,542.9z"/>
			<polygon class="st19" points="94.7,611.3 49.6,627.6 4.6,611.3 4.6,556.8 4.6,534.3 49.6,534.3 94.7,534.3 94.7,556.8 			"/>
			<path class="st23" d="M4.6,548.6v-13c0-6.8,5.5-12.2,12.2-12.2h65.8c6.8,0,12.2,5.5,12.2,12.2v30.8L4.6,548.6z"/>
			<circle class="st23" cx="131.2" cy="412.3" r="7.2"/>
			<circle class="st23" cx="156.3" cy="257.7" r="7.2"/>
			<circle class="st24" cx="49.6" cy="539.8" r="7.2"/>
			<line class="st17" x1="88" y1="176" x2="131.2" y2="220.6"/>
			<line class="st17" x1="226.4" y1="176" x2="182.3" y2="221.4"/>
			<text transform="matrix(1 0 0 1 173.5563 453.4015)" class="st19 st25 st26 st27">W</text>
			<text transform="matrix(1 0 0 1 235.4914 453.4015)" class="st19 st25 st26">ASH</text>
			<text transform="matrix(1 0 0 1 173.5563 585.4122)" class="st19 st25 st26">TIP</text>
		</g>
	</g>
</g>
<circle class="st28" cx="163.4" cy="405.2" r="322"/>
</svg>
